<svg width="17" height="16" viewBox="0 0 17 16" fill="none" xmlns="http://www.w3.org/2000/svg">
<path d="M9.77732 1.48409C8.64164 1.49461 7.50862 1.86723 6.56891 2.60121C8.64003 1.56031 11.2406 1.89873 12.9687 3.62676C14.6967 5.35476 15.0222 7.94235 13.9812 10.0135C15.6012 7.93962 15.4738 4.9375 13.5658 3.02958C12.5224 1.9862 11.1479 1.47146 9.7773 1.48411L9.77732 1.48409ZM9.01092 3.25942C7.96579 3.27123 6.92444 3.66175 6.11475 4.43139C7.80534 3.4075 10.0422 3.63405 11.5018 5.09359C12.9614 6.55322 13.1749 8.77729 12.1509 10.4679C13.7401 8.79614 13.7263 6.14974 12.086 4.50946C11.2402 3.66372 10.1235 3.24688 9.01092 3.25942ZM8.54376 4.93398C7.74771 4.93398 6.95172 5.23765 6.34439 5.84501C5.12967 7.05973 5.12967 9.02915 6.34439 10.2439C7.55905 11.4586 9.52842 11.4586 10.7431 10.2439C11.9579 9.02915 11.9579 7.05976 10.7431 5.84504C10.1358 5.23768 9.33978 4.93398 8.54376 4.93398ZM4.8134 5.73273C3.22425 7.40448 3.251 10.0638 4.89131 11.7041C6.53156 13.3445 9.17801 13.3582 10.8497 11.769C9.15908 12.7931 6.93512 12.5797 5.47549 11.12C4.01586 9.66028 3.7894 7.42336 4.81343 5.73276L4.8134 5.73273ZM2.98308 6.18709C1.36317 8.26092 1.50351 11.276 3.41143 13.1839C5.31937 15.0919 8.32149 15.2192 10.3954 13.5994C8.32424 14.6403 5.7366 14.3149 4.0086 12.5868C2.2806 10.8587 1.94215 8.25813 2.98308 6.18704V6.18709Z" fill="#F85640"/>
</svg>
