<svg width="16" height="16" viewBox="0 0 16 16" fill="none" xmlns="http://www.w3.org/2000/svg">
<rect width="16" height="16" rx="8" fill="white"/>
<g clip-path="url(#clip0_8548_4527)">
<path fill-rule="evenodd" clip-rule="evenodd" d="M8.00469 1.8751C4.68447 1.85651 1.86112 4.55086 1.87505 8.021C1.88898 11.454 4.65197 14.139 8.02791 14.1251C11.3946 14.1112 14.1297 11.4075 14.1251 7.99313C14.1204 4.48118 11.2599 1.86116 8.00469 1.8751ZM13.1777 8.74104C13.1777 8.74104 13.1731 8.75498 13.1731 8.76427C13.1313 9.06158 13.0617 9.2381 13.0617 9.2381C13.0833 9.25668 13.0761 9.2794 13.0689 9.30211C13.0653 9.31346 13.0617 9.32482 13.0617 9.33566C12.9548 9.73052 12.8109 10.1114 12.6159 10.4738C12.2954 11.0638 11.8822 11.5748 11.3714 12.0068C11.3621 12.0161 11.3481 12.0254 11.3296 12.0347C11.3296 12.0347 10.9534 12.3087 10.9395 12.3227V12.3087C10.9395 12.3087 10.907 12.3505 10.8838 12.3645C10.1454 12.8476 9.34207 13.131 8.46442 13.2007C8.43657 13.2025 8.40873 13.2059 8.38089 13.2092L8.38083 13.2092C8.33904 13.2142 8.29725 13.2192 8.25545 13.2192H8.02327C7.7801 13.2687 7.55521 13.1535 7.32589 13.036L7.32576 13.036C7.29675 13.0211 7.26768 13.0062 7.23849 12.9916C7.1967 12.973 7.16419 12.9544 7.18277 12.8941C7.23376 12.7187 7.25632 12.5412 7.27896 12.3629L7.27896 12.3629C7.28931 12.2815 7.29968 12.1999 7.31279 12.1183C7.35923 11.7513 7.2292 11.6351 7.2292 11.6351C7.09797 11.5006 6.94124 11.4031 6.78357 11.3051L6.78353 11.305C6.71806 11.2643 6.65242 11.2235 6.58838 11.1799C6.35218 11.0179 6.11353 10.8607 5.87421 10.7032L5.87419 10.7032C5.78416 10.6439 5.69404 10.5846 5.60392 10.5249C5.60392 10.5249 5.48783 10.432 5.20921 10.4784H5.19992C5.19398 10.4824 5.18973 10.4872 5.18537 10.4921L5.18537 10.4921C5.1795 10.4988 5.17343 10.5056 5.16277 10.511C5.07731 10.5537 4.99063 10.5948 4.90381 10.636L4.9038 10.636L4.90379 10.636C4.69812 10.7335 4.49169 10.8314 4.29905 10.9523C4.27583 10.9662 4.25725 10.9708 4.23868 10.9662C4.07615 11.1706 4.16438 11.3378 4.16438 11.3378C4.16438 11.3378 4.15974 11.3378 4.15509 11.3332C4.1673 11.3698 4.17695 11.4091 4.18672 11.4488L4.18673 11.4488C4.19554 11.4847 4.20446 11.5209 4.21546 11.5562C3.94613 11.296 3.72788 11.0034 3.54677 10.6782C3.54213 10.6689 3.53749 10.6642 3.53284 10.6596C3.30066 10.3019 3.10562 9.77697 3.03133 9.55399C3.02204 9.53541 3.01739 9.51683 3.01275 9.4936C3.00346 9.46573 2.99882 9.44715 2.99882 9.44715C2.9965 9.43786 2.99418 9.42973 2.99185 9.4216C2.98953 9.41347 2.98721 9.40534 2.98489 9.39605C2.86415 8.93615 2.79914 8.46696 2.7945 7.9188C2.7945 7.8708 2.80031 7.79181 2.80692 7.70184C2.81055 7.65249 2.81443 7.59983 2.81772 7.54717C2.81772 7.52733 2.82449 7.51427 2.83226 7.4993L2.83629 7.49142C2.83629 7.49142 2.83629 7.06404 2.99418 6.57627C3.23565 5.71222 3.68144 4.95502 4.31762 4.30001C4.38728 4.23033 4.43836 4.19317 4.53587 4.26749C4.62875 4.33717 4.74484 4.35111 4.86093 4.32324C4.97815 4.29197 5.09866 4.26398 5.21693 4.23652L5.21694 4.23652L5.2835 4.22104L5.73394 4.1049C5.96784 4.02379 6.17871 3.90076 6.38904 3.77805L6.38904 3.77805L6.38905 3.77804C6.49189 3.71804 6.59461 3.65811 6.69982 3.6032C6.87659 3.51328 7.04755 3.41563 7.21895 3.31774C7.31322 3.2639 7.40761 3.20998 7.50318 3.15723C7.61463 3.09684 7.69357 3.01323 7.72143 2.89244C7.74001 2.80883 7.79109 2.77166 7.87003 2.77166C8.46442 2.76702 9.04488 2.8367 9.63927 3.02716C9.356 3.15259 9.30492 3.37557 9.31421 3.63571C9.31731 3.75063 9.31627 3.86555 9.31523 3.97908V3.97913C9.31472 4.03539 9.31421 4.09131 9.31421 4.14671C9.31421 4.40958 9.46798 4.56135 9.51334 4.60611L9.51853 4.61125C9.82775 4.82905 10.1541 5.01897 10.4802 5.2087C10.634 5.29819 10.7877 5.38764 10.9395 5.47995C10.9999 5.51711 11.0509 5.55892 11.0974 5.60073C11.0974 5.60073 11.3388 5.77261 11.5014 5.72151C11.52 5.71222 11.5432 5.70293 11.571 5.69828C11.65 5.68899 11.7196 5.63789 11.7707 5.58215C11.8179 5.53246 11.8677 5.4851 11.9177 5.43757C12.0548 5.30737 12.1931 5.17595 12.2815 4.99218C12.4023 5.14548 12.4951 5.29413 12.5787 5.45208C12.9595 6.1396 13.1777 6.87358 13.2335 7.6633C13.252 7.97455 13.2335 8.2765 13.2056 8.5831V8.60168C13.2056 8.61097 13.2044 8.62026 13.2033 8.62955C13.2021 8.63884 13.201 8.64813 13.201 8.65742C13.201 8.68994 13.201 8.71781 13.1917 8.75033L13.1777 8.74104ZM12.4533 9.55386C12.5322 9.34017 12.4533 9.11719 12.4533 9.11719L12.3994 9.03871C12.1526 8.67881 11.9041 8.31652 11.6313 7.97442C11.6221 7.96048 11.6128 7.9419 11.6081 7.92796V7.93261C11.6081 7.93261 11.6081 7.83041 11.2599 7.87222C10.8807 8.00389 10.5078 8.15671 10.1356 8.30928L10.1356 8.30929L10.1355 8.30934C9.95618 8.38282 9.77705 8.45625 9.59742 8.52722C9.58891 8.52935 9.58137 8.5305 9.57436 8.53158L9.57434 8.53158C9.56606 8.53285 9.55852 8.534 9.55098 8.53651C9.31415 8.7502 9.3188 8.81989 9.3188 8.81989C9.28535 9.10582 9.28973 9.39176 9.29414 9.67901V9.67903V9.67904C9.29646 9.83045 9.29878 9.98222 9.29558 10.1345V10.6177C9.30487 10.9568 9.50919 11.0683 9.50919 11.0683C9.64754 11.152 9.80373 11.1799 9.95921 11.2077C10.0281 11.22 10.0969 11.2323 10.1639 11.2494C10.4426 11.3191 10.7258 11.3795 11.0091 11.4353C11.0091 11.4353 11.2877 11.4492 11.427 11.2309C11.4301 11.2247 11.4332 11.2226 11.4363 11.2205C11.4379 11.2195 11.4394 11.2185 11.441 11.2169C11.4671 11.1733 11.495 11.1316 11.5225 11.0905L11.5226 11.0905C11.539 11.0659 11.5553 11.0415 11.571 11.0172C11.6652 10.8595 11.76 10.7018 11.8548 10.5441L11.8553 10.5433L11.8554 10.5431C12.0452 10.2273 12.2351 9.91149 12.4208 9.59567C12.431 9.57855 12.4413 9.569 12.4534 9.55773C12.4578 9.5537 12.4623 9.54946 12.4672 9.54457H12.4579L12.4533 9.55386ZM7.55892 7.36589C7.54963 7.42163 7.5032 7.52383 7.32674 7.66319L7.32209 7.65855C6.96767 7.80375 6.6157 7.94404 6.26261 8.08478C6.12995 8.13765 5.99714 8.19059 5.86398 8.24387C5.59929 8.38788 5.33925 8.30426 5.33925 8.30426C5.33614 8.30219 5.33303 8.29989 5.32982 8.2975C5.31864 8.28922 5.3062 8.28 5.28817 8.27639C5.25102 8.2671 5.21851 8.23458 5.19529 8.20206C5.11291 8.0918 5.02996 7.98124 4.94678 7.87039C4.69706 7.5376 4.44539 7.2022 4.20155 6.86418C4.01116 6.60404 4.19226 6.46003 4.19226 6.46003H4.17833C4.18538 6.45298 4.1931 6.44726 4.20072 6.44162C4.21319 6.43239 4.22541 6.42334 4.23405 6.40893C4.32073 6.27886 4.4069 6.14827 4.49306 6.01768C4.6654 5.75651 4.83773 5.49533 5.01419 5.23828C5.03922 5.20177 5.0626 5.16385 5.08598 5.12595C5.16671 4.99507 5.24733 4.86436 5.39497 4.79232C5.52964 4.74122 5.71074 4.76909 5.80361 4.79232C5.80716 4.79409 5.80935 4.79587 5.81123 4.79738C5.81426 4.79983 5.81645 4.80161 5.82219 4.80161C5.83398 4.80373 5.84578 4.80585 5.85759 4.80798C6.0784 4.8477 6.30275 4.88806 6.51874 4.94097C6.61451 4.96492 6.71268 4.98067 6.81109 4.99646C7.01809 5.02967 7.22613 5.06305 7.41497 5.17324C7.41497 5.17324 7.55428 5.34512 7.56821 5.53559C7.58509 5.80587 7.58233 6.07614 7.57957 6.34642C7.57853 6.44778 7.5775 6.54913 7.5775 6.65049C7.5775 6.71495 7.57956 6.77975 7.58163 6.84471C7.58716 7.01851 7.59272 7.19343 7.55892 7.36589Z" fill="#4A4A4A"/>
</g>
<defs>
<clipPath id="clip0_8548_4527">
<rect width="14" height="14" fill="white" transform="translate(1 1)"/>
</clipPath>
</defs>
</svg>
