<svg width="17" height="16" viewBox="0 0 17 16" fill="none" xmlns="http://www.w3.org/2000/svg">
<g clip-path="url(#clip0_8900_2943)">
<path fill-rule="evenodd" clip-rule="evenodd" d="M8.40527 1.00011C4.61073 0.978873 1.38404 4.05813 1.39996 8.024C1.41588 11.9474 4.57358 15.016 8.4318 15.0001C12.2794 14.9842 15.4053 11.8943 15.4 7.99215C15.3947 3.97849 12.1255 0.984182 8.40527 1.00011ZM14.3173 8.8469C14.3173 8.8469 14.312 8.86283 14.312 8.87345C14.2643 9.21323 14.1846 9.41498 14.1846 9.41498C14.2094 9.43621 14.2012 9.46217 14.1929 9.48812C14.1888 9.5011 14.1846 9.51408 14.1846 9.52646C14.0626 9.97773 13.8981 10.4131 13.6752 10.8272C13.309 11.5014 12.8367 12.0854 12.2529 12.5792C12.2423 12.5898 12.2263 12.6004 12.2051 12.611C12.2051 12.611 11.7752 12.9243 11.7593 12.9402V12.9243C11.7593 12.9243 11.7222 12.972 11.6956 12.988C10.8518 13.5401 9.9337 13.864 8.93067 13.9436C8.89882 13.9457 8.86698 13.9496 8.83514 13.9534L8.83511 13.9534C8.78736 13.9591 8.7396 13.9648 8.69185 13.9648H8.4265C8.14858 14.0214 7.89157 13.8897 7.62949 13.7555C7.59629 13.7385 7.56302 13.7214 7.5296 13.7047C7.48184 13.6835 7.44469 13.6622 7.46592 13.5932C7.5242 13.3928 7.54998 13.1899 7.57586 12.9862L7.57586 12.9862C7.58769 12.8931 7.59954 12.7998 7.61452 12.7066C7.66759 12.2872 7.51899 12.1545 7.51899 12.1545C7.36901 12.0007 7.18989 11.8893 7.0097 11.7772C6.93485 11.7307 6.85982 11.684 6.78662 11.6342C6.51671 11.449 6.24399 11.2695 5.97051 11.0894L5.97045 11.0894L5.96991 11.089C5.86718 11.0214 5.76435 10.9537 5.66152 10.8856C5.66152 10.8856 5.52885 10.7794 5.21042 10.8325H5.19981C5.19303 10.837 5.18817 10.8425 5.18318 10.8481C5.17647 10.8557 5.16954 10.8636 5.15735 10.8697C5.05968 10.9185 4.96061 10.9655 4.86138 11.0125C4.62633 11.124 4.39041 11.2359 4.17024 11.374C4.14371 11.3899 4.12248 11.3953 4.10125 11.3899C3.9155 11.6235 4.01634 11.8147 4.01634 11.8147C4.01634 11.8147 4.01103 11.8147 4.00572 11.8094C4.01968 11.8512 4.0307 11.8961 4.04187 11.9415C4.05194 11.9825 4.06214 12.0239 4.07471 12.0642C3.76691 11.7669 3.51747 11.4324 3.3105 11.0608C3.30519 11.0502 3.29989 11.0449 3.29458 11.0395C3.02923 10.6307 2.80633 10.0308 2.72142 9.77599C2.7108 9.75476 2.7055 9.73352 2.70019 9.70697C2.68957 9.67512 2.68427 9.65388 2.68427 9.65388C2.68161 9.64326 2.67896 9.63397 2.67631 9.62468C2.67365 9.61539 2.671 9.6061 2.66835 9.59548C2.53036 9.06989 2.45606 8.53367 2.45076 7.9072C2.45076 7.85235 2.4574 7.76209 2.46496 7.65928L2.46496 7.65926C2.46911 7.60285 2.47353 7.54266 2.47729 7.48248C2.47729 7.4598 2.48503 7.44488 2.49391 7.42777L2.49852 7.41877C2.49852 7.41877 2.49852 6.93033 2.67896 6.37288C2.95493 5.3854 3.4644 4.52002 4.19147 3.77144C4.27108 3.6918 4.32945 3.64933 4.4409 3.73428C4.54704 3.81391 4.67972 3.82984 4.81239 3.79799C4.94636 3.76225 5.08408 3.73027 5.21923 3.69889L5.21927 3.69888L5.29534 3.68119L5.81012 3.54846C6.07744 3.45575 6.31843 3.31515 6.55881 3.17491C6.67634 3.10633 6.79374 3.03784 6.91399 2.97508C7.116 2.87232 7.31139 2.76073 7.50727 2.64884C7.615 2.58731 7.72289 2.52569 7.83211 2.46541C7.95948 2.39639 8.0497 2.30083 8.08154 2.16279C8.10277 2.06723 8.16114 2.02476 8.25136 2.02476C8.93067 2.01945 9.59405 2.09909 10.2733 2.31676C9.94962 2.4601 9.89124 2.71494 9.90186 3.01224C9.90541 3.14358 9.90421 3.27491 9.90303 3.40466V3.40473L9.90302 3.40496C9.90244 3.46917 9.90186 3.533 9.90186 3.59624C9.90186 3.89666 10.0776 4.07011 10.1294 4.12127L10.1354 4.12715C10.4888 4.37606 10.8618 4.59311 11.2344 4.80994L11.2344 4.80995L11.2345 4.81001C11.4102 4.91226 11.5859 5.01447 11.7593 5.11994C11.8283 5.16241 11.8867 5.2102 11.9398 5.25798C11.9398 5.25798 12.2157 5.45441 12.4015 5.39601C12.4227 5.3854 12.4492 5.37478 12.4811 5.36947C12.5713 5.35885 12.6509 5.30045 12.7093 5.23674C12.7632 5.17996 12.8202 5.12583 12.8773 5.07152C13.0339 4.92271 13.192 4.77252 13.2931 4.56249C13.431 4.73769 13.5372 4.90758 13.6327 5.08809C14.0679 5.87383 14.3173 6.71266 14.381 7.6152C14.4022 7.97091 14.381 8.316 14.3492 8.6664V8.68763C14.3492 8.69825 14.3478 8.70887 14.3465 8.71949C14.3452 8.73011 14.3439 8.74072 14.3439 8.75134V8.75135C14.3439 8.78851 14.3439 8.82036 14.3332 8.85752L14.3173 8.8469ZM13.4894 9.77584C13.5796 9.53163 13.4894 9.27679 13.4894 9.27679L13.4278 9.18703C13.1457 8.77574 12.8617 8.36172 12.55 7.97076C12.5394 7.95483 12.5288 7.9336 12.5235 7.91767V7.92298C12.5235 7.92298 12.5235 7.80618 12.1254 7.85396C11.6921 8.00444 11.266 8.1791 10.8406 8.35347L10.8406 8.35348L10.8404 8.35352C10.6355 8.43751 10.4308 8.52143 10.2255 8.60254C10.2158 8.60497 10.2072 8.60629 10.1992 8.60752C10.1897 8.60897 10.1811 8.61028 10.1725 8.61316C9.90179 8.85738 9.9071 8.93701 9.9071 8.93701C9.86887 9.2638 9.87388 9.59058 9.87892 9.91886V9.91888C9.88157 10.0919 9.88423 10.2654 9.88056 10.4395V10.9916C9.89118 11.3792 10.1247 11.5066 10.1247 11.5066C10.2828 11.6022 10.4613 11.6342 10.639 11.6659C10.7178 11.68 10.7964 11.6941 10.873 11.7137C11.1914 11.7933 11.5151 11.8623 11.8389 11.926C11.8389 11.926 12.1573 11.9419 12.3165 11.6924C12.32 11.6853 12.3236 11.683 12.3271 11.6806C12.3289 11.6794 12.3307 11.6783 12.3324 11.6765C12.3623 11.6267 12.3942 11.579 12.4256 11.5321L12.4257 11.532L12.4257 11.532C12.4445 11.5039 12.4631 11.476 12.481 11.4482C12.5889 11.2677 12.6974 11.0872 12.8059 10.9067C13.0229 10.5457 13.2399 10.1847 13.4522 9.82363C13.4639 9.80406 13.4757 9.79315 13.4895 9.78026C13.4918 9.77815 13.4941 9.77599 13.4965 9.77373C13.4993 9.77106 13.5023 9.76825 13.5053 9.76523H13.4947L13.4894 9.77584ZM7.89581 7.2753C7.8852 7.33901 7.83213 7.45581 7.63046 7.61508L7.62515 7.60977C7.22004 7.77573 6.81773 7.93609 6.41415 8.09695C6.2626 8.15736 6.11087 8.21784 5.95874 8.27871C5.65624 8.44329 5.35904 8.34773 5.35904 8.34773C5.35549 8.34536 5.35194 8.34273 5.34827 8.34001C5.33549 8.33053 5.32128 8.32 5.30066 8.31587C5.25821 8.30526 5.22106 8.26809 5.19452 8.23093C5.10037 8.1049 5.00555 7.97854 4.91049 7.85185C4.6251 7.47153 4.33748 7.08822 4.05881 6.70192C3.84123 6.40461 4.0482 6.24003 4.0482 6.24003H4.03228C4.04033 6.23197 4.04916 6.22544 4.05787 6.21899C4.07212 6.20844 4.08608 6.1981 4.09596 6.18163C4.19502 6.03298 4.29349 5.88375 4.39196 5.73451C4.58892 5.43602 4.78588 5.13752 4.98755 4.84375C5.01615 4.80202 5.04288 4.75869 5.06959 4.71537C5.16186 4.56579 5.254 4.41642 5.42273 4.33408C5.57663 4.27568 5.78361 4.30753 5.88975 4.33408C5.8938 4.33611 5.89631 4.33813 5.89845 4.33987C5.90191 4.34267 5.90442 4.3447 5.91097 4.3447C5.92447 4.34713 5.93798 4.34956 5.9515 4.35199C6.20383 4.39738 6.46021 4.4435 6.70703 4.50397C6.81648 4.53134 6.92868 4.54934 7.04115 4.56738C7.27772 4.60534 7.51548 4.64348 7.73129 4.76942C7.73129 4.76942 7.8905 4.96586 7.90643 5.18353C7.92572 5.49242 7.92257 5.80131 7.91941 6.11019C7.91822 6.22603 7.91704 6.34187 7.91704 6.4577C7.91704 6.53137 7.9194 6.60543 7.92176 6.67967C7.92808 6.87829 7.93444 7.0782 7.89581 7.2753Z" fill="#4A4A4A"/>
<path d="M11.5998 16C14.2508 16 16.3998 13.851 16.3998 11.2C16.3998 8.54906 14.2508 6.40002 11.5998 6.40002C8.94884 6.40002 6.7998 8.54906 6.7998 11.2C6.7998 13.851 8.94884 16 11.5998 16Z" fill="#F85640"/>
<path fill-rule="evenodd" clip-rule="evenodd" d="M9.7062 9.31109C9.77432 9.24292 9.8667 9.20462 9.96301 9.20462C10.0593 9.20462 10.1517 9.24292 10.2198 9.31109L11.5976 10.6904L12.9753 9.31109C13.0088 9.27636 13.0489 9.24865 13.0932 9.2296C13.1376 9.21054 13.1852 9.20051 13.2335 9.20009C13.2817 9.19967 13.3295 9.20887 13.3742 9.22715C13.4188 9.24544 13.4594 9.27244 13.4935 9.30658C13.5276 9.34072 13.5545 9.38132 13.5728 9.42601C13.5911 9.4707 13.6003 9.51859 13.5998 9.56687C13.5994 9.61515 13.5894 9.66287 13.5704 9.70723C13.5513 9.7516 13.5237 9.79172 13.489 9.82527L12.1112 11.2045L13.489 12.5838C13.5551 12.6524 13.5917 12.7443 13.5909 12.8396C13.5901 12.9349 13.5519 13.0261 13.4845 13.0936C13.4172 13.161 13.3261 13.1992 13.2308 13.2001C13.1356 13.2009 13.0438 13.1642 12.9753 13.098L11.5976 11.7187L10.2198 13.098C10.1513 13.1642 10.0596 13.2009 9.96432 13.2001C9.86908 13.1992 9.77798 13.161 9.71063 13.0936C9.64328 13.0261 9.60508 12.9349 9.60425 12.8396C9.60343 12.7443 9.64004 12.6524 9.7062 12.5838L11.084 11.2045L9.7062 9.82527C9.63811 9.75708 9.59985 9.6646 9.59985 9.56818C9.59985 9.47175 9.63811 9.37928 9.7062 9.31109Z" fill="white"/>
</g>
<defs>
<clipPath id="clip0_8900_2943">
<rect width="16" height="16" fill="white" transform="translate(0.399902)"/>
</clipPath>
</defs>
</svg>
