<svg width="17" height="16" viewBox="0 0 17 16" fill="none" xmlns="http://www.w3.org/2000/svg">
<g clip-path="url(#clip0_8900_2928)">
<path fill-rule="evenodd" clip-rule="evenodd" d="M8.80542 1.00011C5.01087 0.978873 1.78419 4.05813 1.80011 8.024C1.81603 11.9474 4.97372 15.016 8.83195 15.0001C12.6796 14.9842 15.8054 11.8943 15.8001 7.99215C15.7948 3.97849 12.5257 0.984182 8.80542 1.00011ZM14.7175 8.8469C14.7175 8.8469 14.7122 8.86283 14.7122 8.87345C14.6644 9.21323 14.5848 9.41498 14.5848 9.41498C14.6096 9.43621 14.6013 9.46217 14.593 9.48812C14.5889 9.5011 14.5848 9.51408 14.5848 9.52646C14.4627 9.97773 14.2982 10.4131 14.0753 10.8272C13.7091 11.5014 13.2368 12.0854 12.653 12.5792C12.6424 12.5898 12.6265 12.6004 12.6053 12.611C12.6053 12.611 12.1754 12.9243 12.1595 12.9402V12.9243C12.1595 12.9243 12.1223 12.972 12.0958 12.988C11.252 13.5401 10.3338 13.864 9.33081 13.9436C9.29897 13.9457 9.26713 13.9496 9.23529 13.9534L9.23526 13.9534C9.1875 13.9591 9.13975 13.9648 9.092 13.9648H8.82664C8.54873 14.0214 8.29172 13.8897 8.02963 13.7555C7.99644 13.7385 7.96316 13.7214 7.92975 13.7047C7.88199 13.6835 7.84484 13.6622 7.86607 13.5932C7.92434 13.3928 7.95012 13.1899 7.976 12.9862L7.97601 12.9862C7.98783 12.8931 7.99968 12.7998 8.01466 12.7066C8.06773 12.2872 7.91914 12.1545 7.91914 12.1545C7.76916 12.0007 7.59003 11.8893 7.40985 11.7772C7.335 11.7307 7.25997 11.684 7.18676 11.6342C6.91685 11.449 6.64414 11.2695 6.37066 11.0894L6.37059 11.0894L6.37005 11.089C6.26733 11.0214 6.1645 10.9537 6.06167 10.8856C6.06167 10.8856 5.92899 10.7794 5.61057 10.8325H5.59996C5.59317 10.837 5.58831 10.8425 5.58333 10.8481C5.57662 10.8557 5.56968 10.8636 5.5575 10.8697C5.45983 10.9185 5.36076 10.9655 5.26153 11.0125C5.02648 11.124 4.79056 11.2359 4.57039 11.374C4.54385 11.3899 4.52262 11.3953 4.5014 11.3899C4.31565 11.6235 4.41648 11.8147 4.41648 11.8147C4.41648 11.8147 4.41118 11.8147 4.40587 11.8094C4.41983 11.8512 4.43085 11.8961 4.44202 11.9415C4.45209 11.9825 4.46228 12.0239 4.47486 12.0642C4.16705 11.7669 3.91762 11.4324 3.71065 11.0608C3.70534 11.0502 3.70003 11.0449 3.69472 11.0395C3.42937 10.6307 3.20648 10.0308 3.12156 9.77599C3.11095 9.75476 3.10564 9.73352 3.10034 9.70697C3.08972 9.67512 3.08441 9.65388 3.08441 9.65388C3.08176 9.64326 3.07911 9.63397 3.07645 9.62468C3.0738 9.61539 3.07115 9.6061 3.06849 9.59548C2.93051 9.06989 2.85621 8.53367 2.8509 7.9072C2.8509 7.85235 2.85754 7.76209 2.8651 7.65928L2.8651 7.65926C2.86925 7.60285 2.87368 7.54266 2.87744 7.48248C2.87744 7.4598 2.88518 7.44488 2.89405 7.42777L2.89867 7.41877C2.89867 7.41877 2.89867 6.93033 3.07911 6.37288C3.35507 5.3854 3.86455 4.52002 4.59162 3.77144C4.67122 3.6918 4.7296 3.64933 4.84105 3.73428C4.94719 3.81391 5.07986 3.82984 5.21254 3.79799C5.3465 3.76225 5.48422 3.73027 5.61938 3.69889L5.61941 3.69888L5.69548 3.68119L6.21027 3.54846C6.47759 3.45575 6.71858 3.31515 6.95895 3.17491C7.07649 3.10633 7.19388 3.03784 7.31413 2.97508C7.51615 2.87232 7.71153 2.76073 7.90742 2.64884C8.01515 2.58731 8.12303 2.52569 8.23225 2.46541C8.35962 2.39639 8.44984 2.30083 8.48168 2.16279C8.50291 2.06723 8.56129 2.02476 8.65151 2.02476C9.33081 2.01945 9.99419 2.09909 10.6735 2.31676C10.3498 2.4601 10.2914 2.71494 10.302 3.01224C10.3056 3.14358 10.3044 3.27491 10.3032 3.40466V3.40473L10.3032 3.40496C10.3026 3.46917 10.302 3.533 10.302 3.59624C10.302 3.89666 10.4777 4.07011 10.5296 4.12127L10.5355 4.12715C10.8889 4.37606 11.2619 4.59311 11.6345 4.80994L11.6345 4.80995L11.6346 4.81001C11.8104 4.91226 11.986 5.01447 12.1595 5.11994C12.2285 5.16241 12.2868 5.2102 12.3399 5.25798C12.3399 5.25798 12.6159 5.45441 12.8016 5.39601C12.8229 5.3854 12.8494 5.37478 12.8812 5.36947C12.9714 5.35885 13.0511 5.30045 13.1094 5.23674C13.1634 5.17996 13.2203 5.12583 13.2775 5.07152C13.4341 4.92271 13.5921 4.77252 13.6932 4.56249C13.8312 4.73769 13.9373 4.90758 14.0329 5.08809C14.468 5.87383 14.7175 6.71266 14.7812 7.6152C14.8024 7.97091 14.7812 8.316 14.7493 8.6664V8.68763C14.7493 8.69825 14.748 8.70887 14.7467 8.71949C14.7453 8.73011 14.744 8.74072 14.744 8.75134V8.75135C14.744 8.78851 14.744 8.82036 14.7334 8.85752L14.7175 8.8469ZM13.8895 9.77584C13.9797 9.53163 13.8895 9.27679 13.8895 9.27679L13.8279 9.18703C13.5458 8.77574 13.2618 8.36172 12.9502 7.97076C12.9395 7.95483 12.9289 7.9336 12.9236 7.91767V7.92298C12.9236 7.92298 12.9236 7.80618 12.5256 7.85396C12.0922 8.00444 11.6661 8.1791 11.2407 8.35347L11.2407 8.35348L11.2406 8.35352C11.0357 8.43751 10.831 8.52143 10.6257 8.60254C10.6159 8.60497 10.6073 8.60629 10.5993 8.60752C10.5898 8.60897 10.5812 8.61028 10.5726 8.61316C10.3019 8.85738 10.3072 8.93701 10.3072 8.93701C10.269 9.2638 10.274 9.59058 10.2791 9.91886V9.91888C10.2817 10.0919 10.2844 10.2654 10.2807 10.4395V10.9916C10.2913 11.3792 10.5248 11.5066 10.5248 11.5066C10.683 11.6022 10.8615 11.6342 11.0392 11.6659C11.1179 11.68 11.1965 11.6941 11.2731 11.7137C11.5916 11.7933 11.9153 11.8623 12.239 11.926C12.239 11.926 12.5574 11.9419 12.7166 11.6924C12.7202 11.6853 12.7237 11.683 12.7273 11.6806C12.729 11.6794 12.7308 11.6783 12.7326 11.6765C12.7624 11.6267 12.7944 11.579 12.8258 11.5321L12.8258 11.532L12.8258 11.532C12.8446 11.5039 12.8633 11.476 12.8812 11.4482C12.9891 11.2677 13.0976 11.0872 13.206 10.9067C13.4231 10.5457 13.6401 10.1847 13.8524 9.82363C13.8641 9.80406 13.8758 9.79315 13.8897 9.78026C13.892 9.77815 13.8943 9.77599 13.8967 9.77373C13.8995 9.77106 13.9024 9.76825 13.9054 9.76523H13.8948L13.8895 9.77584ZM8.29596 7.2753C8.28534 7.33901 8.23227 7.45581 8.03061 7.61508L8.0253 7.60977C7.62019 7.77573 7.21788 7.93609 6.8143 8.09695C6.66275 8.15736 6.51101 8.21784 6.35888 8.27871C6.05638 8.44329 5.75919 8.34773 5.75919 8.34773C5.75564 8.34536 5.75208 8.34273 5.74841 8.34001C5.73563 8.33053 5.72143 8.32 5.70081 8.31587C5.65835 8.30526 5.6212 8.26809 5.59467 8.23093C5.50052 8.1049 5.4057 7.97854 5.31063 7.85185C5.02525 7.47153 4.73763 7.08822 4.45896 6.70192C4.24137 6.40461 4.44835 6.24003 4.44835 6.24003H4.43243C4.44048 6.23197 4.4493 6.22544 4.45802 6.21899C4.47227 6.20844 4.48623 6.1981 4.49611 6.18163C4.59517 6.03298 4.69364 5.88375 4.79211 5.73451C4.98907 5.43602 5.18602 5.13752 5.38769 4.84375C5.4163 4.80202 5.44302 4.75869 5.46974 4.71537C5.56201 4.56579 5.65414 4.41642 5.82287 4.33408C5.97678 4.27568 6.18375 4.30753 6.28989 4.33408C6.29395 4.33611 6.29645 4.33813 6.29859 4.33987C6.30206 4.34267 6.30456 4.3447 6.31112 4.3447C6.32462 4.34713 6.33812 4.34956 6.35164 4.35199C6.60398 4.39738 6.86036 4.4435 7.10718 4.50397C7.21663 4.53134 7.32883 4.54934 7.4413 4.56738C7.67787 4.60534 7.91562 4.64348 8.13144 4.76942C8.13144 4.76942 8.29065 4.96586 8.30657 5.18353C8.32587 5.49242 8.32271 5.80131 8.31956 6.11019C8.31837 6.22603 8.31719 6.34187 8.31719 6.4577C8.31719 6.53137 8.31954 6.60543 8.32191 6.67967C8.32823 6.87829 8.33459 7.0782 8.29596 7.2753Z" fill="#4A4A4A"/>
<path d="M12 16C14.6509 16 16.8 13.851 16.8 11.2C16.8 8.54906 14.6509 6.40002 12 6.40002C9.34898 6.40002 7.19995 8.54906 7.19995 11.2C7.19995 13.851 9.34898 16 12 16Z" fill="#00B976"/>
<path d="M12.4236 13.2V9.5376H13.0732V11.2008H13.09L14.3948 9.5376H15.1172L13.9916 10.9656L15.3076 13.2H14.5908L13.5996 11.4752L13.0732 12.1304V13.2H12.4236Z" fill="white"/>
<path d="M9.16431 13.2V9.5376H10.3179C10.5904 9.5376 10.8331 9.57306 11.0459 9.644C11.2587 9.71493 11.4267 9.83253 11.5499 9.9968C11.6731 10.1611 11.7347 10.3851 11.7347 10.6688C11.7347 10.9376 11.6731 11.1597 11.5499 11.3352C11.4267 11.5107 11.2606 11.6413 11.0515 11.7272C10.8424 11.8131 10.6054 11.856 10.3403 11.856H9.81391V13.2H9.16431ZM9.81391 11.3352H10.2899C10.8275 11.3352 11.0963 11.1131 11.0963 10.6688C11.0963 10.4373 11.0254 10.2787 10.8835 10.1928C10.7454 10.1032 10.54 10.0584 10.2675 10.0584H9.81391V11.3352Z" fill="white"/>
</g>
<defs>
<clipPath id="clip0_8900_2928">
<rect width="16" height="16" fill="white" transform="translate(0.800049)"/>
</clipPath>
</defs>
</svg>
