<svg width="20" height="20" viewBox="0 0 20 20" fill="none" xmlns="http://www.w3.org/2000/svg">
<path d="M10 2.08325C10.7418 2.08325 11.4646 2.16875 12.1581 2.32946C12.2607 2.35158 12.358 2.39391 12.4441 2.45397C12.5303 2.51403 12.6036 2.59063 12.6598 2.67931C12.7161 2.76798 12.7541 2.86697 12.7718 2.97049C12.7894 3.07401 12.7862 3.18001 12.7625 3.2823C12.7388 3.3846 12.6949 3.48115 12.6335 3.56633C12.5721 3.65151 12.4943 3.72363 12.4048 3.77847C12.3152 3.83332 12.2157 3.8698 12.1119 3.88579C12.0081 3.90179 11.9022 3.89697 11.8003 3.87163C11.4099 3.78093 11.0132 3.72006 10.6136 3.68954L10.555 3.68796C11.7856 3.78214 12.9702 4.19612 13.9916 4.88892L14.4713 4.40917C14.5448 4.33562 14.6321 4.27726 14.7282 4.23743C14.8242 4.1976 14.9272 4.17709 15.0312 4.17705C15.1352 4.17701 15.2381 4.19746 15.3342 4.23722C15.4303 4.27698 15.5176 4.33527 15.5912 4.40877C15.6647 4.48228 15.7231 4.56954 15.7629 4.6656C15.8027 4.76165 15.8232 4.86461 15.8233 4.9686C15.8233 5.07258 15.8029 5.17555 15.7631 5.27164C15.7233 5.36772 15.6651 5.45503 15.5916 5.52859L15.1997 5.92046C16.3062 7.10143 16.9776 8.62389 17.1036 10.2373C17.2296 11.8507 16.8026 13.459 15.8928 14.7974C14.9831 16.1358 13.6448 17.1246 12.0982 17.6011C10.5516 18.0776 8.88889 18.0134 7.38365 17.4191C5.8784 16.8248 4.62032 15.7357 3.81644 14.3312C3.01257 12.9266 2.71079 11.2903 2.96078 9.69137C3.21076 8.09246 3.99761 6.6263 5.19184 5.53414C6.38607 4.44199 7.91653 3.78892 9.53134 3.68242L9.42368 3.68717C9.0115 3.71645 8.60226 3.77813 8.19976 3.87163C7.99662 3.9154 7.78441 3.87755 7.60894 3.76624C7.43346 3.65493 7.30878 3.47909 7.26181 3.27666C7.21484 3.07424 7.24935 2.86146 7.35788 2.68425C7.46641 2.50704 7.64027 2.37961 7.84193 2.32946C8.53543 2.16875 9.25901 2.08325 10 2.08325ZM10 5.24992C9.27227 5.24992 8.55165 5.39326 7.87931 5.67175C7.20696 5.95025 6.59605 6.35844 6.08146 6.87304C5.56687 7.38763 5.15867 7.99854 4.88018 8.67088C4.60168 9.34323 4.45835 10.0638 4.45835 10.7916C4.45835 11.5193 4.60168 12.2399 4.88018 12.9123C5.15867 13.5846 5.56687 14.1955 6.08146 14.7101C6.59605 15.2247 7.20696 15.6329 7.87931 15.9114C8.55165 16.1899 9.27227 16.3333 10 16.3333C11.4698 16.3333 12.8793 15.7494 13.9186 14.7101C14.9578 13.6709 15.5417 12.2613 15.5417 10.7916C15.5417 9.32185 14.9578 7.9123 13.9186 6.87304C12.8793 5.83377 11.4698 5.24992 10 5.24992ZM10 6.83325C10.1939 6.83328 10.3811 6.90447 10.526 7.03332C10.6709 7.16217 10.7634 7.33972 10.7861 7.53229L10.7917 7.62492V10.7916C10.7915 10.9934 10.7142 11.1874 10.5757 11.3342C10.4372 11.4809 10.2478 11.5692 10.0464 11.581C9.84497 11.5928 9.64663 11.5273 9.49189 11.3978C9.33716 11.2683 9.23772 11.0846 9.21389 10.8842L9.20834 10.7916V7.62492C9.20834 7.41496 9.29175 7.21359 9.44022 7.06513C9.58869 6.91666 9.79005 6.83325 10 6.83325Z" fill="white"/>
</svg>
