<svg width="17" height="16" viewBox="0 0 17 16" fill="none" xmlns="http://www.w3.org/2000/svg">
<path fill-rule="evenodd" clip-rule="evenodd" d="M8.23945 2.33465C8.0902 2.21124 7.8831 2.18511 7.70788 2.26759C7.53265 2.35006 7.42081 2.52631 7.42081 2.71998V6.85646V10.8809C7.28066 10.9289 7.14524 10.9843 7.01456 11.0465C6.18824 11.44 5.59845 12.0821 5.20861 12.7055H3.3999C3.12376 12.7055 2.8999 12.9294 2.8999 13.2055C2.8999 13.4816 3.12376 13.7055 3.3999 13.7055H8.88291C8.98907 13.7055 9.09247 13.6717 9.17815 13.609L13.1225 10.7231C13.3453 10.56 13.3938 10.2472 13.2308 10.0243C13.0677 9.80146 12.7549 9.75298 12.532 9.91604L10.8554 11.1428C9.95045 10.764 9.13876 10.6318 8.42081 10.6811V7.35646H12.9231C13.1339 7.35646 13.3221 7.22418 13.3935 7.02578C13.4649 6.82738 13.4042 6.60551 13.2417 6.47114L8.23945 2.33465ZM11.5338 6.35646H8.42081V3.78225L11.5338 6.35646ZM8.71952 12.7055H6.45313C6.72177 12.405 7.05144 12.1365 7.44446 11.9494C8.04497 11.6635 8.84176 11.5441 9.88286 11.8543L8.71952 12.7055Z" fill="#4A4A4A"/>
<path d="M7.70788 2.26759L7.79305 2.44854V2.44854L7.70788 2.26759ZM8.23945 2.33465L8.11199 2.48878V2.48878L8.23945 2.33465ZM7.42081 10.8809L7.48553 11.0702C7.56644 11.0425 7.62081 10.9665 7.62081 10.8809H7.42081ZM7.01456 11.0465L6.92858 10.866H6.92858L7.01456 11.0465ZM5.20861 12.7055V12.9055C5.27755 12.9055 5.34164 12.87 5.37819 12.8115L5.20861 12.7055ZM9.17815 13.609L9.06005 13.4476L9.06005 13.4476L9.17815 13.609ZM13.1225 10.7231L13.2406 10.8845V10.8845L13.1225 10.7231ZM13.2308 10.0243L13.0694 10.1424V10.1424L13.2308 10.0243ZM12.532 9.91604L12.6501 10.0774L12.532 9.91604ZM10.8554 11.1428L10.7782 11.3273C10.8428 11.3543 10.9169 11.3456 10.9735 11.3042L10.8554 11.1428ZM8.42081 10.6811H8.22081C8.22081 10.7365 8.24381 10.7895 8.28433 10.8273C8.32484 10.8651 8.37923 10.8845 8.43453 10.8807L8.42081 10.6811ZM8.42081 7.35646V7.15646C8.31036 7.15646 8.22081 7.24601 8.22081 7.35646H8.42081ZM13.3935 7.02578L13.5817 7.09351V7.09351L13.3935 7.02578ZM13.2417 6.47114L13.3692 6.31701L13.2417 6.47114ZM8.42081 6.35646H8.22081C8.22081 6.46692 8.31036 6.55646 8.42081 6.55646V6.35646ZM11.5338 6.35646V6.55646C11.6182 6.55646 11.6934 6.50355 11.722 6.42419C11.7506 6.34483 11.7263 6.25608 11.6613 6.20233L11.5338 6.35646ZM8.42081 3.78225L8.54827 3.62812C8.48857 3.57875 8.40573 3.5683 8.33564 3.60129C8.26555 3.63428 8.22081 3.70478 8.22081 3.78225H8.42081ZM6.45313 12.7055L6.30403 12.5722C6.25147 12.631 6.23836 12.7152 6.27057 12.7872C6.30277 12.8592 6.37427 12.9055 6.45313 12.9055V12.7055ZM8.71952 12.7055V12.9055C8.76199 12.9055 8.80335 12.892 8.83762 12.8669L8.71952 12.7055ZM7.44446 11.9494L7.53044 12.13L7.44446 11.9494ZM9.88286 11.8543L10.001 12.0157C10.0623 11.9709 10.0929 11.8951 10.0799 11.8203C10.067 11.7454 10.0128 11.6843 9.93997 11.6627L9.88286 11.8543ZM7.79305 2.44854C7.89819 2.39906 8.02244 2.41473 8.11199 2.48878L8.3669 2.18052C8.15795 2.00774 7.86802 1.97116 7.6227 2.08663L7.79305 2.44854ZM7.62081 2.71998C7.62081 2.60378 7.68792 2.49803 7.79305 2.44854L7.6227 2.08663C7.37739 2.2021 7.22081 2.44884 7.22081 2.71998H7.62081ZM7.62081 6.85646V2.71998H7.22081V6.85646H7.62081ZM7.62081 10.8809V6.85646H7.22081V10.8809H7.62081ZM7.3561 10.6917C7.20858 10.7422 7.06606 10.8005 6.92858 10.866L7.10054 11.2271C7.22443 11.1681 7.35275 11.1156 7.48553 11.0702L7.3561 10.6917ZM6.92858 10.866C6.05916 11.2799 5.44327 11.953 5.03903 12.5995L5.37819 12.8115C5.75363 12.2111 6.31732 11.6 7.10054 11.2271L6.92858 10.866ZM5.20861 12.5055H3.3999V12.9055H5.20861V12.5055ZM3.3999 12.5055C3.0133 12.5055 2.6999 12.8189 2.6999 13.2055H3.0999C3.0999 13.0398 3.23422 12.9055 3.3999 12.9055V12.5055ZM2.6999 13.2055C2.6999 13.5921 3.0133 13.9055 3.3999 13.9055V13.5055C3.23422 13.5055 3.0999 13.3712 3.0999 13.2055H2.6999ZM3.3999 13.9055H8.88291V13.5055H3.3999V13.9055ZM8.88291 13.9055C9.03153 13.9055 9.1763 13.8582 9.29625 13.7704L9.06005 13.4476C9.00865 13.4852 8.9466 13.5055 8.88291 13.5055V13.9055ZM9.29625 13.7704L13.2406 10.8845L13.0044 10.5617L9.06005 13.4476L9.29625 13.7704ZM13.2406 10.8845C13.5526 10.6562 13.6205 10.2182 13.3922 9.90622L13.0694 10.1424C13.1672 10.2761 13.1381 10.4638 13.0044 10.5617L13.2406 10.8845ZM13.3922 9.90622C13.1639 9.59421 12.7259 9.52635 12.4139 9.75463L12.6501 10.0774C12.7838 9.97961 12.9715 10.0087 13.0694 10.1424L13.3922 9.90622ZM12.4139 9.75463L10.7373 10.9814L10.9735 11.3042L12.6501 10.0774L12.4139 9.75463ZM10.9326 10.9583C10.0034 10.5694 9.16061 10.4298 8.4071 10.4816L8.43453 10.8807C9.11691 10.8338 9.89749 10.9587 10.7782 11.3273L10.9326 10.9583ZM8.22081 7.35646V10.6811H8.62081V7.35646H8.22081ZM12.9231 7.15646H8.42081V7.55646H12.9231V7.15646ZM13.2054 6.95805C13.1625 7.07709 13.0496 7.15646 12.9231 7.15646V7.55646C13.2183 7.55646 13.4817 7.37127 13.5817 7.09351L13.2054 6.95805ZM13.1143 6.62527C13.2118 6.70589 13.2482 6.83901 13.2053 6.95806L13.5817 7.09351C13.6817 6.81575 13.5967 6.50513 13.3692 6.31701L13.1143 6.62527ZM8.11199 2.48878L13.1143 6.62527L13.3692 6.31701L8.3669 2.18052L8.11199 2.48878ZM8.42081 6.55646H11.5338V6.15646H8.42081V6.55646ZM8.22081 3.78225V6.35646H8.62081V3.78225H8.22081ZM11.6613 6.20233L8.54827 3.62812L8.29336 3.93637L11.4064 6.51059L11.6613 6.20233ZM6.45313 12.9055H8.71952V12.5055H6.45313V12.9055ZM7.35848 11.7688C6.93753 11.9693 6.58719 12.2555 6.30403 12.5722L6.60223 12.8388C6.85636 12.5546 7.16535 12.3038 7.53044 12.13L7.35848 11.7688ZM9.93997 11.6627C8.85456 11.3392 8.00652 11.4603 7.35848 11.7688L7.53044 12.13C8.08342 11.8667 8.82896 11.749 9.82575 12.046L9.93997 11.6627ZM8.83762 12.8669L10.001 12.0157L9.76476 11.6929L8.60142 12.5441L8.83762 12.8669Z" fill="#4A4A4A"/>
</svg>
