<svg width="20" height="20" viewBox="0 0 20 20" fill="none" xmlns="http://www.w3.org/2000/svg">
<path d="M8.87489 17.6626L8.7449 17.6574C7.78153 17.6189 6.9087 17.5371 6.12676 17.4117C5.34607 17.2865 4.67303 17.1304 4.10876 16.9427C3.54573 16.756 3.1016 16.542 2.78295 16.2975L2.78284 16.2974C2.46455 16.0525 2.27905 15.7757 2.27905 15.465V8.60663C2.27905 8.25152 2.50916 7.94626 2.90253 7.68574L2.90271 7.68563C3.29676 7.42562 3.83752 7.20296 4.51907 7.01448L4.51909 7.01448C5.20234 6.82568 6.01078 6.67608 6.94344 6.565C7.87745 6.45322 8.89634 6.39746 9.99989 6.39746C11.1035 6.39746 12.1224 6.45322 13.0564 6.56501C13.989 6.67608 14.7974 6.82568 15.4806 7.01446L8.87489 17.6626ZM8.87489 17.6626V17.5325V14.3408M8.87489 17.6626V14.3408M8.87489 14.3408H11.1249V17.5325V17.6626L11.2549 17.6574C12.2182 17.6189 13.0911 17.5371 13.873 17.4117C14.6542 17.2866 15.3272 17.1305 15.8909 16.9428C16.454 16.756 16.8982 16.542 17.2168 16.2975L17.2169 16.2974C17.5352 16.0525 17.7207 15.7757 17.7207 15.465V8.60663C17.7207 8.25152 17.4906 7.94626 17.0972 7.68574L17.0972 7.6857C16.7031 7.42507 16.1622 7.2024 15.4807 7.01448L8.87489 14.3408ZM14.5485 7.91117C15.1185 8.05483 15.5634 8.19791 15.8863 8.33963C16.1228 8.44341 16.282 8.54157 16.3786 8.63013C15.8038 8.94351 14.9643 9.20376 13.8517 9.40615C12.6566 9.62298 11.3728 9.73163 9.99989 9.73163C8.37971 9.73163 7.03592 9.62272 5.96637 9.40662C4.96913 9.2046 4.18941 8.9449 3.62143 8.6311C3.71783 8.54232 3.87705 8.44388 4.11391 8.33982C4.43677 8.19798 4.88187 8.05483 5.45209 7.91117L5.4521 7.91117C6.58405 7.62585 8.09862 7.48163 9.99989 7.48163C11.9012 7.48163 13.416 7.62585 14.5485 7.91117ZM14.5485 7.91117L14.5791 7.78996M14.5485 7.91117L14.5791 7.78996M14.5791 7.78996C15.5971 8.04657 16.2347 8.30515 16.4918 8.56571L14.5791 7.78996ZM13.8741 9.52913C15.0064 9.32314 15.8692 9.05566 16.4624 8.72668L9.99989 9.85663C11.3793 9.85663 12.6707 9.74746 13.8741 9.52913ZM13.732 10.5341C14.7904 10.3588 15.7591 10.0781 16.6374 9.69113V15.3345C16.5457 15.4273 16.395 15.5286 16.175 15.6354C15.9313 15.7539 15.6123 15.8747 15.2163 15.9972L15.2162 15.9972C14.4564 16.2327 13.4548 16.402 12.2082 16.5031V13.3825V13.2575H12.0832H7.91655H7.79155V13.3825V16.5041C6.41934 16.4035 5.38782 16.234 4.69065 15.999C4.32672 15.8763 4.03164 15.7556 3.80371 15.6373C3.59834 15.5308 3.45392 15.4295 3.36239 15.3356V9.69113C4.24066 10.0781 5.20936 10.3588 6.2678 10.5341C7.39625 10.7215 8.64042 10.815 9.99989 10.815C11.3594 10.815 12.6035 10.7215 13.732 10.5341Z" fill="white" stroke="white" stroke-width="0.25"/>
<path d="M3.71826 3.12867V5.3022C3.71826 5.45088 3.87472 5.54758 4.0077 5.48109L6.1806 4.39464C6.32799 4.32095 6.32801 4.11062 6.18064 4.03689L4.00775 2.9498C3.87476 2.88327 3.71826 2.97997 3.71826 3.12867Z" fill="white"/>
<path d="M14.2949 3.12867V5.3022C14.2949 5.45088 14.4514 5.54758 14.5844 5.48109L16.7573 4.39464C16.9047 4.32095 16.9047 4.11062 16.7573 4.03689L14.5844 2.9498C14.4514 2.88327 14.2949 2.97997 14.2949 3.12867Z" fill="white"/>
<path d="M9.3591 2.42367V4.5972C9.3591 4.74588 9.51556 4.84258 9.64854 4.77609L11.8214 3.68964C11.9688 3.61595 11.9688 3.40562 11.8215 3.33189L9.64858 2.2448C9.5156 2.17827 9.3591 2.27497 9.3591 2.42367Z" fill="white"/>
</svg>
