<svg width="16" height="16" viewBox="0 0 16 16" fill="none" xmlns="http://www.w3.org/2000/svg">
<rect width="16" height="16" rx="8" fill="white"/>
<path d="M9.03007 2.29851C8.03635 2.30772 7.04496 2.63377 6.22271 3.276C8.03494 2.36521 10.3104 2.66133 11.8225 4.17336C13.3345 5.68536 13.6193 7.94949 12.7085 9.76175C14.1259 7.9471 14.0145 5.32025 12.345 3.65082C11.432 2.73787 10.2293 2.28746 9.03005 2.29854L9.03007 2.29851ZM8.35947 3.85193C7.44498 3.86227 6.5338 4.20397 5.82532 4.87741C7.30459 3.9815 9.26182 4.17973 10.539 5.45683C11.8161 6.73401 12.003 8.68007 11.107 10.1593C12.4975 8.69656 12.4854 6.38096 11.0501 4.94572C10.3101 4.20569 9.33294 3.84096 8.35947 3.85193ZM7.95071 5.31717C7.25416 5.31717 6.55767 5.58288 6.02625 6.11432C4.96337 7.1772 4.96337 8.90045 6.02625 9.96333C7.08908 11.0262 8.81228 11.0262 9.87516 9.96333C10.938 8.90045 10.938 7.17723 9.87516 6.11435C9.34374 5.58291 8.64722 5.31717 7.95071 5.31717ZM4.68664 6.01608C3.29614 7.47886 3.31954 9.8058 4.75481 11.241C6.19003 12.6763 8.50567 12.6883 9.96843 11.2978C8.48911 12.1939 6.54315 12.0071 5.26597 10.7299C3.98879 9.45268 3.79064 7.49538 4.68667 6.01611L4.68664 6.01608ZM3.08511 6.41365C1.66769 8.22824 1.79049 10.8665 3.45991 12.5359C5.12936 14.2053 7.75622 14.3168 9.57091 12.8994C7.75863 13.8102 5.49444 13.5254 3.98244 12.0134C2.47044 10.5013 2.17429 8.22581 3.08511 6.4136V6.41365Z" fill="#F85640"/>
</svg>
