<svg width="13" height="13" viewBox="0 0 13 13" fill="none" xmlns="http://www.w3.org/2000/svg">
<g clip-path="url(#clip0_8548_2965)">
<rect x="0.5" y="0.5" width="12" height="12" fill="#FFC633"/>
<rect x="0.5" y="0.5" width="12" height="1.8" fill="#F85640"/>
<rect opacity="0.15" x="6.5" y="0.5" width="6" height="12" fill="black"/>
<path d="M8.97682 9.74001C9.22162 9.74001 9.38002 9.58161 9.38002 9.33681V9.02001H3.62002V9.33681C3.62002 9.58161 3.77842 9.74001 4.02322 9.74001H8.97682Z" fill="white"/>
<path d="M3.62002 8.30001H9.38002L10.1 3.98001L7.94002 5.42001L6.50002 3.26001L5.06002 5.42001L2.90002 3.98001L3.62002 8.30001Z" fill="white"/>
</g>
<defs>
<clipPath id="clip0_8548_2965">
<path d="M0.5 0.5H12.5V6.5C12.5 9.81371 9.81371 12.5 6.5 12.5C3.18629 12.5 0.5 9.81371 0.5 6.5V0.5Z" fill="white"/>
</clipPath>
</defs>
</svg>
