<svg width="16" height="16" viewBox="0 0 16 16" fill="none" xmlns="http://www.w3.org/2000/svg">
<rect x="1" y="1" width="14" height="14" rx="1" fill="#FFC633"/>
<path d="M8 1H14C14.5523 1 15 1.44772 15 2V14C15 14.5523 14.5523 15 14 15H8V1Z" fill="#F85640"/>
<path d="M3.7878 10.5346C3.71572 10.4647 3.67969 10.3695 3.67969 10.2489C3.67969 9.98856 3.75176 9.74729 3.8959 9.52506C4.02804 9.32189 4.18419 9.13776 4.37638 8.97903C4.56858 8.8203 4.84485 8.61078 5.22323 8.35681C5.4935 8.17268 5.72173 8.0076 5.90792 7.86792C6.30431 7.55681 6.4965 7.2457 6.4965 6.92824C6.4965 6.61078 6.40641 6.40126 6.22023 6.24887C6.03404 6.09649 5.75777 6.01395 5.3914 6.01395C4.97098 6.01395 4.56858 6.10284 4.1902 6.28062C4.13614 6.30602 4.0881 6.31872 4.05807 6.31872C3.98599 6.31872 3.91993 6.29332 3.86587 6.23618C3.81182 6.17903 3.7878 6.10919 3.7878 6.02665C3.7878 5.89967 3.84185 5.81078 3.94996 5.74094C4.43044 5.48697 4.94695 5.35999 5.51152 5.35999C5.82383 5.35999 6.0941 5.42348 6.33434 5.54411C6.58659 5.6711 6.78479 5.85522 6.92293 6.08379C7.06107 6.31237 7.13314 6.57903 7.13314 6.87745C7.13314 7.17586 7.05506 7.45522 6.8929 7.69649C6.74275 7.93141 6.56257 8.14094 6.35236 8.31872C6.14215 8.49649 5.83584 8.73141 5.42744 9.01078C5.07308 9.2711 4.81482 9.46157 4.66467 9.59491C4.51452 9.72824 4.40641 9.86157 4.34635 9.99491H6.77879C6.86287 9.99491 6.93494 10.0267 6.995 10.0901C7.05506 10.1536 7.08509 10.2298 7.08509 10.3187C7.08509 10.4076 7.05506 10.4838 6.995 10.5473C6.93494 10.6108 6.86287 10.6425 6.77879 10.6425H4.05807C3.94395 10.6425 3.85386 10.6044 3.78179 10.5346H3.7878Z" fill="white" stroke="white" stroke-width="0.5" stroke-miterlimit="10"/>
<path d="M9.57808 10.5111C9.51802 10.4476 9.48799 10.3715 9.48799 10.2826C9.48799 10.1937 9.51802 10.1175 9.57808 10.054C9.63814 9.9905 9.71021 9.95875 9.7943 9.95875H10.6231V6.32066C10.6231 6.28891 10.6171 6.26352 10.5991 6.25082C10.5811 6.23812 10.5571 6.24447 10.527 6.26352L9.91442 6.57463C9.85436 6.60637 9.8003 6.61907 9.75225 6.61907C9.66216 6.61907 9.59009 6.58733 9.53003 6.52383C9.46997 6.46034 9.43994 6.38415 9.43994 6.28891C9.43994 6.14288 9.50601 6.04129 9.63213 5.9778L10.5871 5.45082C10.6411 5.41907 10.7072 5.40002 10.7853 5.40002H10.9354C11.0315 5.40002 11.1096 5.43812 11.1757 5.50796C11.2417 5.5778 11.2778 5.66669 11.2778 5.76193V9.95875H11.9685C12.0526 9.95875 12.1246 9.9905 12.1847 10.054C12.2447 10.1175 12.2748 10.1937 12.2748 10.2826C12.2748 10.3715 12.2447 10.4476 12.1847 10.5111C12.1246 10.5746 12.0526 10.6064 11.9685 10.6064H9.7943C9.71021 10.6064 9.63814 10.5746 9.57808 10.5111Z" fill="white" stroke="white" stroke-width="0.5" stroke-miterlimit="10"/>
</svg>
