<svg width="20" height="20" viewBox="0 0 20 20" fill="none" xmlns="http://www.w3.org/2000/svg">
<g id="ic / filter">
<path id="Vector" d="M14.9997 3.33334H4.99974C4.07891 3.33334 3.31141 4.09167 3.53891 4.98334C3.7811 5.92825 4.22724 6.80867 4.84601 7.56276C5.46477 8.31685 6.24114 8.92631 7.12057 9.34834C7.80641 9.67667 8.33307 10.3217 8.33307 11.0817V16.1517C8.33315 16.2937 8.36951 16.4333 8.43869 16.5573C8.50788 16.6813 8.6076 16.7855 8.7284 16.8602C8.8492 16.9348 8.98706 16.9773 9.12891 16.9837C9.27076 16.9901 9.41189 16.9601 9.53891 16.8967L11.2056 16.0633C11.344 15.9942 11.4604 15.8879 11.5418 15.7563C11.6232 15.6247 11.6663 15.4731 11.6664 15.3183V11.0817C11.6664 10.3217 12.1931 9.67667 12.8781 9.34834C13.7579 8.92655 14.5346 8.31719 15.1536 7.56308C15.7727 6.80898 16.2191 5.92843 16.4614 4.98334C16.6872 4.09167 15.9189 3.33334 14.9997 3.33334Z" stroke="#4489FF" stroke-width="1.5"/>
</g>
</svg>
