<svg width="11" height="13" viewBox="0 0 11 13" fill="none" xmlns="http://www.w3.org/2000/svg">
<path d="M4.50473 0.818564C4.44081 1.7102 4.08288 3.63727 2.32199 5.68259C2.38058 5.15848 2.33158 4.73344 2.24209 4.4032C2.16326 4.11238 1.7542 4.10812 1.67644 4.39894C1.55926 4.8389 1.32703 5.44504 0.874287 6.22269C-0.0290633 7.77798 -0.19205 10.471 3.13692 11.9954C4.53562 12.6356 6.14738 12.6718 7.56419 12.0742C11.5238 10.4049 10.6961 6.64134 10.4255 5.86156C10.1507 5.02852 9.3368 3.68201 8.51228 2.86602C8.37167 2.72647 8.13517 2.83299 8.14583 3.03007C8.18524 3.73102 8.06061 4.34887 7.75274 4.73557C7.72931 4.0474 7.5578 1.90408 5.00647 0.540529C4.78809 0.424414 4.52177 0.570356 4.50473 0.818564Z" fill="url(#paint0_linear_12207_77356)"/>
<defs>
<linearGradient id="paint0_linear_12207_77356" x1="5.50003" y1="0.5" x2="5.50003" y2="12.5" gradientUnits="userSpaceOnUse">
<stop stop-color="#F85640"/>
<stop offset="1" stop-color="#FF844F"/>
</linearGradient>
</defs>
</svg>
