<svg width="16" height="16" viewBox="0 0 16 16" fill="none" xmlns="http://www.w3.org/2000/svg">
<path d="M8.12454 9.75752C8.58853 9.75752 9.03351 9.57321 9.3616 9.24512C9.68969 8.91703 9.87401 8.47204 9.87401 8.00805C9.87401 7.54406 9.68969 7.09907 9.3616 6.77098C9.03351 6.44289 8.58853 6.25858 8.12454 6.25858C7.66055 6.25858 7.21556 6.44289 6.88747 6.77098C6.55938 7.09907 6.37506 7.54406 6.37506 8.00805C6.37506 8.47204 6.55938 8.91703 6.88747 9.24512C7.21556 9.57321 7.66055 9.75752 8.12454 9.75752Z" fill="#BFBFBF"/>
<path fill-rule="evenodd" clip-rule="evenodd" d="M1.89816 7.68551C2.7659 5.07821 5.22507 3.19695 8.12512 3.19695C11.0234 3.19695 13.4814 5.07646 14.3503 7.68143C14.4203 7.89253 14.4203 8.11997 14.3503 8.33049C13.4832 10.9378 11.0234 12.8191 8.12395 12.8191C5.22566 12.8191 2.76706 10.9395 1.89874 8.33457C1.82861 8.1239 1.82861 7.89618 1.89874 7.68551H1.89816ZM11.1861 8.008C11.1861 8.81998 10.8636 9.59871 10.2894 10.1729C9.71524 10.747 8.93652 11.0696 8.12454 11.0696C7.31256 11.0696 6.53383 10.747 5.95967 10.1729C5.38552 9.59871 5.06296 8.81998 5.06296 8.008C5.06296 7.19602 5.38552 6.41729 5.95967 5.84314C6.53383 5.26898 7.31256 4.94642 8.12454 4.94642C8.93652 4.94642 9.71524 5.26898 10.2894 5.84314C10.8636 6.41729 11.1861 7.19602 11.1861 8.008Z" fill="#BFBFBF"/>
</svg>
