<svg width="16" height="16" viewBox="0 0 16 16" fill="none" xmlns="http://www.w3.org/2000/svg">
<path fill-rule="evenodd" clip-rule="evenodd" d="M8.30005 4.96647C8.30005 3.4958 9.49605 2.2998 10.9667 2.2998C12.4374 2.2998 13.6334 3.4958 13.6334 4.96647V6.96647C13.6334 7.14328 13.5631 7.31285 13.4381 7.43788C13.3131 7.5629 13.1435 7.63314 12.9667 7.63314C12.7899 7.63314 12.6203 7.5629 12.4953 7.43788C12.3703 7.31285 12.3 7.14328 12.3 6.96647V4.96647C12.3 4.61285 12.1596 4.27371 11.9095 4.02366C11.6595 3.77361 11.3203 3.63314 10.9667 3.63314C10.6131 3.63314 10.274 3.77361 10.0239 4.02366C9.77386 4.27371 9.63338 4.61285 9.63338 4.96647V6.2998H10.3C10.6537 6.2998 10.9928 6.44028 11.2429 6.69033C11.4929 6.94038 11.6334 7.27952 11.6334 7.63314V12.2998C11.6334 12.6534 11.4929 12.9926 11.2429 13.2426C10.9928 13.4927 10.6537 13.6331 10.3 13.6331H3.63338C3.27976 13.6331 2.94062 13.4927 2.69057 13.2426C2.44052 12.9926 2.30005 12.6534 2.30005 12.2998V7.63314C2.30005 7.27952 2.44052 6.94038 2.69057 6.69033C2.94062 6.44028 3.27976 6.2998 3.63338 6.2998H5.63338V6.96647H8.30005V4.96647ZM3.63338 12.2998H10.3L10.302 7.63314H3.63338V12.2998ZM7.83331 10.9663C7.83331 11.4449 7.44529 11.8329 6.96664 11.8329C6.488 11.8329 6.09998 11.4449 6.09998 10.9663C6.09998 10.4876 6.488 10.0996 6.96664 10.0996C7.44529 10.0996 7.83331 10.4876 7.83331 10.9663Z" fill="#9FC2FF"/>
</svg>
