<svg width="56" height="56" viewBox="0 0 36 36" fill="none" xmlns="http://www.w3.org/2000/svg">
<g clip-path="url(#clip0_10198_88356)">
<rect width="36" height="36" rx="18" fill="white"/>
<g opacity="0.5" clip-path="url(#clip1_10198_88356)">
<path d="M24.2071 2.31387C24.2373 1.83838 23.9277 1.70033 23.6182 1.56229C23.5351 1.52394 23.4445 1.49326 23.3615 1.47792C22.5008 1.30153 21.693 0.933408 20.7946 0.910401C20.5002 0.902732 20.168 0.841378 19.8887 0.457916C20.319 0.381224 20.6738 0.312201 21.0589 0.243178C21.0362 0.197162 21.006 0.143478 20.9683 0.0667853C21.4741 -0.140284 21.912 0.197162 22.3725 0.250847C22.833 0.304532 23.2785 0.473255 23.7843 0.603632C23.4596 0.933408 23.8069 0.910401 23.8447 1.13281C23.8975 0.964085 23.9126 0.895062 23.9353 0.833708C23.9579 0.833708 23.9806 0.833708 24.0032 0.841378C24.0108 0.948747 24.0183 1.06379 24.0259 1.24785C24.3581 1.26319 24.728 1.27852 25.0979 1.3092C25.2187 1.31687 25.3471 1.34755 25.4603 1.40123C26.94 2.07612 28.4046 2.78169 29.605 3.93208C30.1864 4.48426 30.8054 5.00577 31.3641 5.58863C32.5117 6.77736 33.5761 8.02745 34.1273 9.63032C34.2179 9.8834 34.2481 10.1595 34.316 10.4663C34.3915 10.543 34.5274 10.6657 34.7237 10.8497C34.5425 10.819 34.4293 10.8037 34.3236 10.7807C34.3009 10.8037 34.2783 10.8267 34.2556 10.8421C34.3689 10.9648 34.4746 11.0951 34.5802 11.2102C34.535 11.3175 34.4142 11.4479 34.4444 11.54C34.4821 11.655 34.6255 11.747 34.7388 11.816C34.8898 11.9081 35.0785 11.9388 35.0106 12.2148C34.9879 12.2992 35.1767 12.4142 35.222 12.537C35.6372 13.81 35.9241 15.1138 35.9694 16.4559C36.0071 17.6753 36.0071 18.8947 35.9845 20.1065C35.9769 20.4746 35.841 20.8351 35.7806 21.1955C35.7429 21.4256 35.7353 21.6633 35.7127 21.8934C35.7051 21.9548 35.7353 22.0315 35.7051 22.0621C35.2975 22.4839 35.4258 23.0975 35.1767 23.5806C34.384 25.1298 33.8479 26.8094 32.8665 28.2742C32.3607 29.0335 31.7567 29.693 31.047 30.2529C30.8281 30.4293 30.6469 30.667 30.4506 30.8741C30.3751 30.9508 30.3072 31.0275 30.2166 31.0812C29.605 31.4723 29.1747 32.0475 28.6991 32.5843C28.3971 32.9218 27.9366 33.1288 27.5364 33.3819C27.1288 33.6427 26.7211 33.8651 26.2077 33.704C26.0567 33.658 25.868 33.727 25.7019 33.7424C25.7019 33.7731 25.7019 33.8114 25.7019 33.8421C25.9057 33.8651 26.1096 33.8958 26.321 33.9188C26.0492 34.0261 25.8302 34.2409 25.4829 34.1335C25.1659 34.0338 24.811 34.0798 24.4713 34.0875C24.4109 34.0875 24.3052 34.2255 24.3052 34.2946C24.3128 34.4019 24.3807 34.5016 24.1995 34.4786C24.2146 34.5476 24.2071 34.6397 24.2448 34.678C24.3128 34.7471 24.4109 34.7777 24.5845 34.8774C24.2977 35.0001 24.0938 35.1228 23.8749 35.1842C23.2407 35.3606 22.6065 35.537 21.9648 35.6597C21.3005 35.7901 20.6285 35.9435 19.9642 35.9281C19.3753 35.9204 18.794 35.9665 18.2051 35.9971C17.8503 36.0125 17.4954 35.9588 17.1406 35.8974C17.0198 35.8744 16.9141 35.7594 16.7556 35.652C16.4687 35.7977 16.2045 35.7594 15.8723 35.491C15.6533 35.3146 15.2155 35.4143 14.8682 35.3913C14.77 35.3836 14.6568 35.4296 14.5737 35.3913C14.2415 35.2302 13.9698 35.3299 13.6829 35.514C13.5998 35.5677 13.4639 35.5907 13.3582 35.5753C13.2299 35.5523 13.1091 35.4603 12.9808 35.4143C12.1729 35.0998 11.3727 34.7854 10.5649 34.4863C10.3459 34.4019 10.0515 34.4479 9.87786 34.3176C8.60197 33.3666 7.0694 32.7914 6.04265 31.503C5.68782 31.0582 5.35563 30.598 4.82716 30.3219C4.66107 30.2375 4.53272 30.0611 4.41193 29.9078C3.33988 28.5887 2.38108 27.1929 1.74691 25.59C1.49777 24.9688 1.21844 24.3552 0.94665 23.7417C0.599367 22.9288 0.403077 22.0545 0.304932 21.0881C0.493672 21.2109 0.644665 21.3106 0.788108 21.4103C0.788108 21.4409 0.780558 21.4639 0.780558 21.4946C0.705062 21.4869 0.629566 21.4869 0.523871 21.4793C0.433275 21.648 0.455924 21.7937 0.697512 21.9241C0.878703 22.0161 1.21844 22.0545 0.999498 22.4226C1.21844 22.4763 1.42983 22.507 1.63367 22.576C1.70916 22.599 1.80731 22.7064 1.81486 22.783C1.8828 23.9104 2.50187 24.8077 2.9624 25.774C3.53617 26.9781 4.30623 28.0595 5.12914 29.1102C6.28424 30.5827 7.80171 31.5797 9.28899 32.6303C9.50793 32.7837 9.71177 32.9601 9.94581 33.0752C10.2025 33.1979 10.4818 33.2669 10.8442 33.3896C10.882 33.6427 11.2066 33.6734 11.4935 33.7807C12.0522 33.9801 12.6033 34.2179 13.162 34.4173C13.5017 34.54 13.8565 34.6704 14.2113 34.7087C15.7288 34.8851 17.2539 35.0538 18.7789 35.1612C19.3753 35.1995 19.9793 35.0768 20.5757 34.9848C21.1344 34.9004 21.693 34.7777 22.2442 34.632C22.8255 34.4786 23.3841 34.2562 23.973 34.1105C24.7884 33.9111 25.5131 33.5353 26.2002 33.0675C26.6758 32.7454 27.1212 32.3696 27.627 32.1012C29.5371 31.0965 30.745 29.3786 32.0134 27.722C32.036 27.6914 32.0587 27.6684 32.0662 27.6377C32.338 26.9474 32.8212 26.4029 33.244 25.8124C33.3648 25.6437 33.3497 25.3906 33.4327 25.1912C33.6365 24.662 33.8555 24.1405 34.0669 23.619C34.3311 22.9824 34.5123 22.3229 34.5048 21.625C34.5048 21.533 34.5123 21.4333 34.5425 21.3489C34.9728 20.2369 35.1012 19.0328 35.0332 17.8901C34.9577 16.5863 34.9955 15.2365 34.55 13.9711C34.5274 13.9097 34.535 13.8331 34.5199 13.7717C34.4217 13.3269 34.3538 12.8591 34.2028 12.4373C33.9763 11.8084 33.7196 11.1948 33.4176 10.6043C33.0024 9.77603 32.5645 8.96309 32.0964 8.16549C31.7869 7.62865 31.4623 7.0918 31.0697 6.63165C30.5034 5.96442 29.8995 5.32788 29.2427 4.75269C28.7066 4.28486 28.0876 3.9014 27.4911 3.51027C26.94 3.14982 26.3738 2.78169 25.7849 2.48259C25.3244 2.23718 24.8035 2.03778 24.2071 2.31387Z" fill="#777777"/>
<path d="M2.10226 11.9396C1.79257 11.909 1.57352 11.8936 1.36202 11.8706C1.35446 11.8936 1.35446 11.9243 1.34691 11.9473C1.52064 12.0393 1.68682 12.139 1.89832 12.2617C1.78501 12.2924 1.72459 12.3078 1.61128 12.3308C1.92098 12.4458 1.78501 12.5915 1.74725 12.7909C1.5433 13.7726 1.32425 14.7619 1.22605 15.7589C1.12031 16.8173 1.14297 17.891 1.12031 18.957C1.11275 19.3558 1.12031 19.7623 1.12031 20.2301C0.772843 20.1687 0.500917 20.1304 0.236544 20.0537C0.176116 20.0383 0.115687 19.8926 0.108134 19.8006C0.0552593 19.3558 -0.0127224 18.9033 0.00238464 18.4508C0.0325987 17.3771 -0.05049 16.2958 0.259204 15.2374C0.402721 14.7542 0.546238 14.2404 0.523577 13.7496C0.500917 13.2281 0.682201 12.8063 0.863485 12.3691C1.01456 12.0087 1.12031 11.5638 1.67171 11.6482C1.69437 11.6482 1.72459 11.6405 1.73214 11.6252C1.78501 11.4565 1.92098 11.3798 2.01917 11.5025C2.10982 11.6175 2.08716 11.8169 2.10226 11.9396Z" fill="#777777"/>
<path d="M13.9627 0.511541C14.0306 0.419549 14.091 0.342889 14.1665 0.243231C14.7026 0.496209 15.2008 0.388885 15.6538 0.0822449C15.752 0.220233 15.835 0.335223 15.9332 0.488543C15.9256 0.511541 15.8879 0.595867 15.8199 0.756853C15.5934 0.795183 15.2537 0.833513 14.9291 0.917839C14.0684 1.14015 13.1926 1.3318 12.3622 1.63844C11.3958 1.99108 10.4748 2.4587 9.52352 2.84201C9.19888 2.97233 8.84405 2.92633 8.47412 2.77301C9.07809 2.22106 9.68961 1.7611 10.4219 1.47746C11.1014 1.21681 11.7507 0.864177 12.4377 0.618865C12.9209 0.442547 13.4267 0.220233 13.9627 0.511541Z" fill="#777777"/>
<path d="M8.64682 3.19627C8.56377 3.1886 8.50338 3.1886 8.39013 3.18093C8.49583 3.33432 8.71477 3.41868 8.41278 3.61808C7.91451 3.94785 7.47663 4.36966 7.0161 4.76846C6.78206 4.97553 6.57067 5.19794 6.35928 5.42802C6.18564 5.61975 6.01955 5.7808 5.72511 5.77313C5.64207 5.77313 5.54392 5.91118 5.47598 6.00321C5.40803 6.08757 5.38538 6.21028 5.32498 6.30231C5.0381 6.70878 4.74366 7.10758 4.45677 7.50638C4.15479 7.93585 3.92075 7.98954 3.46777 7.74412C4.40393 6.00321 5.73266 4.62275 7.34073 3.51071C7.52192 3.388 7.69557 3.25762 7.87676 3.13492C8.25424 2.88183 8.25424 2.88183 8.64682 3.19627Z" fill="#777777"/>
<path d="M2.50152 8.71768C2.72813 8.94766 2.94718 9.17764 3.17378 9.41529C2.91697 9.91358 2.48641 9.73726 2.0332 9.74493C2.20693 9.37696 2.358 9.05499 2.51663 8.72535C2.50907 8.72535 2.50152 8.71768 2.50152 8.71768Z" fill="#777777"/>
<path d="M2.50925 8.72591C2.69809 8.48826 2.86426 8.22762 3.08331 8.0283C3.27215 7.85198 3.35524 7.92098 3.42322 8.19695C3.45344 8.32728 3.5894 8.42693 3.74802 8.63392C3.27971 8.66458 2.88692 8.68758 2.49414 8.71058C2.50169 8.71824 2.50925 8.72591 2.50925 8.72591Z" fill="#777777"/>
<path d="M0.282049 20.291C0.455779 20.521 0.62951 20.7433 0.803241 20.9733C0.803241 20.9963 0.803241 21.0193 0.803241 21.0499C0.652171 20.9886 0.463333 20.9656 0.372691 20.8583C0.266941 20.7356 0.251834 20.5363 0.191406 20.3676C0.22162 20.337 0.251834 20.314 0.282049 20.291Z" fill="#777777"/>
<path d="M0.955322 21.64C1.06107 21.6323 1.17437 21.617 1.28012 21.6093C1.26502 21.6323 1.25746 21.6553 1.24236 21.686C1.32544 21.7627 1.40853 21.847 1.50673 21.9313C1.13661 22.2686 1.15171 21.732 0.955322 21.64Z" fill="#777777"/>
<path d="M23.5174 4.05655C23.5442 3.63389 23.2691 3.51118 22.9939 3.38847C22.9201 3.35438 22.8396 3.32711 22.7658 3.31348C22.0007 3.15668 21.2826 2.82946 20.4841 2.80901C20.2223 2.80219 19.9271 2.74765 19.6788 2.40679C20.0613 2.33862 20.3767 2.27727 20.7189 2.21591C20.6988 2.17501 20.672 2.12729 20.6384 2.05912C21.088 1.87505 21.4773 2.17501 21.8866 2.22273C22.296 2.27045 22.6919 2.42043 23.1416 2.53632C22.853 2.82946 23.1617 2.80901 23.1952 3.00671C23.2422 2.85673 23.2556 2.79537 23.2758 2.74084C23.2959 2.74084 23.316 2.74084 23.3362 2.74765C23.3429 2.84309 23.3496 2.94535 23.3563 3.10896C23.6516 3.1226 23.9804 3.13623 24.3093 3.1635C24.4166 3.17032 24.5307 3.19759 24.6314 3.24531C25.9467 3.84522 27.2486 4.4724 28.3156 5.49498C28.8324 5.98582 29.3827 6.44939 29.8793 6.96749C30.8993 8.02416 31.8456 9.13536 32.3355 10.5601C32.416 10.7851 32.4428 11.0305 32.5032 11.3032C32.5703 11.3714 32.6911 11.4805 32.8656 11.6441C32.7046 11.6168 32.6039 11.6032 32.5099 11.5827C32.4898 11.6032 32.4697 11.6236 32.4495 11.6373C32.5502 11.7463 32.6442 11.8622 32.7381 11.9645C32.6978 12.0599 32.5905 12.1758 32.6173 12.2576C32.6509 12.3599 32.7784 12.4417 32.879 12.503C33.0132 12.5849 33.181 12.6121 33.1206 12.8575C33.1005 12.9325 33.2683 13.0348 33.3085 13.1439C33.6776 14.2755 33.9326 15.4344 33.9729 16.6274C34.0065 17.7114 34.0065 18.7953 33.9863 19.8724C33.9796 20.1996 33.8588 20.5201 33.8051 20.8405C33.7716 21.045 33.7649 21.2563 33.7447 21.4608C33.738 21.5154 33.7649 21.5835 33.738 21.6108C33.3756 21.9858 33.4897 22.5311 33.2683 22.9606C32.5636 24.3377 32.0871 25.8306 31.2147 27.1327C30.7651 27.8076 30.2282 28.3939 29.5974 28.8916C29.4028 29.0484 29.2417 29.2597 29.0673 29.4438C29.0002 29.5119 28.9398 29.5801 28.8592 29.6278C28.3156 29.9755 27.9331 30.4868 27.5103 30.964C27.2419 31.2639 26.8325 31.448 26.4769 31.673C26.1145 31.9048 25.7521 32.1025 25.2957 31.9593C25.1615 31.9184 24.9938 31.9797 24.8461 31.9934C24.8461 32.0206 24.8461 32.0547 24.8461 32.082C25.0273 32.1025 25.2085 32.1297 25.3964 32.1502C25.1548 32.2456 24.9602 32.4365 24.6515 32.3411C24.3696 32.2524 24.0542 32.2933 23.7522 32.3002C23.6986 32.3002 23.6046 32.4229 23.6046 32.4842C23.6113 32.5797 23.6717 32.6683 23.5107 32.6478C23.5241 32.7092 23.5174 32.791 23.5509 32.8251C23.6113 32.8864 23.6986 32.9137 23.8529 33.0023C23.5979 33.1114 23.4167 33.2205 23.2221 33.275C22.6584 33.4318 22.0947 33.5886 21.5242 33.6977C20.9337 33.8136 20.3364 33.9499 19.7459 33.9363C19.2224 33.9295 18.7057 33.9704 18.1822 33.9976C17.8668 34.0113 17.5514 33.9635 17.236 33.909C17.1286 33.8886 17.0347 33.7863 16.8937 33.6909C16.6387 33.8204 16.4038 33.7863 16.1086 33.5477C15.914 33.3909 15.5247 33.4795 15.216 33.4591C15.1288 33.4523 15.0281 33.4932 14.9543 33.4591C14.659 33.3159 14.4174 33.4045 14.1624 33.5681C14.0886 33.6159 13.9678 33.6363 13.8738 33.6227C13.7598 33.6022 13.6524 33.5204 13.5383 33.4795C12.8202 33.2 12.1089 32.9205 11.3908 32.6546C11.1962 32.5797 10.9345 32.6206 10.7801 32.5047C9.646 31.6593 8.28369 31.1481 7.37101 30.0028C7.0556 29.6074 6.76032 29.1983 6.29056 28.9529C6.14292 28.8779 6.02884 28.7211 5.92147 28.5848C4.96852 27.4122 4.11624 26.1715 3.55253 24.7467C3.33107 24.1945 3.08277 23.6491 2.84118 23.1038C2.53248 22.3811 2.35799 21.604 2.27075 20.745C2.43852 20.8541 2.57274 20.9427 2.70025 21.0313C2.70025 21.0586 2.69354 21.0791 2.69354 21.1063C2.62643 21.0995 2.55932 21.0995 2.46537 21.0927C2.38484 21.2427 2.40497 21.3722 2.61972 21.4881C2.78078 21.5699 3.08277 21.604 2.88815 21.9312C3.08277 21.9789 3.27067 22.0062 3.45187 22.0676C3.51897 22.088 3.60622 22.1834 3.61293 22.2516C3.67332 23.2537 4.22362 24.0514 4.63298 24.9103C5.143 25.9806 5.82751 26.9418 6.559 27.8758C7.58576 29.1847 8.93465 30.0709 10.2567 31.0049C10.4513 31.1412 10.6325 31.298 10.8405 31.4003C11.0687 31.5094 11.317 31.5707 11.6391 31.6798C11.6727 31.9048 11.9613 31.932 12.2163 32.0275C12.7129 32.2047 13.2028 32.416 13.6994 32.5933C14.0014 32.7024 14.3168 32.8183 14.6322 32.8523C15.9811 33.0091 17.3367 33.1591 18.6923 33.2546C19.2224 33.2886 19.7593 33.1796 20.2894 33.0978C20.786 33.0228 21.2826 32.9137 21.7725 32.7842C22.2893 32.6478 22.7859 32.4501 23.3093 32.3206C24.0341 32.1434 24.6783 31.8093 25.289 31.3935C25.7118 31.1071 26.1078 30.7731 26.5574 30.5345C28.2552 29.6415 29.329 28.1144 30.4564 26.6419C30.4765 26.6146 30.4967 26.5942 30.5034 26.5669C30.745 25.9534 31.1745 25.4693 31.5503 24.9444C31.6577 24.7944 31.6442 24.5695 31.7181 24.3922C31.8992 23.9218 32.0939 23.4583 32.2818 22.9947C32.5166 22.4289 32.6777 21.8426 32.671 21.2222C32.671 21.1404 32.6777 21.0518 32.7045 20.9768C33.0871 19.9883 33.2012 18.918 33.1408 17.9023C33.0736 16.7433 33.1072 15.5435 32.7113 14.4187C32.6911 14.3641 32.6978 14.296 32.6844 14.2414C32.5972 13.846 32.5368 13.4302 32.4026 13.0552C32.2012 12.4962 31.9731 11.9509 31.7046 11.4259C31.3355 10.6897 30.9463 9.96705 30.5302 9.25807C30.2551 8.78086 29.9665 8.30366 29.6175 7.89463C29.1142 7.30153 28.5774 6.73571 27.9935 6.22442C27.517 5.80857 26.9668 5.46771 26.4366 5.12003C25.9467 4.79963 25.4434 4.4724 24.9199 4.20653C24.5106 3.98838 24.0475 3.81113 23.5174 4.05655Z" fill="#777777"/>
<path d="M3.86849 12.6129C3.5932 12.5857 3.39848 12.572 3.21048 12.5516C3.20377 12.572 3.20377 12.5993 3.19705 12.6197C3.35148 12.7015 3.4992 12.7902 3.6872 12.8992C3.58648 12.9265 3.53277 12.9402 3.43205 12.9606C3.70734 13.0629 3.58648 13.1924 3.55291 13.3696C3.37163 14.2422 3.17691 15.1216 3.08962 16.0079C2.99562 16.9487 3.01577 17.9031 2.99562 18.8506C2.98891 19.2051 2.99562 19.5665 2.99562 19.9823C2.68676 19.9278 2.44505 19.8937 2.21005 19.8255C2.15633 19.8119 2.10262 19.6823 2.0959 19.6005C2.0489 19.2051 1.98847 18.8029 2.0019 18.4007C2.02876 17.4463 1.9549 16.4851 2.23019 15.5443C2.35776 15.1148 2.48533 14.6581 2.46519 14.2218C2.44505 13.7582 2.60619 13.3833 2.76734 12.9947C2.90162 12.6743 2.99562 12.2789 3.48577 12.3539C3.50591 12.3539 3.53277 12.3471 3.53948 12.3334C3.58648 12.1834 3.70734 12.1153 3.79463 12.2243C3.8752 12.3266 3.85506 12.5039 3.86849 12.6129Z" fill="#777777"/>
<path d="M14.4113 2.45448C14.4717 2.37271 14.5254 2.30456 14.5925 2.21598C15.0689 2.44085 15.5119 2.34545 15.9145 2.07288C16.0017 2.19553 16.0756 2.29775 16.1628 2.43403C16.1561 2.45448 16.1225 2.52943 16.0621 2.67254C15.8608 2.70661 15.5588 2.74068 15.2703 2.81564C14.5052 3.01325 13.7268 3.18361 12.9886 3.45618C12.1296 3.76964 11.3109 4.18531 10.4653 4.52603C10.1767 4.64187 9.8613 4.60099 9.53247 4.4647C10.0693 3.97407 10.6129 3.56521 11.2639 3.31308C11.8679 3.08139 12.445 2.76794 13.0557 2.54988C13.4852 2.39315 13.9348 2.19553 14.4113 2.45448Z" fill="#777777"/>
<path d="M9.68593 4.8409C9.61211 4.83408 9.55843 4.83408 9.45776 4.82727C9.55172 4.96361 9.74633 5.0386 9.4779 5.21585C9.03498 5.50898 8.64575 5.88393 8.23638 6.23842C8.02835 6.42249 7.84044 6.62019 7.65254 6.8247C7.49819 6.99513 7.35055 7.13829 7.08883 7.13147C7.01501 7.13147 6.92776 7.25418 6.86737 7.33599C6.80697 7.41098 6.78684 7.52005 6.73315 7.60186C6.47814 7.96317 6.21641 8.31766 5.9614 8.67216C5.69296 9.05392 5.48493 9.10164 5.08228 8.88349C5.91442 7.33599 7.09554 6.1089 8.52495 5.12041C8.68601 5.01133 8.84036 4.89544 9.00142 4.78636C9.33697 4.5614 9.33697 4.5614 9.68593 4.8409Z" fill="#777777"/>
<path d="M4.22342 9.74893C4.42485 9.95336 4.61956 10.1578 4.82099 10.369C4.59271 10.812 4.20999 10.6552 3.80713 10.662C3.96156 10.335 4.09585 10.0488 4.23685 9.75575C4.23013 9.75575 4.22342 9.74893 4.22342 9.74893Z" fill="#777777"/>
<path d="M4.23023 9.7562C4.39808 9.54495 4.5458 9.31327 4.74051 9.1361C4.90837 8.97937 4.98223 9.0407 5.04266 9.28601C5.06952 9.40185 5.19037 9.49044 5.33138 9.67443C4.91509 9.70168 4.56594 9.72213 4.2168 9.74257C4.22351 9.74938 4.23023 9.7562 4.23023 9.7562Z" fill="#777777"/>
<path d="M2.25049 20.0364C2.40492 20.2409 2.55935 20.4385 2.71378 20.6429C2.71378 20.6634 2.71378 20.6838 2.71378 20.7111C2.5795 20.6565 2.41164 20.6361 2.33107 20.5407C2.23707 20.4317 2.22364 20.2545 2.16992 20.1046C2.19678 20.0773 2.22364 20.0569 2.25049 20.0364Z" fill="#777777"/>
<path d="M2.84888 21.2356C2.94288 21.2288 3.04359 21.2151 3.13759 21.2083C3.12416 21.2288 3.11745 21.2492 3.10402 21.2765C3.17788 21.3446 3.25174 21.4196 3.33902 21.4945C3.01002 21.7943 3.02345 21.3173 2.84888 21.2356Z" fill="#777777"/>
<path d="M10.4131 29.2597C10.8948 29.1014 11.2348 29.1733 11.6102 29.3964C13.4378 30.4974 15.4354 31.0227 17.5534 31.0874C18.2406 31.109 18.9277 31.1234 19.6077 31.0874C19.9973 31.0659 20.3798 30.9219 20.7624 30.8284C21.2299 30.7205 21.6974 30.6125 22.1649 30.5046C22.257 30.483 22.3562 30.4542 22.4341 30.411C23.2912 29.9649 24.1484 29.5187 25.0126 29.0798C25.1472 29.015 25.3101 28.9934 25.4589 28.979C25.8201 28.9503 26.1176 28.8063 26.3797 28.5401C26.6064 28.3098 26.9181 28.2451 27.2652 28.3098C26.741 28.72 26.2593 29.1949 25.6926 29.5331C24.283 30.3679 22.8308 31.145 21.2299 31.512C19.9123 31.8142 18.5664 32.0013 17.2063 31.8214C16.4767 31.7279 15.7613 31.5264 15.0317 31.4832C14.0683 31.4257 13.2749 30.9147 12.4107 30.5981C11.9007 30.4182 11.4261 30.1232 10.9585 29.8354C10.7602 29.7058 10.6185 29.4756 10.4131 29.2597Z" fill="white"/>
<path d="M27.3735 27.2445C27.9119 26.5321 28.429 25.8557 28.9319 25.1649C29.187 24.8123 29.4774 24.4669 29.6191 24.0639C29.7607 23.6538 30.0299 23.3228 30.1362 22.9054C30.1645 22.7975 30.1999 22.6967 30.2424 22.596C31.0641 20.8546 30.9933 18.9477 31.1562 17.0911C31.2058 16.5586 31.0004 16.0045 30.9154 15.4576C30.8516 15.0475 30.802 14.6373 30.717 14.2343C30.6604 13.9609 30.5895 13.6802 30.4691 13.4284C30.1928 12.8671 30.2566 12.9678 30.6533 12.421C30.8516 12.752 31.0712 13.0182 31.1137 13.4356C31.1633 13.8889 31.3546 14.3279 31.4679 14.7812C31.5883 15.249 31.7583 15.7167 31.7867 16.1916C31.8363 16.9976 31.8008 17.8107 31.8008 18.6238C31.8008 18.9261 31.7725 19.2355 31.8008 19.5377C31.8717 20.4012 31.5813 21.164 31.2129 21.9124C31.1137 22.1139 31.0783 22.3369 31.0004 22.5456C30.8729 22.891 30.7383 23.2364 30.6037 23.5746C30.1291 24.8339 29.4561 25.9637 28.5423 26.9351C28.3865 27.1006 28.2165 27.2517 28.0323 27.3885C27.6215 27.6979 27.6144 27.6907 27.3735 27.2445Z" fill="white"/>
<path d="M9.62827 28.1005C9.24575 28.3524 9.11116 28.3668 8.84907 28.0718C8.25404 27.3882 7.66609 26.6973 7.09939 25.9849C6.75938 25.5676 6.45478 25.1142 6.15018 24.6681C6.0085 24.4666 5.88808 24.2435 5.79599 24.0133C5.47014 23.2001 5.20805 22.351 4.81844 21.5739C4.59177 21.1061 4.58468 20.66 4.55635 20.185C4.47843 18.8538 4.358 17.5226 4.25175 16.1841C4.24466 16.1122 4.24466 16.0186 4.28008 15.961C4.63427 15.3494 4.71219 14.6514 4.81136 13.975C4.91762 13.2482 5.25055 12.6365 5.64724 11.9889C5.85266 12.3127 6.04392 12.6077 6.24935 12.9388C5.66849 13.0899 5.6189 13.5216 5.52681 13.9174C5.32139 14.7665 5.12304 15.6084 4.93887 16.4648C4.88928 16.695 4.84678 16.9397 4.85386 17.17C4.89636 19.6238 5.38514 21.9696 6.46186 24.1788C6.5327 24.3227 6.60353 24.4738 6.70271 24.6033C7.35441 25.4237 8.00611 26.244 8.66489 27.0571C8.68614 27.0787 8.72864 27.1003 8.72864 27.1291C8.75698 27.6904 9.33076 27.7551 9.62827 28.1005Z" fill="white"/>
<path d="M16.0669 4.34667C16.5769 4.2891 17.1011 4.22433 17.6253 4.15957C17.6961 4.15238 17.7741 4.13079 17.8449 4.1164C18.2345 4.02285 18.617 3.88613 19.0066 3.85734C19.3466 3.82856 19.7008 3.90771 20.0479 3.94369C20.0479 3.97248 20.055 4.00126 20.055 4.03004C19.8213 4.05163 19.5946 4.08042 19.3608 4.102C19.3608 4.1164 19.3679 4.13079 19.3679 4.14518C19.9488 4.14518 20.5296 4.102 21.1034 4.15957C21.5355 4.20275 21.9818 4.33227 22.3785 4.51937C23.6535 5.13822 24.9215 5.77146 26.1612 6.45507C26.5437 6.66375 26.8341 7.04513 27.1458 7.36895C27.4433 7.67837 27.7479 7.99499 27.9887 8.3404C28.3217 8.80813 28.7113 9.20391 29.1717 9.54212C29.2567 9.60688 29.3063 9.72921 29.3772 9.82276C29.3559 9.85154 29.3347 9.88752 29.3134 9.9163C29.2071 9.85874 29.1009 9.80117 28.9946 9.7364C28.9734 9.72921 28.9592 9.69323 28.945 9.70043C28.4775 9.82995 28.3642 9.3982 28.1163 9.17512C27.2945 8.44114 26.4799 7.70716 25.644 6.98757C25.467 6.83645 25.2261 6.77169 25.0278 6.64936C24.8082 6.50544 24.5886 6.34713 24.3902 6.18162C23.9227 5.79304 23.3418 5.67791 22.8035 5.44764C21.323 4.82879 19.7504 4.6345 18.1708 4.51217C17.6678 4.47619 17.1507 4.60572 16.6407 4.6417C16.2511 4.67768 16.2511 4.67048 16.0669 4.34667Z" fill="white"/>
<path d="M14.1255 4.43304C14.0405 4.67051 13.9909 4.8576 13.913 5.0375C13.8634 5.13105 13.7855 5.23179 13.6934 5.28216C13.3109 5.46206 12.9142 5.62037 12.5246 5.79307C11.7595 6.13128 11.0582 6.57023 10.3853 7.08114C9.83985 7.49131 9.20231 7.83671 8.40186 7.90147C9.9461 6.03054 11.9154 5.05189 14.1255 4.43304Z" fill="white"/>
<path d="M30.4815 11.9173C29.7303 11.8742 29.5177 11.3131 29.1987 10.8959C29.3476 10.7089 29.4822 10.5363 29.6878 10.2845C29.9571 10.8456 30.191 11.3347 30.4815 11.9173Z" fill="white"/>
<path d="M6.46802 10.2472C6.71607 9.90195 6.90035 9.56388 7.16258 9.31932C7.30432 9.18985 7.59491 9.21862 7.81461 9.16827C7.83588 9.20424 7.85714 9.2402 7.87131 9.27617C7.63743 9.59985 7.43898 9.9523 7.15549 10.2184C7.04918 10.3335 6.75151 10.2472 6.46802 10.2472Z" fill="white"/>
<path d="M7.49512 8.82984C7.69356 8.68598 7.89201 8.54931 8.09045 8.40546C8.1188 8.44861 8.14715 8.48458 8.1755 8.52774C7.97706 8.67159 7.77861 8.80826 7.57308 8.95212C7.55182 8.90896 7.52347 8.87299 7.49512 8.82984Z" fill="white"/>
<g opacity="0.5">
<path d="M23.8239 3.28195C23.8523 2.83581 23.5619 2.70628 23.2714 2.57675C23.1935 2.54077 23.1085 2.51199 23.0306 2.4976C22.223 2.33209 21.4651 1.98669 20.6221 1.9651C20.3459 1.9579 20.0342 1.90034 19.7721 1.54054C20.1758 1.46858 20.5088 1.40382 20.87 1.33906C20.8488 1.29588 20.8205 1.24551 20.785 1.17355C21.2597 0.979259 21.6705 1.29588 22.1026 1.34625C22.5347 1.39662 22.9527 1.55493 23.4273 1.67726C23.1227 1.98669 23.4485 1.9651 23.4839 2.17378C23.5335 2.01547 23.5477 1.95071 23.5689 1.89314C23.5902 1.89314 23.6114 1.89314 23.6327 1.90034C23.6398 2.00108 23.6469 2.10902 23.6539 2.28172C23.9656 2.29611 24.3127 2.3105 24.6598 2.33929C24.7732 2.34648 24.8936 2.37527 24.9998 2.42564C26.3882 3.05888 27.7625 3.7209 28.8888 4.80029C29.4342 5.3184 30.0151 5.80772 30.5393 6.35461C31.616 7.46997 32.6148 8.64291 33.1319 10.1469C33.2169 10.3843 33.2453 10.6434 33.309 10.9312C33.3798 11.0032 33.5074 11.1183 33.6915 11.291C33.5215 11.2622 33.4153 11.2478 33.3161 11.2262C33.2948 11.2478 33.2736 11.2694 33.2523 11.2838C33.3586 11.3989 33.4578 11.5213 33.5569 11.6292C33.5144 11.73 33.4011 11.8523 33.4294 11.9386C33.4649 12.0466 33.5994 12.1329 33.7057 12.1977C33.8474 12.284 34.0245 12.3128 33.9607 12.5719C33.9395 12.651 34.1166 12.759 34.1591 12.8741C34.5487 14.0686 34.8178 15.2919 34.8603 16.5512C34.8958 17.6954 34.8958 18.8395 34.8745 19.9765C34.8674 20.3219 34.7399 20.6601 34.6832 20.9983C34.6478 21.2142 34.6407 21.4372 34.6195 21.6531C34.6124 21.7107 34.6407 21.7826 34.6124 21.8114C34.2299 22.2072 34.3503 22.7829 34.1166 23.2362C33.3728 24.6898 32.8698 26.2657 31.9489 27.6401C31.4743 28.3525 30.9076 28.9714 30.2418 29.4967C30.0363 29.6622 29.8663 29.8852 29.6822 30.0795C29.6113 30.1515 29.5476 30.2235 29.4626 30.2738C28.8888 30.6408 28.485 31.1805 28.0387 31.6842C27.7554 32.0008 27.3233 32.1951 26.9479 32.4326C26.5653 32.6773 26.1828 32.8859 25.7011 32.7348C25.5595 32.6917 25.3824 32.7564 25.2265 32.7708C25.2265 32.7996 25.2265 32.8356 25.2265 32.8644C25.4178 32.8859 25.609 32.9147 25.8074 32.9363C25.5524 33.0371 25.3469 33.2385 25.0211 33.1378C24.7236 33.0443 24.3906 33.0874 24.0719 33.0946C24.0152 33.0946 23.916 33.2242 23.916 33.2889C23.9231 33.3897 23.9869 33.4832 23.8169 33.4616C23.831 33.5264 23.8239 33.6127 23.8594 33.6487C23.9231 33.7135 24.0152 33.7423 24.1781 33.8358C23.909 33.9509 23.7177 34.0661 23.5123 34.1236C22.9172 34.2892 22.3222 34.4547 21.7201 34.5698C21.0967 34.6921 20.4663 34.836 19.8429 34.8216C19.2904 34.8144 18.7449 34.8576 18.1924 34.8864C17.8595 34.9008 17.5265 34.8504 17.1936 34.7929C17.0803 34.7713 16.9811 34.6633 16.8323 34.5626C16.5632 34.6993 16.3152 34.6633 16.0035 34.4115C15.7981 34.246 15.3873 34.3395 15.0614 34.3179C14.9693 34.3107 14.8631 34.3539 14.7852 34.3179C14.4735 34.1668 14.2185 34.2604 13.9493 34.4331C13.8714 34.4834 13.7439 34.505 13.6447 34.4906C13.5243 34.469 13.4109 34.3827 13.2905 34.3395C12.5325 34.0445 11.7817 33.7495 11.0237 33.4688C10.8183 33.3897 10.542 33.4328 10.3791 33.3105C9.18195 32.4182 7.74396 31.8785 6.78058 30.6696C6.44765 30.2522 6.13596 29.8205 5.64011 29.5614C5.48426 29.4823 5.36384 29.3168 5.2505 29.1729C4.24462 27.9352 3.34499 26.6255 2.74996 25.1216C2.5162 24.5387 2.2541 23.963 1.99909 23.3873C1.67324 22.6246 1.48906 21.8042 1.39697 20.8976C1.57406 21.0127 1.71574 21.1062 1.85033 21.1998C1.85033 21.2286 1.84325 21.2502 1.84325 21.2789C1.77241 21.2717 1.70157 21.2717 1.6024 21.2645C1.5174 21.4229 1.53865 21.5596 1.76532 21.6819C1.93533 21.7683 2.2541 21.8042 2.04867 22.1496C2.2541 22.2 2.45244 22.2288 2.6437 22.2936C2.71454 22.3151 2.80663 22.4159 2.81371 22.4878C2.87746 23.5456 3.45833 24.3876 3.89043 25.2943C4.42879 26.424 5.15133 27.4386 5.92345 28.4245C7.00726 29.8061 8.43108 30.7416 9.82657 31.7274C10.032 31.8713 10.2233 32.0368 10.4429 32.1448C10.6837 32.2599 10.9458 32.3247 11.2858 32.4398C11.3212 32.6773 11.6258 32.706 11.895 32.8068C12.4192 32.9939 12.9363 33.217 13.4605 33.4041C13.7793 33.5192 14.1122 33.6415 14.4451 33.6775C15.869 33.843 17.2999 34.0013 18.7308 34.1021C19.2904 34.138 19.8571 34.0229 20.4167 33.9365C20.9409 33.8574 21.4651 33.7423 21.9822 33.6055C22.5276 33.4616 23.0518 33.2529 23.6044 33.1162C24.3694 32.9291 25.0494 32.5765 25.694 32.1376C26.1403 31.8353 26.5583 31.4827 27.0329 31.2309C28.825 30.2882 29.9584 28.6763 31.1485 27.122C31.1697 27.0932 31.191 27.0716 31.1981 27.0429C31.4531 26.3952 31.9064 25.8843 32.3031 25.3302C32.4165 25.1719 32.4023 24.9345 32.4802 24.7474C32.6715 24.2508 32.8769 23.7615 33.0752 23.2722C33.3232 22.6749 33.4932 22.0561 33.4861 21.4013C33.4861 21.3149 33.4932 21.2214 33.5215 21.1422C33.9253 20.0988 34.0457 18.969 33.982 17.8969C33.9111 16.6735 33.9465 15.4071 33.5286 14.2197C33.5074 14.1622 33.5144 14.0902 33.5003 14.0326C33.4082 13.6153 33.3444 13.1763 33.2028 12.7806C32.9902 12.1905 32.7494 11.6148 32.4661 11.0607C32.0764 10.2836 31.6656 9.52081 31.2264 8.77243C30.936 8.26872 30.6314 7.76501 30.263 7.33325C29.7317 6.70721 29.1651 6.10995 28.5488 5.57025C28.0458 5.1313 27.465 4.77151 26.9054 4.40451C26.3882 4.06631 25.857 3.7209 25.3044 3.44026C24.8723 3.20999 24.3836 3.0229 23.8239 3.28195Z" fill="white"/>
<path d="M3.08337 12.3137C2.79279 12.2849 2.58726 12.2705 2.38881 12.2489C2.38173 12.2705 2.38173 12.2993 2.37464 12.3209C2.53765 12.4072 2.69357 12.5008 2.89202 12.6159C2.7857 12.6447 2.72901 12.6591 2.6227 12.6807C2.91328 12.7886 2.7857 12.9253 2.75027 13.1124C2.55891 14.0335 2.35338 14.9618 2.26124 15.8972C2.16202 16.8903 2.18328 17.8977 2.16202 18.8979C2.15493 19.2721 2.16202 19.6535 2.16202 20.0924C1.836 20.0349 1.58086 19.9989 1.3328 19.9269C1.2761 19.9125 1.2194 19.7758 1.21232 19.6895C1.1627 19.2721 1.09892 18.8476 1.11309 18.423C1.14144 17.4156 1.06348 16.4009 1.35406 15.4079C1.48872 14.9546 1.62338 14.4724 1.60212 14.0119C1.58086 13.5226 1.75095 13.1268 1.92105 12.7166C2.0628 12.3784 2.16202 11.9611 2.67939 12.0402C2.70066 12.0402 2.72901 12.033 2.73609 12.0186C2.7857 11.8603 2.91328 11.7884 3.00541 11.9035C3.09046 12.0114 3.0692 12.1985 3.08337 12.3137Z" fill="white"/>
<path d="M14.2119 1.59088C14.2756 1.50457 14.3323 1.43264 14.4031 1.33913C14.9061 1.5765 15.3736 1.4758 15.7986 1.18808C15.8907 1.31755 15.9686 1.42544 16.0607 1.5693C16.0536 1.59088 16.0182 1.67 15.9544 1.82105C15.7419 1.85702 15.4232 1.89298 15.1186 1.9721C14.311 2.1807 13.4893 2.36052 12.7101 2.64824C11.8034 2.97911 10.9392 3.41787 10.0466 3.77752C9.74205 3.8998 9.40911 3.85664 9.06201 3.71278C9.62871 3.19489 10.2025 2.76332 10.8896 2.49718C11.5271 2.25263 12.1363 1.92175 12.7809 1.69158C13.2343 1.52615 13.7089 1.31755 14.2119 1.59088Z" fill="white"/>
<path d="M9.22392 4.10988C9.146 4.10269 9.08933 4.10269 8.98307 4.09549C9.08224 4.23941 9.28767 4.31856 9.00432 4.50566C8.5368 4.81508 8.12594 5.21086 7.69384 5.58505C7.47424 5.77934 7.2759 5.98802 7.07756 6.20389C6.91463 6.38379 6.75879 6.53491 6.48253 6.52771C6.40461 6.52771 6.31252 6.65724 6.24876 6.74359C6.18501 6.82274 6.16376 6.93788 6.10709 7.02423C5.83791 7.40561 5.56165 7.7798 5.29247 8.15399C5.00912 8.55696 4.78952 8.60733 4.3645 8.37706C5.24288 6.74359 6.48961 5.44832 7.99844 4.40492C8.16845 4.28978 8.33137 4.16745 8.50138 4.05232C8.85556 3.81485 8.85556 3.81485 9.22392 4.10988Z" fill="white"/>
<path d="M3.45821 9.29056C3.67083 9.50634 3.87637 9.72213 4.08899 9.94511C3.84802 10.4126 3.44404 10.2472 3.0188 10.2544C3.18181 9.90915 3.32355 9.60704 3.47239 9.29775C3.4653 9.29775 3.45821 9.29056 3.45821 9.29056Z" fill="white"/>
<path d="M3.4651 9.29827C3.64229 9.07529 3.79821 8.83073 4.00374 8.64372C4.18092 8.47828 4.25888 8.54302 4.32267 8.80196C4.35102 8.92424 4.47859 9.01775 4.62743 9.21196C4.18801 9.24073 3.81947 9.26231 3.45093 9.28389C3.45802 9.29108 3.4651 9.29827 3.4651 9.29827Z" fill="white"/>
<path d="M1.37533 20.1496C1.53834 20.3654 1.70135 20.574 1.86436 20.7898C1.86436 20.8113 1.86436 20.8329 1.86436 20.8617C1.72261 20.8042 1.54543 20.7826 1.46038 20.6819C1.36116 20.5668 1.34698 20.3798 1.29028 20.2215C1.31863 20.1928 1.34698 20.1712 1.37533 20.1496Z" fill="white"/>
<path d="M2.00732 21.4154C2.10655 21.4082 2.21286 21.3938 2.31208 21.3866C2.29791 21.4082 2.29082 21.4298 2.27664 21.4585C2.3546 21.5305 2.43256 21.6096 2.5247 21.6887C2.17742 22.0052 2.1916 21.5017 2.00732 21.4154Z" fill="white"/>
</g>
<circle cx="17.9999" cy="18" r="14.902" fill="white"/>
<path d="M14.987 14.7852L14.5093 13.0022L7 15.0144L7.33499 12.0694L13.7955 10.3383L13.5819 9.54124L16.6654 8.71504L16.879 9.51211L24.3883 7.5L24.0533 10.4449L17.5927 12.176L18.0705 13.959L26.7754 11.6265L26.4404 14.5714L7.01689 19.776L7.35188 16.831L14.987 14.7852ZM28.7111 23.0456L18.7056 25.7266L12.8143 24.9671L12.8058 27.2849L9.63851 28.1336L9.68764 20.0945L12.855 19.2458L12.8275 21.9959L17.3884 22.5724L16.1182 17.8319L19.0338 17.0506L19.3879 18.3721L27.2538 16.2644L26.9761 19.1715L20.096 21.015L20.4839 22.4624L29 20.1805L28.7111 23.0456Z" fill="#777777"/>
</g>
</g>
<defs>
<clipPath id="clip0_10198_88356">
<rect width="36" height="36" rx="18" fill="white"/>
</clipPath>
<clipPath id="clip1_10198_88356">
<rect width="38" height="38" fill="white" transform="translate(-1 -1)"/>
</clipPath>
</defs>
</svg>
