<svg width="24" height="24" viewBox="0 0 24 24" fill="none" xmlns="http://www.w3.org/2000/svg">
<g id="Back">
<path id="Union" d="M13.7573 16.161L9.59066 11.9944L13.7573 7.82775C13.8567 7.72833 13.9356 7.6103 13.9894 7.4804C14.0432 7.3505 14.0709 7.21128 14.0709 7.07067C14.0709 6.93007 14.0432 6.79084 13.9894 6.66094C13.9356 6.53104 13.8567 6.41301 13.7573 6.31359C13.6579 6.21417 13.5398 6.13531 13.4099 6.0815C13.28 6.02769 13.1408 6 13.0002 6C12.8596 6 12.7204 6.02769 12.5905 6.0815C12.4606 6.13531 12.3425 6.21417 12.2431 6.31359L7.31405 11.2427C7.2145 11.342 7.13552 11.46 7.08163 11.5899C7.02774 11.7198 7 11.8591 7 11.9997C7 12.1404 7.02774 12.2796 7.08163 12.4096C7.13552 12.5395 7.2145 12.6575 7.31405 12.7568L12.2431 17.6859C12.6619 18.1047 13.3385 18.1047 13.7573 17.6859C14.1653 17.2671 14.1761 16.5798 13.7573 16.161Z" fill="white"/>
</g>
</svg>
