<svg width="24" height="24" viewBox="0 0 24 24" fill="none" xmlns="http://www.w3.org/2000/svg">
<path d="M13.2 8.40005C16.158 8.40005 17.8356 10.2888 18.0792 12.5689H18.1536C20.0568 12.5689 21.6 14.0533 21.6 15.8845C21.6 17.7157 20.0568 19.2001 18.1536 19.2001H8.2464C6.3432 19.2001 4.8 17.7157 4.8 15.8845C4.8 14.0533 6.3432 12.5689 8.2464 12.5689H8.3208C8.5668 10.2732 10.242 8.40005 13.2 8.40005ZM13.2 9.60005C11.22 9.60005 9.4956 11.124 9.4956 13.23C9.4956 13.5636 9.1908 13.8252 8.8416 13.8252H8.1816C6.9768 13.8252 6 14.76 6 15.9132C6 17.064 6.9768 18.0001 8.1816 18.0001H18.2184C19.4232 18.0001 20.4 17.0653 20.4 15.9121C20.4 14.7601 19.4232 13.8252 18.2184 13.8252H17.5584C17.2104 13.8252 16.9044 13.5636 16.9044 13.23C16.9044 11.0976 15.18 9.60005 13.2 9.60005ZM10.0704 4.80005C11.8176 4.80005 13.3416 5.79365 14.094 7.25405C13.5828 7.19066 13.0663 7.18181 12.5532 7.22765C12.2568 6.84613 11.8773 6.53726 11.4435 6.32453C11.0097 6.11181 10.5331 6.00083 10.05 6.00005C9.29545 6.00363 8.56636 6.2734 7.99121 6.76184C7.41606 7.25028 7.03176 7.92604 6.906 8.67005L6.8616 8.92205C6.81349 9.20093 6.66837 9.45384 6.45186 9.63609C6.23536 9.81834 5.96141 9.91821 5.6784 9.91805H5.3688C4.392 9.91805 3.6 10.7196 3.6 11.7084C3.6 12.3924 3.978 12.9865 4.5336 13.2877C4.2768 13.614 4.0656 13.9789 3.9096 14.3701C3.33794 14.0218 2.89225 13.5002 2.63733 12.8812C2.38242 12.2623 2.33156 11.5781 2.49215 10.9282C2.65275 10.2784 3.01642 9.69668 3.5303 9.26768C4.04419 8.83869 4.68151 8.58478 5.3496 8.54285L5.6148 8.53685C5.79985 7.48964 6.34788 6.54109 7.16268 5.85774C7.97749 5.17438 9.00698 4.7999 10.0704 4.80005Z" fill="white"/>
</svg>
