<svg width="15" height="15" viewBox="0 0 24 24" fill="none" xmlns="http://www.w3.org/2000/svg">
<path d="M12 4.001C15.169 4.001 16.966 6.09594 17.227 8.62645H17.307C17.7914 8.62566 18.2711 8.72022 18.7189 8.90472C19.1666 9.08923 19.5736 9.36006 19.9166 9.70175C20.2595 10.0434 20.5317 10.4493 20.7176 10.8961C20.9035 11.3429 20.9995 11.8219 21 12.3058C20.9993 12.7895 20.9033 13.2684 20.7174 13.715C20.5315 14.1616 20.2594 14.5673 19.9166 14.9089C19.5737 15.2505 19.1669 15.5212 18.7193 15.7057C18.2718 15.8902 17.7922 15.9849 17.308 15.9842H16.726L15.144 18.6166C15.0492 18.7817 14.8951 18.9047 14.713 18.9604C14.5308 19.0161 14.3342 19.0005 14.1631 18.9167C13.9921 18.8329 13.8593 18.6872 13.7919 18.5092C13.7244 18.3312 13.7273 18.1342 13.8 17.9583L13.845 17.8674L14.994 15.9842H12.858L11.276 18.6166C11.1812 18.7817 11.0271 18.9047 10.845 18.9604C10.6628 19.0161 10.4662 19.0005 10.2951 18.9167C10.1241 18.8329 9.99133 18.6872 9.92388 18.5092C9.85644 18.3312 9.85934 18.1342 9.932 17.9583L9.977 17.8674L11.125 15.9842H8.987L7.407 18.6166C7.31333 18.7839 7.15907 18.9089 6.97595 18.966C6.79283 19.0231 6.59477 19.0079 6.42251 18.9236C6.25024 18.8393 6.11687 18.6922 6.04981 18.5126C5.98276 18.3331 5.98712 18.1347 6.062 17.9583L6.107 17.8674L7.255 15.9842H6.693C6.20873 15.985 5.72905 15.8905 5.28136 15.706C4.83366 15.5216 4.42673 15.2508 4.08379 14.9093C3.74085 14.5677 3.46862 14.1619 3.28266 13.7152C3.09671 13.2685 3.00066 12.7896 3 12.3058C3.00039 11.8219 3.09625 11.3427 3.28209 10.8958C3.46793 10.4489 3.74011 10.0429 4.08308 9.7011C4.42604 9.35931 4.83307 9.08839 5.2809 8.90382C5.72872 8.71925 6.20856 8.62466 6.693 8.62545H6.773C7.035 6.07796 8.831 4.001 12 4.001ZM12 5.49653C9.929 5.49653 8.123 7.12792 8.123 9.3817C8.123 9.73835 7.804 10.0191 7.439 10.0191H6.749C5.488 10.0191 4.465 11.0191 4.465 12.2529C4.465 13.4867 5.488 14.4877 6.749 14.4877H17.25C18.511 14.4877 19.534 13.4867 19.534 12.2529C19.534 11.0191 18.511 10.0191 17.25 10.0191H16.56C16.195 10.0191 15.876 9.73935 15.876 9.3817C15.876 7.09895 14.07 5.49553 11.999 5.49553" fill="white"/>
</svg>
