<svg width="17" height="18" viewBox="0 0 17 18" fill="none" xmlns="http://www.w3.org/2000/svg">
<path fill-rule="evenodd" clip-rule="evenodd" d="M14.2842 9.89578C14.3765 9.85759 14.4754 9.83796 14.5753 9.83802C14.6751 9.83796 14.774 9.85759 14.8663 9.89578C14.9586 9.93397 15.0424 9.98997 15.113 10.0606C15.1836 10.1312 15.2396 10.215 15.2778 10.3073C15.316 10.3996 15.3357 10.4985 15.3356 10.5983V12.8793C15.3351 13.2825 15.1747 13.669 14.8896 13.954C14.6046 14.2391 14.2181 14.3995 13.8149 14.4H3.17032C2.76718 14.3995 2.38069 14.2391 2.09563 13.954C1.81056 13.669 1.65018 13.2825 1.64966 12.8793V10.5983C1.6496 10.4985 1.66923 10.3996 1.70742 10.3073C1.74561 10.215 1.80161 10.1312 1.87223 10.0606C1.94284 9.98997 2.02668 9.93396 2.11896 9.89577C2.21123 9.85758 2.31012 9.83796 2.40999 9.83801C2.50985 9.83796 2.60875 9.85758 2.70102 9.89577C2.79329 9.93396 2.87714 9.98997 2.94775 10.0606C3.01836 10.1312 3.07437 10.215 3.11256 10.3073C3.15075 10.3996 3.17038 10.4985 3.17032 10.5983L3.17032 12.8793H13.8149V10.5983C13.8149 10.4985 13.8345 10.3996 13.8727 10.3073C13.9109 10.215 13.9669 10.1312 14.0375 10.0606C14.1081 9.98997 14.192 9.93397 14.2842 9.89578ZM6.69234 10.5406C6.60007 10.5788 6.50117 10.5984 6.40131 10.5983C6.30144 10.5984 6.20255 10.5788 6.11028 10.5406C6.018 10.5024 5.93416 10.4464 5.86355 10.3758C5.79293 10.3052 5.73693 10.2213 5.69874 10.1291C5.66055 10.0368 5.64092 9.93788 5.64098 9.83802C5.6423 8.62851 6.12336 7.46892 6.97861 6.61367C7.83386 5.75842 8.99345 5.27736 10.203 5.27604H12.7398L11.7567 4.29293C11.6163 4.14992 11.538 3.95724 11.5389 3.7568C11.5398 3.55637 11.6198 3.3644 11.7616 3.22267C11.9033 3.08094 12.0953 3.00092 12.2957 3.00001C12.4961 2.9991 12.6888 3.07738 12.8318 3.21782L15.1119 5.4978C15.2544 5.64078 15.3344 5.83444 15.3344 6.03635C15.3344 6.23825 15.2544 6.43191 15.1119 6.57489L12.8318 8.85491C12.7614 8.92624 12.6776 8.98293 12.5851 9.02173C12.4927 9.06053 12.3935 9.08067 12.2933 9.08098C12.193 9.0813 12.0937 9.06179 12.0011 9.02358C11.9084 8.98537 11.8242 8.92921 11.7533 8.85833C11.6824 8.78745 11.6263 8.70325 11.588 8.61059C11.5498 8.51792 11.5303 8.4186 11.5306 8.31837C11.5309 8.21813 11.5511 8.11894 11.5899 8.02651C11.6287 7.93408 11.6854 7.85024 11.7567 7.77981L12.7398 6.7967H10.203C9.3966 6.7975 8.62349 7.11819 8.05331 7.68837C7.48313 8.25855 7.16244 9.03166 7.16164 9.83802C7.1617 9.93788 7.14207 10.0368 7.10388 10.1291C7.06569 10.2213 7.00968 10.3052 6.93907 10.3758C6.86846 10.4464 6.78462 10.5024 6.69234 10.5406Z" fill="white"/>
</svg>
