<svg width="15" height="15" viewBox="0 0 24 24" fill="none" xmlns="http://www.w3.org/2000/svg">
<path d="M12 3C12.2238 3 12.4384 3.08889 12.5966 3.24713C12.7549 3.40536 12.8438 3.61997 12.8438 3.84375V6.3075L14.4975 4.65375C14.5747 4.57085 14.6679 4.50436 14.7714 4.45825C14.8749 4.41213 14.9866 4.38733 15.0999 4.38533C15.2132 4.38334 15.3257 4.40418 15.4308 4.44661C15.5359 4.48905 15.6313 4.55221 15.7114 4.63233C15.7915 4.71245 15.8547 4.80789 15.8971 4.91295C15.9396 5.01801 15.9604 5.13055 15.9584 5.24384C15.9564 5.35713 15.9316 5.46886 15.8855 5.57236C15.8394 5.67585 15.7729 5.76901 15.69 5.84625L12.8438 8.6925V11.1562H15.3075L18.1538 8.31C18.231 8.2271 18.3241 8.16061 18.4276 8.1145C18.5311 8.06838 18.6429 8.04358 18.7562 8.04158C18.8695 8.03959 18.982 8.06043 19.087 8.10286C19.1921 8.1453 19.2875 8.20846 19.3677 8.28858C19.4478 8.3687 19.511 8.46414 19.5534 8.5692C19.5958 8.67426 19.6167 8.7868 19.6147 8.90009C19.6127 9.01338 19.5879 9.12511 19.5418 9.22861C19.4956 9.3321 19.4291 9.42526 19.3463 9.5025L17.6925 11.1562H20.1562C20.38 11.1562 20.5946 11.2451 20.7529 11.4034C20.9111 11.5616 21 11.7762 21 12C21 12.2238 20.9111 12.4384 20.7529 12.5966C20.5946 12.7549 20.38 12.8438 20.1562 12.8438H17.6925L19.3463 14.4975C19.4291 14.5747 19.4956 14.6679 19.5418 14.7714C19.5879 14.8749 19.6127 14.9866 19.6147 15.0999C19.6167 15.2132 19.5958 15.3257 19.5534 15.4308C19.511 15.5359 19.4478 15.6313 19.3677 15.7114C19.2875 15.7915 19.1921 15.8547 19.087 15.8971C18.982 15.9396 18.8695 15.9604 18.7562 15.9584C18.6429 15.9564 18.5311 15.9316 18.4276 15.8855C18.3241 15.8394 18.231 15.7729 18.1538 15.69L15.3075 12.8438H12.8438V15.3075L15.69 18.1538C15.7729 18.231 15.8394 18.3241 15.8855 18.4276C15.9316 18.5311 15.9564 18.6429 15.9584 18.7562C15.9604 18.8695 15.9396 18.982 15.8971 19.087C15.8547 19.1921 15.7915 19.2875 15.7114 19.3677C15.6313 19.4478 15.5359 19.511 15.4308 19.5534C15.3257 19.5958 15.2132 19.6167 15.0999 19.6147C14.9866 19.6127 14.8749 19.5879 14.7714 19.5418C14.6679 19.4956 14.5747 19.4291 14.4975 19.3463L12.8438 17.6925V20.1562C12.8438 20.38 12.7549 20.5946 12.5966 20.7529C12.4384 20.9111 12.2238 21 12 21C11.7762 21 11.5616 20.9111 11.4034 20.7529C11.2451 20.5946 11.1562 20.38 11.1562 20.1562V17.6925L9.5025 19.3463C9.34255 19.4953 9.131 19.5764 8.91241 19.5726C8.69382 19.5687 8.48526 19.4802 8.33068 19.3256C8.17609 19.171 8.08753 18.9624 8.08368 18.7438C8.07982 18.5252 8.16096 18.3137 8.31 18.1538L11.1562 15.3075V12.8438H8.6925L5.84625 15.69C5.6863 15.839 5.47475 15.9202 5.25616 15.9163C5.03757 15.9125 4.82902 15.8239 4.67443 15.6693C4.51984 15.5147 4.43128 15.3062 4.42743 15.0876C4.42357 14.869 4.50471 14.6574 4.65375 14.4975L6.3075 12.8438H3.84375C3.61997 12.8438 3.40536 12.7549 3.24713 12.5966C3.08889 12.4384 3 12.2238 3 12C3 11.7762 3.08889 11.5616 3.24713 11.4034C3.40536 11.2451 3.61997 11.1562 3.84375 11.1562H6.3075L4.65375 9.5025C4.50471 9.34255 4.42357 9.131 4.42743 8.91241C4.43128 8.69382 4.51984 8.48526 4.67443 8.33068C4.82902 8.17609 5.03757 8.08753 5.25616 8.08368C5.47475 8.07982 5.6863 8.16096 5.84625 8.31L8.6925 11.1562H11.1562V8.6925L8.31 5.84625C8.16096 5.6863 8.07982 5.47475 8.08368 5.25616C8.08753 5.03757 8.17609 4.82902 8.33068 4.67443C8.48526 4.51984 8.69382 4.43128 8.91241 4.42743C9.131 4.42357 9.34255 4.50471 9.5025 4.65375L11.1562 6.3075V3.84375C11.1562 3.61997 11.2451 3.40536 11.4034 3.24713C11.5616 3.08889 11.7762 3 12 3Z" fill="white"/>
</svg>
