<svg width="15" height="15" viewBox="0 0 24 24" fill="none" xmlns="http://www.w3.org/2000/svg">
<path d="M12 2C12.1894 2 12.3711 2.07525 12.5051 2.20921C12.639 2.34316 12.7143 2.52485 12.7143 2.71429V4.14286C12.7143 4.3323 12.639 4.51398 12.5051 4.64793C12.3711 4.78189 12.1894 4.85714 12 4.85714C11.8106 4.85714 11.6289 4.78189 11.4949 4.64793C11.361 4.51398 11.2857 4.3323 11.2857 4.14286V2.71429C11.2857 2.52485 11.361 2.34316 11.4949 2.20921C11.6289 2.07525 11.8106 2 12 2ZM12 17C13.3261 17 14.5979 16.4732 15.5355 15.5355C16.4732 14.5979 17 13.3261 17 12C17 10.6739 16.4732 9.40215 15.5355 8.46447C14.5979 7.52678 13.3261 7 12 7C10.6739 7 9.40215 7.52678 8.46447 8.46447C7.52678 9.40215 7 10.6739 7 12C7 13.3261 7.52678 14.5979 8.46447 15.5355C9.40215 16.4732 10.6739 17 12 17ZM12 15.5714C11.0528 15.5714 10.1444 15.1952 9.47462 14.5254C8.80485 13.8556 8.42857 12.9472 8.42857 12C8.42857 11.0528 8.80485 10.1444 9.47462 9.47462C10.1444 8.80485 11.0528 8.42857 12 8.42857C12.9472 8.42857 13.8556 8.80485 14.5254 9.47462C15.1952 10.1444 15.5714 11.0528 15.5714 12C15.5714 12.9472 15.1952 13.8556 14.5254 14.5254C13.8556 15.1952 12.9472 15.5714 12 15.5714ZM21.2857 12.7143C21.4752 12.7143 21.6568 12.639 21.7908 12.5051C21.9247 12.3711 22 12.1894 22 12C22 11.8106 21.9247 11.6289 21.7908 11.4949C21.6568 11.361 21.4752 11.2857 21.2857 11.2857H19.8571C19.6677 11.2857 19.486 11.361 19.3521 11.4949C19.2181 11.6289 19.1429 11.8106 19.1429 12C19.1429 12.1894 19.2181 12.3711 19.3521 12.5051C19.486 12.639 19.6677 12.7143 19.8571 12.7143H21.2857ZM12 19.1429C12.1894 19.1429 12.3711 19.2181 12.5051 19.3521C12.639 19.486 12.7143 19.6677 12.7143 19.8571V21.2857C12.7143 21.4752 12.639 21.6568 12.5051 21.7908C12.3711 21.9247 12.1894 22 12 22C11.8106 22 11.6289 21.9247 11.4949 21.7908C11.361 21.6568 11.2857 21.4752 11.2857 21.2857V19.8571C11.2857 19.6677 11.361 19.486 11.4949 19.3521C11.6289 19.2181 11.8106 19.1429 12 19.1429ZM4.14286 12.7143C4.3323 12.7143 4.51398 12.639 4.64793 12.5051C4.78189 12.3711 4.85714 12.1894 4.85714 12C4.85714 11.8106 4.78189 11.6289 4.64793 11.4949C4.51398 11.361 4.3323 11.2857 4.14286 11.2857H2.71429C2.52485 11.2857 2.34316 11.361 2.20921 11.4949C2.07525 11.6289 2 11.8106 2 12C2 12.1894 2.07525 12.3711 2.20921 12.5051C2.34316 12.639 2.52485 12.7143 2.71429 12.7143H4.14286ZM4.35286 4.35286C4.48681 4.21895 4.66845 4.14372 4.85786 4.14372C5.04726 4.14372 5.22891 4.21895 5.36286 4.35286L6.79143 5.78143C6.85965 5.84732 6.91407 5.92614 6.9515 6.01328C6.98894 6.10043 7.00864 6.19416 7.00946 6.289C7.01029 6.38384 6.99222 6.4779 6.9563 6.56568C6.92039 6.65346 6.86735 6.73322 6.80028 6.80028C6.73322 6.86735 6.65346 6.92039 6.56568 6.9563C6.4779 6.99222 6.38384 7.01029 6.289 7.00946C6.19416 7.00864 6.10043 6.98894 6.01328 6.9515C5.92614 6.91407 5.84732 6.85965 5.78143 6.79143L4.35286 5.36286C4.21895 5.22891 4.14372 5.04726 4.14372 4.85786C4.14372 4.66845 4.21895 4.48681 4.35286 4.35286ZM5.36286 19.6486C5.22814 19.7787 5.04771 19.8507 4.86043 19.8491C4.67314 19.8474 4.49399 19.7723 4.36156 19.6399C4.22912 19.5074 4.154 19.3283 4.15238 19.141C4.15075 18.9537 4.22274 18.7733 4.35286 18.6386L5.78143 17.21C5.84732 17.1418 5.92614 17.0874 6.01328 17.0499C6.10043 17.0125 6.19416 16.9928 6.289 16.992C6.38384 16.9911 6.4779 17.0092 6.56568 17.0451C6.65346 17.081 6.73322 17.1341 6.80028 17.2011C6.86735 17.2682 6.92039 17.348 6.9563 17.4357C6.99222 17.5235 7.01029 17.6176 7.00946 17.7124C7.00864 17.8073 6.98894 17.901 6.9515 17.9881C6.91407 18.0753 6.85965 18.1541 6.79143 18.22L5.36286 19.6486ZM19.6486 4.35286C19.5146 4.21895 19.333 4.14372 19.1436 4.14372C18.9542 4.14372 18.7725 4.21895 18.6386 4.35286L17.21 5.78143C17.0799 5.91614 17.0079 6.09657 17.0095 6.28386C17.0111 6.47114 17.0863 6.65029 17.2187 6.78273C17.3511 6.91516 17.5303 6.99028 17.7176 6.99191C17.9049 6.99354 18.0853 6.92154 18.22 6.79143L19.6486 5.36286C19.7825 5.22891 19.8577 5.04726 19.8577 4.85786C19.8577 4.66845 19.7825 4.48681 19.6486 4.35286ZM18.6386 19.6486C18.7733 19.7787 18.9537 19.8507 19.141 19.8491C19.3283 19.8474 19.5074 19.7723 19.6399 19.6399C19.7723 19.5074 19.8474 19.3283 19.8491 19.141C19.8507 18.9537 19.7787 18.7733 19.6486 18.6386L18.22 17.21C18.1541 17.1418 18.0753 17.0874 17.9881 17.0499C17.901 17.0125 17.8073 16.9928 17.7124 16.992C17.6176 16.9911 17.5235 17.0092 17.4357 17.0451C17.348 17.081 17.2682 17.1341 17.2011 17.2011C17.1341 17.2682 17.081 17.348 17.0451 17.4357C17.0092 17.5235 16.9911 17.6176 16.992 17.7124C16.9928 17.8073 17.0125 17.901 17.0499 17.9881C17.0874 18.0753 17.1418 18.1541 17.21 18.22L18.6386 19.6486Z" fill="white"/>
</svg>
