<svg width="24" height="24" viewBox="0 0 24 24" fill="none" xmlns="http://www.w3.org/2000/svg">
<path fill-rule="evenodd" clip-rule="evenodd" d="M10.7383 5.60169L8.40252 11.2076H10.9906C11.5086 11.2076 11.8735 11.7482 11.7098 12.2727L10.4665 16.2505L15.9459 10.4067H14.0163C13.887 10.4067 13.7599 10.3714 13.647 10.3043C13.5341 10.2371 13.4392 10.1403 13.3713 10.0229C13.3034 9.90563 13.2647 9.77175 13.2589 9.634C13.2531 9.49625 13.2805 9.35922 13.3383 9.23592L15.0419 5.60169H10.7383ZM9.56252 4.48051C9.68415 4.1882 9.95519 4 10.2555 4H16.2447C16.8078 4 17.175 4.63267 16.9227 5.17083L15.2191 8.80506H17.7403C18.416 8.80506 18.7539 9.67638 18.2764 10.1857L9.30199 19.7582C8.73588 20.362 7.79286 19.7406 8.04664 18.9309L9.9597 12.8093H7.25829C7.13196 12.8093 7.00764 12.7756 6.89661 12.7113C6.78558 12.6471 6.69136 12.5542 6.62251 12.4412C6.55366 12.3283 6.51237 12.1987 6.50238 12.0644C6.49238 11.9301 6.51401 11.7952 6.56529 11.6721L9.56252 4.48051Z" fill="white"/>
</svg>
