<svg width="18" height="18" viewBox="0 0 18 18" fill="none" xmlns="http://www.w3.org/2000/svg">
<g clip-path="url(#clip0_645_6140)">
<path d="M7.41249 1.65524C7.76923 1.6132 8.12869 1.70744 8.41892 1.9191C8.70916 2.13076 8.90874 2.44422 8.97774 2.79674L8.99649 2.92199L9.00024 2.99999V8.24999C9.00026 8.43369 9.06771 8.611 9.18977 8.74827C9.31184 8.88555 9.48005 8.97325 9.66249 8.99474L9.75024 8.99999H14.8502C15.2481 8.99999 15.6296 9.15803 15.9109 9.43933C16.1922 9.72064 16.3502 10.1022 16.3502 10.5C16.3502 10.5571 16.3437 10.6139 16.3307 10.6695C16.0306 11.9645 15.3917 13.1564 14.4793 14.1233C13.567 15.0901 12.4142 15.7971 11.1387 16.1719C9.86334 16.5466 8.51124 16.5757 7.22092 16.256C5.93061 15.9364 4.74843 15.2795 3.79546 14.3527C2.84249 13.4259 2.15297 12.2625 1.79752 10.9816C1.44206 9.70065 1.43344 8.34827 1.77253 7.06293C2.11163 5.77758 2.78625 4.60545 3.72733 3.66658C4.6684 2.72771 5.8421 2.05583 7.12824 1.71974L7.33074 1.66949L7.41324 1.65449L7.41249 1.65524Z" fill="#4489FF"/>
<path d="M10.5 2.62499V6.74999C10.5 6.94891 10.579 7.13967 10.7197 7.28032C10.8603 7.42098 11.0511 7.49999 11.25 7.49999H15.375C15.4949 7.49996 15.613 7.47119 15.7195 7.4161C15.8259 7.36101 15.9176 7.2812 15.9869 7.18335C16.0562 7.08551 16.101 6.97249 16.1176 6.85377C16.1342 6.73504 16.1221 6.61407 16.0823 6.50099C15.7098 5.443 15.1047 4.48202 14.3116 3.68882C13.5186 2.89562 12.5577 2.29041 11.4998 1.91774C11.3866 1.87779 11.2656 1.86556 11.1467 1.88208C11.0279 1.8986 10.9148 1.94337 10.8169 2.01266C10.7189 2.08194 10.639 2.17371 10.5839 2.28026C10.5288 2.38681 10.5 2.50503 10.5 2.62499Z" fill="#9FC2FF"/>
</g>
<defs>
<clipPath id="clip0_645_6140">
<rect width="18" height="18" fill="white"/>
</clipPath>
</defs>
</svg>
