<svg width="20" height="14" viewBox="0 0 20 14" fill="none" xmlns="http://www.w3.org/2000/svg">
<path d="M19.125 12.4444V1.55556C19.125 1.143 18.9659 0.747335 18.6828 0.455612C18.3996 0.163888 18.0156 0 17.6151 0H1.50987C1.10943 0 0.725385 0.163888 0.44223 0.455612C0.159075 0.747335 0 1.143 0 1.55556V12.4444C0 12.857 0.159075 13.2527 0.44223 13.5444C0.725385 13.8361 1.10943 14 1.50987 14H17.6151C18.0156 14 18.3996 13.8361 18.6828 13.5444C18.9659 13.2527 19.125 12.857 19.125 12.4444Z" fill="#E6EFFE"/>
<path d="M13.2509 6.10895C13.979 6.47986 13.979 7.52011 13.2509 7.89103L7.95392 10.5894C7.28861 10.9284 6.5 10.4451 6.5 9.69841L6.5 4.30157C6.5 3.5549 7.28861 3.0716 7.95392 3.41053L13.2509 6.10895Z" fill="#4489FF"/>
</svg>
