<svg width="18" height="18" viewBox="0 0 18 18" fill="none" xmlns="http://www.w3.org/2000/svg">
<g clip-path="url(#clip0_645_6131)">
<path d="M14.8705 9.36207C14.3513 8.91005 13.7315 8.55617 13.0494 8.32239C12.3673 8.0886 11.6376 7.97991 10.9054 8.00305C10.6809 8.00361 10.4566 8.01441 10.2333 8.03541C9.95093 8.55685 9.52764 9.01034 9 9.35668C10.1766 9.64134 11.2424 10.2006 12.0832 10.9746L12.2374 11.1256L12.5704 11.4599V14H15V9.51307L14.8705 9.36207Z" fill="#9FC2FF"/>
<path d="M10.9468 6.54736C10.9548 6.68794 10.9548 6.82883 10.9468 6.96942C11.073 6.98802 11.2005 6.99825 11.3283 7H11.4532C11.9171 6.977 12.3666 6.84269 12.758 6.61016C13.1495 6.37763 13.4695 6.0548 13.687 5.67309C13.9044 5.29138 14.0119 4.86381 13.999 4.432C13.986 4.00019 13.853 3.57886 13.613 3.20902C13.373 2.83918 13.0341 2.53345 12.6294 2.32158C12.2246 2.10971 11.7677 1.99892 11.3032 2.00001C10.8388 2.00109 10.3825 2.11402 9.97887 2.32778C9.57524 2.54154 9.23801 2.84886 9 3.21981C9.59527 3.58128 10.0848 4.07452 10.4245 4.65529C10.7643 5.23606 10.9438 5.88619 10.9468 6.54736Z" fill="#9FC2FF"/>
<path d="M7.5 9C8.88071 9 10 7.88071 10 6.5C10 5.11929 8.88071 4 7.5 4C6.11929 4 5 5.11929 5 6.5C5 7.88071 6.11929 9 7.5 9Z" fill="#4489FF"/>
<path d="M7.00817 10.005C6.29696 9.97582 5.5873 10.093 4.92187 10.3493C4.25645 10.6057 3.64902 10.996 3.13615 11.4968L3 11.6515V15.149C3.00213 15.2629 3.02635 15.3753 3.07129 15.4797C3.11624 15.5841 3.18102 15.6785 3.26193 15.7575C3.34285 15.8365 3.43831 15.8986 3.54288 15.9402C3.64744 15.9818 3.75906 16.002 3.87134 15.9998H10.1287C10.2409 16.002 10.3526 15.9818 10.4571 15.9402C10.5617 15.8986 10.6572 15.8365 10.7381 15.7575C10.819 15.6785 10.8838 15.5841 10.9287 15.4797C10.9736 15.3753 10.9979 15.2629 11 15.149V11.6625L10.8693 11.4968C10.3597 10.9945 9.75443 10.6031 9.09049 10.3465C8.42655 10.09 7.71796 9.97378 7.00817 10.005Z" fill="#4489FF"/>
</g>
<defs>
<clipPath id="clip0_645_6131">
<rect width="18" height="18" fill="white"/>
</clipPath>
</defs>
</svg>
