<svg width="11" height="13" viewBox="0 0 11 13" fill="none" xmlns="http://www.w3.org/2000/svg">
<path d="M10.8944 6.5248C10.4686 6.12479 9.96013 5.81163 9.40065 5.60475C8.84117 5.39787 8.24259 5.30168 7.64207 5.32216C7.45788 5.32265 7.27386 5.33221 7.09073 5.35079C6.85911 5.81224 6.5119 6.21354 6.0791 6.52003C7.04418 6.77194 7.91843 7.26686 8.60817 7.95176L8.73462 8.08538L9.00776 8.38127V10.6291H11.0007V6.65843L10.8944 6.5248Z" fill="#8D8D8D"/>
<path d="M7.39858 4.0479C7.40472 4.15759 7.40472 4.26751 7.39858 4.3772C7.49564 4.39172 7.59368 4.39969 7.69195 4.40106H7.78805C8.14476 4.38312 8.49046 4.27833 8.79151 4.09691C9.09255 3.91548 9.33868 3.6636 9.50592 3.36579C9.67317 3.06798 9.75583 2.73438 9.74587 2.39748C9.73591 2.06057 9.63366 1.73184 9.44907 1.44329C9.26449 1.15474 9.00386 0.916202 8.69256 0.750898C8.38127 0.585594 8.02991 0.499158 7.67269 0.500006C7.31548 0.500854 6.96459 0.588957 6.65418 0.755736C6.34376 0.922516 6.08441 1.16229 5.90137 1.45171C6.35917 1.73373 6.73561 2.11856 6.99693 2.57169C7.25824 3.02481 7.39625 3.53205 7.39858 4.0479Z" fill="#8D8D8D"/>
<path d="M4.0813 6.18597C5.33001 6.18597 6.34229 5.23087 6.34229 4.0527C6.34229 2.87453 5.33001 1.91943 4.0813 1.91943C2.83259 1.91943 1.82031 2.87453 1.82031 4.0527C1.82031 5.23087 2.83259 6.18597 4.0813 6.18597Z" fill="#8D8D8D"/>
<path d="M4.20228 7.32178C3.54171 7.29662 2.88257 7.3978 2.26453 7.61925C1.64648 7.84069 1.08231 8.17781 0.605946 8.61033L0.479492 8.74396V11.7649C0.481466 11.8633 0.503967 11.9604 0.54571 12.0506C0.587453 12.1408 0.647621 12.2223 0.722775 12.2906C0.797929 12.3588 0.886599 12.4124 0.983718 12.4483C1.08084 12.4842 1.1845 12.5017 1.28879 12.4998H7.10059C7.20488 12.5017 7.30855 12.4842 7.40567 12.4483C7.50279 12.4124 7.59146 12.3588 7.66661 12.2906C7.74177 12.2223 7.80193 12.1408 7.84368 12.0506C7.88542 11.9604 7.90792 11.8633 7.90989 11.7649V8.75351L7.7885 8.61033C7.31522 8.17648 6.75301 7.83841 6.13634 7.61683C5.51967 7.39526 4.86154 7.29486 4.20228 7.32178Z" fill="#8D8D8D"/>
</svg>
