<svg width="24" height="24" viewBox="0 0 24 24" fill="none" xmlns="http://www.w3.org/2000/svg">
<path d="M11.8947 2C11.6052 2 11.3157 2.06488 11.0914 2.19463L3.93113 6.3365C3.48253 6.596 3.48253 7.00634 3.93113 7.26584L11.0914 11.4077C11.54 11.6672 12.2494 11.6672 12.6979 11.4077L19.8582 7.26584C20.3068 7.00639 20.3068 6.596 19.8582 6.33655L12.6979 2.19467C12.4736 2.06483 12.1842 2 11.8947 2ZM11.9381 5.88383C12.2324 5.88641 12.5189 5.94038 12.7618 6.039C13.0047 6.13762 13.1933 6.27653 13.3039 6.43836C13.4146 6.60019 13.4424 6.77779 13.384 6.94895C13.3255 7.12012 13.1834 7.27728 12.9753 7.4008C12.8367 7.48441 12.6715 7.5509 12.4893 7.59644C12.3071 7.64199 12.1115 7.66568 11.9138 7.66615C11.7161 7.66662 11.5202 7.64386 11.3374 7.59919C11.1546 7.55451 10.9885 7.48881 10.8487 7.40586C10.7089 7.32291 10.5982 7.22436 10.5229 7.1159C10.4476 7.00743 10.4092 6.89119 10.41 6.77388C10.4108 6.65657 10.4507 6.54052 10.5274 6.43241C10.6042 6.3243 10.7162 6.22627 10.8571 6.14398C10.9988 6.05993 11.1675 5.99359 11.3532 5.9489C11.5388 5.90422 11.7377 5.88209 11.9381 5.88383H11.9381ZM3.453 8.05044C3.18333 8.04317 3 8.25369 3 8.62606V16.0181C3 16.5361 3.35484 17.1507 3.80344 17.4098L10.6908 21.387C11.1394 21.6461 11.4942 21.4412 11.4942 20.9232V13.5311C11.4942 13.013 11.1394 12.3986 10.6908 12.1394L3.80344 8.16223C3.67734 8.08934 3.55852 8.05316 3.453 8.05034V8.05044ZM20.3642 8.05053C20.2588 8.05334 20.14 8.08944 20.0139 8.16233L13.1263 12.1395C12.6777 12.3986 12.3229 13.0132 12.3229 13.5313V20.9234C12.3229 21.4414 12.6777 21.6462 13.1263 21.387L20.0139 17.41C20.4625 17.1509 20.8172 16.5364 20.8172 16.0183V8.62616C20.8172 8.25388 20.634 8.04341 20.3642 8.05062V8.05053ZM4.09177 9.07841C4.25221 9.06728 4.43445 9.11762 4.62009 9.22436C4.80573 9.3311 4.98818 9.49045 5.14901 9.68631C5.30984 9.88217 5.44335 10.1076 5.53606 10.3398C5.62876 10.572 5.67737 10.8028 5.67698 11.0089C5.67715 11.163 5.64999 11.2998 5.59705 11.4116C5.54412 11.5234 5.46646 11.6079 5.36851 11.6603C5.27055 11.7127 5.15423 11.732 5.02618 11.7171C4.89814 11.7021 4.76089 11.6532 4.62228 11.5732C4.48367 11.4932 4.34642 11.3836 4.21838 11.2507C4.09034 11.1178 3.97402 10.9642 3.87607 10.7987C3.77811 10.6332 3.70045 10.459 3.64753 10.2861C3.5946 10.1132 3.56744 9.94496 3.56761 9.79105C3.56723 9.5854 3.61545 9.41132 3.70745 9.28624C3.79944 9.16116 3.93198 9.08949 4.09177 9.07841ZM14.4755 12.1095C14.6353 12.1206 14.7679 12.1923 14.8599 12.3173C14.9519 12.4424 15.0001 12.6165 14.9997 12.8222C14.9994 13.1329 14.8881 13.4949 14.6904 13.8285C14.4926 14.1621 14.2246 14.4402 13.945 14.6015C13.6655 14.7629 13.3975 14.7944 13.1997 14.6891C13.0019 14.5838 12.8907 14.3503 12.8903 14.04C12.89 13.8339 12.9386 13.6032 13.0313 13.3709C13.124 13.1387 13.2575 12.9133 13.4183 12.7174C13.5792 12.5216 13.7616 12.3622 13.9472 12.2555C14.1329 12.1488 14.3151 12.0984 14.4756 12.1095H14.4755ZM6.71672 13.4533C6.87716 13.4421 7.05941 13.4925 7.24504 13.5992C7.43068 13.7059 7.61313 13.8653 7.77396 14.0612C7.93479 14.257 8.0683 14.4824 8.16101 14.7147C8.25371 14.9469 8.30233 15.1777 8.30194 15.3837C8.3016 15.6941 8.19033 15.9275 7.99257 16.0328C7.79481 16.1381 7.52674 16.1066 7.24723 15.9453C6.96773 15.7839 6.69966 15.5059 6.5019 15.1722C6.30415 14.8386 6.19289 14.4766 6.19256 14.1659C6.19218 13.9602 6.2404 13.7862 6.3324 13.6611C6.42439 13.536 6.55693 13.4643 6.71672 13.4533ZM19.7256 14.8304C19.8854 14.8415 20.0179 14.9132 20.1099 15.0383C20.2019 15.1634 20.2501 15.3375 20.2497 15.5431C20.2494 15.8539 20.1381 16.2158 19.9404 16.5495C19.7426 16.8831 19.4745 17.1611 19.195 17.3225C18.9155 17.4839 18.6475 17.5154 18.4497 17.4101C18.2519 17.3048 18.1407 17.0713 18.1403 16.7609C18.1399 16.5549 18.1886 16.3241 18.2813 16.0919C18.374 15.8597 18.5075 15.6342 18.6683 15.4384C18.8291 15.2425 19.0116 15.0831 19.1972 14.9764C19.3829 14.8697 19.5652 14.8193 19.7256 14.8304ZM9.34186 17.8615C9.5023 17.8504 9.68454 17.9008 9.87018 18.0075C10.0558 18.1142 10.2383 18.2736 10.3991 18.4694C10.5599 18.6653 10.6934 18.8907 10.7861 19.1229C10.8788 19.3552 10.9274 19.5859 10.927 19.792C10.9272 19.9461 10.9 20.0829 10.8471 20.1947C10.7942 20.3065 10.7165 20.391 10.6186 20.4434C10.5206 20.4958 10.4043 20.5151 10.2762 20.5002C10.1482 20.4852 10.0109 20.4363 9.87233 20.3563C9.73372 20.2763 9.59647 20.1667 9.46843 20.0338C9.34039 19.9009 9.22406 19.7473 9.12611 19.5818C9.02816 19.4163 8.9505 19.2421 8.89757 19.0692C8.84465 18.8963 8.81749 18.7281 8.81766 18.5742C8.81727 18.3685 8.8655 18.1944 8.95749 18.0693C9.04949 17.9443 9.18207 17.8726 9.34186 17.8615Z" fill="white"/>
</svg>
