<svg width="14" height="15" viewBox="0 0 14 15" fill="none" xmlns="http://www.w3.org/2000/svg">
<g id="ic / chveron / small / left">
<path id="Union" d="M9.03252 10.41L6.12252 7.49999L9.03252 4.58999C9.10196 4.52056 9.15704 4.43812 9.19461 4.3474C9.23219 4.25668 9.25154 4.15944 9.25154 4.06124C9.25154 3.96304 9.23219 3.86581 9.19461 3.77508C9.15704 3.68436 9.10196 3.60193 9.03252 3.53249C8.96308 3.46306 8.88065 3.40798 8.78993 3.3704C8.6992 3.33282 8.60197 3.31348 8.50377 3.31348C8.40557 3.31348 8.30834 3.33282 8.21761 3.3704C8.12689 3.40798 8.04446 3.46306 7.97502 3.53249L4.53252 6.97499C4.46299 7.04438 4.40783 7.12679 4.3702 7.21752C4.33256 7.30825 4.31319 7.40552 4.31319 7.50374C4.31319 7.60197 4.33256 7.69923 4.3702 7.78996C4.40783 7.88069 4.46299 7.96311 4.53252 8.03249L7.97502 11.475C8.26752 11.7675 8.74002 11.7675 9.03252 11.475C9.31752 11.1825 9.32502 10.7025 9.03252 10.41Z" fill="#065FF5"/>
</g>
</svg>
