<svg width="45" height="45" viewBox="0 0 36 36" fill="none" xmlns="http://www.w3.org/2000/svg">
<g clip-path="url(#clip0_7260_42669)">
<rect width="36" height="36" rx="18" fill="white"/>
<g opacity="0.5" clip-path="url(#clip1_7260_42669)">
<path d="M10.3633 29.3337C10.8481 29.1744 11.1904 29.2468 11.5683 29.4714C13.4079 30.5796 15.4187 31.1083 17.5506 31.1735C18.2423 31.1953 18.9339 31.2097 19.6184 31.1735C20.0106 31.1518 20.3956 31.0069 20.7806 30.9128C21.2512 30.8041 21.7218 30.6955 22.1924 30.5868C22.2851 30.5651 22.385 30.5361 22.4634 30.4927C23.3262 30.0436 24.1889 29.5945 25.0588 29.1527C25.1943 29.0875 25.3583 29.0657 25.508 29.0513C25.8717 29.0223 26.1711 28.8774 26.435 28.6094C26.6631 28.3776 26.9769 28.3124 27.3263 28.3776C26.7986 28.7905 26.3138 29.2686 25.7433 29.609C24.3244 30.4492 22.8627 31.2315 21.2512 31.6009C19.925 31.9051 18.5703 32.0934 17.2012 31.9123C16.4668 31.8182 15.7467 31.6154 15.0122 31.5719C14.0425 31.514 13.2439 30.9997 12.374 30.681C11.8606 30.4999 11.3829 30.2029 10.9123 29.9132C10.7127 29.7828 10.5701 29.551 10.3633 29.3337Z" fill="white"/>
<path d="M27.4354 27.3054C27.9773 26.5883 28.4978 25.9074 29.0041 25.2121C29.2608 24.8571 29.5531 24.5095 29.6957 24.1038C29.8383 23.691 30.1093 23.3578 30.2162 22.9377C30.2448 22.829 30.2804 22.7276 30.3232 22.6262C31.1503 20.8733 31.079 18.9539 31.243 17.0851C31.2929 16.5491 31.0861 15.9914 31.0006 15.4409C30.9364 15.028 30.8865 14.6152 30.8009 14.2095C30.7439 13.9343 30.6726 13.6518 30.5514 13.3983C30.2733 12.8333 30.3375 12.9347 30.7368 12.3842C30.9364 12.7174 31.1574 12.9854 31.2002 13.4055C31.2501 13.8619 31.4427 14.3037 31.5567 14.76C31.678 15.2308 31.8491 15.7017 31.8776 16.1797C31.9275 16.991 31.8919 17.8094 31.8919 18.6279C31.8919 18.9321 31.8633 19.2436 31.8919 19.5478C31.9632 20.417 31.6708 21.1848 31.3 21.9381C31.2002 22.1409 31.1646 22.3655 31.0861 22.5755C30.9578 22.9232 30.8223 23.2709 30.6868 23.6113C30.2091 24.8789 29.5317 26.0161 28.6119 26.9939C28.4551 27.1605 28.2839 27.3126 28.0985 27.4502C27.685 27.7617 27.6779 27.7544 27.4354 27.3054Z" fill="white"/>
<path d="M9.57334 28.167C9.1883 28.4205 9.05282 28.435 8.789 28.138C8.19006 27.4499 7.59824 26.7546 7.02782 26.0375C6.68557 25.6174 6.37896 25.161 6.07236 24.712C5.92975 24.5091 5.80854 24.2846 5.71585 24.0528C5.38785 23.2343 5.12403 22.3796 4.73186 21.5974C4.5037 21.1265 4.49656 20.6775 4.46804 20.1994C4.38961 18.8594 4.2684 17.5194 4.16144 16.1722C4.15431 16.0997 4.15431 16.0056 4.18996 15.9476C4.54648 15.3319 4.62491 14.6293 4.72473 13.9485C4.83169 13.2169 5.16681 12.6012 5.56611 11.9493C5.77289 12.2753 5.96541 12.5723 6.17218 12.9055C5.5875 13.0576 5.53759 13.4922 5.44489 13.8905C5.23812 14.7452 5.03847 15.5927 4.85308 16.4546C4.80317 16.6864 4.76039 16.9327 4.76752 17.1645C4.8103 19.6344 5.30229 21.9957 6.38609 24.2194C6.4574 24.3643 6.5287 24.5164 6.62852 24.6468C7.28451 25.4725 7.9405 26.2982 8.60362 27.1167C8.62501 27.1385 8.66779 27.1602 8.66779 27.1892C8.69631 27.7541 9.27386 27.8193 9.57334 28.167Z" fill="white"/>
<path d="M16.0542 4.25682C16.5676 4.19887 17.0952 4.13368 17.6229 4.06849C17.6942 4.06125 17.7726 4.03952 17.8439 4.02503C18.2361 3.93087 18.6211 3.79325 19.0133 3.76427C19.3555 3.7353 19.712 3.81498 20.0614 3.85119C20.0614 3.88017 20.0686 3.90914 20.0686 3.93811C19.8333 3.95984 19.6051 3.98882 19.3698 4.01055C19.3698 4.02503 19.3769 4.03952 19.3769 4.054C19.9616 4.054 20.5463 4.01055 21.1238 4.06849C21.5588 4.11195 22.008 4.24233 22.4073 4.43065C23.6907 5.05357 24.9671 5.69098 26.2149 6.37909C26.5999 6.58914 26.8922 6.97304 27.206 7.29898C27.5055 7.61044 27.8121 7.92915 28.0545 8.27682C28.3896 8.74763 28.7818 9.14601 29.2452 9.48645C29.3308 9.55164 29.3807 9.67477 29.452 9.76893C29.4306 9.79791 29.4092 9.83412 29.3879 9.8631C29.2809 9.80515 29.1739 9.7472 29.067 9.68201C29.0456 9.67477 29.0313 9.63855 29.0171 9.6458C28.5465 9.77618 28.4324 9.34158 28.1828 9.11704C27.3557 8.37823 26.5357 7.63942 25.6944 6.91509C25.5161 6.76298 25.2737 6.69779 25.074 6.57466C24.853 6.42979 24.6319 6.27044 24.4323 6.10385C23.9617 5.71271 23.377 5.59682 22.8351 5.36503C21.3449 4.74211 19.762 4.54655 18.1719 4.42341C17.6656 4.38719 17.1451 4.51757 16.6318 4.55379C16.2396 4.59001 16.2396 4.58276 16.0542 4.25682Z" fill="white"/>
<path d="M14.0999 4.34378C14.0143 4.58281 13.9644 4.77113 13.886 4.95221C13.8361 5.04638 13.7576 5.14778 13.665 5.19848C13.2799 5.37957 12.8806 5.53892 12.4885 5.71276C11.7184 6.05319 11.0125 6.49503 10.3351 7.0093C9.78607 7.42216 9.14435 7.76984 8.33862 7.83503C9.89303 5.95178 11.8753 4.9667 14.0999 4.34378Z" fill="white"/>
<path d="M30.5637 11.8773C29.8075 11.8339 29.5935 11.2691 29.2725 10.8492C29.4223 10.661 29.5578 10.4872 29.7647 10.2338C30.0358 10.7985 30.2712 11.2909 30.5637 11.8773Z" fill="white"/>
<path d="M6.39209 10.1962C6.64178 9.84867 6.82726 9.50838 7.09122 9.26221C7.2339 9.13189 7.52639 9.16085 7.74754 9.11017C7.76895 9.14637 7.79035 9.18257 7.80462 9.21877C7.5692 9.54458 7.36944 9.89935 7.08408 10.1672C6.97708 10.2831 6.67745 10.1962 6.39209 10.1962Z" fill="white"/>
<path d="M7.42615 8.76949C7.6259 8.62468 7.82565 8.48712 8.0254 8.34232C8.05394 8.38576 8.08247 8.42196 8.11101 8.4654C7.91126 8.6102 7.71151 8.74777 7.50462 8.89257C7.48322 8.84913 7.45468 8.81293 7.42615 8.76949Z" fill="white"/>
<path d="M24.2072 2.31387C24.2374 1.83838 23.9278 1.70033 23.6183 1.56229C23.5353 1.52394 23.4447 1.49326 23.3616 1.47792C22.501 1.30153 21.6932 0.933409 20.7947 0.910401C20.5003 0.902732 20.1681 0.841378 19.8888 0.457916C20.3191 0.381224 20.674 0.312201 21.059 0.243178C21.0363 0.197162 21.0061 0.143478 20.9684 0.0667853C21.4742 -0.140284 21.9121 0.197162 22.3726 0.250847C22.8331 0.304532 23.2786 0.473255 23.7844 0.603632C23.4598 0.933408 23.807 0.910401 23.8448 1.13281C23.8976 0.964085 23.9127 0.895062 23.9354 0.833708C23.958 0.833708 23.9807 0.833708 24.0033 0.841378C24.0109 0.948747 24.0184 1.06379 24.026 1.24785C24.3582 1.26319 24.7281 1.27852 25.098 1.3092C25.2188 1.31687 25.3472 1.34755 25.4604 1.40123C26.9401 2.07612 28.4048 2.78169 29.6052 3.93208C30.1865 4.48426 30.8056 5.00577 31.3642 5.58863C32.5118 6.77736 33.5763 8.02745 34.1274 9.63032C34.218 9.8834 34.2482 10.1595 34.3161 10.4663C34.3916 10.543 34.5275 10.6657 34.7238 10.8497C34.5426 10.819 34.4294 10.8037 34.3237 10.7807C34.301 10.8037 34.2784 10.8267 34.2557 10.8421C34.369 10.9648 34.4747 11.0951 34.5804 11.2102C34.5351 11.3175 34.4143 11.4479 34.4445 11.54C34.4822 11.655 34.6257 11.747 34.7389 11.816C34.8899 11.9081 35.0786 11.9388 35.0107 12.2148C34.988 12.2992 35.1768 12.4142 35.2221 12.537C35.6373 13.81 35.9242 15.1138 35.9695 16.4559C36.0072 17.6753 36.0072 18.8947 35.9846 20.1065C35.9771 20.4746 35.8412 20.8351 35.7808 21.1955C35.743 21.4256 35.7355 21.6633 35.7128 21.8934C35.7053 21.9548 35.7355 22.0315 35.7053 22.0621C35.2976 22.4839 35.4259 23.0975 35.1768 23.5806C34.3841 25.1298 33.8481 26.8094 32.8666 28.2742C32.3608 29.0335 31.7568 29.693 31.0471 30.2529C30.8282 30.4293 30.647 30.667 30.4507 30.8741C30.3752 30.9508 30.3073 31.0275 30.2167 31.0812C29.6052 31.4723 29.1748 32.0475 28.6992 32.5843C28.3972 32.9218 27.9367 33.1288 27.5366 33.3819C27.1289 33.6427 26.7212 33.8651 26.2078 33.704C26.0568 33.658 25.8681 33.727 25.702 33.7424C25.702 33.7731 25.702 33.8114 25.702 33.8421C25.9058 33.8651 26.1097 33.8958 26.3211 33.9188C26.0493 34.0261 25.8303 34.2409 25.4831 34.1335C25.166 34.0338 24.8111 34.0798 24.4714 34.0875C24.411 34.0875 24.3053 34.2255 24.3053 34.2946C24.3129 34.4019 24.3808 34.5016 24.1996 34.4786C24.2147 34.5476 24.2072 34.6397 24.2449 34.678C24.3129 34.7471 24.411 34.7777 24.5847 34.8774C24.2978 35.0001 24.0939 35.1228 23.875 35.1842C23.2408 35.3606 22.6067 35.537 21.9649 35.6597C21.3006 35.7901 20.6287 35.9434 19.9643 35.9281C19.3754 35.9204 18.7941 35.9665 18.2052 35.9971C17.8504 36.0125 17.4956 35.9588 17.1407 35.8974C17.0199 35.8744 16.9142 35.7594 16.7557 35.652C16.4688 35.7977 16.2046 35.7594 15.8724 35.491C15.6535 35.3146 15.2156 35.4143 14.8683 35.3913C14.7701 35.3836 14.6569 35.4296 14.5739 35.3913C14.2417 35.2302 13.9699 35.3299 13.683 35.514C13.6 35.5677 13.4641 35.5907 13.3584 35.5753C13.23 35.5523 13.1092 35.4603 12.9809 35.4143C12.1731 35.0998 11.3728 34.7854 10.565 34.4863C10.3461 34.4019 10.0516 34.448 9.87798 34.3176C8.6021 33.3666 7.06952 32.7914 6.04277 31.503C5.68794 31.0582 5.35576 30.598 4.82728 30.3219C4.66119 30.2375 4.53285 30.0611 4.41205 29.9078C3.34 28.5887 2.3812 27.1929 1.74703 25.59C1.4979 24.9688 1.21856 24.3552 0.946772 23.7417C0.599489 22.9288 0.403199 22.0545 0.305054 21.0881C0.493794 21.2109 0.644787 21.3106 0.78823 21.4103C0.78823 21.4409 0.78068 21.4639 0.78068 21.4946C0.705184 21.4869 0.629688 21.4869 0.523993 21.4793C0.433397 21.648 0.456046 21.7937 0.697634 21.9241C0.878826 22.0161 1.21856 22.0545 0.99962 22.4226C1.21856 22.4763 1.42995 22.507 1.63379 22.576C1.70928 22.599 1.80743 22.7064 1.81498 22.783C1.88293 23.9104 2.502 24.8077 2.96252 25.7741C3.53629 26.9781 4.30636 28.0595 5.12927 29.1102C6.28436 30.5827 7.80184 31.5797 9.28911 32.6303C9.50805 32.7837 9.71189 32.9601 9.94593 33.0752C10.2026 33.1979 10.482 33.2669 10.8443 33.3896C10.8821 33.6427 11.2067 33.6734 11.4936 33.7807C12.0523 33.9801 12.6034 34.2179 13.1621 34.4173C13.5018 34.54 13.8566 34.6704 14.2115 34.7087C15.7289 34.8851 17.254 35.0538 18.779 35.1612C19.3754 35.1995 19.9794 35.0768 20.5758 34.9848C21.1345 34.9004 21.6932 34.7777 22.2443 34.632C22.8256 34.4786 23.3843 34.2562 23.9731 34.1105C24.7885 33.9111 25.5133 33.5353 26.2003 33.0675C26.6759 32.7454 27.1213 32.3696 27.6272 32.1012C29.5372 31.0965 30.7452 29.3786 32.0135 27.722C32.0361 27.6914 32.0588 27.6684 32.0663 27.6377C32.3381 26.9474 32.8213 26.4029 33.2441 25.8124C33.3649 25.6437 33.3498 25.3906 33.4328 25.1912C33.6367 24.662 33.8556 24.1405 34.067 23.619C34.3312 22.9824 34.5124 22.3229 34.5049 21.625C34.5049 21.533 34.5124 21.4333 34.5426 21.3489C34.9729 20.2369 35.1013 19.0328 35.0333 17.8901C34.9579 16.5863 34.9956 15.2365 34.5502 13.9711C34.5275 13.9097 34.5351 13.8331 34.52 13.7717C34.4218 13.3269 34.3539 12.8591 34.2029 12.4373C33.9764 11.8084 33.7197 11.1948 33.4177 10.6043C33.0025 9.77603 32.5646 8.96309 32.0965 8.16549C31.787 7.62865 31.4624 7.0918 31.0698 6.63165C30.5036 5.96442 29.8996 5.32788 29.2428 4.75269C28.7068 4.28486 28.0877 3.9014 27.4913 3.51027C26.9401 3.14982 26.3739 2.78169 25.7851 2.48259C25.3245 2.23718 24.8036 2.03778 24.2072 2.31387Z" fill="#BFBFBF"/>
<path d="M2.10226 11.9396C1.79257 11.909 1.57352 11.8936 1.36202 11.8706C1.35446 11.8936 1.35446 11.9243 1.34691 11.9473C1.52064 12.0393 1.68682 12.139 1.89832 12.2617C1.78501 12.2924 1.72459 12.3078 1.61128 12.3308C1.92098 12.4458 1.78501 12.5915 1.74725 12.7909C1.5433 13.7726 1.32425 14.7619 1.22605 15.7589C1.12031 16.8173 1.14297 17.891 1.12031 18.957C1.11275 19.3558 1.12031 19.7623 1.12031 20.2301C0.772843 20.1687 0.500917 20.1304 0.236544 20.0537C0.176116 20.0383 0.115687 19.8926 0.108134 19.8006C0.0552593 19.3558 -0.0127224 18.9033 0.00238464 18.4508C0.0325987 17.3771 -0.05049 16.2958 0.259204 15.2374C0.402721 14.7542 0.546238 14.2404 0.523577 13.7496C0.500917 13.2281 0.682201 12.8063 0.863485 12.3691C1.01456 12.0087 1.12031 11.5638 1.67171 11.6482C1.69437 11.6482 1.72459 11.6405 1.73214 11.6252C1.78501 11.4565 1.92098 11.3798 2.01917 11.5025C2.10982 11.6175 2.08716 11.8169 2.10226 11.9396Z" fill="#BFBFBF"/>
<path d="M13.9627 0.511541C14.0306 0.419549 14.091 0.342889 14.1665 0.243231C14.7026 0.496209 15.2008 0.388885 15.6538 0.0822449C15.752 0.220233 15.835 0.335223 15.9332 0.488543C15.9256 0.511541 15.8879 0.595867 15.8199 0.756853C15.5934 0.795183 15.2537 0.833513 14.9291 0.917839C14.0684 1.14015 13.1926 1.3318 12.3622 1.63844C11.3958 1.99108 10.4748 2.45871 9.52352 2.84201C9.19888 2.97233 8.84405 2.92633 8.47412 2.77301C9.07809 2.22106 9.68961 1.7611 10.4219 1.47746C11.1014 1.21681 11.7507 0.864177 12.4377 0.618865C12.9209 0.442547 13.4267 0.220233 13.9627 0.511541Z" fill="#BFBFBF"/>
<path d="M8.64682 3.19627C8.56377 3.1886 8.50338 3.1886 8.39013 3.18093C8.49583 3.33432 8.71477 3.41868 8.41278 3.61808C7.91451 3.94785 7.47663 4.36966 7.0161 4.76846C6.78206 4.97553 6.57067 5.19794 6.35928 5.42802C6.18564 5.61975 6.01955 5.7808 5.72511 5.77313C5.64207 5.77313 5.54392 5.91118 5.47598 6.00321C5.40803 6.08757 5.38538 6.21028 5.32498 6.30231C5.0381 6.70878 4.74366 7.10758 4.45677 7.50638C4.15479 7.93585 3.92075 7.98954 3.46777 7.74412C4.40393 6.00321 5.73266 4.62275 7.34073 3.51071C7.52193 3.388 7.69557 3.25762 7.87676 3.13492C8.25424 2.88183 8.25424 2.88183 8.64682 3.19627Z" fill="#BFBFBF"/>
<path d="M2.50164 8.71768C2.72825 8.94766 2.9473 9.17764 3.17391 9.41529C2.91709 9.91358 2.48654 9.73726 2.03333 9.74493C2.20706 9.37696 2.35813 9.05499 2.51675 8.72535C2.5092 8.72535 2.50164 8.71768 2.50164 8.71768Z" fill="#BFBFBF"/>
<path d="M2.50937 8.72591C2.69821 8.48826 2.86439 8.22762 3.08344 8.0283C3.27227 7.85198 3.35536 7.92098 3.42335 8.19695C3.45356 8.32728 3.58952 8.42693 3.74815 8.63392C3.27983 8.66458 2.88705 8.68758 2.49426 8.71058C2.50182 8.71824 2.50937 8.72591 2.50937 8.72591Z" fill="#BFBFBF"/>
<path d="M0.282171 20.291C0.455902 20.521 0.629632 20.7433 0.803363 20.9733C0.803363 20.9963 0.803363 21.0193 0.803363 21.0499C0.652293 20.9886 0.463455 20.9656 0.372813 20.8583C0.267064 20.7356 0.251956 20.5363 0.191528 20.3676C0.221742 20.337 0.251956 20.314 0.282171 20.291Z" fill="#BFBFBF"/>
<path d="M0.955322 21.64C1.06107 21.6323 1.17437 21.617 1.28012 21.6093C1.26502 21.6323 1.25746 21.6553 1.24236 21.686C1.32544 21.7627 1.40853 21.847 1.50673 21.9313C1.13661 22.2686 1.15171 21.732 0.955322 21.64Z" fill="#BFBFBF"/>
<path d="M23.5175 4.05655C23.5443 3.63389 23.2692 3.51118 22.994 3.38847C22.9202 3.35438 22.8397 3.32711 22.7659 3.31348C22.0008 3.15668 21.2828 2.82946 20.4842 2.80901C20.2225 2.80219 19.9272 2.74765 19.6789 2.40679C20.0614 2.33862 20.3768 2.27727 20.7191 2.21591C20.6989 2.17501 20.6721 2.12729 20.6385 2.05912C21.0882 1.87505 21.4774 2.17501 21.8867 2.22273C22.2961 2.27045 22.6921 2.42043 23.1417 2.53632C22.8531 2.82946 23.1618 2.80901 23.1954 3.00671C23.2423 2.85673 23.2558 2.79537 23.2759 2.74084C23.296 2.74084 23.3162 2.74084 23.3363 2.74765C23.343 2.84309 23.3497 2.94535 23.3564 3.10896C23.6517 3.1226 23.9805 3.13623 24.3094 3.1635C24.4167 3.17032 24.5308 3.19759 24.6315 3.24531C25.9468 3.84522 27.2487 4.4724 28.3158 5.49498C28.8325 5.98582 29.3828 6.44939 29.8794 6.96749C30.8994 8.02415 31.8457 9.13536 32.3356 10.5601C32.4161 10.7851 32.4429 11.0305 32.5033 11.3032C32.5705 11.3714 32.6913 11.4805 32.8657 11.6441C32.7047 11.6168 32.604 11.6032 32.5101 11.5827C32.4899 11.6032 32.4698 11.6236 32.4497 11.6373C32.5503 11.7463 32.6443 11.8622 32.7382 11.9645C32.698 12.0599 32.5906 12.1758 32.6174 12.2576C32.651 12.3599 32.7785 12.4417 32.8792 12.503C33.0134 12.5849 33.1811 12.6121 33.1207 12.8575C33.1006 12.9325 33.2684 13.0348 33.3087 13.1439C33.6777 14.2755 33.9328 15.4344 33.973 16.6274C34.0066 17.7114 34.0066 18.7953 33.9864 19.8724C33.9797 20.1996 33.8589 20.5201 33.8053 20.8405C33.7717 21.045 33.765 21.2563 33.7449 21.4608C33.7381 21.5154 33.765 21.5835 33.7381 21.6108C33.3758 21.9858 33.4898 22.5311 33.2684 22.9606C32.5637 24.3377 32.0873 25.8306 31.2149 27.1327C30.7652 27.8076 30.2284 28.3939 29.5975 28.8916C29.4029 29.0484 29.2419 29.2597 29.0674 29.4438C29.0003 29.5119 28.9399 29.5801 28.8593 29.6278C28.3158 29.9755 27.9332 30.4868 27.5105 30.964C27.242 31.2639 26.8327 31.448 26.477 31.673C26.1146 31.9048 25.7522 32.1025 25.2959 31.9593C25.1617 31.9184 24.9939 31.9797 24.8462 31.9934C24.8462 32.0206 24.8462 32.0547 24.8462 32.082C25.0274 32.1025 25.2086 32.1297 25.3965 32.1502C25.1549 32.2456 24.9603 32.4365 24.6516 32.3411C24.3698 32.2524 24.0544 32.2933 23.7524 32.3002C23.6987 32.3002 23.6047 32.4229 23.6047 32.4842C23.6114 32.5797 23.6718 32.6683 23.5108 32.6478C23.5242 32.7092 23.5175 32.791 23.551 32.8251C23.6114 32.8864 23.6987 32.9137 23.853 33.0023C23.598 33.1114 23.4168 33.2205 23.2222 33.275C22.6585 33.4318 22.0948 33.5886 21.5244 33.6977C20.9338 33.8136 20.3365 33.9499 19.746 33.9363C19.2225 33.9295 18.7058 33.9704 18.1823 33.9976C17.8669 34.0113 17.5515 33.9635 17.2361 33.909C17.1287 33.8886 17.0348 33.7863 16.8939 33.6909C16.6388 33.8204 16.404 33.7863 16.1087 33.5477C15.9141 33.3909 15.5248 33.4795 15.2161 33.4591C15.1289 33.4523 15.0282 33.4932 14.9544 33.4591C14.6591 33.3159 14.4176 33.4045 14.1625 33.5682C14.0887 33.6159 13.9679 33.6363 13.874 33.6227C13.7599 33.6022 13.6525 33.5204 13.5384 33.4795C12.8204 33.2 12.109 32.9205 11.3909 32.6546C11.1963 32.5797 10.9346 32.6206 10.7803 32.5047C9.64612 31.6593 8.28381 31.148 7.37114 30.0028C7.05572 29.6074 6.76045 29.1983 6.29069 28.9529C6.14305 28.8779 6.02896 28.7211 5.92159 28.5848C4.96864 27.4122 4.11636 26.1715 3.55265 24.7467C3.33119 24.1945 3.08289 23.6491 2.8413 23.1038C2.5326 22.3811 2.35812 21.604 2.27087 20.745C2.43865 20.8541 2.57286 20.9427 2.70037 21.0313C2.70037 21.0586 2.69366 21.0791 2.69366 21.1063C2.62655 21.0995 2.55944 21.0995 2.46549 21.0927C2.38496 21.2427 2.40509 21.3722 2.61984 21.4881C2.7809 21.5699 3.08289 21.604 2.88827 21.9312C3.08289 21.9789 3.27079 22.0062 3.45199 22.0676C3.5191 22.088 3.60634 22.1834 3.61305 22.2516C3.67345 23.2537 4.22374 24.0514 4.6331 24.9103C5.14313 25.9806 5.82764 26.9418 6.55912 27.8758C7.58588 29.1847 8.93477 30.0709 10.2568 31.0049C10.4514 31.1412 10.6326 31.298 10.8407 31.4003C11.0688 31.5094 11.3171 31.5707 11.6392 31.6798C11.6728 31.9048 11.9614 31.932 12.2164 32.0275C12.713 32.2047 13.2029 32.416 13.6995 32.5933C14.0015 32.7024 14.3169 32.8183 14.6323 32.8523C15.9812 33.0091 17.3368 33.1591 18.6924 33.2546C19.2225 33.2886 19.7594 33.1796 20.2896 33.0978C20.7862 33.0228 21.2828 32.9137 21.7727 32.7842C22.2894 32.6478 22.786 32.4501 23.3095 32.3206C24.0342 32.1434 24.6785 31.8093 25.2892 31.3935C25.7119 31.1071 26.1079 30.7731 26.5575 30.5345C28.2554 29.6415 29.3291 28.1144 30.4565 26.6419C30.4767 26.6146 30.4968 26.5942 30.5035 26.5669C30.7451 25.9534 31.1746 25.4693 31.5504 24.9444C31.6578 24.7944 31.6444 24.5695 31.7182 24.3922C31.8994 23.9218 32.094 23.4583 32.2819 22.9947C32.5168 22.4289 32.6778 21.8426 32.6711 21.2222C32.6711 21.1404 32.6778 21.0518 32.7047 20.9768C33.0872 19.9883 33.2013 18.918 33.1409 17.9023C33.0738 16.7433 33.1073 15.5435 32.7114 14.4187C32.6912 14.3641 32.698 14.296 32.6845 14.2414C32.5973 13.846 32.5369 13.4302 32.4027 13.0552C32.2014 12.4962 31.9732 11.9509 31.7048 11.4259C31.3357 10.6897 30.9464 9.96705 30.5303 9.25807C30.2552 8.78086 29.9666 8.30366 29.6177 7.89463C29.1144 7.30153 28.5775 6.73571 27.9936 6.22442C27.5172 5.80857 26.9669 5.46771 26.4367 5.12003C25.9468 4.79963 25.4435 4.4724 24.9201 4.20653C24.5107 3.98838 24.0477 3.81113 23.5175 4.05655Z" fill="#BFBFBF"/>
<path d="M3.86849 12.6129C3.5932 12.5857 3.39848 12.572 3.21048 12.5516C3.20377 12.572 3.20377 12.5993 3.19705 12.6197C3.35148 12.7015 3.4992 12.7902 3.6872 12.8992C3.58648 12.9265 3.53277 12.9402 3.43205 12.9606C3.70734 13.0629 3.58648 13.1924 3.55291 13.3696C3.37163 14.2422 3.17691 15.1216 3.08962 16.0079C2.99562 16.9487 3.01577 17.9031 2.99562 18.8506C2.98891 19.2051 2.99562 19.5665 2.99562 19.9823C2.68676 19.9278 2.44505 19.8937 2.21005 19.8255C2.15633 19.8119 2.10262 19.6823 2.0959 19.6005C2.0489 19.2051 1.98847 18.8029 2.0019 18.4007C2.02876 17.4463 1.9549 16.4851 2.23019 15.5443C2.35776 15.1148 2.48533 14.6581 2.46519 14.2218C2.44505 13.7582 2.60619 13.3833 2.76734 12.9947C2.90162 12.6743 2.99562 12.2789 3.48577 12.3539C3.50591 12.3539 3.53277 12.3471 3.53948 12.3334C3.58648 12.1834 3.70734 12.1153 3.79463 12.2243C3.8752 12.3266 3.85506 12.5039 3.86849 12.6129Z" fill="#BFBFBF"/>
<path d="M14.4113 2.45448C14.4717 2.37271 14.5254 2.30456 14.5925 2.21598C15.0689 2.44085 15.5119 2.34545 15.9145 2.07288C16.0017 2.19553 16.0756 2.29775 16.1628 2.43403C16.1561 2.45448 16.1225 2.52943 16.0621 2.67254C15.8608 2.70661 15.5588 2.74068 15.2703 2.81564C14.5052 3.01325 13.7268 3.18361 12.9886 3.45618C12.1296 3.76964 11.3109 4.18531 10.4653 4.52603C10.1767 4.64187 9.8613 4.60099 9.53247 4.4647C10.0693 3.97407 10.6129 3.56521 11.2639 3.31308C11.8679 3.08139 12.445 2.76794 13.0557 2.54988C13.4852 2.39315 13.9348 2.19553 14.4113 2.45448Z" fill="#BFBFBF"/>
<path d="M9.68593 4.8409C9.61211 4.83408 9.55843 4.83408 9.45776 4.82727C9.55172 4.96361 9.74633 5.0386 9.4779 5.21585C9.03498 5.50898 8.64575 5.88393 8.23638 6.23842C8.02835 6.42249 7.84044 6.62019 7.65254 6.8247C7.49819 6.99513 7.35055 7.13829 7.08883 7.13147C7.01501 7.13147 6.92776 7.25418 6.86737 7.33599C6.80697 7.41098 6.78684 7.52005 6.73315 7.60186C6.47814 7.96317 6.21641 8.31766 5.9614 8.67216C5.69296 9.05392 5.48493 9.10164 5.08228 8.88349C5.91442 7.33599 7.09554 6.1089 8.52495 5.12041C8.68601 5.01133 8.84036 4.89544 9.00142 4.78636C9.33697 4.5614 9.33697 4.5614 9.68593 4.8409Z" fill="#BFBFBF"/>
<path d="M4.22342 9.74893C4.42485 9.95336 4.61956 10.1578 4.82099 10.369C4.59271 10.812 4.20999 10.6552 3.80713 10.662C3.96156 10.335 4.09585 10.0488 4.23685 9.75575C4.23013 9.75575 4.22342 9.74893 4.22342 9.74893Z" fill="#BFBFBF"/>
<path d="M4.23023 9.7562C4.39808 9.54495 4.5458 9.31327 4.74051 9.1361C4.90837 8.97937 4.98223 9.0407 5.04266 9.28601C5.06952 9.40185 5.19037 9.49044 5.33138 9.67443C4.91509 9.70168 4.56594 9.72213 4.2168 9.74257C4.22351 9.74938 4.23023 9.7562 4.23023 9.7562Z" fill="#BFBFBF"/>
<path d="M2.25049 20.0364C2.40492 20.2409 2.55935 20.4385 2.71378 20.6429C2.71378 20.6634 2.71378 20.6838 2.71378 20.7111C2.5795 20.6565 2.41164 20.6361 2.33107 20.5407C2.23707 20.4317 2.22364 20.2545 2.16992 20.1046C2.19678 20.0773 2.22364 20.0569 2.25049 20.0364Z" fill="#BFBFBF"/>
<path d="M2.849 21.2356C2.943 21.2288 3.04371 21.2151 3.13772 21.2083C3.12429 21.2288 3.11757 21.2492 3.10414 21.2765C3.178 21.3446 3.25186 21.4196 3.33914 21.4945C3.01014 21.7943 3.02357 21.3173 2.849 21.2356Z" fill="#BFBFBF"/>
<circle cx="18" cy="18" r="15" fill="white"/>
<path d="M15.4241 15.0615L14.968 13.3333L7.80005 15.2836L8.11981 12.4291L14.2867 10.7512L14.0828 9.97856L17.0261 9.17772L17.23 9.95033L24.3979 8L24.0782 10.8545L17.9113 12.5324L18.3673 14.2606L26.6766 11.9998L26.3568 14.8543L7.81617 19.899L8.13594 17.0445L15.4241 15.0615ZM28.5243 23.0682L18.9736 25.6669L13.35 24.9307L13.342 27.1774L10.3186 28L10.3655 20.2077L13.3889 19.3851L13.3627 22.0508L17.7162 22.6095L16.5037 18.0146L19.2868 17.2573L19.6248 18.5382L27.1332 16.4953L26.8681 19.3131L20.3008 21.1L20.671 22.5029L28.8 20.2911L28.5243 23.0682Z" fill="#BFBFBF"/>
</g>
</g>
<defs>
<clipPath id="clip0_7260_42669">
<rect width="36" height="36" rx="18" fill="white"/>
</clipPath>
<clipPath id="clip1_7260_42669">
<rect width="36" height="36" fill="white"/>
</clipPath>
</defs>
</svg>
