<svg width="36" height="36" viewBox="0 0 36 36" fill="none" xmlns="http://www.w3.org/2000/svg">
<g clip-path="url(#clip0_7260_42666)">
<rect width="36" height="36" rx="18" fill="white"/>
<g opacity="0.4" clip-path="url(#clip1_7260_42666)">
<circle cx="18" cy="18" r="18" fill="#9FC2FF"/>
<path d="M23.1726 4.92805C23.1978 4.5318 22.9398 4.41676 22.6819 4.30172C22.6127 4.26976 22.5372 4.2442 22.468 4.23142C21.7507 4.08442 21.0776 3.77765 20.3289 3.75847C20.0835 3.75208 19.8067 3.70095 19.5739 3.3814C19.9325 3.31749 20.2282 3.25997 20.5491 3.20245C20.5302 3.1641 20.505 3.11936 20.4736 3.05545C20.8951 2.88289 21.26 3.1641 21.6438 3.20884C22.0276 3.25358 22.3988 3.39418 22.8203 3.50283C22.5497 3.77765 22.8392 3.75847 22.8706 3.94382C22.9147 3.80321 22.9272 3.74569 22.9461 3.69456C22.965 3.69456 22.9839 3.69456 23.0027 3.70095C23.009 3.79043 23.0153 3.8863 23.0216 4.03968C23.2984 4.05246 23.6067 4.06525 23.915 4.09081C24.0157 4.0972 24.1226 4.12277 24.217 4.1675C25.4501 4.72992 26.6706 5.3179 27.671 6.27657C28.1554 6.73673 28.6713 7.17133 29.1369 7.65705C30.0932 8.64767 30.9803 9.68942 31.4396 11.0252C31.515 11.2361 31.5402 11.4662 31.5968 11.7218C31.6598 11.7857 31.773 11.888 31.9366 12.0414C31.7856 12.0158 31.6912 12.003 31.6031 11.9838C31.5843 12.003 31.5654 12.0222 31.5465 12.035C31.6409 12.1372 31.729 12.2459 31.817 12.3417C31.7793 12.4312 31.6786 12.5399 31.7038 12.6166C31.7352 12.7124 31.8548 12.7891 31.9492 12.8466C32.075 12.9233 32.2323 12.9489 32.1756 13.179C32.1568 13.2493 32.3141 13.3451 32.3518 13.4474C32.6978 14.5083 32.9369 15.5948 32.9747 16.7133C33.0061 17.7294 33.0061 18.7456 32.9872 19.7554C32.981 20.0622 32.8677 20.3626 32.8174 20.663C32.7859 20.8547 32.7796 21.0528 32.7608 21.2445C32.7545 21.2957 32.7796 21.3596 32.7545 21.3852C32.4147 21.7367 32.5217 22.2479 32.3141 22.6506C31.6535 23.9416 31.2068 25.3412 30.3889 26.5619C29.9674 27.1947 29.464 27.7443 28.8726 28.2109C28.6902 28.3579 28.5392 28.556 28.3756 28.7285C28.3127 28.7924 28.2561 28.8564 28.1806 28.9011C27.671 29.227 27.3124 29.7064 26.916 30.1538C26.6643 30.435 26.2806 30.6075 25.9471 30.8184C25.6074 31.0357 25.2676 31.2211 24.8398 31.0869C24.714 31.0485 24.5567 31.106 24.4183 31.1188C24.4183 31.1444 24.4183 31.1763 24.4183 31.2019C24.5882 31.2211 24.758 31.2466 24.9342 31.2658C24.7077 31.3553 24.5253 31.5342 24.2359 31.4448C23.9716 31.3617 23.6759 31.4 23.3928 31.4064C23.3425 31.4064 23.2544 31.5215 23.2544 31.579C23.2607 31.6684 23.3173 31.7515 23.1663 31.7324C23.1789 31.7899 23.1726 31.8666 23.2041 31.8985C23.2607 31.956 23.3425 31.9816 23.4872 32.0647C23.2481 32.167 23.0782 32.2692 22.8958 32.3203C22.3673 32.4673 21.8388 32.6143 21.304 32.7166C20.7504 32.8252 20.1905 32.9531 19.6368 32.9403C19.1461 32.9339 18.6616 32.9722 18.1709 32.9978C17.8752 33.0106 17.5795 32.9658 17.2838 32.9147C17.1832 32.8955 17.0951 32.7997 16.963 32.7102C16.7239 32.8316 16.5037 32.7997 16.2269 32.576C16.0444 32.429 15.6795 32.5121 15.3901 32.4929C15.3083 32.4865 15.2139 32.5249 15.1447 32.4929C14.8679 32.3587 14.6414 32.4418 14.4023 32.5952C14.3331 32.6399 14.2199 32.6591 14.1318 32.6463C14.0248 32.6271 13.9242 32.5504 13.8172 32.5121C13.144 32.25 12.4772 31.988 11.804 31.7387C11.6215 31.6684 11.3762 31.7068 11.2315 31.5981C10.1682 30.8056 8.89104 30.3263 8.0354 29.2526C7.7397 28.8819 7.46288 28.4985 7.02248 28.2684C6.88407 28.1981 6.77711 28.0511 6.67645 27.9233C5.78306 26.824 4.98405 25.6608 4.45557 24.3251C4.24795 23.8074 4.01517 23.2961 3.78868 22.7848C3.49927 22.1073 3.33569 21.3788 3.25391 20.5735C3.41119 20.6757 3.53702 20.7588 3.65656 20.8419C3.65656 20.8675 3.65027 20.8866 3.65027 20.9122C3.58735 20.9058 3.52444 20.9058 3.43636 20.8994C3.36086 21.04 3.37974 21.1615 3.58106 21.2701C3.73206 21.3468 4.01517 21.3788 3.83272 21.6855C4.01517 21.7303 4.19133 21.7558 4.3612 21.8134C4.42411 21.8325 4.5059 21.922 4.51219 21.9859C4.56882 22.9254 5.08472 23.6732 5.46849 24.4784C5.94664 25.4819 6.58837 26.383 7.27414 27.2586C8.23673 28.4857 9.50131 29.3165 10.7407 30.1921C10.9232 30.3199 11.093 30.4669 11.2881 30.5628C11.502 30.665 11.7348 30.7226 12.0368 30.8248C12.0682 31.0357 12.3387 31.0613 12.5778 31.1508C13.0434 31.3169 13.5027 31.5151 13.9682 31.6812C14.2513 31.7835 14.547 31.8921 14.8427 31.9241C16.1073 32.0711 17.3782 32.2117 18.6491 32.3012C19.1461 32.3331 19.6494 32.2309 20.1464 32.1542C20.612 32.0839 21.0776 31.9816 21.5368 31.8602C22.0213 31.7324 22.4868 31.547 22.9776 31.4256C23.657 31.2594 24.261 30.9462 24.8335 30.5564C25.2299 30.288 25.6011 29.9748 26.0226 29.7511C27.6144 28.9139 28.621 27.4823 29.6779 26.1018C29.6968 26.0762 29.7157 26.0571 29.722 26.0315C29.9485 25.4563 30.3511 25.0025 30.7035 24.5104C30.8041 24.3698 30.7915 24.1589 30.8607 23.9927C31.0306 23.5517 31.2131 23.1171 31.3892 22.6825C31.6094 22.1521 31.7604 21.6024 31.7541 21.0209C31.7541 20.9442 31.7604 20.8611 31.7856 20.7908C32.1442 19.8641 32.2511 18.8607 32.1945 17.9084C32.1316 16.8219 32.1631 15.6971 31.7919 14.6425C31.773 14.5914 31.7793 14.5275 31.7667 14.4764C31.6849 14.1057 31.6283 13.7158 31.5025 13.3643C31.3137 12.8402 31.0998 12.329 30.8482 11.8368C30.5021 11.1466 30.1372 10.4691 29.7472 9.80446C29.4892 9.35708 29.2187 8.90971 28.8915 8.52624C28.4197 7.97021 27.9163 7.43975 27.369 6.96042C26.9223 6.57056 26.4064 6.25101 25.9094 5.92506C25.4501 5.62468 24.9782 5.3179 24.4875 5.06865C24.1037 4.86414 23.6696 4.69797 23.1726 4.92805Z" fill="white"/>
<path d="M11.2617 28.0004C11.6895 27.8598 11.9915 27.9237 12.325 28.1218C13.9482 29.0997 15.7223 29.5662 17.6035 29.6237C18.2138 29.6429 18.824 29.6557 19.428 29.6237C19.774 29.6046 20.1138 29.4767 20.4535 29.3937C20.8687 29.2978 21.284 29.2019 21.6992 29.1061C21.781 29.0869 21.8691 29.0613 21.9383 29.023C22.6996 28.6267 23.4608 28.2305 24.2284 27.8406C24.3479 27.7831 24.4926 27.7639 24.6247 27.7511C24.9456 27.7256 25.2098 27.5978 25.4426 27.3613C25.6439 27.1568 25.9208 27.0993 26.229 27.1568C25.7635 27.5211 25.3357 27.9429 24.8324 28.2433C23.5804 28.9846 22.2906 29.6749 20.8687 30.0008C19.6985 30.2692 18.5032 30.4354 17.2952 30.2756C16.6472 30.1926 16.0118 30.0136 15.3637 29.9753C14.5081 29.9241 13.8035 29.4704 13.0359 29.1891C12.5829 29.0294 12.1614 28.7673 11.7462 28.5117C11.57 28.3966 11.4442 28.1921 11.2617 28.0004Z" fill="white"/>
<path d="M26.3252 26.2106C26.8033 25.5779 27.2626 24.9771 27.7093 24.3636C27.9358 24.0504 28.1938 23.7436 28.3196 23.3857C28.4454 23.0214 28.6845 22.7275 28.7789 22.3568C28.804 22.2609 28.8355 22.1714 28.8732 22.0819C29.603 20.5353 29.5401 18.8417 29.6848 17.1928C29.7289 16.7198 29.5464 16.2277 29.4709 15.742C29.4143 15.3777 29.3703 15.0134 29.2948 14.6555C29.2444 14.4126 29.1815 14.1634 29.0746 13.9397C28.8292 13.4412 28.8858 13.5306 29.2381 13.0449C29.4143 13.3389 29.6093 13.5754 29.6471 13.9461C29.6911 14.3487 29.861 14.7386 29.9616 15.1412C30.0686 15.5566 30.2196 15.972 30.2448 16.3939C30.2888 17.1097 30.2573 17.8319 30.2573 18.5541C30.2573 18.8225 30.2322 19.0973 30.2573 19.3657C30.3203 20.1327 30.0623 20.8101 29.7352 21.4748C29.6471 21.6537 29.6156 21.8519 29.5464 22.0372C29.4332 22.344 29.3136 22.6508 29.1941 22.9511C28.7726 24.0696 28.1749 25.073 27.3633 25.9358C27.2249 26.0828 27.0739 26.217 26.9103 26.3384C26.5454 26.6132 26.5391 26.6069 26.3252 26.2106Z" fill="white"/>
<path d="M10.5646 26.9709C10.2249 27.1946 10.1053 27.2074 9.87256 26.9453C9.34408 26.3382 8.82189 25.7246 8.31858 25.0919C8.01659 24.7212 7.74606 24.3186 7.47553 23.9223C7.3497 23.7434 7.24274 23.5453 7.16095 23.3407C6.87155 22.6185 6.63876 21.8644 6.29274 21.1742C6.09141 20.7587 6.08512 20.3625 6.05995 19.9407C5.99075 18.7583 5.88379 17.576 5.78942 16.3872C5.78313 16.3233 5.78313 16.2402 5.81459 16.1891C6.12916 15.6458 6.19836 15.0259 6.28644 14.4251C6.38082 13.7796 6.67651 13.2364 7.02883 12.6612C7.21129 12.9488 7.38115 13.2108 7.56361 13.5048C7.04771 13.639 7.00367 14.0225 6.92188 14.374C6.73943 15.1282 6.56327 15.8759 6.39969 16.6365C6.35565 16.841 6.3179 17.0583 6.32419 17.2628C6.36194 19.4422 6.79605 21.5257 7.75235 23.4877C7.81526 23.6156 7.87818 23.7498 7.96626 23.8648C8.54507 24.5934 9.12388 25.322 9.70899 26.0442C9.72786 26.0634 9.76561 26.0825 9.76561 26.1081C9.79078 26.6066 10.3004 26.6641 10.5646 26.9709Z" fill="white"/>
<path d="M16.2832 5.87368C16.7362 5.82255 17.2018 5.76503 17.6673 5.70751C17.7302 5.70112 17.7994 5.68194 17.8624 5.66916C18.2084 5.58608 18.5481 5.46464 18.8941 5.43908C19.1961 5.41352 19.5107 5.48382 19.819 5.51577C19.819 5.54134 19.8253 5.5669 19.8253 5.59247C19.6177 5.61164 19.4163 5.6372 19.2087 5.65638C19.2087 5.66916 19.215 5.68194 19.215 5.69472C19.7309 5.69472 20.2468 5.65638 20.7564 5.70751C21.1402 5.74585 21.5366 5.86089 21.8889 6.02706C23.0213 6.5767 24.1475 7.13911 25.2485 7.74627C25.5882 7.93161 25.8462 8.27034 26.123 8.55794C26.3873 8.83276 26.6578 9.11397 26.8717 9.42074C27.1674 9.83616 27.5134 10.1877 27.9224 10.4881C27.9979 10.5456 28.0419 10.6542 28.1048 10.7373C28.0859 10.7629 28.0671 10.7948 28.0482 10.8204C27.9538 10.7693 27.8594 10.7181 27.7651 10.6606C27.7462 10.6542 27.7336 10.6223 27.721 10.6287C27.3058 10.7437 27.2051 10.3602 26.9849 10.1621C26.2551 9.51022 25.5316 8.85832 24.7892 8.21921C24.6319 8.085 24.418 8.02748 24.2419 7.91883C24.0468 7.79101 23.8518 7.6504 23.6756 7.50341C23.2604 7.15829 22.7445 7.05603 22.2664 6.85152C20.9515 6.30188 19.5548 6.12932 18.1518 6.02067C17.7051 5.98872 17.2458 6.10376 16.7928 6.13571C16.4468 6.16767 16.4468 6.16128 16.2832 5.87368Z" fill="white"/>
<path d="M4.7517 12.9496C4.49362 12.9241 4.31108 12.9113 4.13483 12.8921C4.12853 12.9113 4.12853 12.9369 4.12224 12.956C4.26701 13.0327 4.4055 13.1158 4.58175 13.2181C4.48733 13.2436 4.43697 13.2564 4.34255 13.2756C4.60063 13.3715 4.48733 13.4929 4.45585 13.6591C4.2859 14.4771 4.10335 15.3016 4.02152 16.1324C3.9334 17.0144 3.95228 17.9091 3.9334 18.7975C3.9271 19.1298 3.9334 19.4686 3.9334 19.8584C3.64384 19.8073 3.41723 19.7753 3.19692 19.7114C3.14656 19.6987 3.0962 19.5772 3.08991 19.5005C3.04585 19.1298 2.98919 18.7528 3.00178 18.3757C3.02696 17.4809 2.95772 16.5798 3.2158 15.6978C3.3354 15.2952 3.455 14.867 3.43612 14.4579C3.41723 14.0233 3.5683 13.6718 3.71938 13.3075C3.84527 13.0072 3.9334 12.6365 4.39291 12.7068C4.41179 12.7068 4.43697 12.7004 4.44327 12.6876C4.48733 12.547 4.60063 12.4831 4.68246 12.5853C4.758 12.6812 4.73911 12.8474 4.7517 12.9496Z" fill="white"/>
<path d="M14.6354 3.42611C14.692 3.34945 14.7424 3.28557 14.8053 3.20252C15.252 3.41333 15.6672 3.3239 16.0447 3.06836C16.1265 3.18335 16.1957 3.27918 16.2775 3.40695C16.2712 3.42611 16.2397 3.49638 16.1831 3.63054C15.9943 3.66248 15.7112 3.69442 15.4407 3.7647C14.7235 3.94996 13.9937 4.10967 13.3016 4.36521C12.4963 4.65908 11.7288 5.04877 10.936 5.36819C10.6655 5.47679 10.3698 5.43846 10.0615 5.31069C10.5648 4.85073 11.0744 4.46742 11.6847 4.23105C12.2509 4.01384 12.792 3.71998 13.3645 3.51555C13.7672 3.36861 14.1887 3.18335 14.6354 3.42611Z" fill="white"/>
<path d="M10.2056 5.6634C10.1364 5.65701 10.086 5.65701 9.99167 5.65062C10.0797 5.77844 10.2622 5.84874 10.0105 6.01491C9.59531 6.28973 9.2304 6.64124 8.84662 6.97357C8.65159 7.14613 8.47543 7.33148 8.29927 7.52321C8.15457 7.68299 8.01615 7.8172 7.77079 7.81081C7.70158 7.81081 7.61979 7.92585 7.56317 8.00254C7.50655 8.07285 7.48767 8.1751 7.43734 8.2518C7.19827 8.59052 6.9529 8.92286 6.71383 9.2552C6.46217 9.6131 6.26713 9.65784 5.88965 9.45332C6.66979 8.00254 7.77708 6.85214 9.11716 5.92543C9.26815 5.82318 9.41285 5.71453 9.56385 5.61227C9.87842 5.40136 9.87842 5.40136 10.2056 5.6634Z" fill="white"/>
<path d="M14.5588 5.95038C14.4833 6.16128 14.4393 6.32745 14.3701 6.48723C14.326 6.57032 14.2568 6.65979 14.175 6.70453C13.8353 6.86431 13.483 7.00491 13.137 7.1583C12.4575 7.45868 11.8346 7.84854 11.2369 8.30231C10.7525 8.6666 10.1863 8.97337 9.47534 9.03089C10.8469 7.3692 12.5959 6.50001 14.5588 5.95038Z" fill="white"/>
<path d="M29.0856 12.5976C28.4184 12.5593 28.2295 12.061 27.9463 11.6905C28.0785 11.5244 28.1981 11.3711 28.3806 11.1475C28.6198 11.6458 28.8275 12.0802 29.0856 12.5976Z" fill="white"/>
<path d="M7.75781 11.1143C7.97813 10.8077 8.14179 10.5074 8.37469 10.2902C8.50058 10.1752 8.75867 10.2008 8.9538 10.1561C8.97269 10.188 8.99157 10.22 9.00416 10.2519C8.79643 10.5394 8.62018 10.8524 8.3684 11.0888C8.27398 11.191 8.0096 11.1143 7.75781 11.1143Z" fill="white"/>
<path d="M5.08461 10.2646C5.27345 10.4563 5.45599 10.648 5.64483 10.846C5.43081 11.2612 5.07202 11.1143 4.69434 11.1207C4.83911 10.8141 4.96501 10.5457 5.0972 10.271C5.0909 10.271 5.08461 10.2646 5.08461 10.2646Z" fill="white"/>
<path d="M5.09071 10.2715C5.24808 10.0734 5.38656 9.85623 5.56911 9.69013C5.72648 9.5432 5.79572 9.60069 5.85237 9.83068C5.87755 9.93928 5.99085 10.0223 6.12304 10.1948C5.73277 10.2204 5.40545 10.2395 5.07812 10.2587C5.08442 10.2651 5.09071 10.2715 5.09071 10.2715Z" fill="white"/>
<path d="M3.23472 19.9092C3.37949 20.1008 3.52427 20.2861 3.66905 20.4777C3.66905 20.4969 3.66905 20.5161 3.66905 20.5416C3.54316 20.4905 3.38579 20.4714 3.31025 20.3819C3.22213 20.2797 3.20954 20.1136 3.15918 19.9731C3.18436 19.9475 3.20954 19.9283 3.23472 19.9092Z" fill="white"/>
<path d="M8.66992 9.85543C8.84617 9.72766 9.02242 9.60628 9.19868 9.47852C9.22385 9.51685 9.24903 9.54879 9.27421 9.58712C9.09796 9.71489 8.92171 9.83627 8.73916 9.96404C8.72028 9.9257 8.6951 9.89376 8.66992 9.85543Z" fill="white"/>
<path d="M3.7959 21.0334C3.88402 21.027 3.97844 21.0142 4.06657 21.0078C4.05398 21.027 4.04769 21.0461 4.0351 21.0717C4.10434 21.1356 4.17358 21.2059 4.25541 21.2761C3.94697 21.5572 3.95956 21.11 3.7959 21.0334Z" fill="white"/>
<circle cx="18" cy="18" r="12" fill="white"/>
<path d="M21.3062 9.75781L21.8388 11.05L24.9858 10.2068L24.7128 12.6652L22.5047 13.2569L22.7795 14.2827L25.6136 13.5233L25.3359 15.9643L23.3712 16.4908L23.6321 17.4644L26.4661 16.7051L26.1884 19.1461L24.2237 19.6725L24.4846 20.6462L27.5621 19.8216L27.2797 22.2452L20.2729 24.1227L20.3707 24.4878L17.8149 25.1727L15.5647 16.7749L14.3998 17.0871L14.9079 11.4722L17.3768 10.8107L17.2313 12.2846L19.3003 11.7302L18.7504 10.4426L21.3062 9.75781ZM14.2912 13.4824L14.1004 15.9001L13.2485 16.1284L13.6957 17.7975L15.191 17.3968L14.2128 19.7274L15.3076 23.8133C15.4816 24.4624 15.4177 24.9889 15.1159 25.3927C14.8257 25.7935 14.4198 26.0637 13.8982 26.2035L11.3772 26.879L11.5204 24.4926L12.268 24.2923C12.5409 24.2441 12.6369 24.0693 12.5561 23.7679L12.1788 22.3596L10.1967 22.8907L11.4706 19.7168L10.6926 16.8132L8.67578 17.3536L8.86652 14.9359L10.101 14.6051L9.64442 12.9012L12.2003 12.2164L12.6568 13.9203L14.2912 13.4824ZM17.9808 15.5685L20.2411 14.9628L19.9662 13.937L17.7059 14.5427L17.9808 15.5685ZM18.8334 18.7502L21.0936 18.1446L20.8327 17.171L18.5725 17.7766L18.8334 18.7502ZM19.6859 21.932L21.9462 21.3264L21.6853 20.3527L19.425 20.9583L19.6859 21.932Z" fill="#9FC2FF"/>
</g>
</g>
<defs>
<clipPath id="clip0_7260_42666">
<rect width="36" height="36" rx="18" fill="white"/>
</clipPath>
<clipPath id="clip1_7260_42666">
<rect width="36" height="36" fill="white"/>
</clipPath>
</defs>
</svg>
