<svg width="24" height="24" viewBox="0 0 24 24" fill="none" xmlns="http://www.w3.org/2000/svg">
<rect width="24" height="24" rx="12" fill="url(#paint0_linear_10612_828)"/>
<path d="M8.65237 3.72336C8.51321 3.3793 8.67877 2.98516 9.03171 2.8704C10.9575 2.24426 13.0383 2.2415 14.9745 2.8725C17.1243 3.57312 18.9579 5.01008 20.152 6.93016C21.3461 8.85024 21.8242 11.1302 21.5019 13.3682C21.2117 15.3839 20.289 17.249 18.8759 18.6993C18.6169 18.9652 18.1902 18.9394 17.9431 18.6624C17.6961 18.3855 17.7226 17.9624 17.9785 17.6937C19.157 16.4563 19.9265 14.8789 20.1716 13.1767C20.4488 11.252 20.0376 9.29121 19.0107 7.63994C17.9838 5.98868 16.4069 4.75288 14.5581 4.15035C12.9229 3.61747 11.1678 3.61016 9.5369 4.11996C9.18267 4.23069 8.79152 4.06742 8.65237 3.72336Z" fill="white"/>
<path d="M16.3213 19.8125C16.5009 20.1373 16.3841 20.5485 16.0476 20.705C14.3712 21.4845 12.5004 21.7654 10.6603 21.5061C8.82027 21.2468 7.09997 20.4599 5.7043 19.2475C5.42412 19.0041 5.4255 18.5766 5.68789 18.3141C5.95027 18.0516 6.3741 18.0539 6.65704 18.2941C7.84437 19.302 9.29664 19.9567 10.8479 20.1753C12.3991 20.3939 13.9757 20.166 15.3954 19.5255C15.7337 19.3728 16.1416 19.4878 16.3213 19.8125Z" fill="white"/>
<path d="M4.40247 16.6892C4.08664 16.8841 3.6703 16.787 3.49794 16.4584C2.57 14.6889 2.21469 12.6681 2.49135 10.6781C2.76802 8.68807 3.66108 6.84085 5.0365 5.39161C5.29198 5.12241 5.71901 5.1426 5.96969 5.41628C6.22036 5.68997 6.1994 6.1133 5.947 6.3854C4.80065 7.62118 4.05614 9.18299 3.82255 10.8632C3.58896 12.5433 3.87921 14.249 4.64499 15.7506C4.8136 16.0813 4.71829 16.4943 4.40247 16.6892Z" fill="white"/>
<path d="M9.99778 7.04958C9.86111 6.71166 10.0237 6.32311 10.3745 6.22436C11.5127 5.90402 12.7256 5.92588 13.8591 6.2953C15.2028 6.73318 16.3487 7.63129 17.0951 8.83134C17.8414 10.0314 18.1402 11.4564 17.9388 12.8551C17.7688 14.0352 17.2521 15.1327 16.4615 16.0119C16.2178 16.2829 15.7974 16.2569 15.5547 15.9849C15.3121 15.7129 15.3402 15.2983 15.5754 15.0198C16.1383 14.3534 16.5067 13.5391 16.6322 12.667C16.7893 11.576 16.5563 10.4645 15.9741 9.52844C15.392 8.5924 14.4982 7.89188 13.4501 7.55033C12.6124 7.27733 11.7192 7.24767 10.8725 7.45784C10.5187 7.54565 10.1344 7.38749 9.99778 7.04958Z" fill="white"/>
<path d="M14.5847 16.6728C14.7611 16.9918 14.6466 17.3971 14.3102 17.5374C13.32 17.9505 12.2331 18.0921 11.1628 17.9413C10.0925 17.7905 9.08697 17.354 8.24953 16.6834C7.96501 16.4555 7.96696 16.0344 8.22467 15.7766C8.48237 15.5188 8.8979 15.5231 9.18936 15.742C9.81879 16.2148 10.5604 16.5234 11.347 16.6342C12.1335 16.745 12.9315 16.6534 13.6671 16.373C14.0077 16.2432 14.4083 16.3538 14.5847 16.6728Z" fill="white"/>
<path d="M7.45584 14.8047C7.14565 14.9961 6.73533 14.9011 6.57909 14.5718C6.07945 13.5186 5.89533 12.3378 6.05716 11.1738C6.21898 10.0098 6.71821 8.924 7.48619 8.04707C7.72634 7.77286 8.14702 7.79335 8.39322 8.06214C8.63942 8.33094 8.61679 8.74589 8.38527 9.02743C7.83946 9.69115 7.48408 10.496 7.36458 11.3556C7.24509 12.2151 7.36743 13.0864 7.7115 13.8738C7.85744 14.2078 7.76602 14.6132 7.45584 14.8047Z" fill="white"/>
<path d="M14.3999 12C14.3999 13.3255 13.3253 14.4 11.9999 14.4C10.6744 14.4 9.59985 13.3255 9.59985 12C9.59985 10.6745 10.6744 9.59998 11.9999 9.59998C13.3253 9.59998 14.3999 10.6745 14.3999 12ZM10.7279 12C10.7279 12.7025 11.2973 13.272 11.9999 13.272C12.7024 13.272 13.2719 12.7025 13.2719 12C13.2719 11.2975 12.7024 10.728 11.9999 10.728C11.2973 10.728 10.7279 11.2975 10.7279 12Z" fill="white"/>
<defs>
<linearGradient id="paint0_linear_10612_828" x1="17.4" y1="-9" x2="28.9207" y2="-2.02171" gradientUnits="userSpaceOnUse">
<stop stop-color="#03D9F7"/>
<stop offset="1" stop-color="#4E8EFC"/>
</linearGradient>
</defs>
</svg>
