<svg width="40" height="40" viewBox="0 0 40 40" fill="none" xmlns="http://www.w3.org/2000/svg">
<g clip-path="url(#clip0_11551_72597)">
<rect width="40" height="40" rx="20" fill="white"/>
<g opacity="0.8" clip-path="url(#clip1_11551_72597)">
<path d="M26.8968 2.57094C26.9303 2.04261 26.5864 1.88923 26.2425 1.73585C26.1502 1.69324 26.0495 1.65915 25.9573 1.64211C25.001 1.44612 24.1034 1.03709 23.1052 1.01153C22.778 1.00301 22.409 0.934837 22.0986 0.508769C22.5767 0.423555 22.971 0.346863 23.3988 0.27017C23.3736 0.219042 23.3401 0.159392 23.2981 0.0741788C23.8602 -0.155898 24.3467 0.219042 24.8584 0.278692C25.3701 0.338341 25.865 0.525811 26.427 0.670675C26.0663 1.03709 26.4522 1.01153 26.4941 1.25865C26.5529 1.07118 26.5696 0.994487 26.5948 0.926316C26.62 0.926316 26.6451 0.926316 26.6703 0.934837C26.6787 1.05414 26.6871 1.18196 26.6955 1.38647C27.0646 1.40351 27.4756 1.42055 27.8866 1.45464C28.0208 1.46316 28.1634 1.49725 28.2893 1.5569C29.9334 2.30678 31.5608 3.09074 32.8945 4.36895C33.5405 4.98249 34.2283 5.56194 34.8491 6.20956C36.1241 7.53038 37.3069 8.91936 37.9192 10.7003C38.0199 10.9815 38.0535 11.2883 38.129 11.6292C38.2128 11.7144 38.3638 11.8507 38.5819 12.0552C38.3806 12.0211 38.2548 12.0041 38.1373 11.9785C38.1122 12.0041 38.087 12.0297 38.0618 12.0467C38.1877 12.183 38.3051 12.3279 38.4226 12.4557C38.3722 12.575 38.238 12.7199 38.2716 12.8221C38.3135 12.95 38.4729 13.0522 38.5987 13.1289C38.7665 13.2312 38.9762 13.2653 38.9007 13.572C38.8755 13.6658 39.0852 13.7936 39.1356 13.9299C39.5969 15.3445 39.9157 16.7931 39.966 18.2843C40.008 19.6392 40.008 20.9941 39.9828 22.3405C39.9744 22.7495 39.8234 23.15 39.7563 23.5505C39.7144 23.8062 39.706 24.0703 39.6808 24.326C39.6724 24.3942 39.706 24.4794 39.6724 24.5135C39.2195 24.9821 39.3621 25.6638 39.0852 26.2007C38.2045 27.922 37.6089 29.7882 36.5184 31.4158C35.9563 32.2594 35.2853 32.9922 34.4967 33.6143C34.2535 33.8103 34.0522 34.0744 33.8341 34.3045C33.7502 34.3897 33.6747 34.4749 33.574 34.5346C32.8945 34.9692 32.4164 35.6083 31.8879 36.2048C31.5524 36.5797 31.0407 36.8098 30.5961 37.091C30.1431 37.3807 29.6901 37.6278 29.1197 37.4489C28.952 37.3978 28.7423 37.4745 28.5577 37.4915C28.5577 37.5256 28.5577 37.5682 28.5577 37.6023C28.7842 37.6278 29.0107 37.6619 29.2456 37.6875C28.9436 37.8068 28.7003 38.0454 28.3144 37.9261C27.9621 37.8153 27.5679 37.8664 27.1904 37.875C27.1233 37.875 27.0058 38.0284 27.0058 38.105C27.0142 38.2243 27.0897 38.3351 26.8884 38.3096C26.9052 38.3862 26.8968 38.4885 26.9387 38.5311C27.0142 38.6078 27.1233 38.6419 27.3162 38.7527C26.9974 38.889 26.771 39.0254 26.5277 39.0935C25.8231 39.2895 25.1184 39.4855 24.4054 39.6218C23.6672 39.7667 22.9206 39.9371 22.1825 39.9201C21.5282 39.9116 20.8822 39.9627 20.2279 39.9968C19.8337 40.0138 19.4394 39.9542 19.0452 39.886C18.911 39.8604 18.7935 39.7326 18.6174 39.6133C18.2986 39.7752 18.005 39.7326 17.6359 39.4344C17.3926 39.2384 16.9061 39.3492 16.5202 39.3236C16.4112 39.3151 16.2854 39.3662 16.1931 39.3236C15.824 39.1447 15.522 39.2554 15.2032 39.4599C15.111 39.5196 14.96 39.5452 14.8425 39.5281C14.6999 39.5025 14.5657 39.4003 14.4231 39.3492C13.5256 38.9998 12.6364 38.6504 11.7388 38.3181C11.4955 38.2243 11.1684 38.2755 10.9755 38.1306C9.5578 37.074 7.85494 36.4349 6.71411 35.0033C6.31985 34.509 5.95076 33.9977 5.36356 33.691C5.17902 33.5972 5.03641 33.4012 4.9022 33.2308C3.71104 31.7651 2.6457 30.2143 1.94107 28.4333C1.66425 27.7431 1.35387 27.0613 1.05189 26.3796C0.666018 25.4764 0.447917 24.5049 0.338867 23.4312C0.548579 23.5676 0.716349 23.6784 0.87573 23.7891C0.87573 23.8232 0.867341 23.8488 0.867341 23.8829C0.783456 23.8744 0.699572 23.8744 0.582133 23.8658C0.481471 24.0533 0.506637 24.2152 0.775068 24.3601C0.976391 24.4623 1.35387 24.5049 1.11061 24.914C1.35387 24.9736 1.58875 25.0077 1.81524 25.0844C1.89912 25.11 2.00817 25.2293 2.01656 25.3145C2.09206 26.5671 2.77991 27.5641 3.29161 28.6378C3.92914 29.9757 4.78476 31.1772 5.6991 32.3446C6.98254 33.9807 8.66862 35.0885 10.3212 36.2559C10.5644 36.4263 10.7909 36.6223 11.051 36.7501C11.3362 36.8865 11.6465 36.9632 12.0492 37.0995C12.0911 37.3807 12.4518 37.4148 12.7706 37.5341C13.3913 37.7557 14.0037 38.0198 14.6244 38.2414C15.0019 38.3777 15.3962 38.5226 15.7904 38.5652C17.4765 38.7612 19.171 38.9487 20.8655 39.068C21.5282 39.1106 22.1992 38.9742 22.8619 38.872C23.4827 38.7782 24.1034 38.6419 24.7158 38.48C25.3617 38.3096 25.9824 38.0624 26.6367 37.9005C27.5427 37.679 28.348 37.2614 29.1113 36.7416C29.6398 36.3837 30.1347 35.9662 30.6968 35.6679C32.819 34.5516 34.1612 32.6428 35.5705 30.8022C35.5956 30.7681 35.6208 30.7426 35.6292 30.7085C35.9312 29.9416 36.468 29.3366 36.9378 28.6804C37.072 28.4929 37.0552 28.2117 37.1475 27.9902C37.374 27.4022 37.6173 26.8228 37.8521 26.2433C38.1457 25.536 38.3471 24.8032 38.3387 24.0277C38.3387 23.9255 38.3471 23.8147 38.3806 23.721C38.8588 22.4854 39.0014 21.1475 38.9259 19.8778C38.842 18.4292 38.8839 16.9294 38.389 15.5234C38.3638 15.4552 38.3722 15.37 38.3554 15.3019C38.2464 14.8076 38.1709 14.2878 38.0031 13.8191C37.7515 13.1204 37.4663 12.4387 37.1307 11.7825C36.6694 10.8622 36.1828 9.95897 35.6627 9.07274C35.3188 8.47625 34.9581 7.87975 34.5219 7.36847C33.8928 6.62711 33.2217 5.91984 32.4919 5.28073C31.8963 4.76093 31.2085 4.33486 30.5458 3.90027C29.9334 3.49977 29.3043 3.09074 28.65 2.75841C28.1383 2.48573 27.5595 2.26417 26.8968 2.57094Z" fill="#777777"/>
<path d="M2.33582 13.2663C1.99172 13.2322 1.74832 13.2151 1.51333 13.1896C1.50493 13.2151 1.50493 13.2492 1.49654 13.2748C1.68957 13.377 1.87422 13.4878 2.10921 13.6242C1.98332 13.6582 1.91618 13.6753 1.79029 13.7009C2.13439 13.8287 1.98332 13.9906 1.94136 14.2121C1.71475 15.3029 1.47136 16.4021 1.36226 17.5099C1.24476 18.6859 1.26993 19.8788 1.24476 21.0633C1.23636 21.5064 1.24476 21.9581 1.24476 22.4779C0.858688 22.4097 0.556547 22.3671 0.262799 22.2819C0.195657 22.2648 0.128514 22.1029 0.120122 22.0007C0.061372 21.5064 -0.0141631 21.0037 0.00262248 20.5009C0.0361937 19.3079 -0.0561271 18.1064 0.287978 16.9305C0.447441 16.3936 0.606904 15.8227 0.581725 15.2773C0.556547 14.6979 0.757974 14.2292 0.959401 13.7435C1.12726 13.343 1.24476 12.8487 1.85743 12.9425C1.88261 12.9425 1.91618 12.9339 1.92457 12.9169C1.98332 12.7294 2.13439 12.6442 2.2435 12.7805C2.34421 12.9084 2.31903 13.1299 2.33582 13.2663Z" fill="#777777"/>
<path d="M15.5139 0.568304C15.5894 0.466091 15.6566 0.380913 15.7404 0.270182C16.336 0.551269 16.8897 0.43202 17.393 0.0913086C17.502 0.244629 17.5943 0.372395 17.7033 0.542751C17.695 0.568304 17.653 0.662 17.5775 0.840873C17.3259 0.883462 16.9484 0.926051 16.5877 1.01975C15.6314 1.26676 14.6583 1.47971 13.7356 1.82042C12.6619 2.21224 11.6385 2.73182 10.5815 3.15771C10.2208 3.30251 9.82656 3.2514 9.41553 3.08105C10.0866 2.46777 10.7661 1.9567 11.5798 1.64154C12.3347 1.35194 13.0561 0.960122 13.8195 0.687553C14.3563 0.491644 14.9184 0.244629 15.5139 0.568304Z" fill="#777777"/>
<path d="M9.60752 3.55127C9.51525 3.54275 9.44814 3.54275 9.32232 3.53423C9.43975 3.70466 9.68302 3.79839 9.34748 4.01995C8.79384 4.38637 8.30731 4.85504 7.79561 5.29815C7.53557 5.52823 7.30069 5.77535 7.06581 6.03099C6.87288 6.24403 6.68833 6.42298 6.36118 6.41445C6.26891 6.41445 6.15986 6.56784 6.08436 6.67009C6.00887 6.76383 5.9837 6.90017 5.91659 7.00243C5.59783 7.45406 5.27068 7.89717 4.95192 8.34028C4.61638 8.81748 4.35634 8.87713 3.85303 8.60445C4.8932 6.6701 6.36957 5.13625 8.15632 3.90065C8.35764 3.76431 8.55058 3.61945 8.7519 3.4831C9.17132 3.2019 9.17132 3.2019 9.60752 3.55127Z" fill="#777777"/>
<path d="M2.77963 9.68628C3.03142 9.94181 3.27481 10.1973 3.52659 10.4614C3.24124 11.0151 2.76285 10.8191 2.25928 10.8277C2.45231 10.4188 2.62017 10.0611 2.79642 9.6948C2.78802 9.6948 2.77963 9.68628 2.77963 9.68628Z" fill="#777777"/>
<path d="M2.78803 9.69553C2.99785 9.43148 3.18249 9.14188 3.42588 8.92042C3.6357 8.72451 3.72802 8.80117 3.80355 9.10781C3.83713 9.25261 3.9882 9.36334 4.16444 9.59332C3.64409 9.62739 3.20767 9.65294 2.77124 9.6785C2.77963 9.68702 2.78803 9.69553 2.78803 9.69553Z" fill="#777777"/>
<path d="M0.313604 22.5454C0.506639 22.8009 0.699673 23.048 0.892707 23.3035C0.892707 23.329 0.892707 23.3546 0.892707 23.3887C0.724851 23.3205 0.515031 23.295 0.414318 23.1757C0.296819 23.0394 0.280033 22.818 0.212891 22.6306C0.246462 22.5965 0.280033 22.571 0.313604 22.5454Z" fill="#777777"/>
<path d="M1.06152 24.0443C1.17902 24.0358 1.30491 24.0188 1.42241 24.0103C1.40563 24.0358 1.39724 24.0614 1.38045 24.0954C1.47277 24.1806 1.56509 24.2743 1.6742 24.368C1.26295 24.7428 1.27974 24.1465 1.06152 24.0443Z" fill="#777777"/>
<path d="M26.1305 4.50726C26.1604 4.03763 25.8547 3.90129 25.5489 3.76495C25.4669 3.72707 25.3774 3.69677 25.2954 3.68162C24.4454 3.50741 23.6475 3.14382 22.7602 3.1211C22.4694 3.11353 22.1413 3.05293 21.8654 2.6742C22.2904 2.59845 22.6409 2.53028 23.0212 2.46211C22.9988 2.41666 22.969 2.36364 22.9317 2.28789C23.4313 2.08337 23.8638 2.41666 24.3186 2.46968C24.7735 2.5227 25.2134 2.68935 25.713 2.81811C25.3923 3.14382 25.7353 3.1211 25.7726 3.34076C25.8248 3.17412 25.8397 3.10595 25.8621 3.04535C25.8845 3.04535 25.9068 3.04535 25.9292 3.05293C25.9367 3.15897 25.9441 3.27259 25.9516 3.45438C26.2797 3.46953 26.645 3.48468 27.0104 3.51498C27.1297 3.52256 27.2565 3.55286 27.3683 3.60588C28.8298 4.27245 30.2764 4.96931 31.462 6.10551C32.0361 6.65089 32.6475 7.16596 33.1993 7.74164C34.3327 8.91571 35.3841 10.1504 35.9284 11.7335C36.0179 11.9834 36.0477 12.2561 36.1148 12.5591C36.1894 12.6349 36.3236 12.7561 36.5175 12.9378C36.3385 12.9075 36.2267 12.8924 36.1223 12.8697C36.0999 12.8924 36.0775 12.9151 36.0552 12.9303C36.167 13.0515 36.2714 13.1802 36.3758 13.2939C36.3311 13.3999 36.2118 13.5287 36.2416 13.6196C36.2789 13.7332 36.4205 13.8241 36.5324 13.8923C36.6815 13.9831 36.8679 14.0134 36.8008 14.2861C36.7785 14.3695 36.9649 14.4831 37.0096 14.6043C37.4197 15.8617 37.7031 17.1494 37.7478 18.4749C37.7851 19.6793 37.7851 20.8837 37.7627 22.0805C37.7553 22.444 37.621 22.8 37.5614 23.156C37.5241 23.3833 37.5167 23.6181 37.4943 23.8453C37.4868 23.9059 37.5167 23.9817 37.4868 24.012C37.0842 24.4286 37.2109 25.0346 36.9649 25.5118C36.1819 27.0418 35.6525 28.7007 34.6832 30.1475C34.1836 30.8973 33.5871 31.5488 32.8862 32.1017C32.6699 32.2759 32.491 32.5107 32.2971 32.7153C32.2225 32.791 32.1554 32.8668 32.0659 32.9198C31.462 33.3061 31.0369 33.8742 30.5672 34.4044C30.2689 34.7377 29.8141 34.9422 29.4189 35.1922C29.0162 35.4497 28.6136 35.6694 28.1065 35.5103C27.9574 35.4649 27.771 35.533 27.6069 35.5482C27.6069 35.5785 27.6069 35.6164 27.6069 35.6467C27.8083 35.6694 28.0096 35.6997 28.2184 35.7224C27.9499 35.8284 27.7337 36.0405 27.3907 35.9345C27.0775 35.836 26.7271 35.8815 26.3915 35.889C26.3319 35.889 26.2275 36.0254 26.2275 36.0936C26.2349 36.1996 26.302 36.2981 26.1231 36.2753C26.138 36.3435 26.1305 36.4344 26.1678 36.4723C26.2349 36.5405 26.3319 36.5708 26.5034 36.6692C26.22 36.7904 26.0187 36.9116 25.8025 36.9722C25.1761 37.1464 24.5498 37.3206 23.916 37.4418C23.2598 37.5706 22.5962 37.7221 21.94 37.707C21.3584 37.6994 20.7842 37.7448 20.2026 37.7751C19.8522 37.7903 19.5017 37.7373 19.1512 37.6767C19.0319 37.6539 18.9275 37.5403 18.771 37.4343C18.4876 37.5782 18.2266 37.5403 17.8985 37.2752C17.6823 37.101 17.2498 37.1995 16.9068 37.1767C16.8099 37.1692 16.698 37.2146 16.616 37.1767C16.2879 37.0177 16.0195 37.1161 15.7362 37.2979C15.6541 37.3509 15.5199 37.3737 15.4155 37.3585C15.2888 37.3358 15.1695 37.2449 15.0427 37.1995C14.2448 36.8889 13.4545 36.5783 12.6566 36.2829C12.4404 36.1996 12.1496 36.245 11.9781 36.1163C10.7179 35.177 9.20424 34.6089 8.19015 33.3364C7.83969 32.8971 7.51161 32.4426 6.98965 32.1699C6.82561 32.0866 6.69885 31.9123 6.57954 31.7609C5.52072 30.458 4.57374 29.0794 3.94739 27.4963C3.70132 26.8828 3.42543 26.2768 3.157 25.6708C2.814 24.8679 2.62013 24.0044 2.52319 23.05C2.70961 23.1712 2.85874 23.2697 3.00041 23.3681C3.00041 23.3984 2.99295 23.4212 2.99295 23.4515C2.91839 23.4439 2.84382 23.4439 2.73943 23.4363C2.64995 23.603 2.67232 23.7469 2.91093 23.8756C3.08989 23.9665 3.42543 24.0044 3.20919 24.368C3.42543 24.421 3.63422 24.4513 3.83554 24.5195C3.91011 24.5422 4.00704 24.6483 4.0145 24.724C4.08161 25.8375 4.69304 26.7237 5.14789 27.6781C5.71459 28.8673 6.47515 29.9354 7.28791 30.9731C8.42876 32.4274 9.92752 33.4121 11.3965 34.4499C11.6127 34.6013 11.814 34.7756 12.0452 34.8892C12.2987 35.0104 12.5746 35.0786 12.9325 35.1997C12.9698 35.4497 13.2904 35.48 13.5738 35.5861C14.1255 35.783 14.6699 36.0178 15.2217 36.2148C15.5572 36.3359 15.9077 36.4647 16.2581 36.5026C17.7569 36.6768 19.2631 36.8434 20.7693 36.9495C21.3584 36.9874 21.9549 36.8662 22.544 36.7753C23.0957 36.692 23.6475 36.5708 24.1918 36.4268C24.766 36.2753 25.3178 36.0557 25.8994 35.9118C26.7047 35.7148 27.4205 35.3437 28.0991 34.8816C28.5688 34.5635 29.0088 34.1923 29.5083 33.9272C31.3948 32.9349 32.5879 31.2382 33.8406 29.6021C33.863 29.5718 33.8853 29.5491 33.8928 29.5188C34.1612 28.837 34.6384 28.2992 35.056 27.716C35.1753 27.5493 35.1604 27.2994 35.2424 27.1024C35.4437 26.5798 35.66 26.0647 35.8688 25.5496C36.1297 24.9209 36.3087 24.2695 36.3012 23.5802C36.3012 23.4893 36.3087 23.3909 36.3385 23.3075C36.7635 22.2092 36.8903 21.02 36.8232 19.8914C36.7486 18.6037 36.7859 17.2705 36.346 16.0207C36.3236 15.9601 36.3311 15.8844 36.3162 15.8238C36.2192 15.3845 36.1521 14.9224 36.003 14.5058C35.7793 13.8847 35.5258 13.2787 35.2275 12.6955C34.8174 11.8774 34.3849 11.0745 33.9226 10.2867C33.6169 9.75649 33.2963 9.22627 32.9085 8.77179C32.3493 8.11279 31.7528 7.4841 31.104 6.916C30.5746 6.45395 29.9632 6.07521 29.3741 5.68891C28.8298 5.3329 28.2706 4.96931 27.689 4.6739C27.2341 4.43151 26.7196 4.23457 26.1305 4.50726Z" fill="#777777"/>
<path d="M4.29826 14.0144C3.99239 13.9841 3.77604 13.969 3.56715 13.9463C3.55969 13.969 3.55969 13.9993 3.55223 14.022C3.72381 14.1129 3.88794 14.2114 4.09683 14.3326C3.98493 14.3629 3.92524 14.378 3.81334 14.4007C4.11921 14.5144 3.98493 14.6583 3.94763 14.8552C3.7462 15.8248 3.52985 16.8019 3.43286 17.7866C3.32842 18.8319 3.3508 19.8924 3.32842 20.9452C3.32096 21.3391 3.32842 21.7406 3.32842 22.2026C2.98524 22.142 2.71667 22.1042 2.45555 22.0284C2.39587 22.0133 2.33619 21.8693 2.32873 21.7785C2.2765 21.3391 2.20936 20.8922 2.22428 20.4453C2.25412 19.3849 2.17206 18.3168 2.47793 17.2715C2.61968 16.7943 2.76143 16.2868 2.73905 15.8021C2.71667 15.287 2.89571 14.8704 3.07476 14.4386C3.22397 14.0826 3.32842 13.6433 3.87302 13.7266C3.8954 13.7266 3.92524 13.719 3.9327 13.7039C3.98493 13.5372 4.11921 13.4615 4.2162 13.5827C4.30572 13.6963 4.28334 13.8932 4.29826 14.0144Z" fill="#777777"/>
<path d="M16.0124 2.72722C16.0796 2.63637 16.1392 2.56065 16.2138 2.46222C16.7432 2.71208 17.2353 2.60608 17.6827 2.30322C17.7796 2.43951 17.8617 2.55308 17.9586 2.70451C17.9511 2.72722 17.9139 2.81051 17.8467 2.96951C17.6231 3.00737 17.2875 3.04523 16.9669 3.12851C16.1168 3.34808 15.2519 3.53737 14.4317 3.84023C13.4772 4.18852 12.5675 4.65037 11.628 5.02895C11.3074 5.15766 10.9569 5.11223 10.5916 4.9608C11.1881 4.41566 11.7921 3.96137 12.5153 3.68123C13.1864 3.4238 13.8277 3.07551 14.5062 2.83322C14.9834 2.65908 15.483 2.43951 16.0124 2.72722Z" fill="#777777"/>
<path d="M10.7621 5.37881C10.6801 5.37123 10.6205 5.37123 10.5086 5.36366C10.613 5.51515 10.8293 5.59847 10.531 5.79541C10.0389 6.12112 9.60639 6.53773 9.15154 6.93161C8.92039 7.13612 8.7116 7.35579 8.50282 7.58303C8.33132 7.77239 8.16728 7.93146 7.87647 7.92389C7.79445 7.92389 7.69752 8.06023 7.63041 8.15113C7.5633 8.23445 7.54093 8.35564 7.48128 8.44654C7.19793 8.848 6.90713 9.24188 6.62378 9.63576C6.32552 10.0599 6.09436 10.113 5.64697 9.87057C6.57158 8.15113 7.88393 6.78769 9.47217 5.68937C9.65113 5.56817 9.82263 5.4394 10.0016 5.31821C10.3744 5.06825 10.3744 5.06825 10.7621 5.37881Z" fill="#777777"/>
<path d="M4.69252 10.832C4.91633 11.0592 5.13268 11.2863 5.3565 11.521C5.10284 12.0132 4.6776 11.839 4.22998 11.8466C4.40157 11.4832 4.55078 11.1652 4.70744 10.8396C4.69998 10.8396 4.69252 10.832 4.69252 10.832Z" fill="#777777"/>
<path d="M4.70022 10.8401C4.88673 10.6054 5.05086 10.348 5.26721 10.1511C5.45372 9.97699 5.53578 10.0451 5.60293 10.3177C5.63277 10.4464 5.76706 10.5448 5.92372 10.7493C5.46118 10.7796 5.07324 10.8023 4.6853 10.825C4.69276 10.8326 4.70022 10.8401 4.70022 10.8401Z" fill="#777777"/>
<path d="M2.50041 22.2627C2.672 22.4898 2.84359 22.7094 3.01518 22.9366C3.01518 22.9593 3.01518 22.982 3.01518 23.0123C2.86597 22.9517 2.67946 22.929 2.58994 22.823C2.48549 22.7018 2.47057 22.505 2.41089 22.3384C2.44073 22.3081 2.47057 22.2854 2.50041 22.2627Z" fill="#777777"/>
<path d="M3.16553 23.595C3.26997 23.5874 3.38188 23.5723 3.48632 23.5647C3.4714 23.5874 3.46394 23.6101 3.44902 23.6404C3.53109 23.7161 3.61315 23.7994 3.71013 23.8827C3.34458 24.2158 3.3595 23.6858 3.16553 23.595Z" fill="#777777"/>
<path d="M11.5703 32.5107C12.1055 32.3348 12.4833 32.4148 12.9005 32.6627C14.9311 33.886 17.1507 34.4696 19.504 34.5416C20.2675 34.5656 21.031 34.5816 21.7866 34.5416C22.2195 34.5176 22.6445 34.3577 23.0695 34.2538C23.589 34.1338 24.1085 34.0139 24.6279 33.894C24.7302 33.87 24.8404 33.838 24.927 33.79C25.8794 33.2943 26.8317 32.7986 27.792 32.3109C27.9415 32.2389 28.1225 32.2149 28.2878 32.1989C28.6892 32.1669 29.0198 32.007 29.311 31.7112C29.5629 31.4553 29.9092 31.3834 30.2949 31.4553C29.7124 31.9111 29.1772 32.4388 28.5476 32.8146C26.9813 33.742 25.3678 34.6056 23.589 35.0133C22.125 35.3491 20.6296 35.557 19.1184 35.3571C18.3077 35.2532 17.5127 35.0293 16.7021 34.9813C15.6316 34.9174 14.7501 34.3497 13.7899 33.9979C13.2232 33.798 12.6958 33.4702 12.1764 33.1504C11.956 33.0065 11.7986 32.7506 11.5703 32.5107Z" fill="white"/>
<path d="M30.4153 30.2717C31.0135 29.4801 31.588 28.7285 32.1469 27.961C32.4302 27.5692 32.7529 27.1854 32.9103 26.7377C33.0677 26.2819 33.3668 25.9141 33.4849 25.4504C33.5164 25.3305 33.5557 25.2185 33.6029 25.1066C34.516 23.1717 34.4372 21.0529 34.6183 18.9901C34.6734 18.3984 34.4451 17.7828 34.3507 17.1751C34.2798 16.7194 34.2247 16.2636 34.1303 15.8159C34.0673 15.5121 33.9886 15.2002 33.8548 14.9204C33.5478 14.2967 33.6187 14.4087 34.0595 13.801C34.2798 14.1688 34.5238 14.4646 34.5711 14.9284C34.6261 15.4321 34.8387 15.9198 34.9646 16.4235C35.0984 16.9432 35.2873 17.4629 35.3188 17.9906C35.3739 18.8861 35.3345 19.7896 35.3345 20.6931C35.3345 21.0289 35.303 21.3727 35.3345 21.7085C35.4132 22.668 35.0905 23.5155 34.6812 24.347C34.5711 24.5709 34.5317 24.8188 34.4451 25.0506C34.3034 25.4344 34.1539 25.8182 34.0044 26.194C33.477 27.5932 32.7293 28.8485 31.714 29.9279C31.5408 30.1118 31.3519 30.2797 31.1473 30.4316C30.6908 30.7754 30.6829 30.7674 30.4153 30.2717Z" fill="white"/>
<path d="M10.6982 31.2229C10.2732 31.5027 10.1237 31.5187 9.83246 31.1909C9.17131 30.4313 8.51804 29.6638 7.88838 28.8722C7.51058 28.4085 7.17214 27.9048 6.83369 27.409C6.67628 27.1852 6.54248 26.9373 6.44016 26.6815C6.0781 25.778 5.78688 24.8345 5.35399 23.971C5.10212 23.4513 5.09425 22.9556 5.06277 22.4279C4.97619 20.9487 4.84239 19.4696 4.72433 17.9824C4.71646 17.9024 4.71646 17.7985 4.75581 17.7345C5.14935 17.0549 5.23593 16.2794 5.34612 15.5278C5.46418 14.7203 5.83411 14.0406 6.27487 13.321C6.50312 13.6808 6.71563 14.0087 6.94389 14.3764C6.29848 14.5444 6.24339 15.0241 6.14107 15.4638C5.91281 16.4073 5.69243 17.3428 5.48779 18.2942C5.4327 18.5501 5.38547 18.8219 5.39334 19.0778C5.44057 21.8042 5.98365 24.4108 7.18001 26.8654C7.25872 27.0253 7.33742 27.1932 7.44761 27.3371C8.17173 28.2486 8.89584 29.1601 9.62782 30.0635C9.65143 30.0875 9.69866 30.1115 9.69866 30.1435C9.73014 30.7671 10.3677 30.8391 10.6982 31.2229Z" fill="white"/>
<path d="M17.8523 4.82961C18.419 4.76564 19.0014 4.69368 19.5839 4.62173C19.6626 4.61373 19.7492 4.58974 19.8279 4.57375C20.2608 4.46981 20.6858 4.3179 21.1187 4.28592C21.4965 4.25393 21.89 4.34188 22.2757 4.38186C22.2757 4.41384 22.2835 4.44583 22.2835 4.47781C22.0238 4.50179 21.7719 4.53378 21.5122 4.55776C21.5122 4.57375 21.5201 4.58974 21.5201 4.60573C22.1655 4.60573 22.8109 4.55776 23.4484 4.62173C23.9285 4.6697 24.4244 4.81362 24.8652 5.0215C26.2819 5.70911 27.6908 6.41271 29.0681 7.17228C29.4932 7.40415 29.8159 7.8279 30.1622 8.1877C30.4928 8.53151 30.8312 8.88331 31.0988 9.26709C31.4687 9.78679 31.9016 10.2265 32.4132 10.6023C32.5077 10.6743 32.5628 10.8102 32.6415 10.9142C32.6179 10.9461 32.5942 10.9861 32.5706 11.0181C32.4526 10.9541 32.3345 10.8902 32.2164 10.8182C32.1928 10.8102 32.1771 10.7702 32.1614 10.7782C31.6419 10.9221 31.5159 10.4424 31.2405 10.1946C30.3275 9.37902 29.4223 8.56349 28.4936 7.76394C28.2968 7.59604 28.0292 7.52408 27.8088 7.38815C27.5648 7.22825 27.3208 7.05235 27.1004 6.86845C26.581 6.4367 25.9356 6.30877 25.3374 6.05291C23.6924 5.3653 21.9451 5.14943 20.1899 5.0135C19.6311 4.97353 19.0565 5.11744 18.4898 5.15742C18.0569 5.1974 18.0569 5.1894 17.8523 4.82961Z" fill="white"/>
<path d="M15.695 4.92578C15.6006 5.18963 15.5455 5.39751 15.4589 5.5974C15.4038 5.70134 15.3172 5.81328 15.2149 5.86925C14.7899 6.06913 14.3491 6.24503 13.9162 6.43692C13.0662 6.81271 12.287 7.30043 11.5393 7.86811C10.9332 8.32385 10.2248 8.70763 9.33545 8.77959C11.0513 6.70077 13.2394 5.61339 15.695 4.92578Z" fill="white"/>
<path d="M33.8685 13.2415C33.0337 13.1935 32.7975 12.5701 32.4431 12.1066C32.6085 11.8988 32.7581 11.707 32.9865 11.4272C33.2857 12.0506 33.5456 12.5941 33.8685 13.2415Z" fill="white"/>
<path d="M7.18677 11.3858C7.46239 11.0022 7.66713 10.6266 7.9585 10.3548C8.116 10.211 8.43887 10.243 8.68298 10.187C8.70661 10.227 8.73023 10.2669 8.74598 10.3069C8.48611 10.6665 8.26562 11.0581 7.95063 11.3539C7.8325 11.4817 7.50176 11.3858 7.18677 11.3858Z" fill="white"/>
<path d="M8.32788 9.81089C8.54838 9.65105 8.76887 9.4992 8.98937 9.33936C9.02087 9.38731 9.05236 9.42727 9.08386 9.47522C8.86337 9.63506 8.64287 9.78691 8.4145 9.94675C8.39088 9.8988 8.35938 9.85884 8.32788 9.81089Z" fill="white"/>
<g opacity="0.5">
<path d="M26.4711 3.64666C26.5026 3.15094 26.1799 3.00702 25.8572 2.86311C25.7706 2.82313 25.6762 2.79115 25.5896 2.77516C24.6923 2.59126 23.8501 2.20748 22.9135 2.18349C22.6066 2.1755 22.2602 2.11153 21.969 1.71176C22.4177 1.6318 22.7876 1.55985 23.189 1.48789C23.1654 1.43991 23.1339 1.38395 23.0945 1.30399C23.6219 1.08811 24.0784 1.43991 24.5585 1.49588C25.0386 1.55185 25.503 1.72775 26.0303 1.86367C25.6919 2.20748 26.054 2.18349 26.0933 2.41536C26.1484 2.23946 26.1641 2.1675 26.1878 2.10354C26.2114 2.10354 26.235 2.10354 26.2586 2.11153C26.2665 2.22347 26.2743 2.3434 26.2822 2.53529C26.6285 2.55128 27.0142 2.56727 27.3999 2.59926C27.5258 2.60725 27.6596 2.63923 27.7777 2.6952C29.3203 3.3988 30.8473 4.13438 32.0987 5.3337C32.7048 5.90938 33.3502 6.45307 33.9326 7.06072C35.129 8.30002 36.2387 9.60328 36.8133 11.2743C36.9077 11.5382 36.9392 11.826 37.0101 12.1458C37.0888 12.2258 37.2304 12.3537 37.4351 12.5456C37.2462 12.5136 37.1281 12.4976 37.0179 12.4736C36.9943 12.4976 36.9707 12.5216 36.9471 12.5376C37.0652 12.6655 37.1754 12.8015 37.2855 12.9214C37.2383 13.0333 37.1124 13.1693 37.1439 13.2652C37.1832 13.3851 37.3328 13.4811 37.4508 13.553C37.6082 13.649 37.805 13.681 37.7342 13.9688C37.7106 14.0568 37.9073 14.1767 37.9546 14.3046C38.3875 15.6319 38.6865 16.9911 38.7338 18.3903C38.7731 19.6616 38.7731 20.9328 38.7495 22.1961C38.7416 22.5799 38.6 22.9557 38.537 23.3315C38.4976 23.5713 38.4898 23.8192 38.4662 24.0591C38.4583 24.123 38.4898 24.203 38.4583 24.235C38.0333 24.6747 38.1671 25.3144 37.9073 25.8181C37.0809 27.4332 36.5221 29.1842 35.4989 30.7113C34.9715 31.5028 34.3419 32.1905 33.602 32.7741C33.3738 32.958 33.1849 33.2059 32.9802 33.4218C32.9015 33.5017 32.8307 33.5817 32.7362 33.6376C32.0987 34.0454 31.6501 34.6451 31.1542 35.2047C30.8394 35.5565 30.3593 35.7724 29.9421 36.0363C29.5171 36.3081 29.0921 36.54 28.5569 36.3721C28.3994 36.3241 28.2027 36.3961 28.0295 36.4121C28.0295 36.444 28.0295 36.484 28.0295 36.516C28.242 36.54 28.4545 36.572 28.6749 36.596C28.3916 36.7079 28.1633 36.9318 27.8013 36.8198C27.4707 36.7159 27.1008 36.7639 26.7466 36.7719C26.6836 36.7719 26.5734 36.9158 26.5734 36.9877C26.5813 37.0997 26.6521 37.2036 26.4632 37.1796C26.479 37.2516 26.4711 37.3475 26.5105 37.3875C26.5813 37.4595 26.6836 37.4914 26.8646 37.5954C26.5656 37.7233 26.353 37.8512 26.1248 37.9152C25.4636 38.0991 24.8025 38.283 24.1335 38.4109C23.4409 38.5468 22.7404 38.7068 22.0477 38.6908C21.4338 38.6828 20.8278 38.7307 20.2138 38.7627C19.8439 38.7787 19.474 38.7227 19.1041 38.6588C18.9781 38.6348 18.8679 38.5149 18.7027 38.4029C18.4036 38.5548 18.1281 38.5149 17.7818 38.235C17.5535 38.0511 17.097 38.1551 16.735 38.1311C16.6326 38.1231 16.5146 38.1711 16.428 38.1311C16.0817 37.9632 15.7983 38.0671 15.4993 38.259C15.4127 38.315 15.271 38.339 15.1608 38.323C15.027 38.299 14.9011 38.203 14.7673 38.1551C13.9251 37.8273 13.0908 37.4994 12.2486 37.1876C12.0204 37.0997 11.7134 37.1476 11.5324 37.0117C10.2022 36.0203 8.60446 35.4206 7.53403 34.0774C7.16411 33.6137 6.81779 33.1339 6.26684 32.8461C6.09368 32.7581 5.95988 32.5742 5.83395 32.4143C4.7163 31.0391 3.71671 29.5839 3.05556 27.9129C2.79583 27.2653 2.50461 26.6256 2.22126 25.986C1.85921 25.1385 1.65457 24.227 1.55225 23.2195C1.74902 23.3475 1.90643 23.4514 2.05598 23.5554C2.05598 23.5873 2.0481 23.6113 2.0481 23.6433C1.9694 23.6353 1.89069 23.6353 1.7805 23.6273C1.68605 23.8032 1.70966 23.9551 1.96153 24.0911C2.15042 24.187 2.50461 24.227 2.27636 24.6108C2.50461 24.6667 2.72499 24.6987 2.9375 24.7707C3.01621 24.7947 3.11853 24.9066 3.1264 24.9865C3.19724 26.1619 3.84264 27.0973 4.32276 28.1048C4.92094 29.3601 5.72375 30.4874 6.58167 31.5828C7.7859 33.1179 9.36792 34.1573 10.9185 35.2527C11.1467 35.4126 11.3592 35.5965 11.6032 35.7165C11.8708 35.8444 12.162 35.9163 12.5398 36.0443C12.5792 36.3081 12.9176 36.3401 13.2167 36.452C13.7992 36.6599 14.3737 36.9078 14.9562 37.1157C15.3104 37.2436 15.6803 37.3795 16.0502 37.4195C17.6322 37.6034 19.2221 37.7793 20.812 37.8912C21.4338 37.9312 22.0635 37.8033 22.6853 37.7073C23.2677 37.6194 23.8501 37.4914 24.4247 37.3395C25.0308 37.1796 25.6132 36.9478 26.2271 36.7958C27.0772 36.588 27.8327 36.1962 28.549 35.7085C29.0448 35.3727 29.5092 34.9809 30.0366 34.701C32.0279 33.6536 33.2872 31.8626 34.6095 30.1356C34.6331 30.1036 34.6567 30.0797 34.6646 30.0477C34.9479 29.3281 35.4517 28.7604 35.8924 28.1448C36.0183 27.9689 36.0026 27.705 36.0892 27.4971C36.3017 26.9454 36.5299 26.4017 36.7503 25.858C37.0258 25.1944 37.2147 24.5068 37.2068 23.7792C37.2068 23.6833 37.2147 23.5793 37.2462 23.4914C37.6948 22.3321 37.8286 21.0768 37.7578 19.8854C37.6791 18.5262 37.7184 17.119 37.2541 15.7998C37.2304 15.7358 37.2383 15.6558 37.2226 15.5919C37.1203 15.1281 37.0494 14.6404 36.892 14.2007C36.6559 13.545 36.3883 12.9054 36.0734 12.2898C35.6406 11.4262 35.184 10.5787 34.6961 9.7472C34.3734 9.18751 34.0349 8.62783 33.6256 8.14811C33.0353 7.4525 32.4057 6.78888 31.7209 6.18922C31.1621 5.70149 30.5167 5.30172 29.8949 4.89395C29.3203 4.51817 28.73 4.13438 28.1161 3.82256C27.636 3.56671 27.0929 3.35882 26.4711 3.64666Z" fill="white"/>
<path d="M3.42605 13.6819C3.10318 13.6499 2.87481 13.6339 2.65432 13.6099C2.64644 13.6339 2.64644 13.6659 2.63857 13.6899C2.81969 13.7858 2.99294 13.8897 3.21343 14.0177C3.09531 14.0497 3.03231 14.0656 2.91419 14.0896C3.23706 14.2096 3.09531 14.3615 3.05594 14.5694C2.84331 15.5928 2.61494 16.6242 2.51257 17.6636C2.40232 18.767 2.42595 19.8863 2.40232 20.9977C2.39445 21.4135 2.40232 21.8372 2.40232 22.325C2.04008 22.261 1.75659 22.221 1.48097 22.1411C1.41797 22.1251 1.35497 21.9732 1.3471 21.8772C1.29197 21.4135 1.2211 20.9417 1.23685 20.47C1.26835 19.3506 1.18173 18.2233 1.50459 17.1199C1.65422 16.6162 1.80384 16.0805 1.78021 15.5688C1.75659 15.0251 1.94558 14.5854 2.13458 14.1296C2.29208 13.7538 2.40232 13.2901 2.97719 13.378C3.00081 13.378 3.03231 13.37 3.04019 13.3541C3.09531 13.1782 3.23706 13.0982 3.33943 13.2261C3.43393 13.3461 3.4103 13.5539 3.42605 13.6819Z" fill="white"/>
<path d="M15.7911 1.76763C15.862 1.67172 15.9249 1.5918 16.0037 1.4879C16.5625 1.75164 17.0819 1.63975 17.5542 1.32007C17.6565 1.46393 17.7431 1.58381 17.8454 1.74365C17.8375 1.76763 17.7982 1.85554 17.7274 2.02337C17.4912 2.06333 17.137 2.10329 16.7986 2.19121C15.9013 2.42298 14.9883 2.62278 14.1225 2.94246C13.1151 3.3101 12.1548 3.79762 11.1631 4.19722C10.8247 4.33309 10.4548 4.28513 10.0691 4.12529C10.6988 3.54986 11.3363 3.07034 12.0998 2.77463C12.8081 2.5029 13.485 2.13526 14.2012 1.87951C14.705 1.6957 15.2323 1.46393 15.7911 1.76763Z" fill="white"/>
<path d="M10.249 4.56652C10.1624 4.55852 10.0994 4.55852 9.98135 4.55053C10.0915 4.71044 10.3198 4.79839 10.005 5.00627C9.48549 5.35007 9.02899 5.78982 8.54887 6.20559C8.30488 6.42146 8.0845 6.65333 7.86412 6.8932C7.68309 7.09308 7.50993 7.26099 7.20297 7.25299C7.11639 7.25299 7.01407 7.39691 6.94323 7.49285C6.8724 7.58081 6.84879 7.70873 6.78582 7.80468C6.48673 8.22844 6.17977 8.6442 5.88068 9.05996C5.56585 9.50771 5.32186 9.56368 4.84961 9.30782C5.82559 7.49286 7.21084 6.05367 8.88732 4.89433C9.07621 4.7664 9.25724 4.63048 9.44614 4.50255C9.83968 4.2387 9.83968 4.2387 10.249 4.56652Z" fill="white"/>
<path d="M3.84249 10.323C4.07873 10.5628 4.3071 10.8025 4.54335 11.0503C4.2756 11.5698 3.82674 11.3859 3.35425 11.3939C3.53537 11.0103 3.69287 10.6747 3.85824 10.331C3.85036 10.331 3.84249 10.323 3.84249 10.323Z" fill="white"/>
<path d="M3.85022 10.3315C4.04709 10.0837 4.22034 9.812 4.44871 9.6042C4.64558 9.42038 4.7322 9.49231 4.80308 9.78003C4.83458 9.91589 4.97632 10.0198 5.14169 10.2356C4.65345 10.2675 4.24396 10.2915 3.83447 10.3155C3.84235 10.3235 3.85022 10.3315 3.85022 10.3315Z" fill="white"/>
<path d="M1.52834 22.3884C1.70946 22.6282 1.89058 22.86 2.0717 23.0997C2.0717 23.1237 2.0717 23.1477 2.0717 23.1796C1.9142 23.1157 1.71733 23.0917 1.62283 22.9798C1.51259 22.852 1.49684 22.6442 1.43384 22.4683C1.46534 22.4364 1.49684 22.4124 1.52834 22.3884Z" fill="white"/>
<path d="M2.23047 23.7949C2.34072 23.7869 2.45884 23.7709 2.56909 23.7629C2.55334 23.7869 2.54546 23.8109 2.52971 23.8429C2.61634 23.9228 2.70296 24.0107 2.80533 24.0986C2.41946 24.4503 2.43521 23.8908 2.23047 23.7949Z" fill="white"/>
</g>
<circle cx="20.0001" cy="20.0001" r="16.5577" fill="white"/>
<path d="M16.6523 16.4279L16.1215 14.4468L7.77783 16.6825L8.15005 13.4104L15.3284 11.4869L15.0911 10.6013L18.5171 9.68329L18.7544 10.5689L27.0981 8.33325L26.7259 11.6054L19.5475 13.5288L20.0784 15.5099L29.7505 12.9182L29.3783 16.1904L7.7966 21.9732L8.16881 18.701L16.6523 16.4279ZM31.9012 25.6062L20.7841 28.585L14.2381 27.7411L14.2288 30.3165L10.7095 31.2595L10.7641 22.3271L14.2834 21.3841L14.2528 24.4398L19.3205 25.0803L17.9091 19.8131L21.1487 18.9451L21.5421 20.4134L30.282 18.0715L29.9735 21.3016L22.329 23.35L22.7599 24.9581L32.2223 22.4227L31.9012 25.6062Z" fill="#777777"/>
</g>
</g>
<defs>
<clipPath id="clip0_11551_72597">
<rect width="40" height="40" rx="20" fill="white"/>
</clipPath>
<clipPath id="clip1_11551_72597">
<rect width="42.2222" height="42.2222" fill="white" transform="translate(-1.11108 -1.11108)"/>
</clipPath>
</defs>
</svg>
