<svg width="40" height="40" viewBox="0 0 40 40" fill="none" xmlns="http://www.w3.org/2000/svg">
<g clip-path="url(#clip0_11551_78986)">
<rect width="40" height="40" rx="20" fill="white"/>
<g clip-path="url(#clip1_11551_78986)">
<path d="M11.5146 32.5931C12.0534 32.416 12.4337 32.4965 12.8536 32.746C14.8976 33.9773 17.1317 34.5648 19.5006 34.6373C20.2691 34.6614 21.0376 34.6775 21.7981 34.6373C22.2339 34.6131 22.6617 34.4522 23.0895 34.3475C23.6124 34.2268 24.1353 34.1061 24.6582 33.9854C24.7612 33.9612 24.8721 33.929 24.9592 33.8807C25.9178 33.3818 26.8765 32.8828 27.843 32.3919C27.9936 32.3194 28.1758 32.2953 28.3421 32.2792C28.7462 32.247 29.0789 32.086 29.3721 31.7883C29.6256 31.5307 29.9742 31.4583 30.3624 31.5307C29.7761 31.9895 29.2374 32.5206 28.6036 32.8989C27.027 33.8325 25.4029 34.7017 23.6124 35.1121C22.1388 35.4501 20.6335 35.6594 19.1124 35.4582C18.2964 35.3535 17.4962 35.1282 16.6802 35.0799C15.6027 35.0155 14.7154 34.4441 13.7488 34.09C13.1784 33.8888 12.6476 33.5588 12.1247 33.2369C11.9029 33.092 11.7444 32.8345 11.5146 32.5931Z" fill="white"/>
<path d="M30.4839 30.3393C31.086 29.5425 31.6643 28.786 32.2268 28.0134C32.5121 27.619 32.8369 27.2327 32.9953 26.782C33.1538 26.3233 33.4548 25.9531 33.5737 25.4863C33.6054 25.3656 33.645 25.2529 33.6925 25.1402C34.6115 23.1926 34.5323 21.0598 34.7145 18.9834C34.77 18.3879 34.5402 17.7682 34.4452 17.1565C34.3739 16.6978 34.3184 16.2391 34.2233 15.7884C34.16 15.4825 34.0807 15.1687 33.946 14.887C33.6371 14.2592 33.7084 14.3719 34.152 13.7603C34.3739 14.1305 34.6195 14.4282 34.667 14.895C34.7225 15.4021 34.9364 15.893 35.0631 16.4C35.1978 16.9231 35.3879 17.4463 35.4196 17.9774C35.4751 18.8788 35.4355 19.7883 35.4355 20.6977C35.4355 21.0357 35.4038 21.3818 35.4355 21.7198C35.5147 22.6856 35.1899 23.5386 34.7779 24.3756C34.667 24.601 34.6274 24.8505 34.5402 25.0839C34.3976 25.4702 34.2471 25.8565 34.0966 26.2347C33.5658 27.6432 32.8131 28.9067 31.7911 29.9932C31.6168 30.1783 31.4267 30.3473 31.2207 30.5002C30.7612 30.8463 30.7533 30.8382 30.4839 30.3393Z" fill="white"/>
<path d="M10.637 31.2967C10.2092 31.5784 10.0586 31.5945 9.76551 31.2645C9.10001 30.5 8.44244 29.7273 7.80864 28.9306C7.42835 28.4638 7.08768 27.9568 6.74701 27.4578C6.58856 27.2324 6.45388 26.9829 6.35089 26.7254C5.98645 25.816 5.69331 24.8663 5.25757 23.9971C5.00405 23.474 4.99613 22.975 4.96444 22.4438C4.87729 20.955 4.74261 19.4661 4.62377 17.9691C4.61585 17.8886 4.61585 17.784 4.65546 17.7196C5.05159 17.0355 5.13873 16.2549 5.24965 15.4984C5.36849 14.6855 5.74085 14.0014 6.18451 13.2771C6.41427 13.6393 6.62817 13.9692 6.85793 14.3394C6.20828 14.5085 6.15282 14.9913 6.04983 15.434C5.82007 16.3837 5.59824 17.3253 5.39226 18.283C5.3368 18.5405 5.28926 18.8142 5.29719 19.0717C5.34472 21.8161 5.89138 24.4398 7.09561 26.9105C7.17483 27.0715 7.25406 27.2405 7.36497 27.3854C8.09385 28.3028 8.82272 29.2203 9.55952 30.1297C9.58329 30.1539 9.63082 30.178 9.63082 30.2102C9.66251 30.838 10.3042 30.9104 10.637 31.2967Z" fill="white"/>
<path d="M17.8381 4.72971C18.4086 4.66533 18.9948 4.5929 19.5811 4.52046C19.6603 4.51242 19.7475 4.48827 19.8267 4.47218C20.2624 4.36755 20.6903 4.21464 21.126 4.18245C21.5063 4.15025 21.9024 4.23878 22.2906 4.27902C22.2906 4.31121 22.2985 4.34341 22.2985 4.3756C22.0371 4.39974 21.7836 4.43194 21.5221 4.45608C21.5221 4.47218 21.53 4.48827 21.53 4.50437C22.1797 4.50437 22.8293 4.45608 23.4711 4.52046C23.9543 4.56875 24.4535 4.71362 24.8971 4.92287C26.3232 5.615 27.7413 6.32323 29.1278 7.0878C29.5556 7.32119 29.8804 7.74774 30.229 8.1099C30.5618 8.45597 30.9024 8.81008 31.1718 9.19639C31.5441 9.71951 31.9799 10.1622 32.4949 10.5404C32.5899 10.6128 32.6454 10.7497 32.7246 10.8543C32.7008 10.8865 32.6771 10.9267 32.6533 10.9589C32.5345 10.8945 32.4156 10.8301 32.2968 10.7577C32.273 10.7497 32.2572 10.7094 32.2413 10.7175C31.7184 10.8623 31.5917 10.3795 31.3144 10.13C30.3954 9.30906 29.4843 8.48816 28.5494 7.68335C28.3514 7.51434 28.082 7.44191 27.8602 7.30509C27.6146 7.14413 27.369 6.96708 27.1471 6.78197C26.6242 6.34737 25.9746 6.21861 25.3725 5.96107C23.7167 5.26893 21.9579 5.05164 20.1911 4.91482C19.6286 4.87458 19.0503 5.01944 18.4799 5.05968C18.0441 5.09992 18.0441 5.09188 17.8381 4.72971Z" fill="white"/>
<path d="M15.6666 4.82642C15.5715 5.092 15.516 5.30125 15.4289 5.50245C15.3734 5.60708 15.2863 5.71975 15.1833 5.77609C14.7555 5.97729 14.3118 6.15435 13.8761 6.3475C13.0204 6.72576 12.2361 7.21669 11.4835 7.7881C10.8734 8.24684 10.1604 8.63315 9.26514 8.70558C10.9923 6.61309 13.1947 5.51855 15.6666 4.82642Z" fill="white"/>
<path d="M33.9596 13.197C33.1194 13.1487 32.8816 12.5212 32.5249 12.0546C32.6914 11.8455 32.842 11.6524 33.0718 11.3708C33.3731 11.9983 33.6346 12.5454 33.9596 13.197Z" fill="white"/>
<path d="M7.10229 11.329C7.37973 10.9429 7.58582 10.5648 7.8791 10.2913C8.03764 10.1464 8.36263 10.1786 8.60836 10.1223C8.63214 10.1625 8.65591 10.2028 8.67177 10.243C8.41019 10.605 8.18824 10.9992 7.87118 11.2968C7.75228 11.4256 7.41936 11.329 7.10229 11.329Z" fill="white"/>
<path d="M8.25122 9.74392C8.47317 9.58303 8.69511 9.43018 8.91706 9.26929C8.94876 9.31756 8.98047 9.35778 9.01218 9.40605C8.79023 9.56694 8.56829 9.71979 8.33841 9.88068C8.31463 9.83241 8.28293 9.79219 8.25122 9.74392Z" fill="white"/>
<path d="M26.8968 2.57094C26.9303 2.04261 26.5864 1.88923 26.2425 1.73585C26.1502 1.69324 26.0496 1.65915 25.9573 1.64211C25.001 1.44612 24.1034 1.03709 23.1052 1.01153C22.778 1.00301 22.409 0.934837 22.0986 0.508769C22.5767 0.423555 22.971 0.346863 23.3988 0.27017C23.3736 0.219042 23.3401 0.159392 23.2981 0.0741788C23.8602 -0.155898 24.3467 0.219042 24.8584 0.278692C25.3701 0.338341 25.865 0.525811 26.427 0.670675C26.0663 1.03709 26.4522 1.01153 26.4941 1.25865C26.5529 1.07118 26.5696 0.994487 26.5948 0.926316C26.62 0.926316 26.6451 0.926316 26.6703 0.934837C26.6787 1.05414 26.6871 1.18196 26.6955 1.38647C27.0646 1.40351 27.4756 1.42055 27.8866 1.45464C28.0208 1.46316 28.1634 1.49725 28.2893 1.5569C29.9334 2.30678 31.5608 3.09074 32.8945 4.36895C33.5405 4.98249 34.2283 5.56194 34.8491 6.20956C36.1241 7.53038 37.3069 8.91936 37.9192 10.7003C38.0199 10.9815 38.0535 11.2883 38.129 11.6292C38.2128 11.7144 38.3638 11.8507 38.5819 12.0552C38.3806 12.0211 38.2548 12.0041 38.1373 11.9785C38.1122 12.0041 38.087 12.0297 38.0618 12.0467C38.1877 12.183 38.3051 12.3279 38.4226 12.4557C38.3722 12.575 38.238 12.7199 38.2716 12.8221C38.3135 12.95 38.4729 13.0522 38.5987 13.1289C38.7665 13.2312 38.9762 13.2653 38.9007 13.572C38.8755 13.6658 39.0852 13.7936 39.1356 13.9299C39.5969 15.3445 39.9157 16.7931 39.966 18.2843C40.008 19.6392 40.008 20.9941 39.9828 22.3405C39.9744 22.7495 39.8234 23.15 39.7563 23.5505C39.7144 23.8062 39.706 24.0704 39.6808 24.326C39.6724 24.3942 39.706 24.4794 39.6724 24.5135C39.2195 24.9821 39.3621 25.6638 39.0852 26.2007C38.2045 27.922 37.6089 29.7882 36.5184 31.4158C35.9563 32.2594 35.2853 32.9922 34.4967 33.6143C34.2535 33.8103 34.0522 34.0744 33.8341 34.3045C33.7502 34.3897 33.6747 34.4749 33.574 34.5346C32.8945 34.9692 32.4164 35.6083 31.8879 36.2048C31.5524 36.5797 31.0407 36.8098 30.5961 37.091C30.1431 37.3807 29.6901 37.6279 29.1197 37.4489C28.952 37.3978 28.7423 37.4745 28.5577 37.4915C28.5577 37.5256 28.5577 37.5682 28.5577 37.6023C28.7842 37.6279 29.0107 37.6619 29.2456 37.6875C28.9436 37.8068 28.7003 38.0454 28.3144 37.9261C27.9621 37.8153 27.5679 37.8665 27.1904 37.875C27.1233 37.875 27.0058 38.0284 27.0058 38.105C27.0142 38.2243 27.0897 38.3351 26.8884 38.3096C26.9052 38.3863 26.8968 38.4885 26.9387 38.5311C27.0142 38.6078 27.1233 38.6419 27.3162 38.7527C26.9974 38.889 26.771 39.0254 26.5277 39.0935C25.8231 39.2895 25.1184 39.4855 24.4054 39.6219C23.6672 39.7667 22.9207 39.9371 22.1825 39.9201C21.5282 39.9116 20.8822 39.9627 20.2279 39.9968C19.8337 40.0138 19.4394 39.9542 19.0452 39.886C18.911 39.8605 18.7935 39.7326 18.6174 39.6133C18.2986 39.7752 18.005 39.7326 17.6359 39.4344C17.3926 39.2384 16.9061 39.3492 16.5202 39.3236C16.4112 39.3151 16.2854 39.3662 16.1931 39.3236C15.824 39.1447 15.522 39.2554 15.2033 39.4599C15.111 39.5196 14.96 39.5452 14.8425 39.5281C14.6999 39.5026 14.5657 39.4003 14.4231 39.3492C13.5256 38.9998 12.6364 38.6504 11.7388 38.3181C11.4955 38.2243 11.1684 38.2755 10.9755 38.1306C9.5578 37.074 7.85494 36.4349 6.71411 35.0033C6.31985 34.509 5.95076 33.9977 5.36356 33.691C5.17902 33.5972 5.03641 33.4013 4.9022 33.2308C3.71104 31.7652 2.6457 30.2143 1.94107 28.4333C1.66425 27.7431 1.35387 27.0614 1.05189 26.3796C0.666018 25.4764 0.447917 24.5049 0.338867 23.4312C0.548579 23.5676 0.716349 23.6784 0.87573 23.7891C0.87573 23.8232 0.867341 23.8488 0.867341 23.8829C0.783457 23.8744 0.699572 23.8744 0.582133 23.8658C0.481471 24.0533 0.506637 24.2152 0.775068 24.3601C0.976391 24.4623 1.35387 24.5049 1.11061 24.914C1.35387 24.9736 1.58875 25.0077 1.81524 25.0844C1.89912 25.11 2.00817 25.2293 2.01656 25.3145C2.09206 26.5671 2.77991 27.5641 3.29161 28.6378C3.92914 29.9757 4.78476 31.1772 5.6991 32.3446C6.98254 33.9807 8.66863 35.0885 10.3212 36.2559C10.5644 36.4263 10.7909 36.6223 11.051 36.7502C11.3362 36.8865 11.6465 36.9632 12.0492 37.0995C12.0911 37.3807 12.4518 37.4148 12.7706 37.5341C13.3913 37.7557 14.0037 38.0198 14.6244 38.2414C15.0019 38.3777 15.3962 38.5226 15.7904 38.5652C17.4765 38.7612 19.171 38.9487 20.8655 39.068C21.5282 39.1106 22.1992 38.9742 22.8619 38.872C23.4827 38.7782 24.1034 38.6419 24.7158 38.48C25.3617 38.3096 25.9824 38.0624 26.6367 37.9005C27.5427 37.679 28.348 37.2614 29.1113 36.7416C29.6398 36.3837 30.1347 35.9662 30.6968 35.6679C32.819 34.5516 34.1612 32.6429 35.5705 30.8022C35.5956 30.7682 35.6208 30.7426 35.6292 30.7085C35.9312 29.9416 36.468 29.3366 36.9378 28.6804C37.072 28.4929 37.0552 28.2117 37.1475 27.9902C37.374 27.4022 37.6173 26.8228 37.8521 26.2433C38.1457 25.536 38.3471 24.8032 38.3387 24.0277C38.3387 23.9255 38.3471 23.8147 38.3806 23.721C38.8588 22.4854 39.0014 21.1475 38.9259 19.8778C38.842 18.4292 38.8839 16.9294 38.389 15.5234C38.3638 15.4552 38.3722 15.37 38.3554 15.3019C38.2464 14.8076 38.1709 14.2878 38.0031 13.8191C37.7515 13.1204 37.4663 12.4387 37.1307 11.7825C36.6694 10.8622 36.1828 9.95897 35.6627 9.07274C35.3188 8.47625 34.9581 7.87975 34.5219 7.36847C33.8928 6.62711 33.2217 5.91984 32.4919 5.28073C31.8963 4.76093 31.2085 4.33486 30.5458 3.90027C29.9334 3.49977 29.3043 3.09074 28.65 2.75841C28.1383 2.48573 27.5595 2.26417 26.8968 2.57094Z" fill="#FB897A"/>
<path d="M2.33582 13.2663C1.99172 13.2322 1.74832 13.2151 1.51333 13.1896C1.50493 13.2151 1.50493 13.2492 1.49654 13.2748C1.68957 13.377 1.87422 13.4878 2.10921 13.6242C1.98332 13.6582 1.91618 13.6753 1.79029 13.7009C2.13439 13.8287 1.98332 13.9906 1.94136 14.2121C1.71475 15.3029 1.47136 16.4021 1.36226 17.5099C1.24476 18.6859 1.26993 19.8788 1.24476 21.0633C1.23636 21.5064 1.24476 21.9581 1.24476 22.4779C0.858688 22.4097 0.556547 22.3671 0.262799 22.2819C0.195657 22.2648 0.128514 22.1029 0.120122 22.0007C0.061372 21.5064 -0.0141631 21.0037 0.00262248 20.5009C0.0361937 19.3079 -0.0561271 18.1064 0.287978 16.9305C0.447441 16.3936 0.606904 15.8227 0.581725 15.2773C0.556547 14.6979 0.757974 14.2292 0.959401 13.7435C1.12726 13.343 1.24476 12.8487 1.85743 12.9425C1.88261 12.9425 1.91618 12.9339 1.92457 12.9169C1.98332 12.7294 2.13439 12.6442 2.2435 12.7805C2.34421 12.9084 2.31903 13.1299 2.33582 13.2663Z" fill="#FB897A"/>
<path d="M15.5139 0.568304C15.5894 0.466091 15.6566 0.380913 15.7404 0.270182C16.336 0.551269 16.8897 0.43202 17.393 0.0913086C17.502 0.244629 17.5943 0.372395 17.7033 0.542751C17.695 0.568304 17.653 0.662 17.5775 0.840873C17.3259 0.883462 16.9484 0.926051 16.5877 1.01975C15.6314 1.26676 14.6583 1.47971 13.7356 1.82042C12.6619 2.21224 11.6385 2.73182 10.5815 3.15771C10.2208 3.30251 9.82656 3.2514 9.41553 3.08105C10.0866 2.46777 10.7661 1.9567 11.5798 1.64154C12.3347 1.35194 13.0561 0.960122 13.8195 0.687553C14.3563 0.491644 14.9184 0.244629 15.5139 0.568304Z" fill="#FB897A"/>
<path d="M9.60752 3.55127C9.51525 3.54275 9.44814 3.54275 9.32232 3.53423C9.43975 3.70466 9.68302 3.79839 9.34748 4.01995C8.79384 4.38637 8.30731 4.85504 7.79561 5.29815C7.53557 5.52823 7.30069 5.77535 7.06581 6.03099C6.87288 6.24403 6.68833 6.42298 6.36118 6.41445C6.26891 6.41445 6.15986 6.56784 6.08436 6.67009C6.00887 6.76383 5.9837 6.90017 5.91659 7.00243C5.59783 7.45406 5.27068 7.89717 4.95192 8.34028C4.61638 8.81748 4.35634 8.87713 3.85303 8.60444C4.8932 6.67009 6.36957 5.13625 8.15632 3.90065C8.35764 3.76431 8.55058 3.61945 8.7519 3.4831C9.17132 3.2019 9.17132 3.2019 9.60752 3.55127Z" fill="#FB897A"/>
<path d="M2.77963 9.68628C3.03142 9.94181 3.27481 10.1973 3.52659 10.4614C3.24124 11.0151 2.76285 10.8191 2.25928 10.8277C2.45231 10.4188 2.62017 10.0611 2.79642 9.6948C2.78802 9.6948 2.77963 9.68628 2.77963 9.68628Z" fill="#FB897A"/>
<path d="M2.78803 9.69553C2.99785 9.43148 3.18249 9.14188 3.42588 8.92042C3.6357 8.72451 3.72802 8.80117 3.80355 9.10781C3.83713 9.25261 3.9882 9.36334 4.16444 9.59332C3.64409 9.62739 3.20767 9.65295 2.77124 9.6785C2.77963 9.68702 2.78803 9.69553 2.78803 9.69553Z" fill="#FB897A"/>
<path d="M0.313604 22.5454C0.506639 22.8009 0.699673 23.048 0.892707 23.3035C0.892707 23.329 0.892707 23.3546 0.892707 23.3887C0.724851 23.3205 0.515031 23.295 0.414318 23.1757C0.296819 23.0394 0.280033 22.818 0.212891 22.6306C0.246462 22.5965 0.280033 22.571 0.313604 22.5454Z" fill="#FB897A"/>
<path d="M1.06152 24.0443C1.17902 24.0358 1.30491 24.0188 1.42241 24.0103C1.40563 24.0358 1.39724 24.0614 1.38045 24.0954C1.47277 24.1806 1.56509 24.2743 1.6742 24.368C1.26295 24.7428 1.27974 24.1465 1.06152 24.0443Z" fill="#FB897A"/>
<path d="M26.1305 4.50726C26.1604 4.03763 25.8547 3.90129 25.5489 3.76495C25.4669 3.72707 25.3774 3.69677 25.2954 3.68162C24.4454 3.50741 23.6475 3.14382 22.7602 3.1211C22.4694 3.11353 22.1413 3.05293 21.8654 2.6742C22.2904 2.59845 22.6409 2.53028 23.0212 2.46211C22.9988 2.41666 22.969 2.36364 22.9317 2.28789C23.4313 2.08337 23.8638 2.41666 24.3186 2.46968C24.7735 2.5227 25.2134 2.68935 25.713 2.81811C25.3923 3.14382 25.7353 3.1211 25.7726 3.34076C25.8248 3.17412 25.8397 3.10595 25.8621 3.04535C25.8845 3.04535 25.9068 3.04535 25.9292 3.05293C25.9367 3.15897 25.9441 3.27259 25.9516 3.45438C26.2797 3.46953 26.645 3.48468 27.0104 3.51498C27.1297 3.52256 27.2565 3.55286 27.3683 3.60588C28.8298 4.27245 30.2764 4.96931 31.462 6.10551C32.0361 6.65089 32.6475 7.16596 33.1993 7.74164C34.3327 8.91571 35.3841 10.1504 35.9284 11.7335C36.0179 11.9834 36.0477 12.2561 36.1148 12.5591C36.1894 12.6349 36.3236 12.7561 36.5175 12.9378C36.3385 12.9075 36.2267 12.8924 36.1223 12.8697C36.0999 12.8924 36.0775 12.9151 36.0552 12.9303C36.167 13.0515 36.2714 13.1802 36.3758 13.2939C36.3311 13.3999 36.2118 13.5287 36.2416 13.6196C36.2789 13.7332 36.4205 13.8241 36.5324 13.8923C36.6815 13.9831 36.8679 14.0134 36.8008 14.2861C36.7785 14.3695 36.9649 14.4831 37.0096 14.6043C37.4197 15.8617 37.7031 17.1494 37.7478 18.4749C37.7851 19.6793 37.7851 20.8837 37.7627 22.0805C37.7553 22.444 37.621 22.8 37.5614 23.156C37.5241 23.3833 37.5167 23.6181 37.4943 23.8453C37.4868 23.9059 37.5167 23.9817 37.4868 24.012C37.0842 24.4286 37.2109 25.0346 36.9649 25.5118C36.1819 27.0418 35.6525 28.7007 34.6832 30.1475C34.1836 30.8973 33.5871 31.5488 32.8862 32.1017C32.6699 32.2759 32.491 32.5107 32.2971 32.7153C32.2225 32.791 32.1554 32.8668 32.0659 32.9198C31.462 33.3061 31.0369 33.8742 30.5672 34.4044C30.2689 34.7377 29.8141 34.9422 29.4189 35.1922C29.0162 35.4497 28.6136 35.6694 28.1065 35.5103C27.9574 35.4649 27.771 35.533 27.6069 35.5482C27.6069 35.5785 27.6069 35.6164 27.6069 35.6467C27.8083 35.6694 28.0096 35.6997 28.2184 35.7224C27.9499 35.8284 27.7337 36.0405 27.3907 35.9345C27.0775 35.836 26.7271 35.8815 26.3915 35.889C26.3319 35.889 26.2275 36.0254 26.2275 36.0936C26.2349 36.1996 26.302 36.2981 26.1231 36.2753C26.138 36.3435 26.1305 36.4344 26.1678 36.4723C26.2349 36.5405 26.3319 36.5708 26.5034 36.6692C26.22 36.7904 26.0187 36.9116 25.8025 36.9722C25.1761 37.1464 24.5498 37.3206 23.916 37.4418C23.2598 37.5706 22.5962 37.7221 21.94 37.707C21.3584 37.6994 20.7842 37.7448 20.2026 37.7751C19.8522 37.7903 19.5017 37.7373 19.1512 37.6767C19.0319 37.6539 18.9275 37.5403 18.771 37.4343C18.4876 37.5782 18.2266 37.5403 17.8985 37.2752C17.6823 37.101 17.2498 37.1995 16.9068 37.1767C16.8099 37.1692 16.698 37.2146 16.616 37.1767C16.2879 37.0177 16.0195 37.1161 15.7362 37.2979C15.6541 37.3509 15.5199 37.3737 15.4155 37.3585C15.2888 37.3358 15.1695 37.2449 15.0427 37.1995C14.2448 36.8889 13.4545 36.5783 12.6566 36.2829C12.4404 36.1996 12.1496 36.245 11.9781 36.1163C10.7179 35.177 9.20424 34.6089 8.19015 33.3364C7.83969 32.8971 7.51161 32.4426 6.98965 32.1699C6.82561 32.0866 6.69885 31.9123 6.57954 31.7609C5.52072 30.458 4.57374 29.0794 3.94739 27.4963C3.70132 26.8828 3.42543 26.2768 3.157 25.6708C2.814 24.8679 2.62013 24.0044 2.52319 23.05C2.70961 23.1712 2.85874 23.2697 3.00041 23.3681C3.00041 23.3984 2.99295 23.4212 2.99295 23.4515C2.91839 23.4439 2.84382 23.4439 2.73943 23.4363C2.64995 23.603 2.67232 23.7469 2.91093 23.8756C3.08989 23.9665 3.42543 24.0044 3.20919 24.368C3.42543 24.421 3.63422 24.4513 3.83554 24.5195C3.91011 24.5422 4.00704 24.6483 4.0145 24.724C4.08161 25.8375 4.69304 26.7237 5.14789 27.6781C5.71459 28.8673 6.47515 29.9354 7.28791 30.9731C8.42876 32.4274 9.92752 33.4121 11.3965 34.4499C11.6127 34.6013 11.814 34.7756 12.0452 34.8892C12.2987 35.0104 12.5746 35.0786 12.9325 35.1997C12.9698 35.4497 13.2904 35.48 13.5738 35.5861C14.1255 35.783 14.6699 36.0178 15.2217 36.2148C15.5572 36.3359 15.9077 36.4647 16.2581 36.5026C17.7569 36.6768 19.2631 36.8434 20.7693 36.9495C21.3584 36.9874 21.9549 36.8662 22.544 36.7753C23.0957 36.692 23.6475 36.5708 24.1918 36.4268C24.766 36.2753 25.3178 36.0557 25.8994 35.9118C26.7047 35.7148 27.4205 35.3437 28.0991 34.8816C28.5688 34.5635 29.0088 34.1923 29.5083 33.9272C31.3948 32.9349 32.5879 31.2382 33.8406 29.6021C33.863 29.5718 33.8853 29.5491 33.8928 29.5188C34.1612 28.837 34.6384 28.2992 35.056 27.716C35.1753 27.5493 35.1604 27.2994 35.2424 27.1024C35.4437 26.5798 35.66 26.0647 35.8688 25.5496C36.1297 24.9209 36.3087 24.2695 36.3012 23.5802C36.3012 23.4893 36.3087 23.3909 36.3385 23.3075C36.7635 22.2092 36.8903 21.02 36.8232 19.8914C36.7486 18.6037 36.7859 17.2705 36.346 16.0207C36.3236 15.9601 36.3311 15.8844 36.3162 15.8238C36.2192 15.3845 36.1521 14.9224 36.003 14.5058C35.7793 13.8847 35.5258 13.2787 35.2275 12.6955C34.8174 11.8774 34.3849 11.0745 33.9226 10.2867C33.6169 9.75649 33.2963 9.22627 32.9085 8.77179C32.3493 8.11279 31.7528 7.4841 31.104 6.916C30.5746 6.45395 29.9632 6.07521 29.3741 5.68891C28.8298 5.3329 28.2706 4.96931 27.689 4.6739C27.2341 4.43151 26.7196 4.23457 26.1305 4.50726Z" fill="#FB897A"/>
<path d="M4.29826 14.0144C3.99239 13.9841 3.77604 13.969 3.56715 13.9463C3.55969 13.969 3.55969 13.9993 3.55223 14.022C3.72381 14.1129 3.88794 14.2114 4.09683 14.3326C3.98493 14.3629 3.92524 14.378 3.81334 14.4007C4.11921 14.5144 3.98493 14.6583 3.94763 14.8552C3.7462 15.8248 3.52985 16.8019 3.43286 17.7866C3.32842 18.8319 3.3508 19.8924 3.32842 20.9452C3.32096 21.3391 3.32842 21.7406 3.32842 22.2026C2.98524 22.142 2.71667 22.1042 2.45555 22.0284C2.39587 22.0133 2.33619 21.8693 2.32873 21.7785C2.2765 21.3391 2.20936 20.8922 2.22428 20.4453C2.25412 19.3849 2.17206 18.3168 2.47793 17.2715C2.61968 16.7943 2.76143 16.2868 2.73905 15.8021C2.71667 15.287 2.89571 14.8704 3.07476 14.4386C3.22397 14.0826 3.32842 13.6433 3.87302 13.7266C3.8954 13.7266 3.92524 13.719 3.9327 13.7039C3.98493 13.5372 4.11921 13.4615 4.2162 13.5827C4.30572 13.6963 4.28334 13.8932 4.29826 14.0144Z" fill="#FB897A"/>
<path d="M16.0124 2.72722C16.0796 2.63637 16.1392 2.56065 16.2138 2.46222C16.7432 2.71208 17.2353 2.60608 17.6827 2.30322C17.7796 2.43951 17.8617 2.55308 17.9586 2.70451C17.9511 2.72722 17.9139 2.81051 17.8467 2.96951C17.6231 3.00737 17.2875 3.04523 16.9669 3.12851C16.1168 3.34808 15.2519 3.53737 14.4317 3.84023C13.4772 4.18852 12.5675 4.65038 11.628 5.02895C11.3074 5.15766 10.9569 5.11223 10.5916 4.9608C11.1881 4.41566 11.7921 3.96137 12.5153 3.68123C13.1864 3.4238 13.8277 3.07551 14.5062 2.83322C14.9834 2.65908 15.483 2.43951 16.0124 2.72722Z" fill="#FB897A"/>
<path d="M10.7621 5.37881C10.6801 5.37123 10.6205 5.37123 10.5086 5.36366C10.613 5.51515 10.8293 5.59847 10.531 5.79541C10.0389 6.12112 9.60639 6.53773 9.15154 6.93161C8.92039 7.13612 8.7116 7.35579 8.50282 7.58303C8.33132 7.77239 8.16728 7.93146 7.87647 7.92389C7.79445 7.92389 7.69752 8.06023 7.63041 8.15113C7.5633 8.23445 7.54093 8.35564 7.48128 8.44654C7.19793 8.848 6.90713 9.24188 6.62378 9.63576C6.32552 10.0599 6.09436 10.113 5.64697 9.87057C6.57158 8.15113 7.88393 6.78769 9.47217 5.68937C9.65113 5.56817 9.82263 5.4394 10.0016 5.31821C10.3744 5.06825 10.3744 5.06825 10.7621 5.37881Z" fill="#FB897A"/>
<path d="M4.69252 10.832C4.91633 11.0592 5.13268 11.2863 5.3565 11.521C5.10284 12.0132 4.6776 11.839 4.22998 11.8466C4.40157 11.4832 4.55078 11.1652 4.70744 10.8396C4.69998 10.8396 4.69252 10.832 4.69252 10.832Z" fill="#FB897A"/>
<path d="M4.70022 10.8401C4.88673 10.6054 5.05086 10.348 5.26721 10.1511C5.45372 9.97699 5.53578 10.0451 5.60293 10.3177C5.63277 10.4464 5.76706 10.5448 5.92372 10.7493C5.46118 10.7796 5.07324 10.8023 4.6853 10.825C4.69276 10.8326 4.70022 10.8401 4.70022 10.8401Z" fill="#FB897A"/>
<path d="M2.50041 22.2627C2.672 22.4898 2.84359 22.7094 3.01518 22.9366C3.01518 22.9593 3.01518 22.982 3.01518 23.0123C2.86597 22.9517 2.67946 22.929 2.58994 22.823C2.48549 22.7018 2.47057 22.505 2.41089 22.3384C2.44073 22.3081 2.47057 22.2854 2.50041 22.2627Z" fill="#FB897A"/>
<path d="M3.16553 23.595C3.26997 23.5874 3.38188 23.5723 3.48632 23.5647C3.4714 23.5874 3.46394 23.6101 3.44902 23.6404C3.53109 23.7161 3.61315 23.7994 3.71013 23.8827C3.34458 24.2158 3.3595 23.6858 3.16553 23.595Z" fill="#FB897A"/>
<ellipse cx="19.9999" cy="19.9999" rx="16.6667" ry="16.6667" fill="white"/>
<path d="M24.3982 8.88892L24.994 11.1823L28.9398 10.0919L28.8256 13.1599L25.73 14.0154L26.5887 17.3206L30.2729 16.3024L30.1646 19.3929L27.3305 20.1761L28.1892 23.4813L32.2223 22.3667L32.1081 25.4347L20.7283 28.5796L20.7989 25.5236L25.0064 24.3609L24.1477 21.0557L19.7005 22.2847L19.7434 19.2123L23.4059 18.2002L22.5472 14.895L21.0212 15.3167L21.2261 17.8145L18.1959 18.6519L17.6016 11.4179L20.6319 10.5804L20.7648 12.3511L21.8112 12.0619L21.2153 9.76852L24.3982 8.88892ZM20.1158 26.9415C20.2405 27.4211 20.1731 27.8815 19.9139 28.3227C19.6692 28.7598 19.3143 29.0427 18.8492 29.1712L15.6446 30.0568L15.7954 27.2197L16.275 27.0871C16.3913 27.055 16.4833 26.9894 16.551 26.8904C16.6149 26.7763 16.6312 26.6594 16.6 26.5395L16.121 24.6957L13.941 25.2982L13.9345 22.2154L15.3734 21.8177L14.871 19.8841L12.8872 20.4323L12.8807 17.3495L14.1233 17.0061L13.7436 15.5446C13.7125 15.4247 13.6416 15.3318 13.531 15.266C13.4205 15.2001 13.3071 15.1833 13.1908 15.2154L11.7302 15.619L11.5493 12.5844L14.3397 11.8132C14.8048 11.6847 15.2395 11.7092 15.6439 11.8866C16.0628 12.06 16.3345 12.3866 16.4591 12.8662L20.1158 26.9415ZM11.8296 31.1111L7.77783 13.6267L10.9389 12.7531L14.9688 30.2436L11.8296 31.1111Z" fill="#FB897A"/>
</g>
</g>
<defs>
<clipPath id="clip0_11551_78986">
<rect width="40" height="40" rx="20" fill="white"/>
</clipPath>
<clipPath id="clip1_11551_78986">
<rect width="40" height="40" fill="white"/>
</clipPath>
</defs>
</svg>
