<svg width="11" height="18" viewBox="0 0 11 18" fill="none" xmlns="http://www.w3.org/2000/svg">
<path d="M10.3315 5.94311C10.3315 8.96695 7.98341 9.43656 7.98341 12.2547C7.98341 13.7096 6.51681 13.8321 5.40054 13.8321C4.43643 13.8321 2.30768 13.4663 2.30768 12.2538C2.30768 9.43703 0 8.96742 0 5.94311C0 3.11088 2.4819 0.814941 5.20472 0.814941C7.92847 0.814941 10.3315 3.11088 10.3315 5.94311Z" fill="#FFE607"/>
<path d="M7.12273 16.0109C7.12273 16.3997 6.07362 17.1849 5.16586 17.1849C4.2581 17.1849 3.20898 16.3997 3.20898 16.0109C3.20898 15.622 4.25763 15.7761 5.16586 15.7761C6.07362 15.7761 7.12273 15.622 7.12273 16.0109Z" fill="#CCD6DD"/>
<path d="M7.37657 5.58361C7.333 5.53997 7.28125 5.50534 7.22427 5.48171C7.1673 5.45808 7.10623 5.44592 7.04456 5.44592C6.98288 5.44592 6.92181 5.45808 6.86484 5.48171C6.80787 5.50534 6.75612 5.53997 6.71254 5.58361L5.16611 7.13005L3.61967 5.58361C3.57607 5.54001 3.52431 5.50543 3.46734 5.48183C3.41038 5.45823 3.34932 5.44609 3.28766 5.44609C3.226 5.44609 3.16494 5.45823 3.10797 5.48183C3.051 5.50543 2.99924 5.54001 2.95564 5.58361C2.91204 5.62721 2.87745 5.67898 2.85386 5.73594C2.83026 5.79291 2.81812 5.85397 2.81812 5.91563C2.81812 5.97729 2.83026 6.03835 2.85386 6.09532C2.87745 6.15228 2.91204 6.20404 2.95564 6.24765L4.69649 7.9885V12.9598C4.69649 13.0844 4.74597 13.2038 4.83404 13.2919C4.92211 13.38 5.04156 13.4294 5.16611 13.4294C5.29066 13.4294 5.4101 13.38 5.49817 13.2919C5.58624 13.2038 5.63572 13.0844 5.63572 12.9598V7.9885L7.37657 6.24765C7.42022 6.20407 7.45485 6.15232 7.47848 6.09535C7.5021 6.03838 7.51426 5.97731 7.51426 5.91563C7.51426 5.85395 7.5021 5.79288 7.47848 5.73591C7.45485 5.67894 7.42022 5.62719 7.37657 5.58361Z" fill="#BFBFBF"/>
<path d="M7.983 15.3072C7.983 15.5563 7.88405 15.7952 7.70791 15.9713C7.53177 16.1474 7.29288 16.2464 7.04378 16.2464H3.28688C3.03778 16.2464 2.79889 16.1474 2.62275 15.9713C2.44661 15.7952 2.34766 15.5563 2.34766 15.3072V12.4895H7.983V15.3072Z" fill="#99AAB5"/>
<path d="M2.34702 15.7759C2.22943 15.7755 2.11627 15.731 2.02993 15.6511C1.94359 15.5713 1.89034 15.4619 1.88073 15.3447C1.87111 15.2275 1.90581 15.111 1.97798 15.0181C2.05015 14.9253 2.15452 14.8629 2.27048 14.8433L7.90583 13.9041C7.96667 13.8936 8.02899 13.8953 8.08917 13.9091C8.14936 13.9229 8.20621 13.9484 8.25644 13.9843C8.30666 14.0202 8.34927 14.0657 8.38179 14.1182C8.41431 14.1707 8.43609 14.2291 8.44588 14.2901C8.45603 14.3509 8.45409 14.4131 8.44018 14.4732C8.42627 14.5332 8.40066 14.59 8.36481 14.6401C8.32896 14.6903 8.28357 14.7329 8.23125 14.7655C8.17892 14.7981 8.12068 14.8201 8.05986 14.8301L2.42451 15.7694C2.39893 15.7739 2.373 15.7761 2.34702 15.7759ZM2.34702 13.8975C2.22943 13.897 2.11627 13.8525 2.02993 13.7727C1.94359 13.6928 1.89034 13.5835 1.88073 13.4663C1.87111 13.3491 1.90581 13.2325 1.97798 13.1397C2.05015 13.0468 2.15452 12.9844 2.27048 12.9648L7.90583 12.0256C7.96667 12.0152 8.02896 12.017 8.08912 12.0308C8.14928 12.0446 8.20611 12.0702 8.25632 12.106C8.30653 12.1419 8.34914 12.1874 8.38168 12.2399C8.41421 12.2923 8.43603 12.3507 8.44588 12.4116C8.45603 12.4724 8.45409 12.5347 8.44018 12.5947C8.42627 12.6548 8.40066 12.7115 8.36481 12.7617C8.32896 12.8118 8.28357 12.8544 8.23125 12.887C8.17892 12.9196 8.12068 12.9416 8.05986 12.9517L2.42451 13.8909C2.39893 13.8954 2.373 13.8976 2.34702 13.8975Z" fill="#CCD6DD"/>
</svg>
