<svg width="20" height="20" viewBox="0 0 20 20" fill="none" xmlns="http://www.w3.org/2000/svg">
<g id="ic / &#232;&#170;&#170;&#230;&#152;&#142;&#231;&#135;&#136;&#230;&#179;&#161;">
<g id="Group 513362">
<path id="Vector" d="M8.10673 0.000127354C12.655 0.0251806 16.1807 3.72471 16.1889 8.25099C16.197 12.9443 12.5404 16.5269 8.10673 16.5436C3.57484 16.5603 -0.0163049 12.7856 5.56794e-05 8.23428C0.0164163 3.64955 3.68119 -0.0249259 8.10673 0.000127354ZM8.09037 14.9485C11.6979 14.9318 14.651 11.9923 14.6346 8.25099C14.6182 4.59322 11.7797 1.59518 8.09855 1.58683C4.49922 1.58683 1.57885 4.52641 1.56249 8.25099C1.54613 11.9589 4.47468 14.9402 8.09037 14.9485Z" fill="#4A4A4A"/>
<path id="Vector_2" d="M6.72412 8.86879C6.72412 7.72469 6.72412 6.57225 6.72412 5.42815C6.72412 4.92708 6.72412 4.42602 6.72412 3.92496C6.72412 3.78299 6.74866 3.75793 6.88773 3.75793C7.6894 3.75793 8.49924 3.75793 9.30091 3.75793C9.4727 3.75793 9.48088 3.77464 9.48088 3.95001C9.48088 6.9898 9.48088 10.0379 9.48088 13.0777C9.48088 13.3199 9.48088 13.5621 9.48088 13.8043C9.48088 13.9546 9.45634 13.9546 9.31727 13.988C8.68739 14.1467 8.04933 14.1467 7.41127 14.0882C7.20676 14.0715 7.01043 14.0214 6.8141 13.9796C6.74048 13.9629 6.72412 13.9045 6.72412 13.8377C6.72412 13.5454 6.72412 13.2615 6.72412 12.9692C6.72412 11.5996 6.72412 10.23 6.72412 8.86879Z" fill="#9FC2FF"/>
<path id="Vector_3" d="M10.2827 10.5975C10.2827 9.63717 10.2827 8.68515 10.2827 7.72478C10.2827 7.54941 10.3073 7.52435 10.4709 7.52435C11.2725 7.52435 12.0742 7.52435 12.8759 7.52435C13.0149 7.52435 13.0477 7.54941 13.0477 7.69973C13.0477 8.82712 13.0477 9.95451 13.0477 11.0903C13.0477 11.2239 12.9986 11.3324 12.9331 11.4327C12.6959 11.8335 12.3932 12.1843 12.0578 12.4932C11.837 12.702 11.5997 12.9024 11.3625 13.0862C11.1744 13.2281 10.9617 13.3367 10.7572 13.4536C10.6672 13.5121 10.5608 13.5538 10.4709 13.6039C10.34 13.6791 10.2827 13.6457 10.2827 13.4954C10.2827 12.5266 10.2827 11.5663 10.2827 10.5975Z" fill="#276CE1"/>
<path id="Vector_4" d="M5.90617 11.6665C5.90617 12.2594 5.90617 12.8524 5.90617 13.4453C5.90617 13.487 5.90617 13.5288 5.90617 13.5705C5.90617 13.6541 5.85709 13.6875 5.78347 13.6457C5.62804 13.5705 5.47261 13.5037 5.32537 13.4119C5.12904 13.295 4.93271 13.1697 4.75275 13.0361C4.401 12.7855 4.07378 12.5016 3.80383 12.1592C3.59933 11.9003 3.41118 11.6331 3.22303 11.3659C3.18213 11.3074 3.16577 11.2322 3.16577 11.1654C3.16577 10.7145 3.16577 10.2635 3.16577 9.81256C3.16577 9.704 3.19849 9.67059 3.30484 9.67059C4.13105 9.67059 4.95726 9.67059 5.78347 9.67059C5.89799 9.67059 5.91435 9.69565 5.91435 9.82926C5.91435 10.4472 5.91435 11.0569 5.91435 11.6749L5.90617 11.6665Z" fill="#9FC2FF"/>
<path id="Vector_5" d="M18.7247 20.0008C18.7247 20.0008 18.6674 20.0008 18.6347 20.0008C17.9885 19.9841 17.3586 19.7085 16.9168 19.2241C15.9025 18.0967 14.8718 17.0028 13.8574 15.8837C13.7756 15.7919 13.6938 15.7083 13.612 15.6248C13.5057 15.5163 13.5138 15.4745 13.6284 15.3827C14.2092 14.9233 14.7327 14.4974 15.0926 13.8377C15.1417 13.7458 15.199 13.7291 15.2808 13.7959C16.516 14.8565 17.8003 15.9171 19.0437 16.9944C19.3055 17.2199 19.6572 17.5957 19.8127 17.913C20.2871 18.8985 19.8372 19.9674 18.7247 20.0008Z" fill="#9FC2FF"/>
</g>
</g>
</svg>
