<svg width="18" height="18" viewBox="0 0 18 18" fill="none" xmlns="http://www.w3.org/2000/svg">
<path fill-rule="evenodd" clip-rule="evenodd" d="M9.33755 5.58728C9.33755 3.93278 10.6831 2.58728 12.3376 2.58728C13.9921 2.58728 15.3376 3.93278 15.3376 5.58728V7.83728C15.3376 8.03619 15.2585 8.22696 15.1179 8.36761C14.9772 8.50826 14.7865 8.58728 14.5876 8.58728C14.3886 8.58728 14.1979 8.50826 14.0572 8.36761C13.9166 8.22696 13.8376 8.03619 13.8376 7.83728V5.58728C13.8376 5.18946 13.6795 4.80792 13.3982 4.52662C13.1169 4.24532 12.7354 4.08728 12.3376 4.08728C11.9397 4.08728 11.5582 4.24532 11.2769 4.52662C10.9956 4.80792 10.8376 5.18946 10.8376 5.58728V7.08728H11.5876C11.9854 7.08728 12.3669 7.24532 12.6482 7.52662C12.9295 7.80792 13.0876 8.18946 13.0876 8.58728V13.8373C13.0876 14.2351 12.9295 14.6166 12.6482 14.8979C12.3669 15.1792 11.9854 15.3373 11.5876 15.3373H4.08755C3.68973 15.3373 3.3082 15.1792 3.02689 14.8979C2.74559 14.6166 2.58755 14.2351 2.58755 13.8373V8.58728C2.58755 8.18946 2.74559 7.80792 3.02689 7.52662C3.3082 7.24532 3.68973 7.08728 4.08755 7.08728H6.33755H9.33755V5.58728ZM4.08755 13.8373H11.5876L11.5898 8.58728H4.08755V13.8373ZM8.81247 12.3371C8.81247 12.8755 8.37595 13.3121 7.83747 13.3121C7.299 13.3121 6.86247 12.8755 6.86247 12.3371C6.86247 11.7986 7.299 11.3621 7.83747 11.3621C8.37595 11.3621 8.81247 11.7986 8.81247 12.3371Z" fill="white" fill-opacity="0.5"/>
</svg>
