<svg width="6" height="10" viewBox="0 0 6 10" fill="none" xmlns="http://www.w3.org/2000/svg">
<path id="Union" d="M0.499838 7.90609L3.40984 4.99609L0.499838 2.08609C0.430402 2.01665 0.375322 1.93422 0.337744 1.84349C0.300165 1.75277 0.280823 1.65553 0.280823 1.55734C0.280823 1.45914 0.300165 1.3619 0.337744 1.27118C0.375322 1.18046 0.430402 1.09802 0.499838 1.02859C0.569275 0.959149 0.651708 0.904069 0.742431 0.866491C0.833154 0.828912 0.93039 0.80957 1.02859 0.80957C1.12679 0.80957 1.22402 0.828912 1.31475 0.866491C1.40547 0.904069 1.4879 0.959149 1.55734 1.02859L4.99984 4.47109C5.29234 4.76359 5.29234 5.23609 4.99984 5.52859L1.55734 8.97109C1.48795 9.04061 1.40554 9.09577 1.31481 9.13341C1.22408 9.17105 1.12681 9.19042 1.02859 9.19042C0.930362 9.19042 0.8331 9.17105 0.74237 9.13341C0.65164 9.09577 0.569224 9.04061 0.499838 8.97109C0.214838 8.67859 0.207338 8.19859 0.499838 7.90609Z" fill="#BFBFBF"/>
</svg>
