<svg width="15" height="14" viewBox="0 0 15 14" fill="none" xmlns="http://www.w3.org/2000/svg">
<path d="M9.49271 5.55565V7H5.50729V5.55565C5.50729 4.44765 6.40112 3.54609 7.5 3.54609C8.59888 3.54609 9.49271 4.44748 9.49271 5.55565ZM7.5 0C6.855 0 6.32841 0.529262 6.32841 1.1815C6.32841 1.83195 6.855 2.36121 7.5 2.36121C8.145 2.36121 8.67159 1.83195 8.67159 1.1815C8.67159 0.529262 8.145 0 7.5 0ZM13.2563 6.24028C12.2947 6.24028 11.5126 7.02901 11.5126 7.99873V9.25355H15V7.99873C15 7.02901 14.2179 6.24028 13.2563 6.24028ZM13.2563 3.10724C12.6976 3.10724 12.2439 3.56478 12.2439 4.12821C12.2439 4.69164 12.6976 5.14918 13.2563 5.14918C13.815 5.14918 14.2687 4.69164 14.2687 4.12821C14.2687 3.56478 13.8148 3.10724 13.2563 3.10724ZM1.74371 6.24028C0.782118 6.24028 0 7.02901 0 7.99873V9.25355H3.48759V7.99873C3.48759 7.02901 2.70547 6.24028 1.74371 6.24028ZM1.74371 3.10724C1.185 3.10724 0.731294 3.56478 0.731294 4.12821C0.731294 4.69164 1.185 5.14918 1.74371 5.14918C2.30241 5.14918 2.75612 4.69164 2.75612 4.12821C2.75612 3.56478 2.30241 3.10724 1.74371 3.10724ZM10.0396 10.9832C9.89912 10.9832 9.78565 10.8687 9.78565 10.7271V8.4803H5.21453V10.7271C5.21453 10.8687 5.10106 10.9832 4.96059 10.9832H0V14H15V10.9832H10.0396Z" fill="#8D8D8D"/>
</svg>
