<svg width="17" height="16" viewBox="0 0 17 16" fill="none" xmlns="http://www.w3.org/2000/svg">
<path d="M10.4927 6.55565V8H6.50729V6.55565C6.50729 5.44765 7.40112 4.54609 8.5 4.54609C9.59888 4.54609 10.4927 5.44748 10.4927 6.55565ZM8.5 1C7.855 1 7.32841 1.52926 7.32841 2.1815C7.32841 2.83195 7.855 3.36121 8.5 3.36121C9.145 3.36121 9.67159 2.83195 9.67159 2.1815C9.67159 1.52926 9.145 1 8.5 1ZM14.2563 7.24028C13.2947 7.24028 12.5126 8.02901 12.5126 8.99873V10.2535H16V8.99873C16 8.02901 15.2179 7.24028 14.2563 7.24028ZM14.2563 4.10724C13.6976 4.10724 13.2439 4.56478 13.2439 5.12821C13.2439 5.69164 13.6976 6.14918 14.2563 6.14918C14.815 6.14918 15.2687 5.69164 15.2687 5.12821C15.2687 4.56478 14.8148 4.10724 14.2563 4.10724ZM2.74371 7.24028C1.78212 7.24028 1 8.02901 1 8.99873V10.2535H4.48759V8.99873C4.48759 8.02901 3.70547 7.24028 2.74371 7.24028ZM2.74371 4.10724C2.185 4.10724 1.73129 4.56478 1.73129 5.12821C1.73129 5.69164 2.185 6.14918 2.74371 6.14918C3.30241 6.14918 3.75612 5.69164 3.75612 5.12821C3.75612 4.56478 3.30241 4.10724 2.74371 4.10724ZM11.0396 11.9832C10.8991 11.9832 10.7856 11.8687 10.7856 11.7271V9.4803H6.21453V11.7271C6.21453 11.8687 6.10106 11.9832 5.96059 11.9832H1V15H16V11.9832H11.0396Z" fill="#8D8D8D"/>
<path d="M10.4927 8V6.55565C10.4927 5.44748 9.59888 4.54609 8.5 4.54609C7.40112 4.54609 6.50729 5.44765 6.50729 6.55565V8H10.4927Z" fill="#8D8D8D"/>
<path d="M7.32841 2.1815C7.32841 1.52926 7.855 1 8.5 1C9.145 1 9.67159 1.52926 9.67159 2.1815C9.67159 2.83195 9.145 3.36121 8.5 3.36121C7.855 3.36121 7.32841 2.83195 7.32841 2.1815Z" fill="#8D8D8D"/>
<path d="M12.5126 8.99873C12.5126 8.02901 13.2947 7.24028 14.2563 7.24028C15.2179 7.24028 16 8.02901 16 8.99873V10.2535H12.5126V8.99873Z" fill="#8D8D8D"/>
<path d="M13.2439 5.12821C13.2439 4.56478 13.6976 4.10724 14.2563 4.10724C14.8148 4.10724 15.2687 4.56478 15.2687 5.12821C15.2687 5.69164 14.815 6.14918 14.2563 6.14918C13.6976 6.14918 13.2439 5.69164 13.2439 5.12821Z" fill="#8D8D8D"/>
<path d="M1 8.99873C1 8.02901 1.78212 7.24028 2.74371 7.24028C3.70547 7.24028 4.48759 8.02901 4.48759 8.99873V10.2535H1V8.99873Z" fill="#8D8D8D"/>
<path d="M1.73129 5.12821C1.73129 4.56478 2.185 4.10724 2.74371 4.10724C3.30241 4.10724 3.75612 4.56478 3.75612 5.12821C3.75612 5.69164 3.30241 6.14918 2.74371 6.14918C2.185 6.14918 1.73129 5.69164 1.73129 5.12821Z" fill="#8D8D8D"/>
<path d="M10.4932 8V6.55565C10.4932 5.44748 9.5994 4.54609 8.50052 4.54609C7.40164 4.54609 6.50781 5.44765 6.50781 6.55565V8H10.4932Z" fill="#8D8D8D"/>
<path d="M7.32893 2.1815C7.32893 1.52926 7.85552 1 8.50052 1C9.14552 1 9.67211 1.52926 9.67211 2.1815C9.67211 2.83195 9.14552 3.36121 8.50052 3.36121C7.85552 3.36121 7.32893 2.83195 7.32893 2.1815Z" fill="#8D8D8D"/>
</svg>
