<svg width="72" height="72" viewBox="0 0 72 72" fill="none" xmlns="http://www.w3.org/2000/svg">
<circle cx="36" cy="36" r="36" fill="url(#paint0_radial_9032_56292)"/>
<circle cx="36" cy="36" r="36" fill="white" fill-opacity="0.1"/>
<g clip-path="url(#clip0_9032_56292)">
<g filter="url(#filter0_d_9032_56292)">
<path d="M24.125 28.2812C24.125 25.9192 25.0634 23.6538 26.7336 21.9836C28.4039 20.3133 30.6692 19.375 33.0313 19.375C35.3934 19.375 37.6587 20.3133 39.329 21.9836C40.9992 23.6538 41.9375 25.9192 41.9375 28.2812C41.9375 28.5962 41.8124 28.8982 41.5897 29.1209C41.367 29.3436 41.065 29.4688 40.75 29.4688C40.4351 29.4688 40.1331 29.3436 39.9104 29.1209C39.6877 28.8982 39.5625 28.5962 39.5625 28.2812C39.5625 26.5491 38.8744 24.8878 37.6496 23.663C36.4247 22.4381 34.7635 21.75 33.0313 21.75C31.2991 21.75 29.6378 22.4381 28.413 23.663C27.1882 24.8878 26.5 26.5491 26.5 28.2812C26.5 28.5962 26.3749 28.8982 26.1522 29.1209C25.9295 29.3436 25.6275 29.4688 25.3125 29.4688C24.9976 29.4688 24.6956 29.3436 24.4729 29.1209C24.2502 28.8982 24.125 28.5962 24.125 28.2812ZM44.9063 34.8125C44.2136 34.8117 43.5317 34.9848 42.9232 35.3157C42.7413 34.753 42.4415 34.2355 42.0437 33.7979C41.6459 33.3603 41.1593 33.0127 40.6164 32.7782C40.0735 32.5437 39.4868 32.4278 38.8955 32.4381C38.3042 32.4485 37.7219 32.5849 37.1875 32.8383V28.2812C37.1875 27.1789 36.7497 26.1218 35.9702 25.3423C35.1908 24.5629 34.1336 24.125 33.0313 24.125C31.929 24.125 30.8718 24.5629 30.0924 25.3423C29.3129 26.1218 28.875 27.1789 28.875 28.2812V40.1562L28.308 39.2463C27.7535 38.2934 26.8432 37.5998 25.7773 37.3181C24.7114 37.0364 23.5772 37.1896 22.6243 37.7441C21.6714 38.2986 20.9778 39.209 20.6961 40.2749C20.4144 41.3408 20.5677 42.4749 21.1222 43.4278L25.4743 50.8497C25.5473 50.9942 25.6491 51.1223 25.7734 51.2261C25.8978 51.3299 26.042 51.4071 26.1973 51.4531C26.3525 51.499 26.5156 51.5128 26.6763 51.4934C26.8371 51.474 26.9922 51.422 27.1322 51.3405C27.2721 51.259 27.3938 51.1497 27.49 51.0194C27.5861 50.8891 27.6546 50.7405 27.6912 50.5827C27.7277 50.425 27.7317 50.2614 27.7027 50.1021C27.6738 49.9428 27.6125 49.791 27.5228 49.6562L23.175 42.2344C23.053 42.0316 22.9725 41.8066 22.9384 41.5724C22.9043 41.3382 22.9172 41.0996 22.9763 40.8705C23.0355 40.6413 23.1397 40.4263 23.2829 40.2379C23.4261 40.0494 23.6054 39.8914 23.8103 39.7731C24.0152 39.6548 24.2417 39.5784 24.4764 39.5486C24.7112 39.5187 24.9496 39.536 25.1776 39.5993C25.4056 39.6626 25.6187 39.7707 25.8045 39.9173C25.9903 40.0639 26.145 40.2461 26.2596 40.4531L26.2804 40.4873L29.0532 44.9404C29.1893 45.1601 29.3934 45.3293 29.6345 45.4225C29.8755 45.5157 30.1404 45.5276 30.3889 45.4566C30.6374 45.3856 30.8559 45.2355 31.0113 45.029C31.1667 44.8225 31.2506 44.5709 31.25 44.3125V28.2812C31.25 27.8088 31.4377 27.3558 31.7718 27.0217C32.1058 26.6877 32.5589 26.5 33.0313 26.5C33.5037 26.5 33.9568 26.6877 34.2908 27.0217C34.6249 27.3558 34.8125 27.8088 34.8125 28.2812V38.375C34.8125 38.6899 34.9377 38.992 35.1604 39.2147C35.3831 39.4374 35.6851 39.5625 36 39.5625C36.315 39.5625 36.617 39.4374 36.8397 39.2147C37.0624 38.992 37.1875 38.6899 37.1875 38.375V36.5938C37.1875 36.1213 37.3752 35.6683 37.7093 35.3342C38.0433 35.0002 38.4964 34.8125 38.9688 34.8125C39.4412 34.8125 39.8943 35.0002 40.2283 35.3342C40.5624 35.6683 40.75 36.1213 40.75 36.5938V39.5625C40.75 39.8774 40.8752 40.1795 41.0979 40.4022C41.3206 40.6249 41.6226 40.75 41.9375 40.75C42.2525 40.75 42.5545 40.6249 42.7772 40.4022C42.9999 40.1795 43.125 39.8774 43.125 39.5625V38.9688C43.125 38.4963 43.3127 38.0433 43.6468 37.7092C43.9808 37.3752 44.4339 37.1875 44.9063 37.1875C45.3787 37.1875 45.8318 37.3752 46.1658 37.7092C46.4999 38.0433 46.6875 38.4963 46.6875 38.9688V44.3125C46.6875 47.5202 45.6336 49.7008 45.6247 49.7186C45.4841 50.0003 45.461 50.3263 45.5607 50.625C45.6603 50.9237 45.8745 51.1705 46.1561 51.3113C46.3209 51.3946 46.503 51.4379 46.6875 51.4375C46.9082 51.4377 47.1245 51.3764 47.3122 51.2605C47.4999 51.1446 47.6516 50.9787 47.7504 50.7814C47.8053 50.673 49.064 48.1095 49.064 44.3125V38.9688C49.064 38.4228 48.9565 37.8822 48.7475 37.3779C48.5386 36.8735 48.2323 36.4153 47.8462 36.0293C47.4601 35.6434 47.0017 35.3372 46.4973 35.1284C45.9928 34.9197 45.4522 34.8123 44.9063 34.8125Z" fill="white"/>
</g>
</g>
<defs>
<filter id="filter0_d_9032_56292" x="18.5581" y="19.375" width="34.506" height="38.1269" filterUnits="userSpaceOnUse" color-interpolation-filters="sRGB">
<feFlood flood-opacity="0" result="BackgroundImageFix"/>
<feColorMatrix in="SourceAlpha" type="matrix" values="0 0 0 0 0 0 0 0 0 0 0 0 0 0 0 0 0 0 127 0" result="hardAlpha"/>
<feOffset dx="1" dy="3"/>
<feGaussianBlur stdDeviation="1.5"/>
<feComposite in2="hardAlpha" operator="out"/>
<feColorMatrix type="matrix" values="0 0 0 0 0 0 0 0 0 0 0 0 0 0 0 0 0 0 0.15 0"/>
<feBlend mode="normal" in2="BackgroundImageFix" result="effect1_dropShadow_9032_56292"/>
<feBlend mode="normal" in="SourceGraphic" in2="effect1_dropShadow_9032_56292" result="shape"/>
</filter>
<radialGradient id="paint0_radial_9032_56292" cx="0" cy="0" r="1" gradientUnits="userSpaceOnUse" gradientTransform="translate(36 36) rotate(90) scale(36)">
<stop stop-color="#065FF5" stop-opacity="0.26"/>
<stop offset="1" stop-color="#065FF5" stop-opacity="0.08"/>
</radialGradient>
<clipPath id="clip0_9032_56292">
<rect width="38" height="38" fill="white" transform="translate(17 17)"/>
</clipPath>
</defs>
</svg>
