<svg width="16" height="16" viewBox="0 0 16 16" fill="none" xmlns="http://www.w3.org/2000/svg">
<path d="M9.99271 6.55565V8H6.00729V6.55565C6.00729 5.44765 6.90112 4.54609 8 4.54609C9.09888 4.54609 9.99271 5.44748 9.99271 6.55565ZM8 1C7.355 1 6.82841 1.52926 6.82841 2.1815C6.82841 2.83195 7.355 3.36121 8 3.36121C8.645 3.36121 9.17159 2.83195 9.17159 2.1815C9.17159 1.52926 8.645 1 8 1ZM13.7563 7.24028C12.7947 7.24028 12.0126 8.02901 12.0126 8.99873V10.2535H15.5V8.99873C15.5 8.02901 14.7179 7.24028 13.7563 7.24028ZM13.7563 4.10724C13.1976 4.10724 12.7439 4.56478 12.7439 5.12821C12.7439 5.69164 13.1976 6.14918 13.7563 6.14918C14.315 6.14918 14.7687 5.69164 14.7687 5.12821C14.7687 4.56478 14.3148 4.10724 13.7563 4.10724ZM2.24371 7.24028C1.28212 7.24028 0.5 8.02901 0.5 8.99873V10.2535H3.98759V8.99873C3.98759 8.02901 3.20547 7.24028 2.24371 7.24028ZM2.24371 4.10724C1.685 4.10724 1.23129 4.56478 1.23129 5.12821C1.23129 5.69164 1.685 6.14918 2.24371 6.14918C2.80241 6.14918 3.25612 5.69164 3.25612 5.12821C3.25612 4.56478 2.80241 4.10724 2.24371 4.10724ZM10.5396 11.9832C10.3991 11.9832 10.2856 11.8687 10.2856 11.7271V9.4803H5.71453V11.7271C5.71453 11.8687 5.60106 11.9832 5.46059 11.9832H0.5V15H15.5V11.9832H10.5396Z" fill="black"/>
<path d="M9.99271 8V6.55565C9.99271 5.44748 9.09888 4.54609 8 4.54609C6.90112 4.54609 6.00729 5.44765 6.00729 6.55565V8H9.99271Z" fill="#68A0FF"/>
<path d="M6.82841 2.1815C6.82841 1.52926 7.355 1 8 1C8.645 1 9.17159 1.52926 9.17159 2.1815C9.17159 2.83195 8.645 3.36121 8 3.36121C7.355 3.36121 6.82841 2.83195 6.82841 2.1815Z" fill="#68A0FF"/>
<path d="M12.0126 8.99873C12.0126 8.02901 12.7947 7.24028 13.7563 7.24028C14.7179 7.24028 15.5 8.02901 15.5 8.99873V10.2535H12.0126V8.99873Z" fill="#68A0FF"/>
<path d="M12.7439 5.12821C12.7439 4.56478 13.1976 4.10724 13.7563 4.10724C14.3148 4.10724 14.7687 4.56478 14.7687 5.12821C14.7687 5.69164 14.315 6.14918 13.7563 6.14918C13.1976 6.14918 12.7439 5.69164 12.7439 5.12821Z" fill="#68A0FF"/>
<path d="M0.5 8.99873C0.5 8.02901 1.28212 7.24028 2.24371 7.24028C3.20547 7.24028 3.98759 8.02901 3.98759 8.99873V10.2535H0.5V8.99873Z" fill="#68A0FF"/>
<path d="M1.23129 5.12821C1.23129 4.56478 1.685 4.10724 2.24371 4.10724C2.80241 4.10724 3.25612 4.56478 3.25612 5.12821C3.25612 5.69164 2.80241 6.14918 2.24371 6.14918C1.685 6.14918 1.23129 5.69164 1.23129 5.12821Z" fill="#68A0FF"/>
<path d="M9.99322 8V6.55565C9.99322 5.44748 9.0994 4.54609 8.00052 4.54609C6.90164 4.54609 6.00781 5.44765 6.00781 6.55565V8H9.99322Z" fill="black"/>
<path d="M6.82893 2.1815C6.82893 1.52926 7.35552 1 8.00052 1C8.64552 1 9.17211 1.52926 9.17211 2.1815C9.17211 2.83195 8.64552 3.36121 8.00052 3.36121C7.35552 3.36121 6.82893 2.83195 6.82893 2.1815Z" fill="black"/>
</svg>
