<svg width="16" height="16" viewBox="0 0 16 16" fill="none" xmlns="http://www.w3.org/2000/svg">
<rect width="16" height="16" rx="8" fill="#F85640"/>
<path d="M5.138 5.316V8.133C5.138 8.169 5.15 8.202 5.174 8.232C5.204 8.256 5.237 8.268 5.273 8.268H7.325V6.468H5.246L5.561 5.316H7.325V4.29H8.648V5.316H11.591C11.735 5.31 11.864 5.355 11.978 5.451C12.098 5.541 12.158 5.649 12.158 5.775V8.313C12.158 8.445 12.107 8.556 12.005 8.646L11.285 9.303C11.183 9.375 11.081 9.411 10.979 9.411H8.648V11.274H7.325V9.411H4.355C4.199 9.411 4.07 9.366 3.968 9.276C3.872 9.186 3.824 9.075 3.824 8.943V5.316H5.138ZM8.648 6.468V8.268H10.709C10.745 8.268 10.775 8.256 10.799 8.232C10.829 8.202 10.844 8.169 10.844 8.133V6.594C10.844 6.558 10.829 6.528 10.799 6.504C10.775 6.48 10.745 6.468 10.709 6.468H8.648Z" fill="white"/>
</svg>
