<svg width="18" height="18" viewBox="0 0 18 18" fill="none" xmlns="http://www.w3.org/2000/svg">
<path d="M11.9259 1.8616C12.014 1.91267 12.0821 1.99209 12.1192 2.0869C12.1563 2.18172 12.1602 2.28631 12.1302 2.3836L10.5093 7.6504H13.5C13.5879 7.65037 13.6739 7.67607 13.7473 7.72434C13.8207 7.7726 13.8785 7.84132 13.9133 7.92201C13.9481 8.0027 13.9586 8.09183 13.9434 8.17839C13.9281 8.26495 13.8879 8.34515 13.8276 8.4091L6.62758 16.0591C6.55792 16.1332 6.46521 16.1815 6.36458 16.1961C6.26395 16.2108 6.16132 16.1909 6.07343 16.1398C5.98553 16.0886 5.91756 16.0092 5.88058 15.9145C5.8436 15.8197 5.83979 15.7153 5.86978 15.6181L7.49068 10.3504H4.49998C4.41209 10.3504 4.32612 10.3247 4.25267 10.2765C4.17922 10.2282 4.12151 10.1595 4.08667 10.0788C4.05183 9.9981 4.04138 9.90897 4.05661 9.82241C4.07185 9.73585 4.11209 9.65565 4.17238 9.5917L11.3724 1.9417C11.442 1.86772 11.5345 1.81945 11.635 1.80475C11.7355 1.79004 11.838 1.80976 11.9259 1.8607V1.8616Z" fill="#FFFF00"/>
</svg>
