<svg width="23" height="24" viewBox="0 0 23 24" fill="none" xmlns="http://www.w3.org/2000/svg">
<rect width="23" height="24" rx="11.5" fill="#92B8F9"/>
<path d="M13.3744 11.4489C12.8429 11.1873 12.2827 10.9895 11.7225 10.7853C11.3993 10.6641 11.0905 10.5237 10.8176 10.3323C10.2789 9.94949 10.3795 9.33059 11.0115 9.08813C11.1911 9.01794 11.3778 8.9988 11.5645 8.98604C12.2971 8.94776 12.9865 9.06899 13.6473 9.35611C13.9777 9.49648 14.0854 9.45181 14.1931 9.15193C14.308 8.83291 14.4086 8.50113 14.5163 8.17573C14.5881 7.95879 14.5019 7.81204 14.2649 7.72272C13.8412 7.55683 13.4031 7.4356 12.9506 7.37179C12.3545 7.28885 12.3545 7.28885 12.3545 6.75289C12.3617 6 12.3617 6 11.5142 6C11.3922 6 11.2701 6 11.148 6C10.753 6.01276 10.6811 6.07019 10.674 6.42749C10.6668 6.587 10.674 6.74651 10.674 6.90602C10.674 7.37817 10.6668 7.37179 10.164 7.5313C8.93592 7.92689 8.17463 8.6734 8.09563 9.86016C8.02381 10.9129 8.64146 11.6275 9.61821 12.1444C10.2215 12.4634 10.8822 12.6548 11.5142 12.9036C11.7656 12.9993 11.9954 13.1142 12.2037 13.2673C12.8142 13.7139 12.6993 14.4605 11.9811 14.7412C11.5932 14.8943 11.1839 14.9326 10.7601 14.8816C10.1066 14.8114 9.48893 14.6582 8.90001 14.3903C8.55528 14.2308 8.45473 14.2754 8.33982 14.6008C8.23927 14.8879 8.15308 15.1751 8.05972 15.4622C7.93763 15.8514 7.98072 15.9407 8.39727 16.1194C8.92874 16.3491 9.49611 16.4639 10.0707 16.5469C10.5231 16.6107 10.5375 16.6298 10.5447 17.0445C10.5447 17.2359 10.5447 17.421 10.5519 17.6124C10.5519 17.8485 10.6811 17.9888 10.9612 17.9952C11.2772 18.0016 11.5861 18.0016 11.9021 17.9952C12.1606 17.9888 12.2899 17.8676 12.2899 17.6379C12.2899 17.3763 12.3043 17.1211 12.2899 16.8595C12.2755 16.5979 12.4048 16.4639 12.6921 16.3937C13.3456 16.2342 13.9058 15.9216 14.3368 15.4558C15.5218 14.167 15.0693 12.2783 13.3744 11.4489Z" fill="white"/>
<circle cx="11.5" cy="12" r="7" fill="#9FC2FF" stroke="white"/>
<g filter="url(#filter0_i_644_5539)">
<circle cx="11.4998" cy="12" r="5.38462" fill="#9FC2FF"/>
</g>
<g filter="url(#filter1_d_644_5539)">
<path fill-rule="evenodd" clip-rule="evenodd" d="M11.9653 15.2446C11.674 15.0915 11.326 15.0915 11.0347 15.2446L9.76676 15.9112C9.03313 16.2969 8.1757 15.6739 8.31581 14.857L8.55796 13.4452C8.6136 13.1208 8.50605 12.7898 8.27036 12.5601L7.24461 11.5602C6.65109 10.9817 6.9786 9.97372 7.79882 9.85453L9.21638 9.64855C9.54209 9.60122 9.82365 9.39665 9.96932 9.10151L10.6033 7.81699C10.9701 7.07374 12.0299 7.07374 12.3967 7.81699L13.0307 9.10151C13.1763 9.39665 13.4579 9.60122 13.7836 9.64855L15.2012 9.85453C16.0214 9.97372 16.3489 10.9817 15.7554 11.5602L14.7296 12.5601C14.494 12.7898 14.3864 13.1208 14.442 13.4452L14.6842 14.857C14.8243 15.6739 13.9669 16.2969 13.2332 15.9112L11.9653 15.2446Z" fill="white"/>
</g>
<defs>
<filter id="filter0_i_644_5539" x="6.11523" y="6.61536" width="10.7695" height="11.7693" filterUnits="userSpaceOnUse" color-interpolation-filters="sRGB">
<feFlood flood-opacity="0" result="BackgroundImageFix"/>
<feBlend mode="normal" in="SourceGraphic" in2="BackgroundImageFix" result="shape"/>
<feColorMatrix in="SourceAlpha" type="matrix" values="0 0 0 0 0 0 0 0 0 0 0 0 0 0 0 0 0 0 127 0" result="hardAlpha"/>
<feOffset dy="1"/>
<feGaussianBlur stdDeviation="1.5"/>
<feComposite in2="hardAlpha" operator="arithmetic" k2="-1" k3="1"/>
<feColorMatrix type="matrix" values="0 0 0 0 0.154583 0 0 0 0 0.424848 0 0 0 0 0.883333 0 0 0 1 0"/>
<feBlend mode="normal" in2="shape" result="effect1_innerShadow_644_5539"/>
</filter>
<filter id="filter1_d_644_5539" x="2.94141" y="5.25952" width="17.1172" height="16.7688" filterUnits="userSpaceOnUse" color-interpolation-filters="sRGB">
<feFlood flood-opacity="0" result="BackgroundImageFix"/>
<feColorMatrix in="SourceAlpha" type="matrix" values="0 0 0 0 0 0 0 0 0 0 0 0 0 0 0 0 0 0 127 0" result="hardAlpha"/>
<feOffset dy="2"/>
<feGaussianBlur stdDeviation="2"/>
<feColorMatrix type="matrix" values="0 0 0 0 0.266667 0 0 0 0 0.538631 0 0 0 0 1 0 0 0 1 0"/>
<feBlend mode="normal" in2="BackgroundImageFix" result="effect1_dropShadow_644_5539"/>
<feBlend mode="normal" in="SourceGraphic" in2="effect1_dropShadow_644_5539" result="shape"/>
</filter>
</defs>
</svg>
