<svg width="10" height="11" viewBox="0 0 10 11" fill="none" xmlns="http://www.w3.org/2000/svg">
<path d="M4.22242 1.06138C4.17249 1.75797 3.89285 3.26349 2.51716 4.8614C2.56293 4.45194 2.52465 4.11987 2.45474 3.86188C2.39315 3.63467 2.07357 3.63135 2.01282 3.85855C1.92127 4.20226 1.73984 4.67581 1.38614 5.28335C0.680396 6.49842 0.553063 8.60233 3.15382 9.79327C4.24656 10.2935 5.50574 10.3217 6.61263 9.85486C9.70607 8.55073 9.05942 5.61042 8.84803 5.00122C8.63331 4.3504 7.99748 3.29845 7.35332 2.66095C7.24347 2.55193 7.05871 2.63515 7.06703 2.78912C7.09782 3.33673 7.00045 3.81943 6.75993 4.12154C6.74162 3.58391 6.60763 1.90943 4.61441 0.844163C4.4438 0.753449 4.23574 0.867466 4.22242 1.06138Z" fill="white"/>
</svg>
