<svg width="16" height="16" viewBox="0 0 16 16" fill="none" xmlns="http://www.w3.org/2000/svg">
<path fill-rule="evenodd" clip-rule="evenodd" d="M8.37501 4.20809C8.37501 2.36976 9.87001 0.874756 11.7083 0.874756C13.5467 0.874756 15.0417 2.36976 15.0417 4.20809V6.70809C15.0417 6.9291 14.9539 7.14106 14.7976 7.29734C14.6413 7.45362 14.4294 7.54142 14.2083 7.54142C13.9873 7.54142 13.7754 7.45362 13.6191 7.29734C13.4628 7.14106 13.375 6.9291 13.375 6.70809V4.20809C13.375 3.76606 13.1994 3.34214 12.8869 3.02958C12.5743 2.71702 12.1504 2.54142 11.7083 2.54142C11.2663 2.54142 10.8424 2.71702 10.5298 3.02958C10.2173 3.34214 10.0417 3.76606 10.0417 4.20809V5.87476H10.875C11.317 5.87476 11.741 6.05035 12.0535 6.36291C12.3661 6.67547 12.5417 7.09939 12.5417 7.54142V13.3748C12.5417 13.8168 12.3661 14.2407 12.0535 14.5533C11.741 14.8658 11.317 15.0414 10.875 15.0414H2.54167C2.09965 15.0414 1.67572 14.8658 1.36316 14.5533C1.0506 14.2407 0.875008 13.8168 0.875008 13.3748V7.54142C0.875008 7.09939 1.0506 6.67547 1.36316 6.36291C1.67572 6.05035 2.09965 5.87476 2.54167 5.87476H5.04167H8.37501V4.20809ZM2.54167 13.3748H10.875L10.8775 7.54142H2.54167V13.3748ZM7.79158 11.7078C7.79158 12.3062 7.30656 12.7912 6.70825 12.7912C6.10994 12.7912 5.62492 12.3062 5.62492 11.7078C5.62492 11.1095 6.10994 10.6245 6.70825 10.6245C7.30656 10.6245 7.79158 11.1095 7.79158 11.7078Z" fill="#9FC2FF"/>
</svg>
