<svg width="5" height="8" viewBox="0 0 5 8" fill="none" xmlns="http://www.w3.org/2000/svg">
<path d="M4.50485 1.226L1.7271 4.00375L4.50485 6.7815C4.57113 6.84778 4.62371 6.92647 4.65958 7.01307C4.69545 7.09967 4.71391 7.19248 4.71391 7.28622C4.71391 7.37995 4.69545 7.47277 4.65958 7.55937C4.62371 7.64597 4.57113 7.72466 4.50485 7.79094C4.43857 7.85722 4.35988 7.9098 4.27328 7.94567C4.18668 7.98154 4.09387 8 4.00013 8C3.9064 8 3.81358 7.98154 3.72698 7.94567C3.64038 7.9098 3.56169 7.85722 3.49541 7.79094L0.209365 4.50489C0.142997 4.43866 0.0903435 4.35999 0.0544178 4.27338C0.0184922 4.18677 0 4.09393 0 4.00017C0 3.90641 0.0184922 3.81357 0.0544178 3.72696C0.0903435 3.64035 0.142997 3.56168 0.209365 3.49545L3.49541 0.209405C3.77462 -0.0698013 4.22565 -0.0698013 4.50485 0.209405C4.7769 0.488612 4.78406 0.946796 4.50485 1.226Z" fill="#4A4A4A"/>
</svg>
