<svg width="5" height="8" viewBox="0 0 5 8" fill="none" xmlns="http://www.w3.org/2000/svg">
<path d="M0.495148 1.226L3.2729 4.00375L0.495148 6.7815C0.428867 6.84778 0.376291 6.92647 0.34042 7.01307C0.304549 7.09967 0.286086 7.19248 0.286086 7.28622C0.286086 7.37995 0.304549 7.47277 0.34042 7.55937C0.376291 7.64597 0.428867 7.72466 0.495148 7.79094C0.561429 7.85722 0.640115 7.9098 0.726716 7.94567C0.813315 7.98154 0.906133 8 0.999867 8C1.0936 8 1.18642 7.98154 1.27302 7.94567C1.35962 7.9098 1.43831 7.85722 1.50459 7.79094L4.79063 4.50489C4.857 4.43866 4.90966 4.35999 4.94558 4.27338C4.98151 4.18677 5 4.09393 5 4.00017C5 3.90641 4.98151 3.81357 4.94558 3.72696C4.90966 3.64035 4.857 3.56168 4.79063 3.49545L1.50459 0.209405C1.22538 -0.0698013 0.774354 -0.0698013 0.495148 0.209405C0.223101 0.488612 0.215941 0.946796 0.495148 1.226Z" fill="#4A4A4A"/>
</svg>
