<svg width="36" height="36" viewBox="0 0 36 36" fill="none" xmlns="http://www.w3.org/2000/svg">
<circle cx="18" cy="18" r="18" fill="black" fill-opacity="0.2"/>
<path d="M12.452 22.0097L18.0075 16.4542L23.563 22.0097C23.6956 22.1423 23.8529 22.2474 24.0261 22.3192C24.1993 22.3909 24.385 22.4278 24.5724 22.4278C24.7599 22.4278 24.9455 22.3909 25.1187 22.3192C25.2919 22.2474 25.4493 22.1423 25.5819 22.0097C25.7144 21.8771 25.8196 21.7198 25.8913 21.5466C25.9631 21.3734 26 21.1877 26 21.0003C26 20.8128 25.9631 20.6272 25.8913 20.454C25.8196 20.2808 25.7144 20.1234 25.5819 19.9908L19.0098 13.4187C18.8773 13.286 18.72 13.1807 18.5468 13.1088C18.3735 13.037 18.1879 13 18.0003 13C17.8128 13 17.6271 13.037 17.4539 13.1088C17.2807 13.1807 17.1234 13.286 16.9909 13.4187L10.4188 19.9908C9.8604 20.5492 9.8604 21.4513 10.4188 22.0097C10.9772 22.5538 11.8936 22.5681 12.452 22.0097Z" fill="white"/>
</svg>
