<svg width="16" height="16" viewBox="0 0 16 16" fill="none" xmlns="http://www.w3.org/2000/svg">
<rect width="16" height="16" rx="8" fill="#BFBFBF"/>
<path d="M5.29269 4.8345H7.91469C8.63669 4.8345 9.20669 4.8915 9.62469 5.0055C10.0427 5.11317 10.3499 5.30317 10.5462 5.5755C10.7425 5.84783 10.8407 6.22467 10.8407 6.706V9.214C10.8407 9.68267 10.7489 10.0468 10.5652 10.3065C10.3815 10.5598 10.0807 10.7403 9.66269 10.848C9.24469 10.9493 8.66519 11 7.92419 11H5.29269V4.8345ZM7.85769 9.9455C8.26302 9.9455 8.56702 9.92967 8.76969 9.898C8.97869 9.86 9.12752 9.79033 9.21619 9.689C9.31119 9.58767 9.35869 9.42933 9.35869 9.214V6.6775C9.35869 6.38617 9.24152 6.1835 9.00719 6.0695C8.77919 5.94917 8.41185 5.889 7.90519 5.889H6.77469V9.9455H7.85769Z" fill="white"/>
</svg>
