<svg width="18" height="18" viewBox="0 0 18 18" fill="none" xmlns="http://www.w3.org/2000/svg">
<g id="Group 513384">
<path id="Vector" d="M8.96647 11.6666C10.4392 11.6666 11.6331 10.4727 11.6331 8.99992C11.6331 7.52716 10.4392 6.33325 8.96647 6.33325C7.49371 6.33325 6.2998 7.52716 6.2998 8.99992C6.2998 10.4727 7.49371 11.6666 8.96647 11.6666Z" stroke="#4489FF" stroke-width="1.5"/>
<path id="Vector_2" d="M10.3645 1.1216C10.0738 1 9.70477 1 8.96667 1C8.22857 1 7.85952 1 7.56887 1.1216C7.37657 1.20201 7.20184 1.31992 7.05468 1.46858C6.90751 1.61724 6.79079 1.79374 6.71119 1.988C6.63833 2.1664 6.60903 2.3752 6.59794 2.6784C6.593 2.89759 6.533 3.11192 6.42356 3.30126C6.31412 3.49059 6.15884 3.64872 5.9723 3.7608C5.78294 3.86803 5.5697 3.92488 5.35262 3.926C5.13554 3.92712 4.92174 3.87248 4.73131 3.7672C4.46521 3.6248 4.27277 3.5464 4.08191 3.5208C3.6656 3.4655 3.24458 3.57945 2.9114 3.8376C2.66273 4.032 2.47741 4.3544 2.10837 5C1.73932 5.6456 1.554 5.968 1.51361 6.284C1.48639 6.49236 1.50008 6.7041 1.55389 6.90712C1.6077 7.11013 1.70058 7.30045 1.82722 7.4672C1.94443 7.6208 2.10837 7.7496 2.36258 7.9112C2.73718 8.1488 2.97793 8.5536 2.97793 9C2.97793 9.4464 2.73718 9.8512 2.36258 10.088C2.10837 10.2504 1.94364 10.3792 1.82722 10.5328C1.70058 10.6995 1.6077 10.8899 1.55389 11.0929C1.50008 11.2959 1.48639 11.5076 1.51361 11.716C1.55479 12.0312 1.73932 12.3544 2.10757 13C2.47741 13.6456 2.66194 13.968 2.9114 14.1624C3.07648 14.2903 3.26488 14.3841 3.46585 14.4385C3.66683 14.4929 3.87644 14.5067 4.0827 14.4792C4.27277 14.4536 4.46521 14.3752 4.73131 14.2328C4.92174 14.1275 5.13554 14.0729 5.35262 14.074C5.5697 14.0751 5.78294 14.132 5.9723 14.2392C6.35481 14.4632 6.5821 14.8752 6.59794 15.3216C6.60903 15.6256 6.63754 15.8336 6.71119 16.012C6.79079 16.2063 6.90751 16.3828 7.05468 16.5314C7.20184 16.6801 7.37657 16.798 7.56887 16.8784C7.85952 17 8.22857 17 8.96667 17C9.70477 17 10.0738 17 10.3645 16.8784C10.5568 16.798 10.7315 16.6801 10.8787 16.5314C11.0258 16.3828 11.1425 16.2063 11.2221 16.012C11.295 15.8336 11.3243 15.6256 11.3354 15.3216C11.3512 14.8752 11.5785 14.4624 11.961 14.2392C12.1504 14.132 12.3636 14.0751 12.5807 14.074C12.7978 14.0729 13.0116 14.1275 13.202 14.2328C13.4681 14.3752 13.6606 14.4536 13.8506 14.4792C14.0569 14.5067 14.2665 14.4929 14.4675 14.4385C14.6685 14.3841 14.8569 14.2903 15.0219 14.1624C15.2714 13.9688 15.4559 13.6456 15.825 13C16.194 12.3544 16.3793 12.032 16.4197 11.716C16.4469 11.5076 16.4333 11.2959 16.3794 11.0929C16.3256 10.8899 16.2328 10.6995 16.1061 10.5328C15.9889 10.3792 15.825 10.2504 15.5708 10.0888C15.3852 9.97489 15.2314 9.8152 15.1238 9.62474C15.0161 9.43428 14.9582 9.2193 14.9554 9C14.9554 8.5536 15.1962 8.1488 15.5708 7.912C15.825 7.7496 15.9897 7.6208 16.1061 7.4672C16.2328 7.30045 16.3256 7.11013 16.3794 6.90712C16.4333 6.7041 16.4469 6.49236 16.4197 6.284C16.3785 5.9688 16.194 5.6456 15.8258 5C15.4559 4.3544 15.2714 4.032 15.0219 3.8376C14.8569 3.70967 14.6685 3.61585 14.4675 3.56149C14.2665 3.50714 14.0569 3.49331 13.8506 3.5208C13.6606 3.5464 13.4681 3.6248 13.2012 3.7672C13.0109 3.87233 12.7972 3.9269 12.5803 3.92578C12.3634 3.92466 12.1503 3.86789 11.961 3.7608C11.7745 3.64872 11.6192 3.49059 11.5098 3.30126C11.4003 3.11192 11.3403 2.89759 11.3354 2.6784C11.3243 2.3744 11.2958 2.1664 11.2221 1.988C11.1425 1.79374 11.0258 1.61724 10.8787 1.46858C10.7315 1.31992 10.5568 1.20201 10.3645 1.1216Z" stroke="#4489FF" stroke-width="1.5"/>
</g>
</svg>
