<svg width="20" height="20" viewBox="0 0 20 20" fill="none" xmlns="http://www.w3.org/2000/svg">
<rect width="20" height="20" fill="white"/>
<path d="M9.96647 12.6666C11.4392 12.6666 12.6331 11.4727 12.6331 9.99992C12.6331 8.52716 11.4392 7.33325 9.96647 7.33325C8.49371 7.33325 7.2998 8.52716 7.2998 9.99992C7.2998 11.4727 8.49371 12.6666 9.96647 12.6666Z" stroke="#8D8D8D" stroke-width="1.5"/>
<path d="M11.3645 2.1216C11.0738 2 10.7048 2 9.96667 2C9.22857 2 8.85952 2 8.56887 2.1216C8.37657 2.20201 8.20184 2.31992 8.05468 2.46858C7.90751 2.61724 7.79079 2.79374 7.71119 2.988C7.63833 3.1664 7.60903 3.3752 7.59794 3.6784C7.593 3.89759 7.533 4.11192 7.42356 4.30126C7.31412 4.49059 7.15884 4.64872 6.9723 4.7608C6.78294 4.86803 6.5697 4.92488 6.35262 4.926C6.13554 4.92712 5.92174 4.87248 5.73131 4.7672C5.46521 4.6248 5.27277 4.5464 5.08191 4.5208C4.6656 4.4655 4.24458 4.57945 3.9114 4.8376C3.66273 5.032 3.47741 5.3544 3.10837 6C2.73932 6.6456 2.554 6.968 2.51361 7.284C2.48639 7.49236 2.50008 7.7041 2.55389 7.90712C2.6077 8.11013 2.70058 8.30045 2.82722 8.4672C2.94443 8.6208 3.10837 8.7496 3.36258 8.9112C3.73718 9.1488 3.97793 9.5536 3.97793 10C3.97793 10.4464 3.73718 10.8512 3.36258 11.088C3.10837 11.2504 2.94364 11.3792 2.82722 11.5328C2.70058 11.6995 2.6077 11.8899 2.55389 12.0929C2.50008 12.2959 2.48639 12.5076 2.51361 12.716C2.55479 13.0312 2.73932 13.3544 3.10757 14C3.47741 14.6456 3.66194 14.968 3.9114 15.1624C4.07648 15.2903 4.26488 15.3841 4.46585 15.4385C4.66683 15.4929 4.87644 15.5067 5.0827 15.4792C5.27277 15.4536 5.46521 15.3752 5.73131 15.2328C5.92174 15.1275 6.13554 15.0729 6.35262 15.074C6.5697 15.0751 6.78294 15.132 6.9723 15.2392C7.35481 15.4632 7.5821 15.8752 7.59794 16.3216C7.60903 16.6256 7.63754 16.8336 7.71119 17.012C7.79079 17.2063 7.90751 17.3828 8.05468 17.5314C8.20184 17.6801 8.37657 17.798 8.56887 17.8784C8.85952 18 9.22857 18 9.96667 18C10.7048 18 11.0738 18 11.3645 17.8784C11.5568 17.798 11.7315 17.6801 11.8787 17.5314C12.0258 17.3828 12.1425 17.2063 12.2221 17.012C12.295 16.8336 12.3243 16.6256 12.3354 16.3216C12.3512 15.8752 12.5785 15.4624 12.961 15.2392C13.1504 15.132 13.3636 15.0751 13.5807 15.074C13.7978 15.0729 14.0116 15.1275 14.202 15.2328C14.4681 15.3752 14.6606 15.4536 14.8506 15.4792C15.0569 15.5067 15.2665 15.4929 15.4675 15.4385C15.6685 15.3841 15.8569 15.2903 16.0219 15.1624C16.2714 14.9688 16.4559 14.6456 16.825 14C17.194 13.3544 17.3793 13.032 17.4197 12.716C17.4469 12.5076 17.4333 12.2959 17.3794 12.0929C17.3256 11.8899 17.2328 11.6995 17.1061 11.5328C16.9889 11.3792 16.825 11.2504 16.5708 11.0888C16.3852 10.9749 16.2314 10.8152 16.1238 10.6247C16.0161 10.4343 15.9582 10.2193 15.9554 10C15.9554 9.5536 16.1962 9.1488 16.5708 8.912C16.825 8.7496 16.9897 8.6208 17.1061 8.4672C17.2328 8.30045 17.3256 8.11013 17.3794 7.90712C17.4333 7.7041 17.4469 7.49236 17.4197 7.284C17.3785 6.9688 17.194 6.6456 16.8258 6C16.4559 5.3544 16.2714 5.032 16.0219 4.8376C15.8569 4.70967 15.6685 4.61585 15.4675 4.56149C15.2665 4.50714 15.0569 4.49331 14.8506 4.5208C14.6606 4.5464 14.4681 4.6248 14.2012 4.7672C14.0109 4.87233 13.7972 4.9269 13.5803 4.92578C13.3634 4.92466 13.1503 4.86789 12.961 4.7608C12.7745 4.64872 12.6192 4.49059 12.5098 4.30126C12.4003 4.11192 12.3403 3.89759 12.3354 3.6784C12.3243 3.3744 12.2958 3.1664 12.2221 2.988C12.1425 2.79374 12.0258 2.61724 11.8787 2.46858C11.7315 2.31992 11.5568 2.20201 11.3645 2.1216Z" stroke="#8D8D8D" stroke-width="1.5"/>
</svg>
