<svg width="24" height="25" viewBox="0 0 24 25" fill="none" xmlns="http://www.w3.org/2000/svg">
<path d="M4.32326 3.56135C4.15592 3.39401 3.92896 3.3 3.69231 3.3C3.45565 3.3 3.22869 3.39401 3.06135 3.56135C2.89401 3.72869 2.8 3.95565 2.8 4.19231V18.3846C2.8 19.2639 3.1493 20.1072 3.77105 20.7289C4.39281 21.3507 5.23609 21.7 6.11538 21.7H20.3077C20.5443 21.7 20.7713 21.606 20.9386 21.4387C21.106 21.2713 21.2 21.0443 21.2 20.8077C21.2 20.571 21.106 20.3441 20.9387 20.1767C20.7713 20.0094 20.5443 19.9154 20.3077 19.9154H6.11538C5.7094 19.9154 5.32004 19.7541 5.03297 19.467C4.74589 19.18 4.58462 18.7906 4.58462 18.3846V4.19231C4.58462 3.95565 4.4906 3.72869 4.32326 3.56135Z" fill="#4489FF" stroke="#4489FF" stroke-width="0.4"/>
<path opacity="0.2" d="M14.1894 4.97108C14.1894 4.46685 14.5986 4.05762 15.1029 4.05762H20.2182C20.7225 4.05762 21.1317 4.46685 21.1317 4.97108V10.0865C21.1317 10.3287 21.0355 10.5611 20.8642 10.7324C20.6929 10.9037 20.4605 10.9999 20.2182 10.9999C19.976 10.9999 19.7436 10.9037 19.5723 10.7324C19.401 10.5611 19.3048 10.3287 19.3048 10.0865V7.17946L14.4729 12.0113C14.3881 12.0962 14.2874 12.1635 14.1766 12.2094C14.0657 12.2553 13.9469 12.2789 13.8269 12.2789C13.707 12.2789 13.5882 12.2553 13.4773 12.2094C13.3665 12.1635 13.2658 12.0962 13.1809 12.0113L10.9039 9.73423L6.98256 13.6555C6.81123 13.8269 6.57885 13.9231 6.33656 13.9231C6.09426 13.9231 5.86189 13.8269 5.69056 13.6555C5.51923 13.4842 5.42297 13.2518 5.42297 13.0095C5.42297 12.7672 5.51923 12.5349 5.69056 12.3635L10.2579 7.79623C10.3427 7.71138 10.4434 7.64408 10.5542 7.59816C10.6651 7.55224 10.7839 7.5286 10.9039 7.5286C11.0238 7.5286 11.1426 7.55224 11.2535 7.59816C11.3643 7.64408 11.465 7.71138 11.5499 7.79623L13.8269 10.0733L18.0157 5.88454H15.1029C14.5986 5.88454 14.1894 5.47531 14.1894 4.97108Z" fill="#4A4A4A"/>
<path d="M11.084 9.904L10.448 11.62H11.648L11.312 9.904L11.264 9.4H11.228L11.084 9.904ZM10.172 7H12.728L14.66 16H12.5L12.02 13.54H9.72805L8.81605 16H6.65605L10.172 7ZM18.4703 7L17.6663 16H15.5063L16.3103 7H18.4703Z" fill="#4A4A4A"/>
</svg>
