<svg width="24" height="25" viewBox="0 0 24 25" fill="none" xmlns="http://www.w3.org/2000/svg">
<g id="News">
<g id="Group 513362">
<path id="Vector" d="M18.0476 10.6631C18.039 5.88442 14.3161 1.9766 9.512 1.95013L9.51199 1.95013C4.83674 1.92367 0.967332 5.80502 0.950059 10.6455C0.932787 15.4504 4.72433 19.4377 9.5119 19.4201C14.195 19.4024 18.0562 15.6182 18.0476 10.6631ZM16.3157 10.6634C16.3328 14.5642 13.2543 17.6278 9.49456 17.6453C5.72671 17.6366 2.67349 14.5296 2.69055 10.6634C2.70761 6.77937 5.75241 3.71614 9.50306 3.7161C13.3391 3.72484 16.2986 6.84887 16.3157 10.6634Z" fill="#BFBFBF" stroke="#BFBFBF" stroke-width="0.1"/>
<path id="Vector_2" d="M8.06055 11.3119C8.06055 10.1106 8.06055 8.90058 8.06055 7.69933C8.06055 7.17324 8.06055 6.64714 8.06055 6.12104C8.06055 5.97198 8.08631 5.94568 8.23233 5.94568C9.07404 5.94568 9.92435 5.94568 10.7661 5.94568C10.9464 5.94568 10.955 5.96322 10.955 6.14735C10.955 9.339 10.955 12.5394 10.955 15.7311C10.955 15.9853 10.955 16.2396 10.955 16.4939C10.955 16.6517 10.9293 16.6517 10.7832 16.6868C10.1219 16.8534 9.45196 16.8534 8.78202 16.792C8.5673 16.7745 8.36116 16.7219 8.15503 16.678C8.07772 16.6605 8.06055 16.5991 8.06055 16.529C8.06055 16.2221 8.06055 15.924 8.06055 15.6171C8.06055 14.1791 8.06055 12.7411 8.06055 11.3119Z" fill="#D9D9D9"/>
<path id="Vector_3" d="M11.7959 13.127C11.7959 12.1186 11.7959 11.1191 11.7959 10.1107C11.7959 9.92657 11.8217 9.90027 11.9934 9.90027C12.8352 9.90027 13.6769 9.90027 14.5186 9.90027C14.6646 9.90027 14.699 9.92657 14.699 10.0844C14.699 11.2681 14.699 12.4518 14.699 13.6443C14.699 13.7846 14.6474 13.8986 14.5787 14.0038C14.3296 14.4247 14.0118 14.793 13.6597 15.1174C13.4278 15.3366 13.1787 15.547 12.9296 15.7399C12.7321 15.889 12.5088 16.003 12.2941 16.1257C12.1996 16.1871 12.0879 16.231 11.9934 16.2836C11.856 16.3625 11.7959 16.3274 11.7959 16.1696C11.7959 15.1525 11.7959 14.1441 11.7959 13.127Z" fill="#BFBFBF"/>
<path id="Vector_4" d="M7.20152 14.2493C7.20152 14.8718 7.20152 15.4944 7.20152 16.1169C7.20152 16.1608 7.20152 16.2046 7.20152 16.2485C7.20152 16.3362 7.14999 16.3712 7.07269 16.3274C6.90949 16.2485 6.7463 16.1783 6.5917 16.0819C6.38557 15.9591 6.17943 15.8276 5.99048 15.6873C5.62115 15.4242 5.27759 15.1261 4.99416 14.7666C4.77943 14.4948 4.58189 14.2142 4.38434 13.9336C4.3414 13.8723 4.32422 13.7934 4.32422 13.7232C4.32422 13.2497 4.32422 12.7762 4.32422 12.3027C4.32422 12.1888 4.35857 12.1537 4.47023 12.1537C5.33772 12.1537 6.2052 12.1537 7.07269 12.1537C7.19293 12.1537 7.21011 12.18 7.21011 12.3203C7.21011 12.9691 7.21011 13.6092 7.21011 14.2581L7.20152 14.2493Z" fill="#D9D9D9"/>
<path id="Vector_5" d="M20.6596 23C20.6596 23 20.5995 23 20.5652 23C19.8866 22.9825 19.2253 22.6931 18.7615 22.1845C17.6964 21.0008 16.6142 19.8522 15.5492 18.6772C15.4633 18.5808 15.3774 18.4931 15.2915 18.4054C15.1799 18.2914 15.1885 18.2476 15.3087 18.1511C15.9185 17.6689 16.4682 17.2217 16.8461 16.529C16.8977 16.4326 16.9578 16.415 17.0437 16.4852C18.3406 17.5987 19.6891 18.7123 20.9946 19.8434C21.2694 20.0802 21.6388 20.4747 21.802 20.8079C22.3001 21.8426 21.8277 22.9649 20.6596 23Z" fill="#D9D9D9"/>
</g>
</g>
</svg>
