<svg width="24" height="25" viewBox="0 0 24 25" fill="none" xmlns="http://www.w3.org/2000/svg">
<g id="News">
<g id="Group 513362">
<path id="Vector" d="M18.0476 10.6631C18.039 5.88442 14.3161 1.9766 9.512 1.95013L9.51199 1.95013C4.83674 1.92367 0.967332 5.80502 0.950059 10.6455C0.932787 15.4504 4.72433 19.4377 9.5119 19.4201C14.195 19.4024 18.0562 15.6182 18.0476 10.6631ZM16.3157 10.6634C16.3328 14.5642 13.2543 17.6278 9.49456 17.6453C5.72671 17.6366 2.67349 14.5296 2.69055 10.6634C2.70761 6.77937 5.75241 3.71614 9.50306 3.7161C13.3391 3.72484 16.2986 6.84887 16.3157 10.6634Z" fill="#4A4A4A" stroke="#276CE1" stroke-width="0.1"/>
<path id="Vector_2" d="M8.06006 11.3119C8.06006 10.1106 8.06006 8.90058 8.06006 7.69933C8.06006 7.17324 8.06006 6.64714 8.06006 6.12104C8.06006 5.97198 8.08583 5.94568 8.23184 5.94568C9.07356 5.94568 9.92386 5.94568 10.7656 5.94568C10.9459 5.94568 10.9545 5.96322 10.9545 6.14735C10.9545 9.339 10.9545 12.5394 10.9545 15.7311C10.9545 15.9853 10.9545 16.2396 10.9545 16.4939C10.9545 16.6517 10.9288 16.6517 10.7828 16.6868C10.1214 16.8534 9.45147 16.8534 8.78153 16.792C8.56681 16.7745 8.36067 16.7219 8.15454 16.678C8.07724 16.6605 8.06006 16.5991 8.06006 16.529C8.06006 16.2221 8.06006 15.924 8.06006 15.6171C8.06006 14.1791 8.06006 12.7411 8.06006 11.3119Z" fill="#9FC2FF"/>
<path id="Vector_3" d="M11.7964 13.127C11.7964 12.1186 11.7964 11.1191 11.7964 10.1107C11.7964 9.92657 11.8222 9.90027 11.9939 9.90027C12.8357 9.90027 13.6774 9.90027 14.5191 9.90027C14.6651 9.90027 14.6995 9.92657 14.6995 10.0844C14.6995 11.2681 14.6995 12.4518 14.6995 13.6443C14.6995 13.7846 14.6479 13.8986 14.5792 14.0038C14.3301 14.4247 14.0123 14.793 13.6602 15.1174C13.4283 15.3366 13.1792 15.547 12.9301 15.7399C12.7326 15.889 12.5093 16.003 12.2945 16.1257C12.2001 16.1871 12.0884 16.231 11.9939 16.2836C11.8565 16.3625 11.7964 16.3274 11.7964 16.1696C11.7964 15.1525 11.7964 14.1441 11.7964 13.127Z" fill="#276CE1"/>
<path id="Vector_4" d="M7.20127 14.2493C7.20127 14.8718 7.20127 15.4944 7.20127 16.1169C7.20127 16.1608 7.20127 16.2046 7.20127 16.2485C7.20127 16.3362 7.14974 16.3712 7.07244 16.3274C6.90925 16.2485 6.74606 16.1783 6.59146 16.0819C6.38532 15.9591 6.17919 15.8276 5.99023 15.6873C5.62091 15.4242 5.27735 15.1261 4.99391 14.7666C4.77919 14.4948 4.58164 14.2142 4.3841 13.9336C4.34115 13.8723 4.32397 13.7934 4.32397 13.7232C4.32397 13.2497 4.32397 12.7762 4.32397 12.3027C4.32397 12.1888 4.35833 12.1537 4.46999 12.1537C5.33747 12.1537 6.20496 12.1537 7.07244 12.1537C7.19269 12.1537 7.20986 12.18 7.20986 12.3203C7.20986 12.9691 7.20986 13.6092 7.20986 14.2581L7.20127 14.2493Z" fill="#9FC2FF"/>
<path id="Vector_5" d="M20.6601 23C20.6601 23 20.6 23 20.5656 23C19.8871 22.9825 19.2258 22.6931 18.762 22.1845C17.6969 21.0008 16.6147 19.8522 15.5497 18.6772C15.4638 18.5808 15.3779 18.4931 15.292 18.4054C15.1804 18.2914 15.189 18.2476 15.3092 18.1511C15.919 17.6689 16.4687 17.2217 16.8466 16.529C16.8982 16.4326 16.9583 16.415 17.0442 16.4852C18.3411 17.5987 19.6896 18.7123 20.9951 19.8434C21.2699 20.0802 21.6393 20.4747 21.8025 20.8079C22.3006 21.8426 21.8282 22.9649 20.6601 23Z" fill="#9FC2FF"/>
</g>
</g>
</svg>
