<svg width="24" height="25" viewBox="0 0 24 25" fill="none" xmlns="http://www.w3.org/2000/svg">
<g id="Data">
<g id="Group 513373">
<path id="Vector" d="M4.32326 3.56135C4.15592 3.39401 3.92896 3.3 3.69231 3.3C3.45565 3.3 3.22869 3.39401 3.06135 3.56135C2.89401 3.72869 2.8 3.95565 2.8 4.19231V18.3846C2.8 19.2639 3.1493 20.1072 3.77105 20.7289C4.39281 21.3507 5.23609 21.7 6.11538 21.7H20.3077C20.5443 21.7 20.7713 21.606 20.9386 21.4387C21.106 21.2713 21.2 21.0443 21.2 20.8077C21.2 20.571 21.106 20.3441 20.9387 20.1767C20.7713 20.0094 20.5443 19.9154 20.3077 19.9154H6.11538C5.7094 19.9154 5.32004 19.7541 5.03297 19.467C4.74589 19.18 4.58462 18.7906 4.58462 18.3846V4.19231C4.58462 3.95565 4.4906 3.72869 4.32326 3.56135Z" fill="#4489FF" stroke="#4489FF" stroke-width="0.4"/>
<path id="Vector_2" d="M14.1894 6.97114C14.1894 6.46691 14.5986 6.05768 15.1029 6.05768H20.2182C20.7225 6.05768 21.1317 6.46691 21.1317 6.97114V12.0865C21.1317 12.3288 21.0355 12.5611 20.8642 12.7324C20.6929 12.9037 20.4605 13 20.2182 13C19.976 13 19.7436 12.9037 19.5723 12.7324C19.401 12.5611 19.3048 12.3288 19.3048 12.0865V9.17952L14.4729 14.0114C14.3881 14.0962 14.2874 14.1635 14.1766 14.2094C14.0657 14.2554 13.9469 14.279 13.8269 14.279C13.707 14.279 13.5882 14.2554 13.4773 14.2094C13.3665 14.1635 13.2658 14.0962 13.1809 14.0114L10.9039 11.7343L6.98256 15.6556C6.81123 15.8269 6.57885 15.9232 6.33656 15.9232C6.09426 15.9232 5.86189 15.8269 5.69056 15.6556C5.51923 15.4843 5.42297 15.2519 5.42297 15.0096C5.42297 14.7673 5.51923 14.5349 5.69056 14.3636L10.2579 9.79629C10.3427 9.71145 10.4434 9.64414 10.5542 9.59822C10.6651 9.5523 10.7839 9.52866 10.9039 9.52866C11.0238 9.52866 11.1426 9.5523 11.2535 9.59822C11.3643 9.64414 11.465 9.71145 11.5499 9.79629L13.8269 12.0734L18.0157 7.8846H15.1029C14.5986 7.8846 14.1894 7.47537 14.1894 6.97114Z" fill="#4A4A4A"/>
</g>
</g>
</svg>
