<svg width="24" height="25" viewBox="0 0 24 25" fill="none" xmlns="http://www.w3.org/2000/svg">
<g id="Data">
<g id="Group 513373">
<path id="Vector" d="M4.25255 3.63206C4.10397 3.48348 3.90244 3.4 3.69231 3.4C3.48217 3.4 3.28065 3.48347 3.13206 3.63206C2.98347 3.78065 2.9 3.98217 2.9 4.19231V18.3846C2.9 19.2374 3.23876 20.0552 3.84176 20.6582C4.44477 21.2612 5.26261 21.6 6.11538 21.6H20.3077C20.5178 21.6 20.7194 21.5165 20.8679 21.3679C21.0165 21.2194 21.1 21.0178 21.1 20.8077C21.1 20.5976 21.0165 20.396 20.8679 20.2474C20.7194 20.0989 20.5178 20.0154 20.3077 20.0154H6.11538C5.68288 20.0154 5.26809 19.8436 4.96226 19.5377C4.65643 19.2319 4.48462 18.8171 4.48462 18.3846V4.19231C4.48462 3.98217 4.40114 3.78065 4.25255 3.63206Z" fill="#D9D9D9" stroke="#D9D9D9" stroke-width="0.2"/>
<path id="Vector_2" d="M14.1893 6.97108C14.1893 6.46685 14.5985 6.05762 15.1027 6.05762H20.2181C20.7224 6.05762 21.1316 6.46685 21.1316 6.97108V12.0865C21.1316 12.3287 21.0353 12.5611 20.864 12.7324C20.6927 12.9037 20.4604 12.9999 20.2181 12.9999C19.9759 12.9999 19.7435 12.9037 19.5722 12.7324C19.4009 12.5611 19.3047 12.3287 19.3047 12.0865V9.17946L14.4728 14.0113C14.388 14.0962 14.2873 14.1635 14.1764 14.2094C14.0656 14.2553 13.9468 14.2789 13.8268 14.2789C13.7068 14.2789 13.588 14.2553 13.4772 14.2094C13.3664 14.1635 13.2656 14.0962 13.1808 14.0113L10.9037 11.7342L6.98243 15.6555C6.8111 15.8269 6.57873 15.9231 6.33643 15.9231C6.09414 15.9231 5.86176 15.8269 5.69043 15.6555C5.5191 15.4842 5.42285 15.2518 5.42285 15.0095C5.42285 14.7672 5.5191 14.5349 5.69043 14.3635L10.2577 9.79623C10.3426 9.71138 10.4433 9.64408 10.5541 9.59816C10.665 9.55224 10.7838 9.5286 10.9037 9.5286C11.0237 9.5286 11.1425 9.55224 11.2534 9.59816C11.3642 9.64408 11.4649 9.71138 11.5497 9.79623L13.8268 12.0733L18.0156 7.88454H15.1027C14.5985 7.88454 14.1893 7.47531 14.1893 6.97108Z" fill="#BFBFBF"/>
</g>
</g>
</svg>
