<svg width="24" height="25" viewBox="0 0 24 25" fill="none" xmlns="http://www.w3.org/2000/svg">
<g id="Game">
<g id="Group 513371">
<path id="Vector" d="M21.78 7.28001C21.8848 7.17512 21.9561 7.04154 21.985 6.89614C22.0138 6.75074 21.999 6.60005 21.9423 6.46308C21.8856 6.32612 21.7895 6.20904 21.6663 6.12662C21.5431 6.0442 21.3982 6.00014 21.25 6.00001H18.5V3.25001C18.4999 3.10177 18.4558 2.95689 18.3734 2.83368C18.291 2.71046 18.1739 2.61443 18.0369 2.55772C17.9 2.50101 17.7493 2.48616 17.6039 2.51504C17.4585 2.54393 17.3249 2.61525 17.22 2.72001L14.72 5.22001C14.5793 5.36052 14.5002 5.55116 14.5 5.75001V8.58601L12.518 10.568C12.2217 10.4892 11.9112 10.4794 11.6105 10.5395C11.3098 10.5996 11.027 10.7279 10.7837 10.9145C10.5404 11.1012 10.3433 11.3412 10.2074 11.6161C10.0715 11.891 10.0006 12.1934 10 12.5C10.0001 12.7846 10.061 13.066 10.1786 13.3252C10.2961 13.5844 10.4677 13.8155 10.6817 14.0031C10.8958 14.1907 11.1474 14.3305 11.4198 14.4131C11.6922 14.4956 11.979 14.5191 12.2612 14.482C12.5434 14.4448 12.8144 14.3478 13.0561 14.1975C13.2978 14.0472 13.5047 13.847 13.6628 13.6104C13.821 13.3738 13.9268 13.1061 13.9732 12.8253C14.0196 12.5444 14.0056 12.257 13.932 11.982L15.914 10H18.75C18.9488 9.99983 19.1395 9.9207 19.28 9.78001L21.78 7.28001ZM12 2.50001C13.1677 2.49849 14.3266 2.70191 15.424 3.10101L14.012 4.51301C13.95 4.57501 13.892 4.64301 13.841 4.71301C12.147 4.31292 10.3687 4.47626 8.7759 5.17822C7.1831 5.88019 5.86271 7.08249 5.01501 8.60275C4.16732 10.123 3.83857 11.8782 4.07865 13.6022C4.31873 15.3262 5.11453 16.9249 6.34534 18.1557C7.57614 19.3865 9.17479 20.1823 10.8988 20.4223C12.6228 20.6624 14.378 20.3337 15.8983 19.486C17.4185 18.6383 18.6208 17.3179 19.3228 15.7251C20.0247 14.1323 20.1881 12.354 19.788 10.66C19.858 10.608 19.925 10.55 19.988 10.488L21.398 9.07601C21.7974 10.1733 22.0012 11.3322 22 12.5C22 18.023 17.523 22.5 12 22.5C6.477 22.5 2 18.023 2 12.5C2 6.97701 6.477 2.50001 12 2.50001ZM12 6.50001C12.518 6.50001 13.02 6.56601 13.5 6.69001V8.17201L13.086 8.58601C13.0694 8.60239 13.053 8.61906 13.037 8.63601C12.4443 8.47794 11.8232 8.45814 11.2216 8.57813C10.62 8.69812 10.054 8.9547 9.56731 9.32807C9.0806 9.70144 8.68615 10.1816 8.41441 10.7316C8.14266 11.2815 8.00088 11.8866 8 12.5C8.0004 13.0692 8.12229 13.6318 8.35751 14.1501C8.59273 14.6685 8.93587 15.1306 9.364 15.5057C9.79213 15.8809 10.2954 16.1603 10.8401 16.3253C11.3849 16.4904 11.9586 16.5373 12.5229 16.4628C13.0873 16.3884 13.6292 16.1944 14.1126 15.8938C14.5959 15.5932 15.0095 15.1928 15.3258 14.7196C15.642 14.2463 15.8536 13.711 15.9465 13.1494C16.0393 12.5878 16.0112 12.0129 15.864 11.463L15.914 11.414L16.328 11H17.811C18.1238 12.2115 18.05 13.4905 17.6 14.6581C17.1499 15.8256 16.3461 16.8232 15.3011 17.5113C14.256 18.1994 13.0219 18.5435 11.7716 18.4956C10.5213 18.4476 9.3172 18.01 8.32789 17.2439C7.33859 16.4778 6.61355 15.4215 6.25423 14.223C5.89492 13.0244 5.91931 11.7435 6.32398 10.5595C6.72866 9.37549 7.49338 8.34762 8.51113 7.61972C9.52888 6.89182 10.7487 6.50033 12 6.50001Z" fill="#276CE1"/>
<path id="Vector_2" d="M11.9999 6.5C12.5179 6.5 13.0199 6.566 13.4999 6.69V8.172L13.0859 8.586C13.0693 8.60238 13.053 8.61905 13.0369 8.636C12.4442 8.47793 11.8231 8.45813 11.2215 8.57812C10.6199 8.69811 10.054 8.95469 9.56725 9.32806C9.08054 9.70143 8.68609 10.1816 8.41435 10.7316C8.1426 11.2815 8.00082 11.8866 7.99994 12.5C8.00034 13.0692 8.12223 13.6318 8.35745 14.1501C8.59267 14.6685 8.93581 15.1306 9.36394 15.5057C9.79207 15.8808 10.2953 16.1603 10.8401 16.3253C11.3848 16.4904 11.9586 16.5372 12.5229 16.4628C13.0872 16.3884 13.6291 16.1944 14.1125 15.8938C14.5958 15.5932 15.0095 15.1928 15.3257 14.7196C15.642 14.2463 15.8536 13.711 15.9464 13.1494C16.0392 12.5878 16.0111 12.0129 15.8639 11.463L15.9139 11.414L16.3279 11H17.8109C18.1238 12.2115 18.05 13.4905 17.5999 14.6581C17.1499 15.8256 16.3461 16.8232 15.301 17.5113C14.2559 18.1994 13.0219 18.5435 11.7715 18.4956C10.5212 18.4476 9.31714 18.01 8.32783 17.2439C7.33853 16.4778 6.61349 15.4215 6.25417 14.223C5.89486 13.0244 5.91925 11.7435 6.32393 10.5595C6.7286 9.37548 7.49332 8.34761 8.51107 7.61971C9.52883 6.89182 10.7487 6.50032 11.9999 6.5Z" fill="#4A4A4A"/>
</g>
</g>
</svg>
