<svg width="24" height="25" viewBox="0 0 24 25" fill="none" xmlns="http://www.w3.org/2000/svg">
<g id="Game">
<g id="Group 513372">
<path d="M20.78 5.78001C20.8848 5.67512 20.9561 5.54154 20.985 5.39614C21.0138 5.25074 20.999 5.10005 20.9423 4.96308C20.8856 4.82612 20.7895 4.70904 20.6663 4.62662C20.5431 4.5442 20.3982 4.50014 20.25 4.50001H17.5V1.75001C17.4999 1.60177 17.4558 1.45689 17.3734 1.33368C17.291 1.21046 17.1739 1.11443 17.0369 1.05772C16.9 1.00101 16.7493 0.986159 16.6039 1.01504C16.4585 1.04393 16.3249 1.11525 16.22 1.22001L13.72 3.72001C13.5793 3.86052 13.5002 4.05116 13.5 4.25001V7.08601L11.518 9.06801C11.2217 8.98917 10.9112 8.97941 10.6105 9.03949C10.3098 9.09957 10.027 9.22788 9.7837 9.41454C9.54043 9.60119 9.34326 9.84121 9.20738 10.1161C9.07151 10.391 9.00056 10.6934 9 11C9.00013 11.2846 9.06101 11.566 9.17857 11.8252C9.29613 12.0844 9.46767 12.3155 9.68171 12.5031C9.89576 12.6907 10.1474 12.8305 10.4198 12.9131C10.6922 12.9956 10.979 13.0191 11.2612 12.982C11.5434 12.9448 11.8144 12.8478 12.0561 12.6975C12.2978 12.5472 12.5047 12.347 12.6628 12.1104C12.821 11.8738 12.9268 11.6061 12.9732 11.3253C13.0196 11.0444 13.0056 10.757 12.932 10.482L14.914 8.50001H17.75C17.9488 8.49983 18.1395 8.4207 18.28 8.28001L20.78 5.78001ZM11 1.00001C12.1677 0.998487 13.3266 1.20191 14.424 1.60101L13.012 3.01301C12.95 3.07501 12.892 3.14301 12.841 3.21301C11.147 2.81292 9.3687 2.97626 7.7759 3.67822C6.1831 4.38019 4.86271 5.58249 4.01501 7.10275C3.16732 8.623 2.83857 10.3782 3.07865 12.1022C3.31873 13.8262 4.11453 15.4249 5.34534 16.6557C6.57614 17.8865 8.17479 18.6823 9.89877 18.9223C11.6228 19.1624 13.378 18.8337 14.8983 17.986C16.4185 17.1383 17.6208 15.8179 18.3228 14.2251C19.0247 12.6323 19.1881 10.854 18.788 9.16001C18.858 9.10801 18.925 9.05001 18.988 8.98801L20.398 7.57601C20.7974 8.67334 21.0012 9.83225 21 11C21 16.523 16.523 21 11 21C5.477 21 1 16.523 1 11C1 5.47701 5.477 1.00001 11 1.00001ZM11 5.00001C11.518 5.00001 12.02 5.06601 12.5 5.19001V6.67201L12.086 7.08601C12.0694 7.10239 12.053 7.11906 12.037 7.13601C11.4443 6.97794 10.8232 6.95814 10.2216 7.07813C9.62001 7.19812 9.05403 7.4547 8.56731 7.82807C8.0806 8.20144 7.68615 8.68162 7.41441 9.23158C7.14266 9.78154 7.00088 10.3866 7 11C7.0004 11.5692 7.12229 12.1318 7.35751 12.6501C7.59273 13.1685 7.93587 13.6306 8.364 14.0057C8.79213 14.3809 9.29538 14.6603 9.84014 14.8253C10.3849 14.9904 10.9586 15.0373 11.5229 14.9628C12.0873 14.8884 12.6292 14.6944 13.1126 14.3938C13.5959 14.0932 14.0095 13.6928 14.3258 13.2196C14.642 12.7463 14.8536 12.211 14.9465 11.6494C15.0393 11.0878 15.0112 10.5129 14.864 9.96301L14.914 9.91401L15.328 9.50001H16.811C17.1238 10.7115 17.05 11.9905 16.6 13.1581C16.1499 14.3256 15.3461 15.3232 14.3011 16.0113C13.256 16.6994 12.0219 17.0435 10.7716 16.9956C9.52126 16.9476 8.3172 16.51 7.32789 15.7439C6.33859 14.9778 5.61355 13.9215 5.25423 12.723C4.89492 11.5244 4.91931 10.2435 5.32398 9.0595C5.72866 7.87549 6.49338 6.84762 7.51113 6.11972C8.52888 5.39182 9.74874 5.00033 11 5.00001Z" fill="#BFBFBF"/>
<path d="M11.0004 5C11.5184 5 12.0204 5.066 12.5004 5.19V6.672L12.0864 7.086C12.0698 7.10238 12.0535 7.11905 12.0374 7.136C11.4447 6.97793 10.8236 6.95813 10.222 7.07812C9.62044 7.19811 9.05446 7.45469 8.56774 7.82806C8.08103 8.20143 7.68658 8.68162 7.41484 9.23158C7.14309 9.78154 7.00131 10.3866 7.00043 11C7.00083 11.5692 7.12272 12.1318 7.35794 12.6501C7.59316 13.1685 7.9363 13.6306 8.36443 14.0057C8.79255 14.3808 9.29581 14.6603 9.84057 14.8253C10.3853 14.9904 10.959 15.0372 11.5234 14.9628C12.0877 14.8884 12.6296 14.6944 13.113 14.3938C13.5963 14.0932 14.01 13.6928 14.3262 13.2196C14.6425 12.7463 14.8541 12.211 14.9469 11.6494C15.0397 11.0878 15.0116 10.5129 14.8644 9.963L14.9144 9.914L15.3284 9.5H16.8114C17.1242 10.7115 17.0505 11.9905 16.6004 13.1581C16.1504 14.3256 15.3466 15.3232 14.3015 16.0113C13.2564 16.6994 12.0224 17.0435 10.772 16.9956C9.52169 16.9476 8.31763 16.51 7.32832 15.7439C6.33902 14.9778 5.61398 13.9215 5.25466 12.723C4.89535 11.5244 4.91974 10.2435 5.32441 9.0595C5.72909 7.87548 6.49381 6.84761 7.51156 6.11971C8.52931 5.39182 9.74917 5.00032 11.0004 5Z" fill="#BFBFBF"/>
</g>
</g>
</svg>


