<svg width="24" height="25" viewBox="0 0 24 25" fill="none" xmlns="http://www.w3.org/2000/svg">
<g id="Reccomand">
<g id="Group 513293">
<path id="Vector" d="M7.07473 11.0608C6.84671 11.0608 6.61605 11.0608 6.38273 11.0608C5.43839 11.0266 4.49712 11.187 3.61732 11.5318C2.73752 11.8766 1.93797 12.3985 1.26829 13.0652L1.07739 13.2879V19.8738H4.32264V16.1354L4.76011 15.6423L4.95896 15.4116C5.99451 14.3478 7.28375 13.5649 8.70531 13.1368C7.99358 12.5952 7.43225 11.8805 7.07473 11.0608Z" fill="#9FC2FF"/>
<path id="Vector_2" d="M22.4577 13.0413C21.7881 12.3747 20.9885 11.8527 20.1087 11.5079C19.2289 11.1631 18.2876 11.0028 17.3433 11.0369C17.0537 11.0377 16.7643 11.0537 16.4763 11.0846C16.1121 11.8537 15.5661 12.5226 14.8855 13.0334C16.4031 13.4532 17.7779 14.2781 18.8625 15.4196L19.0614 15.6423L19.4909 16.1355V19.8818H22.6248V13.2641L22.4577 13.0413Z" fill="#4A4A4A"/>
<path id="Vector_3" d="M6.35884 9.50974C6.44634 9.50974 6.51792 9.50974 6.60542 9.50974C6.49085 8.52601 6.66346 7.53016 7.10241 6.64238C7.54136 5.7546 8.22788 5.01285 9.07912 4.50665C8.77055 4.03526 8.34485 3.65208 7.8437 3.39464C7.34255 3.1372 6.78314 3.01432 6.22023 3.03804C5.65732 3.06176 5.11023 3.23127 4.63251 3.52996C4.1548 3.82865 3.76285 4.24629 3.49504 4.74197C3.22722 5.23766 3.09274 5.7944 3.10474 6.35767C3.11675 6.92095 3.27483 7.47146 3.56352 7.95528C3.85221 8.43911 4.2616 8.83966 4.75161 9.11773C5.24161 9.39579 5.79543 9.54184 6.35884 9.54155V9.50974Z" fill="#9FC2FF"/>
<path id="Vector_4" d="M16.9616 8.91318C16.9712 9.096 16.9712 9.2792 16.9616 9.46201C17.1142 9.48621 17.2684 9.4995 17.4229 9.50178H17.574C18.135 9.47187 18.6786 9.29723 19.152 8.99485C19.6254 8.69248 20.0124 8.27268 20.2754 7.77633C20.5384 7.27997 20.6684 6.72397 20.6527 6.16247C20.6371 5.60096 20.4763 5.05308 20.186 4.57216C19.8958 4.09124 19.4859 3.69367 18.9964 3.41816C18.5069 3.14266 17.9544 2.9986 17.3926 3.00001C16.8309 3.00142 16.2791 3.14826 15.791 3.42623C15.3029 3.70419 14.895 4.10382 14.6072 4.58619C15.3271 5.05622 15.919 5.69761 16.33 6.45282C16.7409 7.20802 16.9579 8.05343 16.9616 8.91318Z" fill="#4A4A4A"/>
<path id="Vector_5" d="M11.7438 12.4766C13.7074 12.4766 15.2993 10.8848 15.2993 8.92114C15.2993 6.95752 13.7074 5.36569 11.7438 5.36569C9.78019 5.36569 8.18835 6.95752 8.18835 8.92114C8.18835 10.8848 9.78019 12.4766 11.7438 12.4766Z" fill="#276CE1"/>
<path id="Vector_6" d="M11.9346 14.3697C10.8958 14.3277 9.85934 14.4964 8.88745 14.8654C7.91556 15.2345 7.02838 15.7964 6.2793 16.5173L6.08044 16.74V21.7749C6.08355 21.9389 6.11893 22.1006 6.18457 22.251C6.25022 22.4013 6.34483 22.5372 6.46301 22.651C6.58119 22.7647 6.72063 22.8541 6.87335 22.9139C7.02607 22.9738 7.18909 23.0029 7.35309 22.9998H16.4923C16.6563 23.0029 16.8193 22.9738 16.972 22.9139C17.1247 22.8541 17.2642 22.7647 17.3823 22.651C17.5005 22.5372 17.5951 22.4013 17.6608 22.251C17.7264 22.1006 17.7618 21.9389 17.7649 21.7749V16.7559L17.574 16.5173C16.8298 15.7942 15.9457 15.2307 14.976 14.8614C14.0062 14.4921 12.9713 14.3248 11.9346 14.3697Z" fill="#276CE1"/>
</g>
</g>
</svg>
