<svg width="16" height="17" viewBox="0 0 16 17" fill="none" xmlns="http://www.w3.org/2000/svg">
<path d="M8 2.5C8.79565 2.5 9.55871 2.81607 10.1213 3.37868C10.6839 3.94129 11 4.70435 11 5.5C11 6.29565 10.6839 7.05871 10.1213 7.62132C9.55871 8.18393 8.79565 8.5 8 8.5C7.20435 8.5 6.44129 8.18393 5.87868 7.62132C5.31607 7.05871 5 6.29565 5 5.5C5 4.70435 5.31607 3.94129 5.87868 3.37868C6.44129 2.81607 7.20435 2.5 8 2.5ZM8 10C11.315 10 14 11.3425 14 13V14.5H2V13C2 11.3425 4.685 10 8 10Z" fill="#9FC2FF"/>
</svg>
