<svg width="16" height="16" viewBox="0 0 16 16" fill="none" xmlns="http://www.w3.org/2000/svg">
<path d="M8 2H3.33333C2.97971 2 2.64057 2.14048 2.39052 2.39052C2.14048 2.64057 2 2.97971 2 3.33333V12.6667C2 13.0203 2.14048 13.3594 2.39052 13.6095C2.64057 13.8595 2.97971 14 3.33333 14H12.6667C13.0203 14 13.3594 13.8595 13.6095 13.6095C13.8595 13.3594 14 13.0203 14 12.6667V8" stroke="#E6EFFE" stroke-width="1.2" stroke-linecap="round" stroke-linejoin="round"/>
<path d="M12.25 1.74991C12.5153 1.48469 12.875 1.33569 13.25 1.33569C13.6251 1.33569 13.9848 1.48469 14.25 1.74991C14.5153 2.01512 14.6643 2.37483 14.6643 2.74991C14.6643 3.12498 14.5153 3.48469 14.25 3.74991L8.00004 9.99991L5.33337 10.6666L6.00004 7.99991L12.25 1.74991Z" stroke="#E6EFFE" stroke-width="1.2" stroke-linecap="round" stroke-linejoin="round"/>
</svg>
