<svg width="16" height="17" viewBox="0 0 16 17" fill="none" xmlns="http://www.w3.org/2000/svg">
<path d="M8 2.5H3.33333C2.97971 2.5 2.64057 2.64048 2.39052 2.89052C2.14048 3.14057 2 3.47971 2 3.83333V13.1667C2 13.5203 2.14048 13.8594 2.39052 14.1095C2.64057 14.3595 2.97971 14.5 3.33333 14.5H12.6667C13.0203 14.5 13.3594 14.3595 13.6095 14.1095C13.8595 13.8594 14 13.5203 14 13.1667V8.5" stroke="#9FC2FF" stroke-width="1.2" stroke-linecap="round" stroke-linejoin="round"/>
<path d="M12.2499 2.24991C12.5151 1.98469 12.8748 1.83569 13.2499 1.83569C13.625 1.83569 13.9847 1.98469 14.2499 2.24991C14.5151 2.51512 14.6641 2.87483 14.6641 3.24991C14.6641 3.62498 14.5151 3.98469 14.2499 4.24991L7.99992 10.4999L5.33325 11.1666L5.99992 8.49991L12.2499 2.24991Z" stroke="#9FC2FF" stroke-width="1.2" stroke-linecap="round" stroke-linejoin="round"/>
</svg>
