<svg width="18" height="18" viewBox="0 0 18 18" fill="none" xmlns="http://www.w3.org/2000/svg">
<mask id="mask0_13179_5693" style="mask-type:alpha" maskUnits="userSpaceOnUse" x="-2" y="0" width="17" height="16">
<circle cx="6.75" cy="7.875" r="7.875" fill="#D9D9D9"/>
</mask>
<g mask="url(#mask0_13179_5693)">
<path fill-rule="evenodd" clip-rule="evenodd" d="M7.77848 8.63873C8.90237 8.22114 9.70312 7.1389 9.70312 5.86963C9.70312 4.23866 8.38097 2.9165 6.75 2.9165C5.11903 2.9165 3.79688 4.23866 3.79688 5.86963C3.79688 7.1389 4.59763 8.22114 5.72152 8.63873C3.49695 9.11165 1.82812 11.0874 1.82812 13.453C1.82812 16.1713 4.03172 18.3749 6.75 18.3749C9.46828 18.3749 11.6719 16.1713 11.6719 13.453C11.6719 11.0874 10.003 9.11165 7.77848 8.63873Z" fill="white" fill-opacity="0.5"/>
</g>
<path d="M17.0625 6.75H15.5625V5.25C15.5625 5.05109 15.4835 4.86032 15.3428 4.71967C15.2022 4.57902 15.0114 4.5 14.8125 4.5C14.6136 4.5 14.4228 4.57902 14.2822 4.71967C14.1415 4.86032 14.0625 5.05109 14.0625 5.25V6.75H12.5625C12.3636 6.75 12.1728 6.82902 12.0322 6.96967C11.8915 7.11032 11.8125 7.30109 11.8125 7.5C11.8125 7.69891 11.8915 7.88968 12.0322 8.03033C12.1728 8.17098 12.3636 8.25 12.5625 8.25H14.0625V9.75C14.0625 9.94891 14.1415 10.1397 14.2822 10.2803C14.4228 10.421 14.6136 10.5 14.8125 10.5C15.0114 10.5 15.2022 10.421 15.3428 10.2803C15.4835 10.1397 15.5625 9.94891 15.5625 9.75V8.25H17.0625C17.2614 8.25 17.4522 8.17098 17.5928 8.03033C17.7335 7.88968 17.8125 7.69891 17.8125 7.5C17.8125 7.30109 17.7335 7.11032 17.5928 6.96967C17.4522 6.82902 17.2614 6.75 17.0625 6.75Z" fill="white" fill-opacity="0.5"/>
</svg>
