<svg width="20" height="20" viewBox="0 0 20 20" fill="none" xmlns="http://www.w3.org/2000/svg">
<path d="M10 1.87C7.75994 1.87 5.9375 3.69243 5.9375 5.9325V7.5575H5.125C4.22881 7.5575 3.5 8.28631 3.5 9.1825V16.495C3.5 17.3912 4.22881 18.12 5.125 18.12H14.875C15.7712 18.12 16.5 17.3912 16.5 16.495V9.1825C16.5 8.28631 15.7712 7.5575 14.875 7.5575H14.0625V5.9325C14.0625 3.69243 12.2401 1.87 10 1.87ZM7.5625 5.9325C7.5625 4.58862 8.65613 3.495 10 3.495C11.3439 3.495 12.4375 4.58862 12.4375 5.9325V7.5575H7.5625V5.9325ZM14.8766 16.495H10.8125V14.6441C11.2959 14.3622 11.625 13.8438 11.625 13.245C11.625 12.3488 10.8962 11.62 10 11.62C9.10381 11.62 8.375 12.3488 8.375 13.245C8.375 13.843 8.70406 14.3622 9.1875 14.6441V16.495H5.125V9.1825H14.875L14.8766 16.495Z" fill="#4A4A4A"/>
</svg>
