<svg width="20" height="20" viewBox="0 0 20 20" fill="none" xmlns="http://www.w3.org/2000/svg">
<circle cx="10" cy="10" r="7.3" stroke="#4A4A4A" stroke-width="1.4"/>
<path d="M12.2034 9.55333L12.2035 9.55338L12.206 9.55C12.485 9.17808 12.633 8.70513 12.633 8.148C12.633 7.46375 12.4039 6.90715 11.9508 6.50058C11.4882 6.08422 10.8902 5.892 10.157 5.892C9.3346 5.892 8.66847 6.1291 8.18333 6.62529C7.6874 7.11016 7.45005 7.7651 7.45005 8.588C7.45005 8.64323 7.49482 8.688 7.55005 8.688H8.71605C8.77128 8.688 8.81605 8.64323 8.81605 8.588C8.81605 8.11536 8.91308 7.75496 9.09305 7.515L9.09307 7.51502L9.09442 7.51313C9.28987 7.2395 9.61692 7.093 10.091 7.093C10.4675 7.093 10.747 7.19691 10.9434 7.39281C11.1308 7.59054 11.234 7.86077 11.234 8.225C11.234 8.48455 11.1453 8.72655 10.9603 8.96381L10.7794 9.16603C10.439 9.46816 10.1627 9.73334 9.9515 9.96263C9.74042 10.1918 9.58991 10.3897 9.50661 10.5563C9.35455 10.8604 9.28705 11.229 9.28705 11.646V11.833C9.28705 11.8882 9.33182 11.933 9.38705 11.933H10.564C10.6193 11.933 10.664 11.8882 10.664 11.833V11.646C10.664 11.385 10.716 11.1601 10.8277 10.9572L10.8277 10.9572L10.8295 10.9537C10.9212 10.7703 11.0658 10.5933 11.2568 10.4234C11.782 9.97474 12.0976 9.68268 12.2034 9.55333ZM10.6185 13.8556L10.6187 13.8558L10.6238 13.8507C10.7972 13.6772 10.884 13.4645 10.884 13.208C10.884 12.9529 10.7981 12.7387 10.6224 12.575C10.4459 12.3991 10.2206 12.327 9.97005 12.327C9.72015 12.327 9.50522 12.3989 9.33948 12.575C9.15268 12.7389 9.06705 12.9536 9.06705 13.208C9.06705 13.4536 9.15402 13.6665 9.33822 13.8397C9.50181 14.0144 9.71558 14.1 9.97005 14.1C10.215 14.1 10.436 14.0137 10.6185 13.8556Z" fill="#4A4A4A" stroke="#4A4A4A" stroke-width="0.2" stroke-linejoin="round"/>
</svg>
