<svg width="18" height="18" viewBox="0 0 18 18" fill="none" xmlns="http://www.w3.org/2000/svg">
<path d="M16 7C16 10.866 12.866 14 9 14C5.13401 14 2 10.866 2 7C2 3.13401 5.13401 0 9 0C12.866 0 16 3.13401 16 7Z" fill="#9FC2FF"/>
<g filter="url(#filter0_i_8653_15913)">
<path d="M14.3846 6.99995C14.3846 9.97379 11.9738 12.3846 8.99997 12.3846C6.02613 12.3846 3.61536 9.97379 3.61536 6.99995C3.61536 4.02611 6.02613 1.61533 8.99997 1.61533C11.9738 1.61533 14.3846 4.02611 14.3846 6.99995Z" fill="#9FC2FF"/>
</g>
<g filter="url(#filter1_d_8653_15913)">
<path fill-rule="evenodd" clip-rule="evenodd" d="M9.46534 10.2446C9.17402 10.0915 8.82598 10.0915 8.53466 10.2446L7.26676 10.9112C6.53313 11.2969 5.6757 10.6739 5.81581 9.85704L6.05796 8.44522C6.11359 8.12082 6.00605 7.78982 5.77036 7.56008L4.74461 6.56023C4.15109 5.98169 4.4786 4.97372 5.29882 4.85453L6.71638 4.64855C7.04209 4.60122 7.32365 4.39665 7.46931 4.10151L8.10326 2.81699C8.47008 2.07374 9.52992 2.07374 9.89673 2.81699L10.5307 4.10151C10.6763 4.39665 10.9579 4.60122 11.2836 4.64855L12.7012 4.85453C13.5214 4.97372 13.8489 5.98169 13.2554 6.56022L12.2296 7.56008C11.994 7.78982 11.8864 8.12082 11.942 8.44522L12.1842 9.85704C12.3243 10.6739 11.4669 11.2969 10.7332 10.9112L9.46534 10.2446Z" fill="white"/>
</g>
<defs>
<filter id="filter0_i_8653_15913" x="3.61536" y="1.61533" width="10.7693" height="11.7692" filterUnits="userSpaceOnUse" color-interpolation-filters="sRGB">
<feFlood flood-opacity="0" result="BackgroundImageFix"/>
<feBlend mode="normal" in="SourceGraphic" in2="BackgroundImageFix" result="shape"/>
<feColorMatrix in="SourceAlpha" type="matrix" values="0 0 0 0 0 0 0 0 0 0 0 0 0 0 0 0 0 0 127 0" result="hardAlpha"/>
<feOffset dy="1"/>
<feGaussianBlur stdDeviation="1.5"/>
<feComposite in2="hardAlpha" operator="arithmetic" k2="-1" k3="1"/>
<feColorMatrix type="matrix" values="0 0 0 0 0.154583 0 0 0 0 0.424848 0 0 0 0 0.883333 0 0 0 1 0"/>
<feBlend mode="normal" in2="shape" result="effect1_innerShadow_8653_15913"/>
</filter>
<filter id="filter1_d_8653_15913" x="0.441528" y="0.259552" width="17.1169" height="16.7688" filterUnits="userSpaceOnUse" color-interpolation-filters="sRGB">
<feFlood flood-opacity="0" result="BackgroundImageFix"/>
<feColorMatrix in="SourceAlpha" type="matrix" values="0 0 0 0 0 0 0 0 0 0 0 0 0 0 0 0 0 0 127 0" result="hardAlpha"/>
<feOffset dy="2"/>
<feGaussianBlur stdDeviation="2"/>
<feColorMatrix type="matrix" values="0 0 0 0 0.266667 0 0 0 0 0.538631 0 0 0 0 1 0 0 0 1 0"/>
<feBlend mode="normal" in2="BackgroundImageFix" result="effect1_dropShadow_8653_15913"/>
<feBlend mode="normal" in="SourceGraphic" in2="effect1_dropShadow_8653_15913" result="shape"/>
</filter>
</defs>
</svg>
