<svg width="18" height="18" viewBox="0 0 18 18" fill="none" xmlns="http://www.w3.org/2000/svg">
<path fill-rule="evenodd" clip-rule="evenodd" d="M9.33765 5.5874C9.33765 3.9329 10.6831 2.5874 12.3376 2.5874C13.9921 2.5874 15.3376 3.9329 15.3376 5.5874V7.8374C15.3376 8.03631 15.2586 8.22708 15.118 8.36773C14.9773 8.50838 14.7866 8.5874 14.5876 8.5874C14.3887 8.5874 14.198 8.50838 14.0573 8.36773C13.9167 8.22708 13.8376 8.03631 13.8376 7.8374V5.5874C13.8376 5.18958 13.6796 4.80805 13.3983 4.52674C13.117 4.24544 12.7355 4.0874 12.3376 4.0874C11.9398 4.0874 11.5583 4.24544 11.277 4.52674C10.9957 4.80805 10.8376 5.18958 10.8376 5.5874V7.0874H11.5876C11.9855 7.0874 12.367 7.24544 12.6483 7.52674C12.9296 7.80805 13.0876 8.18958 13.0876 8.5874V13.8374C13.0876 14.2352 12.9296 14.6168 12.6483 14.8981C12.367 15.1794 11.9855 15.3374 11.5876 15.3374H4.08765C3.68982 15.3374 3.30829 15.1794 3.02699 14.8981C2.74568 14.6168 2.58765 14.2352 2.58765 13.8374V8.5874C2.58765 8.18958 2.74568 7.80805 3.02699 7.52674C3.30829 7.24544 3.68982 7.0874 4.08765 7.0874H6.33765V7.8374H9.33765V5.5874ZM4.08765 13.8374H11.5876L11.5899 8.5874H4.08765V13.8374ZM8.81256 12.3372C8.81256 12.8757 8.37604 13.3122 7.83756 13.3122C7.29909 13.3122 6.86256 12.8757 6.86256 12.3372C6.86256 11.7987 7.29909 11.3622 7.83756 11.3622C8.37604 11.3622 8.81256 11.7987 8.81256 12.3372Z" fill="white" fill-opacity="0.5"/>
</svg>
