<svg width="24" height="24" viewBox="0 0 24 24" fill="none" xmlns="http://www.w3.org/2000/svg">
<path fill-rule="evenodd" clip-rule="evenodd" d="M10.2769 11.9944L6.29936 16.161C5.89956 16.5798 5.90981 17.2671 6.29936 17.6859C6.69917 18.1047 7.345 18.1047 7.74481 17.6859L12 13.2284L16.2552 17.6859C16.655 18.1047 17.3008 18.1047 17.7006 17.6859C18.0902 17.2671 18.1004 16.5798 17.7006 16.161L13.7231 11.9944L17.7006 7.82775C17.7955 7.72833 17.8708 7.6103 17.9222 7.4804C17.9736 7.3505 18 7.21128 18 7.07067C18 6.93007 17.9736 6.79084 17.9222 6.66094C17.8708 6.53104 17.7955 6.41301 17.7006 6.31359C17.6057 6.21417 17.4931 6.13531 17.369 6.0815C17.245 6.02769 17.1121 6 16.9779 6C16.8437 6 16.7108 6.02769 16.5868 6.0815C16.4628 6.13531 16.3501 6.21417 16.2552 6.31359L12 10.7711L7.74481 6.31359C7.6499 6.21417 7.53723 6.13531 7.41322 6.0815C7.28922 6.02769 7.15631 6 7.02209 6C6.88786 6 6.75496 6.02769 6.63095 6.0815C6.50695 6.13531 6.39427 6.21417 6.29936 6.31359C6.20445 6.41301 6.12917 6.53104 6.0778 6.66094C6.02644 6.79084 6 6.93007 6 7.07067C6 7.21128 6.02644 7.3505 6.0778 7.4804C6.12917 7.6103 6.20445 7.72833 6.29936 7.82775L10.2769 11.9944Z" fill="#BFBFBF"/>
</svg>
