<svg width="12" height="12" viewBox="0 0 12 12" fill="none" xmlns="http://www.w3.org/2000/svg">
<path fill-rule="evenodd" clip-rule="evenodd" d="M4.27691 5.99437L0.299362 10.161C-0.100443 10.5798 -0.0901914 11.2671 0.299362 11.6859C0.699167 12.1047 1.345 12.1047 1.74481 11.6859L6 7.22843L10.2552 11.6859C10.655 12.1047 11.3008 12.1047 11.7006 11.6859C12.0902 11.2671 12.1004 10.5798 11.7006 10.161L7.72309 5.99437L11.7006 1.82775C11.7955 1.72833 11.8708 1.6103 11.9222 1.4804C11.9736 1.3505 12 1.21128 12 1.07067C12 0.93007 11.9736 0.790844 11.9222 0.660944C11.8708 0.531044 11.7955 0.413014 11.7006 0.313593C11.6057 0.214172 11.4931 0.135307 11.369 0.0815003C11.245 0.027694 11.1121 0 10.9779 0C10.8437 0 10.7108 0.027694 10.5868 0.0815003C10.4628 0.135307 10.3501 0.214172 10.2552 0.313593L6 4.77106L1.74481 0.313593C1.6499 0.214172 1.53723 0.135307 1.41322 0.0815003C1.28922 0.027694 1.15631 0 1.02209 0C0.887864 0 0.754956 0.027694 0.630951 0.0815003C0.506945 0.135307 0.394271 0.214172 0.299362 0.313593C0.204452 0.413014 0.129167 0.531044 0.077802 0.660944C0.0264374 0.790844 0 0.93007 0 1.07067C0 1.21128 0.0264374 1.3505 0.077802 1.4804C0.129167 1.6103 0.204452 1.72833 0.299362 1.82775L4.27691 5.99437Z" fill="#BFBFBF"/>
</svg>
