<svg width="14" height="14" viewBox="0 0 14 14" fill="none" xmlns="http://www.w3.org/2000/svg">
<circle cx="7" cy="7" r="7" fill="#9FC2FF"/>
<g filter="url(#filter0_i_7557_36390)">
<circle cx="6.99997" cy="6.99997" r="5.38462" fill="#9FC2FF"/>
</g>
<mask id="mask0_7557_36390" style="mask-type:alpha" maskUnits="userSpaceOnUse" x="0" y="0" width="14" height="14">
<circle cx="7" cy="7" r="7" fill="#9FC2FF"/>
</mask>
<g mask="url(#mask0_7557_36390)">
<g filter="url(#filter1_d_7557_36390)">
<path fill-rule="evenodd" clip-rule="evenodd" d="M7.46522 10.2446C7.17389 10.0915 6.82586 10.0915 6.53454 10.2446L5.26664 10.9112C4.53301 11.2969 3.67558 10.6739 3.81569 9.85701L4.05783 8.44519C4.11347 8.12079 4.00592 7.78979 3.77024 7.56005L2.74449 6.56019C2.15097 5.98166 2.47848 4.97369 3.2987 4.8545L4.71625 4.64852C5.04196 4.60119 5.32353 4.39662 5.46919 4.10148L6.10314 2.81696C6.46995 2.07371 7.5298 2.07371 7.89661 2.81696L8.53056 4.10148C8.67622 4.39662 8.95779 4.60119 9.2835 4.64852L10.7011 4.8545C11.5213 4.97369 11.8488 5.98166 11.2553 6.56019L10.2295 7.56005C9.99383 7.78979 9.88628 8.12079 9.94192 8.44519L10.1841 9.85701C10.3242 10.6739 9.46674 11.2969 8.73312 10.9112L7.46522 10.2446Z" fill="white"/>
</g>
</g>
<defs>
<filter id="filter0_i_7557_36390" x="1.61536" y="1.61536" width="10.7693" height="11.7693" filterUnits="userSpaceOnUse" color-interpolation-filters="sRGB">
<feFlood flood-opacity="0" result="BackgroundImageFix"/>
<feBlend mode="normal" in="SourceGraphic" in2="BackgroundImageFix" result="shape"/>
<feColorMatrix in="SourceAlpha" type="matrix" values="0 0 0 0 0 0 0 0 0 0 0 0 0 0 0 0 0 0 127 0" result="hardAlpha"/>
<feOffset dy="1"/>
<feGaussianBlur stdDeviation="1.5"/>
<feComposite in2="hardAlpha" operator="arithmetic" k2="-1" k3="1"/>
<feColorMatrix type="matrix" values="0 0 0 0 0.154583 0 0 0 0 0.424848 0 0 0 0 0.883333 0 0 0 1 0"/>
<feBlend mode="normal" in2="shape" result="effect1_innerShadow_7557_36390"/>
</filter>
<filter id="filter1_d_7557_36390" x="-1.55859" y="0.259521" width="17.1169" height="16.7688" filterUnits="userSpaceOnUse" color-interpolation-filters="sRGB">
<feFlood flood-opacity="0" result="BackgroundImageFix"/>
<feColorMatrix in="SourceAlpha" type="matrix" values="0 0 0 0 0 0 0 0 0 0 0 0 0 0 0 0 0 0 127 0" result="hardAlpha"/>
<feOffset dy="2"/>
<feGaussianBlur stdDeviation="2"/>
<feColorMatrix type="matrix" values="0 0 0 0 0.266667 0 0 0 0 0.538631 0 0 0 0 1 0 0 0 1 0"/>
<feBlend mode="normal" in2="BackgroundImageFix" result="effect1_dropShadow_7557_36390"/>
<feBlend mode="normal" in="SourceGraphic" in2="effect1_dropShadow_7557_36390" result="shape"/>
</filter>
</defs>
</svg>
