<svg width="100" height="100" viewBox="0 0 100 100" fill="none" xmlns="http://www.w3.org/2000/svg">
<circle cx="50" cy="60" r="40" fill="white"/>
<g clip-path="url(#clip0_7549_42574)">
<path fill-rule="evenodd" clip-rule="evenodd" d="M57.5252 27.3431C59.908 26.7091 64.0908 28.2942 64.7351 30.0532C63.2215 30.6771 58.4354 28.8976 57.5252 27.3431ZM81.6936 42.4628C81.6555 42.4344 81.6102 42.4006 81.5582 42.356L81.5378 42.3663C81.3435 43.6446 81.2923 44.8207 81.4355 45.9968C81.6023 47.41 82.1006 48.7178 82.6006 50.03C82.6831 50.2466 82.7657 50.4633 82.8468 50.6806C82.8672 50.7284 82.915 50.767 82.9627 50.8056C82.9866 50.8249 83.0104 50.8443 83.0309 50.8647C83.0477 50.8452 83.0667 50.8256 83.086 50.8058C83.1372 50.7532 83.1899 50.6992 83.2047 50.6397L83.2049 50.6389C83.3582 49.9029 83.5116 49.1668 83.624 48.4205C83.7774 47.3876 83.7161 46.3752 83.2559 45.4241C82.8978 44.6841 82.5212 43.9503 82.1452 43.2178L82.1446 43.2166C82.0376 43.0081 81.9306 42.7997 81.8241 42.5913C81.8046 42.5457 81.7602 42.5125 81.6936 42.4628ZM17.2971 50.2905L17.2971 50.2904C16.8807 48.5733 16.4796 46.9188 17.3646 45.24C17.6931 44.6269 18.0007 44.0033 18.3098 43.3768L18.3098 43.3768L18.3099 43.3765C18.4339 43.1253 18.558 42.8736 18.6839 42.6219C18.7179 42.5539 18.7731 42.5001 18.8319 42.4427L18.832 42.4426L18.8322 42.4423L18.8324 42.4422C18.8442 42.4307 18.8561 42.4191 18.868 42.4072C19.7066 43.5628 18.7862 49.2182 17.4567 50.9159H17.4464C17.3979 50.7064 17.3474 50.498 17.2971 50.2905ZM16.2271 49.8588L16.2272 49.8589L16.2272 49.8589C16.3475 50.2055 16.4683 50.5535 16.5772 50.9056C17.1806 52.8794 17.0374 54.8634 16.7101 56.8576C16.6801 57.0277 16.6574 57.1978 16.6349 57.3667C16.6114 57.543 16.5881 57.7181 16.5567 57.8905C16.5496 57.9472 16.5082 57.9941 16.4664 58.0414C16.4478 58.0623 16.4292 58.0833 16.4135 58.1053C16.3954 58.0932 16.3746 58.082 16.3535 58.0707L16.3535 58.0706C16.3031 58.0436 16.2511 58.0156 16.2295 57.9724C16.1094 57.7552 15.983 57.5412 15.857 57.3278C15.5318 56.7773 15.2086 56.2302 15.0022 55.6406C14.767 54.9759 14.7159 54.2191 14.7363 53.5032C14.7773 52.3169 15.1761 51.192 15.5852 50.0773C15.6465 49.9116 15.6968 49.7459 15.7472 49.5802L15.7472 49.5802C15.7807 49.4698 15.8143 49.3593 15.8511 49.2489H16.0147V49.2387C16.0835 49.4452 16.1553 49.6518 16.2271 49.8588ZM86.5839 57.818L86.5839 57.8169C86.5766 57.3612 86.5694 56.902 86.5694 56.4383V56.4281C85.0967 57.236 82.8979 64.4971 83.7263 65.7038C83.8889 65.5162 84.0497 65.3266 84.2105 65.1369C84.5756 64.7062 84.9415 64.2747 85.3319 63.863C86.0989 63.0551 86.4671 62.0426 86.5387 60.9893C86.6176 59.9419 86.6009 58.8895 86.5839 57.818ZM66.852 82.3019C66.985 84.2144 61.0841 89.338 59.2637 88.9289C59.6626 88.3971 60.0614 87.8653 60.4603 87.3233C60.7671 86.904 61.0637 86.4745 61.3398 86.0245C62.0761 84.8177 63.1806 84.0609 64.4078 83.4473C64.9005 83.1978 65.3971 82.9563 65.8927 82.7153L65.893 82.7152L65.8932 82.7151L65.8934 82.715C66.1898 82.5708 66.4858 82.4269 66.7804 82.2815C66.8009 82.2815 66.8316 82.2815 66.852 82.3019ZM60.3443 85.1307L60.3443 85.1306L60.3443 85.1306C60.3483 85.1046 60.3524 85.0784 60.3581 85.0529L60.3683 85.0427C60.3363 85.0427 60.3106 85.0411 60.2893 85.0398H60.2893C60.2561 85.0378 60.2336 85.0365 60.2149 85.0427C59.942 85.1402 59.6711 85.2438 59.4004 85.3475C58.8189 85.57 58.2378 85.7924 57.6377 85.9529C56.1344 86.3517 54.897 87.1085 53.9459 88.3664C53.8876 88.4435 53.8295 88.5208 53.7714 88.5981C53.1354 89.4443 52.4958 90.2953 51.6244 90.9231C51.4403 91.056 51.4301 91.2094 51.5937 91.3628C51.6326 91.4017 51.6715 91.4413 51.7105 91.481L51.7106 91.4811C51.8873 91.6608 52.0677 91.8443 52.2687 91.9867C52.4309 92.1002 52.5909 92.2188 52.7511 92.3374C53.1969 92.6675 53.6436 92.9984 54.1402 93.2241C56.1242 94.1138 58.1389 93.807 60.1229 93.1934C61.0647 92.9036 61.9963 92.5677 62.9249 92.2327L62.925 92.2327L62.9251 92.2326C63.3072 92.0948 63.6888 91.9572 64.0704 91.8231C64.1785 91.7815 64.2798 91.7332 64.4183 91.6671L64.4186 91.667L64.5204 91.6185C64.4579 91.5912 64.4073 91.5668 64.3641 91.546C64.2942 91.5123 64.2437 91.488 64.1931 91.4753C63.842 91.3828 63.4919 91.2842 63.1415 91.1856L63.1415 91.1856L63.1414 91.1856L63.1414 91.1856L63.1413 91.1856L63.1413 91.1856L63.1412 91.1855L63.1412 91.1855L63.1412 91.1855L63.1411 91.1855L63.1411 91.1855L63.141 91.1855L63.141 91.1855L63.1409 91.1855L63.1409 91.1855L63.1408 91.1854L63.1408 91.1854L63.1407 91.1854L63.1407 91.1854L63.1406 91.1854L63.1406 91.1854L63.1406 91.1854L63.1405 91.1854L63.1405 91.1853L63.1404 91.1853L63.1404 91.1853L63.1403 91.1853L63.1403 91.1853L63.1402 91.1853L63.1402 91.1853L63.1401 91.1853L63.1401 91.1853L63.1401 91.1852L63.14 91.1852L63.14 91.1852L63.1399 91.1852L63.1399 91.1852L63.1398 91.1852L63.1398 91.1852L63.1397 91.1852L63.1397 91.1852L63.1396 91.1851L63.1396 91.1851L63.1395 91.1851L63.1395 91.1851L63.1395 91.1851L63.1394 91.1851C62.3679 90.9679 61.5952 90.7504 60.8081 90.5958C58.8854 90.2174 56.9628 90.1049 55.0708 90.7799C54.972 90.8152 54.8487 90.7871 54.728 90.7596C54.6739 90.7473 54.6203 90.7351 54.5697 90.7288C54.5952 90.6891 54.6192 90.6462 54.6433 90.603C54.7062 90.4905 54.7702 90.376 54.8663 90.3095C55.1444 90.1295 55.4312 89.9583 55.719 89.7865L55.7191 89.7865L55.7192 89.7864L55.7193 89.7863L55.7194 89.7862L55.7196 89.7862L55.7197 89.7861L55.7198 89.786L55.7209 89.7854L55.7209 89.7853L55.7219 89.7847L55.7221 89.7846C55.973 89.6348 56.2247 89.4846 56.4719 89.3277C58.0775 88.305 59.3047 86.9142 60.2865 85.3086C60.3234 85.2642 60.3337 85.1985 60.3443 85.1307ZM46.9303 93.3775C48.7506 93.0809 50.4994 93.2139 52.2073 93.9911C52.494 93.9943 52.3756 93.8598 52.2876 93.7598C52.1559 93.6103 52.0922 93.5378 53.5527 94.1187C53.8406 94.2499 54.1539 94.3765 54.5 94.5C54.129 94.3494 53.8161 94.2234 53.5527 94.1187C52.1217 93.467 51.3172 92.7053 50.234 91.6797C49.8926 91.3564 49.5235 91.007 49.0983 90.6265C48.7043 90.2767 48.3182 89.9174 47.9319 89.558C47.3357 89.0032 46.7389 88.4479 46.1121 87.9266C45.4269 87.3641 44.6701 86.8221 43.8724 86.454C43.2989 86.1919 42.6762 86.028 42.0521 85.8637C41.7749 85.7907 41.4974 85.7176 41.2237 85.6358C40.8918 85.5362 40.5665 85.4299 40.2207 85.3169L40.2206 85.3168L39.976 85.237C39.9858 85.2694 39.9934 85.2966 40 85.3201L40 85.3201C40.0142 85.3706 40.0234 85.4033 40.0374 85.4313C40.8555 86.7608 41.868 87.9266 43.085 88.8879C43.5359 89.2462 44.0279 89.5597 44.5204 89.8736C44.8432 90.0793 45.1663 90.2851 45.4781 90.5038C45.5691 90.5668 45.6265 90.6873 45.6833 90.8063L45.6833 90.8063C45.7094 90.8611 45.7354 90.9156 45.7644 90.964C45.6008 90.9537 45.4269 90.9435 45.2633 90.9435C45.2479 90.9435 45.2352 90.9384 45.2224 90.9333C45.2096 90.9282 45.1968 90.9231 45.1815 90.9231C43.1157 90.3401 41.0396 90.4015 38.9636 90.8515C38.2997 90.9948 37.6525 91.2161 37.0055 91.4372L37.0048 91.4375L37.0042 91.4377L37.0036 91.4379C36.7743 91.5163 36.5449 91.5947 36.3148 91.6696C36.2368 91.6909 36.1687 91.7466 36.1001 91.8026C36.0698 91.8274 36.0394 91.8522 36.008 91.8742C36.0385 91.8955 36.068 91.9186 36.0975 91.9416L36.0975 91.9417C36.167 91.996 36.2359 92.05 36.3148 92.0787C36.7997 92.2501 37.2863 92.418 37.7733 92.586L37.7733 92.5861L37.7734 92.5861L37.7737 92.5862L37.774 92.5863L37.7745 92.5865L37.7751 92.5867L37.7756 92.5869L37.7761 92.587L37.7767 92.5872L37.7772 92.5874L37.7778 92.5876L37.7783 92.5878L37.7788 92.588L37.7794 92.5881L37.7801 92.5884L37.7802 92.5884L37.7803 92.5885L37.7803 92.5885L37.7804 92.5885L37.7805 92.5885L37.7805 92.5886L37.7806 92.5886L37.7807 92.5886L37.7807 92.5886L37.7808 92.5886L37.7808 92.5887L37.7809 92.5887L37.781 92.5887L37.781 92.5887L37.7811 92.5888L37.7812 92.5888L37.7812 92.5888L37.7813 92.5888L37.7813 92.5889L37.7814 92.5889L37.7815 92.5889L37.7815 92.5889L37.7816 92.5889L37.7819 92.5891L37.7822 92.5892L37.7825 92.5893L37.783 92.5895L37.7836 92.5897L37.7841 92.5898L37.7846 92.59L37.7852 92.5902L37.7867 92.5907L37.7868 92.5908L37.7868 92.5908L37.7869 92.5908L37.7869 92.5908L37.787 92.5908L37.7871 92.5909L37.7871 92.5909L37.7872 92.5909L37.7872 92.5909L37.7873 92.591L37.7873 92.591C38.487 92.8324 39.1873 93.0741 39.884 93.3264C41.0498 93.7354 42.2362 94.0422 43.4736 93.9195C44.2603 93.8429 45.0423 93.7047 45.8261 93.5662L45.8263 93.5662L45.8265 93.5661L45.827 93.5661L45.8276 93.5659C46.1946 93.5011 46.5619 93.4362 46.9303 93.3775ZM71.6177 88.2641C71.5768 88.3016 71.5416 88.3368 71.5098 88.3687L71.5098 88.3687C71.4461 88.4323 71.3961 88.4823 71.3416 88.5096C70.4826 88.98 69.6235 89.4504 68.7747 89.9209C67.5577 90.5958 66.2691 90.7901 64.9192 90.4833C63.95 90.2585 62.9868 89.9984 62.0249 89.7387C61.7181 89.6558 61.4113 89.573 61.1046 89.4913C61.7284 88.6118 68.8156 87.7528 71.6177 88.2539V88.2641ZM39.3727 89.4606C37.3375 88.4175 31.6719 87.7835 28.8289 88.3664C28.8652 88.3888 28.9015 88.4126 28.9383 88.4368C29.036 88.5011 29.1367 88.5672 29.2481 88.6118C29.7983 88.8365 30.3135 89.1289 30.8297 89.4219L30.8297 89.422C31.465 89.7826 32.1018 90.1441 32.8071 90.3811C33.8604 90.739 34.8729 90.647 35.8956 90.4015C36.9796 90.1356 38.0534 89.8595 39.1272 89.5834C39.1796 89.5703 39.2235 89.5446 39.2752 89.5145L39.2753 89.5144L39.2753 89.5144L39.2755 89.5143L39.2755 89.5143C39.3045 89.4974 39.336 89.479 39.3727 89.4606ZM33.5639 82.2917C33.6835 82.35 33.8022 82.4092 33.9205 82.4682L33.9208 82.4683L33.9208 82.4683L33.9209 82.4684L33.921 82.4684L33.9216 82.4687C34.1974 82.6063 34.4713 82.7428 34.7502 82.8644C36.1001 83.4473 37.4194 84.0712 38.4216 85.1757C38.6869 85.4625 38.912 85.7896 39.1357 86.1145L39.1357 86.1146L39.1358 86.1147L39.1358 86.1148C39.2311 86.2532 39.3261 86.3912 39.4238 86.5256C39.9075 87.1992 40.3911 87.8802 40.8625 88.5438L41.1215 88.9084C39.4034 89.3584 33.6661 84.4291 33.5639 82.3019V82.2917ZM16.976 65.6936C16.8737 62.3699 16.1681 59.2303 14.0511 56.4895C14.046 56.5227 14.0403 56.556 14.0345 56.5892C14.0173 56.6889 14 56.7886 14 56.8883C14 57.0315 14.0033 57.1747 14.0065 57.3179C14.0115 57.5326 14.0164 57.7474 14.0102 57.9621C14.0136 58.3271 14.0125 58.6909 14.0114 59.0539C14.0091 59.7795 14.0068 60.502 14.0409 61.2245C14.092 62.2574 14.5625 63.1471 15.2477 63.9141C15.4581 64.1479 15.6625 64.3935 15.8655 64.6375C15.929 64.7137 15.9923 64.7898 16.0556 64.8652C16.1886 65.0187 16.3215 65.1695 16.4545 65.3204C16.5874 65.4712 16.7204 65.622 16.8533 65.7754C16.8737 65.7601 16.8942 65.7473 16.9146 65.7345C16.9351 65.7217 16.9555 65.7089 16.976 65.6936ZM71.9654 83.3144C74.2971 80.8191 77.2425 79.418 80.4435 78.4874C80.4519 78.4986 80.4603 78.509 80.4687 78.5191C80.4756 78.5274 80.4825 78.5355 80.4895 78.5436L80.4954 78.5505C80.5042 78.5608 80.513 78.5713 80.5219 78.5823C80.5264 78.588 80.531 78.5938 80.5355 78.5999C80.459 78.712 80.3801 78.8241 80.3011 78.9362L80.3004 78.9372L80.3001 78.9376L80.2999 78.9379L80.2996 78.9383L80.2994 78.9386L80.2991 78.939L80.2989 78.9393C80.2201 79.0512 80.1413 79.163 80.0651 79.2748C79.339 80.3077 78.6026 81.3304 77.447 81.944C76.4243 82.486 75.3403 82.7928 74.2153 83.0178C73.9137 83.0792 73.612 83.1431 73.3103 83.207C73.0086 83.2709 72.7069 83.3349 72.4052 83.3962C72.3064 83.419 72.2019 83.4249 72.1002 83.4306C72.0651 83.4325 72.0303 83.4345 71.9961 83.4371C71.9961 83.4099 71.987 83.3826 71.9779 83.3553C71.9734 83.3417 71.9689 83.328 71.9654 83.3144ZM28.655 83.4064C26.2619 80.8293 23.2962 79.4078 19.952 78.4362L19.9418 78.4464L19.9697 78.5212C20.0104 78.6305 20.0288 78.6801 20.0543 78.7226C20.177 78.8852 20.2998 79.0488 20.4228 79.2127L20.4231 79.2131C20.71 79.5953 20.9983 79.9796 21.2917 80.3588C22.0587 81.3508 23.0303 82.0974 24.237 82.4349C25.2545 82.7213 26.2886 82.9577 27.3189 83.1932L27.3206 83.1936L27.3206 83.1936L27.3206 83.1936L27.3207 83.1936L27.3207 83.1936L27.3208 83.1936L27.3208 83.1937C27.6879 83.2776 28.0546 83.3614 28.4198 83.4473C28.4505 83.4535 28.4848 83.4449 28.5339 83.4326C28.5667 83.4244 28.6059 83.4146 28.655 83.4064ZM84.0032 57.9083C84.0286 58.022 84.0564 58.1465 84.0842 58.2894V58.2996C84.1537 58.1873 84.2176 58.0828 84.2779 57.9841C84.4484 57.7051 84.5903 57.4729 84.7489 57.2462C85.6898 55.9168 86.0477 54.4543 85.6898 52.8589C85.4976 52.0311 85.2627 51.2139 85.0275 50.3959L85.0274 50.3955L85.0266 50.3926C84.9367 50.0799 84.8468 49.767 84.7592 49.4534C84.746 49.4008 84.7074 49.3608 84.668 49.32C84.6461 49.2973 84.624 49.2744 84.6058 49.2489C84.5868 49.2678 84.5649 49.2858 84.5431 49.3037C84.4944 49.3438 84.446 49.3835 84.4319 49.433C83.8899 51.0079 83.399 52.6033 83.5524 54.3009C83.6172 55.0365 83.7076 55.7669 83.7982 56.4995L83.7982 56.4996L83.7983 56.4997L83.7983 56.4998L83.7983 56.5L83.7983 56.5002L83.7984 56.5003L83.7984 56.5005L83.7984 56.5007L83.7984 56.5009L83.7985 56.501L83.7985 56.5012L83.7985 56.5014L83.7985 56.5016L83.7985 56.5018L83.7986 56.5019L83.7986 56.5021L83.7986 56.5023L83.7986 56.5025L83.7987 56.5026L83.7987 56.5028L83.7987 56.503L83.7987 56.5032L83.7988 56.5034L83.7988 56.5035L83.7988 56.5037L83.7988 56.5039L83.7988 56.5041L83.7989 56.5042L83.7989 56.5044L83.7989 56.5046L83.7989 56.5048L83.799 56.5049L83.799 56.5051L83.799 56.5056L83.7991 56.5061L83.7991 56.5064L83.7992 56.5067L83.7992 56.5071L83.7993 56.5074L83.7993 56.5077L83.7993 56.5081C83.8369 56.8115 83.8745 57.1154 83.9103 57.4201C83.9291 57.5763 83.9631 57.7287 84.003 57.9076L84.0032 57.9083L84.0032 57.9083ZM33.5843 86.9448L33.5695 86.9448C32.0707 85.9076 30.5006 85.2559 28.8493 84.7972C27.2232 84.337 25.5358 84.0916 23.8382 83.9382C24.08 84.2014 24.3368 84.4349 24.5911 84.6663C24.7024 84.7675 24.8133 84.8683 24.9222 84.9711C26.1085 86.0756 27.4891 86.7505 29.1356 86.8119C29.7228 86.8302 30.3063 86.8596 30.8905 86.8889L30.8915 86.889L30.8926 86.889C31.2846 86.9087 31.6768 86.9284 32.0707 86.9448C32.3766 86.9515 32.6782 86.9495 33.012 86.9473L33.0129 86.9473C33.1878 86.9461 33.3716 86.9449 33.5695 86.9448L33.5843 86.9551V86.9448ZM76.7823 83.8564C73.3358 84.3064 70.0019 84.8791 67.0054 86.9244L67.0157 86.9346C67.0927 86.9482 67.1497 86.9618 67.1954 86.9728C67.253 86.9865 67.2928 86.996 67.3327 86.996C67.6693 86.9822 68.0064 86.9694 68.344 86.9566C69.5036 86.9126 70.6681 86.8684 71.8325 86.7812C72.7324 86.7199 73.6222 86.4847 74.3585 85.9324C75.0183 85.4375 75.6634 84.9132 76.3063 84.3906L76.3067 84.3903L76.3091 84.3883C76.4226 84.2961 76.5359 84.204 76.6493 84.112C76.6828 84.0785 76.7032 84.0318 76.7305 83.969C76.7449 83.936 76.7611 83.8986 76.7823 83.8564ZM86.5796 64.405C86.4876 64.7629 86.416 65.0595 86.3444 65.3663C86.2895 65.6161 86.2429 65.8687 86.1963 66.121L86.1963 66.1212L86.1962 66.1213L86.1962 66.1215L86.1961 66.1217L86.1961 66.1219L86.1961 66.122L86.196 66.1221L86.196 66.1221V66.1222C86.0862 66.7164 85.9767 67.3091 85.7615 67.8616C85.4444 68.7002 84.841 69.4161 84.1149 69.9581C83.4048 70.5007 82.6635 71.0122 81.9252 71.5216L81.9249 71.5218L81.923 71.5231L81.921 71.5245C81.7144 71.667 81.508 71.8094 81.3026 71.9524C81.2753 71.9728 81.2389 71.9751 81.2026 71.9774C81.1844 71.9785 81.1662 71.9796 81.1492 71.983C80.9855 70.7251 84.974 65.1106 86.5694 64.3948L86.5796 64.405ZM19.4407 71.8808C18.3975 68.9151 16.4442 66.5834 14.1841 64.4766L14.1943 64.4971C14.1688 64.5073 14.1457 64.515 14.1227 64.5227C14.0997 64.5303 14.0767 64.538 14.0512 64.5482C14.0623 64.6186 14.072 64.6903 14.0819 64.7629L14.0819 64.763L14.0819 64.763C14.0993 64.8907 14.1171 65.0212 14.1432 65.1516C14.1708 65.2897 14.2012 65.4277 14.2316 65.5658C14.3024 65.8879 14.3733 66.2101 14.4091 66.5322C14.542 67.6572 15.0125 68.6287 15.8306 69.3855C16.5465 70.04 17.3237 70.6332 18.101 71.2263C18.3532 71.4172 18.6327 71.5808 18.9122 71.7444L18.9122 71.7444L18.9123 71.7445C19.052 71.8263 19.1918 71.9081 19.3282 71.9933L19.4407 71.8808ZM23.0916 78.3236C21.4553 77.71 19.9929 76.9942 18.7043 75.8999C17.6958 75.0399 17.1654 73.9111 16.6289 72.7691C16.4635 72.4172 16.2976 72.064 16.1169 71.7171C17.7532 72.0444 22.7234 76.7078 23.0916 78.3236ZM66.76 85.0056L66.7598 85.0059L66.7594 85.0066C66.6302 85.2325 66.4975 85.4647 66.3612 85.7075H66.3714C69.5929 84.6848 71.9859 81.2997 72.3234 78.3033C72.2959 78.3216 72.2694 78.3381 72.244 78.3538C72.1844 78.3909 72.1312 78.4239 72.0882 78.4669C71.8993 78.6366 71.7094 78.8032 71.5201 78.9694C71.1046 79.3341 70.6919 79.6963 70.2985 80.0827C70.1824 80.1954 70.0653 80.3074 69.9482 80.4194L69.948 80.4196L69.9478 80.4199C69.3846 80.9588 68.821 81.4982 68.3554 82.1076C68.0573 82.4938 67.84 82.9473 67.6232 83.3997C67.5127 83.6302 67.4024 83.8605 67.2816 84.0814C67.1147 84.3854 66.9408 84.6895 66.76 85.0056ZM77.4266 78.3134L77.4278 78.3093C79.2845 77.6454 80.9575 76.8584 82.2741 75.4704C83.0783 74.6259 83.5347 73.5917 83.9914 72.5567L83.9915 72.5566L83.9915 72.5566L83.9915 72.5565L83.9915 72.5564L83.9915 72.5563L83.9916 72.5563L83.9916 72.5562L83.9916 72.5561L83.9916 72.5561L83.9917 72.556L83.9917 72.5559L83.9917 72.5559L83.9917 72.5558L83.9918 72.5557L83.9918 72.5557L83.9918 72.5556L83.9918 72.5555L83.9918 72.5555L83.9919 72.5554L83.9919 72.5553L83.9919 72.5552L83.9919 72.5552L83.992 72.5551L83.992 72.555L83.992 72.555L83.992 72.5549L83.9921 72.5548L83.9921 72.5548L83.9921 72.5547C84.1159 72.2743 84.2397 71.9939 84.3706 71.7171C82.0714 72.7083 77.9344 76.6298 77.4278 78.3093L77.4163 78.3134H77.4266ZM28.2882 78.3467C28.2559 78.3389 28.2153 78.3293 28.1641 78.3135H28.1539C28.6754 80.6963 29.6572 82.7212 31.5185 84.2348C32.2855 84.8586 33.1139 85.4007 34.1263 85.7177C34.1161 85.6512 34.1161 85.6052 34.1161 85.572C34.1161 85.5387 34.1161 85.5183 34.1059 85.5029C33.9559 85.2404 33.8047 84.979 33.6536 84.7177C33.3513 84.195 33.0491 83.6723 32.7559 83.1405L32.6996 83.0402C32.2585 82.2551 31.8165 81.4681 31.1299 80.86C30.6703 80.4514 30.2157 80.0378 29.7612 79.6241L29.7606 79.6235L29.7603 79.6232L29.76 79.623L29.7595 79.6225C29.3044 79.2083 28.8493 78.7941 28.3891 78.3851C28.3702 78.3662 28.3398 78.359 28.2883 78.3467L28.2882 78.3467ZM42.9111 27.3635C42.6146 28.6419 37.8591 30.4827 35.8137 30.1043C36.0694 28.468 40.784 26.6477 42.9111 27.3635ZM80.0102 43.2423L80.01 43.242C79.7849 42.9221 79.5603 42.6028 79.3697 42.264C78.6845 41.0879 78.1323 39.8505 77.805 38.521C77.6864 38.0317 77.6108 37.5317 77.5353 37.0327C77.5066 36.8432 77.478 36.6539 77.4471 36.4654C77.4471 36.423 77.4715 36.3757 77.4967 36.3268L77.4968 36.3268L77.4968 36.3268L77.4968 36.3267L77.4969 36.3266C77.5081 36.3049 77.5194 36.2829 77.5289 36.2609C77.5517 36.2707 77.5755 36.2784 77.5991 36.286C77.6495 36.3022 77.6986 36.3181 77.7334 36.3529C77.8352 36.461 77.9375 36.5684 78.0399 36.6758L78.0399 36.6758C78.7706 37.4425 79.4989 38.2067 79.9833 39.1755C80.5765 40.3618 80.8117 41.6095 80.5867 42.9185C80.5677 43.0277 80.5509 43.1369 80.5343 43.245C80.5151 43.3699 80.4961 43.4934 80.4742 43.6139C80.4231 43.6344 80.3719 43.6549 80.331 43.6753H80.3106C80.2137 43.5315 80.1138 43.3895 80.0141 43.2477L80.0136 43.2471L80.0134 43.2468L80.0132 43.2466L80.013 43.2462L80.0125 43.2455L80.0123 43.2453L80.0121 43.245L80.012 43.2448L80.0117 43.2444L80.0112 43.2437L80.011 43.2435L80.0108 43.2431L80.0104 43.2426L80.0102 43.2423ZM75.4426 75.0818C73.7858 76.851 73.1518 79.1009 72.5177 81.3815V81.3917C72.5543 81.3615 72.5911 81.3313 72.6281 81.301L72.7384 81.211L72.7385 81.2109C72.9039 81.0761 73.0712 80.9398 73.2336 80.7986C74.1949 79.9907 75.0437 79.0907 75.6675 77.9862C76.3221 76.8306 76.5675 75.6136 76.4857 74.3046C76.4787 74.2276 76.443 74.1554 76.408 74.0848C76.3919 74.0521 76.3759 74.0198 76.363 73.9875C76.3391 74.0054 76.3135 74.0224 76.2877 74.0396C76.225 74.0813 76.161 74.1239 76.1175 74.1818C76.0226 74.3015 75.9361 74.4261 75.8498 74.5504L75.8497 74.5504C75.7221 74.7342 75.5951 74.9171 75.4426 75.0818ZM79.6254 67.3503C80.7606 68.8025 79.5027 73.9466 77.5084 75.7772C77.5165 75.6516 77.5246 75.5405 77.5321 75.438C77.5435 75.2819 77.5534 75.1461 77.5596 75.0102C77.5733 74.7805 77.5916 74.552 77.6099 74.3239V74.3238V74.3238V74.3238V74.3237V74.3237V74.3237V74.3236V74.3236V74.3236V74.3235V74.3235V74.3235V74.3234V74.3234V74.3234V74.3233V74.3233V74.3233V74.3232V74.3232V74.3232V74.3231V74.3231V74.3231V74.323V74.323V74.323V74.3229V74.3229V74.3228V74.3228V74.3228V74.3227V74.3227V74.3227V74.3226V74.3226V74.3226V74.3225V74.3225V74.3225C77.6462 73.8704 77.6823 73.4199 77.6823 72.9648C77.6823 71.799 77.9686 70.7149 78.4697 69.6718C78.7153 69.1603 78.9699 68.6488 79.2275 68.1313L79.2283 68.1297L79.2295 68.1274L79.2313 68.1238L79.2351 68.1162C79.3613 67.8626 79.4882 67.6076 79.6152 67.3503H79.6254ZM20.0645 43.6856C21.1792 43.2049 23.3371 37.8154 23.02 36.1177C22.8007 36.3662 22.5788 36.6049 22.3602 36.8402C21.5797 37.6799 20.8391 38.4768 20.3918 39.5233C19.8191 40.8834 19.7781 42.264 20.0645 43.6856ZM24.145 73.9262C26.1699 76.0431 27.3971 78.5078 27.9391 81.361C27.8402 81.2758 27.7402 81.1929 27.6403 81.1099C27.4403 80.944 27.2403 80.7781 27.0494 80.594C26.1903 79.7759 25.3517 78.9577 24.7995 77.8839C24.2165 76.7488 23.9404 75.5522 24.0734 74.2739C24.0824 74.174 24.1077 74.0741 24.1347 73.967L24.145 73.9262ZM22.9076 75.7465C23.1019 72.658 22.5701 69.8661 20.8008 67.3503C20.3713 68.9968 20.4429 70.6127 20.9747 72.2081C21.4042 73.4762 22.0792 74.6114 22.9076 75.7465ZM81.2105 68.8741C80.6071 66.0106 80.1571 63.2698 80.8219 60.3654C81.5275 61.4392 82.0695 62.5028 82.2639 63.7096C82.5502 65.5197 82.09 67.1867 81.2207 68.8639L81.2105 68.8741ZM19.3077 68.8026C17.4055 65.3562 18.2441 62.4518 19.7168 60.4269C20.3815 63.2699 19.9315 66.0005 19.3077 68.8026ZM78.3879 47.3366C80.5151 47.8172 82.8979 52.2147 82.3457 54.5976C81.4355 54.2499 78.3879 48.6967 78.3879 47.3366ZM18.2748 54.6589C17.3748 52.726 19.7372 48.216 22.161 47.357C21.486 50.1489 19.9724 52.4397 18.2748 54.6589ZM82.7752 60.9177C81.1798 59.2507 79.4515 55.0884 79.7378 53.6464C81.5582 54.4237 83.5115 59.0666 82.7752 60.9177ZM20.8417 53.5851C20.5963 56.3565 19.6759 58.8416 17.7328 60.8461C16.9351 59.2814 18.9702 54.4748 20.8417 53.5851ZM35.374 28.0896C35.149 29.7975 31.7128 32.886 30.0458 32.9167C29.8311 31.3724 33.0321 28.4476 35.374 28.0896ZM76.2301 37.5392C74.7779 37.0892 71.3314 32.6713 71.4235 31.3725C73.387 31.7509 76.4039 35.6166 76.2301 37.5392ZM80.515 46.9683C78.1424 45.557 76.1379 43.8594 74.9619 41.3129C76.8129 41.2208 80.3616 44.8207 80.515 46.9683ZM19.952 47.0603C22.3246 45.5672 24.4109 43.9207 25.5051 41.3129C23.8075 41.8549 22.3655 42.7651 21.3019 44.2071C20.6781 45.0559 20.2486 45.9865 19.952 47.0603ZM65.1646 28.1C67.4656 28.4068 70.0939 30.7385 70.5746 32.8759C69.2758 33.244 65.5021 29.9203 65.1646 28.1ZM24.3802 37.5188C23.9916 35.7598 27.1517 31.6997 29.197 31.352C28.3277 34.0008 26.5585 35.8927 24.3802 37.5188ZM29.3095 37.3858C28.1948 38.9403 24.7995 40.8834 23.3677 40.7709C23.47 39.1346 27.5198 36.8234 29.3095 37.3858ZM77.1811 40.7607C74.7982 40.3823 72.8551 39.2471 71.2393 37.4267C73.1517 36.9052 76.7413 38.9403 77.1811 40.7607ZM62.1477 31.2089L62.1569 31.2062C62.7976 31.7342 63.3781 32.1308 64.0295 32.4463C65.3078 33.0599 66.6475 33.1929 68.0281 33.1213C68.2736 33.1111 68.3043 32.9781 68.1611 32.8043C68.1248 32.7535 68.0731 32.713 68.0206 32.6719C67.9991 32.655 67.9774 32.638 67.9566 32.6202C66.893 31.6896 65.6249 31.2089 64.2442 31.0453C63.5821 30.9638 62.92 30.9837 62.1569 31.2062L62.1477 31.1987V31.2089ZM38.3091 31.26C37.1739 32.5588 33.7889 33.561 32.2957 33.0395C32.8582 31.6895 37.3171 30.3703 38.3091 31.26ZM27.3051 36.2199C27.7755 34.8496 31.498 33.428 32.9196 34.0416C32.3162 35.1359 29.5141 36.5063 27.3051 36.2199ZM70.2781 34.1848C69.3883 33.9292 68.5088 33.9292 67.5271 33.9701H67.5373C67.5641 34.0203 67.5854 34.065 67.6041 34.1043C67.6425 34.185 67.6699 34.2425 67.7112 34.2769C68.5804 35.003 69.5008 35.6575 70.6156 35.9336C71.1626 36.0646 71.7212 36.1259 72.2827 36.1876C72.4665 36.2077 72.6507 36.228 72.8348 36.2507C72.9118 36.2635 72.9929 36.2562 73.073 36.249C73.1204 36.2447 73.1675 36.2404 73.2132 36.2404C73.1974 36.2027 73.1846 36.1621 73.1717 36.1212C73.1427 36.0292 73.1133 35.936 73.0495 35.8723C72.2723 35.0746 71.3621 34.5019 70.2781 34.1848Z" fill="url(#paint0_linear_7549_42574)"/>
</g>
<g clip-path="url(#clip1_7549_42574)">
<path d="M69.7483 71.1807C69.7483 71.1807 69.7483 71.1807 69.7483 71.183C69.6017 71.417 69.4433 71.6439 69.2849 71.8684C68.9538 72.3387 68.6015 72.7948 68.235 73.2391C67.5019 74.1254 66.705 74.9596 65.8514 75.7348C65.8088 75.7726 65.7663 75.8104 65.7237 75.8483C63.1983 78.11 60.3371 79.7832 57.1046 80.8184C56.9604 80.8656 56.8185 80.9271 56.6766 80.9838C56.4094 81.0594 56.4402 80.868 56.4709 80.7285C56.5371 80.4284 56.6341 80.1377 56.7334 79.847C57.5397 77.512 58.3106 75.1652 59.1453 72.8397C59.3321 72.3198 59.2896 71.9062 58.9538 71.4454C57.5918 69.5712 56.2439 67.6876 54.9174 65.7875C54.7495 65.5465 54.5461 65.4377 54.2529 65.4401C51.2924 65.4448 48.3319 65.4448 45.369 65.4401C45.0143 65.4401 44.8038 65.6055 44.6147 65.875C43.5104 67.4537 42.3706 69.0064 41.2711 70.5875C41.0393 70.9207 40.7911 71.2397 40.5499 71.5635C40.2921 71.9109 40.2496 72.2371 40.3962 72.653C41.037 74.4846 41.64 76.328 42.2666 78.1643C42.3328 78.3605 42.4368 78.5519 42.3895 78.7717C42.2098 78.9915 42.0372 78.8402 41.8764 78.7504C40.6894 78.0934 39.6087 77.2828 38.5778 76.4084C36.8894 74.9785 35.421 73.3502 34.2008 71.4997C34.1157 71.3721 33.9502 71.2563 34.0637 71.0625C34.7683 70.9065 35.4801 70.9609 36.1848 71.0223C36.9816 71.0909 37.7762 71.0507 38.5707 71.0578C38.8379 71.0578 39.0034 70.89 39.1453 70.6867C40.1313 69.264 41.1434 67.8578 42.1484 66.4469C42.5456 65.8891 42.9381 65.3314 43.3401 64.776C43.5127 64.5373 43.5482 64.3104 43.4536 64.0316C42.574 61.4413 41.6636 58.8606 40.8076 56.2609C40.7178 55.9844 40.5522 55.8237 40.2827 55.7173C38.2396 54.9185 36.1848 54.1575 34.1583 53.3209C33.735 53.146 33.4158 53.198 33.0422 53.4722C32.2689 54.0441 31.5241 54.6562 30.6941 55.1501C30.6255 55.162 30.5593 55.1525 30.5002 55.1147C30.3347 54.9351 30.3796 54.72 30.4151 54.5191C30.7887 52.4441 31.2994 50.4093 32.224 48.5021C32.3753 48.1901 32.4534 47.8427 32.6686 47.5615C32.7064 47.5331 32.749 47.526 32.7939 47.5425C33.0256 48.0648 33.132 48.6297 33.3094 49.1685C33.5127 49.7924 33.6759 50.4282 33.8414 51.0616C33.9147 51.3428 34.0731 51.52 34.3474 51.6217C36.4662 52.4134 38.5565 53.2736 40.6728 54.0701C40.9353 54.1693 41.1458 54.1457 41.3775 53.9897C42.9287 52.9475 44.4491 51.858 45.9909 50.8016C46.8303 50.2249 47.6674 49.6483 48.4998 49.0598C48.8024 48.8447 48.9372 48.599 48.9348 48.2232C48.9207 46.1316 48.923 44.0377 48.9348 41.9462C48.9348 41.6011 48.8095 41.379 48.5258 41.1875C46.9651 40.1335 45.4186 39.0605 43.884 37.9663C43.5577 37.7323 43.1651 37.5882 42.9074 37.2573C42.8979 37.2124 42.905 37.1675 42.9263 37.1273C43.028 36.9879 43.177 36.9075 43.3259 36.8343C45.5558 35.7495 47.8755 34.9436 50.3394 34.6104C49.8192 34.6269 49.2895 34.5773 48.767 34.6316C48.2278 34.6883 47.6816 34.686 47.1448 34.7687C46.958 34.7971 46.7523 34.8207 46.601 34.6458C48.975 34.2559 51.3397 34.3575 53.7019 34.7569C55.09 34.9909 56.4544 35.3194 57.7738 35.8157C57.9015 35.8629 58.041 35.8842 58.1758 35.9173C58.4478 36.13 58.1853 36.234 58.0694 36.3261C57.5894 36.709 57.0668 37.0351 56.5631 37.3873C54.7447 38.6588 52.9192 39.9231 51.089 41.1734C50.7934 41.3766 50.6728 41.6129 50.6752 41.9745C50.687 44.0543 50.687 46.134 50.6752 48.2114C50.6752 48.5966 50.7863 48.8755 51.1127 49.0929C53.4513 50.6645 55.7426 52.3094 58.0694 53.8999C58.391 54.1197 58.6677 54.1528 59.0389 54.0134C61.0228 53.2595 62.9807 52.4441 64.9765 51.7186C65.4234 51.5555 65.7001 51.2955 65.8207 50.8276C66.2156 49.2725 66.7098 47.7434 67.1283 46.1954C67.3719 45.2926 67.6627 44.404 67.911 43.5012C67.9607 43.3169 68.0032 42.9908 68.3319 43.2791C68.8048 44.0164 69.3676 44.69 69.8405 45.4297C71.4414 47.9396 72.5173 50.6503 73.1132 53.5596C73.4419 55.1643 73.5719 56.7856 73.6003 58.4186C73.4017 58.5935 73.2669 58.4092 73.1321 58.3217C72.6048 57.9791 72.1106 57.5891 71.6093 57.2133C69.8736 55.9206 68.1215 54.6562 66.3953 53.3516C66.1115 53.1366 65.8467 53.1484 65.5369 53.2736C63.7114 54.011 61.8883 54.7578 60.0344 55.4077C59.1619 55.715 58.7622 56.2136 58.495 57.055C57.7927 59.26 57.0668 61.4602 56.2557 63.6298C56.05 64.1828 56.0997 64.6035 56.4591 65.0927C57.7975 66.9125 59.1028 68.7582 60.3962 70.6111C60.6185 70.9301 60.8786 71.0672 61.2711 71.0601C63.0139 71.0341 64.7566 70.9916 66.4969 70.8923C66.5655 70.8876 66.6365 70.8876 66.7074 70.8852C67.6556 70.8616 68.6062 70.9278 69.5544 70.8451C69.7649 70.8262 69.8642 70.994 69.753 71.1736L69.7483 71.1807Z" fill="url(#paint1_linear_7549_42574)"/>
<path d="M30.5354 55.121C30.1452 55.5676 29.6226 55.8489 29.1592 56.201C28.2015 56.9242 27.2273 57.6237 26.2601 58.3327C26.1821 58.3895 26.1159 58.4674 26.0024 58.4391C25.9504 52.6867 27.8232 47.6079 31.363 43.1128C31.6373 43.1034 31.6562 43.3326 31.7106 43.5051C31.8903 44.0889 32.0511 44.6797 32.1977 45.2753C32.3443 45.8708 32.5903 46.4357 32.7227 47.0336C32.7605 47.2038 32.8456 47.3834 32.7061 47.5512C32.6919 47.8371 32.5572 48.0877 32.4366 48.3311C31.7886 49.6286 31.3346 50.9946 30.9941 52.3984C30.8097 53.1641 30.6111 53.9251 30.5141 54.7097C30.4976 54.8515 30.5047 54.9839 30.5354 55.1186V55.121Z" fill="#F3C56B"/>
<path d="M29.7692 71.099C29.8094 70.8154 30.0317 70.9501 30.1641 70.9501C31.2897 70.969 32.4152 71.0044 33.5432 71.0328C33.6827 71.0375 33.8198 71.0281 33.9593 71.0257C33.9995 71.0351 34.0279 71.0588 34.0492 71.0942C35.1464 72.7462 36.3996 74.2658 37.8563 75.6129C39.1568 76.8135 40.5614 77.877 42.1031 78.7538C42.1717 78.7916 42.2639 78.7893 42.3443 78.8058C42.3727 78.8342 42.3987 78.8625 42.4271 78.8909C42.7392 79.4155 42.9615 79.978 43.1199 80.5641C43.1625 80.7225 43.2689 80.9068 43.0703 81.051C41.7035 80.5807 40.3415 80.0962 39.0528 79.4344C35.3592 77.5367 32.3443 74.8756 30.0199 71.4345C29.9418 71.3187 29.8567 71.21 29.774 71.099H29.7692Z" fill="#F3C56B"/>
<path d="M42.9446 37.1658C42.4481 36.8302 41.9515 36.497 41.4549 36.1614C41.3721 36.1046 41.2965 36.0408 41.3556 35.9227C42.3747 35.6556 43.3513 35.2397 44.3918 35.0364C45.1248 34.8923 45.8531 34.7174 46.6003 34.6465C47.5722 34.6725 48.5322 34.4574 49.5065 34.4881C49.9132 34.5023 50.3223 34.4881 50.7337 34.5307C50.327 34.819 49.847 34.8143 49.3977 34.8946C47.2884 35.2727 45.3116 36.0267 43.3868 36.9413C43.2378 37.0122 43.0912 37.0902 42.9446 37.1658Z" fill="#F3C56B"/>
<path d="M42.3396 78.8078C41.7721 77.118 41.2046 75.4282 40.6371 73.7361C40.5567 73.4974 40.5141 73.2421 40.3959 73.0247C40.0175 72.3322 40.2067 71.791 40.6607 71.1813C42.0204 69.3615 43.3209 67.4945 44.6333 65.6369C44.787 65.4171 44.9407 65.332 45.2103 65.332C48.2677 65.3415 51.3276 65.3391 54.385 65.3368C54.5837 65.3368 54.7539 65.3368 54.8934 65.5353C56.3477 67.5985 57.809 69.6569 59.2798 71.7107C59.4524 71.9517 59.4855 72.1503 59.3886 72.4362C58.4593 75.1375 57.5465 77.8459 56.6409 80.5567C56.6007 80.6772 56.3595 80.871 56.6764 80.9821C55.6808 81.2657 54.6641 81.4524 53.6496 81.6509C52.8196 81.8116 51.9802 81.8848 51.1431 81.9841C50.7009 81.7974 50.2209 81.7809 49.7574 81.6981C47.3597 81.2727 45.0944 80.4739 42.9355 79.3584C42.7369 79.2568 42.5264 79.1741 42.3845 78.9874C42.342 78.933 42.3136 78.874 42.3396 78.8031V78.8078Z" fill="#F7F7F7"/>
<path d="M69.7596 71.1777C69.8045 71.1257 69.7738 71.0382 69.7146 71.0004C69.6555 70.9626 69.5822 70.9602 69.5113 70.9602C68.459 70.9602 67.4115 71.0288 66.3592 71.0619C65.307 71.0949 64.1578 71.1257 63.0582 71.1564C62.389 71.1753 61.7175 71.1753 61.0483 71.2107C60.7763 71.2249 60.6132 71.1328 60.4619 70.9153C59.3434 69.3319 58.2155 67.7555 57.0923 66.1768C56.7517 65.6994 56.416 65.2197 56.0684 64.7494C55.9218 64.5532 55.8863 64.3736 55.9691 64.1302C56.8818 61.4667 57.7898 58.8032 58.686 56.1326C58.7806 55.8467 58.9461 55.7072 59.2133 55.6056C61.3344 54.7879 63.4531 53.9678 65.5671 53.1312C65.8981 52.9989 66.1322 53.006 66.4373 53.2328C68.66 54.8966 70.897 56.5368 73.1339 58.1793C73.2734 58.2809 73.3893 58.4487 73.5997 58.418C73.4862 60.8333 73.1907 63.2132 72.4221 65.5269C72.11 66.4699 71.7388 67.394 71.3131 68.292C71.0672 68.8143 70.7882 69.3201 70.5139 69.8282C70.3507 70.1331 70.1805 70.4238 70.0528 70.7475C69.9866 70.913 69.9014 71.0784 69.7548 71.1777C69.7548 71.1777 69.7548 71.1777 69.7548 71.1753L69.7596 71.1777Z" fill="#F7F7F7"/>
<path d="M68.3195 43.2644C68.0807 43.1604 68.0949 43.2904 68.0381 43.4865C67.6574 44.7982 67.2862 46.1122 66.9102 47.4262C66.5508 48.6859 66.1843 49.9432 65.8248 51.2028C65.7633 51.4155 65.6711 51.5691 65.4441 51.6566C63.193 52.5239 60.9442 53.3984 58.6978 54.2799C58.4968 54.3579 58.3833 54.2633 58.2462 54.1688C55.9998 52.6114 53.7794 51.0138 51.4904 49.5225C50.7219 49.0215 50.4737 48.485 50.5044 47.5987C50.573 45.7033 50.5328 43.8032 50.5186 41.9054C50.5162 41.5604 50.6179 41.3453 50.904 41.1492C53.1126 39.6343 55.3117 38.1076 57.5132 36.5808C57.7189 36.439 57.9222 36.2902 58.1303 36.1484C58.2273 36.0822 58.2675 36.0136 58.1729 35.9167C59.6768 36.5714 61.1689 37.2473 62.5498 38.143C63.8575 38.9915 65.0847 39.9392 66.2079 41.0239C66.5413 41.3453 66.8865 41.6644 67.1916 42.0118C67.4777 42.3403 67.7402 42.6972 68.0878 42.9642C68.1776 43.0328 68.277 43.1887 68.3172 43.262L68.3195 43.2644Z" fill="#F7F7F7"/>
<path d="M30.5354 55.1224C30.5874 55.1105 30.637 55.0987 30.6891 55.0869C30.3556 56.1504 30.4219 57.2494 30.3982 58.3412C30.3533 60.4541 30.708 62.5125 31.2566 64.5403C31.8241 66.6413 32.6943 68.6147 33.8127 70.4817C33.9168 70.6566 34.1296 70.8315 33.9239 71.0749C33.73 71.1789 33.5172 71.1576 33.3091 71.1576C32.1953 71.1671 31.0816 71.1694 29.9702 71.0725C29.8993 71.0654 29.8331 71.0654 29.7669 71.0985C29.0764 69.9405 28.3906 68.7706 27.8822 67.5252C27.336 66.1899 26.8465 64.8262 26.5746 63.3964C26.3594 62.2502 26.1159 61.1134 26.0615 59.9412C26.0378 59.4425 26 58.9439 26 58.4429C26.0922 58.3365 26.1939 58.2467 26.3074 58.164C27.6198 57.1997 28.9392 56.2426 30.2421 55.2642C30.3296 55.198 30.4077 55.1105 30.533 55.1247L30.5354 55.1224Z" fill="#F7F7F7"/>
<path d="M32.7034 47.5543C32.3014 46.1245 31.8994 44.6971 31.4927 43.2696C31.4762 43.2105 31.4052 43.168 31.3603 43.116C32.0035 42.4661 32.5521 41.724 33.2378 41.1143C34.3894 40.0909 35.5504 39.0889 36.8581 38.2546C38.2224 37.3849 39.6507 36.6664 41.1357 36.0425C41.2113 36.0118 41.2799 35.9622 41.3509 35.922C41.7528 36.26 42.1974 36.5412 42.6207 36.8508C42.7413 36.9382 42.8831 37.0091 42.9399 37.1651C42.9446 37.1887 42.9493 37.2124 42.9541 37.236C42.8831 37.3944 42.7223 37.4274 42.5923 37.5007C40.2087 38.8124 38.1255 40.4951 36.3142 42.5252C35.016 43.9833 33.9567 45.6046 32.9966 47.2944C32.9351 47.4007 32.8973 47.5284 32.7672 47.5803C32.7436 47.5733 32.7223 47.5638 32.6987 47.552L32.7034 47.5543Z" fill="#F7F7F7"/>
<path d="M43.0654 81.0505C43.0796 80.5944 42.8384 80.2092 42.7178 79.7909C42.6303 79.4884 42.4671 79.1339 42.3678 78.8337C42.4908 78.9212 42.661 79.0795 42.7934 79.1504C45.125 80.3865 47.5913 81.2183 50.1947 81.665C50.5163 81.7194 50.9136 81.6296 51.1429 81.9864C49.8897 81.9864 48.6341 82.0455 47.3903 81.8919C46.0282 81.7217 44.6851 81.4405 43.3515 81.1096C43.2569 81.086 43.1623 81.0695 43.0654 81.0505Z" fill="#F7F7F7"/>
<path d="M32.7725 47.5833C33.0397 46.8601 33.4937 46.2362 33.891 45.5887C35.0213 43.7429 36.4046 42.0886 38.0078 40.6375C39.3887 39.3896 40.8785 38.2765 42.5361 37.4091C42.6708 37.3382 42.8175 37.2933 42.9593 37.2343C43.8177 37.7306 44.598 38.3427 45.4162 38.898C46.5134 39.6425 47.594 40.4106 48.6912 41.1527C48.956 41.3323 49.0766 41.5237 49.0743 41.864C49.0553 44.0548 49.0624 46.248 49.0695 48.4412C49.0695 48.6846 49.0175 48.8501 48.8023 48.999C46.2864 50.7336 43.7775 52.4778 41.271 54.2243C41.1244 54.3259 41.0014 54.3283 40.8454 54.2692C38.6084 53.3971 36.3715 52.5298 34.1345 51.6601C33.9903 51.6034 33.8555 51.5466 33.8058 51.3694C33.4677 50.1617 33.1201 48.954 32.7796 47.7487C32.7654 47.6968 32.7725 47.6377 32.7701 47.5833H32.7725Z" fill="#F7F7F7"/>
<path d="M34.0442 71.0956C34.0134 71.072 33.985 71.0507 33.9543 71.0271C33.6682 70.5048 33.375 69.9872 33.0959 69.4625C32.675 68.6779 32.2872 67.8767 31.9515 67.0519C31.235 65.2794 30.7526 63.436 30.4736 61.5548C30.2229 59.8508 30.1591 58.1232 30.3435 56.4004C30.353 56.3177 30.3601 56.2326 30.3506 56.1499C30.3057 55.7457 30.3766 55.3818 30.684 55.0887C31.5755 54.4223 32.4693 53.7558 33.3584 53.0846C33.505 52.9735 33.6351 53.009 33.7864 53.0681C36.0328 53.9449 38.2792 54.8217 40.5327 55.6866C40.7928 55.7859 40.833 55.9962 40.904 56.1995C41.7245 58.6148 42.5072 61.042 43.3821 63.436C43.6493 64.171 43.6067 64.6768 43.1243 65.3125C41.7718 67.1016 40.502 68.9568 39.2156 70.7955C38.991 71.1145 38.745 71.2303 38.3502 71.2138C36.9148 71.1523 35.4771 71.1334 34.0394 71.098L34.0442 71.0956Z" fill="#F7F7F7"/>
</g>
<defs>
<linearGradient id="paint0_linear_7549_42574" x1="14" y1="92.9176" x2="82.2199" y2="43.5713" gradientUnits="userSpaceOnUse">
<stop stop-color="#F5C464"/>
<stop offset="1" stop-color="#F2C162" stop-opacity="0.6"/>
</linearGradient>
<linearGradient id="paint1_linear_7549_42574" x1="29.071" y1="70.1" x2="72.0645" y2="51.2903" gradientUnits="userSpaceOnUse">
<stop stop-color="#F2C162"/>
<stop offset="1" stop-color="#F2C162" stop-opacity="0.65"/>
</linearGradient>
<clipPath id="clip0_7549_42574">
<rect width="72.6" height="70.1763" fill="white" transform="translate(14 27.2)"/>
</clipPath>
<clipPath id="clip1_7549_42574">
<rect width="47.6" height="47.6" fill="white" transform="translate(26 34.4)"/>
</clipPath>
</defs>
</svg>
