<svg width="80" height="80" viewBox="0 0 80 80" fill="none" xmlns="http://www.w3.org/2000/svg">
<circle cx="40" cy="40" r="40" fill="white"/>
<g clip-path="url(#clip0_8545_61948)">
<path fill-rule="evenodd" clip-rule="evenodd" d="M47.5252 7.34314C49.908 6.70908 54.0908 8.29423 54.7351 10.0532C53.2215 10.6771 48.4354 8.89761 47.5252 7.34314ZM71.6936 22.4628C71.6555 22.4344 71.6102 22.4006 71.5582 22.356L71.5378 22.3663C71.3435 23.6446 71.2923 24.8207 71.4355 25.9968C71.6023 27.41 72.1006 28.7178 72.6006 30.03C72.6831 30.2466 72.7657 30.4633 72.8468 30.6806C72.8672 30.7284 72.915 30.767 72.9627 30.8056C72.9866 30.8249 73.0104 30.8443 73.0309 30.8647C73.0477 30.8452 73.0667 30.8256 73.086 30.8058C73.1372 30.7532 73.1899 30.6992 73.2047 30.6397L73.2049 30.6389C73.3582 29.9029 73.5116 29.1668 73.624 28.4205C73.7774 27.3876 73.7161 26.3752 73.2559 25.4241C72.8978 24.6841 72.5212 23.9503 72.1452 23.2178L72.1446 23.2166C72.0376 23.0081 71.9306 22.7997 71.8241 22.5913C71.8046 22.5457 71.7602 22.5125 71.6936 22.4628ZM7.29709 30.2905L7.29707 30.2904C6.88072 28.5733 6.47959 26.9188 7.36463 25.24C7.69309 24.6269 8.00071 24.0033 8.3098 23.3768L8.30981 23.3768L8.30995 23.3765C8.43388 23.1253 8.55804 22.8736 8.68388 22.6219C8.71789 22.5539 8.7731 22.5001 8.83188 22.4427L8.83197 22.4426L8.83224 22.4423L8.83241 22.4422C8.84417 22.4307 8.85607 22.4191 8.86797 22.4072C9.70656 23.5628 8.78615 29.2182 7.45667 30.9159H7.44644C7.39793 30.7064 7.3474 30.498 7.29709 30.2905ZM6.22715 29.8588L6.22716 29.8589L6.22716 29.8589C6.34749 30.2055 6.46834 30.5535 6.57717 30.9056C7.18055 32.8794 7.03738 34.8634 6.71012 36.8576C6.68011 37.0277 6.65743 37.1978 6.63492 37.3667C6.61141 37.543 6.58806 37.7181 6.55672 37.8905C6.54963 37.9472 6.50816 37.9941 6.46635 38.0414C6.44783 38.0623 6.42924 38.0833 6.41354 38.1053C6.39541 38.0932 6.37459 38.082 6.35348 38.0707L6.35345 38.0706C6.30312 38.0436 6.25107 38.0156 6.22946 37.9724C6.10945 37.7552 5.98305 37.5412 5.85695 37.3278C5.53175 36.7773 5.20859 36.2302 5.00224 35.6406C4.76703 34.9759 4.71589 34.2191 4.73635 33.5032C4.77726 32.3169 5.1761 31.192 5.58517 30.0773C5.64653 29.9116 5.69685 29.7459 5.74716 29.5802L5.74719 29.5802C5.78072 29.4698 5.81426 29.3593 5.85107 29.2489H6.0147V29.2387C6.08354 29.4452 6.15525 29.6518 6.22715 29.8588ZM76.5839 37.818L76.5839 37.8169C76.5766 37.3612 76.5694 36.902 76.5694 36.4383V36.4281C75.0967 37.236 72.8979 44.4971 73.7263 45.7038C73.8889 45.5162 74.0497 45.3266 74.2105 45.1369C74.5756 44.7062 74.9415 44.2747 75.3319 43.863C76.0989 43.0551 76.4671 42.0426 76.5387 40.9893C76.6176 39.9419 76.6009 38.8895 76.5839 37.818ZM56.852 62.3019C56.985 64.2144 51.0841 69.338 49.2637 68.9289C49.6626 68.3971 50.0614 67.8653 50.4603 67.3233C50.7671 66.904 51.0637 66.4745 51.3398 66.0245C52.0761 64.8177 53.1806 64.0609 54.4078 63.4473C54.9005 63.1978 55.3971 62.9563 55.8927 62.7153L55.893 62.7152L55.8932 62.7151L55.8934 62.715C56.1898 62.5708 56.4858 62.4269 56.7804 62.2815C56.8009 62.2815 56.8316 62.2815 56.852 62.3019ZM50.3443 65.1307L50.3443 65.1306L50.3443 65.1306C50.3483 65.1046 50.3524 65.0784 50.3581 65.0529L50.3683 65.0427C50.3363 65.0427 50.3106 65.0411 50.2893 65.0398H50.2893C50.2561 65.0378 50.2336 65.0365 50.2149 65.0427C49.942 65.1402 49.6711 65.2438 49.4004 65.3475C48.8189 65.57 48.2378 65.7924 47.6377 65.9529C46.1344 66.3517 44.897 67.1085 43.9459 68.3664C43.8876 68.4435 43.8295 68.5208 43.7714 68.5981C43.1354 69.4443 42.4958 70.2953 41.6244 70.9231C41.4403 71.056 41.4301 71.2094 41.5937 71.3628C41.6326 71.4017 41.6715 71.4413 41.7105 71.481L41.7106 71.4811C41.8873 71.6608 42.0677 71.8443 42.2687 71.9867C42.4309 72.1002 42.5909 72.2188 42.7511 72.3374C43.1969 72.6675 43.6436 72.9984 44.1402 73.2241C46.1242 74.1138 48.1389 73.807 50.1229 73.1934C51.0647 72.9036 51.9963 72.5677 52.9249 72.2327L52.925 72.2327L52.9251 72.2326C53.3072 72.0948 53.6888 71.9572 54.0704 71.8231C54.1785 71.7815 54.2798 71.7332 54.4183 71.6671L54.4186 71.667L54.5204 71.6185C54.4579 71.5912 54.4073 71.5668 54.3641 71.546C54.2942 71.5123 54.2437 71.488 54.1931 71.4753C53.842 71.3828 53.4919 71.2842 53.1415 71.1856L53.1415 71.1856L53.1414 71.1856L53.1414 71.1856L53.1413 71.1856L53.1413 71.1856L53.1412 71.1855L53.1412 71.1855L53.1412 71.1855L53.1411 71.1855L53.1411 71.1855L53.141 71.1855L53.141 71.1855L53.1409 71.1855L53.1409 71.1855L53.1408 71.1854L53.1408 71.1854L53.1407 71.1854L53.1407 71.1854L53.1406 71.1854L53.1406 71.1854L53.1406 71.1854L53.1405 71.1854L53.1405 71.1853L53.1404 71.1853L53.1404 71.1853L53.1403 71.1853L53.1403 71.1853L53.1402 71.1853L53.1402 71.1853L53.1401 71.1853L53.1401 71.1853L53.1401 71.1852L53.14 71.1852L53.14 71.1852L53.1399 71.1852L53.1399 71.1852L53.1398 71.1852L53.1398 71.1852L53.1397 71.1852L53.1397 71.1852L53.1396 71.1851L53.1396 71.1851L53.1395 71.1851L53.1395 71.1851L53.1395 71.1851L53.1394 71.1851C52.3679 70.9679 51.5952 70.7504 50.8081 70.5958C48.8854 70.2174 46.9628 70.1049 45.0708 70.7799C44.972 70.8152 44.8487 70.7871 44.728 70.7596C44.6739 70.7473 44.6203 70.7351 44.5697 70.7288C44.5952 70.6891 44.6192 70.6462 44.6433 70.603C44.7062 70.4905 44.7702 70.376 44.8663 70.3095C45.1444 70.1295 45.4312 69.9583 45.719 69.7865L45.7191 69.7865L45.7192 69.7864L45.7193 69.7863L45.7194 69.7862L45.7196 69.7862L45.7197 69.7861L45.7198 69.786L45.7209 69.7854L45.7209 69.7853L45.7219 69.7847L45.7221 69.7846C45.973 69.6348 46.2247 69.4846 46.4719 69.3277C48.0775 68.305 49.3047 66.9142 50.2865 65.3086C50.3234 65.2642 50.3337 65.1985 50.3443 65.1307ZM36.9303 73.3775C38.7506 73.0809 40.4994 73.2139 42.2073 73.9911C42.494 73.9943 42.3756 73.8598 42.2876 73.7598C42.1559 73.6103 42.0922 73.5378 43.5527 74.1187C43.8406 74.2499 44.1539 74.3765 44.5 74.5C44.129 74.3494 43.8161 74.2234 43.5527 74.1187C42.1217 73.467 41.3172 72.7053 40.234 71.6797C39.8926 71.3564 39.5235 71.007 39.0983 70.6265C38.7043 70.2767 38.3182 69.9174 37.9319 69.558C37.3357 69.0032 36.7389 68.4479 36.1121 67.9266C35.4269 67.3641 34.6701 66.8221 33.8724 66.454C33.2989 66.1919 32.6762 66.028 32.0521 65.8637C31.7749 65.7907 31.4974 65.7176 31.2237 65.6358C30.8918 65.5362 30.5665 65.4299 30.2207 65.3169L30.2206 65.3168L29.976 65.237C29.9858 65.2694 29.9934 65.2966 30 65.3201L30 65.3201C30.0142 65.3706 30.0234 65.4033 30.0374 65.4313C30.8555 66.7608 31.868 67.9266 33.085 68.8879C33.5359 69.2462 34.0279 69.5597 34.5204 69.8736C34.8432 70.0793 35.1663 70.2851 35.4781 70.5038C35.5691 70.5668 35.6265 70.6873 35.6833 70.8063L35.6833 70.8063C35.7094 70.8611 35.7354 70.9156 35.7644 70.964C35.6008 70.9537 35.4269 70.9435 35.2633 70.9435C35.2479 70.9435 35.2352 70.9384 35.2224 70.9333C35.2096 70.9282 35.1968 70.9231 35.1815 70.9231C33.1157 70.3401 31.0396 70.4015 28.9636 70.8515C28.2997 70.9948 27.6525 71.2161 27.0055 71.4372L27.0048 71.4375L27.0042 71.4377L27.0036 71.4379C26.7743 71.5163 26.5449 71.5947 26.3148 71.6696C26.2368 71.6909 26.1687 71.7466 26.1001 71.8026C26.0698 71.8274 26.0394 71.8522 26.008 71.8742C26.0385 71.8955 26.068 71.9186 26.0975 71.9416L26.0975 71.9417C26.167 71.996 26.2359 72.05 26.3148 72.0787C26.7997 72.2501 27.2863 72.418 27.7733 72.586L27.7733 72.5861L27.7734 72.5861L27.7737 72.5862L27.774 72.5863L27.7745 72.5865L27.7751 72.5867L27.7756 72.5869L27.7761 72.587L27.7767 72.5872L27.7772 72.5874L27.7778 72.5876L27.7783 72.5878L27.7788 72.588L27.7794 72.5881L27.7801 72.5884L27.7802 72.5884L27.7803 72.5885L27.7803 72.5885L27.7804 72.5885L27.7805 72.5885L27.7805 72.5886L27.7806 72.5886L27.7807 72.5886L27.7807 72.5886L27.7808 72.5886L27.7808 72.5887L27.7809 72.5887L27.781 72.5887L27.781 72.5887L27.7811 72.5888L27.7812 72.5888L27.7812 72.5888L27.7813 72.5888L27.7813 72.5889L27.7814 72.5889L27.7815 72.5889L27.7815 72.5889L27.7816 72.5889L27.7819 72.5891L27.7822 72.5892L27.7825 72.5893L27.783 72.5895L27.7836 72.5897L27.7841 72.5898L27.7846 72.59L27.7852 72.5902L27.7867 72.5907L27.7868 72.5908L27.7868 72.5908L27.7869 72.5908L27.7869 72.5908L27.787 72.5908L27.7871 72.5909L27.7871 72.5909L27.7872 72.5909L27.7872 72.5909L27.7873 72.591L27.7873 72.591C28.487 72.8324 29.1873 73.0741 29.884 73.3264C31.0498 73.7354 32.2362 74.0422 33.4736 73.9195C34.2603 73.8429 35.0423 73.7047 35.8261 73.5662L35.8263 73.5662L35.8265 73.5661L35.827 73.5661L35.8276 73.5659C36.1946 73.5011 36.5619 73.4362 36.9303 73.3775ZM61.6177 68.2641C61.5768 68.3016 61.5416 68.3368 61.5098 68.3687L61.5098 68.3687C61.4461 68.4323 61.3961 68.4823 61.3416 68.5096C60.4826 68.98 59.6235 69.4504 58.7747 69.9209C57.5577 70.5958 56.2691 70.7901 54.9192 70.4833C53.95 70.2585 52.9868 69.9984 52.0249 69.7387C51.7181 69.6558 51.4113 69.573 51.1046 69.4913C51.7284 68.6118 58.8156 67.7528 61.6177 68.2539V68.2641ZM29.3727 69.4606C27.3375 68.4175 21.6719 67.7835 18.8289 68.3664C18.8652 68.3888 18.9015 68.4126 18.9383 68.4368C19.036 68.5011 19.1367 68.5672 19.2481 68.6118C19.7983 68.8365 20.3135 69.1289 20.8297 69.4219L20.8297 69.422C21.465 69.7826 22.1018 70.1441 22.8071 70.3811C23.8604 70.739 24.8729 70.647 25.8956 70.4015C26.9796 70.1356 28.0534 69.8595 29.1272 69.5834C29.1796 69.5703 29.2235 69.5446 29.2752 69.5145L29.2753 69.5144L29.2753 69.5144L29.2755 69.5143L29.2755 69.5143C29.3045 69.4974 29.336 69.479 29.3727 69.4606ZM23.5639 62.2917C23.6835 62.35 23.8022 62.4092 23.9205 62.4682L23.9208 62.4683L23.9208 62.4683L23.9209 62.4684L23.921 62.4684L23.9216 62.4687C24.1974 62.6063 24.4713 62.7428 24.7502 62.8644C26.1001 63.4473 27.4194 64.0712 28.4216 65.1757C28.6869 65.4625 28.912 65.7896 29.1357 66.1145L29.1357 66.1146L29.1358 66.1147L29.1358 66.1148C29.2311 66.2532 29.3261 66.3912 29.4238 66.5256C29.9075 67.1992 30.3911 67.8802 30.8625 68.5438L31.1215 68.9084C29.4034 69.3584 23.6661 64.4291 23.5639 62.3019V62.2917ZM6.976 45.6936C6.87373 42.3699 6.16808 39.2303 4.05113 36.4895C4.04602 36.5227 4.04027 36.556 4.03452 36.5892C4.01726 36.6889 4 36.7886 4 36.8883C4 37.0315 4.00327 37.1747 4.00655 37.3179C4.01145 37.5326 4.01636 37.7474 4.01023 37.9621C4.01364 38.3271 4.0125 38.6909 4.01136 39.0539C4.00909 39.7795 4.00683 40.502 4.04091 41.2245C4.09204 42.2574 4.56247 43.1471 5.24767 43.9141C5.45806 44.1479 5.66251 44.3935 5.86555 44.6375C5.92899 44.7137 5.99229 44.7898 6.05559 44.8652C6.18856 45.0187 6.32153 45.1695 6.45451 45.3204C6.58743 45.4712 6.72035 45.622 6.85328 45.7754C6.87373 45.7601 6.89418 45.7473 6.91464 45.7345C6.93509 45.7217 6.95554 45.7089 6.976 45.6936ZM61.9654 63.3144C64.2971 60.8191 67.2425 59.418 70.4435 58.4874C70.4519 58.4986 70.4603 58.509 70.4687 58.5191C70.4756 58.5274 70.4825 58.5355 70.4895 58.5436L70.4954 58.5505C70.5042 58.5608 70.513 58.5713 70.5219 58.5823C70.5264 58.588 70.531 58.5938 70.5355 58.5999C70.459 58.712 70.3801 58.8241 70.3011 58.9362L70.3004 58.9372L70.3001 58.9376L70.2999 58.9379L70.2996 58.9383L70.2994 58.9386L70.2991 58.939L70.2989 58.9393C70.2201 59.0512 70.1413 59.163 70.0651 59.2748C69.339 60.3077 68.6026 61.3304 67.447 61.944C66.4243 62.486 65.3403 62.7928 64.2153 63.0178C63.9137 63.0792 63.612 63.1431 63.3103 63.207C63.0086 63.2709 62.7069 63.3349 62.4052 63.3962C62.3064 63.419 62.2019 63.4249 62.1002 63.4306C62.0651 63.4325 62.0303 63.4345 61.9961 63.4371C61.9961 63.4099 61.987 63.3826 61.9779 63.3553C61.9734 63.3417 61.9689 63.328 61.9654 63.3144ZM18.655 63.4064C16.2619 60.8293 13.2962 59.4078 9.95202 58.4362L9.94179 58.4464L9.96968 58.5212C10.0104 58.6305 10.0288 58.6801 10.0543 58.7226C10.177 58.8852 10.2998 59.0488 10.4228 59.2127L10.4231 59.2131C10.71 59.5953 10.9983 59.9796 11.2917 60.3588C12.0587 61.3508 13.0303 62.0974 14.237 62.4349C15.2545 62.7213 16.2886 62.9577 17.3189 63.1932L17.3206 63.1936L17.3206 63.1936L17.3206 63.1936L17.3207 63.1936L17.3207 63.1936L17.3208 63.1936L17.3208 63.1937C17.6879 63.2776 18.0546 63.3614 18.4198 63.4473C18.4505 63.4535 18.4848 63.4449 18.5339 63.4326C18.5667 63.4244 18.6059 63.4146 18.655 63.4064ZM74.0032 37.9083C74.0286 38.022 74.0564 38.1465 74.0842 38.2894V38.2996C74.1537 38.1873 74.2176 38.0828 74.2779 37.9841C74.4484 37.7051 74.5903 37.4729 74.7489 37.2462C75.6898 35.9168 76.0477 34.4543 75.6898 32.8589C75.4976 32.0311 75.2627 31.2139 75.0275 30.3959L75.0274 30.3955L75.0266 30.3926C74.9367 30.0799 74.8468 29.767 74.7592 29.4534C74.746 29.4008 74.7074 29.3608 74.668 29.32C74.6461 29.2973 74.624 29.2744 74.6058 29.2489C74.5868 29.2678 74.5649 29.2858 74.5431 29.3037C74.4944 29.3438 74.446 29.3835 74.4319 29.433C73.8899 31.0079 73.399 32.6033 73.5524 34.3009C73.6172 35.0365 73.7076 35.7669 73.7982 36.4995L73.7982 36.4996L73.7983 36.4997L73.7983 36.4998L73.7983 36.5L73.7983 36.5002L73.7984 36.5003L73.7984 36.5005L73.7984 36.5007L73.7984 36.5009L73.7985 36.501L73.7985 36.5012L73.7985 36.5014L73.7985 36.5016L73.7985 36.5018L73.7986 36.5019L73.7986 36.5021L73.7986 36.5023L73.7986 36.5025L73.7987 36.5026L73.7987 36.5028L73.7987 36.503L73.7987 36.5032L73.7988 36.5034L73.7988 36.5035L73.7988 36.5037L73.7988 36.5039L73.7988 36.5041L73.7989 36.5042L73.7989 36.5044L73.7989 36.5046L73.7989 36.5048L73.799 36.5049L73.799 36.5051L73.799 36.5056L73.7991 36.5061L73.7991 36.5064L73.7992 36.5067L73.7992 36.5071L73.7993 36.5074L73.7993 36.5077L73.7993 36.5081C73.8369 36.8115 73.8745 37.1154 73.9103 37.4201C73.9291 37.5763 73.9631 37.7287 74.003 37.9076L74.0032 37.9083L74.0032 37.9083ZM23.5843 66.9448L23.5695 66.9448C22.0707 65.9076 20.5006 65.2559 18.8493 64.7972C17.2232 64.337 15.5358 64.0916 13.8382 63.9382C14.08 64.2014 14.3368 64.4349 14.5911 64.6663C14.7024 64.7675 14.8133 64.8683 14.9222 64.9711C16.1085 66.0756 17.4891 66.7505 19.1356 66.8119C19.7228 66.8302 20.3063 66.8596 20.8905 66.8889L20.8915 66.889L20.8926 66.889C21.2846 66.9087 21.6768 66.9284 22.0707 66.9448C22.3766 66.9515 22.6782 66.9495 23.012 66.9473L23.0129 66.9473C23.1878 66.9461 23.3716 66.9449 23.5695 66.9448L23.5843 66.9551V66.9448ZM66.7823 63.8564C63.3358 64.3064 60.0019 64.8791 57.0054 66.9244L57.0157 66.9346C57.0927 66.9482 57.1497 66.9618 57.1954 66.9728C57.253 66.9865 57.2928 66.996 57.3327 66.996C57.6693 66.9822 58.0064 66.9694 58.344 66.9566C59.5036 66.9126 60.6681 66.8684 61.8325 66.7812C62.7324 66.7199 63.6222 66.4847 64.3585 65.9324C65.0183 65.4375 65.6634 64.9132 66.3063 64.3906L66.3067 64.3903L66.3091 64.3883C66.4226 64.2961 66.5359 64.204 66.6493 64.112C66.6828 64.0785 66.7032 64.0318 66.7305 63.969C66.7449 63.936 66.7611 63.8986 66.7823 63.8564ZM76.5796 44.405C76.4876 44.7629 76.416 45.0595 76.3444 45.3663C76.2895 45.6161 76.2429 45.8687 76.1963 46.121L76.1963 46.1212L76.1962 46.1213L76.1962 46.1215L76.1961 46.1217L76.1961 46.1219L76.1961 46.122L76.196 46.1221L76.196 46.1221V46.1222C76.0862 46.7164 75.9767 47.3091 75.7615 47.8616C75.4444 48.7002 74.841 49.4161 74.1149 49.9581C73.4048 50.5007 72.6635 51.0122 71.9252 51.5216L71.9249 51.5218L71.923 51.5231L71.921 51.5245C71.7144 51.667 71.508 51.8094 71.3026 51.9524C71.2753 51.9728 71.2389 51.9751 71.2026 51.9774C71.1844 51.9785 71.1662 51.9796 71.1492 51.983C70.9855 50.7251 74.974 45.1106 76.5694 44.3948L76.5796 44.405ZM9.44067 51.8808C8.39754 48.9151 6.44422 46.5834 4.1841 44.4766L4.19433 44.4971C4.16876 44.5073 4.14575 44.515 4.12274 44.5227C4.09973 44.5303 4.07672 44.538 4.05115 44.5482C4.06226 44.6186 4.07204 44.6903 4.08192 44.7629L4.08193 44.763L4.08193 44.763C4.09934 44.8907 4.11711 45.0212 4.14319 45.1516C4.1708 45.2897 4.20118 45.4277 4.23155 45.5658C4.30242 45.8879 4.37329 46.2101 4.40909 46.5322C4.54204 47.6572 5.01247 48.6287 5.83061 49.3855C6.54649 50.04 7.32372 50.6332 8.10096 51.2263C8.35318 51.4172 8.63267 51.5808 8.91216 51.7444L8.9122 51.7444L8.91227 51.7445C9.05204 51.8263 9.19181 51.9081 9.32818 51.9933L9.44067 51.8808ZM13.0916 58.3236C11.4553 57.71 9.99289 56.9942 8.70431 55.8999C7.69583 55.0399 7.16544 53.9111 6.62889 52.7691C6.46354 52.4172 6.29762 52.064 6.11693 51.7171C7.75322 52.0444 12.7234 56.7078 13.0916 58.3236ZM56.76 65.0056L56.7598 65.0059L56.7594 65.0066C56.6302 65.2325 56.4975 65.4647 56.3612 65.7075H56.3714C59.5929 64.6848 61.9859 61.2997 62.3234 58.3033C62.2959 58.3216 62.2694 58.3381 62.244 58.3538C62.1844 58.3909 62.1312 58.4239 62.0882 58.4669C61.8993 58.6366 61.7094 58.8032 61.5201 58.9694C61.1046 59.3341 60.6919 59.6963 60.2985 60.0827C60.1824 60.1954 60.0653 60.3074 59.9482 60.4194L59.948 60.4196L59.9478 60.4199C59.3846 60.9588 58.821 61.4982 58.3554 62.1076C58.0573 62.4938 57.84 62.9473 57.6232 63.3997C57.5127 63.6302 57.4024 63.8605 57.2816 64.0814C57.1147 64.3854 56.9408 64.6895 56.76 65.0056ZM67.4266 58.3134L67.4278 58.3093C69.2845 57.6454 70.9575 56.8584 72.2741 55.4704C73.0783 54.6259 73.5347 53.5917 73.9914 52.5567L73.9915 52.5566L73.9915 52.5566L73.9915 52.5565L73.9915 52.5564L73.9915 52.5563L73.9916 52.5563L73.9916 52.5562L73.9916 52.5561L73.9916 52.5561L73.9917 52.556L73.9917 52.5559L73.9917 52.5559L73.9917 52.5558L73.9918 52.5557L73.9918 52.5557L73.9918 52.5556L73.9918 52.5555L73.9918 52.5555L73.9919 52.5554L73.9919 52.5553L73.9919 52.5552L73.9919 52.5552L73.992 52.5551L73.992 52.555L73.992 52.555L73.992 52.5549L73.9921 52.5548L73.9921 52.5548L73.9921 52.5547C74.1159 52.2743 74.2397 51.9939 74.3706 51.7171C72.0714 52.7083 67.9344 56.6298 67.4278 58.3093L67.4163 58.3134H67.4266ZM18.2882 58.3467C18.2559 58.3389 18.2153 58.3293 18.1641 58.3135H18.1539C18.6754 60.6963 19.6572 62.7212 21.5185 64.2348C22.2855 64.8586 23.1139 65.4007 24.1263 65.7177C24.1161 65.6512 24.1161 65.6052 24.1161 65.572C24.1161 65.5387 24.1161 65.5183 24.1059 65.5029C23.9559 65.2404 23.8047 64.979 23.6536 64.7177C23.3513 64.195 23.0491 63.6723 22.7559 63.1405L22.6996 63.0402C22.2585 62.2551 21.8165 61.4681 21.1299 60.86C20.6703 60.4514 20.2157 60.0378 19.7612 59.6241L19.7606 59.6235L19.7603 59.6232L19.76 59.623L19.7595 59.6225C19.3044 59.2083 18.8493 58.7941 18.3891 58.3851C18.3702 58.3662 18.3398 58.359 18.2883 58.3467L18.2882 58.3467ZM32.9111 7.36354C32.6146 8.64189 27.8591 10.4827 25.8137 10.1043C26.0694 8.46804 30.784 6.64767 32.9111 7.36354ZM70.0102 23.2423L70.01 23.242C69.7849 22.9221 69.5603 22.6028 69.3697 22.264C68.6845 21.0879 68.1323 19.8505 67.805 18.521C67.6864 18.0317 67.6108 17.5317 67.5353 17.0327C67.5066 16.8432 67.478 16.6539 67.4471 16.4654C67.4471 16.423 67.4715 16.3757 67.4967 16.3268L67.4968 16.3268L67.4968 16.3268L67.4968 16.3267L67.4969 16.3266C67.5081 16.3049 67.5194 16.2829 67.5289 16.2609C67.5517 16.2707 67.5755 16.2784 67.5991 16.286C67.6495 16.3022 67.6986 16.3181 67.7334 16.3529C67.8352 16.461 67.9375 16.5684 68.0399 16.6758L68.0399 16.6758C68.7706 17.4425 69.4989 18.2067 69.9833 19.1755C70.5765 20.3618 70.8117 21.6095 70.5867 22.9185C70.5677 23.0277 70.5509 23.1369 70.5343 23.245C70.5151 23.3699 70.4961 23.4934 70.4742 23.6139C70.4231 23.6344 70.3719 23.6549 70.331 23.6753H70.3106C70.2137 23.5315 70.1138 23.3895 70.0141 23.2477L70.0136 23.2471L70.0134 23.2468L70.0132 23.2466L70.013 23.2462L70.0125 23.2455L70.0123 23.2453L70.0121 23.245L70.012 23.2448L70.0117 23.2444L70.0112 23.2437L70.011 23.2435L70.0108 23.2431L70.0104 23.2426L70.0102 23.2423ZM65.4426 55.0818C63.7858 56.851 63.1518 59.1009 62.5177 61.3815V61.3917C62.5543 61.3615 62.5911 61.3313 62.6281 61.301L62.7384 61.211L62.7385 61.2109C62.9039 61.0761 63.0712 60.9398 63.2336 60.7986C64.1949 59.9907 65.0437 59.0907 65.6675 57.9862C66.3221 56.8306 66.5675 55.6136 66.4857 54.3046C66.4787 54.2276 66.443 54.1554 66.408 54.0848C66.3919 54.0521 66.3759 54.0198 66.363 53.9875C66.3391 54.0054 66.3135 54.0224 66.2877 54.0396C66.225 54.0813 66.161 54.1239 66.1175 54.1818C66.0226 54.3015 65.9361 54.4261 65.8498 54.5504L65.8497 54.5504C65.7221 54.7342 65.5951 54.9171 65.4426 55.0818ZM69.6254 47.3503C70.7606 48.8025 69.5027 53.9466 67.5084 55.7772C67.5165 55.6516 67.5246 55.5405 67.5321 55.438C67.5435 55.2819 67.5534 55.1461 67.5596 55.0102C67.5733 54.7805 67.5916 54.552 67.6099 54.3239V54.3238V54.3238V54.3238V54.3237V54.3237V54.3237V54.3236V54.3236V54.3236V54.3235V54.3235V54.3235V54.3234V54.3234V54.3234V54.3233V54.3233V54.3233V54.3232V54.3232V54.3232V54.3231V54.3231V54.3231V54.323V54.323V54.323V54.3229V54.3229V54.3228V54.3228V54.3228V54.3227V54.3227V54.3227V54.3226V54.3226V54.3226V54.3225V54.3225V54.3225C67.6462 53.8704 67.6823 53.4199 67.6823 52.9648C67.6823 51.799 67.9686 50.7149 68.4697 49.6718C68.7153 49.1603 68.9699 48.6488 69.2275 48.1313L69.2283 48.1297L69.2295 48.1274L69.2313 48.1238L69.2351 48.1162C69.3613 47.8626 69.4882 47.6076 69.6152 47.3503H69.6254ZM10.0645 23.6856C11.1792 23.2049 13.3371 17.8154 13.02 16.1177C12.8007 16.3662 12.5788 16.6049 12.3602 16.8402C11.5797 17.6799 10.8391 18.4768 10.3918 19.5233C9.81905 20.8834 9.77815 22.264 10.0645 23.6856ZM14.145 53.9262C16.1699 56.0431 17.3971 58.5078 17.9391 61.361C17.8402 61.2758 17.7402 61.1929 17.6403 61.1099C17.4403 60.944 17.2403 60.7781 17.0494 60.594C16.1903 59.7759 15.3517 58.9577 14.7995 57.8839C14.2165 56.7488 13.9404 55.5522 14.0734 54.2739C14.0824 54.174 14.1077 54.0741 14.1347 53.967L14.145 53.9262ZM12.9076 55.7465C13.1019 52.658 12.5701 49.8661 10.8008 47.3503C10.3713 48.9968 10.4429 50.6127 10.9747 52.2081C11.4042 53.4762 12.0792 54.6114 12.9076 55.7465ZM71.2105 48.8741C70.6071 46.0106 70.1571 43.2698 70.8219 40.3654C71.5275 41.4392 72.0695 42.5028 72.2639 43.7096C72.5502 45.5197 72.09 47.1867 71.2207 48.8639L71.2105 48.8741ZM9.30771 48.8026C7.40553 45.3562 8.24412 42.4518 9.71678 40.4269C10.3815 43.2699 9.93154 46.0005 9.30771 48.8026ZM68.3879 27.3366C70.5151 27.8172 72.8979 32.2147 72.3457 34.5976C71.4355 34.2499 68.3879 28.6967 68.3879 27.3366ZM8.2748 34.6589C7.37484 32.726 9.73723 28.216 12.161 27.357C11.486 30.1489 9.97245 32.4397 8.2748 34.6589ZM72.7752 40.9177C71.1798 39.2507 69.4515 35.0884 69.7378 33.6464C71.5582 34.4237 73.5115 39.0666 72.7752 40.9177ZM10.8417 33.5851C10.5963 36.3565 9.67587 38.8416 7.73277 40.8461C6.93509 39.2814 8.97022 34.4748 10.8417 33.5851ZM25.374 8.08965C25.149 9.79752 21.7128 12.886 20.0458 12.9167C19.8311 11.3724 23.0321 8.44759 25.374 8.08965ZM66.2301 17.5392C64.7779 17.0892 61.3314 12.6713 61.4235 11.3725C63.387 11.7509 66.4039 15.6166 66.2301 17.5392ZM70.515 26.9683C68.1424 25.557 66.1379 23.8594 64.9619 21.3129C66.8129 21.2208 70.3616 24.8207 70.515 26.9683ZM9.952 27.0603C12.3246 25.5672 14.4109 23.9207 15.5051 21.3129C13.8075 21.8549 12.3655 22.7651 11.3019 24.2071C10.6781 25.0559 10.2486 25.9865 9.952 27.0603ZM55.1646 8.09996C57.4656 8.40676 60.0939 10.7385 60.5746 12.8759C59.2758 13.244 55.5021 9.92033 55.1646 8.09996ZM14.3802 17.5188C13.9916 15.7598 17.1517 11.6997 19.197 11.352C18.3277 14.0008 16.5585 15.8927 14.3802 17.5188ZM19.3095 17.3858C18.1948 18.9403 14.7995 20.8834 13.3677 20.7709C13.47 19.1346 17.5198 16.8234 19.3095 17.3858ZM67.1811 20.7607C64.7982 20.3823 62.8551 19.2471 61.2393 17.4267C63.1517 16.9052 66.7413 18.9403 67.1811 20.7607ZM52.1477 11.2089L52.1569 11.2062C52.7976 11.7342 53.3781 12.1308 54.0295 12.4463C55.3078 13.0599 56.6475 13.1929 58.0281 13.1213C58.2736 13.1111 58.3043 12.9781 58.1611 12.8043C58.1248 12.7535 58.0731 12.713 58.0206 12.6719C57.9991 12.655 57.9774 12.638 57.9566 12.6202C56.893 11.6896 55.6249 11.2089 54.2442 11.0453C53.5821 10.9638 52.92 10.9837 52.1569 11.2062L52.1477 11.1987V11.2089ZM28.3091 11.26C27.1739 12.5588 23.7889 13.561 22.2957 13.0395C22.8582 11.6895 27.3171 10.3703 28.3091 11.26ZM17.3051 16.2199C17.7755 14.8496 21.498 13.428 22.9196 14.0416C22.3162 15.1359 19.5141 16.5063 17.3051 16.2199ZM60.2781 14.1848C59.3883 13.9292 58.5088 13.9292 57.5271 13.9701H57.5373C57.5641 14.0203 57.5854 14.065 57.6041 14.1043C57.6425 14.185 57.6699 14.2425 57.7112 14.2769C58.5804 15.003 59.5008 15.6575 60.6156 15.9336C61.1626 16.0646 61.7212 16.1259 62.2827 16.1876C62.4665 16.2077 62.6507 16.228 62.8348 16.2507C62.9118 16.2635 62.9929 16.2562 63.073 16.249C63.1204 16.2447 63.1675 16.2404 63.2132 16.2404C63.1974 16.2027 63.1846 16.1621 63.1717 16.1212C63.1427 16.0292 63.1133 15.936 63.0495 15.8723C62.2723 15.0746 61.3621 14.5019 60.2781 14.1848Z" fill="url(#paint0_linear_8545_61948)"/>
</g>
<g clip-path="url(#clip1_8545_61948)">
<path d="M59.7483 51.1807C59.7483 51.1807 59.7483 51.1807 59.7483 51.183C59.6017 51.417 59.4433 51.6439 59.2849 51.8684C58.9538 52.3387 58.6015 52.7948 58.235 53.2391C57.5019 54.1254 56.705 54.9596 55.8514 55.7348C55.8088 55.7726 55.7663 55.8104 55.7237 55.8483C53.1983 58.11 50.3371 59.7832 47.1046 60.8184C46.9604 60.8656 46.8185 60.9271 46.6766 60.9838C46.4094 61.0594 46.4402 60.868 46.4709 60.7285C46.5371 60.4284 46.6341 60.1377 46.7334 59.847C47.5397 57.512 48.3106 55.1652 49.1453 52.8397C49.3321 52.3198 49.2896 51.9062 48.9538 51.4454C47.5918 49.5712 46.2439 47.6876 44.9174 45.7875C44.7495 45.5465 44.5461 45.4377 44.2529 45.4401C41.2924 45.4448 38.3319 45.4448 35.369 45.4401C35.0143 45.4401 34.8038 45.6055 34.6147 45.875C33.5104 47.4537 32.3706 49.0064 31.2711 50.5875C31.0393 50.9207 30.7911 51.2397 30.5499 51.5635C30.2921 51.9109 30.2496 52.2371 30.3962 52.653C31.037 54.4846 31.64 56.328 32.2666 58.1643C32.3328 58.3605 32.4368 58.5519 32.3895 58.7717C32.2098 58.9915 32.0372 58.8402 31.8764 58.7504C30.6894 58.0934 29.6087 57.2828 28.5778 56.4084C26.8894 54.9785 25.421 53.3502 24.2008 51.4997C24.1157 51.3721 23.9502 51.2563 24.0637 51.0625C24.7683 50.9065 25.4801 50.9609 26.1848 51.0223C26.9816 51.0909 27.7762 51.0507 28.5707 51.0578C28.8379 51.0578 29.0034 50.89 29.1453 50.6867C30.1313 49.264 31.1434 47.8578 32.1484 46.4469C32.5456 45.8891 32.9381 45.3314 33.3401 44.776C33.5127 44.5373 33.5482 44.3104 33.4536 44.0316C32.574 41.4413 31.6636 38.8606 30.8076 36.2609C30.7178 35.9844 30.5522 35.8237 30.2827 35.7173C28.2396 34.9185 26.1848 34.1575 24.1583 33.3209C23.735 33.146 23.4158 33.198 23.0422 33.4722C22.2689 34.0441 21.5241 34.6562 20.6941 35.1501C20.6255 35.162 20.5593 35.1525 20.5002 35.1147C20.3347 34.9351 20.3796 34.72 20.4151 34.5191C20.7887 32.4441 21.2994 30.4093 22.224 28.5021C22.3753 28.1901 22.4534 27.8427 22.6686 27.5615C22.7064 27.5331 22.749 27.526 22.7939 27.5425C23.0256 28.0648 23.132 28.6297 23.3094 29.1685C23.5127 29.7924 23.6759 30.4282 23.8414 31.0616C23.9147 31.3428 24.0731 31.52 24.3474 31.6217C26.4662 32.4134 28.5565 33.2736 30.6728 34.0701C30.9353 34.1693 31.1458 34.1457 31.3775 33.9897C32.9287 32.9475 34.4491 31.858 35.9909 30.8016C36.8303 30.2249 37.6674 29.6483 38.4998 29.0598C38.8024 28.8447 38.9372 28.599 38.9348 28.2232C38.9207 26.1316 38.923 24.0377 38.9348 21.9462C38.9348 21.6011 38.8095 21.379 38.5258 21.1875C36.9651 20.1335 35.4186 19.0605 33.884 17.9663C33.5577 17.7323 33.1651 17.5882 32.9074 17.2573C32.8979 17.2124 32.905 17.1675 32.9263 17.1273C33.028 16.9879 33.177 16.9075 33.3259 16.8343C35.5558 15.7495 37.8755 14.9436 40.3394 14.6104C39.8192 14.6269 39.2895 14.5773 38.767 14.6316C38.2278 14.6883 37.6816 14.686 37.1448 14.7687C36.958 14.7971 36.7523 14.8207 36.601 14.6458C38.975 14.2559 41.3397 14.3575 43.7019 14.7569C45.09 14.9909 46.4544 15.3194 47.7738 15.8157C47.9015 15.8629 48.041 15.8842 48.1758 15.9173C48.4478 16.13 48.1853 16.234 48.0694 16.3261C47.5894 16.709 47.0668 17.0351 46.5631 17.3873C44.7447 18.6588 42.9192 19.9231 41.089 21.1734C40.7934 21.3766 40.6728 21.6129 40.6752 21.9745C40.687 24.0543 40.687 26.134 40.6752 28.2114C40.6752 28.5966 40.7863 28.8755 41.1127 29.0929C43.4513 30.6645 45.7426 32.3094 48.0694 33.8999C48.391 34.1197 48.6677 34.1528 49.0389 34.0134C51.0228 33.2595 52.9807 32.4441 54.9765 31.7186C55.4234 31.5555 55.7001 31.2955 55.8207 30.8276C56.2156 29.2725 56.7098 27.7434 57.1283 26.1954C57.3719 25.2926 57.6627 24.404 57.911 23.5012C57.9607 23.3169 58.0032 22.9908 58.3319 23.2791C58.8048 24.0164 59.3676 24.69 59.8405 25.4297C61.4414 27.9396 62.5173 30.6503 63.1132 33.5596C63.4419 35.1643 63.5719 36.7856 63.6003 38.4186C63.4017 38.5935 63.2669 38.4092 63.1321 38.3217C62.6048 37.9791 62.1106 37.5891 61.6093 37.2133C59.8736 35.9206 58.1215 34.6562 56.3953 33.3516C56.1115 33.1366 55.8467 33.1484 55.5369 33.2736C53.7114 34.011 51.8883 34.7578 50.0344 35.4077C49.1619 35.715 48.7622 36.2136 48.495 37.055C47.7927 39.26 47.0668 41.4602 46.2557 43.6298C46.05 44.1828 46.0997 44.6035 46.4591 45.0927C47.7975 46.9125 49.1028 48.7582 50.3962 50.6111C50.6185 50.9301 50.8786 51.0672 51.2711 51.0601C53.0139 51.0341 54.7566 50.9916 56.4969 50.8923C56.5655 50.8876 56.6365 50.8876 56.7074 50.8852C57.6556 50.8616 58.6062 50.9278 59.5544 50.8451C59.7649 50.8262 59.8642 50.994 59.753 51.1736L59.7483 51.1807Z" fill="url(#paint1_linear_8545_61948)"/>
<path d="M20.5354 35.121C20.1452 35.5676 19.6226 35.8489 19.1592 36.201C18.2015 36.9242 17.2273 37.6237 16.2601 38.3327C16.1821 38.3895 16.1159 38.4674 16.0024 38.4391C15.9504 32.6867 17.8232 27.6079 21.363 23.1128C21.6373 23.1034 21.6562 23.3326 21.7106 23.5051C21.8903 24.0889 22.0511 24.6797 22.1977 25.2753C22.3443 25.8708 22.5903 26.4357 22.7227 27.0336C22.7605 27.2038 22.8456 27.3834 22.7061 27.5512C22.6919 27.8371 22.5572 28.0877 22.4366 28.3311C21.7886 29.6286 21.3346 30.9946 20.9941 32.3984C20.8097 33.1641 20.6111 33.9251 20.5141 34.7097C20.4976 34.8515 20.5047 34.9839 20.5354 35.1186V35.121Z" fill="#F3C56B"/>
<path d="M19.7692 51.099C19.8094 50.8154 20.0317 50.9501 20.1641 50.9501C21.2897 50.969 22.4152 51.0044 23.5432 51.0328C23.6827 51.0375 23.8198 51.0281 23.9593 51.0257C23.9995 51.0351 24.0279 51.0588 24.0492 51.0942C25.1464 52.7462 26.3996 54.2658 27.8563 55.6129C29.1568 56.8135 30.5614 57.877 32.1031 58.7538C32.1717 58.7916 32.2639 58.7893 32.3443 58.8058C32.3727 58.8342 32.3987 58.8625 32.4271 58.8909C32.7392 59.4155 32.9615 59.978 33.1199 60.5641C33.1625 60.7225 33.2689 60.9068 33.0703 61.051C31.7035 60.5807 30.3415 60.0962 29.0528 59.4344C25.3592 57.5367 22.3443 54.8756 20.0199 51.4345C19.9418 51.3187 19.8567 51.21 19.774 51.099H19.7692Z" fill="#F3C56B"/>
<path d="M32.9446 17.1658C32.4481 16.8302 31.9515 16.497 31.4549 16.1614C31.3721 16.1046 31.2965 16.0408 31.3556 15.9227C32.3747 15.6556 33.3513 15.2397 34.3918 15.0364C35.1248 14.8923 35.8531 14.7174 36.6003 14.6465C37.5722 14.6725 38.5322 14.4574 39.5065 14.4881C39.9132 14.5023 40.3223 14.4881 40.7337 14.5307C40.327 14.819 39.847 14.8143 39.3977 14.8946C37.2884 15.2727 35.3116 16.0267 33.3868 16.9413C33.2378 17.0122 33.0912 17.0902 32.9446 17.1658Z" fill="#F3C56B"/>
<path d="M32.3396 58.8078C31.7721 57.118 31.2046 55.4282 30.6371 53.7361C30.5567 53.4974 30.5141 53.2421 30.3959 53.0247C30.0175 52.3322 30.2067 51.791 30.6607 51.1813C32.0204 49.3615 33.3209 47.4945 34.6333 45.6369C34.787 45.4171 34.9407 45.332 35.2103 45.332C38.2677 45.3415 41.3276 45.3391 44.385 45.3368C44.5837 45.3368 44.7539 45.3368 44.8934 45.5353C46.3477 47.5985 47.809 49.6569 49.2798 51.7107C49.4524 51.9517 49.4855 52.1503 49.3886 52.4362C48.4593 55.1375 47.5465 57.8459 46.6409 60.5567C46.6007 60.6772 46.3595 60.871 46.6764 60.9821C45.6808 61.2657 44.6641 61.4524 43.6496 61.6509C42.8196 61.8116 41.9802 61.8848 41.1431 61.9841C40.7009 61.7974 40.2209 61.7809 39.7574 61.6981C37.3597 61.2727 35.0944 60.4739 32.9355 59.3584C32.7369 59.2568 32.5264 59.1741 32.3845 58.9874C32.342 58.933 32.3136 58.874 32.3396 58.8031V58.8078Z" fill="#F7F7F7"/>
<path d="M59.7596 51.1777C59.8045 51.1257 59.7738 51.0382 59.7146 51.0004C59.6555 50.9626 59.5822 50.9602 59.5113 50.9602C58.459 50.9602 57.4115 51.0288 56.3592 51.0619C55.307 51.0949 54.1578 51.1257 53.0582 51.1564C52.389 51.1753 51.7175 51.1753 51.0483 51.2107C50.7763 51.2249 50.6132 51.1328 50.4619 50.9153C49.3434 49.3319 48.2155 47.7555 47.0923 46.1768C46.7517 45.6994 46.416 45.2197 46.0684 44.7494C45.9218 44.5532 45.8863 44.3736 45.9691 44.1302C46.8818 41.4667 47.7898 38.8032 48.686 36.1326C48.7806 35.8467 48.9461 35.7072 49.2133 35.6056C51.3344 34.7879 53.4531 33.9678 55.5671 33.1312C55.8981 32.9989 56.1322 33.006 56.4373 33.2328C58.66 34.8966 60.897 36.5368 63.1339 38.1793C63.2734 38.2809 63.3893 38.4487 63.5997 38.418C63.4862 40.8333 63.1907 43.2132 62.4221 45.5269C62.11 46.4699 61.7388 47.394 61.3131 48.292C61.0672 48.8143 60.7882 49.3201 60.5139 49.8282C60.3507 50.1331 60.1805 50.4238 60.0528 50.7475C59.9866 50.913 59.9014 51.0784 59.7548 51.1777C59.7548 51.1777 59.7548 51.1777 59.7548 51.1753L59.7596 51.1777Z" fill="#F7F7F7"/>
<path d="M58.3195 23.2644C58.0807 23.1604 58.0949 23.2904 58.0381 23.4865C57.6574 24.7982 57.2862 26.1122 56.9102 27.4262C56.5508 28.6859 56.1843 29.9432 55.8248 31.2028C55.7633 31.4155 55.6711 31.5691 55.4441 31.6566C53.193 32.5239 50.9442 33.3984 48.6978 34.2799C48.4968 34.3579 48.3833 34.2633 48.2462 34.1688C45.9998 32.6114 43.7794 31.0138 41.4904 29.5225C40.7219 29.0215 40.4737 28.485 40.5044 27.5987C40.573 25.7033 40.5328 23.8032 40.5186 21.9054C40.5162 21.5604 40.6179 21.3453 40.904 21.1492C43.1126 19.6343 45.3117 18.1076 47.5132 16.5808C47.7189 16.439 47.9222 16.2902 48.1303 16.1484C48.2273 16.0822 48.2675 16.0136 48.1729 15.9167C49.6768 16.5714 51.1689 17.2473 52.5498 18.143C53.8575 18.9915 55.0847 19.9392 56.2079 21.0239C56.5413 21.3453 56.8865 21.6644 57.1916 22.0118C57.4777 22.3403 57.7402 22.6972 58.0878 22.9642C58.1776 23.0328 58.277 23.1887 58.3172 23.262L58.3195 23.2644Z" fill="#F7F7F7"/>
<path d="M20.5354 35.1224C20.5874 35.1105 20.637 35.0987 20.6891 35.0869C20.3556 36.1504 20.4219 37.2494 20.3982 38.3412C20.3533 40.4541 20.708 42.5125 21.2566 44.5403C21.8241 46.6413 22.6943 48.6147 23.8127 50.4817C23.9168 50.6566 24.1296 50.8315 23.9239 51.0749C23.73 51.1789 23.5172 51.1576 23.3091 51.1576C22.1953 51.1671 21.0816 51.1694 19.9702 51.0725C19.8993 51.0654 19.8331 51.0654 19.7669 51.0985C19.0764 49.9405 18.3906 48.7706 17.8822 47.5252C17.336 46.1899 16.8465 44.8262 16.5746 43.3964C16.3594 42.2502 16.1159 41.1134 16.0615 39.9412C16.0378 39.4425 16 38.9439 16 38.4429C16.0922 38.3365 16.1939 38.2467 16.3074 38.164C17.6198 37.1997 18.9392 36.2426 20.2421 35.2642C20.3296 35.198 20.4077 35.1105 20.533 35.1247L20.5354 35.1224Z" fill="#F7F7F7"/>
<path d="M22.7034 27.5543C22.3014 26.1245 21.8994 24.6971 21.4927 23.2696C21.4762 23.2105 21.4052 23.168 21.3603 23.116C22.0035 22.4661 22.5521 21.724 23.2378 21.1143C24.3894 20.0909 25.5504 19.0889 26.8581 18.2546C28.2224 17.3849 29.6507 16.6664 31.1357 16.0425C31.2113 16.0118 31.2799 15.9622 31.3509 15.922C31.7528 16.26 32.1974 16.5412 32.6207 16.8508C32.7413 16.9382 32.8831 17.0091 32.9399 17.1651C32.9446 17.1887 32.9493 17.2124 32.9541 17.236C32.8831 17.3944 32.7223 17.4274 32.5923 17.5007C30.2087 18.8124 28.1255 20.4951 26.3142 22.5252C25.016 23.9833 23.9567 25.6046 22.9966 27.2944C22.9351 27.4007 22.8973 27.5284 22.7672 27.5803C22.7436 27.5733 22.7223 27.5638 22.6987 27.552L22.7034 27.5543Z" fill="#F7F7F7"/>
<path d="M33.0654 61.0505C33.0796 60.5944 32.8384 60.2092 32.7178 59.7909C32.6303 59.4884 32.4671 59.1339 32.3678 58.8337C32.4908 58.9212 32.661 59.0795 32.7934 59.1504C35.125 60.3865 37.5913 61.2183 40.1947 61.665C40.5163 61.7194 40.9136 61.6296 41.1429 61.9864C39.8897 61.9864 38.6341 62.0455 37.3903 61.8919C36.0282 61.7217 34.6851 61.4405 33.3515 61.1096C33.2569 61.086 33.1623 61.0695 33.0654 61.0505Z" fill="#F7F7F7"/>
<path d="M22.7725 27.5833C23.0397 26.8601 23.4937 26.2362 23.891 25.5887C25.0213 23.7429 26.4046 22.0886 28.0078 20.6375C29.3887 19.3896 30.8785 18.2765 32.5361 17.4091C32.6708 17.3382 32.8175 17.2933 32.9593 17.2343C33.8177 17.7306 34.598 18.3427 35.4162 18.898C36.5134 19.6425 37.594 20.4106 38.6912 21.1527C38.956 21.3323 39.0766 21.5237 39.0743 21.864C39.0553 24.0548 39.0624 26.248 39.0695 28.4412C39.0695 28.6846 39.0175 28.8501 38.8023 28.999C36.2864 30.7336 33.7775 32.4778 31.271 34.2243C31.1244 34.3259 31.0014 34.3283 30.8454 34.2692C28.6084 33.3971 26.3715 32.5298 24.1345 31.6601C23.9903 31.6034 23.8555 31.5466 23.8058 31.3694C23.4677 30.1617 23.1201 28.954 22.7796 27.7487C22.7654 27.6968 22.7725 27.6377 22.7701 27.5833H22.7725Z" fill="#F7F7F7"/>
<path d="M24.0442 51.0956C24.0134 51.072 23.985 51.0507 23.9543 51.0271C23.6682 50.5048 23.375 49.9872 23.0959 49.4625C22.675 48.6779 22.2872 47.8767 21.9515 47.0519C21.235 45.2794 20.7526 43.436 20.4736 41.5548C20.2229 39.8508 20.1591 38.1232 20.3435 36.4004C20.353 36.3177 20.3601 36.2326 20.3506 36.1499C20.3057 35.7457 20.3766 35.3818 20.684 35.0887C21.5755 34.4223 22.4693 33.7558 23.3584 33.0846C23.505 32.9735 23.6351 33.009 23.7864 33.0681C26.0328 33.9449 28.2792 34.8217 30.5327 35.6866C30.7928 35.7859 30.833 35.9962 30.904 36.1995C31.7245 38.6148 32.5072 41.042 33.3821 43.436C33.6493 44.171 33.6067 44.6768 33.1243 45.3125C31.7718 47.1016 30.502 48.9568 29.2156 50.7955C28.991 51.1145 28.745 51.2303 28.3502 51.2138C26.9148 51.1523 25.4771 51.1334 24.0394 51.098L24.0442 51.0956Z" fill="#F7F7F7"/>
</g>
<defs>
<linearGradient id="paint0_linear_8545_61948" x1="4" y1="72.9176" x2="72.2199" y2="23.5713" gradientUnits="userSpaceOnUse">
<stop stop-color="#F5C464"/>
<stop offset="1" stop-color="#F2C162" stop-opacity="0.6"/>
</linearGradient>
<linearGradient id="paint1_linear_8545_61948" x1="19.071" y1="50.1" x2="62.0645" y2="31.2903" gradientUnits="userSpaceOnUse">
<stop stop-color="#F2C162"/>
<stop offset="1" stop-color="#F2C162" stop-opacity="0.65"/>
</linearGradient>
<clipPath id="clip0_8545_61948">
<rect width="72.6" height="70.1763" fill="white" transform="translate(4 7.19995)"/>
</clipPath>
<clipPath id="clip1_8545_61948">
<rect width="47.6" height="47.6" fill="white" transform="translate(16 14.4)"/>
</clipPath>
</defs>
</svg>
