<svg width="56" height="56" viewBox="0 0 36 36" fill="none" xmlns="http://www.w3.org/2000/svg">
<g clip-path="url(#clip0_10198_88378)">
<rect width="36" height="36" rx="18" fill="white"/>
<g opacity="0.5" clip-path="url(#clip1_10198_88378)">
<path d="M10.3633 29.3337C10.8481 29.1744 11.1904 29.2468 11.5683 29.4714C13.4079 30.5796 15.4187 31.1083 17.5506 31.1735C18.2423 31.1953 18.9339 31.2097 19.6184 31.1735C20.0106 31.1518 20.3956 31.0069 20.7806 30.9128C21.2512 30.8041 21.7218 30.6955 22.1924 30.5868C22.2851 30.5651 22.385 30.5361 22.4634 30.4927C23.3262 30.0436 24.1889 29.5945 25.0588 29.1527C25.1943 29.0875 25.3583 29.0657 25.508 29.0513C25.8717 29.0223 26.1711 28.8774 26.435 28.6094C26.6631 28.3776 26.9769 28.3124 27.3263 28.3776C26.7986 28.7905 26.3138 29.2686 25.7433 29.609C24.3244 30.4492 22.8627 31.2315 21.2512 31.6009C19.925 31.9051 18.5703 32.0934 17.2012 31.9123C16.4668 31.8182 15.7467 31.6154 15.0122 31.5719C14.0425 31.514 13.2439 30.9997 12.374 30.681C11.8606 30.4999 11.3829 30.2029 10.9123 29.9132C10.7127 29.7828 10.5701 29.551 10.3633 29.3337Z" fill="white"/>
<path d="M27.4355 27.3054C27.9774 26.5883 28.498 25.9074 29.0042 25.2121C29.2609 24.8571 29.5532 24.5095 29.6959 24.1038C29.8385 23.691 30.1094 23.3578 30.2164 22.9377C30.2449 22.829 30.2805 22.7276 30.3233 22.6262C31.1504 20.8733 31.0791 18.9539 31.2431 17.0851C31.293 16.5491 31.0863 15.9914 31.0007 15.4409C30.9365 15.028 30.8866 14.6152 30.801 14.2095C30.744 13.9343 30.6727 13.6518 30.5515 13.3983C30.2734 12.8333 30.3376 12.9347 30.7369 12.3842C30.9365 12.7174 31.1576 12.9854 31.2003 13.4055C31.2503 13.8619 31.4428 14.3037 31.5569 14.76C31.6781 15.2308 31.8492 15.7017 31.8777 16.1797C31.9276 16.991 31.892 17.8094 31.892 18.6279C31.892 18.9321 31.8635 19.2436 31.892 19.5478C31.9633 20.417 31.6709 21.1848 31.3002 21.9381C31.2003 22.1409 31.1647 22.3655 31.0863 22.5755C30.9579 22.9232 30.8224 23.2709 30.687 23.6113C30.2092 24.8789 29.5319 26.0161 28.612 26.9939C28.4552 27.1605 28.2841 27.3126 28.0987 27.4502C27.6851 27.7617 27.678 27.7544 27.4355 27.3054Z" fill="white"/>
<path d="M9.57334 28.167C9.1883 28.4205 9.05282 28.435 8.789 28.138C8.19006 27.4499 7.59824 26.7546 7.02782 26.0375C6.68557 25.6174 6.37896 25.161 6.07236 24.712C5.92975 24.5091 5.80854 24.2846 5.71585 24.0528C5.38785 23.2343 5.12403 22.3796 4.73186 21.5974C4.5037 21.1265 4.49656 20.6775 4.46804 20.1994C4.38961 18.8594 4.2684 17.5194 4.16144 16.1722C4.15431 16.0997 4.15431 16.0056 4.18996 15.9476C4.54648 15.3319 4.62491 14.6293 4.72473 13.9485C4.83169 13.2169 5.16681 12.6012 5.56611 11.9493C5.77289 12.2753 5.96541 12.5723 6.17218 12.9055C5.5875 13.0576 5.53759 13.4922 5.44489 13.8905C5.23812 14.7452 5.03847 15.5927 4.85308 16.4546C4.80317 16.6864 4.76039 16.9327 4.76752 17.1645C4.8103 19.6344 5.30229 21.9957 6.38609 24.2194C6.4574 24.3643 6.5287 24.5164 6.62852 24.6468C7.28451 25.4725 7.9405 26.2982 8.60362 27.1167C8.62501 27.1385 8.66779 27.1602 8.66779 27.1892C8.69631 27.7541 9.27386 27.8193 9.57334 28.167Z" fill="white"/>
<path d="M16.0542 4.25682C16.5676 4.19887 17.0952 4.13368 17.6229 4.06849C17.6942 4.06125 17.7726 4.03952 17.8439 4.02503C18.2361 3.93087 18.6211 3.79325 19.0133 3.76427C19.3555 3.7353 19.712 3.81498 20.0614 3.85119C20.0614 3.88017 20.0686 3.90914 20.0686 3.93811C19.8333 3.95984 19.6051 3.98882 19.3698 4.01055C19.3698 4.02503 19.3769 4.03952 19.3769 4.054C19.9616 4.054 20.5463 4.01055 21.1238 4.06849C21.5588 4.11195 22.008 4.24233 22.4073 4.43065C23.6907 5.05357 24.9671 5.69098 26.2149 6.37909C26.5999 6.58914 26.8922 6.97304 27.206 7.29898C27.5055 7.61044 27.8121 7.92915 28.0545 8.27682C28.3896 8.74763 28.7818 9.14601 29.2452 9.48645C29.3308 9.55164 29.3807 9.67477 29.452 9.76893C29.4306 9.79791 29.4092 9.83412 29.3879 9.8631C29.2809 9.80515 29.1739 9.7472 29.067 9.68201C29.0456 9.67477 29.0313 9.63855 29.0171 9.6458C28.5465 9.77618 28.4324 9.34158 28.1828 9.11704C27.3557 8.37823 26.5357 7.63942 25.6944 6.91509C25.5161 6.76298 25.2737 6.69779 25.074 6.57466C24.853 6.42979 24.6319 6.27044 24.4323 6.10385C23.9617 5.71271 23.377 5.59682 22.8351 5.36503C21.3449 4.74211 19.762 4.54655 18.1719 4.42341C17.6656 4.38719 17.1451 4.51757 16.6318 4.55379C16.2396 4.59001 16.2396 4.58276 16.0542 4.25682Z" fill="white"/>
<path d="M14.0999 4.34378C14.0143 4.58281 13.9644 4.77113 13.886 4.95221C13.8361 5.04638 13.7576 5.14778 13.665 5.19848C13.2799 5.37957 12.8806 5.53892 12.4885 5.71276C11.7184 6.05319 11.0125 6.49503 10.3351 7.0093C9.78607 7.42216 9.14435 7.76984 8.33862 7.83503C9.89303 5.95178 11.8753 4.9667 14.0999 4.34378Z" fill="white"/>
<path d="M30.5637 11.8773C29.8075 11.8339 29.5935 11.2691 29.2725 10.8492C29.4223 10.661 29.5578 10.4872 29.7647 10.2338C30.0358 10.7985 30.2712 11.2909 30.5637 11.8773Z" fill="white"/>
<path d="M6.39209 10.1962C6.64178 9.84867 6.82726 9.50838 7.09122 9.26221C7.2339 9.13189 7.52639 9.16085 7.74754 9.11017C7.76895 9.14637 7.79035 9.18257 7.80462 9.21877C7.5692 9.54458 7.36944 9.89935 7.08408 10.1672C6.97708 10.2831 6.67745 10.1962 6.39209 10.1962Z" fill="white"/>
<path d="M7.42603 8.76946C7.62578 8.62465 7.82553 8.48709 8.02528 8.34229C8.05381 8.38573 8.08235 8.42193 8.11089 8.46537C7.91114 8.61017 7.71138 8.74774 7.5045 8.89254C7.4831 8.8491 7.45456 8.8129 7.42603 8.76946Z" fill="white"/>
<circle cx="18" cy="18" r="15" fill="white"/>
<path d="M25.3008 19.8266L24.0747 15.1326C24.0533 15.0507 24.0021 14.9915 23.9213 14.9551C23.8501 14.9015 23.7746 14.8856 23.6947 14.9076L12.7448 17.9173L12.6589 15.1289L20.2719 13.0363L20.7642 11.2314L12.312 13.5546L13.0029 10.7064L22.5541 8.0811C23.1002 7.93098 23.5009 7.98927 23.7562 8.25596C24.0212 8.50533 24.1304 8.84146 24.0839 9.26436L23.389 12.1795L24.9076 11.7621C25.2406 11.6706 25.5756 11.6957 25.9124 11.8374C26.2493 11.9792 26.4534 12.1867 26.5248 12.46L28.2381 19.0192L25.3008 19.8266ZM19.8483 16.58L20.6942 19.8186L22.2528 19.3902L30 22.731L25.704 23.9119L20.1099 21.517L16.7323 26.3779L11.1774 27.9048L11.5233 25.1294L14.4206 24.3331L17.5963 20.011L16.911 17.3873L19.8483 16.58ZM11.7997 15.3651L13.7914 22.9901L10.8741 23.792L8.88244 16.1669L11.7997 15.3651ZM12.447 10.4638L11.237 15.0144L8 15.9042L9.22994 11.348L12.447 10.4638Z" fill="#777777"/>
<path d="M24.2071 2.31387C24.2373 1.83838 23.9277 1.70033 23.6182 1.56229C23.5351 1.52394 23.4445 1.49326 23.3615 1.47792C22.5008 1.30153 21.693 0.933408 20.7946 0.910401C20.5002 0.902732 20.168 0.841378 19.8887 0.457916C20.319 0.381224 20.6738 0.312201 21.0589 0.243178C21.0362 0.197162 21.006 0.143478 20.9683 0.0667853C21.4741 -0.140284 21.912 0.197162 22.3725 0.250847C22.833 0.304532 23.2785 0.473255 23.7843 0.603632C23.4596 0.933408 23.8069 0.910401 23.8447 1.13281C23.8975 0.964085 23.9126 0.895062 23.9353 0.833708C23.9579 0.833708 23.9806 0.833708 24.0032 0.841378C24.0108 0.948747 24.0183 1.06379 24.0259 1.24785C24.3581 1.26319 24.728 1.27852 25.0979 1.3092C25.2187 1.31687 25.3471 1.34755 25.4603 1.40123C26.94 2.07612 28.4046 2.78169 29.605 3.93208C30.1864 4.48426 30.8054 5.00577 31.3641 5.58863C32.5117 6.77736 33.5761 8.02745 34.1273 9.63032C34.2179 9.8834 34.2481 10.1595 34.316 10.4663C34.3915 10.543 34.5274 10.6657 34.7237 10.8497C34.5425 10.819 34.4293 10.8037 34.3236 10.7807C34.3009 10.8037 34.2783 10.8267 34.2556 10.8421C34.3689 10.9648 34.4746 11.0951 34.5802 11.2102C34.535 11.3175 34.4142 11.4479 34.4444 11.54C34.4821 11.655 34.6255 11.747 34.7388 11.816C34.8898 11.9081 35.0785 11.9388 35.0106 12.2148C34.9879 12.2992 35.1767 12.4142 35.222 12.537C35.6372 13.81 35.9241 15.1138 35.9694 16.4559C36.0071 17.6753 36.0071 18.8947 35.9845 20.1065C35.9769 20.4746 35.841 20.8351 35.7806 21.1955C35.7429 21.4256 35.7353 21.6633 35.7127 21.8934C35.7051 21.9548 35.7353 22.0315 35.7051 22.0621C35.2975 22.4839 35.4258 23.0975 35.1767 23.5806C34.384 25.1298 33.8479 26.8094 32.8665 28.2742C32.3607 29.0335 31.7567 29.693 31.047 30.2529C30.8281 30.4293 30.6469 30.667 30.4506 30.8741C30.3751 30.9508 30.3072 31.0275 30.2166 31.0812C29.605 31.4723 29.1747 32.0475 28.6991 32.5843C28.3971 32.9218 27.9366 33.1288 27.5364 33.3819C27.1288 33.6427 26.7211 33.8651 26.2077 33.704C26.0567 33.658 25.868 33.727 25.7019 33.7424C25.7019 33.7731 25.7019 33.8114 25.7019 33.8421C25.9057 33.8651 26.1096 33.8958 26.321 33.9188C26.0492 34.0261 25.8302 34.2409 25.4829 34.1335C25.1659 34.0338 24.811 34.0798 24.4713 34.0875C24.4109 34.0875 24.3052 34.2255 24.3052 34.2946C24.3128 34.4019 24.3807 34.5016 24.1995 34.4786C24.2146 34.5476 24.2071 34.6397 24.2448 34.678C24.3128 34.7471 24.4109 34.7777 24.5845 34.8774C24.2977 35.0001 24.0938 35.1228 23.8749 35.1842C23.2407 35.3606 22.6065 35.537 21.9648 35.6597C21.3005 35.7901 20.6285 35.9435 19.9642 35.9281C19.3753 35.9204 18.794 35.9665 18.2051 35.9971C17.8503 36.0125 17.4954 35.9588 17.1406 35.8974C17.0198 35.8744 16.9141 35.7594 16.7556 35.652C16.4687 35.7977 16.2045 35.7594 15.8723 35.491C15.6533 35.3146 15.2155 35.4143 14.8682 35.3913C14.77 35.3836 14.6568 35.4296 14.5737 35.3913C14.2415 35.2302 13.9698 35.3299 13.6829 35.514C13.5998 35.5677 13.4639 35.5907 13.3582 35.5753C13.2299 35.5523 13.1091 35.4603 12.9808 35.4143C12.1729 35.0998 11.3727 34.7854 10.5649 34.4863C10.3459 34.4019 10.0515 34.4479 9.87786 34.3176C8.60197 33.3666 7.0694 32.7914 6.04265 31.503C5.68782 31.0582 5.35563 30.598 4.82716 30.3219C4.66107 30.2375 4.53272 30.0611 4.41193 29.9078C3.33988 28.5887 2.38108 27.1929 1.74691 25.59C1.49777 24.9688 1.21844 24.3552 0.94665 23.7417C0.599367 22.9288 0.403077 22.0545 0.304932 21.0881C0.493672 21.2109 0.644665 21.3106 0.788108 21.4103C0.788108 21.4409 0.780558 21.4639 0.780558 21.4946C0.705062 21.4869 0.629566 21.4869 0.523871 21.4793C0.433275 21.648 0.455924 21.7937 0.697512 21.9241C0.878703 22.0161 1.21844 22.0545 0.999498 22.4226C1.21844 22.4763 1.42983 22.507 1.63367 22.576C1.70916 22.599 1.80731 22.7064 1.81486 22.783C1.8828 23.9104 2.50187 24.8077 2.9624 25.774C3.53617 26.9781 4.30623 28.0595 5.12914 29.1102C6.28424 30.5827 7.80171 31.5797 9.28899 32.6303C9.50793 32.7837 9.71177 32.9601 9.94581 33.0752C10.2025 33.1979 10.4818 33.2669 10.8442 33.3896C10.882 33.6427 11.2066 33.6734 11.4935 33.7807C12.0522 33.9801 12.6033 34.2179 13.162 34.4173C13.5017 34.54 13.8565 34.6704 14.2113 34.7087C15.7288 34.8851 17.2539 35.0538 18.7789 35.1612C19.3753 35.1995 19.9793 35.0768 20.5757 34.9848C21.1344 34.9004 21.693 34.7777 22.2442 34.632C22.8255 34.4786 23.3841 34.2562 23.973 34.1105C24.7884 33.9111 25.5131 33.5353 26.2002 33.0675C26.6758 32.7454 27.1212 32.3696 27.627 32.1012C29.5371 31.0965 30.745 29.3786 32.0134 27.722C32.036 27.6914 32.0587 27.6684 32.0662 27.6377C32.338 26.9474 32.8212 26.4029 33.244 25.8124C33.3648 25.6437 33.3497 25.3906 33.4327 25.1912C33.6365 24.662 33.8555 24.1405 34.0669 23.619C34.3311 22.9824 34.5123 22.3229 34.5048 21.625C34.5048 21.533 34.5123 21.4333 34.5425 21.3489C34.9728 20.2369 35.1012 19.0328 35.0332 17.8901C34.9577 16.5863 34.9955 15.2365 34.55 13.9711C34.5274 13.9097 34.535 13.8331 34.5199 13.7717C34.4217 13.3269 34.3538 12.8591 34.2028 12.4373C33.9763 11.8084 33.7196 11.1948 33.4176 10.6043C33.0024 9.77603 32.5645 8.96309 32.0964 8.16549C31.7869 7.62865 31.4623 7.0918 31.0697 6.63165C30.5034 5.96442 29.8995 5.32788 29.2427 4.75269C28.7066 4.28486 28.0876 3.9014 27.4911 3.51027C26.94 3.14982 26.3738 2.78169 25.7849 2.48259C25.3244 2.23718 24.8035 2.03778 24.2071 2.31387Z" fill="#777777"/>
<path d="M2.10226 11.9396C1.79257 11.909 1.57352 11.8936 1.36202 11.8706C1.35446 11.8936 1.35446 11.9243 1.34691 11.9473C1.52064 12.0393 1.68682 12.139 1.89832 12.2617C1.78501 12.2924 1.72459 12.3078 1.61128 12.3308C1.92098 12.4458 1.78501 12.5915 1.74725 12.7909C1.5433 13.7726 1.32425 14.7619 1.22605 15.7589C1.12031 16.8173 1.14297 17.891 1.12031 18.957C1.11275 19.3558 1.12031 19.7623 1.12031 20.2301C0.772843 20.1687 0.500917 20.1304 0.236544 20.0537C0.176116 20.0383 0.115687 19.8926 0.108134 19.8006C0.0552593 19.3558 -0.0127224 18.9033 0.00238464 18.4508C0.0325987 17.3771 -0.05049 16.2958 0.259204 15.2374C0.402721 14.7542 0.546238 14.2404 0.523577 13.7496C0.500917 13.2281 0.682201 12.8063 0.863485 12.3691C1.01456 12.0087 1.12031 11.5638 1.67171 11.6482C1.69437 11.6482 1.72459 11.6405 1.73214 11.6252C1.78501 11.4565 1.92098 11.3798 2.01917 11.5025C2.10982 11.6175 2.08716 11.8169 2.10226 11.9396Z" fill="#777777"/>
<path d="M13.9627 0.511541C14.0306 0.419549 14.091 0.342889 14.1665 0.243231C14.7026 0.496209 15.2008 0.388885 15.6538 0.0822449C15.752 0.220233 15.835 0.335223 15.9332 0.488543C15.9256 0.511541 15.8879 0.595867 15.8199 0.756853C15.5934 0.795183 15.2537 0.833513 14.9291 0.917839C14.0684 1.14015 13.1926 1.3318 12.3622 1.63844C11.3958 1.99108 10.4748 2.4587 9.52352 2.84201C9.19888 2.97233 8.84405 2.92633 8.47412 2.77301C9.07809 2.22106 9.68961 1.7611 10.4219 1.47746C11.1014 1.21681 11.7507 0.864177 12.4377 0.618865C12.9209 0.442547 13.4267 0.220233 13.9627 0.511541Z" fill="#777777"/>
<path d="M8.64682 3.19627C8.56377 3.1886 8.50338 3.1886 8.39013 3.18093C8.49583 3.33432 8.71477 3.41868 8.41278 3.61808C7.91451 3.94785 7.47663 4.36966 7.0161 4.76846C6.78206 4.97553 6.57067 5.19794 6.35928 5.42802C6.18564 5.61975 6.01955 5.7808 5.72511 5.77313C5.64207 5.77313 5.54392 5.91118 5.47598 6.00321C5.40803 6.08757 5.38538 6.21028 5.32498 6.30231C5.0381 6.70878 4.74366 7.10758 4.45677 7.50638C4.15479 7.93585 3.92075 7.98954 3.46777 7.74412C4.40393 6.00321 5.73266 4.62275 7.34073 3.51071C7.52192 3.388 7.69557 3.25762 7.87676 3.13492C8.25424 2.88183 8.25424 2.88183 8.64682 3.19627Z" fill="#777777"/>
<path d="M2.50152 8.71768C2.72813 8.94766 2.94718 9.17764 3.17378 9.41529C2.91697 9.91358 2.48641 9.73726 2.0332 9.74493C2.20693 9.37696 2.358 9.05499 2.51663 8.72535C2.50907 8.72535 2.50152 8.71768 2.50152 8.71768Z" fill="#777777"/>
<path d="M2.50925 8.72591C2.69809 8.48826 2.86426 8.22762 3.08331 8.0283C3.27215 7.85198 3.35524 7.92098 3.42322 8.19695C3.45344 8.32728 3.5894 8.42693 3.74802 8.63392C3.27971 8.66458 2.88692 8.68758 2.49414 8.71058C2.50169 8.71824 2.50925 8.72591 2.50925 8.72591Z" fill="#777777"/>
<path d="M0.282049 20.291C0.455779 20.521 0.62951 20.7433 0.803241 20.9733C0.803241 20.9963 0.803241 21.0193 0.803241 21.0499C0.652171 20.9886 0.463333 20.9656 0.372691 20.8583C0.266941 20.7356 0.251834 20.5363 0.191406 20.3676C0.22162 20.337 0.251834 20.314 0.282049 20.291Z" fill="#777777"/>
<path d="M0.955322 21.64C1.06107 21.6323 1.17437 21.617 1.28012 21.6093C1.26502 21.6323 1.25746 21.6553 1.24236 21.686C1.32544 21.7627 1.40853 21.847 1.50673 21.9313C1.13661 22.2686 1.15171 21.732 0.955322 21.64Z" fill="#777777"/>
<path d="M23.5174 4.05655C23.5442 3.63389 23.2691 3.51118 22.9939 3.38847C22.9201 3.35438 22.8396 3.32711 22.7658 3.31348C22.0007 3.15668 21.2826 2.82946 20.4841 2.80901C20.2223 2.80219 19.9271 2.74765 19.6788 2.40679C20.0613 2.33862 20.3767 2.27727 20.7189 2.21591C20.6988 2.17501 20.672 2.12729 20.6384 2.05912C21.088 1.87505 21.4773 2.17501 21.8866 2.22273C22.296 2.27045 22.6919 2.42043 23.1416 2.53632C22.853 2.82946 23.1617 2.80901 23.1952 3.00671C23.2422 2.85673 23.2556 2.79537 23.2758 2.74084C23.2959 2.74084 23.316 2.74084 23.3362 2.74765C23.3429 2.84309 23.3496 2.94535 23.3563 3.10896C23.6516 3.1226 23.9804 3.13623 24.3093 3.1635C24.4166 3.17032 24.5307 3.19759 24.6314 3.24531C25.9467 3.84522 27.2486 4.4724 28.3156 5.49498C28.8324 5.98582 29.3827 6.44939 29.8793 6.96749C30.8993 8.02416 31.8456 9.13536 32.3355 10.5601C32.416 10.7851 32.4428 11.0305 32.5032 11.3032C32.5703 11.3714 32.6911 11.4805 32.8656 11.6441C32.7046 11.6168 32.6039 11.6032 32.5099 11.5827C32.4898 11.6032 32.4697 11.6236 32.4495 11.6373C32.5502 11.7463 32.6442 11.8622 32.7381 11.9645C32.6978 12.0599 32.5905 12.1758 32.6173 12.2576C32.6509 12.3599 32.7784 12.4417 32.879 12.503C33.0132 12.5849 33.181 12.6121 33.1206 12.8575C33.1005 12.9325 33.2683 13.0348 33.3085 13.1439C33.6776 14.2755 33.9326 15.4344 33.9729 16.6274C34.0065 17.7114 34.0065 18.7953 33.9863 19.8724C33.9796 20.1996 33.8588 20.5201 33.8051 20.8405C33.7716 21.045 33.7649 21.2563 33.7447 21.4608C33.738 21.5154 33.7649 21.5835 33.738 21.6108C33.3756 21.9858 33.4897 22.5311 33.2683 22.9606C32.5636 24.3377 32.0871 25.8306 31.2147 27.1327C30.7651 27.8076 30.2282 28.3939 29.5974 28.8916C29.4028 29.0484 29.2417 29.2597 29.0673 29.4438C29.0002 29.5119 28.9398 29.5801 28.8592 29.6278C28.3156 29.9755 27.9331 30.4868 27.5103 30.964C27.2419 31.2639 26.8325 31.448 26.4769 31.673C26.1145 31.9048 25.7521 32.1025 25.2957 31.9593C25.1615 31.9184 24.9938 31.9797 24.8461 31.9934C24.8461 32.0206 24.8461 32.0547 24.8461 32.082C25.0273 32.1025 25.2085 32.1297 25.3964 32.1502C25.1548 32.2456 24.9602 32.4365 24.6515 32.3411C24.3696 32.2524 24.0542 32.2933 23.7522 32.3002C23.6986 32.3002 23.6046 32.4229 23.6046 32.4842C23.6113 32.5797 23.6717 32.6683 23.5107 32.6478C23.5241 32.7092 23.5174 32.791 23.5509 32.8251C23.6113 32.8864 23.6986 32.9137 23.8529 33.0023C23.5979 33.1114 23.4167 33.2205 23.2221 33.275C22.6584 33.4318 22.0947 33.5886 21.5242 33.6977C20.9337 33.8136 20.3364 33.9499 19.7459 33.9363C19.2224 33.9295 18.7057 33.9704 18.1822 33.9976C17.8668 34.0113 17.5514 33.9635 17.236 33.909C17.1286 33.8886 17.0347 33.7863 16.8937 33.6909C16.6387 33.8204 16.4038 33.7863 16.1086 33.5477C15.914 33.3909 15.5247 33.4795 15.216 33.4591C15.1288 33.4523 15.0281 33.4932 14.9543 33.4591C14.659 33.3159 14.4174 33.4045 14.1624 33.5681C14.0886 33.6159 13.9678 33.6363 13.8738 33.6227C13.7598 33.6022 13.6524 33.5204 13.5383 33.4795C12.8202 33.2 12.1089 32.9205 11.3908 32.6546C11.1962 32.5797 10.9345 32.6206 10.7801 32.5047C9.646 31.6593 8.28369 31.1481 7.37101 30.0028C7.0556 29.6074 6.76032 29.1983 6.29056 28.9529C6.14292 28.8779 6.02884 28.7211 5.92147 28.5848C4.96852 27.4122 4.11624 26.1715 3.55253 24.7467C3.33107 24.1945 3.08277 23.6491 2.84118 23.1038C2.53248 22.3811 2.35799 21.604 2.27075 20.745C2.43852 20.8541 2.57274 20.9427 2.70025 21.0313C2.70025 21.0586 2.69354 21.0791 2.69354 21.1063C2.62643 21.0995 2.55932 21.0995 2.46537 21.0927C2.38484 21.2427 2.40497 21.3722 2.61972 21.4881C2.78078 21.5699 3.08277 21.604 2.88815 21.9312C3.08277 21.9789 3.27067 22.0062 3.45187 22.0676C3.51897 22.088 3.60622 22.1834 3.61293 22.2516C3.67332 23.2537 4.22362 24.0514 4.63298 24.9103C5.143 25.9806 5.82751 26.9418 6.559 27.8758C7.58576 29.1847 8.93465 30.0709 10.2567 31.0049C10.4513 31.1412 10.6325 31.298 10.8405 31.4003C11.0687 31.5094 11.317 31.5707 11.6391 31.6798C11.6727 31.9048 11.9613 31.932 12.2163 32.0275C12.7129 32.2047 13.2028 32.416 13.6994 32.5933C14.0014 32.7024 14.3168 32.8183 14.6322 32.8523C15.9811 33.0091 17.3367 33.1591 18.6923 33.2546C19.2224 33.2886 19.7593 33.1796 20.2894 33.0978C20.786 33.0228 21.2826 32.9137 21.7725 32.7842C22.2893 32.6478 22.7859 32.4501 23.3093 32.3206C24.0341 32.1434 24.6783 31.8093 25.289 31.3935C25.7118 31.1071 26.1078 30.7731 26.5574 30.5345C28.2552 29.6415 29.329 28.1144 30.4564 26.6419C30.4765 26.6146 30.4967 26.5942 30.5034 26.5669C30.745 25.9534 31.1745 25.4693 31.5503 24.9444C31.6577 24.7944 31.6442 24.5695 31.7181 24.3922C31.8992 23.9218 32.0939 23.4583 32.2818 22.9947C32.5166 22.4289 32.6777 21.8426 32.671 21.2222C32.671 21.1404 32.6777 21.0518 32.7045 20.9768C33.0871 19.9883 33.2012 18.918 33.1408 17.9023C33.0736 16.7433 33.1072 15.5435 32.7113 14.4187C32.6911 14.3641 32.6978 14.296 32.6844 14.2414C32.5972 13.846 32.5368 13.4302 32.4026 13.0552C32.2012 12.4962 31.9731 11.9509 31.7046 11.4259C31.3355 10.6897 30.9463 9.96705 30.5302 9.25807C30.2551 8.78086 29.9665 8.30366 29.6175 7.89463C29.1142 7.30153 28.5774 6.73571 27.9935 6.22442C27.517 5.80857 26.9668 5.46771 26.4366 5.12003C25.9467 4.79963 25.4434 4.4724 24.9199 4.20653C24.5106 3.98838 24.0475 3.81113 23.5174 4.05655Z" fill="#777777"/>
<path d="M3.86849 12.6129C3.5932 12.5857 3.39848 12.572 3.21048 12.5516C3.20377 12.572 3.20377 12.5993 3.19705 12.6197C3.35148 12.7015 3.4992 12.7902 3.6872 12.8992C3.58648 12.9265 3.53277 12.9402 3.43205 12.9606C3.70734 13.0629 3.58648 13.1924 3.55291 13.3696C3.37163 14.2422 3.17691 15.1216 3.08962 16.0079C2.99562 16.9487 3.01577 17.9031 2.99562 18.8506C2.98891 19.2051 2.99562 19.5665 2.99562 19.9823C2.68676 19.9278 2.44505 19.8937 2.21005 19.8255C2.15633 19.8119 2.10262 19.6823 2.0959 19.6005C2.0489 19.2051 1.98847 18.8029 2.0019 18.4007C2.02876 17.4463 1.9549 16.4851 2.23019 15.5443C2.35776 15.1148 2.48533 14.6581 2.46519 14.2218C2.44505 13.7582 2.60619 13.3833 2.76734 12.9947C2.90162 12.6743 2.99562 12.2789 3.48577 12.3539C3.50591 12.3539 3.53277 12.3471 3.53948 12.3334C3.58648 12.1834 3.70734 12.1153 3.79463 12.2243C3.8752 12.3266 3.85506 12.5039 3.86849 12.6129Z" fill="#777777"/>
<path d="M14.4113 2.45448C14.4717 2.37271 14.5254 2.30456 14.5925 2.21598C15.0689 2.44085 15.5119 2.34545 15.9145 2.07288C16.0017 2.19553 16.0756 2.29775 16.1628 2.43403C16.1561 2.45448 16.1225 2.52943 16.0621 2.67254C15.8608 2.70661 15.5588 2.74068 15.2703 2.81564C14.5052 3.01325 13.7268 3.18361 12.9886 3.45618C12.1296 3.76964 11.3109 4.18531 10.4653 4.52603C10.1767 4.64187 9.8613 4.60099 9.53247 4.4647C10.0693 3.97407 10.6129 3.56521 11.2639 3.31308C11.8679 3.08139 12.445 2.76794 13.0557 2.54988C13.4852 2.39315 13.9348 2.19553 14.4113 2.45448Z" fill="#777777"/>
<path d="M9.68593 4.8409C9.61211 4.83408 9.55843 4.83408 9.45776 4.82727C9.55172 4.96361 9.74633 5.0386 9.4779 5.21585C9.03498 5.50898 8.64575 5.88393 8.23638 6.23842C8.02835 6.42249 7.84044 6.62019 7.65254 6.8247C7.49819 6.99513 7.35055 7.13829 7.08883 7.13147C7.01501 7.13147 6.92776 7.25418 6.86737 7.33599C6.80697 7.41098 6.78684 7.52005 6.73315 7.60186C6.47814 7.96317 6.21641 8.31766 5.9614 8.67216C5.69296 9.05392 5.48493 9.10164 5.08228 8.88349C5.91442 7.33599 7.09554 6.1089 8.52495 5.12041C8.68601 5.01133 8.84036 4.89544 9.00142 4.78636C9.33697 4.5614 9.33697 4.5614 9.68593 4.8409Z" fill="#777777"/>
<path d="M4.22342 9.74893C4.42485 9.95336 4.61956 10.1578 4.82099 10.369C4.59271 10.812 4.20999 10.6552 3.80713 10.662C3.96156 10.335 4.09585 10.0488 4.23685 9.75575C4.23013 9.75575 4.22342 9.74893 4.22342 9.74893Z" fill="#777777"/>
<path d="M4.23023 9.7562C4.39808 9.54495 4.5458 9.31327 4.74051 9.1361C4.90837 8.97937 4.98223 9.0407 5.04266 9.28601C5.06952 9.40185 5.19037 9.49044 5.33138 9.67443C4.91509 9.70168 4.56594 9.72213 4.2168 9.74257C4.22351 9.74938 4.23023 9.7562 4.23023 9.7562Z" fill="#777777"/>
<path d="M2.25049 20.0364C2.40492 20.2409 2.55935 20.4385 2.71378 20.6429C2.71378 20.6634 2.71378 20.6838 2.71378 20.7111C2.5795 20.6565 2.41164 20.6361 2.33107 20.5407C2.23707 20.4317 2.22364 20.2545 2.16992 20.1046C2.19678 20.0773 2.22364 20.0569 2.25049 20.0364Z" fill="#777777"/>
<path d="M2.84888 21.2356C2.94288 21.2288 3.04359 21.2151 3.13759 21.2083C3.12416 21.2288 3.11745 21.2492 3.10402 21.2765C3.17788 21.3446 3.25174 21.4196 3.33902 21.4945C3.01002 21.7943 3.02345 21.3173 2.84888 21.2356Z" fill="#777777"/>
</g>
</g>
<defs>
<clipPath id="clip0_10198_88378">
<rect width="36" height="36" rx="18" fill="white"/>
</clipPath>
<clipPath id="clip1_10198_88378">
<rect width="36" height="36" fill="white"/>
</clipPath>
</defs>
</svg>
