<svg width="24" height="24" viewBox="0 0 24 24" fill="none" xmlns="http://www.w3.org/2000/svg">
<g id="Frame 513395" opacity="0.6">
<path id="Union" d="M16 1.5V5.5M8 1.5V5.5M4 9.5H20M11 13.5H12V16.5M4 5.5C4 4.96957 4.21071 4.46086 4.58579 4.08579C4.96086 3.71071 5.46957 3.5 6 3.5H18C18.5304 3.5 19.0391 3.71071 19.4142 4.08579C19.7893 4.46086 20 4.96957 20 5.5V17.5C20 18.0304 19.7893 18.5391 19.4142 18.9142C19.0391 19.2893 18.5304 19.5 18 19.5H6C5.46957 19.5 4.96086 19.2893 4.58579 18.9142C4.21071 18.5391 4 18.0304 4 17.5V5.5Z" stroke="#4A4A4A" stroke-width="1.7" stroke-linecap="round" stroke-linejoin="round"/>
</g>
</svg>
