<svg width="18" height="18" viewBox="0 0 18 18" fill="none" xmlns="http://www.w3.org/2000/svg">
<circle cx="9.34375" cy="7" r="7" fill="#9FC2FF"/>
<g filter="url(#filter0_i_13490_11863)">
<circle cx="9.3436" cy="6.99995" r="5.38462" fill="#9FC2FF"/>
</g>
<g filter="url(#filter1_d_13490_11863)">
<path fill-rule="evenodd" clip-rule="evenodd" d="M9.80909 10.2446C9.51777 10.0915 9.16973 10.0915 8.87841 10.2446L7.61051 10.9112C6.87688 11.2969 6.01945 10.6739 6.15956 9.85704L6.40171 8.44522C6.45735 8.12082 6.3498 7.78982 6.11411 7.56008L5.08836 6.56023C4.49484 5.98169 4.82235 4.97372 5.64257 4.85453L7.06013 4.64855C7.38584 4.60122 7.6674 4.39665 7.81307 4.10151L8.44701 2.81699C8.81383 2.07374 9.87367 2.07374 10.2405 2.81699L10.8744 4.10151C11.0201 4.39665 11.3017 4.60122 11.6274 4.64855L13.0449 4.85453C13.8651 4.97372 14.1927 5.98169 13.5991 6.56022L12.5734 7.56008C12.3377 7.78982 12.2302 8.12082 12.2858 8.44522L12.5279 9.85704C12.668 10.6739 11.8106 11.2969 11.077 10.9112L9.80909 10.2446Z" fill="white"/>
</g>
<defs>
<filter id="filter0_i_13490_11863" x="3.95898" y="1.61533" width="10.7693" height="11.7692" filterUnits="userSpaceOnUse" color-interpolation-filters="sRGB">
<feFlood flood-opacity="0" result="BackgroundImageFix"/>
<feBlend mode="normal" in="SourceGraphic" in2="BackgroundImageFix" result="shape"/>
<feColorMatrix in="SourceAlpha" type="matrix" values="0 0 0 0 0 0 0 0 0 0 0 0 0 0 0 0 0 0 127 0" result="hardAlpha"/>
<feOffset dy="1"/>
<feGaussianBlur stdDeviation="1.5"/>
<feComposite in2="hardAlpha" operator="arithmetic" k2="-1" k3="1"/>
<feColorMatrix type="matrix" values="0 0 0 0 0.154583 0 0 0 0 0.424848 0 0 0 0 0.883333 0 0 0 1 0"/>
<feBlend mode="normal" in2="shape" result="effect1_innerShadow_13490_11863"/>
</filter>
<filter id="filter1_d_13490_11863" x="0.7854" y="0.259552" width="17.1167" height="16.7688" filterUnits="userSpaceOnUse" color-interpolation-filters="sRGB">
<feFlood flood-opacity="0" result="BackgroundImageFix"/>
<feColorMatrix in="SourceAlpha" type="matrix" values="0 0 0 0 0 0 0 0 0 0 0 0 0 0 0 0 0 0 127 0" result="hardAlpha"/>
<feOffset dy="2"/>
<feGaussianBlur stdDeviation="2"/>
<feColorMatrix type="matrix" values="0 0 0 0 0.266667 0 0 0 0 0.538631 0 0 0 0 1 0 0 0 1 0"/>
<feBlend mode="normal" in2="BackgroundImageFix" result="effect1_dropShadow_13490_11863"/>
<feBlend mode="normal" in="SourceGraphic" in2="effect1_dropShadow_13490_11863" result="shape"/>
</filter>
</defs>
</svg>
