<svg width="10" height="11" viewBox="0 0 10 11" fill="none" xmlns="http://www.w3.org/2000/svg">
<path id="Vector" d="M4.22259 1.06138C4.17265 1.75797 3.89302 3.26349 2.51732 4.8614C2.56309 4.45194 2.52481 4.11987 2.4549 3.86188C2.39332 3.63467 2.07374 3.63135 2.01298 3.85855C1.92143 4.20226 1.74001 4.67581 1.3863 5.28335C0.68056 6.49842 0.553227 8.60233 3.15399 9.79327C4.24672 10.2935 5.50591 10.3217 6.61279 9.85486C9.70624 8.55073 9.05958 5.61042 8.84819 5.00122C8.63348 4.3504 7.99764 3.29845 7.35349 2.66095C7.24363 2.55193 7.05887 2.63515 7.06719 2.78912C7.09799 3.33673 7.00062 3.81943 6.7601 4.12154C6.74179 3.58391 6.6078 1.90943 4.61457 0.844163C4.44396 0.753449 4.2359 0.867466 4.22259 1.06138Z" fill="white"/>
</svg>
