<svg width="28" height="28" viewBox="0 0 28 28" fill="none" xmlns="http://www.w3.org/2000/svg">
<path opacity="0.4" d="M6 6V22H22L6 6Z" fill="#9FC2FF"/>
<path d="M6 6.35C6 6.12457 6.12041 5.90837 6.33474 5.74896C6.54906 5.58955 6.83975 5.5 7.14286 5.5H20.8571C21.1602 5.5 21.4509 5.58955 21.6653 5.74896C21.8796 5.90837 22 6.12457 22 6.35V22.5L18 20.375L14 22.5L10 20.375L6 22.5V6.35Z" stroke="#4489FF" stroke-width="1.8" stroke-linecap="round" stroke-linejoin="round"/>
<path d="M17.1711 8.40994C17.2692 8.48239 17.3521 8.57346 17.415 8.67795C17.4779 8.78245 17.5195 8.89831 17.5376 9.01892C17.5558 9.13953 17.5499 9.26252 17.5205 9.38088C17.491 9.49923 17.4385 9.61062 17.366 9.70868L15.8723 11.7297H16.7784C17.0246 11.7297 17.2607 11.8275 17.4348 12.0016C17.6089 12.1757 17.7067 12.4118 17.7067 12.658C17.7067 12.9042 17.6089 13.1403 17.4348 13.3144C17.2607 13.4885 17.0246 13.5863 16.7784 13.5863H14.9217V14.5147H16.7784C17.0246 14.5147 17.2607 14.6125 17.4348 14.7866C17.6089 14.9607 17.7067 15.1968 17.7067 15.443C17.7067 15.6892 17.6089 15.9254 17.4348 16.0994C17.2607 16.2735 17.0246 16.3714 16.7784 16.3714H14.9217V17.2997C14.9217 17.5459 14.8239 17.782 14.6498 17.9561C14.4757 18.1302 14.2396 18.228 13.9934 18.228C13.7472 18.228 13.511 18.1302 13.3369 17.9561C13.1628 17.782 13.065 17.5459 13.065 17.2997V16.3714H11.2084C10.9622 16.3714 10.726 16.2735 10.5519 16.0994C10.3778 15.9254 10.28 15.6892 10.28 15.443C10.28 15.1968 10.3778 14.9607 10.5519 14.7866C10.726 14.6125 10.9622 14.5147 11.2084 14.5147H13.065V13.5863H11.2084C10.9622 13.5863 10.726 13.4885 10.5519 13.3144C10.3778 13.1403 10.28 12.9042 10.28 12.658C10.28 12.4118 10.3778 12.1757 10.5519 12.0016C10.726 11.8275 10.9622 11.7297 11.2084 11.7297H12.1144L10.6207 9.70868C10.5483 9.6106 10.4958 9.49921 10.4664 9.38087C10.437 9.26252 10.4311 9.13953 10.4492 9.01894C10.4673 8.89834 10.509 8.78248 10.5719 8.67799C10.6348 8.5735 10.7176 8.48242 10.8157 8.40994C10.9138 8.33746 11.0251 8.28502 11.1435 8.25559C11.2618 8.22616 11.3848 8.22033 11.5054 8.23844C11.626 8.25654 11.7419 8.29822 11.8464 8.36109C11.9509 8.42397 12.0419 8.50681 12.1144 8.60489L13.9934 11.1485L15.8723 8.60489C15.9448 8.50678 16.0359 8.42391 16.1403 8.36101C16.2448 8.29811 16.3607 8.25642 16.4813 8.23831C16.6019 8.22021 16.7249 8.22605 16.8433 8.2555C16.9616 8.28494 17.073 8.33742 17.1711 8.40994Z" fill="#4489FF"/>
</svg>
