<svg width="24" height="25" viewBox="0 0 24 25" fill="none" xmlns="http://www.w3.org/2000/svg">
<g id="ic / default / video">
<path id="Union" d="M21.75 20C21.75 20.1989 21.671 20.3897 21.5303 20.5303C21.3897 20.671 21.1989 20.75 21 20.75H3C2.80109 20.75 2.61032 20.671 2.46967 20.5303C2.32902 20.3897 2.25 20.1989 2.25 20C2.25 19.8011 2.32902 19.6103 2.46967 19.4697C2.61032 19.329 2.80109 19.25 3 19.25H21C21.1989 19.25 21.3897 19.329 21.5303 19.4697C21.671 19.6103 21.75 19.8011 21.75 20ZM21.75 5.75V16.25C21.75 16.6478 21.592 17.0294 21.3107 17.3107C21.0294 17.592 20.6478 17.75 20.25 17.75H3.75C3.35218 17.75 2.97064 17.592 2.68934 17.3107C2.40804 17.0294 2.25 16.6478 2.25 16.25V5.75C2.25 5.35218 2.40804 4.97064 2.68934 4.68934C2.97064 4.40804 3.35218 4.25 3.75 4.25H20.25C20.6478 4.25 21.0294 4.40804 21.3107 4.68934C21.592 4.97064 21.75 5.35218 21.75 5.75ZM15.375 11C15.375 10.8738 15.3431 10.7496 15.2823 10.639C15.2215 10.5284 15.1337 10.4349 15.0272 10.3672L10.9022 7.74219C10.7888 7.67015 10.6582 7.62989 10.5239 7.62561C10.3896 7.62133 10.2567 7.65319 10.139 7.71786C10.0212 7.78252 9.923 7.87762 9.85458 7.99322C9.78616 8.10882 9.75004 8.24067 9.75 8.375V13.625C9.75004 13.7593 9.78616 13.8912 9.85458 14.0068C9.923 14.1224 10.0212 14.2175 10.139 14.2821C10.2567 14.3468 10.3896 14.3787 10.5239 14.3744C10.6582 14.3701 10.7888 14.3298 10.9022 14.2578L15.0272 11.6328C15.1337 11.5651 15.2215 11.4716 15.2823 11.361C15.3431 11.2504 15.375 11.1262 15.375 11Z" fill="url(#paint0_linear_959_12066)" fill-opacity="0.75"/>
</g>
<defs>
<linearGradient id="paint0_linear_959_12066" x1="2.24998" y1="4.25" x2="21.9461" y2="20.307" gradientUnits="userSpaceOnUse">
<stop stop-color="#6FB1FC"/>
<stop offset="0.567708" stop-color="#4481EB"/>
<stop offset="1" stop-color="#065FF5"/>
</linearGradient>
</defs>
</svg>
