<svg width="390" height="62" viewBox="0 0 390 62" fill="none" xmlns="http://www.w3.org/2000/svg">
<rect width="390" height="62" fill="#E6EFFE"/>
<path d="M18.7 19.24C18.16 19.528 17.584 19.804 16.96 20.056L16.468 19.252C18.628 18.496 20.212 17.536 21.22 16.36H18.928V15.58H22.468C23.428 17.032 25.084 18.196 27.46 19.072L26.884 19.852C26.284 19.612 25.744 19.348 25.24 19.084V19.876H22.444V21.988H25.912V22.816H22.444V24.988H27.004V25.84H17.068V24.988H21.568V22.816H18.076V21.988H21.568V19.876H18.7V19.24ZM25.18 19.048C23.86 18.304 22.816 17.44 22.048 16.444C21.34 17.428 20.332 18.292 19.036 19.048H25.18ZM28.576 18.388H29.956V15.22H30.784V18.388H32.092V19.228H30.784V23.236C31.216 23.068 31.648 22.9 32.068 22.708V23.548C31.024 24.004 29.896 24.4 28.696 24.712L28.48 23.884C28.984 23.776 29.476 23.656 29.956 23.512V19.228H28.576V18.388ZM33.064 15.628H38.584V19.216H33.064V15.628ZM37.78 18.544V17.752H33.856V18.544H37.78ZM33.856 17.116H37.78V16.324H33.856V17.116ZM32.308 19.924H39.472V20.68H34.888C34.744 20.944 34.588 21.184 34.408 21.424H39.052C39.028 22.576 38.968 23.5 38.872 24.22C38.776 24.928 38.62 25.42 38.404 25.708C38.188 25.972 37.84 26.116 37.36 26.14H36.46L36.244 25.36C36.496 25.384 36.736 25.396 36.964 25.396C37.456 25.396 37.78 25.192 37.936 24.784C38.08 24.376 38.188 23.488 38.248 22.132H37.576C36.76 24.148 35.428 25.48 33.568 26.128L33.1 25.432C34.828 24.856 36.064 23.764 36.808 22.132H35.776C35.152 23.212 34.144 24.052 32.728 24.664L32.224 24.064C33.496 23.56 34.408 22.924 34.96 22.132H33.76C33.424 22.444 33.04 22.72 32.608 22.984L32.128 22.336C33.004 21.868 33.64 21.316 34.048 20.68H32.308V19.924ZM44.5 15.988H47.476C47.356 15.7 47.212 15.424 47.068 15.184L47.944 15.04C48.064 15.328 48.184 15.64 48.304 15.988H51.244V16.696H44.5V15.988ZM48.232 17.284H50.812V19.108H49.588V19.732H51.136V20.356H49.588V21.004H50.824V21.604H49.588V22.252H51.328V22.876H47.656C47.368 23.236 47.008 23.56 46.576 23.848V25.324C47.128 25.132 47.692 24.892 48.268 24.628L48.412 25.312C47.572 25.672 46.72 25.972 45.844 26.212L45.568 25.624C45.736 25.528 45.832 25.408 45.832 25.264V24.292C45.388 24.508 44.908 24.724 44.38 24.916L43.972 24.256C45.268 23.884 46.216 23.428 46.828 22.876H44.512V22.252H46.156V21.604H44.944V21.004H46.156V20.356H44.704V19.732H46.156V19.108H44.908V17.284H47.5V19.108H46.924V19.732H48.832V19.108H48.232V17.284ZM46.924 22.252H48.832V21.604H46.924V22.252ZM50.116 18.592V17.788H48.892V18.592H50.116ZM48.832 21.004V20.356H46.924V21.004H48.832ZM46.84 18.592V17.788H45.592V18.592H46.84ZM50.62 23.128L51.16 23.584C50.8 24.028 50.392 24.376 49.948 24.628C50.428 25 50.98 25.3 51.592 25.54L51.052 26.164C49.696 25.54 48.676 24.616 47.992 23.368L48.568 23.08C48.82 23.5 49.108 23.872 49.444 24.196C49.888 23.932 50.284 23.584 50.62 23.128ZM42.4 15.148C42.604 15.664 42.772 16.132 42.892 16.552L42.436 16.732H44.128V17.524H40.588V16.732H42.124C41.968 16.264 41.788 15.808 41.572 15.376L42.4 15.148ZM40.996 18.52H43.768V19.24H40.996V18.52ZM40.996 20.224H43.768V20.944H40.996V20.224ZM43.876 21.976V25.996H43.084V25.42H41.704V26.008H40.924V21.976H43.876ZM41.704 24.652H43.084V22.72H41.704V24.652ZM52.612 16.012H56.416V16.816H55V19.624H56.164V20.44H55V22.888C55.48 22.684 55.96 22.456 56.44 22.216V23.056C55.264 23.656 54.004 24.16 52.648 24.568L52.432 23.704C53.008 23.572 53.56 23.416 54.112 23.224V20.44H52.732V19.624H54.112V16.816H52.612V16.012ZM56.596 17.272H59.32V15.22H60.16V17.272H62.2C61.816 16.816 61.336 16.348 60.736 15.856L61.228 15.376C61.84 15.844 62.356 16.312 62.764 16.78L62.284 17.272H63.004V18.112H60.16V19.264C60.34 19.84 60.556 20.392 60.808 20.92C61.336 20.32 61.828 19.66 62.284 18.94L62.932 19.42C62.356 20.308 61.78 21.052 61.18 21.652C61.792 22.756 62.56 23.728 63.484 24.556L62.92 25.228C61.744 24.1 60.82 22.744 60.16 21.148V25.108C60.16 25.756 59.824 26.092 59.164 26.092H57.82L57.652 25.276C58.072 25.312 58.48 25.336 58.876 25.336C59.164 25.336 59.32 25.18 59.32 24.892V18.112H56.596V17.272ZM57.292 19.072C57.844 19.84 58.264 20.524 58.564 21.1L57.964 21.52C57.628 20.908 57.184 20.236 56.62 19.492L57.292 19.072ZM58.612 21.88L58.804 22.612C58.132 23.5 57.292 24.304 56.284 25L55.936 24.196C56.968 23.572 57.868 22.792 58.612 21.88Z" fill="#8D8D8D"/>
<path d="M72.452 15.844H75.236C75.128 15.616 75.02 15.412 74.9 15.22L76.172 15.004C76.268 15.256 76.352 15.532 76.448 15.844H79.28V16.852H72.452V15.844ZM76.16 17.236H78.884V19.156H77.756V19.576H79.172V20.428H77.756V20.872H78.86V21.688H77.756V22.132H79.364V22.996H75.728C75.464 23.308 75.152 23.596 74.792 23.86V25.024C75.284 24.844 75.776 24.64 76.268 24.4L76.496 25.372C75.62 25.732 74.732 26.044 73.82 26.284L73.436 25.444C73.628 25.324 73.736 25.156 73.736 24.952V24.496C73.352 24.688 72.944 24.856 72.512 25.024L71.972 24.148V26.044H70.844V25.552H69.944V26.056H68.816V21.82H71.972V24.064C73.064 23.776 73.904 23.416 74.492 22.996H72.476V22.132H73.988V21.688H72.908V20.872H73.988V20.428H72.68V19.576H73.988V19.156H72.824V17.236H75.572V19.156H75.092V19.576H76.664V19.156H76.16V17.236ZM69.944 24.472H70.844V22.876H69.944V24.472ZM75.092 22.132H76.664V21.688H75.092V22.132ZM77.912 18.46V17.92H77.084V18.46H77.912ZM76.664 20.872V20.428H75.092V20.872H76.664ZM74.648 18.46V17.92H73.796V18.46H74.648ZM78.476 23.08L79.256 23.728C78.944 24.088 78.596 24.388 78.224 24.628C78.656 24.916 79.136 25.156 79.664 25.348L78.872 26.248C77.552 25.624 76.556 24.688 75.896 23.452L76.7 23.044C76.928 23.416 77.192 23.74 77.492 24.028C77.864 23.788 78.188 23.464 78.476 23.08ZM70.604 15.1C70.784 15.604 70.928 16.048 71.024 16.456H72.128V17.596H68.54V16.456H69.848C69.716 16.108 69.572 15.76 69.416 15.424L70.604 15.1ZM68.924 18.34H71.84V19.372H68.924V18.34ZM68.924 20.044H71.84V21.076H68.924V20.044ZM80.66 16.792H85.664C85.448 16.348 85.196 15.928 84.896 15.52L86.084 15.076C86.396 15.556 86.696 16.132 86.96 16.792H91.388V18.004H85.172C85.148 18.46 85.124 19.048 85.076 19.78H90.02C89.972 22.444 89.852 24.112 89.66 24.76C89.384 25.696 88.772 26.164 87.836 26.188C87.44 26.188 86.984 26.164 86.456 26.128L86.084 24.988C86.72 25.024 87.26 25.048 87.704 25.048C88.172 25.024 88.472 24.676 88.616 24.004C88.688 23.632 88.724 22.624 88.748 20.968H84.932C84.764 21.88 84.476 22.708 84.056 23.464C83.468 24.508 82.64 25.468 81.572 26.332L80.66 25.444C81.932 24.388 82.772 23.404 83.18 22.504C83.576 21.604 83.804 20.584 83.864 19.456C83.888 18.856 83.912 18.376 83.924 18.004H80.66V16.792ZM96.5 15.16H97.676L93.512 26.2H92.324L96.5 15.16ZM103.364 18.268H99.044V17.044H103.328C103.136 16.48 102.908 15.94 102.668 15.424L103.892 15.088C104.18 15.808 104.396 16.456 104.552 17.044H108.968V18.268H104.636V20.632H108.38V21.82H104.636V24.628H109.376V25.852H98.636V24.628H103.364V21.82H99.632V20.632H103.364V18.268ZM114.524 16.588H115.952C115.796 16.216 115.616 15.868 115.412 15.544L116.588 15.1C116.804 15.532 117.008 16.024 117.188 16.588H118.448C118.688 16.12 118.892 15.628 119.084 15.112L120.26 15.532C120.092 15.916 119.9 16.264 119.708 16.588H121.22V17.788H118.352C118.112 18.088 117.86 18.376 117.572 18.64C117.956 19.048 118.268 19.516 118.508 20.056C118.748 19.888 118.976 19.684 119.192 19.468C119.504 19.132 119.816 18.712 120.104 18.232L121.148 18.868C120.788 19.42 120.428 19.876 120.068 20.224C119.804 20.488 119.468 20.764 119.06 21.052C119.72 22.156 120.584 23.092 121.652 23.872L121.016 24.964C120.272 24.328 119.636 23.608 119.12 22.804C119.132 23.044 119.144 23.296 119.144 23.548C119.144 24.772 118.976 25.516 118.664 25.78C118.328 26.032 117.776 26.176 117.008 26.212C116.828 26.212 116.636 26.224 116.42 26.224L116.048 25.096H116.96C117.296 25.096 117.536 25.012 117.704 24.868C117.848 24.7 117.932 24.268 117.932 23.548C117.932 23.284 117.92 23.044 117.908 22.816C116.996 23.728 115.928 24.484 114.716 25.084L113.996 24.016C115.568 23.296 116.804 22.444 117.692 21.46C117.62 21.22 117.548 20.992 117.464 20.788C116.828 21.496 116.024 22.084 115.064 22.552L114.452 21.484C115.484 21.028 116.324 20.476 116.96 19.804C116.852 19.648 116.744 19.504 116.624 19.384C116.048 19.768 115.388 20.116 114.656 20.428L114.008 19.36C115.256 18.928 116.204 18.412 116.876 17.788H114.524V16.588ZM110.816 15.52H114.38V16.456C114.14 17.368 113.852 18.316 113.528 19.3C114.068 20.308 114.368 21.184 114.416 21.928C114.416 22.576 114.308 23.02 114.092 23.284C113.756 23.632 113.192 23.812 112.388 23.824L112.064 22.804V26.14H110.816V15.52ZM112.064 22.588C112.304 22.624 112.496 22.648 112.652 22.648C112.868 22.624 113.012 22.552 113.096 22.456C113.168 22.36 113.204 22.18 113.204 21.928C113.204 21.208 112.904 20.392 112.304 19.48C112.664 18.436 112.952 17.488 113.168 16.648H112.064V22.588Z" fill="#4489FF"/>
<path d="M127.064 19.204C127.52 19.516 127.976 19.924 128.444 20.404C128.84 20.812 129.188 21.232 129.476 21.64L128.876 22.144C128.588 21.736 128.24 21.316 127.856 20.908C127.412 20.44 126.968 20.044 126.524 19.708L127.064 19.204Z" fill="#4489FF"/>
<path d="M140.108 18.232V19.24L139.688 19.276V20.98C139.688 21.58 139.34 21.892 138.644 21.892H138.068L137.792 20.92C137.984 20.944 138.152 20.956 138.308 20.956C138.476 20.956 138.572 20.836 138.572 20.596V19.372C138.14 19.396 137.72 19.432 137.312 19.456C137.744 19.864 138.08 20.224 138.308 20.536L137.648 20.992C137.384 20.644 137.048 20.26 136.628 19.852L137.252 19.456L136.496 19.492C136.364 20.512 136.052 21.364 135.572 22.06L134.66 21.244C135.02 20.764 135.248 20.2 135.368 19.552L134.648 19.588L134.492 18.532L135.452 18.496V15.904H136.712C136.82 15.616 136.904 15.34 136.976 15.052L138.236 15.22C138.164 15.46 138.08 15.688 137.972 15.904H139.688V18.268C139.832 18.244 139.964 18.232 140.108 18.232ZM138.572 18.34V16.864H136.556V18.448L137.648 18.4C137.408 18.088 137.108 17.764 136.748 17.428L137.42 16.996C137.816 17.38 138.116 17.716 138.332 18.004L137.792 18.388L138.572 18.34ZM140.792 15.436H144.188V16.792C144.188 16.924 144.272 16.996 144.44 16.996H145.328V17.992H144.128C143.408 17.992 143.06 17.668 143.06 17.02V16.396H141.872C141.848 16.696 141.764 16.996 141.644 17.284C141.5 17.572 141.2 17.896 140.768 18.244L139.892 17.452C140.168 17.248 140.396 17.032 140.564 16.804C140.708 16.552 140.792 16.096 140.792 15.436ZM144.26 22.216V24.832H145.472V25.948H134.528V24.832H135.74V22.216H144.26ZM136.952 24.832H138.152V23.344H136.952V24.832ZM139.364 24.832H140.588V23.344H139.364V24.832ZM141.8 24.832H143.048V23.344H141.8V24.832ZM144.896 18.388V19.168C144.644 19.696 144.284 20.164 143.816 20.548C144.368 20.812 144.872 21.1 145.328 21.388L144.596 22.264C144.068 21.892 143.492 21.532 142.856 21.196C142.184 21.556 141.38 21.844 140.444 22.06L139.928 21.052C140.588 20.932 141.164 20.776 141.656 20.596C141.236 20.404 140.804 20.212 140.372 20.044L140.924 19.396H140.36V18.388H144.896ZM141.128 19.396C141.716 19.612 142.268 19.828 142.772 20.056C143.084 19.852 143.348 19.636 143.54 19.396H141.128ZM156.536 16.456V26.056H155.264V25.408H148.736V26.056H147.476V16.456H156.536ZM148.736 24.184H155.264V17.68H148.736V24.184ZM162.5 15.16H163.676L159.512 26.2H158.324L162.5 15.16ZM167.732 16.264C168.56 16.264 169.244 16.504 169.784 16.984C170.312 17.464 170.576 18.076 170.576 18.844C170.576 19.588 170.288 20.26 169.736 20.872C169.4 21.232 168.8 21.688 167.96 22.252C167.084 22.828 166.556 23.332 166.364 23.764H170.588V25H164.612C164.612 24.124 164.888 23.368 165.464 22.72C165.776 22.36 166.436 21.832 167.432 21.148C167.984 20.764 168.368 20.44 168.608 20.188C168.98 19.768 169.172 19.312 169.172 18.832C169.172 18.364 169.04 18.016 168.8 17.788C168.548 17.56 168.176 17.452 167.684 17.452C167.156 17.452 166.76 17.632 166.496 17.992C166.232 18.328 166.088 18.844 166.064 19.516H164.66C164.672 18.556 164.948 17.788 165.5 17.2C166.064 16.576 166.808 16.264 167.732 16.264Z" fill="#4489FF"/>
<path d="M190.7 19.24C190.16 19.528 189.584 19.804 188.96 20.056L188.468 19.252C190.628 18.496 192.212 17.536 193.22 16.36H190.928V15.58H194.468C195.428 17.032 197.084 18.196 199.46 19.072L198.884 19.852C198.284 19.612 197.744 19.348 197.24 19.084V19.876H194.444V21.988H197.912V22.816H194.444V24.988H199.004V25.84H189.068V24.988H193.568V22.816H190.076V21.988H193.568V19.876H190.7V19.24ZM197.18 19.048C195.86 18.304 194.816 17.44 194.048 16.444C193.34 17.428 192.332 18.292 191.036 19.048H197.18ZM200.576 18.388H201.956V15.22H202.784V18.388H204.092V19.228H202.784V23.236C203.216 23.068 203.648 22.9 204.068 22.708V23.548C203.024 24.004 201.896 24.4 200.696 24.712L200.48 23.884C200.984 23.776 201.476 23.656 201.956 23.512V19.228H200.576V18.388ZM205.064 15.628H210.584V19.216H205.064V15.628ZM209.78 18.544V17.752H205.856V18.544H209.78ZM205.856 17.116H209.78V16.324H205.856V17.116ZM204.308 19.924H211.472V20.68H206.888C206.744 20.944 206.588 21.184 206.408 21.424H211.052C211.028 22.576 210.968 23.5 210.872 24.22C210.776 24.928 210.62 25.42 210.404 25.708C210.188 25.972 209.84 26.116 209.36 26.14H208.46L208.244 25.36C208.496 25.384 208.736 25.396 208.964 25.396C209.456 25.396 209.78 25.192 209.936 24.784C210.08 24.376 210.188 23.488 210.248 22.132H209.576C208.76 24.148 207.428 25.48 205.568 26.128L205.1 25.432C206.828 24.856 208.064 23.764 208.808 22.132H207.776C207.152 23.212 206.144 24.052 204.728 24.664L204.224 24.064C205.496 23.56 206.408 22.924 206.96 22.132H205.76C205.424 22.444 205.04 22.72 204.608 22.984L204.128 22.336C205.004 21.868 205.64 21.316 206.048 20.68H204.308V19.924ZM212.732 18.352H217.4C217.496 17.656 217.544 16.936 217.556 16.18V15.208H218.444V15.988C218.444 16.828 218.384 17.608 218.288 18.352H223.268V19.192H218.54C219.38 21.904 221.036 23.992 223.496 25.456L222.956 26.152C220.544 24.664 218.888 22.576 217.988 19.864C217.244 22.78 215.588 24.904 213.032 26.236L212.492 25.516C215.048 24.256 216.632 22.144 217.256 19.192H212.732V18.352ZM229.424 26.068H227.588L227.384 25.168C227.984 25.216 228.56 25.24 229.1 25.24C229.544 25.24 229.772 25.012 229.772 24.568V15.376H230.66V24.796C230.66 25.636 230.24 26.068 229.424 26.068ZM226.556 18.16L227.42 18.496C226.844 20.896 226.088 22.72 225.152 23.968L224.408 23.308C225.368 22.036 226.076 20.32 226.556 18.16ZM233.372 17.872C234.32 20.02 235.052 21.892 235.556 23.488L234.788 24.028C234.248 22.324 233.516 20.44 232.592 18.364L233.372 17.872Z" fill="#8D8D8D"/>
<path d="M240.804 15.664H251.196V16.888H247.332C247.128 17.332 246.9 17.764 246.648 18.184V18.688C248.532 19.756 250.152 20.92 251.508 22.192L250.632 23.236C249.552 22.096 248.22 21.016 246.648 20.008V26.272H245.352V19.948C244.26 21.172 242.892 22.276 241.26 23.26L240.432 22.168C243.024 20.704 244.848 18.952 245.904 16.888H240.804V15.664ZM254.04 26.14H252.936L252.66 24.952C252.984 25 253.296 25.024 253.608 25.024C253.872 25.024 254.004 24.88 254.004 24.592V22.156C253.56 22.312 253.116 22.456 252.672 22.6L252.348 21.34C252.912 21.22 253.464 21.076 254.004 20.896V18.508H252.612V17.32H254.004V15.184H255.24V17.32H256.092V18.508H255.24V20.44C255.612 20.284 255.972 20.116 256.332 19.936V21.184C255.972 21.352 255.6 21.52 255.24 21.676V24.904C255.24 25.72 254.832 26.14 254.04 26.14ZM258.156 20.356V19.492L257.268 19.936C256.956 18.964 256.608 18.1 256.248 17.332L257.28 16.84C257.568 17.56 257.868 18.364 258.156 19.24V15.184H259.296V20.98C259.26 23.416 258.528 25.204 257.1 26.332L256.152 25.492C257.28 24.7 257.928 23.488 258.108 21.868C257.652 22.396 257.148 22.864 256.608 23.26L255.924 22.132C256.764 21.676 257.508 21.088 258.156 20.356ZM262.272 16.492L263.352 17.032C262.956 18.04 262.5 18.916 261.972 19.66L261.144 19.06V19.972C261.984 20.476 262.752 21.064 263.448 21.748L262.74 22.852C262.212 22.228 261.672 21.688 261.144 21.244V24.436C261.144 24.784 261.24 24.964 261.444 24.964H261.78C261.96 24.964 262.092 24.88 262.188 24.724C262.284 24.556 262.344 24.04 262.38 23.188L263.496 23.548C263.4 24.772 263.244 25.492 263.016 25.72C262.788 25.936 262.452 26.044 261.996 26.044H261.084C260.34 26.044 259.968 25.588 259.968 24.676V15.172H261.144V18.748C261.588 18.1 261.96 17.356 262.272 16.492ZM269.76 19.408H270.852V19.972H272.388V19.408H273.492V19.972H274.932V21.016H273.492V21.76H275.28V22.816H273.024C273.78 23.116 274.476 23.476 275.124 23.896L274.524 24.808C273.744 24.256 272.94 23.812 272.124 23.5L272.592 22.816H270.444L271.044 23.344C270.444 23.872 269.7 24.328 268.836 24.736L268.176 23.884C268.932 23.572 269.58 23.212 270.12 22.816H267.972V21.76H269.76V21.016H268.284V19.972H269.76V19.408ZM270.852 21.76H272.388V21.016H270.852V21.76ZM265.62 15.196C266.34 15.76 266.94 16.324 267.432 16.9L266.628 17.704C266.196 17.176 265.596 16.6 264.804 15.976L265.62 15.196ZM264.624 18.052H267.504V19C267.144 19.612 266.724 20.212 266.244 20.812H267.624V21.604C267.48 22.468 267.3 23.188 267.084 23.764C267.192 23.836 267.288 23.908 267.384 23.992C267.768 24.34 268.128 24.58 268.464 24.724C268.812 24.856 269.304 24.928 269.952 24.952C270.6 24.952 271.344 24.964 272.184 24.964C273.048 24.964 274.176 24.928 275.568 24.88L275.28 26.056H272.34C271.524 26.056 270.708 26.032 269.904 26.008C269.088 25.984 268.476 25.888 268.056 25.72C267.552 25.528 267.108 25.228 266.7 24.796C266.616 24.7 266.52 24.664 266.424 24.664C266.196 24.664 265.824 25.18 265.308 26.236L264.432 25.432C264.96 24.424 265.464 23.812 265.968 23.608C266.172 23.056 266.34 22.468 266.46 21.832H264.816V20.92C265.368 20.296 265.812 19.708 266.172 19.156H264.624V18.052ZM273.948 16.336H272.796V16.912H273.948V16.336ZM272.796 17.74V18.016C272.796 18.184 272.916 18.28 273.156 18.28H275.124V19.18H272.628C272.04 19.18 271.752 18.94 271.752 18.472V15.484H274.992V17.74H272.796ZM268.212 19.432L267.852 18.664C268.032 18.556 268.128 18.376 268.128 18.136V15.484H271.368V17.74H269.184V18.4C269.892 18.328 270.588 18.244 271.26 18.148L271.5 19C270.528 19.156 269.436 19.3 268.212 19.432ZM269.184 16.924H270.324V16.36H269.184V16.924Z" fill="#4489FF"/>
<path d="M23.74 36.244H24.58V37.492H27.436V38.272H24.58V39.664H26.98V40.456H21.316V39.664H23.74V38.272H20.848V37.492H23.74V36.244ZM21.088 41.956H25.108V41.02H25.948V41.956H27.436V42.76H25.948V45.976C25.948 46.732 25.588 47.116 24.868 47.116H23.404L23.224 46.3C23.704 46.336 24.148 46.36 24.58 46.36C24.928 46.36 25.108 46.156 25.108 45.76V42.76H21.088V41.956ZM21.964 43.252C22.636 43.96 23.152 44.584 23.512 45.112L22.84 45.592C22.456 45.016 21.94 44.368 21.292 43.66L21.964 43.252ZM20.344 37.096V45.94H19.528V45.136H17.824V46.228H16.984V37.096H20.344ZM17.824 44.332H19.528V41.44H17.824V44.332ZM17.824 40.66H19.528V37.888H17.824V40.66ZM31.792 41.488H36.196V46.12H31.792V41.488ZM35.38 45.4V44.152H32.62V45.4H35.38ZM32.62 43.444H35.38V42.208H32.62V43.444ZM30.016 38.932V39.844H32.524V38.932H30.016ZM32.524 38.26V37.36H30.016V38.26H32.524ZM35.404 38.944V39.844H37.996V38.944H35.404ZM37.996 38.272V37.36H35.404V38.272H37.996ZM33.388 36.592V40.624H30.016V47.176H29.152V36.592H33.388ZM37.996 40.624H34.54V36.58H38.848V46.24C38.848 46.84 38.536 47.152 37.936 47.152C37.528 47.152 37.12 47.14 36.724 47.128L36.496 46.3C36.904 46.324 37.276 46.348 37.624 46.348C37.864 46.348 37.996 46.216 37.996 45.964V40.624ZM43.912 38.272H49.348V41.092H43.912V38.272ZM48.544 40.324V39.04H44.728V40.324H48.544ZM43.012 41.956H46.276V45.22H43.012V41.956ZM45.508 44.488V42.7H43.78V44.488H45.508ZM47.284 41.956H50.536V45.22H47.284V41.956ZM49.768 44.488V42.7H48.04V44.488H49.768ZM40.696 36.676H50.98V37.516H42.148V45.436C42.148 45.784 42.316 45.964 42.676 45.964H51.232V46.804H42.436C41.668 46.804 41.284 46.408 41.284 45.628V37.516H40.696V36.676ZM55.792 41.488H60.196V46.12H55.792V41.488ZM59.38 45.4V44.152H56.62V45.4H59.38ZM56.62 43.444H59.38V42.208H56.62V43.444ZM54.016 38.932V39.844H56.524V38.932H54.016ZM56.524 38.26V37.36H54.016V38.26H56.524ZM59.404 38.944V39.844H61.996V38.944H59.404ZM61.996 38.272V37.36H59.404V38.272H61.996ZM57.388 36.592V40.624H54.016V47.176H53.152V36.592H57.388ZM61.996 40.624H58.54V36.58H62.848V46.24C62.848 46.84 62.536 47.152 61.936 47.152C61.528 47.152 61.12 47.14 60.724 47.128L60.496 46.3C60.904 46.324 61.276 46.348 61.624 46.348C61.864 46.348 61.996 46.216 61.996 45.964V40.624Z" fill="#8D8D8D"/>
<path d="M71.732 37.264C72.56 37.264 73.244 37.504 73.784 37.984C74.312 38.464 74.576 39.076 74.576 39.844C74.576 40.588 74.288 41.26 73.736 41.872C73.4 42.232 72.8 42.688 71.96 43.252C71.084 43.828 70.556 44.332 70.364 44.764H74.588V46H68.612C68.612 45.124 68.888 44.368 69.464 43.72C69.776 43.36 70.436 42.832 71.432 42.148C71.984 41.764 72.368 41.44 72.608 41.188C72.98 40.768 73.172 40.312 73.172 39.832C73.172 39.364 73.04 39.016 72.8 38.788C72.548 38.56 72.176 38.452 71.684 38.452C71.156 38.452 70.76 38.632 70.496 38.992C70.232 39.328 70.088 39.844 70.064 40.516H68.66C68.672 39.556 68.948 38.788 69.5 38.2C70.064 37.576 70.808 37.264 71.732 37.264ZM78.7953 37.264C79.7913 37.264 80.5713 37.672 81.1353 38.512C81.6633 39.304 81.9273 40.372 81.9273 41.716C81.9273 43.06 81.6633 44.128 81.1353 44.92C80.5713 45.748 79.7913 46.168 78.7953 46.168C77.7873 46.168 77.0073 45.748 76.4553 44.92C75.9273 44.128 75.6633 43.06 75.6633 41.716C75.6633 40.372 75.9273 39.304 76.4553 38.512C77.0073 37.672 77.7873 37.264 78.7953 37.264ZM78.7953 38.452C78.1113 38.452 77.6313 38.824 77.3553 39.592C77.1633 40.108 77.0673 40.816 77.0673 41.716C77.0673 42.604 77.1633 43.312 77.3553 43.84C77.6313 44.596 78.1113 44.98 78.7953 44.98C79.4673 44.98 79.9473 44.596 80.2353 43.84C80.4273 43.312 80.5233 42.604 80.5233 41.716C80.5233 40.816 80.4273 40.108 80.2353 39.592C79.9473 38.824 79.4673 38.452 78.7953 38.452ZM86.1226 37.264C86.9506 37.264 87.6346 37.504 88.1746 37.984C88.7026 38.464 88.9666 39.076 88.9666 39.844C88.9666 40.588 88.6786 41.26 88.1266 41.872C87.7906 42.232 87.1906 42.688 86.3506 43.252C85.4746 43.828 84.9466 44.332 84.7546 44.764H88.9786V46H83.0026C83.0026 45.124 83.2786 44.368 83.8546 43.72C84.1666 43.36 84.8266 42.832 85.8226 42.148C86.3746 41.764 86.7586 41.44 86.9986 41.188C87.3706 40.768 87.5626 40.312 87.5626 39.832C87.5626 39.364 87.4306 39.016 87.1906 38.788C86.9386 38.56 86.5666 38.452 86.0746 38.452C85.5466 38.452 85.1506 38.632 84.8866 38.992C84.6226 39.328 84.4786 39.844 84.4546 40.516H83.0506C83.0626 39.556 83.3386 38.788 83.8906 38.2C84.4546 37.576 85.1986 37.264 86.1226 37.264ZM93.2699 37.264C94.1339 37.264 94.8419 37.468 95.3699 37.888C95.8859 38.308 96.1499 38.884 96.1499 39.628C96.1499 40.564 95.6699 41.188 94.7219 41.5C95.2259 41.656 95.6219 41.884 95.8859 42.196C96.1739 42.52 96.3179 42.94 96.3179 43.444C96.3179 44.236 96.0419 44.884 95.4899 45.388C94.9139 45.904 94.1579 46.168 93.2219 46.168C92.3339 46.168 91.6139 45.94 91.0739 45.484C90.4739 44.98 90.1379 44.236 90.0659 43.276H91.4939C91.5179 43.828 91.6859 44.26 92.0219 44.56C92.3219 44.836 92.7179 44.98 93.2099 44.98C93.7499 44.98 94.1819 44.824 94.4939 44.524C94.7699 44.248 94.9139 43.912 94.9139 43.504C94.9139 43.012 94.7579 42.652 94.4699 42.424C94.1819 42.184 93.7619 42.076 93.2099 42.076H92.6099V41.02H93.2099C93.7139 41.02 94.0979 40.912 94.3619 40.696C94.6139 40.48 94.7459 40.156 94.7459 39.736C94.7459 39.316 94.6259 39.004 94.3979 38.788C94.1459 38.572 93.7739 38.464 93.2819 38.464C92.7779 38.464 92.3939 38.584 92.1179 38.836C91.8299 39.088 91.6619 39.472 91.6139 39.988H90.2339C90.3059 39.124 90.6179 38.452 91.1939 37.972C91.7339 37.492 92.4299 37.264 93.2699 37.264ZM97.3813 42.328H103.441V43.456H97.3813V42.328ZM106.831 37.432H107.887V46H106.483V39.124C105.967 39.592 105.319 39.94 104.527 40.168V38.776C104.911 38.68 105.319 38.512 105.751 38.272C106.183 38.008 106.543 37.732 106.831 37.432ZM112.569 37.264C113.565 37.264 114.345 37.672 114.909 38.512C115.437 39.304 115.701 40.372 115.701 41.716C115.701 43.06 115.437 44.128 114.909 44.92C114.345 45.748 113.565 46.168 112.569 46.168C111.561 46.168 110.781 45.748 110.229 44.92C109.701 44.128 109.437 43.06 109.437 41.716C109.437 40.372 109.701 39.304 110.229 38.512C110.781 37.672 111.561 37.264 112.569 37.264ZM112.569 38.452C111.885 38.452 111.405 38.824 111.129 39.592C110.937 40.108 110.841 40.816 110.841 41.716C110.841 42.604 110.937 43.312 111.129 43.84C111.405 44.596 111.885 44.98 112.569 44.98C113.241 44.98 113.721 44.596 114.009 43.84C114.201 43.312 114.297 42.604 114.297 41.716C114.297 40.816 114.201 40.108 114.009 39.592C113.721 38.824 113.241 38.452 112.569 38.452ZM116.764 42.328H122.824V43.456H116.764V42.328ZM127.03 37.264C128.026 37.264 128.806 37.672 129.37 38.512C129.898 39.304 130.162 40.372 130.162 41.716C130.162 43.06 129.898 44.128 129.37 44.92C128.806 45.748 128.026 46.168 127.03 46.168C126.022 46.168 125.242 45.748 124.69 44.92C124.162 44.128 123.898 43.06 123.898 41.716C123.898 40.372 124.162 39.304 124.69 38.512C125.242 37.672 126.022 37.264 127.03 37.264ZM127.03 38.452C126.346 38.452 125.866 38.824 125.59 39.592C125.398 40.108 125.302 40.816 125.302 41.716C125.302 42.604 125.398 43.312 125.59 43.84C125.866 44.596 126.346 44.98 127.03 44.98C127.702 44.98 128.182 44.596 128.47 43.84C128.662 43.312 128.758 42.604 128.758 41.716C128.758 40.816 128.662 40.108 128.47 39.592C128.182 38.824 127.702 38.452 127.03 38.452ZM134.129 37.264C135.173 37.264 135.977 37.636 136.529 38.392C137.081 39.136 137.357 40.156 137.357 41.476C137.357 42.868 137.057 44.008 136.481 44.872C135.893 45.736 135.101 46.168 134.117 46.168C132.425 46.168 131.477 45.388 131.273 43.828H132.641C132.809 44.62 133.301 45.016 134.129 45.016C134.693 45.016 135.149 44.728 135.497 44.176C135.821 43.648 135.989 42.988 135.989 42.196V42.088H135.929C135.677 42.436 135.377 42.7 135.029 42.868C134.693 43.024 134.309 43.108 133.877 43.108C133.037 43.108 132.353 42.832 131.849 42.28C131.345 41.752 131.105 41.068 131.105 40.228C131.105 39.364 131.393 38.656 131.969 38.104C132.545 37.54 133.265 37.264 134.129 37.264ZM134.177 38.428C133.673 38.428 133.265 38.596 132.953 38.932C132.641 39.268 132.497 39.7 132.497 40.228C132.497 40.756 132.641 41.176 132.953 41.488C133.241 41.8 133.649 41.968 134.177 41.968C134.693 41.968 135.101 41.8 135.401 41.488C135.689 41.164 135.845 40.732 135.845 40.18C135.845 39.628 135.689 39.208 135.377 38.896C135.065 38.584 134.657 38.428 134.177 38.428Z" fill="#4489FF"/>
<path d="M143.8 40.696C144.196 40.696 144.652 40.852 145.156 41.176C145.66 41.488 146.008 41.644 146.2 41.644C146.44 41.644 146.704 41.38 147.016 40.864L147.844 41.44C147.316 42.28 146.764 42.7 146.2 42.7C145.804 42.7 145.36 42.544 144.856 42.232C144.352 41.908 143.992 41.752 143.8 41.752C143.56 41.752 143.284 42.004 142.984 42.532L142.156 41.956C142.684 41.116 143.224 40.696 143.8 40.696Z" fill="#4489FF"/>
<path d="M155.732 37.264C156.56 37.264 157.244 37.504 157.784 37.984C158.312 38.464 158.576 39.076 158.576 39.844C158.576 40.588 158.288 41.26 157.736 41.872C157.4 42.232 156.8 42.688 155.96 43.252C155.084 43.828 154.556 44.332 154.364 44.764H158.588V46H152.612C152.612 45.124 152.888 44.368 153.464 43.72C153.776 43.36 154.436 42.832 155.432 42.148C155.984 41.764 156.368 41.44 156.608 41.188C156.98 40.768 157.172 40.312 157.172 39.832C157.172 39.364 157.04 39.016 156.8 38.788C156.548 38.56 156.176 38.452 155.684 38.452C155.156 38.452 154.76 38.632 154.496 38.992C154.232 39.328 154.088 39.844 154.064 40.516H152.66C152.672 39.556 152.948 38.788 153.5 38.2C154.064 37.576 154.808 37.264 155.732 37.264ZM162.795 37.264C163.791 37.264 164.571 37.672 165.135 38.512C165.663 39.304 165.927 40.372 165.927 41.716C165.927 43.06 165.663 44.128 165.135 44.92C164.571 45.748 163.791 46.168 162.795 46.168C161.787 46.168 161.007 45.748 160.455 44.92C159.927 44.128 159.663 43.06 159.663 41.716C159.663 40.372 159.927 39.304 160.455 38.512C161.007 37.672 161.787 37.264 162.795 37.264ZM162.795 38.452C162.111 38.452 161.631 38.824 161.355 39.592C161.163 40.108 161.067 40.816 161.067 41.716C161.067 42.604 161.163 43.312 161.355 43.84C161.631 44.596 162.111 44.98 162.795 44.98C163.467 44.98 163.947 44.596 164.235 43.84C164.427 43.312 164.523 42.604 164.523 41.716C164.523 40.816 164.427 40.108 164.235 39.592C163.947 38.824 163.467 38.452 162.795 38.452ZM170.123 37.264C170.951 37.264 171.635 37.504 172.175 37.984C172.703 38.464 172.967 39.076 172.967 39.844C172.967 40.588 172.679 41.26 172.127 41.872C171.791 42.232 171.191 42.688 170.351 43.252C169.475 43.828 168.947 44.332 168.755 44.764H172.979V46H167.003C167.003 45.124 167.279 44.368 167.855 43.72C168.167 43.36 168.827 42.832 169.823 42.148C170.375 41.764 170.759 41.44 170.999 41.188C171.371 40.768 171.563 40.312 171.563 39.832C171.563 39.364 171.431 39.016 171.191 38.788C170.939 38.56 170.567 38.452 170.075 38.452C169.547 38.452 169.151 38.632 168.887 38.992C168.623 39.328 168.479 39.844 168.455 40.516H167.051C167.063 39.556 167.339 38.788 167.891 38.2C168.455 37.576 169.199 37.264 170.123 37.264ZM177.27 37.264C178.134 37.264 178.842 37.468 179.37 37.888C179.886 38.308 180.15 38.884 180.15 39.628C180.15 40.564 179.67 41.188 178.722 41.5C179.226 41.656 179.622 41.884 179.886 42.196C180.174 42.52 180.318 42.94 180.318 43.444C180.318 44.236 180.042 44.884 179.49 45.388C178.914 45.904 178.158 46.168 177.222 46.168C176.334 46.168 175.614 45.94 175.074 45.484C174.474 44.98 174.138 44.236 174.066 43.276H175.494C175.518 43.828 175.686 44.26 176.022 44.56C176.322 44.836 176.718 44.98 177.21 44.98C177.75 44.98 178.182 44.824 178.494 44.524C178.77 44.248 178.914 43.912 178.914 43.504C178.914 43.012 178.758 42.652 178.47 42.424C178.182 42.184 177.762 42.076 177.21 42.076H176.61V41.02H177.21C177.714 41.02 178.098 40.912 178.362 40.696C178.614 40.48 178.746 40.156 178.746 39.736C178.746 39.316 178.626 39.004 178.398 38.788C178.146 38.572 177.774 38.464 177.282 38.464C176.778 38.464 176.394 38.584 176.118 38.836C175.83 39.088 175.662 39.472 175.614 39.988H174.234C174.306 39.124 174.618 38.452 175.194 37.972C175.734 37.492 176.43 37.264 177.27 37.264ZM181.381 42.328H187.441V43.456H181.381V42.328ZM190.831 37.432H191.887V46H190.483V39.124C189.967 39.592 189.319 39.94 188.527 40.168V38.776C188.911 38.68 189.319 38.512 189.751 38.272C190.183 38.008 190.543 37.732 190.831 37.432ZM196.569 37.264C197.565 37.264 198.345 37.672 198.909 38.512C199.437 39.304 199.701 40.372 199.701 41.716C199.701 43.06 199.437 44.128 198.909 44.92C198.345 45.748 197.565 46.168 196.569 46.168C195.561 46.168 194.781 45.748 194.229 44.92C193.701 44.128 193.437 43.06 193.437 41.716C193.437 40.372 193.701 39.304 194.229 38.512C194.781 37.672 195.561 37.264 196.569 37.264ZM196.569 38.452C195.885 38.452 195.405 38.824 195.129 39.592C194.937 40.108 194.841 40.816 194.841 41.716C194.841 42.604 194.937 43.312 195.129 43.84C195.405 44.596 195.885 44.98 196.569 44.98C197.241 44.98 197.721 44.596 198.009 43.84C198.201 43.312 198.297 42.604 198.297 41.716C198.297 40.816 198.201 40.108 198.009 39.592C197.721 38.824 197.241 38.452 196.569 38.452ZM200.764 42.328H206.824V43.456H200.764V42.328ZM210.214 37.432H211.27V46H209.866V39.124C209.35 39.592 208.702 39.94 207.91 40.168V38.776C208.294 38.68 208.702 38.512 209.134 38.272C209.566 38.008 209.926 37.732 210.214 37.432ZM216.072 37.264C217.752 37.264 218.7 38.044 218.916 39.604H217.548C217.38 38.812 216.876 38.416 216.06 38.416C215.484 38.416 215.028 38.692 214.692 39.256C214.356 39.784 214.2 40.444 214.2 41.236V41.344H214.26C214.5 40.984 214.8 40.732 215.16 40.564C215.496 40.396 215.88 40.324 216.312 40.324C217.152 40.324 217.824 40.588 218.328 41.128C218.832 41.668 219.084 42.364 219.084 43.204C219.084 44.068 218.784 44.776 218.208 45.328C217.632 45.88 216.912 46.168 216.06 46.168C215.004 46.168 214.2 45.784 213.648 45.028C213.096 44.284 212.832 43.264 212.832 41.956C212.832 40.552 213.12 39.424 213.708 38.56C214.284 37.696 215.076 37.264 216.072 37.264ZM216.012 41.464C215.484 41.464 215.076 41.62 214.788 41.944C214.488 42.256 214.344 42.7 214.344 43.252C214.344 43.792 214.5 44.224 214.812 44.536C215.124 44.848 215.52 45.004 216.012 45.004C216.516 45.004 216.912 44.836 217.224 44.5C217.536 44.164 217.692 43.732 217.692 43.204C217.692 42.676 217.536 42.256 217.248 41.944C216.936 41.62 216.528 41.464 216.012 41.464Z" fill="#4489FF"/>
</svg>
