<svg width="390" height="54" viewBox="0 0 390 54" fill="none" xmlns="http://www.w3.org/2000/svg">
<g opacity="0.9">
<mask id="mask0_7328_51835" style="mask-type:alpha" maskUnits="userSpaceOnUse" x="0" y="0" width="390" height="54">
<path d="M0 0H390V54H0V0Z" fill="#D9D9D9"/>
</mask>
<g mask="url(#mask0_7328_51835)">
<rect x="-8" y="-167" width="722" height="252" fill="url(#paint0_linear_7328_51835)"/>
</g>
</g>
<rect width="390" height="54" fill="black" fill-opacity="0.05"/>
<path d="M32.0097 32.548L26.4542 26.9925L32.0097 21.437C32.1423 21.3044 32.2474 21.1471 32.3192 20.9739C32.3909 20.8007 32.4278 20.615 32.4278 20.4276C32.4278 20.2401 32.3909 20.0545 32.3192 19.8813C32.2474 19.7081 32.1423 19.5507 32.0097 19.4181C31.8771 19.2856 31.7198 19.1804 31.5466 19.1087C31.3734 19.0369 31.1877 19 31.0003 19C30.8128 19 30.6272 19.0369 30.454 19.1087C30.2808 19.1804 30.1234 19.2856 29.9908 19.4181L23.4187 25.9902C23.286 26.1227 23.1807 26.28 23.1088 26.4532C23.037 26.6265 23 26.8121 23 26.9997C23 27.1872 23.037 27.3729 23.1088 27.5461C23.1807 27.7193 23.286 27.8766 23.4187 28.0091L29.9908 34.5812C30.5492 35.1396 31.4513 35.1396 32.0097 34.5812C32.5538 34.0228 32.5681 33.1064 32.0097 32.548Z" fill="white"/>
<path d="M44.66 35.198L48.532 28.356H46.464L46.772 26.244H61.82L60.764 33.746C60.7053 34.1567 60.5073 34.5013 60.17 34.78C59.8473 35.0587 59.4733 35.198 59.048 35.198H54.692L56.672 33.152L57.332 28.356H52.712L48.84 35.198H44.66ZM49.368 25.628H45.188L49.83 19.864L49.412 19.358H54.428L49.368 25.628ZM60.28 19.358L63.58 25.628H59.4L56.1 19.358H60.28ZM75.8983 20.612L85.5563 19.358L85.2483 21.558L79.4623 22.196L78.9563 24.968H85.1603L84.8523 27.058H83.5763L82.4323 35.176H78.9783L80.1223 27.058H78.5823L77.1523 35.176H73.2803L75.8983 20.612ZM69.0783 24.022H66.9663L67.2523 21.932H69.3863L69.6503 20.04L69.1663 19.402H73.1483L72.7963 21.932H74.9083L74.6223 24.022H72.4883L70.9263 35.198H67.5163L69.0783 24.022ZM65.5803 34.406L67.3403 24.528H68.7263L66.9663 34.406H65.5803ZM71.9163 33.152L72.7743 24.528H74.1603L73.3023 33.152H71.9163ZM105.531 28.114L104.607 34.758H94.6186L95.5426 28.114H105.531ZM88.5686 24.396L91.5826 19.93L91.0546 19.38H95.9386L92.5726 24.396H95.2346L91.8686 29.412H94.5526L94.2666 31.502H87.5786L87.8646 29.412L89.8446 26.486H88.2826L88.5686 24.396ZM99.6346 21.074L99.7666 20.194L99.0406 19.358H103.573L103.331 21.074H106.939L106.653 23.164H103.045L102.781 24.946H106.015L105.707 27.036H95.7186L96.0266 24.946H99.0846L99.3486 23.164H95.8066L96.0926 21.074H99.6346ZM93.8486 34.362L87.0946 34.802L87.3806 32.712L94.1566 32.272L93.8486 34.362ZM101.571 32.69L101.923 30.16H98.5786L98.2266 32.69H101.571ZM108.829 34.824L113.207 29.39H110.017L110.303 27.3H116.991L117.123 26.464H111.271L112.085 20.612L111.359 19.776H128.079L127.155 26.464H121.303L121.171 27.3H127.859L127.573 29.39H124.361L127.221 34.824H123.041L120.731 30.446L120.071 35.198H115.891L116.551 30.424L113.009 34.824H108.829ZM117.343 24.792L117.475 23.956H115.363L115.253 24.792H117.343ZM122.007 21.448L121.875 22.284H123.965L124.097 21.448H122.007ZM115.605 22.284H117.695L117.827 21.448H115.737L115.605 22.284ZM123.613 24.792L123.723 23.956H121.655L121.523 24.792H123.613Z" fill="white"/>
<rect x="346" y="11" width="32" height="32" rx="16" fill="white" fill-opacity="0.2"/>
<path d="M368.5 23.27C368.5 22.8255 368.5 22.6033 368.411 22.4334C368.333 22.2841 368.209 22.1627 368.056 22.0865C367.883 22 367.655 22 367.2 22H356.8C356.345 22 356.118 22 355.944 22.0865C355.791 22.1626 355.666 22.284 355.589 22.4334C355.5 22.6033 355.5 22.8255 355.5 23.27V23.855C355.5 24.0495 355.5 24.1463 355.523 24.2376C355.543 24.3189 355.576 24.3966 355.62 24.4678C355.67 24.5472 355.74 24.6162 355.88 24.7536L359.994 28.7716C360.135 28.9089 360.205 28.9779 360.255 29.0573C360.299 29.1288 360.333 29.2066 360.352 29.2875C360.375 29.378 360.375 29.474 360.375 29.6638V33.4389C360.375 34.1191 360.375 34.4597 360.521 34.6644C360.585 34.753 360.666 34.828 360.76 34.8848C360.854 34.9416 360.959 34.9789 361.069 34.9947C361.322 35.0312 361.634 34.8796 362.256 34.5748L362.906 34.2572C363.168 34.1302 363.298 34.0667 363.393 33.9715C363.477 33.8874 363.541 33.786 363.58 33.6746C363.625 33.5492 363.625 33.4063 363.625 33.1214V29.6701C363.625 29.4756 363.625 29.3788 363.648 29.2875C363.668 29.2062 363.701 29.1286 363.745 29.0573C363.794 28.9779 363.865 28.9097 364.003 28.7747L364.006 28.7716L368.12 24.7536C368.259 24.6162 368.329 24.5472 368.38 24.4678C368.425 24.3966 368.457 24.3189 368.477 24.2376C368.5 24.1479 368.5 24.0511 368.5 23.8614V23.27Z" stroke="white" stroke-width="1.5" stroke-linecap="round" stroke-linejoin="round"/>
<defs>
<linearGradient id="paint0_linear_7328_51835" x1="-320.5" y1="-108" x2="353" y2="85" gradientUnits="userSpaceOnUse">
<stop offset="0.0260417" stop-color="#142D59"/>
<stop offset="0.852863" stop-color="#0E5EE6"/>
<stop offset="1" stop-color="#0D67FF"/>
</linearGradient>
</defs>
</svg>
