<svg width="72" height="72" viewBox="0 0 72 72" fill="none" xmlns="http://www.w3.org/2000/svg">
<g clip-path="url(#clip0_7575_51168)">
<g filter="url(#filter0_d_7575_51168)">
<path d="M24.125 28.2812C24.125 25.9192 25.0633 23.6538 26.7336 21.9836C28.4038 20.3133 30.6691 19.375 33.0312 19.375C35.3933 19.375 37.6587 20.3133 39.3289 21.9836C40.9992 23.6538 41.9375 25.9192 41.9375 28.2812C41.9375 28.5962 41.8124 28.8982 41.5897 29.1209C41.367 29.3436 41.0649 29.4688 40.75 29.4688C40.435 29.4688 40.133 29.3436 39.9103 29.1209C39.6876 28.8982 39.5625 28.5962 39.5625 28.2812C39.5625 26.5491 38.8744 24.8878 37.6495 23.663C36.4247 22.4381 34.7634 21.75 33.0312 21.75C31.299 21.75 29.6378 22.4381 28.4129 23.663C27.1881 24.8878 26.5 26.5491 26.5 28.2812C26.5 28.5962 26.3749 28.8982 26.1522 29.1209C25.9295 29.3436 25.6274 29.4688 25.3125 29.4688C24.9975 29.4688 24.6955 29.3436 24.4728 29.1209C24.2501 28.8982 24.125 28.5962 24.125 28.2812ZM44.9062 34.8125C44.2135 34.8117 43.5317 34.9848 42.9231 35.3157C42.7413 34.753 42.4414 34.2355 42.0436 33.7979C41.6458 33.3603 41.1592 33.0127 40.6163 32.7782C40.0734 32.5437 39.4867 32.4278 38.8954 32.4381C38.3041 32.4485 37.7218 32.5849 37.1875 32.8383V28.2812C37.1875 27.1789 36.7496 26.1218 35.9701 25.3423C35.1907 24.5629 34.1335 24.125 33.0312 24.125C31.9289 24.125 30.8718 24.5629 30.0923 25.3423C29.3129 26.1218 28.875 27.1789 28.875 28.2812V40.1562L28.308 39.2463C27.7535 38.2934 26.8431 37.5998 25.7772 37.3181C24.7113 37.0364 23.5772 37.1896 22.6243 37.7441C21.6714 38.2986 20.9778 39.209 20.6961 40.2749C20.4143 41.3408 20.5676 42.4749 21.1221 43.4278L25.4743 50.8497C25.5473 50.9942 25.6491 51.1223 25.7734 51.2261C25.8977 51.3299 26.0419 51.4071 26.1972 51.4531C26.3525 51.499 26.5155 51.5128 26.6763 51.4934C26.8371 51.474 26.9922 51.422 27.1321 51.3405C27.272 51.259 27.3938 51.1497 27.4899 51.0194C27.586 50.8891 27.6545 50.7405 27.6911 50.5827C27.7277 50.425 27.7316 50.2614 27.7027 50.1021C27.6737 49.9428 27.6125 49.791 27.5227 49.6562L23.175 42.2344C23.0529 42.0316 22.9725 41.8066 22.9384 41.5724C22.9042 41.3382 22.9171 41.0996 22.9763 40.8705C23.0354 40.6413 23.1396 40.4263 23.2828 40.2379C23.426 40.0494 23.6053 39.8914 23.8102 39.7731C24.0152 39.6548 24.2416 39.5784 24.4764 39.5486C24.7111 39.5187 24.9495 39.536 25.1775 39.5993C25.4056 39.6626 25.6187 39.7707 25.8045 39.9173C25.9902 40.0639 26.1449 40.2461 26.2595 40.4531L26.2803 40.4873L29.0531 44.9404C29.1892 45.1601 29.3933 45.3293 29.6344 45.4225C29.8755 45.5157 30.1403 45.5276 30.3888 45.4566C30.6373 45.3856 30.8558 45.2355 31.0113 45.029C31.1667 44.8225 31.2505 44.5709 31.25 44.3125V28.2812C31.25 27.8088 31.4377 27.3558 31.7717 27.0217C32.1057 26.6877 32.5588 26.5 33.0312 26.5C33.5037 26.5 33.9567 26.6877 34.2908 27.0217C34.6248 27.3558 34.8125 27.8088 34.8125 28.2812V38.375C34.8125 38.6899 34.9376 38.992 35.1603 39.2147C35.383 39.4374 35.685 39.5625 36 39.5625C36.3149 39.5625 36.617 39.4374 36.8397 39.2147C37.0624 38.992 37.1875 38.6899 37.1875 38.375V36.5938C37.1875 36.1213 37.3752 35.6683 37.7092 35.3342C38.0433 35.0002 38.4963 34.8125 38.9687 34.8125C39.4412 34.8125 39.8942 35.0002 40.2283 35.3342C40.5623 35.6683 40.75 36.1213 40.75 36.5938V39.5625C40.75 39.8774 40.8751 40.1795 41.0978 40.4022C41.3205 40.6249 41.6225 40.75 41.9375 40.75C42.2524 40.75 42.5545 40.6249 42.7772 40.4022C42.9999 40.1795 43.125 39.8774 43.125 39.5625V38.9688C43.125 38.4963 43.3127 38.0433 43.6467 37.7092C43.9808 37.3752 44.4338 37.1875 44.9062 37.1875C45.3787 37.1875 45.8317 37.3752 46.1658 37.7092C46.4998 38.0433 46.6875 38.4963 46.6875 38.9688V44.3125C46.6875 47.5202 45.6336 49.7008 45.6247 49.7186C45.484 50.0003 45.461 50.3263 45.5606 50.625C45.6603 50.9237 45.8744 51.1705 46.1561 51.3113C46.3208 51.3946 46.5029 51.4379 46.6875 51.4375C46.9081 51.4377 47.1244 51.3764 47.3121 51.2605C47.4998 51.1446 47.6516 50.9787 47.7503 50.7814C47.8052 50.673 49.064 48.1095 49.064 44.3125V38.9688C49.064 38.4228 48.9564 37.8822 48.7475 37.3779C48.5385 36.8735 48.2322 36.4153 47.8461 36.0293C47.46 35.6434 47.0017 35.3372 46.4972 35.1284C45.9928 34.9197 45.4522 34.8123 44.9062 34.8125Z" fill="white"/>
</g>
</g>
<defs>
<filter id="filter0_d_7575_51168" x="18.558" y="19.375" width="34.5059" height="38.127" filterUnits="userSpaceOnUse" color-interpolation-filters="sRGB">
<feFlood flood-opacity="0" result="BackgroundImageFix"/>
<feColorMatrix in="SourceAlpha" type="matrix" values="0 0 0 0 0 0 0 0 0 0 0 0 0 0 0 0 0 0 127 0" result="hardAlpha"/>
<feOffset dx="1" dy="3"/>
<feGaussianBlur stdDeviation="1.5"/>
<feComposite in2="hardAlpha" operator="out"/>
<feColorMatrix type="matrix" values="0 0 0 0 0 0 0 0 0 0 0 0 0 0 0 0 0 0 0.15 0"/>
<feBlend mode="normal" in2="BackgroundImageFix" result="effect1_dropShadow_7575_51168"/>
<feBlend mode="normal" in="SourceGraphic" in2="effect1_dropShadow_7575_51168" result="shape"/>
</filter>
<clipPath id="clip0_7575_51168">
<rect width="38" height="38" fill="white" transform="translate(17 17)"/>
</clipPath>
</defs>
</svg>
