<svg width="64" height="222" viewBox="0 0 64 222" fill="none" xmlns="http://www.w3.org/2000/svg">
<mask id="mask0_9218_27567" style="mask-type:alpha" maskUnits="userSpaceOnUse" x="0" y="0" width="64" height="222">
<rect width="64" height="222" fill="#D9D9D9"/>
</mask>
<g mask="url(#mask0_9218_27567)">
<mask id="path-2-inside-1_9218_27567" fill="white">
<path fill-rule="evenodd" clip-rule="evenodd" d="M64 169H0V210C0 212.209 1.79086 214 4 214H22.4L32 222L41.6 214H60C62.2091 214 64 212.209 64 210V169Z"/>
</mask>
<path fill-rule="evenodd" clip-rule="evenodd" d="M64 169H0V210C0 212.209 1.79086 214 4 214H22.4L32 222L41.6 214H60C62.2091 214 64 212.209 64 210V169Z" fill="#F3F3F3"/>
<path d="M0 169V168H-1V169H0ZM64 169H65V168H64V169ZM22.4 214L23.0402 213.232L22.762 213H22.4V214ZM32 222L31.3598 222.768L32 223.302L32.6402 222.768L32 222ZM41.6 214V213H41.2379L40.9598 213.232L41.6 214ZM0 170H64V168H0V170ZM1 210V169H-1V210H1ZM4 213C2.34315 213 1 211.657 1 210H-1C-1 212.761 1.23858 215 4 215V213ZM22.4 213H4V215H22.4V213ZM21.7598 214.768L31.3598 222.768L32.6402 221.232L23.0402 213.232L21.7598 214.768ZM32.6402 222.768L42.2402 214.768L40.9598 213.232L31.3598 221.232L32.6402 222.768ZM60 213H41.6V215H60V213ZM63 210C63 211.657 61.6569 213 60 213V215C62.7614 215 65 212.761 65 210H63ZM63 169V210H65V169H63Z" fill="#D9D9D9" mask="url(#path-2-inside-1_9218_27567)"/>
<path d="M0.5 4C0.5 2.067 2.067 0.5 4 0.5H60C61.933 0.5 63.5 2.067 63.5 4V169.5H0.5V4Z" stroke="#D9D9D9"/>
<path d="M22.2729 178.432H23.7489L25.4169 185.104H25.4649L27.2169 178.432H28.5849L30.3369 185.104H30.3849L32.0529 178.432H33.5289L31.0569 187H29.6649L27.9249 180.388H27.8769L26.1369 187H24.7329L22.2729 178.432ZM37.3238 178.264C38.1398 178.264 38.8238 178.492 39.3518 178.972C39.8678 179.452 40.1318 180.064 40.1318 180.82C40.1318 181.564 39.8438 182.236 39.2918 182.848C38.9558 183.196 38.3678 183.652 37.5158 184.228C36.5918 184.84 36.0398 185.38 35.8598 185.848H40.1438V187H34.2398C34.2398 186.148 34.5158 185.404 35.0918 184.756C35.4038 184.384 36.0518 183.868 37.0238 183.196C37.5998 182.788 38.0078 182.464 38.2478 182.212C38.6318 181.78 38.8358 181.312 38.8358 180.808C38.8358 180.328 38.7038 179.968 38.4398 179.728C38.1758 179.488 37.7798 179.368 37.2758 179.368C36.7358 179.368 36.3278 179.548 36.0518 179.92C35.7638 180.28 35.6198 180.796 35.5958 181.492H34.2878C34.2998 180.532 34.5758 179.764 35.1158 179.188C35.6678 178.564 36.4118 178.264 37.3238 178.264Z" fill="#4A4A4A"/>
<path d="M22.2371 195.432H23.2211V204H21.9131V197.004C21.3971 197.496 20.7371 197.856 19.9451 198.084V196.788C20.3291 196.692 20.7251 196.524 21.1571 196.284C21.5891 196.02 21.9491 195.744 22.2371 195.432ZM27.9516 195.264C28.9596 195.264 29.7396 195.684 30.2916 196.536C30.7956 197.328 31.0476 198.384 31.0476 199.716C31.0476 201.036 30.7956 202.104 30.2916 202.896C29.7396 203.736 28.9596 204.168 27.9516 204.168C26.9436 204.168 26.1636 203.736 25.6116 202.896C25.1076 202.104 24.8556 201.048 24.8556 199.716C24.8556 198.372 25.1076 197.316 25.6116 196.536C26.1636 195.684 26.9436 195.264 27.9516 195.264ZM27.9516 196.368C27.2436 196.368 26.7516 196.752 26.4636 197.532C26.2476 198.06 26.1516 198.792 26.1516 199.716C26.1516 200.628 26.2476 201.36 26.4636 201.9C26.7516 202.668 27.2436 203.064 27.9516 203.064C28.6476 203.064 29.1516 202.668 29.4396 201.9C29.6436 201.36 29.7516 200.628 29.7516 199.716C29.7516 198.792 29.6436 198.06 29.4396 197.532C29.1516 196.752 28.6476 196.368 27.9516 196.368ZM38.1229 199.272H36.4909V198.228C37.8349 197.46 39.0709 196.656 40.2109 195.804H36.6589V194.76H41.9029V195.744C40.8349 196.644 39.6709 197.496 38.4229 198.288H42.7909C42.7069 201.18 42.5629 203.028 42.3469 203.844C42.1309 204.66 41.5549 205.068 40.6189 205.092C40.2229 205.092 39.8389 205.08 39.4669 205.056L39.1549 203.952C39.5989 204 40.0309 204.024 40.4629 204.024C40.8709 204.012 41.1469 203.82 41.3149 203.436C41.4589 203.112 41.5669 201.72 41.6389 199.272H41.0269C40.7389 200.688 40.3189 201.792 39.7669 202.608C39.1429 203.52 38.2069 204.336 36.9589 205.056L36.2629 204.156C37.3669 203.544 38.2189 202.86 38.7949 202.104C39.2989 201.408 39.6709 200.46 39.9349 199.272H39.2029C38.7709 200.772 38.0149 201.948 36.9469 202.788L36.2389 201.9C37.1149 201.216 37.7389 200.34 38.1229 199.272ZM32.1229 197.388H33.4669V194.448H34.6189V197.388H36.0229V198.48H34.6189V202.356C35.0989 202.2 35.5549 202.032 36.0109 201.864V203.052C34.8589 203.496 33.6109 203.868 32.2909 204.168L31.9909 202.968C32.4949 202.884 32.9869 202.788 33.4669 202.668V198.48H32.1229V197.388Z" fill="#4A4A4A"/>
</g>
</svg>
