<svg width="14" height="15" viewBox="0 0 14 15" fill="none" xmlns="http://www.w3.org/2000/svg">
<g id="ic / chveron / small / right">
<path id="Union" d="M4.96749 10.41L7.87749 7.49999L4.96749 4.58999C4.89805 4.52056 4.84297 4.43812 4.80539 4.3474C4.76782 4.25668 4.74847 4.15944 4.74847 4.06124C4.74847 3.96304 4.76782 3.86581 4.80539 3.77508C4.84297 3.68436 4.89805 3.60193 4.96749 3.53249C5.03693 3.46306 5.11936 3.40798 5.21008 3.3704C5.30081 3.33282 5.39804 3.31348 5.49624 3.31348C5.59444 3.31348 5.69167 3.33282 5.7824 3.3704C5.87312 3.40798 5.95555 3.46306 6.02499 3.53249L9.46749 6.97499C9.75999 7.26749 9.75999 7.73999 9.46749 8.03249L6.02499 11.475C5.9556 11.5445 5.87319 11.5997 5.78246 11.6373C5.69173 11.675 5.59447 11.6943 5.49624 11.6943C5.39801 11.6943 5.30075 11.675 5.21002 11.6373C5.11929 11.5997 5.03687 11.5445 4.96749 11.475C4.68249 11.1825 4.67499 10.7025 4.96749 10.41Z" fill="#065FF5"/>
</g>
</svg>
