<svg width="90" height="24" viewBox="0 0 90 24" fill="none" xmlns="http://www.w3.org/2000/svg">
<g clip-path="url(#clip0_11487_71655)">
<path d="M12.0045 24C5.35236 23.9848 0.103693 18.6468 0.00154655 12.1983C-0.104727 5.49526 5.27988 0.0647213 11.8779 0.000517128C18.5197 -0.0639449 23.9587 5.27016 24 11.8961C24.0418 18.594 18.7072 23.9639 12.0045 24Z" fill="white"/>
<path d="M15.1533 3.56321C15.119 3.64159 15.0903 3.72256 15.0622 3.80326C14.6864 4.88287 14.2933 5.95655 13.9386 7.04364C13.806 7.44975 13.8592 7.80945 14.113 8.15832C14.673 8.92825 15.242 9.69149 15.8198 10.448C16.0687 10.7739 16.2975 11.1189 16.6292 11.3791C16.645 11.3915 16.6705 11.4129 16.7071 11.4129C16.7938 11.3972 16.8294 11.3822 16.9137 11.3755C17.0288 11.3662 17.1433 11.3474 17.2578 11.3311C18.2762 11.187 19.2946 11.0434 20.313 10.898C20.5794 10.8598 20.8508 10.8389 21.0489 10.6136C21.5044 10.095 21.9432 9.56282 22.3445 9.00148C22.4444 8.86199 22.5019 8.69825 22.4397 8.51673C21.6875 6.31316 20.3728 4.52111 18.5091 3.12641C18.325 2.98846 18.1323 2.93354 17.9117 2.94102C17.8431 2.94334 17.7743 2.94514 17.7059 2.95107C17.0438 3.00935 16.3847 3.09856 15.7215 3.14498C15.4471 3.16406 15.2619 3.31516 15.153 3.56321H15.1533Z" fill="#F3CC00"/>
<path d="M12.335 7.37111C12.6086 7.31644 12.7982 7.16148 12.8963 6.89796C13.2174 6.03545 13.5236 5.16754 13.8231 4.2973C13.9636 3.88861 14.1212 3.48534 14.2368 3.06865C14.2835 2.90079 14.2579 2.74944 14.1295 2.60582C13.7524 2.18372 13.3613 1.77348 12.9925 1.34494C12.7706 1.08735 12.5333 0.985755 12.1964 0.996842C11.6328 1.01541 11.0922 1.03681 10.574 1.33385C9.37891 2.01869 8.47481 2.94927 7.95144 4.23103C7.63185 5.0136 7.48869 5.8333 7.46676 6.61716C7.41492 7.2146 7.58284 7.78367 7.7309 8.20783C7.75437 8.27487 7.79177 8.27822 7.84878 8.26636C8.02934 8.22923 8.21016 8.19519 8.39098 8.15909C9.70573 7.8966 11.0205 7.63386 12.3352 7.37111H12.335Z" fill="#F3CC00"/>
<path d="M21.0809 12.2429C20.9751 12.0348 20.7056 11.8842 20.4742 11.9085C20.3207 11.9245 20.1678 11.9456 20.0148 11.9657C19.1437 12.0802 18.2734 12.2003 17.4065 12.3437C17.1882 12.3798 16.9625 12.3842 16.7595 12.4956C16.5576 12.6065 16.4428 12.7898 16.3228 12.9739C16.2764 13.0451 16.2769 13.0819 16.3422 13.1415C16.7778 13.5373 17.1364 13.9945 17.4044 14.5194C17.8024 15.2989 17.9902 16.1258 17.9391 17.001C17.8942 17.7701 17.676 18.4993 17.4057 19.2154C17.2254 19.6924 17.0004 20.1488 16.7536 20.6062C16.8121 20.6157 16.8617 20.6261 16.9117 20.6315C17.3804 20.6841 17.8493 20.7323 18.3175 20.7893C18.4937 20.8107 18.6464 20.7645 18.78 20.6593C20.4801 19.3177 21.6878 17.6244 22.4065 15.582C22.4787 15.377 22.4666 15.1775 22.3791 14.982C21.9662 14.0597 21.5393 13.1438 21.0809 12.2432V12.2429Z" fill="#F3CC00"/>
<path d="M15.4997 12.3592C15.606 12.1155 15.6163 11.8783 15.4535 11.6532C14.7328 10.6556 13.9873 9.67653 13.2429 8.69645C13.025 8.40972 12.7766 8.31122 12.419 8.38677C11.321 8.61858 10.2182 8.82924 9.1176 9.04867C8.82844 9.10617 8.53954 9.16547 8.25116 9.22375C8.25374 9.24309 8.25245 9.25288 8.25632 9.25959C8.27386 9.28898 8.29217 9.31812 8.31152 9.34623C9.11502 10.5161 10.251 11.1233 11.6354 11.3118C12.0009 11.3616 12.3716 11.3585 12.7353 11.4245C13.6678 11.5931 14.5453 11.9105 15.3568 12.402C15.4352 12.4494 15.468 12.4319 15.4997 12.3594V12.3592Z" fill="#F3CC00"/>
<path d="M22.848 10.1546C22.8229 10.1698 22.8075 10.176 22.7961 10.1863C22.4694 10.4857 22.1886 10.8258 21.9279 11.1824C21.8426 11.2992 21.8284 11.4322 21.897 11.5707C21.9934 11.7661 22.0847 11.9644 22.1742 12.1632C22.3941 12.6516 22.653 13.1222 22.8665 13.6213C23.0571 12.4708 23.0388 11.3193 22.848 10.1548V10.1546Z" fill="#F3CC00"/>
<path d="M16.5113 1.96609C15.8232 1.65487 15.1218 1.42255 14.3748 1.25882C14.8124 2.11513 15.6702 2.32785 16.5113 1.96609Z" fill="#F3CC00"/>
<path d="M17.004 21.6613C16.7404 21.6296 16.4772 21.5953 16.2139 21.5613C16.174 21.5561 16.1394 21.5584 16.1123 21.5961C15.9048 21.8844 15.6773 22.1564 15.4218 22.4395C15.7323 22.3743 16.767 21.9478 17.0277 21.7838C17.0519 21.7686 17.0847 21.7608 17.0751 21.7188C17.0661 21.6791 17.0439 21.6662 17.004 21.6613Z" fill="#F3CC00"/>
<path d="M15.795 14.0027C14.8803 13.0943 13.7503 12.6126 12.4972 12.3955C12.0499 12.3179 11.592 12.3257 11.1442 12.2401C9.89321 12.0013 8.81165 11.4534 7.95063 10.5027C7.85596 10.398 7.74995 10.3204 7.62794 10.2562C7.427 10.1507 7.22787 10.0414 7.0277 9.93386C6.75221 9.7856 6.47905 9.63295 6.20073 9.49011C5.95129 9.36221 5.77537 9.4076 5.67503 9.63476C5.45501 10.1321 5.24169 10.6324 5.03404 11.1349C4.94763 11.344 4.99948 11.4871 5.19345 11.6073C5.8071 11.9881 6.30391 12.4946 6.74886 13.0549C7.33079 13.7879 7.7582 14.6146 8.1771 15.4459C9.27182 17.618 10.7127 19.5163 12.6174 21.0471C13.1173 21.4489 13.6406 21.8106 14.2411 22.0496C14.3247 22.0829 14.3809 22.0765 14.4444 22.0104C14.6255 21.8214 14.8071 21.6332 14.9729 21.4308C15.7437 20.4915 16.3047 19.4387 16.6648 18.2796C16.8201 17.7794 16.9411 17.2709 16.9403 16.6614C16.9168 15.679 16.5526 14.7546 15.795 14.0025V14.0027Z" fill="#4489FF"/>
<path d="M9.64225 19.3693C8.66438 18.2098 7.86346 16.9352 7.19203 15.5766C6.85747 14.8998 6.49454 14.2389 6.02431 13.643C5.64977 13.1683 5.23164 12.7421 4.71395 12.4211C4.63863 12.3744 4.59504 12.36 4.58884 12.4734C4.58575 12.5325 4.56486 12.5905 4.55325 12.6493C4.35154 13.6629 4.20322 14.6842 4.13486 15.7156C4.08276 16.5036 4.07682 17.2929 4.12867 18.0816C4.17201 18.7396 4.32729 19.368 4.65127 19.9461C4.78901 20.1921 4.93423 20.4342 5.16277 20.6155C5.87831 21.1835 6.64957 21.66 7.4848 22.029C9.14829 22.7639 10.8819 23.1158 12.7048 22.9506C12.9852 22.925 13.261 22.8662 13.5646 22.7654C13.2233 22.5991 12.9246 22.4398 12.6527 22.2373C11.5327 21.404 10.5407 20.435 9.64199 19.3693H9.64225Z" fill="#4489FF"/>
<path d="M3.36928 11.7991C2.73732 11.663 2.13321 11.7481 1.5598 12.0446C1.35499 12.1506 1.18036 12.2939 1.06351 12.4989C1.02843 12.5606 1.01089 12.6219 1.01682 12.6944C1.04752 13.0747 1.08415 13.4543 1.14863 13.8305C1.3942 15.262 1.89848 16.5959 2.6687 17.8284C2.8957 18.1915 3.14281 18.5401 3.4379 18.9029C3.433 18.8294 3.43351 18.7951 3.42835 18.7616C3.34762 18.2492 3.27539 17.7361 3.24521 17.2176C3.19311 16.3202 3.222 15.4253 3.31383 14.5321C3.39198 13.773 3.52276 13.0219 3.68088 12.2754C3.73866 12.0034 3.64167 11.8579 3.36903 11.7991H3.36928Z" fill="#4489FF"/>
<path d="M4.22075 10.6716C4.43485 10.1762 4.64946 9.68091 4.86484 9.1861C4.98221 8.91691 4.94584 8.81944 4.68428 8.68227C4.29323 8.47754 3.90348 8.27048 3.5145 8.06214C3.08399 7.83163 2.65528 7.59724 2.22451 7.36698C2.07336 7.28602 2.05427 7.2935 1.98514 7.44356C1.65652 8.15858 1.41121 8.90144 1.24561 9.6706C1.11277 10.2876 1.03074 10.9111 1.0083 11.5707C1.09858 11.5137 1.16616 11.4701 1.23478 11.4278C1.59306 11.2076 1.95315 10.9921 2.37077 10.8977C2.82553 10.7948 3.27538 10.8616 3.72472 10.9348C3.99892 10.9794 4.11241 10.9219 4.22075 10.6713V10.6716Z" fill="#4489FF"/>
<path d="M2.64085 6.53259C3.45208 6.9601 4.26177 7.39045 5.06347 7.83575C5.37016 8.00593 5.56878 7.93554 5.72149 7.61813C5.86181 7.32599 6.04392 7.05989 6.24898 6.81416C6.40298 6.62954 6.49506 6.44389 6.48191 6.20022C6.47675 6.10533 6.4525 6.03958 6.38492 5.9777C6.27452 5.87688 6.15019 5.79308 6.05939 5.6688C5.67763 5.14614 5.5012 4.55489 5.47076 3.91646C5.4589 3.66944 5.46896 3.42165 5.46896 3.15014C5.41169 3.19216 5.37687 3.21692 5.34308 3.2427C4.22901 4.09231 3.30918 5.11674 2.58049 6.3129C2.4982 6.44776 2.4982 6.45755 2.64085 6.53285V6.53259Z" fill="#4489FF"/>
<path d="M6.56995 3.62251C6.61043 3.67202 6.65401 3.72127 6.70403 3.75994C6.85229 3.87443 7.02505 3.83085 7.09905 3.66454C7.30997 3.18907 7.57298 2.7448 7.88832 2.33121C8.09615 2.05892 8.32796 1.80829 8.57446 1.56359C8.55693 1.55947 8.54764 1.55379 8.54094 1.55612C7.71634 1.82711 6.93712 2.19506 6.19864 2.6512C6.14372 2.68498 6.13934 2.71901 6.15326 2.7778C6.2283 3.09134 6.36625 3.37291 6.56969 3.62225L6.56995 3.62251Z" fill="#4489FF"/>
<path d="M6.88307 8.80062C6.76575 8.52524 6.68839 8.25785 6.6015 7.98531C6.26862 8.33933 6.35113 8.5799 6.88307 8.80062Z" fill="#4489FF"/>
</g>
<path d="M79.9129 7.456L77.6029 12.802L78.3069 17.862H76.3709L76.1289 15.86L75.3809 17.884H73.5109L73.2249 19.886H69.8369L71.8829 5.322L71.2449 4.486H88.7569L86.7769 18.632C86.7182 18.9987 86.5349 19.3067 86.2269 19.556C85.9189 19.7907 85.5889 19.908 85.2369 19.908H81.4089L83.5209 17.906V17.862H81.5409L81.2989 15.882L80.5289 17.884H78.3069L80.6389 12.648L79.9349 7.456H82.0249L82.2009 9.612L82.9049 7.456H84.9289L82.8169 12.758L83.5429 17.752L85.1049 6.576H75.0949L74.9629 7.456H76.9429L77.0529 9.612L77.7569 7.456H79.9129ZM73.6209 17.004L75.5129 12.648L74.9409 7.588L73.6209 17.004Z" fill="white"/>
<path d="M57.8705 19.886L59.6085 17.906L60.9065 8.68797H56.8365L57.1445 6.59797H61.1925L61.4345 4.92597L60.7965 4.11197H64.9985L64.6465 6.59797H68.7825L68.4745 8.68797H64.3605L62.9965 18.5C62.9232 18.9253 62.7472 19.2626 62.4685 19.512C62.1898 19.7613 61.8598 19.886 61.4785 19.886H57.8705ZM51.7545 10.184L52.2825 6.44397H51.2705L51.5345 4.48597H56.8585L56.5945 6.44397H55.6045L55.0765 10.184H56.1325L55.8025 12.406H54.7685L54.1965 16.52L55.1865 16.322L54.9005 18.456L49.3125 19.534L49.5985 17.444L50.7865 17.202L51.4465 12.406H50.3465L50.6765 10.184H51.7545ZM55.3405 19.072L57.0565 13.946H59.8945L58.1785 19.072H55.3405ZM64.6025 19.094L63.8325 13.968H66.6705L67.4405 19.094H64.6025ZM64.0085 12.846L65.2405 9.50197H68.0785L66.8465 12.846H64.0085ZM57.2105 12.846L56.9025 9.50197H59.7405L60.0485 12.846H57.2105ZM65.4605 6.02597L65.2845 4.44197H68.3865L68.5625 6.02597H65.4605Z" fill="white"/>
<path d="M30.702 12.494H46.3L45.288 19.666H29.69L30.702 12.494ZM34.134 4.904H39.986L39.656 7.148H36.752L36.686 7.588H39.634L39.348 9.656H37.896L39.282 12.032H35.52L34.596 10.47L33.276 12.054H29.25L31.582 9.656H29.316L29.602 7.588H33.21L33.276 7.148H32.638L32.572 7.258H29.602L31.472 4.398L30.9 4.09H34.684L34.134 4.904ZM40.448 4.662H48.368L47.334 11.966H39.414L40.448 4.662ZM34.156 15.266H42.23L42.362 14.386H34.288L34.156 15.266ZM41.878 17.752L41.988 16.96H33.914L33.804 17.752H41.878ZM44.54 9.92L44.958 6.818H43.44L43.022 9.92H44.54Z" fill="white"/>
<defs>
<clipPath id="clip0_11487_71655">
<rect width="24" height="24" fill="white"/>
</clipPath>
</defs>
</svg>
