<svg width="20" height="14" viewBox="0 0 20 14" fill="none" xmlns="http://www.w3.org/2000/svg">
<rect width="20" height="14" fill="#F5F5F5"/>
<path d="M-6245 -1551C-6245 -1552.1 -6244.1 -1553 -6243 -1553H7533C7534.1 -1553 7535 -1552.1 7535 -1551V8461C7535 8462.1 7534.1 8463 7533 8463H-6243C-6244.1 8463 -6245 8462.1 -6245 8461V-1551Z" fill="#484848"/>
<rect width="390" height="138" transform="translate(-359 -12)" fill="white"/>
<path d="M19.6035 12.4444V1.55556C19.6035 1.143 19.4444 0.747335 19.1613 0.455612C18.8781 0.163888 18.4941 0 18.0936 0H1.98838C1.58794 0 1.2039 0.163888 0.920746 0.455612C0.637591 0.747335 0.478516 1.143 0.478516 1.55556V12.4444C0.478516 12.857 0.637591 13.2527 0.920746 13.5444C1.2039 13.8361 1.58794 14 1.98838 14H18.0936C18.4941 14 18.8781 13.8361 19.1613 13.5444C19.4444 13.2527 19.6035 12.857 19.6035 12.4444Z" fill="#E6EFFE"/>
<path d="M13.7294 6.10896C14.4575 6.47987 14.4575 7.52012 13.7294 7.89104L8.43243 10.5895C7.76712 10.9284 6.97852 10.4451 6.97852 9.69842L6.97852 4.30158C6.97852 3.55491 7.76712 3.07161 8.43244 3.41054L13.7294 6.10896Z" fill="#4489FF"/>
<path d="M-6243 -1552H7533V-1554H-6243V-1552ZM7534 -1551V8461H7536V-1551H7534ZM7533 8462H-6243V8464H7533V8462ZM-6244 8461V-1551H-6246V8461H-6244ZM-6243 8462C-6243.55 8462 -6244 8461.55 -6244 8461H-6246C-6246 8462.66 -6244.66 8464 -6243 8464V8462ZM7534 8461C7534 8461.55 7533.55 8462 7533 8462V8464C7534.66 8464 7536 8462.66 7536 8461H7534ZM7533 -1552C7533.55 -1552 7534 -1551.55 7534 -1551H7536C7536 -1552.66 7534.66 -1554 7533 -1554V-1552ZM-6243 -1554C-6244.66 -1554 -6246 -1552.66 -6246 -1551H-6244C-6244 -1551.55 -6243.55 -1552 -6243 -1552V-1554Z" fill="black" fill-opacity="0.1"/>
</svg>
