<svg width="40" height="40" viewBox="0 0 40 40" fill="none" xmlns="http://www.w3.org/2000/svg">
<rect width="40" height="40" rx="20" fill="url(#paint0_linear_9175_11639)"/>
<path d="M14.4208 6.20556C14.1888 5.63213 14.4648 4.97522 15.053 4.78396C18.2626 3.7404 21.7307 3.73579 24.9577 4.78746C28.5407 5.95515 31.5966 8.3501 33.5868 11.5502C35.577 14.7504 36.3738 18.5503 35.8367 22.2803C35.3529 25.6397 33.8152 28.7483 31.46 31.1655C31.0283 31.6086 30.3171 31.5656 29.9053 31.104C29.4936 30.6424 29.5378 29.9373 29.9644 29.4894C31.9285 27.4271 33.211 24.7981 33.6195 21.9611C34.0814 18.7532 33.3962 15.4853 31.6847 12.7332C29.9731 9.98108 27.345 7.92143 24.2636 6.91722C21.5384 6.02908 18.6132 6.01689 15.895 6.86656C15.3046 7.05111 14.6527 6.77899 14.4208 6.20556Z" fill="white"/>
<path d="M27.2023 33.0208C27.5017 33.5621 27.307 34.2475 26.7461 34.5083C23.9522 35.8075 20.8342 36.2756 17.7674 35.8435C14.7006 35.4113 11.8334 34.0998 9.50733 32.0791C9.04036 31.6734 9.04266 30.9609 9.47997 30.5235C9.91729 30.086 10.6237 30.0898 11.0952 30.4901C13.0741 32.17 15.4946 33.2611 18.08 33.6254C20.6654 33.9897 23.2931 33.61 25.6591 32.5424C26.2229 32.288 26.9029 32.4795 27.2023 33.0208Z" fill="white"/>
<path d="M7.33761 27.8153C6.81124 28.1401 6.11734 27.9784 5.83006 27.4306C4.2835 24.4815 3.69131 21.1135 4.15242 17.7968C4.61353 14.4801 6.10196 11.4014 8.39433 8.98597C8.82014 8.5373 9.53185 8.57095 9.94964 9.02709C10.3674 9.48324 10.3325 10.1888 9.91183 10.6423C8.00124 12.7019 6.76039 15.3049 6.37108 18.1052C5.98177 20.9055 6.46552 23.7483 7.74182 26.251C8.02283 26.802 7.86398 27.4904 7.33761 27.8153Z" fill="white"/>
<path d="M16.663 11.7493C16.4352 11.1861 16.7061 10.5385 17.2909 10.3739C19.1879 9.84003 21.2093 9.87647 23.0986 10.4922C25.338 11.222 27.2479 12.7188 28.4918 14.7189C29.7356 16.719 30.2336 19.0939 29.8979 21.4252C29.6147 23.3919 28.7535 25.2211 27.4358 26.6865C27.0296 27.1382 26.329 27.0948 25.9246 26.6415C25.5202 26.1881 25.567 25.4971 25.959 25.033C26.8971 23.9223 27.5111 22.5651 27.7204 21.1117C27.9822 19.2933 27.5938 17.4408 26.6236 15.8807C25.6533 14.3207 24.1636 13.1531 22.4169 12.5839C21.0207 12.1289 19.5319 12.0795 18.1209 12.4297C17.5312 12.5761 16.8907 12.3125 16.663 11.7493Z" fill="white"/>
<path d="M24.3078 27.788C24.6019 28.3196 24.411 28.9951 23.8503 29.229C22.2001 29.9175 20.3885 30.1535 18.6046 29.9022C16.8208 29.6508 15.1449 28.9234 13.7492 27.8056C13.275 27.4259 13.2783 26.7239 13.7078 26.2943C14.1373 25.8646 14.8298 25.8719 15.3156 26.2367C16.3646 27.0247 17.6007 27.539 18.9116 27.7237C20.2225 27.9084 21.5526 27.7557 22.7785 27.2883C23.3462 27.0719 24.0138 27.2564 24.3078 27.788Z" fill="white"/>
<path d="M12.4264 24.6744C11.9094 24.9935 11.2256 24.8351 10.9652 24.2863C10.1324 22.531 9.82556 20.563 10.0953 18.623C10.365 16.683 11.197 14.8733 12.477 13.4118C12.8772 12.9548 13.5784 12.9889 13.9887 13.4369C14.399 13.8849 14.3613 14.5765 13.9754 15.0457C13.0658 16.1519 12.4735 17.4934 12.2743 18.9259C12.0751 20.3585 12.2791 21.8107 12.8525 23.123C13.0957 23.6797 12.9434 24.3554 12.4264 24.6744Z" fill="white"/>
<path d="M24 20C24 22.2091 22.2091 24 20 24C17.7909 24 16 22.2091 16 20C16 17.7909 17.7909 16 20 16C22.2091 16 24 17.7909 24 20ZM17.88 20C17.88 21.1708 18.8292 22.12 20 22.12C21.1708 22.12 22.12 21.1708 22.12 20C22.12 18.8292 21.1708 17.88 20 17.88C18.8292 17.88 17.88 18.8292 17.88 20Z" fill="white"/>
<defs>
<linearGradient id="paint0_linear_9175_11639" x1="29" y1="-15" x2="48.2012" y2="-3.36951" gradientUnits="userSpaceOnUse">
<stop stop-color="#03D9F7"/>
<stop offset="1" stop-color="#4E8EFC"/>
</linearGradient>
</defs>
</svg>
