<svg width="62" height="44" viewBox="0 0 62 44" fill="none" xmlns="http://www.w3.org/2000/svg">
<g clip-path="url(#clip0_12940_31591)">
<g clip-path="url(#clip1_12940_31591)">
<path d="M50.8279 9.79973C50.8513 9.4299 50.6106 9.32253 50.3698 9.21517C50.3052 9.18534 50.2348 9.16148 50.1702 9.14955C49.5008 9.01236 48.8725 8.72604 48.1737 8.70814C47.9447 8.70218 47.6864 8.65446 47.4691 8.35621C47.8038 8.29656 48.0798 8.24288 48.3793 8.18919C48.3616 8.1534 48.3381 8.11165 48.3088 8.052C48.7022 7.89094 49.0428 8.1534 49.401 8.19516C49.7592 8.23691 50.1056 8.36814 50.499 8.46955C50.2465 8.72604 50.5166 8.70814 50.546 8.88113C50.5871 8.7499 50.5988 8.69621 50.6165 8.64849C50.6341 8.64849 50.6517 8.64849 50.6693 8.65446C50.6752 8.73797 50.6811 8.82744 50.6869 8.9706C50.9453 8.98253 51.233 8.99446 51.5207 9.01832C51.6147 9.02429 51.7145 9.04815 51.8026 9.0899C52.9535 9.61482 54.0926 10.1636 55.0263 11.0583C55.4784 11.4878 55.9599 11.8934 56.3944 12.3468C57.287 13.2713 58.1149 14.2436 58.5436 15.4903C58.614 15.6871 58.6375 15.9019 58.6904 16.1405C58.7491 16.2001 58.8548 16.2956 59.0075 16.4387C58.8665 16.4149 58.7784 16.4029 58.6962 16.385C58.6786 16.4029 58.661 16.4208 58.6434 16.4328C58.7315 16.5282 58.8137 16.6296 58.8959 16.7191C58.8607 16.8026 58.7667 16.904 58.7902 16.9756C58.8195 17.0651 58.9311 17.1366 59.0192 17.1903C59.1366 17.2619 59.2834 17.2858 59.2306 17.5005C59.213 17.5661 59.3598 17.6556 59.395 17.751C59.718 18.7412 59.9411 19.7552 59.9763 20.7991C60.0057 21.7475 60.0057 22.696 59.9881 23.6384C59.9822 23.9248 59.8765 24.2051 59.8295 24.4855C59.8002 24.6644 59.7943 24.8493 59.7767 25.0283C59.7708 25.076 59.7943 25.1356 59.7708 25.1595C59.4537 25.4876 59.5535 25.9648 59.3598 26.3406C58.7432 27.5455 58.3263 28.8518 57.563 29.9911C57.1695 30.5816 56.6998 31.0946 56.1478 31.5301C55.9775 31.6673 55.8366 31.8522 55.6839 32.0132C55.6252 32.0729 55.5724 32.1325 55.5019 32.1743C55.0263 32.4785 54.6916 32.9259 54.3216 33.3434C54.0868 33.6059 53.7286 33.7669 53.4174 33.9638C53.1003 34.1666 52.7832 34.3396 52.3839 34.2143C52.2665 34.1785 52.1197 34.2322 51.9905 34.2441C51.9905 34.268 51.9905 34.2978 51.9905 34.3217C52.149 34.3396 52.3076 34.3634 52.472 34.3813C52.2606 34.4648 52.0903 34.6319 51.8202 34.5483C51.5736 34.4708 51.2976 34.5066 51.0334 34.5126C50.9864 34.5126 50.9042 34.6199 50.9042 34.6736C50.9101 34.7571 50.9629 34.8347 50.822 34.8168C50.8337 34.8705 50.8278 34.942 50.8572 34.9719C50.9101 35.0255 50.9864 35.0494 51.1214 35.1269C50.8983 35.2224 50.7398 35.3178 50.5695 35.3655C50.0762 35.5027 49.583 35.6399 49.0839 35.7354C48.5672 35.8368 48.0446 35.9561 47.5278 35.9441C47.0698 35.9382 46.6177 35.974 46.1597 35.9978C45.8837 36.0098 45.6077 35.968 45.3317 35.9203C45.2378 35.9024 45.1556 35.8129 45.0323 35.7294C44.8091 35.8427 44.6036 35.8129 44.3452 35.6041C44.1749 35.4669 43.8344 35.5445 43.5643 35.5266C43.4879 35.5206 43.3999 35.5564 43.3353 35.5266C43.0769 35.4013 42.8655 35.4789 42.6424 35.622C42.5778 35.6638 42.4721 35.6817 42.3899 35.6698C42.2901 35.6519 42.1961 35.5803 42.0963 35.5445C41.468 35.2999 40.8456 35.0554 40.2173 34.8227C40.047 34.7571 39.818 34.7929 39.6829 34.6915C38.6906 33.9518 37.4986 33.5045 36.7 32.5024C36.424 32.1564 36.1656 31.7985 35.7546 31.5838C35.6254 31.5181 35.5256 31.381 35.4316 31.2617C34.5978 30.2357 33.8521 29.1501 33.3588 27.9034C33.1651 27.4202 32.9478 26.943 32.7364 26.4658C32.4663 25.8335 32.3136 25.1535 32.2373 24.4019C32.3841 24.4974 32.5015 24.5749 32.6131 24.6525C32.6131 24.6763 32.6072 24.6942 32.6072 24.7181C32.5485 24.7121 32.4898 24.7121 32.4076 24.7062C32.3371 24.8374 32.3547 24.9507 32.5426 25.0521C32.6836 25.1237 32.9478 25.1535 32.7775 25.4399C32.9478 25.4816 33.1122 25.5055 33.2708 25.5592C33.3295 25.577 33.4058 25.6606 33.4117 25.7202C33.4645 26.5971 33.946 27.295 34.3042 28.0465C34.7505 28.983 35.3494 29.8241 35.9895 30.6413C36.8879 31.7866 38.0681 32.562 39.2249 33.3792C39.3952 33.4985 39.5537 33.6357 39.7358 33.7252C39.9354 33.8206 40.1527 33.8743 40.4345 33.9697C40.4639 34.1666 40.7164 34.1904 40.9395 34.274C41.374 34.429 41.8027 34.614 42.2372 34.7691C42.5014 34.8645 42.7774 34.9659 43.0534 34.9957C44.2337 35.1329 45.4198 35.2641 46.6059 35.3476C47.0698 35.3775 47.5396 35.282 48.0034 35.2105C48.438 35.1448 48.8725 35.0494 49.3011 34.9361C49.7533 34.8168 50.1878 34.6438 50.6458 34.5305C51.28 34.3754 51.8437 34.0831 52.378 33.7192C52.748 33.4687 53.0944 33.1764 53.4878 32.9676C54.9734 32.1862 55.9129 30.8501 56.8994 29.5616C56.917 29.5378 56.9347 29.5199 56.9405 29.496C57.1519 28.9592 57.5277 28.5357 57.8566 28.0764C57.9505 27.9451 57.9388 27.7483 58.0034 27.5932C58.1619 27.1816 58.3322 26.776 58.4966 26.3704C58.7021 25.8753 58.843 25.3623 58.8372 24.8195C58.8372 24.7479 58.843 24.6704 58.8665 24.6048C59.2012 23.7398 59.3011 22.8033 59.2482 21.9146C59.1895 20.9005 59.2188 19.8507 58.8724 18.8665C58.8548 18.8187 58.8607 18.7591 58.8489 18.7114C58.7726 18.3654 58.7197 18.0015 58.6023 17.6735C58.4261 17.1843 58.2265 16.7072 57.9916 16.2479C57.6686 15.6036 57.3281 14.9714 56.964 14.351C56.7233 13.9334 56.4708 13.5159 56.1654 13.158C55.725 12.6391 55.2553 12.144 54.7444 11.6966C54.3275 11.3327 53.846 11.0345 53.3821 10.7303C52.9535 10.4499 52.5131 10.1636 52.0551 9.93096C51.6969 9.74008 51.2917 9.58499 50.8279 9.79973Z" fill="#FB897A"/>
<path d="M33.6351 17.2863C33.3943 17.2624 33.2239 17.2505 33.0594 17.2326C33.0535 17.2505 33.0535 17.2743 33.0477 17.2922C33.1828 17.3638 33.312 17.4414 33.4765 17.5368C33.3884 17.5607 33.3414 17.5726 33.2533 17.5905C33.4941 17.68 33.3884 17.7933 33.359 17.9484C33.2004 18.7119 33.03 19.4814 32.9537 20.2568C32.8714 21.08 32.889 21.9151 32.8714 22.7442C32.8655 23.0544 32.8714 23.3705 32.8714 23.7344C32.6012 23.6867 32.3897 23.6568 32.184 23.5972C32.137 23.5853 32.09 23.4719 32.0842 23.4003C32.043 23.0544 31.9902 22.7024 32.0019 22.3505C32.0254 21.5154 31.9608 20.6744 32.2017 19.8512C32.3133 19.4754 32.4249 19.0758 32.4073 18.694C32.3897 18.2884 32.5307 17.9603 32.6717 17.6203C32.7892 17.3399 32.8714 16.994 33.3003 17.0596C33.3179 17.0596 33.3414 17.0536 33.3473 17.0417C33.3884 16.9105 33.4941 16.8508 33.5705 16.9463C33.641 17.0357 33.6234 17.1908 33.6351 17.2863Z" fill="#FB897A"/>
<path d="M42.8597 8.39786C42.9126 8.32631 42.9595 8.26669 43.0183 8.18918C43.4352 8.38594 43.8227 8.30246 44.175 8.06396C44.2514 8.17129 44.316 8.26073 44.3923 8.37997C44.3864 8.39786 44.3571 8.46345 44.3042 8.58866C44.1281 8.61847 43.8638 8.64828 43.6113 8.71387C42.9419 8.88678 42.2608 9.03584 41.6149 9.27434C40.8633 9.54861 40.1469 9.91232 39.407 10.2104C39.1545 10.3118 38.8785 10.276 38.5908 10.1568C39.0606 9.72749 39.5362 9.36974 40.1058 9.14913C40.6343 8.94641 41.1392 8.67213 41.6736 8.48134C42.0494 8.3442 42.4428 8.17129 42.8597 8.39786Z" fill="#FB897A"/>
<path d="M38.7252 10.486C38.6606 10.48 38.6136 10.48 38.5255 10.4741C38.6077 10.5934 38.778 10.659 38.5431 10.8141C38.1556 11.0706 37.815 11.3987 37.4568 11.7088C37.2748 11.8699 37.1104 12.0429 36.946 12.2218C36.8109 12.3709 36.6817 12.4962 36.4527 12.4902C36.3881 12.4902 36.3118 12.5976 36.259 12.6692C36.2061 12.7348 36.1885 12.8302 36.1415 12.9018C35.9184 13.218 35.6894 13.5281 35.4662 13.8383C35.2314 14.1724 35.0493 14.2141 34.697 14.0232C35.4251 12.6692 36.4586 11.5955 37.7093 10.7306C37.8503 10.6351 37.9853 10.5337 38.1262 10.4383C38.4198 10.2415 38.4198 10.2415 38.7252 10.486Z" fill="#FB897A"/>
<path d="M33.9458 14.7805C34.122 14.9594 34.2924 15.1383 34.4687 15.3231C34.2689 15.7107 33.934 15.5735 33.5815 15.5795C33.7167 15.2933 33.8342 15.0429 33.9575 14.7865C33.9517 14.7865 33.9458 14.7805 33.9458 14.7805Z" fill="#FB897A"/>
<path d="M33.9517 14.7869C34.0986 14.6021 34.2278 14.3993 34.3982 14.2443C34.5451 14.1072 34.6097 14.1608 34.6626 14.3755C34.6861 14.4769 34.7918 14.5544 34.9152 14.7153C34.5509 14.7392 34.2454 14.7571 33.9399 14.775C33.9458 14.7809 33.9517 14.7869 33.9517 14.7869Z" fill="#FB897A"/>
<path d="M32.2194 23.782C32.3545 23.9609 32.4897 24.1338 32.6248 24.3126C32.6248 24.3305 32.6248 24.3484 32.6248 24.3723C32.5073 24.3246 32.3604 24.3067 32.2899 24.2232C32.2077 24.1278 32.1959 23.9728 32.1489 23.8416C32.1724 23.8178 32.1959 23.7999 32.2194 23.782Z" fill="#FB897A"/>
<path d="M32.7432 24.831C32.8254 24.825 32.9135 24.8131 32.9958 24.8071C32.984 24.825 32.9782 24.8429 32.9664 24.8668C33.031 24.9264 33.0957 24.992 33.172 25.0576C32.8842 25.3199 32.8959 24.9025 32.7432 24.831Z" fill="#FB897A"/>
<path d="M50.2915 11.155C50.3124 10.8262 50.0984 10.7308 49.8844 10.6354C49.827 10.6089 49.7643 10.5876 49.7069 10.577C49.1119 10.4551 48.5534 10.2006 47.9323 10.1847C47.7287 10.1794 47.499 10.137 47.3059 9.87184C47.6034 9.81882 47.8487 9.7711 48.1149 9.72338C48.0993 9.69156 48.0784 9.65445 48.0523 9.60142C48.402 9.45826 48.7048 9.69156 49.0231 9.72868C49.3415 9.76579 49.6495 9.88244 49.9992 9.97258C49.7748 10.2006 50.0149 10.1847 50.041 10.3384C50.0775 10.2218 50.0879 10.1741 50.1036 10.1316C50.1193 10.1316 50.1349 10.1316 50.1506 10.137C50.1558 10.2112 50.161 10.2907 50.1662 10.418C50.3959 10.4286 50.6516 10.4392 50.9074 10.4604C50.9909 10.4657 51.0797 10.4869 51.1579 10.524C52.181 10.9906 53.1936 11.4784 54.0235 12.2738C54.4254 12.6555 54.8534 13.0161 55.2396 13.419C56.033 14.2409 56.769 15.1052 57.15 16.2133C57.2126 16.3883 57.2335 16.5792 57.2805 16.7913C57.3327 16.8443 57.4266 16.9291 57.5624 17.0564C57.4371 17.0352 57.3588 17.0246 57.2857 17.0087C57.2701 17.0246 57.2544 17.0405 57.2387 17.0511C57.317 17.1359 57.3901 17.2261 57.4632 17.3056C57.4319 17.3798 57.3484 17.47 57.3692 17.5336C57.3953 17.6131 57.4945 17.6768 57.5728 17.7245C57.6772 17.7881 57.8077 17.8093 57.7607 18.0002C57.745 18.0585 57.8755 18.1381 57.9068 18.2229C58.1939 19.1031 58.3923 20.0044 58.4236 20.9323C58.4497 21.7754 58.4497 22.6185 58.434 23.4562C58.4288 23.7107 58.3348 23.9599 58.2931 24.2091C58.267 24.3682 58.2618 24.5326 58.2461 24.6916C58.2409 24.7341 58.2618 24.7871 58.2409 24.8083C57.959 25.0999 58.0478 25.5241 57.8755 25.8581C57.3275 26.9292 56.9569 28.0904 56.2783 29.1031C55.9286 29.628 55.5111 30.084 55.0204 30.4711C54.8691 30.5931 54.7438 30.7574 54.6081 30.9006C54.5559 30.9536 54.5089 31.0066 54.4463 31.0437C54.0235 31.3142 53.726 31.7118 53.3971 32.083C53.1884 32.3163 52.87 32.4594 52.5933 32.6344C52.3115 32.8147 52.0296 32.9685 51.6747 32.8571C51.5703 32.8253 51.4398 32.873 51.325 32.8836C51.325 32.9048 51.325 32.9313 51.325 32.9526C51.4659 32.9685 51.6068 32.9897 51.753 33.0056C51.5651 33.0798 51.4137 33.2283 51.1736 33.154C50.9544 33.0851 50.7091 33.1169 50.4742 33.1222C50.4324 33.1222 50.3594 33.2177 50.3594 33.2654C50.3646 33.3396 50.4116 33.4086 50.2863 33.3926C50.2967 33.4404 50.2915 33.504 50.3176 33.5305C50.3646 33.5782 50.4324 33.5994 50.5525 33.6684C50.3541 33.7532 50.2132 33.838 50.0618 33.8805C49.6234 34.0024 49.185 34.1244 48.7413 34.2092C48.282 34.2993 47.8174 34.4054 47.3581 34.3948C46.951 34.3895 46.5491 34.4213 46.1419 34.4425C45.8966 34.4531 45.6513 34.416 45.406 34.3736C45.3225 34.3577 45.2494 34.2781 45.1398 34.2039C44.9414 34.3046 44.7588 34.2781 44.5291 34.0925C44.3777 33.9706 44.075 34.0395 43.8349 34.0236C43.767 34.0183 43.6888 34.0501 43.6313 34.0236C43.4017 33.9123 43.2138 33.9812 43.0154 34.1084C42.958 34.1456 42.8641 34.1615 42.791 34.1509C42.7023 34.135 42.6187 34.0713 42.53 34.0395C41.9715 33.8221 41.4182 33.6047 40.8597 33.3979C40.7084 33.3396 40.5048 33.3714 40.3848 33.2813C39.5027 32.6238 38.4431 32.2261 37.7332 31.3354C37.4879 31.0278 37.2582 30.7097 36.8929 30.5188C36.778 30.4605 36.6893 30.3385 36.6058 30.2325C35.8646 29.3205 35.2017 28.3555 34.7633 27.2473C34.591 26.8178 34.3979 26.3937 34.21 25.9695C33.9699 25.4074 33.8342 24.803 33.7664 24.1349C33.8968 24.2197 34.0012 24.2887 34.1004 24.3576C34.1004 24.3788 34.0952 24.3947 34.0952 24.4159C34.043 24.4106 33.9908 24.4106 33.9177 24.4053C33.8551 24.522 33.8707 24.6227 34.0378 24.7129C34.163 24.7765 34.3979 24.803 34.2466 25.0575C34.3979 25.0946 34.5441 25.1158 34.685 25.1635C34.7372 25.1795 34.8051 25.2537 34.8103 25.3067C34.8572 26.0861 35.2853 26.7065 35.6036 27.3746C36.0003 28.207 36.5327 28.9547 37.1017 29.6811C37.9003 30.6991 38.9494 31.3884 39.9776 32.1148C40.129 32.2208 40.2699 32.3428 40.4317 32.4223C40.6092 32.5072 40.8023 32.5549 41.0529 32.6397C41.079 32.8147 41.3034 32.8359 41.5018 32.9101C41.888 33.048 42.269 33.2124 42.6553 33.3502C42.8902 33.4351 43.1355 33.5252 43.3808 33.5517C44.4299 33.6737 45.4843 33.7903 46.5386 33.8645C46.951 33.8911 47.3685 33.8062 47.7809 33.7426C48.1671 33.6843 48.5534 33.5994 48.9344 33.4987C49.3363 33.3926 49.7226 33.2389 50.1297 33.1381C50.6934 33.0003 51.1945 32.7405 51.6695 32.417C51.9983 32.1943 52.3063 31.9345 52.656 31.7489C53.9765 31.0543 54.8116 29.8666 55.6885 28.7214C55.7042 28.7001 55.7198 28.6842 55.7251 28.663C55.913 28.1858 56.247 27.8094 56.5393 27.4011C56.6228 27.2844 56.6124 27.1095 56.6698 26.9716C56.8107 26.6058 56.9621 26.2452 57.1083 25.8846C57.2909 25.4446 57.4162 24.9886 57.411 24.5061C57.411 24.4424 57.4162 24.3735 57.4371 24.3152C57.7346 23.5464 57.8233 22.7139 57.7764 21.9239C57.7242 21.0225 57.7503 20.0893 57.4423 19.2144C57.4266 19.172 57.4319 19.119 57.4214 19.0766C57.3536 18.769 57.3066 18.4456 57.2022 18.154C57.0456 17.7192 56.8682 17.295 56.6594 16.8867C56.3723 16.3141 56.0696 15.752 55.7459 15.2006C55.5319 14.8294 55.3075 14.4583 55.0361 14.1402C54.6446 13.6789 54.2271 13.2388 53.7729 12.8411C53.4024 12.5177 52.9744 12.2526 52.562 11.9821C52.181 11.7329 51.7895 11.4784 51.3824 11.2716C51.064 11.102 50.7038 10.9641 50.2915 11.155Z" fill="#FB897A"/>
<path d="M35.0089 17.8099C34.7948 17.7887 34.6434 17.7781 34.4971 17.7622C34.4919 17.7781 34.4919 17.7993 34.4867 17.8152C34.6068 17.8789 34.7217 17.9478 34.8679 18.0326C34.7896 18.0538 34.7478 18.0644 34.6695 18.0803C34.8836 18.1599 34.7896 18.2606 34.7635 18.3985C34.6225 19.0772 34.471 19.7612 34.4031 20.4505C34.33 21.1822 34.3457 21.9245 34.33 22.6615C34.3248 22.9372 34.33 23.2182 34.33 23.5417C34.0898 23.4993 33.9018 23.4727 33.719 23.4197C33.6773 23.4091 33.6355 23.3084 33.6303 23.2447C33.5937 22.9372 33.5467 22.6244 33.5571 22.3115C33.578 21.5692 33.5206 20.8216 33.7347 20.0899C33.8339 19.7559 33.9331 19.4006 33.9175 19.0613C33.9018 18.7007 34.0271 18.4091 34.1525 18.1069C34.2569 17.8577 34.33 17.5501 34.7113 17.6084C34.7269 17.6084 34.7478 17.6031 34.753 17.5925C34.7896 17.4759 34.8836 17.4229 34.9515 17.5077C35.0142 17.5872 34.9985 17.7251 35.0089 17.8099Z" fill="#FB897A"/>
<path d="M43.2089 9.90886C43.2559 9.84526 43.2977 9.79226 43.3499 9.72336C43.7204 9.89826 44.0649 9.82406 44.3781 9.61206C44.446 9.70746 44.5034 9.78696 44.5712 9.89296C44.566 9.90886 44.5399 9.96716 44.4929 10.0785C44.3364 10.105 44.1015 10.1315 43.877 10.1898C43.282 10.3435 42.6765 10.476 42.1024 10.688C41.4343 10.9318 40.7975 11.2551 40.1398 11.5201C39.9154 11.6102 39.6701 11.5784 39.4143 11.4724C39.8319 11.0908 40.2547 10.7728 40.761 10.5767C41.2307 10.3965 41.6796 10.1527 42.1546 9.98306C42.4886 9.86116 42.8383 9.70746 43.2089 9.90886Z" fill="#FB897A"/>
<path d="M39.5335 11.765C39.4761 11.7597 39.4343 11.7597 39.356 11.7544C39.4291 11.8604 39.5805 11.9187 39.3717 12.0566C39.0272 12.2846 38.7245 12.5762 38.4061 12.8519C38.2443 12.9951 38.0981 13.1489 37.952 13.3079C37.8319 13.4405 37.7171 13.5518 37.5135 13.5465C37.4561 13.5465 37.3883 13.642 37.3413 13.7056C37.2943 13.7639 37.2787 13.8488 37.2369 13.9124C37.0386 14.1934 36.835 14.4691 36.6366 14.7448C36.4279 15.0418 36.2661 15.0789 35.9529 14.9092C36.6001 13.7056 37.5188 12.7512 38.6305 11.9824C38.7558 11.8975 38.8758 11.8074 39.0011 11.7226C39.2621 11.5476 39.2621 11.5476 39.5335 11.765Z" fill="#FB897A"/>
<path d="M35.285 15.5823C35.4416 15.7413 35.5931 15.9003 35.7497 16.0646C35.5722 16.4091 35.2745 16.2872 34.9612 16.2925C35.0813 16.0381 35.1857 15.8155 35.2954 15.5876C35.2902 15.5876 35.285 15.5823 35.285 15.5823Z" fill="#FB897A"/>
<path d="M35.2902 15.5881C35.4208 15.4238 35.5357 15.2436 35.6871 15.1058C35.8177 14.9839 35.8751 15.0316 35.9221 15.2224C35.943 15.3125 36.037 15.3814 36.1467 15.5245C35.8229 15.5457 35.5513 15.5616 35.2798 15.5775C35.285 15.5828 35.2902 15.5881 35.2902 15.5881Z" fill="#FB897A"/>
<path d="M33.7504 23.5837C33.8705 23.7427 33.9906 23.8964 34.1107 24.0554C34.1107 24.0713 34.1107 24.0872 34.1107 24.1084C34.0063 24.066 33.8757 24.0501 33.8131 23.9759C33.74 23.8911 33.7295 23.7533 33.6877 23.6367C33.7086 23.6155 33.7295 23.5996 33.7504 23.5837Z" fill="#FB897A"/>
<path d="M34.2161 24.5166C34.2892 24.5113 34.3675 24.5007 34.4406 24.4954C34.4302 24.5113 34.425 24.5272 34.4145 24.5484C34.472 24.6014 34.5294 24.6597 34.5973 24.718C34.3414 24.9512 34.3518 24.5802 34.2161 24.5166Z" fill="#FB897A"/>
</g>
</g>
<path d="M17.2126 17.232L18.5806 27.42H15.4846L15.1246 24.648H10.8046L9.59863 27.42H6.66463L10.6426 17.736L10.1206 17.232H17.2126ZM13.2346 18.96L11.5066 22.92H14.9626L14.4406 18.96H13.2346ZM25.0975 17.232L23.5315 27.42H20.2555L21.4615 17.916L20.9395 17.232H25.0975Z" fill="#F85640"/>
<path d="M40.9068 20.832L40.6548 20.148H34.1568L33.7248 20.832H29.7828L32.5548 16.494L32.1588 16.044H43.1028L44.8308 20.832H40.9068ZM36.5328 21.516L35.6328 27.852H29.4768L30.3768 21.516H36.5328ZM39.8628 23.226L39.1068 28.662H36.5508L37.5588 21.516H44.4168L43.8048 25.764C43.7568 26.112 43.5948 26.406 43.3188 26.646C43.0548 26.874 42.7488 26.988 42.4008 26.988H40.0428L41.2488 25.71L41.5908 23.226H39.8628ZM33.4548 26.304L33.9228 23.064H32.5548L32.0868 26.304H33.4548ZM35.2368 18.438H40.0428L39.7908 17.754H35.6868L35.2368 18.438ZM51.5974 24.072H46.1254L46.9534 18.276H52.4074L52.6774 16.386L52.1014 15.702H56.2054L55.8274 18.276H61.3174L60.4894 24.072H55.0174L54.3694 28.662H50.9494L51.5974 24.072ZM55.5934 19.986L55.2514 22.362H57.3214L57.6454 19.986H55.5934ZM51.8314 22.362L52.1734 19.986H50.1214L49.7974 22.362H51.8314Z" fill="#F85640"/>
<defs>
<clipPath id="clip0_12940_31591">
<rect x="32" y="8" width="28" height="28" rx="14" fill="white"/>
</clipPath>
<clipPath id="clip1_12940_31591">
<rect width="28" height="28" fill="white" transform="translate(32 8)"/>
</clipPath>
</defs>
</svg>
