<svg width="66" height="44" viewBox="0 0 66 44" fill="none" xmlns="http://www.w3.org/2000/svg">
<g clip-path="url(#clip0_14199_74470)">
<rect width="60" height="34" transform="translate(0.709961 9.90234) rotate(-9)" fill="white"/>
<path fill-rule="evenodd" clip-rule="evenodd" d="M19.6356 28.0062C19.7355 28.1423 19.8364 28.28 19.939 28.4194L19.9635 28.4155C19.9944 28.3728 20.0289 28.3327 20.0634 28.2926C20.0978 28.2526 20.1323 28.2125 20.1632 28.1698C20.6604 27.4236 21.1473 26.6917 21.6323 25.9474C21.8056 25.6933 21.8036 25.681 21.5378 25.5091C20.5698 24.869 19.5021 24.4715 18.3617 24.2491C18.2191 24.2213 18.1707 24.1534 18.1493 24.0183L17.9353 22.667C17.909 22.501 17.8958 22.4181 17.9307 22.3701C17.9656 22.3222 18.0483 22.3091 18.2135 22.2829L20.3944 21.9375C20.7129 21.887 20.7335 21.8586 20.681 21.5269C20.6686 21.4486 20.655 21.372 20.6416 21.2958C20.6148 21.1447 20.5884 20.9954 20.572 20.839C20.5615 20.614 20.4518 20.5558 20.2313 20.5907L17.9402 20.9536C17.7442 20.9846 17.6609 20.9349 17.6278 20.726L17.1064 17.4337C17.0591 17.2145 17.1313 17.115 17.3518 17.08C17.6378 17.0221 17.9228 16.9581 18.2078 16.8941C18.4928 16.8301 18.7778 16.766 19.0637 16.7081C19.2843 16.6732 19.33 16.5652 19.2724 16.3603C19.2226 16.2045 19.1953 16.0325 19.1701 15.8728C19.117 15.6186 19.1168 15.4929 19.0558 15.4456C18.9968 15.4 18.8811 15.4276 18.606 15.4836C17.7552 15.6624 16.9049 15.8443 16.0545 16.0262C15.2042 16.2081 14.3539 16.39 13.5031 16.5688C12.7635 16.7364 12.022 16.8916 11.2804 17.0468L11.2804 17.0468C11.0863 17.0901 11.0123 17.1774 11.0576 17.3843C11.1249 17.6507 11.18 17.919 11.2228 18.1893C11.25 18.3613 11.3293 18.3865 11.4886 18.3613C11.9245 18.2586 12.3621 18.1669 12.7997 18.0753C13.0185 18.0294 13.2373 17.9836 13.4559 17.9363C13.7358 17.8794 13.7622 17.8878 13.8089 18.1827L14.2253 20.8116C14.3031 21.303 14.1011 21.5868 13.6192 21.6632L11.4138 22.0124C11.4061 22.0137 11.3984 22.0148 11.3908 22.016C11.2777 22.0332 11.1808 22.0479 11.2063 22.209L11.3639 23.2041C11.3853 23.3392 11.4666 23.3767 11.6014 23.3554L12.41 23.2273C12.6061 23.1962 12.6912 23.2583 12.6979 23.4587C12.7071 23.7154 12.7225 23.9711 12.7379 24.2269C12.7533 24.4826 12.7687 24.7383 12.7779 24.995C12.7914 25.6351 12.8029 26.2629 12.7899 26.8946C12.7719 27.653 12.7436 28.4257 12.6888 29.1899C12.6276 29.993 12.5541 30.7979 12.4665 31.5926C12.4467 31.7846 12.5112 31.8751 12.6699 31.9256C12.908 32.0012 13.146 32.0768 13.3738 32.1667C13.5486 32.2397 13.655 32.1977 13.7277 32.0225C14.2799 30.7513 14.6999 29.4381 14.9489 28.0764L15.1145 27.219L15.1758 27.2093C15.1784 27.2195 15.1811 27.2295 15.1837 27.2395C15.2124 27.3486 15.2389 27.4492 15.2567 27.5617L16.1323 33.0898C16.1599 33.264 16.1735 33.35 16.2232 33.3856C16.2716 33.4203 16.3543 33.4072 16.5176 33.3814L19.1885 32.9583C19.5193 32.906 19.5173 32.8937 19.4667 32.5743L18.5873 27.0216C18.5795 26.9725 18.5774 26.9193 18.5752 26.8661C18.5731 26.8129 18.5709 26.7597 18.5631 26.7106C18.5857 26.6944 18.6205 26.6763 18.645 26.6724C18.9751 27.1057 19.2991 27.5474 19.6356 28.0062ZM21.7107 23.9832L21.7146 24.0077L22.8606 31.2434C22.8975 31.4768 22.9705 31.5408 23.2155 31.502L25.9109 31.0751C26.1192 31.0421 26.2359 30.9858 26.1847 30.7421C26.1472 30.5843 26.2232 30.5093 26.3825 30.4841L27.7792 30.2629C27.9262 30.2396 28.0075 30.2771 28.0328 30.4368C28.0472 30.6864 28.1917 30.7264 28.4122 30.6915L31.1322 30.2607C31.3282 30.2297 31.4165 30.1527 31.3589 29.9478L31.3219 29.7144L29.1058 15.7221L29.0377 15.2921C29.0227 15.1182 28.9414 15.0807 28.7821 15.1059L25.9397 15.5561C25.7437 15.5872 25.6799 15.6603 25.711 15.8568C25.7447 15.99 25.6706 16.0773 25.5236 16.1006C25.3684 16.1252 25.2134 16.1511 25.0584 16.1771C24.7485 16.2289 24.4385 16.2808 24.1268 16.3218C24.0533 16.3334 23.8991 16.2319 23.8894 16.1705C23.8505 15.9248 23.7118 15.9216 23.5158 15.9526L20.8204 16.3796C20.6693 16.4035 20.5928 16.4156 20.56 16.46C20.5264 16.5057 20.539 16.5855 20.5646 16.7475L21.7107 23.9832ZM26.6105 21.4567L26.881 23.1643L26.8829 23.1765L27.739 28.5818C27.7896 28.9012 27.7773 28.9031 27.471 28.9517C27.3322 28.9736 27.1931 28.9943 27.0541 29.0149C26.7759 29.0562 26.4978 29.0974 26.2214 29.1496C26.015 29.1949 25.9298 29.1328 25.8948 28.9117L25.3461 25.4474L24.1865 18.1257C24.1203 17.708 24.1203 17.708 24.5246 17.644L25.6396 17.4674C25.9336 17.4208 25.9743 17.4396 26.021 17.7344L26.6105 21.4567Z" fill="#FB897A"/>
<path fill-rule="evenodd" clip-rule="evenodd" d="M48.6642 26.755C48.6294 26.764 48.591 26.7739 48.547 26.7847L48.5612 26.795C48.6349 26.9253 48.7092 27.0493 48.7819 27.1706C48.9155 27.3935 49.0436 27.6073 49.1529 27.8347C49.233 28.0235 49.3388 28.0571 49.5226 28.028L53.0511 27.4691C53.1859 27.4478 53.3309 27.4122 53.4599 27.354C54.3443 26.9117 54.7519 26.1545 54.5962 25.1718L53.2556 16.7076C53.2187 16.4742 53.1457 16.4102 52.913 16.4471L50.3278 16.8565C50.0807 16.8957 49.9651 16.898 49.9214 16.9552C49.8784 17.0115 49.905 17.1209 49.9445 17.3706C49.9822 17.6081 49.8825 17.7456 49.6457 17.7831L42.0495 18.9862L39.9422 19.32C39.7339 19.353 39.6365 19.2928 39.6015 19.0717C39.5774 18.9197 39.5549 18.7689 39.5325 18.6186C39.4879 18.3192 39.4435 18.0217 39.3874 17.7204C39.3402 17.5012 39.4162 17.4262 39.6245 17.3932L48.5193 15.9844C48.7031 15.9553 48.8211 15.987 48.8317 16.212C48.8402 16.4247 48.9377 16.4848 49.146 16.4518L51.8904 16.0172C52.1129 15.9945 52.1747 15.9092 52.1397 15.688L51.3089 10.4425C51.3068 10.4297 51.3063 10.4167 51.3057 10.4042C51.3048 10.3807 51.3038 10.359 51.2933 10.3442C51.2801 10.3322 51.2659 10.3178 51.2511 10.3027C51.2001 10.2509 51.142 10.1919 51.0945 10.1994L48.1418 10.6671C48.0928 10.6748 47.9981 10.7906 48.0078 10.852C48.0096 11.0222 48.0136 11.1066 47.9738 11.1553C47.9343 11.2036 47.8516 11.2167 47.6806 11.2438L39.6311 12.5187L38.8225 12.6468C38.6754 12.6701 38.5697 12.6365 38.5669 12.4606C38.5648 12.2091 38.4241 12.1936 38.2159 12.2266L35.545 12.6496C35.3736 12.6768 35.2878 12.6903 35.2517 12.74C35.2155 12.7898 35.2291 12.8758 35.2564 13.0479C35.3861 13.8669 35.5185 14.6854 35.651 15.504C35.9158 17.1411 36.1807 18.7782 36.4238 20.4187C36.5925 21.5631 36.7122 22.7153 36.7951 23.8733C36.8592 24.8328 36.86 25.7897 36.8364 26.7505C36.8131 27.4351 36.7486 28.118 36.6836 28.8059C36.6681 28.9705 36.6525 29.1354 36.6374 29.3006C36.626 29.4662 36.6474 29.6013 36.7997 29.6905C36.9519 29.7797 37.0939 29.8832 37.2256 30.0008C37.4018 30.1618 37.5101 30.1321 37.6583 29.9575C38.9713 28.4147 39.7172 26.6217 39.9405 24.6218C40.0722 23.3921 40.0795 22.1694 39.8849 20.9409C39.848 20.7075 39.9563 20.6778 40.1401 20.6487L49.9661 19.0924C50.1499 19.0633 50.2292 19.0885 50.2623 19.2973L51.2954 25.8205C51.3396 26.1787 51.2262 26.3352 50.8587 26.3934L48.8739 26.7077C48.8056 26.7185 48.7442 26.7344 48.6642 26.755ZM48.2666 14.6266L43.8682 15.3233L43.854 15.3129L39.4801 16.0057C39.1248 16.062 39.1228 16.0497 39.0683 15.7057L38.8465 14.3053C38.8018 14.0227 38.8327 13.98 39.1267 13.9335L43.8314 13.1883L47.7765 12.5635C48.0951 12.513 48.279 12.6434 48.3283 12.9546L48.5345 14.2568C48.5851 14.5762 48.5851 14.5762 48.2666 14.6266ZM40.8114 21.9527L41.1869 24.3236L41.1708 24.301L41.5502 26.6965C41.5716 26.8317 41.6116 26.9261 41.7954 26.8969L44.307 26.4991C44.4418 26.4778 44.534 26.4254 44.5087 26.2657C44.4712 26.108 44.5594 26.031 44.7065 26.0077L46.9363 25.6546C47.0833 25.6313 47.1769 25.6668 47.1899 25.8285C47.2068 26.0147 47.3107 26.036 47.47 26.0108L49.9081 25.6246C50.1164 25.5916 50.1924 25.5166 50.1574 25.2955L49.4102 20.5782C49.3791 20.3816 49.2836 20.3338 49.0998 20.3629L46.6127 20.7568C46.4657 20.7801 46.3858 20.8305 46.4252 21.0006C46.4589 21.1338 46.4093 21.2172 46.2623 21.2405L43.9957 21.5995C43.9222 21.6111 43.7719 21.5342 43.7621 21.4728C43.7232 21.2271 43.5884 21.2484 43.4169 21.2756L41.0278 21.654C40.8318 21.685 40.7802 21.7561 40.8114 21.9527ZM44.2239 22.9611L45.3633 22.7807L45.3492 22.7703L46.4396 22.5976C46.6214 22.5562 46.6821 22.6222 46.7093 22.7941L46.9117 24.0718C46.937 24.2315 46.8996 24.3129 46.7281 24.3401L44.5105 24.6913C44.3409 24.7308 44.2558 24.6687 44.2285 24.4967L44.0262 23.2191C44.0009 23.0594 44.0647 22.9864 44.2239 22.9611Z" fill="#FB897A"/>
<path d="M7.23742 12.7991C7.31813 12.7596 7.25122 12.7032 7.04325 12.763C7.00703 12.8089 6.95667 12.857 6.92045 12.9029C7.02944 12.8589 7.12843 12.8432 7.23742 12.7991Z" fill="#FB897A"/>
<path d="M5.77752 13.1911C5.5923 13.3945 5.47605 13.6672 5.65781 13.6251C5.74991 13.3829 5.83683 13.3825 5.98342 13.1183C6.16485 12.9825 6.34868 12.9534 6.32867 13.0101C6.3911 12.9466 6.64356 12.8933 6.74428 12.797C6.44112 12.8048 6.06172 12.972 5.81614 13.2519C5.73337 13.2784 5.78165 13.2172 5.77752 13.1911Z" fill="#FB897A"/>
<path d="M17.4991 38.3245C17.3859 38.3424 17.3455 38.3614 17.3474 38.3737C17.4464 38.358 17.5293 38.3323 17.4991 38.3245Z" fill="#FB897A"/>
<path d="M19.9073 38.0635C19.9073 38.0635 19.8083 38.0792 19.7659 38.0859C19.8224 38.077 19.8809 38.0803 19.9073 38.0635Z" fill="#FB897A"/>
<path d="M7.30512 33.8209L7.31648 34.1672C7.31648 34.1672 7.3158 33.9799 7.30512 33.8209Z" fill="#FB897A"/>
<path d="M4.91834 15.7506C4.91834 15.7506 4.89972 15.6331 4.86694 15.5847L4.89177 15.7414L4.91627 15.7376L4.91834 15.7506Z" fill="#FB897A"/>
<path d="M6.31832 28.1401L6.30178 28.0356C6.30178 28.0356 6.26315 27.9748 6.24487 27.9509L6.31832 28.1401Z" fill="#FB897A"/>
<path d="M5.59494 23.7563C5.61149 23.8608 5.71461 23.8713 5.76324 23.9037C5.71255 23.8582 5.68599 23.7821 5.65737 23.6929C5.64323 23.6951 5.61495 23.6996 5.59288 23.7433L5.59494 23.7563Z" fill="#FB897A"/>
<path d="M6.78778 31.2787C6.78778 31.2787 6.76354 31.3087 6.75142 31.3237C6.75142 31.3237 6.77768 31.3064 6.78778 31.2787Z" fill="#FB897A"/>
<path d="M12.7537 12.139L12.7517 12.1267C12.7272 12.1306 12.7169 12.1448 12.7537 12.139Z" fill="#FB897A"/>
<path d="M7.19795 12.5512L7.26866 12.54C7.26866 12.54 7.27659 12.4986 7.27452 12.4855L7.18381 12.5535L7.19795 12.5512Z" fill="#FB897A"/>
<path d="M61.8919 27.5718C61.8733 28.0031 61.6713 26.9106 61.6716 27.5531C61.7036 27.4811 61.9181 28.1031 61.8919 27.5718Z" fill="#FB897A"/>
<path d="M34.3834 35.8368C34.3834 35.8368 34.3228 35.8202 34.2783 35.8142C34.2783 35.8142 34.3106 35.8352 34.3834 35.8368Z" fill="#FB897A"/>
<path d="M38.2656 35.0889C38.3646 35.0732 38.4109 35.091 38.5343 35.0463L38.4919 35.053C38.4919 35.053 38.3788 35.0709 38.2656 35.0889Z" fill="#FB897A"/>
<path d="M42.3239 34.445L42.2532 34.4562C42.2532 34.4562 42.1664 34.4574 42.124 34.4641L42.322 34.4328L42.3239 34.445Z" fill="#FB897A"/>
<path d="M25.0957 10.1448C25.0067 10.1321 24.946 10.115 24.8994 10.0956C24.9663 10.1519 24.3765 10.2721 25.0957 10.1448Z" fill="#FB897A"/>
<path d="M4.87975 15.7567C4.87975 15.7567 4.91631 15.8045 4.93872 15.8545L4.92011 15.7369C4.92011 15.7369 4.89183 15.7414 4.87769 15.7437L4.87975 15.7567Z" fill="#FB897A"/>
<path d="M40.8813 33.9382C40.9986 33.9464 41.13 33.9524 41.2594 33.9453C41.2876 33.9408 41.3138 33.9233 41.3259 33.908L40.8813 33.9382Z" fill="#FB897A"/>
<path d="M20.6752 10.9787C21.2833 10.8824 20.9394 10.8164 21.0705 10.7287C21.7996 10.573 21.4244 10.7663 21.6892 10.7913C22.1376 10.6935 22.4725 10.52 22.8119 10.4662C22.8443 10.4879 22.915 10.4767 22.8202 10.5185C23.2865 10.3509 24.2625 10.29 24.8075 10.0698C24.8499 10.0631 24.8682 10.087 24.8823 10.0848C24.7871 10.0329 24.7647 9.98291 24.7706 9.92843C25.0393 9.88587 25.2672 9.76944 25.3928 9.82988C25.2231 9.85676 25.2131 9.88512 25.1324 9.92468L25.409 9.8407C25.6821 9.91793 25.0193 9.94259 25.0317 10.021C25.5911 9.89219 26.2271 9.69774 26.6696 9.65443C26.771 9.74547 25.6718 9.85263 26.2519 9.85446L25.5811 9.92055C26.117 10.0097 25.171 9.9855 25.6645 10.0814C26.5454 9.96863 26.6461 9.87235 27.527 9.75961C27.7146 9.66296 27.4418 9.67939 27.6294 9.58273C28.8573 9.28116 28.6486 9.70246 29.545 9.41322C29.773 9.29678 29.8371 9.15274 30.4979 9.11502L30.2924 9.28145C31.1408 9.14707 30.7442 9.02246 31.6496 8.97278C31.5023 9.04966 30.9911 9.11723 31.1205 9.11013C31.7168 9.12279 31.5202 8.97988 31.9586 8.91045L32.0762 9.01231C32.9609 8.83203 33.9728 8.6316 34.9706 8.4334C34.9202 8.48154 34.7547 8.53453 34.9871 8.53788C36.2374 8.28631 37.6901 8.12316 38.9165 7.99585L39.3687 7.83052C39.4818 7.8126 39.5729 7.83834 39.4639 7.88238C39.9509 7.84541 39.4818 7.8126 39.7019 7.73759C39.9705 7.69503 40.0637 7.73383 39.8981 7.78683C40.72 7.57633 42.261 7.23854 43.1664 7.18886L43.0008 7.24186C43.6999 7.1713 43.7475 6.92278 44.3983 6.91341L44.2711 6.93357C45.7783 6.7484 47.4203 6.408 48.5744 6.37249C48.7637 6.19523 50.0695 6.20262 50.1233 5.99328C50.9862 5.95032 50.752 6.02757 51.9643 5.9025C52.2896 5.85099 52.4265 5.70881 52.8183 5.61998L52.8349 5.72446L53.3698 5.53263L53.6712 5.60538L54.0348 5.52103C53.8934 5.54343 53.7175 5.53112 53.7254 5.4897C54.311 5.34339 55.1519 5.34409 55.1198 5.41611C55.5037 5.3687 55.9162 5.41047 56.2966 5.52426C56.2583 5.5571 56.06 5.4948 55.8982 5.48025C56.5232 5.58209 55.9734 5.58884 56.5177 5.73023C56.4649 5.67165 56.5842 5.69291 56.6125 5.68843C56.8436 5.86604 57.314 6.27349 57.5378 6.67984L57.4305 6.64328C57.6461 6.99739 57.6919 7.37838 57.7929 7.92466C57.8736 8.43401 57.9705 8.95418 58.0694 9.4874C58.0377 9.10418 58.1936 9.1732 58.2553 9.47135L58.1608 9.60681C58.2626 9.79151 58.1515 9.27359 58.3026 9.67807C58.3646 10.0699 58.2167 9.95943 58.1391 9.74413L58.258 10.2206C58.258 10.2206 58.1891 10.1512 58.1404 10.1188C58.2422 10.3035 58.1576 10.9595 58.3163 11.2289L58.2921 11.2595C58.4738 12.3151 58.5645 12.7961 58.7152 13.6558C58.8162 13.6532 58.8417 13.9973 58.9679 14.245C59.0389 14.8764 59.0658 15.5951 59.202 16.3634C59.3292 16.8921 59.3116 16.5067 59.4054 16.7328C59.3268 16.7854 59.4468 17.5429 59.3282 17.1601C59.4871 18.072 59.5285 18.3332 59.7812 19.4713C59.8029 19.334 59.7964 19.2012 59.835 19.262C59.8822 19.4687 59.8691 19.7519 59.8205 19.7195L59.8122 19.6672C60.1443 20.94 60.0193 22.7136 60.3666 23.7163L60.3583 23.664L60.6127 24.7215C60.6772 25.2201 60.4945 24.4323 60.4958 24.807C60.8355 25.9447 60.7571 26.6399 61.0213 27.5754C60.9795 27.7694 60.9926 28.0351 61.024 28.3247C61.0491 28.575 61.0502 28.856 60.9946 29.146C60.8977 29.7236 60.4955 30.296 60.0757 30.483L60.1506 30.4979C60.0078 30.6946 59.8964 30.6319 59.7491 30.7088C59.7977 30.7413 59.9954 30.6162 59.8967 30.7256C59.4652 31.0215 58.9865 31.1107 58.3481 31.1984C57.74 31.2947 57.1279 31.3649 56.5177 31.4482C55.2813 31.6039 54.0448 31.7595 52.8367 31.9107C51.9437 32.0388 52.3752 32.2917 51.2494 32.3228L51.544 32.169C49.7829 32.5818 47.8956 32.7468 46.1587 33.129C46.2536 33.0873 46.2636 33.0589 46.4333 33.032C46.0532 33.0119 45.0616 33.2493 45.072 33.3146C44.8033 33.3571 45.0071 33.2713 44.8312 33.259C44.4553 33.265 43.9145 33.5113 43.7041 33.4643C43.6758 33.4688 43.799 33.4225 43.8697 33.4113C43.6355 33.4885 42.7384 33.5905 42.9912 33.6307C42.3345 33.6946 41.7389 33.8692 41.2074 33.8999C40.8846 34.0581 40.082 34.0246 39.9916 34.1861C40.0113 34.0358 38.8276 34.25 38.4137 34.3825C38.5489 34.3209 38.0378 34.3885 38.1992 34.3094C37.7326 34.3833 37.2983 34.4788 37.3956 34.5438C36.4899 34.4998 35.6649 34.9652 35.1348 34.8215C33.7473 35.1216 32.4404 35.3821 31.1881 35.6207C31.2078 35.4703 32.586 35.3859 32.5046 35.2381C31.313 35.4938 30.6387 35.7211 29.4467 35.8831C29.1315 35.9062 29.6061 35.7909 29.7151 35.7469C28.5234 36.0025 27.3939 36.1011 26.3458 36.3474C26.3437 36.3344 26.4547 36.3034 26.5658 36.2724C26.3537 36.306 26.0667 36.3247 26.1054 36.3855L26.3175 36.3519C26.6693 36.3765 25.5121 36.6669 25.478 36.7259C25.8005 36.474 24.4091 36.8416 24.9517 36.5147C24.8103 36.5371 24.6468 36.6031 24.6833 36.6509C24.4692 36.6714 24.4085 36.6543 24.6123 36.5684C23.869 36.7263 24.1481 36.7491 23.4552 36.8588C23.451 36.8327 23.5904 36.7972 23.6549 36.7469C23.3258 36.8659 22.9827 36.9872 22.3987 37.0529C22.425 37.0354 22.3643 37.0182 22.5339 36.9913C21.5441 37.1481 20.8781 37.4276 19.7789 37.5348C20.0814 37.3396 19.403 37.5408 19.3278 37.4322L18.7542 37.5632L19.005 37.5904C18.4959 37.6711 18.0579 37.8342 17.6133 37.8644L17.9868 37.7517L17.0294 37.9301L17.575 37.8972C17.0621 38.0454 17.6564 38.045 16.9714 38.1133C17.1128 38.0909 16.4624 38.194 16.1813 38.1582C15.9329 38.2376 15.6846 38.3171 15.2987 38.3515C15.1935 38.328 15.3628 38.2075 15.288 38.1925C15.05 38.3373 14.0902 38.409 13.7956 38.5628C13.8905 38.521 13.8943 38.4534 13.8498 38.4471L13.6501 38.5591C13.4055 38.571 13.3752 38.5624 13.4093 38.5035C12.7002 38.6024 13.6604 38.6244 12.8016 38.6934C12.8723 38.6822 12.8278 38.6759 12.9672 38.6404C12.1084 38.7095 11.3192 39.0353 10.577 38.9253C10.3825 38.7954 11.2137 38.9182 10.9768 38.795C9.96244 38.8888 8.78018 38.3798 8.3605 37.469L8.44395 37.6298C8.17701 37.5918 8.20705 36.9578 8.07395 36.4835C8.09464 36.6141 8.19983 36.6376 8.17948 36.6007C8.09813 35.904 7.91366 35.1969 7.69162 34.1611L7.75472 34.2849C7.73302 33.8734 7.61338 33.2095 7.5572 32.7632C7.49409 32.6394 7.45479 32.3912 7.40684 32.5461C7.46038 31.1453 6.85586 29.9826 6.89181 28.7452C6.91456 28.8888 6.98801 29.078 6.96939 28.9605L6.76563 27.9485C6.69319 28.0403 6.74389 28.0858 6.70835 28.3191C6.64524 28.1952 6.55731 27.9146 6.51801 27.6664C6.64697 28.1146 6.64528 27.6463 6.6546 27.4306C6.63253 27.4742 6.59184 27.4004 6.56769 27.431C6.62429 26.8731 6.38352 27.3664 6.36667 26.6194L6.4153 26.6518C6.34358 26.382 6.24771 26.1429 6.21428 25.8402C6.29464 25.707 6.30221 26.1208 6.39119 26.1335C6.325 25.7156 6.07911 25.3529 6.11811 24.9585C6.16328 25.1521 6.22672 25.3697 6.26982 25.5503C6.31882 25.1275 6.28227 25.0797 6.24883 24.7771L6.25297 24.8032L6.18369 24.0913L6.18437 24.2786C5.86124 23.7943 5.9744 23.2274 5.69508 22.5621C5.95819 23.2166 5.79854 22.6662 5.91994 22.7006C5.91926 22.5132 5.90617 22.2476 5.961 22.3192C5.82445 22.0061 5.94483 21.7595 5.7431 21.3095C5.76724 21.2789 5.68725 20.9568 5.7845 21.0218C5.68796 20.5953 5.74449 21.1352 5.69586 21.1027C5.47724 20.4546 5.59111 19.5262 5.28456 18.5974C5.08354 17.7858 4.94766 17.6601 4.76905 16.8985C4.78425 16.6283 4.92942 17.0873 4.92942 17.0873C4.91979 16.6604 4.856 16.3492 4.75359 15.9772C4.79428 16.0511 4.81015 15.9682 4.83396 15.844C4.78638 15.5436 4.65946 15.6574 4.72467 15.2454C4.76536 15.3193 4.82226 15.404 4.87123 15.5301C4.81745 15.1906 4.79195 14.8465 4.89371 14.4823C4.98443 14.4144 4.90267 14.7219 4.92335 14.8525C4.96028 14.445 5.28969 13.8707 5.30936 13.7203C5.23279 13.786 5.18657 13.8603 5.11 13.926C5.20451 13.7905 5.22312 13.908 5.17897 13.9954C5.05893 14.3357 4.91579 14.4387 4.87544 14.4585L4.96547 14.2032C4.61643 14.379 4.62775 15.2742 4.7367 15.779L4.55806 15.5664C4.61737 15.7578 4.68875 15.9339 4.76014 16.11C4.73633 16.2343 4.6639 16.3261 4.60839 16.0671C4.59974 16.4701 4.7208 16.4108 4.68767 16.7507C4.69387 16.7899 4.67766 16.7791 4.65732 16.7421L4.75973 17.1142C4.71903 17.0403 4.67108 17.1952 4.64799 16.9578C4.67278 17.6635 4.93694 18.05 4.86519 18.3292L4.85691 18.2769C5.05034 19.2236 4.97038 18.3527 5.21141 19.0508L5.01927 19.5766L5.14688 19.6501C5.16343 19.7546 5.19239 19.9374 5.13169 19.9203C5.26031 20.2747 5.16377 19.8482 5.26964 20.0591C5.24512 20.5449 5.51891 21.3584 5.36577 21.4897C5.47751 21.6461 5.34994 21.0236 5.50131 21.5218C5.34024 21.6946 5.62268 22.105 5.60609 22.5495C5.48642 22.4345 5.47679 22.0076 5.46228 22.4651C5.6592 22.7017 5.56845 23.3185 5.65465 23.6797C5.78399 23.6726 5.83739 24.4674 5.97704 25.0745C5.92841 25.0421 6.08836 26.235 6.13696 26.8164L6.10868 26.8209C6.25042 26.8921 6.31523 27.4843 6.41177 27.9108C6.32485 27.9112 6.28416 27.8373 6.21865 27.6067L6.28277 28.0116C6.33967 28.0963 6.38864 28.2224 6.44415 28.4814L6.32862 28.3926C6.41343 28.9281 6.61343 29.4587 6.66443 30.1467C6.75548 30.1725 6.83209 29.5579 7.00449 30.2803C6.9662 30.3132 6.8855 30.3527 6.82826 30.1744C6.8386 30.2397 6.90584 30.3897 6.89825 30.5247L6.76789 30.2509C6.77512 30.571 6.86549 30.4094 6.89065 30.6598C6.81995 30.671 6.86305 30.8516 6.81442 30.8192C6.80408 30.7539 6.80753 30.5927 6.76477 30.5057C6.81028 30.793 6.8075 31.1416 6.76955 31.2681C6.80784 31.2352 6.86854 31.2524 6.90164 31.4613C6.98644 31.9968 6.84575 31.6576 6.86711 31.9756C6.93022 32.0994 6.94158 32.4457 7.04263 32.4431C7.06746 32.5998 7.02917 32.6327 7.01123 32.7024C7.09709 32.97 7.21602 33.9954 7.29364 33.6618L7.2833 33.5965L7.2895 33.6357C7.53328 34.5342 7.53288 35.5384 7.71803 36.4328L7.68974 36.4373C7.77249 36.9597 8.00352 37.6862 8.33598 37.9548C8.42944 38.0873 8.54945 38.2959 8.4584 38.2702C8.80913 38.5627 8.84362 38.5974 9.40888 38.963C8.96156 38.7929 9.51648 39.0933 8.97157 38.7645C9.45992 39.1022 9.5958 39.228 10.2852 39.2794C10.0307 39.3197 10.7367 39.4757 11.0599 39.4111C10.9122 39.3943 10.7646 39.3775 10.6149 39.3477C10.9505 39.3615 11.2516 39.3406 11.5365 39.3088C11.4862 39.357 11.4499 39.4029 11.3975 39.438C12.6202 39.3782 13.4976 38.8777 14.4378 38.9564C14.7365 38.8288 13.779 39.0072 14.0474 38.871C14.6009 38.7967 15.1914 38.8638 15.3611 38.837C16.1209 38.7836 16.0291 38.5705 16.8272 38.4843C16.722 38.4608 16.6065 38.3719 17.1942 38.2387C17.7478 38.1644 17.8837 38.2902 17.5505 38.3831C17.4232 38.4032 17.3525 38.4144 17.3625 38.3861C17.1949 38.426 16.9566 38.4772 17.177 38.4958L17.2415 38.4454C17.5163 38.442 18.2658 38.3233 18.1064 38.4155C18.5103 38.3114 18.2658 38.3233 17.9668 38.3573C18.6679 38.2998 19.0556 38.1849 19.783 38.1098C19.6657 38.1016 19.5464 38.0804 19.6737 38.0602C20.7425 37.9445 20.1279 37.9079 20.847 37.7806C21.2674 37.781 20.7284 37.9467 21.4413 37.7802C21.8858 37.75 21.5568 37.869 21.3771 37.9243C22.0152 37.7429 22.6156 37.7817 22.9854 37.7365L22.6501 37.8164C22.8602 37.7697 23.0299 37.7428 23.1995 37.716L22.9892 37.669C23.1892 37.6507 23.373 37.6215 23.3651 37.663C23.5689 37.5771 23.1889 37.557 23.5886 37.4267C23.8635 37.4234 24.4026 37.2577 24.5181 37.3465C23.6634 37.4417 24.6336 37.4353 23.9145 37.5626C24.0559 37.5402 24.2256 37.5133 24.4236 37.4819C24.4519 37.4774 24.3994 37.5125 24.3429 37.5215C25.1775 37.483 24.6919 37.3457 25.5404 37.2113C25.4355 37.2815 25.7549 37.2845 25.8942 37.249C25.5549 37.3028 25.7101 37.1845 26.027 37.0807C26.5706 37.0348 26.6147 36.9475 26.8996 36.9157L26.5702 36.9411C26.6751 36.871 26.9438 36.8284 27.3235 36.7549C27.358 36.7896 26.9883 36.8347 27.1197 36.8407C27.5273 36.669 28.0836 36.7951 28.6531 36.638C28.928 36.6346 28.6979 36.738 28.9424 36.726C29.5805 36.5447 29.6619 36.6924 30.3444 36.5174C30.1341 36.4704 30.1078 36.4879 30.5783 36.3465L29.4553 36.5779L30.1579 36.3461C29.8185 36.3999 29.445 36.5126 29.2449 36.5309C29.574 36.4118 29.5498 36.4424 29.3698 36.404C29.855 36.4476 30.2786 36.1931 30.8404 36.1711L30.8714 36.367C31.6778 36.333 32.2831 36.0363 33.3378 35.9228L32.9922 35.9374C33.1212 35.8366 33.6427 35.8343 33.9759 35.7414C33.9579 35.8112 34.1742 35.8037 34.3218 35.8205C34.2994 35.7705 35.0995 35.6973 35.1637 35.5533L35.6448 35.5708C36.4995 35.4756 36.5916 35.2334 37.4159 35.1296C37.1858 35.233 37.5618 35.227 37.0186 35.3666C37.2872 35.324 37.5418 35.2837 37.5376 35.2576C37.6994 35.2721 38.2868 35.0452 38.5375 35.0725C38.6465 35.0284 38.6786 34.9564 38.9755 34.9094C39.0059 34.918 38.9797 34.9355 38.9797 34.9355C38.9755 34.9094 39.4542 34.8202 39.1731 34.7844C40.0526 34.8459 41.5185 34.3995 42.2807 34.4528C42.8725 34.3457 43.5896 34.2054 44.1248 34.1072C44.0986 34.1247 44.129 34.1333 44.03 34.149C44.7898 34.0956 44.4535 33.8945 45.3265 33.8232C45.7814 33.8582 44.8822 33.9471 45.1571 33.9437C45.3033 34.1347 46.1853 33.7541 46.7695 33.782L46.6281 33.8044C47.0789 33.8134 47.6783 33.5711 48.4016 33.47C48.4016 33.47 48.3753 33.4875 48.4057 33.4961C48.8841 33.3132 49.797 33.1285 50.4716 32.9949C50.2719 33.1068 50.1667 33.0833 50.3085 33.1546C50.6196 33.1053 50.203 33.0374 50.8069 32.915C51.0111 32.9228 51.4577 32.9056 51.5408 32.9728L50.961 33.0646C51.2766 33.1351 51.7105 32.9459 52.0257 32.9227L51.9916 32.9817C52.8804 32.8275 52.8738 32.6947 53.8233 32.5577L53.7182 32.5342C54.2207 32.3207 54.1669 32.5301 54.6756 32.3558L54.8518 32.4617C55.1871 32.3819 56.0331 32.1408 56.6532 32.0292C56.3142 32.1766 55.6013 32.343 55.1712 32.4647C55.5106 32.411 56.3307 32.2811 56.5022 32.1736C56.3608 32.196 56.1973 32.262 56.0538 32.2714C56.4615 32.0997 57.0047 31.9601 57.6855 31.8657C57.6055 32.0926 59.4497 31.7469 60.0677 31.6222C61.2318 31.0095 62.232 29.8202 62.0487 28.2962C61.901 28.8284 61.9845 27.8914 61.7748 28.0317C61.7273 27.7313 61.7086 27.6138 61.7045 27.5876L61.687 26.6533C61.7084 26.4223 61.7749 26.9339 61.8273 26.8988C61.736 26.2305 61.8687 26.6111 61.8691 26.1559C61.8129 26.2585 61.7187 25.9387 61.6891 25.5685L61.6749 26.1197C61.4149 25.2103 61.7326 25.2939 61.4726 24.3845L61.5909 24.6737C61.4719 24.1972 61.3116 22.9106 61.0675 22.4673C61.0833 22.3845 61.1213 22.258 61.1685 22.4647C61.0168 21.324 60.5834 19.9601 60.5417 19.0564L60.6128 19.1388C60.5655 18.9321 60.4559 18.7888 60.469 18.5056C60.4993 18.5142 60.54 18.5881 60.5255 18.4966C60.4928 18.3813 60.3376 17.9507 60.3345 17.6567L60.4283 17.8828C60.3232 16.7615 60.0159 16.1943 59.8266 15.2738C59.9822 15.2491 59.9002 14.3651 59.846 13.9319L59.8743 13.9274C59.6858 12.6453 59.4016 11.7665 59.1547 10.574C59.1796 10.1818 59.0945 9.55265 59.001 8.87128C58.9473 8.53172 58.8893 8.16603 58.8356 7.82647C58.7838 7.49996 58.7683 7.12756 58.668 6.76859C58.7011 6.97755 58.5507 6.76039 58.4307 6.5518C58.3366 6.23202 57.8582 5.86598 57.9976 5.83053L58.0707 5.92605C58.0273 5.65179 57.4879 5.17493 56.9737 4.94845L56.8043 5.06899C56.5125 4.87422 56.1138 4.73655 55.6731 4.69926C55.2302 4.64891 54.7536 4.75118 54.4021 4.82023C53.6427 4.96729 52.9539 5.10316 52.5838 5.05467C52.2789 5.14312 51.8971 5.20359 51.6085 5.30287L51.594 5.21145C50.7555 5.31747 50.3292 5.3716 49.2728 5.56569L49.4746 5.4668C48.8807 5.56086 48.7665 5.84671 48.2171 5.94711L48.0246 5.83033C46.9924 5.99382 45.9132 6.04426 44.9137 6.32306C44.9237 6.2947 44.9457 6.25104 45.1154 6.22416C44.6205 6.30255 43.2061 6.43286 43.4189 6.58658C43.4003 6.46904 42.3442 6.7568 41.7989 6.88333L41.8692 6.77847C41.4212 6.96992 41.3971 7.00052 40.7528 7.14273C40.5973 7.16736 40.599 7.08676 40.8152 7.07929C40.2838 7.10991 40.4196 7.23566 39.7892 7.28196L40.0213 7.19165C39.4839 7.27676 39.5305 7.29616 39.2439 7.40849C38.9107 7.50142 38.2216 7.54363 38.1243 7.4787C38.0619 7.54214 37.7753 7.65448 37.4601 7.67763C37.4135 7.65823 37.5225 7.61419 37.577 7.59217C36.6758 7.66797 36.2643 7.90718 35.6276 7.91431C35.6235 7.88819 35.5649 7.88409 35.5204 7.87775C36.2274 7.76576 36.8072 7.67393 36.7527 7.69595C36.7403 7.61759 36.1564 7.6833 36.6065 7.50491C36.1502 7.64412 35.379 7.90014 34.8213 7.94831C34.793 7.95279 34.7626 7.94421 34.7464 7.93339L34.803 7.92443C34.6737 7.93153 34.5626 7.9625 34.4495 7.98042C34.2636 7.99648 34.1484 8.00133 33.9787 8.02821C33.8976 7.97411 33.3079 8.0943 33.025 8.13909C33.0678 8.22603 32.6839 8.27344 33.0499 8.29581C33.0074 8.30253 33.1064 8.28685 33.2882 8.24468C33.3306 8.23796 33.373 8.23124 33.4155 8.22452C33.4155 8.22452 33.4155 8.22452 33.4013 8.22676C33.5852 8.19764 33.8397 8.15733 34.1084 8.11477C33.8904 8.20285 33.6562 8.2801 33.3368 8.27714C33.1895 8.35401 33.0302 8.44619 32.9636 8.48351C32.547 8.41562 31.7872 8.46902 31.6617 8.40858C30.7932 8.59968 29.6033 8.77475 29.0787 9.03188C28.8283 9.09832 28.7876 9.02444 28.6845 9.01399C28.8238 8.97854 28.9935 8.95166 29.0742 8.9121C28.5855 9.02967 27.6057 9.15809 27.4991 9.30885C26.8686 9.35515 27.8361 9.14837 26.9755 9.29805L27.0825 9.24096C25.3545 9.31382 24.3746 9.99114 22.4405 10.0431C22.5698 10.036 22.6426 10.0379 22.6729 10.0465C20.507 10.2824 18.2634 10.852 16.1154 11.0181C15.5011 11.0753 15.457 11.1626 15.0997 11.2861L14.9559 11.2018L14.3523 11.4179C13.4738 11.6373 12.7716 11.4139 11.6673 11.7628L11.819 11.8057C11.4089 11.8707 10.5384 12.0487 10.5967 11.9591C10.5543 11.9659 10.4798 12.0446 10.3059 12.0454L10.2977 11.9931L9.30815 12.2436C8.5242 12.3276 9.40232 12.0144 8.27106 12.1936C7.85097 12.2869 7.10599 12.5254 7.26774 12.54C7.43743 12.5131 7.71024 12.4966 7.71852 12.5489L7.34085 12.6355C7.29497 12.8034 7.02284 13.0072 7.98682 12.9616L8.62282 12.7671L8.84734 12.8119L8.29585 12.8992C8.61936 12.9283 8.80492 12.8186 9.02703 12.7567C9.0898 12.7869 9.17878 12.7996 9.30812 12.7925L9.9217 12.548C10.0169 12.5999 9.6575 12.7104 10.0879 12.6823C10.3745 12.57 9.78443 12.5965 10.2711 12.4659C10.5925 12.4819 10.518 12.5607 10.8753 12.4371C10.9381 12.4674 10.8574 12.5069 10.7181 12.5424C11.035 12.4386 11.5765 12.3796 11.7338 12.2744C12.0735 12.3143 12.8326 12.0736 12.8271 12.2217C12.9199 12.1669 13.3883 12.0124 13.6852 11.9653C13.1606 12.2225 14.8165 11.7861 14.692 12.0067C15.0772 11.785 16.1523 11.7085 16.859 11.5028C16.8165 11.5095 16.752 11.5599 16.6793 11.558C17.0894 11.4931 17.2128 11.5405 17.4715 11.5263C17.5074 11.3867 18.1254 11.2621 18.4524 11.1299C18.9659 11.1691 18.1782 11.3206 18.3544 11.4266C18.3096 11.3266 19.2005 11.1855 19.0163 11.121C19.4105 11.1389 19.3477 11.1086 19.5623 11.1818C19.6081 11.0138 19.9116 11.0996 20.2062 10.9459C20.7701 10.9369 20.3704 11.0672 20.9722 10.9317C21.2633 10.9391 20.7342 11.0765 20.7342 11.0765L20.6752 10.9787ZM34.9989 8.42892C34.8716 8.44908 34.7726 8.46475 34.7019 8.47595C34.7585 8.46699 34.8433 8.45356 34.9989 8.42892ZM36.2008 8.23855C36.0594 8.26094 35.8756 8.29006 35.6776 8.32141C35.6311 8.30201 35.6673 8.25611 35.7945 8.23596C35.728 8.27327 36.0129 8.24154 36.2008 8.23855ZM33.54 8.00398C33.738 7.97262 33.7945 7.96367 33.8269 7.98531C33.7421 7.99874 33.629 8.01666 33.4876 8.03906L33.4593 8.04354C33.4593 8.04354 33.4976 8.0107 33.5238 7.99316L33.54 8.00398Z" fill="#FB897A"/>
<path d="M33.2208 8.17479C33.2208 8.17479 33.1784 8.18151 33.136 8.18823C33.1784 8.18151 33.2228 8.18708 33.253 8.19488L33.3198 8.15912L33.2208 8.17479Z" fill="#FB897A"/>
<path d="M52.9005 5.76642L52.8966 5.74185L52.7873 5.78433L52.9005 5.76642Z" fill="#FB897A"/>
<path d="M6.67623 27.4675C6.67623 27.4675 6.68228 27.4264 6.68832 27.3853C6.68832 27.3853 6.68228 27.4264 6.67623 27.4675Z" fill="#FB897A"/>
<path d="M6.27044 24.8138L6.25287 24.4283C6.26562 24.6004 6.2701 24.7201 6.27044 24.8138Z" fill="#FB897A"/>
<path d="M6.00454 22.7669C6.00454 22.7669 5.9702 22.7331 5.95605 22.7354L6.00454 22.7669Z" fill="#FB897A"/>
<path d="M26.6019 36.3062L26.6867 36.2927C26.8808 36.2368 26.7555 36.2693 26.6019 36.3062Z" fill="#FB897A"/>
<path d="M16.1848 38.1701C16.2959 38.1394 16.407 38.1088 16.5181 38.0781C16.3343 38.1072 16.1929 38.1296 16.1848 38.1701Z" fill="#FB897A"/>
<path d="M16.9988 38.0014C16.8131 38.0183 16.6575 38.0429 16.5181 38.0776C16.6736 38.0529 16.8452 38.0383 16.9988 38.0014Z" fill="#FB897A"/>
<path d="M5.27633 14.1406L5.32154 14.0665C5.32154 14.0665 5.32154 14.0665 5.31947 14.0535C5.29583 14.084 5.28608 14.1123 5.27633 14.1406Z" fill="#FB897A"/>
<path d="M5.31905 14.0537L5.36219 13.9665C5.36219 13.9665 5.31698 14.0406 5.31905 14.0537Z" fill="#FB897A"/>
<path d="M5.49248 13.7718C5.49248 13.7718 5.41004 13.892 5.3759 13.9509C5.42419 13.8897 5.48455 13.8132 5.49248 13.7718Z" fill="#FB897A"/>
<path d="M5.03247 16.6296L5.07878 16.6475C5.07878 16.6475 5.06075 16.6252 5.03247 16.6296Z" fill="#FB897A"/>
<path d="M5.16289 17.4521C5.13186 17.2562 5.15499 16.9446 5.09948 16.6857L5.06706 16.664C5.14431 16.7857 5.07737 17.2782 5.16289 17.4521Z" fill="#FB897A"/>
<path d="M5.26556 20.9436L5.18421 20.247C5.1604 20.3712 5.1428 20.5347 5.07902 20.2234C5.10241 21.1033 5.1349 20.0272 5.26349 20.9306L5.26556 20.9436Z" fill="#FB897A"/>
<path d="M5.54623 23.0813C5.47417 22.7178 5.48967 23.0902 5.47346 23.0794C5.53897 23.31 5.56139 23.36 5.54623 23.0813Z" fill="#FB897A"/>
<path d="M8.55528 38.4157L8.4563 38.4314C8.70978 38.659 8.48458 38.4269 8.55528 38.4157Z" fill="#FB897A"/>
<path d="M11.6322 38.8117L11.327 38.8065L11.21 38.892L11.6322 38.8117Z" fill="#FB897A"/>
<path d="M13.6226 39.1108L13.4812 39.1332L13.9864 39.028L13.6226 39.1108Z" fill="#FB897A"/>
<path d="M41.6158 34.6384L41.5003 34.5496C41.2903 34.5963 41.2665 34.7205 41.6158 34.6384Z" fill="#FB897A"/>
<path d="M53.6895 32.6193C53.8251 32.6514 54.1686 32.6237 54.3745 32.551C54.1058 32.5935 53.8289 32.5838 53.6895 32.6193Z" fill="#FB897A"/>
<path d="M56.1633 4.67521L56.4444 4.71102C56.2644 4.6726 56.0985 4.63193 55.9226 4.61963L56.1633 4.67521Z" fill="#FB897A"/>
<path d="M57.2103 2.40801C57.1155 2.44981 57.1824 2.50615 57.451 2.4636C57.5155 2.41322 57.5842 2.38896 57.6487 2.33858C57.5052 2.34792 57.3517 2.38562 57.2103 2.40801Z" fill="#FB897A"/>
<path d="M58.9505 2.86854C59.254 2.95435 59.5982 3.11404 59.5065 2.90098C59.1726 2.80659 59.132 2.73271 58.766 2.71034C58.5191 2.61557 58.3349 2.55103 58.3873 2.51595C58.2863 2.51856 57.9666 2.42193 57.8172 2.48575C58.1652 2.5779 58.5718 2.67415 59.015 2.81816C59.084 2.88757 58.993 2.86182 58.9667 2.87936L58.9505 2.86854Z" fill="#FB897A"/>
<path d="M55.3595 33.9199C55.4726 33.902 55.5272 33.8808 55.5253 33.8685C55.4121 33.8864 55.3292 33.9121 55.3595 33.9199Z" fill="#FB897A"/>
<path d="M52.6683 34.2267C52.6683 34.2267 52.7673 34.211 52.8239 34.202C52.7673 34.211 52.6947 34.2099 52.6683 34.2267Z" fill="#FB897A"/>
<path d="M63.4643 25.7836L63.4839 26.1821C63.4839 26.1821 63.4812 25.9817 63.4643 25.7836Z" fill="#FB897A"/>
<path d="M60.7414 5.59717C60.729 5.51881 60.7064 5.45545 60.6838 5.39209L60.7149 5.58799L60.7394 5.58411L60.7414 5.59717Z" fill="#FB897A"/>
<path d="M62.3556 19.4254L62.3369 19.3078C62.3369 19.3078 62.2983 19.247 62.28 19.2231L62.3556 19.4254Z" fill="#FB897A"/>
<path d="M61.566 14.5301C61.5826 14.6346 61.6878 14.6581 61.7385 14.7037C61.6857 14.6451 61.6591 14.569 61.6305 14.4798C61.6164 14.482 61.5881 14.4865 61.5681 14.5432L61.566 14.5301Z" fill="#FB897A"/>
<path d="M62.8815 22.9303C62.8815 22.9303 62.8573 22.9603 62.8452 22.9753C62.8452 22.9753 62.8714 22.958 62.8815 22.9303Z" fill="#FB897A"/>
<path d="M51.04 3.17114L51.042 3.18343C51.0665 3.17955 51.0768 3.16532 51.04 3.17114Z" fill="#FB897A"/>
<path d="M57.2496 2.65595L57.1648 2.66939C57.1648 2.66939 57.1568 2.71081 57.1589 2.72387L57.2496 2.65595Z" fill="#FB897A"/>
<path d="M6.07021 37.6448C6.05983 38.1285 5.83504 36.8922 5.84982 37.6262C5.8819 37.5542 6.10673 38.2415 6.07021 37.6448Z" fill="#FB897A"/>
<path d="M36.4946 36.7219C36.4946 36.7219 36.5694 36.7362 36.6138 36.7423C36.6138 36.7423 36.5815 36.7212 36.4946 36.7219Z" fill="#FB897A"/>
<path d="M32.1607 37.5415C32.0476 37.5594 32.0013 37.5415 31.8496 37.5908L31.8921 37.584C31.8921 37.584 32.0193 37.5639 32.1466 37.5437L32.1607 37.5415Z" fill="#FB897A"/>
<path d="M27.6221 38.2612L27.7069 38.2478C27.7069 38.2478 27.8078 38.2444 27.8503 38.2377L27.624 38.2735L27.6221 38.2612Z" fill="#FB897A"/>
<path d="M37.2596 5.39365C37.3627 5.40409 37.4234 5.42125 37.4841 5.43841C37.403 5.38431 38.0635 5.25292 37.2596 5.39365Z" fill="#FB897A"/>
<path d="M60.6889 5.60568C60.6889 5.60568 60.7416 5.66426 60.752 5.72956L60.7292 5.5859C60.7292 5.5859 60.6989 5.57732 60.6889 5.60568Z" fill="#FB897A"/>
<path d="M29.2221 38.7574C29.0907 38.7515 28.9451 38.7477 28.8016 38.7571C28.7734 38.7615 28.733 38.7813 28.7209 38.7966L29.2221 38.7574Z" fill="#FB897A"/>
<path d="M42.1878 4.47936C41.4949 4.58911 41.8811 4.64842 41.7501 4.73612C40.9361 4.9052 41.3538 4.70517 41.0606 4.68466C40.5557 4.79141 40.1784 4.97166 39.7966 5.03213C39.7642 5.01049 39.6935 5.02169 39.7742 4.98213C39.2513 5.15866 38.1621 5.23745 37.5606 5.4666C37.5182 5.47332 37.4858 5.45168 37.4716 5.45392C37.5809 5.50354 37.6034 5.55354 37.5975 5.60802C37.2864 5.6573 37.0443 5.77597 36.9046 5.71777C37.0884 5.68865 37.0984 5.66029 37.1933 5.61849L36.8742 5.70919C36.5587 5.63868 37.3064 5.60058 37.294 5.52222C36.678 5.65994 35.9572 5.86783 35.4722 5.91786C35.3567 5.82905 36.5973 5.6995 35.9323 5.7111L36.688 5.63158C36.0955 5.55139 37.1405 5.55991 36.5904 5.473C35.6106 5.60142 35.4957 5.69993 34.5159 5.82835C34.2999 5.92949 34.601 5.90857 34.3993 6.00747C33.03 6.33144 33.267 5.90566 32.2575 6.21282C32.0012 6.33374 31.9229 6.48002 31.1772 6.53118L31.4111 6.36026C30.4637 6.51032 30.9027 6.62821 29.8842 6.69581C30.0598 6.61445 30.6275 6.53793 30.484 6.54726C29.817 6.54581 30.0418 6.68423 29.5469 6.76262L29.4293 6.66076C28.4315 6.85896 27.3065 7.07731 26.1955 7.29343C26.2459 7.24529 26.4397 7.18781 26.179 7.18894C24.7732 7.46515 23.1649 7.65294 21.7829 7.80488L21.2742 7.97917C21.1469 7.99933 21.0417 7.97583 21.1649 7.92955C20.6213 7.97548 21.1469 7.99933 20.8986 8.07883C20.6017 8.12586 20.4944 8.0893 20.6741 8.03406C19.7532 8.26024 18.0284 8.62714 17.024 8.6925L17.2179 8.63502C16.4481 8.71679 16.3863 8.96755 15.6506 8.99035L15.7921 8.96795C14.1152 9.17999 12.2751 9.55175 10.9797 9.60966C10.7621 9.7914 9.31489 9.8064 9.24694 10.018C8.28502 10.0766 8.54749 9.99489 7.19377 10.1424C6.84025 10.1983 6.67504 10.345 6.24081 10.4406L6.22426 10.3361L5.63276 10.5369L5.2889 10.4708L4.88296 10.5619C5.05265 10.535 5.24268 10.5451 5.22061 10.5888C4.89951 10.6664 4.49943 10.703 4.18419 10.7261C3.84068 10.7538 3.54372 10.8008 3.52544 10.7769C2.95221 11.0016 2.47451 11.3718 2.12648 11.8285C2.11821 11.7763 2.29929 11.5468 2.46037 11.374C1.89711 12.1192 2.20377 11.4013 1.78605 12.1502C1.85849 12.0584 1.79847 12.2286 1.81674 12.2524C1.68395 12.4207 1.52942 12.7264 1.458 13.0991C1.38451 13.4589 1.42656 13.9074 1.49828 14.1772L1.40896 14.0708C1.56237 15.1309 1.80303 16.2843 1.97506 17.462C1.93715 17.0396 2.09304 17.1086 2.16303 17.459L2.07266 17.6206C2.17853 17.8314 2.05716 17.2482 2.2144 17.6918C2.28473 18.1359 2.13471 18.0124 2.05092 17.7579L2.17815 18.2867C2.17815 18.2867 2.10711 18.2042 2.05848 18.1717C2.16435 18.3826 2.09222 19.1169 2.25499 19.4124L2.23085 19.443C2.43115 20.6162 2.53217 21.1625 2.69732 22.1137C2.79837 22.111 2.83008 22.4943 2.96043 22.7682C3.04385 23.4779 3.08311 24.2749 3.23171 25.1216C3.36928 25.7157 3.34345 25.278 3.44345 25.5433C3.36481 25.5959 3.50133 26.4578 3.37444 26.0228C3.54992 27.0392 3.59543 27.3265 3.87092 28.6083C3.89059 28.4579 3.87991 28.299 3.9206 28.3728C3.97197 28.6057 3.96299 28.915 3.91436 28.8826L3.90402 28.8173C4.26089 30.2468 4.16695 32.2163 4.53281 33.3365L4.52247 33.2712L4.79762 34.4593C4.87036 35.01 4.6752 34.1439 4.68277 34.5578C5.0431 35.8261 4.97717 36.5996 5.25992 37.6527C5.19885 38.0907 5.31261 38.809 5.45087 39.5904C5.62601 40.5132 6.36645 41.2528 6.94585 41.6162L6.90309 41.5292C7.25315 41.6344 7.28591 41.7497 7.53285 41.8445C7.51043 41.7945 7.18452 41.6587 7.41111 41.7165C8.1195 41.9792 9.00037 41.8664 9.61843 41.7418C10.2972 41.6343 10.9801 41.5529 11.675 41.4562C13.0529 41.2781 14.4449 41.0978 15.7945 40.9242C16.7864 40.7805 16.3126 40.5343 17.5797 40.4808L17.2427 40.6413C19.2159 40.1949 21.3294 39.994 23.2643 39.5805C23.1553 39.6245 23.1594 39.6506 22.9615 39.682C23.384 39.6954 24.4887 39.4401 24.4783 39.3748C24.7894 39.3255 24.5573 39.4159 24.7473 39.4259C25.1657 39.4132 25.7631 39.1579 26.0017 39.2005C26.0442 39.1938 25.8928 39.2445 25.8079 39.2579C26.0704 39.1762 27.0664 39.0586 26.7995 39.0206C27.541 38.9433 28.1932 38.7597 28.7954 38.7178C29.1607 38.5529 30.0622 38.5707 30.1526 38.4092C30.1188 38.5618 31.458 38.3229 31.9143 38.1837C31.765 38.2475 32.3327 38.171 32.1571 38.2523C32.6803 38.1695 33.1711 38.065 33.0597 38.0023C34.0644 38.0306 35.0025 37.5473 35.5751 37.6842C37.1323 37.3572 38.5805 37.0743 39.9884 36.8112C39.9546 36.9638 38.4208 37.0728 38.5163 37.2184C39.8494 36.9403 40.6085 36.6996 41.9419 36.5151C42.2854 36.4875 41.7542 36.6118 41.6453 36.6558C42.9783 36.3778 44.2351 36.259 45.4246 35.9903C45.4267 36.0034 45.3015 36.0366 45.1763 36.0698C45.4167 36.0317 45.7319 36.0086 45.6933 35.9478L45.4671 35.9836C45.0729 35.9657 46.3714 35.6529 46.4055 35.594C46.0406 35.8526 47.5875 35.4603 46.9884 35.7962C47.144 35.7715 47.3357 35.701 47.285 35.6555C47.5133 35.6327 47.5882 35.6476 47.3702 35.7357C48.2125 35.5622 47.891 35.5461 48.6546 35.4252C48.6587 35.4513 48.5053 35.489 48.4266 35.5416C48.7981 35.4158 49.1837 35.2878 49.8242 35.2132C49.7838 35.2329 49.8728 35.2456 49.6748 35.277C50.7778 35.1023 51.5287 34.8093 52.7551 34.682C52.4243 34.8817 53.1735 34.6693 53.2628 34.7756L53.9071 34.6334L53.628 34.6107C54.1937 34.5211 54.6883 34.3491 55.1894 34.3098L54.7734 34.4293L55.844 34.2329L55.2277 34.277C55.7971 34.1199 55.1463 34.1292 55.902 34.0497C55.7464 34.0744 56.4676 33.9601 56.7911 33.9892C57.0677 33.9052 57.3585 33.819 57.7727 33.7802C57.892 33.8015 57.7085 33.9242 57.7834 33.9392C58.0496 33.7899 59.1226 33.7003 59.4596 33.5398C59.3506 33.5838 59.3468 33.6514 59.3913 33.6577L59.6193 33.5413C59.8921 33.5249 59.9224 33.5334 59.8883 33.5924C60.6822 33.48 59.6089 33.476 60.5667 33.3912C60.496 33.4024 60.5263 33.411 60.3729 33.4487C60.8557 33.3856 61.3061 33.3009 61.7587 33.2292C62.197 33.1598 62.6837 33.0292 63.0851 32.8183C63.4187 32.819 62.3488 33.2027 62.674 33.1512C63.3442 32.8978 63.9002 32.3813 64.1971 31.7854C64.5083 31.1872 64.5442 30.4987 64.439 29.9263L64.4721 30.1353C64.2493 30.0099 64.4105 29.2882 64.2487 28.7248C64.2715 28.8684 64.3767 28.8919 64.3563 28.855C64.2626 28.08 64.0636 27.2814 63.823 26.128L63.8881 26.265C63.8582 25.8012 63.7261 25.059 63.6637 24.5735C63.5985 24.4366 63.553 24.1492 63.5092 24.3302C63.5379 22.7727 62.9107 21.4663 62.9239 20.0853C62.9487 20.242 63.0263 20.4573 63.0076 20.3398L62.7853 19.2102C62.7149 19.3151 62.7656 19.3606 62.7342 19.62C62.669 19.483 62.5749 19.1632 62.5314 18.889C62.6687 19.3894 62.6587 18.8688 62.666 18.6401C62.6439 18.6837 62.6032 18.6099 62.577 18.6274C62.6232 18.0042 62.3907 18.5498 62.3615 17.7244L62.4101 17.7568C62.3343 17.4609 62.2322 17.1826 62.1946 16.8538C62.2729 16.7075 62.2887 17.1736 62.3757 17.1732C62.3033 16.7161 62.047 16.2881 62.0798 15.8545C62.1271 16.0613 62.1967 16.318 62.244 16.5247C62.2847 16.0497 62.2481 16.0019 62.2085 15.6601L62.2147 15.6993L62.133 14.909L62.1357 15.1093C61.8043 14.5728 61.9072 13.9407 61.6134 13.1839C61.8889 13.9168 61.7189 13.3011 61.8403 13.3354C61.8375 13.135 61.8182 12.8302 61.8731 12.9018C61.7303 12.5496 61.8466 12.2768 61.6366 11.7745C61.6607 11.7439 61.5745 11.3827 61.6718 11.4476C61.5669 10.9689 61.6338 11.5741 61.5852 11.5417C61.3562 10.8282 61.4515 9.78228 61.1284 8.74904C60.9129 7.84603 60.7729 7.69416 60.5818 6.85421C60.5929 6.55793 60.7463 7.06913 60.7463 7.06913C60.7305 6.60307 60.6605 6.25268 60.5498 5.82842C60.5926 5.91536 60.6064 5.81946 60.6281 5.68214C60.5723 5.32951 60.4636 5.46721 60.4478 5.00115C60.5026 5.07279 60.5757 5.16831 60.645 5.33138C60.5385 4.93323 60.4582 4.51754 60.2606 4.09365C60.2823 3.95633 60.4433 4.33246 60.5106 4.48246C60.4237 3.93394 59.8795 3.24364 59.6733 3.22275C59.7322 3.32051 59.8174 3.40074 59.8602 3.48768C59.7364 3.34663 59.8699 3.36566 59.9733 3.46976C60.302 3.80595 60.2544 4.05447 60.2444 4.08283C60.1854 3.98507 60.1406 3.88507 60.0837 3.80037C60.1233 4.14217 60.4619 4.99891 60.545 5.61498L60.3622 5.37617L60.5888 5.9829C60.5671 6.12022 60.4967 6.22508 60.435 5.92694C60.4346 6.38218 60.5536 6.30978 60.5287 6.70197C60.5349 6.74115 60.5187 6.73033 60.4984 6.69338L60.6091 7.11765C60.5684 7.04377 60.5204 7.19863 60.4932 6.93519C60.5304 7.71918 60.8028 8.15799 60.7352 8.46323L60.7249 8.39793C60.9369 9.46214 60.8404 8.48673 61.0939 9.26324L60.91 9.84126L61.0397 9.92783C61.0562 10.0323 61.0914 10.2543 61.0286 10.2241C61.1634 10.6178 61.0607 10.1521 61.1686 10.376C61.1544 10.9271 61.4427 11.832 61.2916 11.9764C61.4075 12.1589 61.2675 11.4581 61.4293 12.0216C61.2702 12.2074 61.561 12.6701 61.5527 13.1668C61.4309 13.0388 61.4151 12.5727 61.4068 13.0694C61.6078 13.3321 61.5274 14.0142 61.6198 14.4146C61.7492 14.4075 61.8171 15.2937 61.967 15.9661C61.9184 15.9337 62.1011 17.2703 62.158 17.9039L62.1297 17.9084C62.2735 17.9927 62.3487 18.6502 62.4535 19.1289C62.3666 19.1293 62.3238 19.0423 62.2542 18.7856L62.3245 19.2297C62.3835 19.3274 62.4345 19.4666 62.4941 19.7517L62.3765 19.6498C62.4717 20.2506 62.68 20.8335 62.7313 21.6152C62.8224 21.6409 62.8886 20.9611 63.0734 21.7618C63.0351 21.7947 62.9565 21.8473 62.8931 21.6297C62.9034 21.695 62.9748 21.8712 62.9693 22.0193L62.8327 21.7062C62.8461 22.0656 62.9324 21.8779 62.9637 22.1675C62.893 22.1787 62.9403 22.3854 62.8916 22.3529C62.8813 22.2876 62.8806 22.1003 62.8358 22.0003C62.8854 22.3137 62.8889 22.7014 62.853 22.841C62.8913 22.8082 62.952 22.8253 62.9892 23.0604C63.0843 23.6612 62.9375 23.2828 62.9629 23.6268C63.0281 23.7638 63.0457 24.1493 63.1467 24.1466C63.1736 24.3164 63.1374 24.3623 63.1195 24.4321C63.2115 24.7388 63.3491 25.8818 63.4205 25.509L63.4081 25.4306C63.4081 25.4306 63.4122 25.4568 63.4164 25.4829C63.6767 26.4859 63.6949 27.6076 63.8966 28.6065L63.8683 28.611C63.9918 29.2073 64.1238 29.9495 64.2324 30.3607C64.2452 30.5327 64.1531 30.7749 64.1244 30.6857C64.0754 31.1085 64.1344 31.2062 63.7543 31.735C63.9206 31.3204 63.6415 31.8466 63.9347 31.3182C63.6515 31.8182 63.5305 31.8776 63.1117 32.3455C63.2283 32.1664 62.7041 32.5172 62.4274 32.6012C62.5547 32.581 62.6941 32.5456 62.8293 32.484C62.5509 32.6485 62.2864 32.7172 62.0036 32.762L62.1263 32.6221C60.8351 32.7061 59.7879 33.2334 58.7467 33.1574C58.4056 33.2917 59.4762 33.0954 59.1795 33.2361C58.5694 33.3193 57.9083 33.2634 57.7244 33.2925C56.8798 33.3593 56.9715 33.5724 56.0886 33.6721C56.2079 33.6933 56.3234 33.7821 55.6792 33.9244C55.069 34.0076 54.9049 33.8863 55.2805 33.7867C55.4219 33.7643 55.4926 33.7531 55.4967 33.7792C55.6926 33.7348 55.9451 33.6814 55.6964 33.6673L55.6178 33.7199C55.3146 33.7277 54.4662 33.8621 54.6538 33.7654C54.1934 33.8785 54.4662 33.8621 54.8076 33.8214C54.0216 33.8924 53.5915 34.014 52.7793 34.1025C52.9107 34.1085 53.03 34.1297 52.9028 34.1499C51.7208 34.2835 52.392 34.3111 51.6021 34.4496C51.1393 34.456 51.7491 34.2791 50.9513 34.459C50.4502 34.4982 50.8358 34.3702 51.0155 34.3149C50.2926 34.5097 49.6356 34.4799 49.2093 34.5341L49.5869 34.4475C49.3627 34.4964 49.1648 34.5277 48.9809 34.5568L49.2196 34.5994C48.9913 34.6221 48.7933 34.6535 48.8012 34.6121C48.5691 34.7024 49.0058 34.7136 48.5495 34.8528C48.2463 34.8606 47.6365 35.0375 47.521 34.9487C48.4746 34.8379 47.4054 34.8599 48.1953 34.7214C48.0397 34.7461 47.8559 34.7752 47.6296 34.811C47.6013 34.8155 47.6538 34.7804 47.7245 34.7692C46.805 34.8212 47.3189 34.954 46.3856 35.1018C46.4904 35.0316 46.1569 35.0309 46.0034 35.0686C46.3852 35.0081 46.2017 35.1309 45.8565 35.2391C45.2422 35.2963 45.2122 35.3813 44.8849 35.4198L45.2567 35.3877C45.1377 35.4601 44.8408 35.5071 44.4186 35.5874C44.37 35.5549 44.7963 35.5008 44.6366 35.4993C44.1865 35.6777 43.5595 35.5628 42.9194 35.7311C42.6162 35.739 42.8745 35.6311 42.6017 35.6475C41.8788 35.8424 41.7974 35.6946 41.0442 35.8808C41.2828 35.9234 41.309 35.9058 40.782 36.0562L42.0323 35.8047L41.2449 36.0499C41.6267 35.9894 42.0426 35.87 42.2709 35.8472C41.8995 35.973 41.9236 35.9424 42.1178 35.9785C41.576 35.9439 41.0959 36.2073 40.4775 36.2384L40.4464 36.0425C39.5411 36.0921 38.8651 36.4 37.6831 36.5337L38.0711 36.5124C37.928 36.6154 37.3499 36.6266 36.9744 36.7263C37.0064 36.6542 36.7619 36.6662 36.586 36.6539C36.6084 36.7039 35.7234 36.7905 35.631 36.939L35.0933 36.9305C34.1397 37.0413 34.0334 37.2858 33.1243 37.403C33.3826 37.2951 32.9642 37.3078 33.564 37.1593C33.2529 37.2086 32.9842 37.2511 32.9884 37.2772C32.7983 37.2672 32.1544 37.503 31.8613 37.4825C31.7381 37.5288 31.706 37.6008 31.3667 37.6546C31.3222 37.6482 31.3625 37.6285 31.3625 37.6285C31.3667 37.6546 30.8314 37.7528 31.1408 37.7841C30.1764 37.736 28.5126 38.2137 27.6656 38.1738C27.003 38.2922 26.2011 38.4459 25.5952 38.5553C25.6355 38.5355 25.591 38.5292 25.7041 38.5113C24.8595 38.5781 25.224 38.7747 24.2663 38.8595C23.7689 38.8312 24.7671 38.7266 24.4497 38.7367C24.2894 38.5479 23.3085 38.9443 22.6535 38.9275L22.8091 38.9029C22.3017 38.9029 21.6316 39.1563 20.8235 39.2709C20.8235 39.2709 20.8639 39.2511 20.8194 39.2448C20.2844 39.4366 19.2583 39.6393 18.4989 39.7864C18.7269 39.6699 18.8462 39.6912 18.6762 39.6244C18.3368 39.6782 18.7958 39.7393 18.1212 39.8729C17.8888 39.8696 17.3856 39.8958 17.3166 39.8263L17.9671 39.7233C17.6232 39.6573 17.1328 39.8555 16.7892 39.8831L16.8234 39.8241C15.8356 39.994 15.8421 40.1268 14.7654 40.284L14.8847 40.3052C14.3256 40.5277 14.3794 40.3183 13.8141 40.5016L13.6238 40.3978C13.2461 40.4844 12.3011 40.7412 11.6102 40.864C11.9917 40.7099 12.7895 40.53 13.2761 40.3994C12.8943 40.4598 11.9752 40.6054 11.7896 40.7151C11.9451 40.6905 12.1369 40.62 12.2804 40.6106C11.8303 40.789 11.2164 40.9398 10.4648 41.0454C10.5749 40.7335 8.40649 41.4116 8.02506 41.0168C7.45082 40.9605 6.92005 40.6296 6.61312 40.1561C6.4607 39.9258 6.35862 39.6475 6.31312 39.3601C6.25933 39.0206 6.20555 38.681 6.1497 38.3284C6.01826 38.8713 6.08351 37.9105 5.86967 38.0247C5.81589 37.6851 5.7952 37.5545 5.79106 37.5284L5.75699 36.4895C5.77425 36.2324 5.85112 36.8093 5.90148 36.7612C5.79978 36.0276 5.93668 36.4343 5.93085 35.9399C5.87669 36.0555 5.77635 35.6966 5.73844 35.2742L5.73254 35.8776C5.456 34.8637 5.77571 34.9603 5.4971 33.9334L5.61952 34.2488C5.49229 33.72 5.30717 32.2767 5.05474 31.7811C5.06854 31.6852 5.10442 31.5457 5.15579 31.7785C4.98136 30.4941 4.52309 28.9736 4.46487 27.9653L4.53591 28.0478C4.48454 27.8149 4.37073 27.6455 4.38179 27.3493C4.41214 27.3578 4.45283 27.4317 4.43628 27.3272C4.40146 27.1989 4.23801 26.716 4.23079 26.3959L4.33079 26.6612C4.20498 25.4093 3.88738 24.7768 3.67947 23.7387C3.83502 23.714 3.73644 22.7256 3.67405 22.2401L3.70233 22.2356C3.48893 20.7968 3.18825 19.8135 2.91863 18.4773C2.95593 17.6146 2.54253 15.6451 2.43052 14.2973C2.43534 14.5107 2.29705 14.2783 2.24568 14.0454C2.19189 13.7059 2.06293 13.2577 2.21262 13.2875L2.22709 13.379C2.33954 13.1737 2.40028 12.642 2.67794 12.2901L2.56621 12.1337C3.0477 11.696 3.66888 11.3165 4.52147 11.2082C5.36578 11.0477 6.13938 10.8984 6.53773 10.9424L7.64038 10.6741L7.65486 10.7655C8.59229 10.6438 9.07514 10.5807 10.2447 10.3687L10.0146 10.4721C10.6793 10.3668 10.8076 10.0787 11.4277 9.96712L11.6343 10.0817C12.7938 9.89801 13.9861 9.82966 15.1129 9.5307C15.1029 9.55906 15.0667 9.60496 14.8829 9.63408C15.4344 9.54673 17.0043 9.39179 16.7774 9.2403C16.796 9.35784 17.9794 9.04993 18.5954 8.9122L18.5108 9.0193C19.0154 8.81889 19.0396 8.78829 19.7687 8.63264C19.9384 8.60577 19.9367 8.68637 19.6921 8.69832C20.2802 8.65874 20.1302 8.53523 20.8455 8.47549L20.5851 8.57028C21.179 8.47622 21.1324 8.45682 21.4473 8.34C21.8229 8.24035 22.5827 8.18695 22.6941 8.24963C22.7707 8.18395 23.0856 8.06714 23.4432 8.03727C23.4898 8.05667 23.3667 8.10295 23.3122 8.12496C24.3265 8.03125 24.7804 7.78532 25.4878 7.76699C25.5061 7.79087 25.5506 7.79722 25.6092 7.80132C24.8173 7.92674 24.1668 8.02976 24.2355 8.00551C24.2479 8.08387 24.9025 8.00696 24.3958 8.19431C24.9087 8.04614 25.7647 7.77668 26.3931 7.71731C26.4214 7.71284 26.4518 7.72142 26.4821 7.73L26.4114 7.7412C26.5549 7.73186 26.6801 7.69864 26.8074 7.67848C27.0074 7.66019 27.1367 7.65309 27.3347 7.62174C27.4158 7.67584 28.0762 7.54445 28.4015 7.49294C28.3587 7.406 28.785 7.35187 28.3766 7.33622C28.4332 7.32726 28.3201 7.34518 28.11 7.39183C28.0676 7.39855 28.0111 7.40751 27.9686 7.41423L27.9969 7.40975C27.7848 7.44335 27.5161 7.4859 27.205 7.53517C27.4513 7.44262 27.7138 7.36088 28.0756 7.35713C28.237 7.27801 28.4105 7.1836 28.5053 7.1418C28.9644 7.20297 29.8231 7.13389 29.9487 7.19434C30.9161 6.98756 32.2474 6.79009 32.8427 6.52176C33.1214 6.45084 33.1762 6.52249 33.2794 6.53293C33.1259 6.57063 32.9279 6.60198 32.8472 6.64154C33.3925 6.51501 34.4996 6.36644 34.6062 6.21568C35.3215 6.15593 34.2268 6.38287 35.1863 6.21751L35.0652 6.27685C36.9911 6.17263 38.0983 5.47515 40.2446 5.38959C40.1011 5.39892 40.0283 5.39706 39.9838 5.39072C42.4043 5.11445 44.9166 4.50235 47.305 4.2981C47.9899 4.22978 48.0482 4.14022 48.448 4.00997L48.6059 4.09205L49.2943 3.86253C50.2718 3.62739 51.0588 3.83743 52.2905 3.46832L52.1246 3.42765C52.5771 3.35598 53.5466 3.16226 53.4883 3.25182C53.5307 3.2451 53.6194 3.16413 53.8073 3.16113L53.8156 3.21337L54.9324 2.94278C55.8012 2.84534 54.8241 3.17413 56.0826 2.9748C56.5451 2.87477 57.3891 2.62061 57.2132 2.60831C57.0294 2.63742 56.7283 2.65833 56.7058 2.60833L57.1259 2.51502C57.1718 2.3471 57.4864 2.13663 56.4093 2.20012L55.6884 2.40801L55.4356 2.36772L56.0578 2.26918C55.6919 2.24681 55.4922 2.35876 55.2418 2.4252C55.179 2.39498 55.0759 2.38453 54.9183 2.39611L54.2198 2.65399C54.1247 2.60213 54.5265 2.48494 54.0395 2.52191C53.7104 2.64096 54.3854 2.601 53.828 2.74283C53.4642 2.73352 53.5528 2.65254 53.1531 2.78279C53.0903 2.75257 53.171 2.71301 53.3386 2.67307C52.9793 2.78355 52.3812 2.85149 52.1956 2.96121C51.8135 2.92802 50.9695 3.18218 50.9751 3.03404C50.8681 3.09114 50.3432 3.25461 50.018 3.30612C50.5991 3.04003 48.7594 3.50545 48.8981 3.28267C48.4704 3.51106 47.2681 3.60778 46.4766 3.82686C46.519 3.82014 46.5976 3.76752 46.6704 3.76938C46.2179 3.84105 46.0803 3.79591 45.7792 3.81682C45.7433 3.95638 45.0404 4.09449 44.671 4.23332C44.1009 4.20313 44.9876 4.03591 44.7973 3.93218C44.8421 4.03218 43.8522 4.18896 44.0505 4.25127C43.6139 4.2401 43.6767 4.27032 43.448 4.19943C43.4021 4.36735 43.0562 4.28826 42.7192 4.44874C42.0988 4.46668 42.5409 4.32971 41.8684 4.4764C41.6021 4.62567 42.1878 4.47936 42.1878 4.47936ZM26.1814 7.29567C26.3228 7.27327 26.4359 7.25535 26.5066 7.24415C26.4359 7.25535 26.3369 7.27103 26.1814 7.29567ZM24.838 7.50844C25.0077 7.48156 25.2057 7.4502 25.4178 7.41661C25.4644 7.43601 25.4281 7.48191 25.2867 7.50431C25.3533 7.46699 25.0401 7.5032 24.838 7.50844ZM27.7958 7.69597C27.5837 7.72956 27.513 7.74076 27.4806 7.71912C27.5796 7.70344 27.6927 7.68553 27.8482 7.66089L27.8765 7.65641C27.8765 7.65641 27.8382 7.68925 27.7979 7.70903L27.7958 7.69597Z" fill="#FB897A"/>
<path d="M28.1585 7.51642C28.1585 7.51642 28.2151 7.50746 28.2434 7.50298C28.2009 7.5097 28.1566 7.50413 28.1122 7.49857L28.0454 7.53434L28.1585 7.51642Z" fill="#FB897A"/>
<path d="M6.20142 10.2861L6.20531 10.3107L6.31454 10.2682L6.20142 10.2861Z" fill="#FB897A"/>
<path d="M62.7025 18.6876C62.7025 18.6876 62.7085 18.6465 62.7125 18.5923C62.7125 18.5923 62.7064 18.6334 62.7025 18.6876Z" fill="#FB897A"/>
<path d="M62.2613 15.7187L62.2375 15.2941C62.2523 15.4791 62.2589 15.612 62.2613 15.7187Z" fill="#FB897A"/>
<path d="M61.9437 13.4383C61.9437 13.4383 61.9094 13.4045 61.8953 13.4067L61.9437 13.4383Z" fill="#FB897A"/>
<path d="M45.1823 36.109L45.0833 36.1247C44.8609 36.1851 45.0145 36.1482 45.1823 36.109Z" fill="#FB897A"/>
<path d="M56.8161 34.0523C56.6909 34.0852 56.5656 34.1181 56.4404 34.1511C56.6525 34.1175 56.808 34.0928 56.8161 34.0523Z" fill="#FB897A"/>
<path d="M55.903 34.2367C56.117 34.2154 56.2867 34.1885 56.4403 34.1516C56.2706 34.1784 56.0707 34.1975 55.903 34.2367Z" fill="#FB897A"/>
<path d="M60.1391 3.5104L60.0639 3.40181C60.0639 3.40181 60.0639 3.40181 60.0498 3.40405L60.1391 3.5104Z" fill="#FB897A"/>
<path d="M60.0502 3.40415C60.0502 3.40415 59.9813 3.33475 59.9468 3.30005C59.9975 3.34557 60.034 3.39333 60.0502 3.40415Z" fill="#FB897A"/>
<path d="M59.7297 3.12012C59.8108 3.17422 59.8798 3.24362 59.9487 3.31302C59.8777 3.23056 59.7904 3.13728 59.7297 3.12012Z" fill="#FB897A"/>
<path d="M60.8574 6.58301L60.9059 6.61455C60.9059 6.61455 60.8877 6.59128 60.8574 6.58301Z" fill="#FB897A"/>
<path d="M61.0167 7.49519C60.9816 7.27316 61.0006 6.93546 60.9388 6.63732L60.9064 6.61568C60.9857 6.75038 60.9291 7.30824 61.0188 7.50825L61.0167 7.49519Z" fill="#FB897A"/>
<path d="M61.1703 11.3931L61.0765 10.618C61.0548 10.7554 61.0413 10.9449 60.9714 10.5945C61.0113 11.5789 61.0252 10.3852 61.1703 11.3931Z" fill="#FB897A"/>
<path d="M61.4903 13.779C61.41 13.3634 61.4338 13.788 61.4176 13.7772C61.4872 14.0339 61.5117 14.097 61.4903 13.779Z" fill="#FB897A"/>
<path d="M64.0913 30.9318L64.0102 30.8777C63.9688 31.1654 64.0406 30.8863 64.0913 30.9318Z" fill="#FB897A"/>
<path d="M61.8901 33.3289C62.0053 33.324 62.1226 33.3322 62.2498 33.312L62.405 33.1937C62.2254 33.249 62.0577 33.2889 61.888 33.3158L61.8901 33.3289Z" fill="#FB897A"/>
<path d="M59.7042 33.0718L59.8437 33.0371L59.282 33.1513L59.7042 33.0718Z" fill="#FB897A"/>
<path d="M28.4147 38.0548L28.5302 38.1436C28.7544 38.0947 28.7923 37.9682 28.4147 38.0548Z" fill="#FB897A"/>
<path d="M14.9268 40.2984C14.7772 40.2686 14.3912 40.3029 14.157 40.3802C14.454 40.3332 14.7734 40.3361 14.9268 40.2984Z" fill="#FB897A"/>
<path d="M3.0997 11.9288C3.0997 11.9288 3.00105 12.0381 2.95276 12.0993C3.03727 11.9922 3.13798 11.896 3.25491 11.8105C3.20248 11.8456 3.15005 11.8807 3.08556 11.931L3.0997 11.9288Z" fill="#FB897A"/>
</g>
<defs>
<clipPath id="clip0_14199_74470">
<rect width="60" height="34" fill="white" transform="translate(0.709961 9.90234) rotate(-9)"/>
</clipPath>
</defs>
</svg>
