<svg width="66" height="44" viewBox="0 0 66 44" fill="none" xmlns="http://www.w3.org/2000/svg">
<g clip-path="url(#clip0_14268_81628)">
<rect width="60" height="34" transform="translate(0.709961 9.90234) rotate(-9)" fill="white"/>
<path d="M7.21648 12.6616C7.29841 12.6235 7.23772 12.5577 7.02094 12.6171C6.97773 12.6617 6.93452 12.7062 6.89325 12.763C6.9997 12.721 7.10809 12.6913 7.21648 12.6616Z" fill="#FB897A"/>
<path d="M5.75831 13.0561C5.57709 13.2607 5.45655 13.5311 5.65076 13.4878C5.75066 13.2458 5.82616 13.2464 5.97315 12.9843C6.15183 12.8429 6.33766 12.8261 6.3209 12.879C6.37443 12.8202 6.64025 12.753 6.73894 12.662C6.43889 12.6718 6.06213 12.832 5.80674 13.1238C5.72481 13.1619 5.76219 13.0806 5.77057 13.0541L5.75831 13.0561Z" fill="#FB897A"/>
<path d="M17.4653 38.0946C17.3549 38.1121 17.3201 38.1302 17.3098 38.1444C17.4079 38.1289 17.4917 38.103 17.4653 38.0946Z" fill="#FB897A"/>
<path d="M19.8754 37.8388C19.8754 37.8388 19.7773 37.8543 19.7283 37.8621C19.7773 37.8543 19.8405 37.8568 19.8754 37.8388Z" fill="#FB897A"/>
<path d="M7.28019 33.6131L7.29778 33.9622C7.29778 33.9622 7.29511 33.7866 7.28019 33.6131Z" fill="#FB897A"/>
<path d="M4.90522 15.604C4.89551 15.5427 4.8858 15.4814 4.85352 15.4363L4.87876 15.5956L4.90328 15.5918L4.90522 15.604Z" fill="#FB897A"/>
<path d="M6.29324 27.9384L6.27576 27.828C6.27576 27.828 6.24154 27.7706 6.21313 27.75L6.29324 27.9384Z" fill="#FB897A"/>
<path d="M5.57764 23.5779C5.59318 23.6759 5.69708 23.6972 5.73968 23.7281C5.69319 23.6727 5.65897 23.6152 5.63117 23.5191C5.60665 23.523 5.59439 23.5249 5.56538 23.5798L5.57764 23.5779Z" fill="#FB897A"/>
<path d="M6.76407 31.0684C6.76407 31.0684 6.74344 31.0968 6.73312 31.111C6.74538 31.1091 6.7557 31.0949 6.76407 31.0684Z" fill="#FB897A"/>
<path d="M12.7417 12.0003L12.7398 11.988C12.7152 11.9919 12.7049 12.0061 12.7417 12.0003Z" fill="#FB897A"/>
<path d="M7.17773 12.4165L7.25128 12.4049C7.25128 12.4049 7.25772 12.3662 7.25384 12.3416L7.16547 12.4185L7.17773 12.4165Z" fill="#FB897A"/>
<path d="M61.8473 27.358C61.8275 27.7884 61.6282 26.689 61.6311 27.342C61.6582 27.2749 61.8817 27.893 61.8473 27.358Z" fill="#FB897A"/>
<path d="M34.351 35.6089C34.351 35.6089 34.2858 35.5941 34.2471 35.5876C34.2471 35.5876 34.2755 35.6083 34.351 35.6089Z" fill="#FB897A"/>
<path d="M38.228 34.8564C38.3261 34.8409 38.3668 34.8596 38.4977 34.8137L38.461 34.8196C38.461 34.8196 38.3506 34.837 38.228 34.8564Z" fill="#FB897A"/>
<path d="M42.2857 34.2139L42.2083 34.201C42.2083 34.201 42.1225 34.2146 42.0857 34.2205L42.2941 34.1875L42.2857 34.2139Z" fill="#FB897A"/>
<path d="M25.0789 9.99584C24.9892 9.98491 24.924 9.9701 24.8814 9.93915C24.9524 9.99074 24.3556 10.1104 25.0789 9.99584Z" fill="#FB897A"/>
<path d="M4.85632 15.6117C4.85632 15.6117 4.90086 15.6549 4.91057 15.7162L4.89116 15.5936C4.89116 15.5936 4.8647 15.5852 4.85438 15.5994L4.85632 15.6117Z" fill="#FB897A"/>
<path d="M40.835 33.7021C40.9511 33.7215 41.0757 33.7143 41.2124 33.7052C41.237 33.7013 41.2718 33.6832 41.2821 33.669L40.835 33.7021Z" fill="#FB897A"/>
<path d="M20.6625 10.8336C21.2755 10.7365 20.9373 10.6644 21.0502 10.5837C21.7799 10.4304 21.4071 10.6152 21.662 10.6376C22.1097 10.529 22.4478 10.3624 22.793 10.3203C22.8214 10.3409 22.8827 10.3312 22.813 10.3674C23.2878 10.1916 24.2473 10.1402 24.7918 9.92827C24.8286 9.92245 24.857 9.94308 24.8693 9.94114C24.7738 9.89344 24.7395 9.83602 24.7582 9.79536C25.0279 9.75265 25.2615 9.64026 25.3712 9.69828C25.1996 9.72546 25.1912 9.75192 25.1215 9.78809L25.4099 9.70471C25.6848 9.77427 25.0234 9.80363 25.037 9.88944C25.5951 9.76335 26.2293 9.56236 26.6765 9.52924C26.7798 9.62598 25.6771 9.72523 26.2688 9.73205L25.6009 9.80012C26.143 9.8902 25.1964 9.8642 25.6894 9.96204C26.5779 9.85902 26.6605 9.74541 27.549 9.64239C27.7354 9.55003 27.4741 9.56628 27.6605 9.47392C28.8935 9.16554 28.6859 9.60055 29.582 9.30781C29.8033 9.19737 29.88 9.04698 30.5414 9.01763L30.3402 9.17517C31.188 9.05345 30.8014 8.91361 31.6977 8.85963C31.5461 8.93391 31.0293 9.0032 31.168 9.00636C31.7597 9.01317 31.5609 8.86873 32.0022 8.79883L32.1055 8.89557C32.9946 8.71705 34.0063 8.51911 34.9915 8.3128C34.9361 8.35928 34.7703 8.42325 35.0071 8.41087C36.2601 8.14958 37.7061 7.99596 38.9417 7.86309L39.392 7.69123C39.5023 7.67376 39.5959 7.7092 39.4875 7.73894C39.9715 7.69999 39.5024 7.67376 39.7295 7.60009C39.9992 7.55737 40.0927 7.59282 39.9269 7.65678C40.747 7.43893 42.2903 7.10652 43.1885 7.06479L43.0208 7.1165C43.7131 7.04454 43.762 6.79802 44.4131 6.78287L44.2905 6.80229C45.7958 6.6267 47.4373 6.27876 48.5987 6.23303C48.798 6.06323 50.0918 6.05939 50.1465 5.84965C51.0202 5.8118 50.7809 5.88741 51.992 5.75843C52.3107 5.70794 52.4507 5.56011 52.841 5.48572L52.8566 5.58379L53.3908 5.38608L53.6921 5.46402L54.056 5.38125C53.9089 5.40455 53.7295 5.38269 53.7502 5.35429C54.3308 5.21205 55.1716 5.20455 55.1446 5.27168C55.5388 5.2218 55.9344 5.25968 56.3171 5.375C56.2719 5.40729 56.0867 5.34866 55.9215 5.33712C56.5533 5.43813 55.988 5.43969 56.5398 5.59106C56.4811 5.53753 56.6095 5.5549 56.634 5.55101C56.8631 5.72835 57.3312 6.14433 57.5585 6.54816L57.4507 6.5024C57.6561 6.84688 57.7182 7.23917 57.8159 7.77664C57.8975 8.29153 57.9913 8.80448 58.087 9.32968C58.0636 8.94382 58.1998 9.01022 58.2606 9.31476L58.1697 9.45483C58.2743 9.63933 58.1682 9.12832 58.3181 9.51929C58.368 9.91352 58.226 9.81035 58.1523 9.58325L58.2648 10.0555C58.2648 10.0555 58.2022 9.97748 58.1493 9.96073C58.2539 10.1452 58.169 10.7996 58.326 11.0763L58.2931 11.1067C58.4846 12.1571 58.5603 12.6352 58.7207 13.4895C58.8207 13.4862 58.8506 13.8333 58.9772 14.0772C59.0394 14.7082 59.0785 15.4309 59.2111 16.189C59.3456 16.7207 59.3222 16.3348 59.4204 16.558C59.3404 16.6084 59.4608 17.3685 59.3373 16.9859C59.4933 17.8911 59.5341 18.1486 59.7901 19.2893C59.8075 19.1609 59.7965 19.0118 59.8449 19.0796C59.8901 19.286 59.8838 19.5635 59.829 19.5345L59.8193 19.4732C60.1477 20.7533 60.0233 22.5072 60.3703 23.5078L60.3606 23.4465L60.6153 24.4995C60.6808 24.9918 60.4952 24.2169 60.5044 24.5925C60.834 25.7215 60.7692 26.423 61.0168 27.3514C60.9846 27.545 60.9886 27.8083 61.023 28.1044C61.0495 28.3516 61.0451 28.6413 60.9898 28.9265C60.8933 29.5073 60.4806 30.0754 60.0709 30.2659L60.1484 30.2788C60.002 30.4653 59.8942 30.4196 59.7426 30.4939C59.7852 30.5248 59.9923 30.404 59.8833 30.5093C59.4401 30.8057 58.9762 30.8917 58.3245 30.9824C57.7219 31.0652 57.1069 31.1501 56.492 31.2349C55.2603 31.3923 54.0163 31.5516 52.809 31.7051C51.9244 31.8327 52.353 32.079 51.2161 32.1208L51.5173 31.96C49.7488 32.3783 47.8641 32.5386 46.1285 32.9266C46.2349 32.8846 46.2291 32.8478 46.4007 32.8206C46.0213 32.8053 45.0399 33.0362 45.0374 33.0994C44.7677 33.1421 44.9664 33.0478 44.7909 33.0505C44.4153 33.0597 43.8747 33.2961 43.6669 33.2536C43.6282 33.2472 43.7611 33.2136 43.8327 33.1897C43.5933 33.2653 42.7049 33.3683 42.9514 33.4172C42.2816 33.473 41.7068 33.6521 41.1718 33.6865C40.8441 33.839 40.0362 33.8161 39.9614 33.9788C39.9872 33.8239 38.7897 34.0387 38.3845 34.1783C38.5116 34.1079 38.0212 34.1855 38.1709 34.099C37.6928 34.1747 37.2676 34.2672 37.367 34.3394C36.4694 34.3056 35.6372 34.7642 35.1099 34.6089C33.7118 34.9058 32.422 35.1729 31.1651 35.4097C31.1909 35.2548 32.5607 35.176 32.4865 35.0244C31.2948 35.276 30.6276 35.5074 29.4327 35.6589C29.1223 35.6829 29.5946 35.5704 29.701 35.5284C28.5093 35.78 27.3821 35.8832 26.3272 36.1256C26.3253 36.1134 26.4459 36.0817 26.5543 36.052C26.3459 36.085 26.06 36.1051 26.0962 36.1748L26.3046 36.1418C26.6473 36.1629 25.5001 36.4577 25.4711 36.5126C25.7956 36.2601 24.409 36.6305 24.9341 36.296C24.8012 36.3296 24.6354 36.3936 24.6658 36.4265C24.4554 36.4472 24.3902 36.4324 24.5909 36.3504C23.8489 36.5056 24.118 36.5384 23.4437 36.6452C23.4379 36.6084 23.5708 36.5748 23.6385 36.5264C23.305 36.642 22.9592 36.7596 22.3791 36.8264C22.412 36.796 22.3346 36.7831 22.5062 36.756C21.5132 36.9132 20.8416 37.1955 19.7531 37.3051C20.0505 37.1198 19.3775 37.3143 19.2968 37.2014L18.7142 37.3314L18.9568 37.3558C18.4419 37.4374 18.0019 37.595 17.5548 37.6282L17.927 37.5189L16.9747 37.6949L17.5219 37.6585C17.0167 37.8013 17.6084 37.8082 16.9161 37.8801C17.0509 37.8588 16.4012 37.9617 16.1198 37.9308C15.8682 38.0084 15.6166 38.0859 15.2327 38.1216C15.1288 38.1004 15.2849 37.9751 15.2197 37.9603C14.99 38.0972 14.0222 38.1751 13.7209 38.3359C13.8273 38.2939 13.8176 38.2326 13.7789 38.2262L13.5841 38.345C13.3473 38.3574 13.3086 38.351 13.3376 38.2961C12.6246 38.3965 13.5835 38.4205 12.726 38.4809C12.7873 38.4712 12.7589 38.4506 12.8918 38.417C12.0362 38.4897 11.2439 38.8036 10.5121 38.7059C10.3172 38.586 11.1509 38.6927 10.907 38.5805C9.89201 38.6785 8.71672 38.1609 8.29751 37.2596L8.37373 37.4235C8.10463 37.3907 8.13014 36.7583 8.00344 36.2757C8.03511 36.3964 8.12675 36.4195 8.11061 36.397C8.02639 35.7066 7.83828 34.9949 7.61194 33.9626L7.68234 34.0897C7.6673 33.6774 7.53793 33.0192 7.49255 32.574C7.42215 32.4469 7.39558 32.1998 7.34532 32.3586C7.40144 30.9673 6.79046 29.8074 6.83504 28.5814C6.85834 28.7285 6.92619 28.9188 6.90871 28.8085L6.69852 27.7987C6.62629 27.8981 6.67084 27.9414 6.64255 28.1595C6.57215 28.0324 6.49072 27.7562 6.44994 27.4988C6.57082 27.9446 6.58479 27.4774 6.5905 27.2755C6.57181 27.3161 6.53564 27.2465 6.51501 27.2749C6.57863 26.7244 6.34205 27.2143 6.32362 26.4632L6.36622 26.4941C6.29899 26.2283 6.20917 25.9786 6.17483 25.6825C6.25349 25.5444 6.27047 25.9689 6.34597 25.9695C6.27995 25.5527 6.03393 25.1896 6.07181 24.794C6.11514 24.9882 6.1746 25.205 6.21599 25.3869C6.26225 24.9649 6.22996 24.9197 6.19368 24.6113L6.19756 24.6358L6.13592 23.9293L6.14053 24.1171C5.81379 23.641 5.92451 23.0705 5.65641 22.4093C5.91031 23.0602 5.75969 22.506 5.8778 22.5376C5.87513 22.3621 5.86919 22.0865 5.91762 22.1543C5.77938 21.8368 5.9038 21.5909 5.69516 21.1464C5.72806 21.1161 5.63885 20.7909 5.73632 20.8509C5.64384 20.4257 5.69056 20.9587 5.64795 20.9277C5.42051 20.2851 5.55041 19.3597 5.22927 18.443C5.03789 17.6313 4.89199 17.5036 4.71031 16.7532C4.71857 16.488 4.86591 16.9422 4.86591 16.9422C4.84893 16.5177 4.78813 16.2131 4.68922 15.8266C4.72539 15.8963 4.75052 15.8169 4.76788 15.6885C4.72128 15.3943 4.60002 15.5015 4.65016 15.104C4.68633 15.1736 4.7509 15.2639 4.79678 15.3949C4.74435 15.0639 4.72482 14.7026 4.83177 14.3463C4.92013 14.2695 4.83188 14.5851 4.86356 14.7057C4.8995 14.2979 5.2367 13.7292 5.25212 13.5886C5.18633 13.6493 5.12249 13.7222 5.05864 13.7951C5.1515 13.6673 5.18123 13.7757 5.12127 13.8732C4.99818 14.2069 4.86466 14.316 4.81562 14.3237L4.90132 14.0714C4.55296 14.2522 4.55403 15.1317 4.67236 15.6408L4.50061 15.4292C4.5562 15.6215 4.63242 15.7854 4.70026 15.9757C4.6829 16.1041 4.60874 16.1913 4.5415 15.9254C4.53008 16.3294 4.64491 16.2609 4.62572 16.6158C4.61928 16.6546 4.60508 16.6442 4.59926 16.6075L4.70849 16.9797C4.66006 16.912 4.62012 17.0566 4.59549 16.8217C4.61841 17.5218 4.88057 17.9076 4.81101 18.1825L4.8013 18.1212C4.98953 19.0716 4.91491 18.2037 5.15012 18.8953L4.95614 19.4162L5.08201 19.4968C5.09754 19.5948 5.12861 19.791 5.07375 19.762C5.20555 20.1181 5.11308 19.6929 5.21964 19.8897C5.19729 20.3833 5.4745 21.1814 5.32034 21.3189C5.43334 21.4769 5.3098 20.8556 5.4507 21.3485C5.29011 21.5248 5.58068 21.9311 5.56282 22.3738C5.44339 22.2545 5.42835 21.8422 5.4105 22.2848C5.61064 22.517 5.50769 23.1366 5.60078 23.4862C5.72532 23.4791 5.77603 24.2753 5.92021 24.8683C5.86534 24.8393 6.02917 26.0323 6.06945 26.604L6.04493 26.6079C6.19532 26.6846 6.26206 27.2647 6.35453 27.6898C6.27904 27.6892 6.22867 27.6092 6.15694 27.3944L6.22101 27.799C6.27332 27.8912 6.31726 28.0099 6.37029 28.2654L6.25669 28.1829C6.34212 28.7223 6.53789 29.2442 6.58533 29.9404C6.67697 29.9636 6.75539 29.348 6.92093 30.0758C6.87578 30.1081 6.79385 30.1462 6.75246 29.9642C6.76217 30.0255 6.82419 30.1791 6.83135 30.3036L6.69893 30.023C6.71264 30.3476 6.79773 30.1707 6.82625 30.4301C6.75269 30.4417 6.80633 30.6218 6.73921 30.5947C6.7295 30.5334 6.72878 30.3701 6.68873 30.2759C6.72113 30.5598 6.73872 30.9089 6.6949 31.029C6.72779 30.9986 6.79297 31.0134 6.82598 31.2218C6.91141 31.7613 6.76929 31.4193 6.78105 31.7316C6.85145 31.8587 6.85484 32.1975 6.95485 32.1942C6.98009 32.3536 6.93494 32.3859 6.92013 32.451C7.01383 32.7252 7.13627 33.7363 7.19806 33.4124L7.18641 33.3388L7.19417 33.3879C7.43593 34.2795 7.4319 35.2855 7.62268 36.1726L7.5859 36.1785C7.66939 36.7056 7.89622 37.4237 8.22673 37.6855C8.32359 37.821 8.43209 38.03 8.35271 38.0049C8.7013 38.3015 8.7439 38.3325 9.28997 38.6858C8.84853 38.517 9.39909 38.8194 8.8427 38.4802C9.33585 38.8168 9.46948 38.9464 10.1548 38.9887C9.89734 39.0295 10.6124 39.1801 10.9292 39.1174C10.7762 39.1039 10.6356 39.0885 10.491 39.0486C10.8214 39.0716 11.1298 39.0353 11.4137 39.0029C11.3705 39.0475 11.3273 39.092 11.2718 39.1385C12.4946 39.0831 13.3822 38.5781 14.3121 38.657C14.6192 38.5329 13.6669 38.7089 13.921 38.5681C14.4624 38.4949 15.0638 38.5631 15.2355 38.5359C15.993 38.4787 15.909 38.2658 16.6994 38.1783C16.5955 38.1571 16.48 38.0623 17.0626 37.9323C17.6039 37.8591 17.7621 37.9849 17.4246 38.076C17.2898 38.0974 17.2285 38.1071 17.2369 38.0806C17.0672 38.1201 16.8362 38.1692 17.0524 38.1853L17.1201 38.1368C17.3956 38.1309 18.1434 38.0125 17.9815 38.1009C18.3925 37.9981 18.1434 38.0125 17.8331 38.0365C18.5416 37.9871 18.9242 37.8637 19.6533 37.7859C19.5391 37.7788 19.4229 37.7595 19.5332 37.7421C20.5953 37.6241 19.9874 37.5947 20.6965 37.4699C21.1108 37.4671 20.5708 37.628 21.2863 37.4644C21.7335 37.4313 21.3999 37.547 21.2219 37.6129C21.8722 37.4344 22.4556 37.4677 22.8375 37.4198L22.5001 37.5109C22.7046 37.4534 22.8782 37.4385 23.0498 37.4113L22.842 37.3688C23.0524 37.3481 23.224 37.3209 23.2176 37.3596C23.4182 37.2776 23.0388 37.2622 23.4439 37.1227C23.7195 37.1167 24.2595 36.9558 24.3731 37.0383C23.5214 37.1355 24.4867 37.1209 23.7673 37.26C23.9021 37.2386 24.0738 37.2114 24.2822 37.1784C24.3067 37.1745 24.2615 37.2068 24.2003 37.2165C25.023 37.1742 24.5628 37.046 25.3964 36.914C25.2958 36.9927 25.6101 36.9932 25.743 36.9596C25.3997 37.014 25.5681 36.8868 25.8687 36.8015C26.4159 36.7651 26.4513 36.6715 26.7353 36.6391L26.4126 36.665C26.5133 36.5863 26.7849 36.5558 27.1611 36.4711C27.2056 36.5143 26.8236 36.5623 26.9604 36.5532C27.3617 36.3891 27.9219 36.514 28.4986 36.3472C28.7742 36.3413 28.5406 36.4537 28.7897 36.4394C29.4278 36.2629 29.5124 36.4003 30.1892 36.2303C29.9814 36.1878 29.9466 36.2059 30.4253 36.0546L29.3052 36.2823L30.011 36.0574C29.6678 36.1118 29.2955 36.221 29.0974 36.2398C29.431 36.1242 29.3961 36.1422 29.227 36.1062C29.7104 36.1427 30.1471 35.8851 30.6982 35.8732L30.7292 36.0693C31.5397 36.0289 32.1358 35.746 33.1978 35.6281L32.8487 35.6457C32.9842 35.5488 33.4985 35.5428 33.8359 35.4516C33.8089 35.5187 34.0334 35.5083 34.1863 35.5218C34.1663 35.4747 34.9587 35.3995 35.0373 35.2613L35.5168 35.2734C36.3685 35.1762 36.4561 34.9361 37.2814 34.8305C37.0478 34.9429 37.4215 34.9214 36.8898 35.0559C37.1595 35.0132 37.4066 34.9866 37.4111 34.9356C37.5763 34.9472 38.1576 34.7294 38.4125 34.7519C38.519 34.7099 38.5441 34.6305 38.8525 34.5942C38.8912 34.6007 38.8583 34.631 38.8583 34.631C38.8525 34.5942 39.3287 34.5062 39.0493 34.4877C39.9262 34.5498 41.4011 34.1026 42.1639 34.1577C42.7626 34.0503 43.4698 33.9132 44.0072 33.8155C43.9743 33.8458 44.0131 33.8523 43.913 33.8556C44.6706 33.7984 44.3375 33.5998 45.2054 33.5252C45.65 33.5553 44.7615 33.6583 45.037 33.6524C45.1926 33.8414 46.0629 33.4648 46.6463 33.4981L46.5114 33.5194C46.9663 33.5353 47.5663 33.2769 48.2812 33.1888C48.2812 33.1888 48.2483 33.2192 48.287 33.2256C48.7599 33.0376 49.6736 32.8552 50.3562 32.722C50.1614 32.8408 50.0575 32.8195 50.1917 32.8737C50.4982 32.8251 50.0846 32.7524 50.6936 32.6308C50.8976 32.6488 51.3447 32.6157 51.4196 32.6918L50.8434 32.783C51.1571 32.859 51.5912 32.6646 51.9016 32.6406L51.8726 32.6954C52.7533 32.5434 52.7442 32.4066 53.7024 32.2674L53.5985 32.2461C54.1062 32.04 54.0515 32.2498 54.5508 32.0702L54.7296 32.1675C55.067 32.0764 55.9116 31.8546 56.5329 31.7311C56.1929 31.8855 55.4897 32.0471 55.0438 32.168C55.3871 32.1136 56.2085 31.9836 56.3685 31.8828C56.2356 31.9164 56.0697 31.9804 55.931 31.9772C56.3323 31.8131 56.8762 31.6767 57.5627 31.568C57.4854 31.7939 59.3288 31.4516 59.9482 31.3158C61.1203 30.7029 62.1135 29.5151 61.9237 27.9995C61.7684 28.5267 61.8596 27.5949 61.6545 27.728C61.5937 27.4234 61.5885 27.3111 61.5846 27.2866L61.5758 26.3581C61.6021 26.1277 61.6695 26.6323 61.7146 26.6C61.622 25.936 61.7558 26.3044 61.7491 25.8656C61.6891 25.9631 61.6019 25.6502 61.5681 25.2785L61.5536 25.8212C61.2976 24.9192 61.6112 24.9952 61.3553 24.0933L61.4754 24.3758C61.3629 23.9036 61.1978 22.6228 60.9524 22.1841C60.9633 22.0944 61.0071 21.9744 61.0524 22.1808C60.8963 21.0368 60.4685 19.6845 60.439 18.7844L60.5017 18.8624C60.4564 18.656 60.3453 18.5102 60.3517 18.2327C60.3781 18.2411 60.4143 18.3108 60.411 18.2108C60.3813 18.1024 60.2236 17.6624 60.2157 17.3746L60.3159 17.6101C60.2147 16.4951 59.8989 15.9293 59.7145 15.0034C59.8739 14.9782 59.7851 14.1 59.7416 13.6671L59.7662 13.6632C59.5887 12.3843 59.2857 11.5024 59.0483 10.321C59.0759 9.93964 58.9872 9.30022 58.8926 8.62402C58.8383 8.28076 58.782 7.92524 58.7398 7.58004C58.6874 7.24904 58.6659 6.87543 58.5606 6.52768C58.5936 6.73609 58.4464 6.52064 58.3256 6.31356C58.2261 6.00259 57.7536 5.63759 57.8988 5.60203L57.9756 5.6904C57.9432 5.40649 57.3919 4.94087 56.8794 4.72043L56.7091 4.83537C56.4271 4.64127 56.016 4.50532 55.5817 4.461C55.1474 4.41669 54.6712 4.50467 54.3054 4.57518C53.5492 4.72008 52.8562 4.86754 52.4936 4.79931C52.1948 4.89689 51.8129 4.94482 51.5141 5.0424L51.4986 4.94433C50.6611 5.05184 50.2301 5.10754 49.1797 5.29905L49.3906 5.2028C48.7899 5.29794 48.6855 5.59094 48.1339 5.67832L47.9531 5.56871C46.9111 5.73375 45.8496 5.7762 44.8393 6.0619C44.8477 6.03544 44.8786 5.99283 45.0502 5.96565C44.5599 6.04332 43.1468 6.16659 43.3495 6.33556C43.3301 6.21297 42.2829 6.50448 41.7248 6.63058L41.797 6.53117C41.3364 6.71723 41.33 6.75595 40.6738 6.89758C40.5144 6.92282 40.5273 6.84538 40.7396 6.83689C40.2047 6.87135 40.3486 6.98678 39.7034 7.03871L39.9266 6.94052C39.3872 7.02596 39.4401 7.04271 39.1556 7.15061C38.8182 7.24175 38.1342 7.28725 38.0348 7.21502C37.969 7.27571 37.6864 7.39587 37.3638 7.42183C37.3212 7.39088 37.4296 7.36115 37.4889 7.33918C36.5843 7.41962 36.1702 7.66115 35.5417 7.66016C35.5255 7.63759 35.4848 7.61889 35.4236 7.6286C36.1346 7.51598 36.7108 7.42473 36.6637 7.44475C36.6501 7.35894 36.072 7.43794 36.5081 7.25576C36.0519 7.39084 35.2887 7.64996 34.7189 7.7025C34.6944 7.70638 34.668 7.69801 34.6415 7.68963L34.7028 7.67992C34.566 7.68902 34.4576 7.71876 34.3473 7.73623C34.1615 7.7531 34.0492 7.75831 33.8776 7.7855C33.8046 7.72165 33.2097 7.85357 32.9278 7.89823C32.9659 7.98016 32.5839 8.02809 32.9511 8.04534C32.902 8.05311 33.0001 8.03757 33.1943 7.99425C33.2311 7.98842 33.2801 7.98065 33.3169 7.97483C33.3169 7.97483 33.3046 7.97677 33.2924 7.97871C33.4763 7.94959 33.7215 7.91075 34.0034 7.8661C33.7783 7.95202 33.5512 8.02569 33.2247 8.02714C33.075 8.11368 32.9253 8.20022 32.8434 8.23833C32.4317 8.17787 31.66 8.2247 31.5502 8.16667C30.6753 8.35551 29.4842 8.5316 28.972 8.78866C28.7307 8.85201 28.6823 8.78428 28.5803 8.7753C28.7255 8.73974 28.8971 8.71255 28.9668 8.67638C28.4719 8.80503 27.4976 8.92164 27.3945 9.06365C26.7615 9.11364 27.7325 8.89701 26.866 9.05939L26.9827 9.0032C25.2476 9.07694 24.2729 9.74655 22.3462 9.80039C22.483 9.79129 22.5462 9.79384 22.5727 9.80221C20.4098 10.0317 18.1626 10.6012 16.0146 10.7655C15.4081 10.8239 15.3584 10.9071 15.0003 11.0267L14.8499 10.95L14.2422 11.1593C13.3609 11.3869 12.6587 11.1588 11.5561 11.4968L11.7129 11.5348C11.3064 11.5866 10.4315 11.7755 10.4934 11.6902C10.4566 11.6961 10.3702 11.7852 10.205 11.7736L10.1973 11.7246L9.20558 11.9696C8.42743 12.0552 9.29517 11.7418 8.16732 11.9204C7.75438 12.011 7.00147 12.2559 7.16666 12.2674C7.33829 12.2402 7.60156 12.2362 7.62159 12.2833L7.24543 12.368C7.19518 12.5268 6.9262 12.7328 7.88764 12.6936L8.52184 12.4926L8.7419 12.5332L8.19023 12.6205C8.50837 12.6456 8.70707 12.5513 8.92191 12.4795C8.97677 12.5085 9.07873 12.5175 9.2052 12.5226L9.81938 12.2745C9.90265 12.3242 9.54458 12.4437 9.9898 12.3984C10.2866 12.2885 9.67421 12.3101 10.171 12.1937C10.5014 12.2168 10.4111 12.2814 10.7692 12.1618C10.824 12.1908 10.7544 12.227 10.6111 12.2748C10.9344 12.1733 11.4777 12.1124 11.6254 12.0136C11.97 12.047 12.7248 11.8144 12.7114 11.9673C12.8036 11.915 13.2701 11.7657 13.5746 11.7049C13.0501 11.9639 14.7025 11.5263 14.5864 11.7457C14.9657 11.5223 16.0459 11.4392 16.7433 11.2407C16.7065 11.2466 16.6266 11.2969 16.5633 11.2944C16.9698 11.2426 17.1002 11.2722 17.3615 11.2559C17.3911 11.1256 18.0228 10.9878 18.3421 10.8618C18.8642 10.9048 18.0589 11.0575 18.2377 11.1548C18.1977 11.0607 19.0803 10.9209 18.9074 10.8603C19.2991 10.8736 19.2442 10.8446 19.4578 10.9239C19.4939 10.7548 19.8095 10.8431 20.1127 10.6945C20.676 10.6807 20.2831 10.8183 20.876 10.6741C21.1658 10.6785 20.6483 10.8233 20.6483 10.8233L20.6625 10.8336ZM34.9754 8.29022C34.8528 8.30964 34.7425 8.32711 34.6812 8.33682C34.7425 8.32711 34.8283 8.31352 34.9754 8.29022ZM36.1768 8.09994C36.0297 8.12324 35.8458 8.15236 35.6497 8.18343C35.6071 8.15248 35.64 8.12213 35.7626 8.10272C35.7051 8.13694 35.989 8.10454 36.1768 8.09994ZM33.5259 7.86632C33.7201 7.823 33.7834 7.82555 33.8118 7.84618C33.726 7.85978 33.6156 7.87725 33.4808 7.89861L33.4562 7.90249C33.4562 7.90249 33.4891 7.87215 33.524 7.85406L33.5259 7.86632Z" fill="#FB897A"/>
<path d="M33.202 8.04328C33.202 8.04328 33.1529 8.05105 33.1284 8.05493C33.1652 8.04911 33.2039 8.05554 33.2426 8.06198L33.3123 8.02581L33.2142 8.04134L33.202 8.04328Z" fill="#FB897A"/>
<path d="M52.8767 5.63082L52.8605 5.60825L52.7663 5.6483L52.8767 5.63082Z" fill="#FB897A"/>
<path d="M6.64152 27.2799C6.64152 27.2799 6.64796 27.2412 6.65245 27.1902C6.65245 27.1902 6.64601 27.2289 6.64152 27.2799Z" fill="#FB897A"/>
<path d="M6.24844 24.6402L6.22696 24.2666C6.24189 24.4402 6.2471 24.5525 6.24844 24.6402Z" fill="#FB897A"/>
<path d="M5.97522 22.5976C5.97522 22.5976 5.94488 22.5647 5.93262 22.5667L5.98748 22.5957L5.97522 22.5976Z" fill="#FB897A"/>
<path d="M26.5582 36.0764L26.644 36.0628C26.8362 36.0072 26.7033 36.0409 26.5582 36.0764Z" fill="#FB897A"/>
<path d="M16.1481 37.9514C16.2565 37.9216 16.3772 37.89 16.4714 37.8499C16.2875 37.879 16.1404 37.9023 16.1481 37.9514Z" fill="#FB897A"/>
<path d="M16.9618 37.7723C16.776 37.7892 16.6166 37.8145 16.4714 37.85C16.6185 37.8267 16.8044 37.8098 16.9618 37.7723Z" fill="#FB897A"/>
<path d="M5.26727 14.0008L5.31885 13.9298C5.31885 13.9298 5.31885 13.9298 5.31691 13.9175C5.29628 13.9459 5.2879 13.9724 5.26921 14.0131L5.26727 14.0008Z" fill="#FB897A"/>
<path d="M5.30265 13.9073L5.35036 13.8118C5.35036 13.8118 5.29877 13.8828 5.30265 13.9073Z" fill="#FB897A"/>
<path d="M5.47402 13.6413C5.47402 13.6413 5.39342 13.7671 5.35215 13.8239C5.39147 13.7549 5.45726 13.6942 5.47402 13.6413Z" fill="#FB897A"/>
<path d="M5.00635 16.4802L5.04895 16.5112C5.04895 16.5112 5.02055 16.4905 5.00635 16.4802Z" fill="#FB897A"/>
<path d="M5.14863 17.2996C5.11756 17.1034 5.14452 16.7976 5.07728 16.5317L5.04888 16.5111C5.11733 16.6259 5.05821 17.1254 5.14863 17.2996Z" fill="#FB897A"/>
<path d="M5.24706 20.7776L5.16285 20.0872C5.14549 20.2156 5.12169 20.3827 5.05895 20.0659C5.08453 20.9416 5.11564 19.8685 5.24706 20.7776Z" fill="#FB897A"/>
<path d="M5.52188 22.9081C5.45137 22.5423 5.46058 22.9178 5.44638 22.9075C5.52005 23.1346 5.54202 23.194 5.52188 22.9081Z" fill="#FB897A"/>
<path d="M8.53289 38.19L8.43481 38.2056C8.684 38.43 8.45933 38.2017 8.53289 38.19Z" fill="#FB897A"/>
<path d="M11.611 38.5822L11.2948 38.5695L11.1716 38.6644L11.611 38.5822Z" fill="#FB897A"/>
<path d="M13.5799 38.8735L13.447 38.9071L13.958 38.801L13.5799 38.8735Z" fill="#FB897A"/>
<path d="M41.576 34.4142L41.4624 34.3316C41.2579 34.3892 41.2263 34.5073 41.576 34.4142Z" fill="#FB897A"/>
<path d="M53.6585 32.3875C53.8011 32.4151 54.138 32.3995 54.3509 32.3155C54.0812 32.3582 53.8037 32.3519 53.6585 32.3875Z" fill="#FB897A"/>
<path d="M56.134 4.53696L56.4173 4.58006C56.2482 4.544 56.0668 4.50989 55.8875 4.48804L56.134 4.53696Z" fill="#FB897A"/>
<path d="M57.1848 2.28426C57.0906 2.32431 57.1494 2.37784 57.4313 2.33318C57.4991 2.28475 57.5565 2.25053 57.6261 2.21436C57.4771 2.2254 57.3319 2.26096 57.1848 2.28426Z" fill="#FB897A"/>
<path d="M58.9278 2.73702C59.2292 2.81495 59.5687 2.97482 59.4744 2.77612C59.1446 2.67755 59.0962 2.60982 58.7271 2.58031C58.4747 2.49461 58.2998 2.42178 58.345 2.38949C58.245 2.39277 57.9274 2.29225 57.7739 2.35427C58.1282 2.44896 58.5315 2.53588 58.9691 2.68021C59.042 2.74406 58.9381 2.72281 58.9156 2.73896L58.9278 2.73702Z" fill="#FB897A"/>
<path d="M55.3213 33.6823C55.4439 33.6629 55.491 33.6429 55.4891 33.6306C55.3787 33.6481 55.2949 33.6739 55.3213 33.6823Z" fill="#FB897A"/>
<path d="M52.6312 33.9952C52.6312 33.9952 52.7416 33.9777 52.7906 33.97C52.7293 33.9797 52.6661 33.9771 52.6312 33.9952Z" fill="#FB897A"/>
<path d="M63.4247 25.575L63.4481 25.9608C63.4481 25.9608 63.4416 25.7608 63.4247 25.575Z" fill="#FB897A"/>
<path d="M60.7016 5.44697C60.688 5.36115 60.6661 5.3018 60.6318 5.24438L60.6629 5.44053L60.7016 5.44697Z" fill="#FB897A"/>
<path d="M62.3188 19.228L62.2994 19.1054C62.2994 19.1054 62.2652 19.048 62.2349 19.0151L62.3169 19.2158L62.3188 19.228Z" fill="#FB897A"/>
<path d="M61.5234 14.365C61.5409 14.4753 61.6448 14.4965 61.6894 14.5398C61.6429 14.4843 61.6048 14.4024 61.577 14.3062C61.5525 14.3101 61.5421 14.3243 61.5112 14.3669L61.5234 14.365Z" fill="#FB897A"/>
<path d="M62.8478 22.7259C62.8478 22.7259 62.8272 22.7543 62.8188 22.7807C62.8311 22.7788 62.8414 22.7646 62.8478 22.7259Z" fill="#FB897A"/>
<path d="M51.0078 3.03638L51.0098 3.04864C51.0465 3.04281 51.0446 3.03055 51.0078 3.03638Z" fill="#FB897A"/>
<path d="M57.2217 2.51719L57.1358 2.53078C57.1358 2.53078 57.1172 2.57145 57.121 2.59596L57.2094 2.51913L57.2217 2.51719Z" fill="#FB897A"/>
<path d="M6.03725 37.4289C6.02522 37.9084 5.80654 36.6863 5.81914 37.4007C5.84621 37.3335 6.07948 38.0129 6.03725 37.4289Z" fill="#FB897A"/>
<path d="M36.4619 36.4807C36.4619 36.4807 36.5394 36.4936 36.5781 36.5C36.5781 36.5 36.5497 36.4794 36.4619 36.4807Z" fill="#FB897A"/>
<path d="M32.119 37.3068C32.0087 37.3243 31.968 37.3056 31.8125 37.3554L31.8616 37.3476C31.8616 37.3476 31.9964 37.3263 32.119 37.3068Z" fill="#FB897A"/>
<path d="M27.583 38.0254L27.6727 38.0363C27.6727 38.0363 27.7708 38.0208 27.8198 38.013L27.5869 38.0499L27.583 38.0254Z" fill="#FB897A"/>
<path d="M37.2363 5.26782C37.3383 5.27681 37.4035 5.29162 37.4583 5.32063C37.3751 5.27098 38.0454 5.13967 37.2363 5.26782Z" fill="#FB897A"/>
<path d="M60.6526 5.45478C60.6526 5.45478 60.6991 5.51025 60.7088 5.57154L60.6874 5.43669C60.6874 5.43669 60.6487 5.43026 60.6526 5.45478Z" fill="#FB897A"/>
<path d="M4.68983 10.4354L4.8492 10.4101C4.78596 10.4076 4.72661 10.4296 4.68983 10.4354Z" fill="#FB897A"/>
<path d="M29.1932 38.5117C29.0648 38.4943 28.9157 38.5054 28.7789 38.5145C28.7544 38.5184 28.7196 38.5365 28.697 38.5526L29.1932 38.5117Z" fill="#FB897A"/>
<path d="M42.1676 4.34861C41.4811 4.45735 41.8683 4.52169 41.7309 4.60629C40.9154 4.77316 41.3373 4.58066 41.0456 4.56403C40.5365 4.68235 40.1617 4.85482 39.7797 4.90275C39.7513 4.88212 39.6778 4.89377 39.7597 4.85566C39.2358 5.03917 38.1538 5.11002 37.5479 5.33164C37.4989 5.3394 37.4705 5.31877 37.4582 5.32071C37.566 5.36647 37.6003 5.42389 37.5816 5.46455C37.2751 5.51309 37.017 5.62936 36.895 5.57328C37.0789 5.54416 37.0996 5.51575 37.1815 5.47764L36.8686 5.56491C36.5569 5.50117 37.3041 5.45823 37.2905 5.37241C36.6711 5.50822 35.9511 5.72279 35.4671 5.76174C35.3516 5.66694 36.5892 5.54633 35.9239 5.55116L36.6775 5.4695C36.0864 5.38718 37.1311 5.39765 36.5768 5.30952C35.5902 5.42807 35.4832 5.54556 34.5089 5.66218C34.2979 5.75842 34.596 5.73634 34.3851 5.83259C33.005 6.16427 33.2493 5.72344 32.2428 6.03365C31.9848 6.14992 31.9081 6.30031 31.1731 6.34131L31.3989 6.17988C30.4407 6.31907 30.8886 6.44921 29.882 6.52067C30.0459 6.44445 30.624 6.36545 30.473 6.36423C29.8077 6.36906 30.0311 6.50963 29.5284 6.58923L29.4129 6.49443C28.4135 6.69043 27.2914 6.90584 26.1836 7.13157C26.2391 7.08509 26.4294 7.01724 26.1681 7.0335C24.768 7.31809 23.1503 7.49889 21.7799 7.65312L21.2805 7.83275C21.1579 7.85216 21.0521 7.81866 21.1727 7.78698C20.6397 7.8337 21.1579 7.85216 20.9063 7.92972C20.5998 7.97826 20.494 7.94475 20.6843 7.87691C19.7662 8.11029 18.039 8.47182 17.0427 8.52908L17.2349 8.4735C16.4568 8.55905 16.3956 8.80751 15.671 8.83431L15.8058 8.81295C14.1289 9.01572 12.2913 9.39473 10.995 9.46181C10.7712 9.6355 9.33027 9.66264 9.251 9.87627C8.27925 9.92964 8.55539 9.84821 7.19716 10.0005C6.84164 10.0568 6.67717 10.2085 6.23777 10.2907L6.22224 10.1926L5.62675 10.4L5.28859 10.3279L4.87566 10.4185C5.04729 10.3913 5.23895 10.4112 5.21831 10.4396C4.90346 10.5146 4.49502 10.5541 4.17239 10.5801C3.82331 10.5977 3.53103 10.6566 3.51488 10.634C2.9478 10.862 2.46531 11.2275 2.12289 11.6839C2.11512 11.6348 2.29246 11.4057 2.45305 11.2294C1.87976 11.9737 2.19366 11.2579 1.77136 12.0034C1.84553 11.9163 1.79722 12.0873 1.81336 12.1099C1.68955 12.2803 1.52386 12.583 1.45757 12.9579C1.37515 13.3103 1.42247 13.7678 1.4897 14.0336L1.39867 13.9349C1.54114 14.9931 1.78495 16.1358 1.97135 17.3126C1.94211 16.89 2.0783 16.9564 2.14687 17.31L2.05789 17.4623C2.1664 17.6713 2.05062 17.099 2.20828 17.539C2.26592 17.9823 2.12003 17.8546 2.04441 17.6152L2.16663 18.1488C2.16663 18.1488 2.10206 18.0585 2.04914 18.0418C2.15764 18.2508 2.08443 18.9787 2.24524 19.28L2.21235 19.3103C2.42327 20.4833 2.5087 21.0227 2.68467 21.9751C2.78663 21.984 2.82036 22.3557 2.95084 22.6241C3.02473 23.3287 3.07545 24.1249 3.22362 24.9811C3.3678 25.5741 3.33662 25.1392 3.44063 25.3992C3.36259 25.4618 3.49656 26.3077 3.36536 25.8761C3.53878 26.8916 3.58344 27.1736 3.86087 28.4492C3.87629 28.3085 3.86331 28.1472 3.91174 28.2149C3.96089 28.4459 3.95845 28.7479 3.90553 28.7311L3.89582 28.6698C4.24753 30.097 4.15426 32.0471 4.52066 33.1703L4.51095 33.109L4.78511 34.2846C4.86023 34.8382 4.65913 33.9652 4.67417 34.3775C5.02516 35.6415 4.97197 36.4165 5.23897 37.4675C5.17013 37.9057 5.28275 38.6167 5.43154 39.3974C5.60362 40.3252 6.33442 41.0515 6.93341 41.4216L6.89336 41.3274C7.23734 41.4363 7.26708 41.5447 7.52136 41.6426C7.48907 41.5975 7.16573 41.4602 7.38773 41.513C8.09572 41.7778 8.98033 41.6503 9.60361 41.539C10.2798 41.4445 10.9683 41.348 11.6567 41.2515C13.0356 41.0708 14.4145 40.8902 15.7688 40.7134C16.7637 40.5683 16.2861 40.3298 17.5457 40.2686L17.2076 40.4352C19.1845 39.9839 21.29 39.7886 23.2217 39.3696C23.1153 39.4115 23.1088 39.4503 22.9249 39.4794C23.3534 39.4869 24.4451 39.2386 24.4476 39.1754C24.7541 39.1268 24.5309 39.225 24.7187 39.2204C25.1433 39.2034 25.7452 38.9573 25.9775 38.9959C26.0162 39.0024 25.871 39.0379 25.7872 39.0638C26.0511 38.9843 27.0376 38.8657 26.7666 38.8207C27.5099 38.7532 28.1583 38.5625 28.7545 38.5184C29.119 38.3601 30.0127 38.3694 30.112 38.2028C30.0863 38.3577 31.4187 38.1216 31.8729 37.9742C31.7213 38.0485 32.2852 37.9592 32.111 38.0496C32.6382 37.9661 33.1247 37.8639 33.013 37.7936C34.0209 37.8099 34.9512 37.3359 35.5397 37.4814C37.0973 37.1593 38.5464 36.867 39.9504 36.6069C39.9247 36.7618 38.3954 36.8657 38.4697 37.0174C39.7962 36.7444 40.5492 36.4995 41.8912 36.3246C42.2384 36.2948 41.7048 36.417 41.5984 36.459C42.9249 36.186 44.187 36.0615 45.3768 35.7977C45.3787 35.81 45.2458 35.8436 45.1251 35.8753C45.3581 35.8384 45.6807 35.8124 45.6323 35.7447L45.3993 35.7816C45.0077 35.7682 46.3019 35.4501 46.3432 35.3933C45.9697 35.6535 47.5278 35.2559 46.9292 35.6021C47.0866 35.5646 47.2647 35.4987 47.2343 35.4658C47.4692 35.4412 47.5467 35.454 47.3215 35.54C48.1616 35.3692 47.8434 35.3442 48.6035 35.2238C48.6093 35.2606 48.4519 35.2981 48.3842 35.3465C48.7545 35.225 49.1371 35.1016 49.7907 35.0232C49.7578 35.0536 49.8353 35.0664 49.6391 35.0975C50.7424 34.9227 51.4999 34.6268 52.7232 34.4959C52.3891 34.6871 53.1478 34.4789 53.2285 34.5918L53.8724 34.4521L53.6053 34.4316C54.1815 34.3403 54.6705 34.1749 55.1667 34.134L54.7454 34.251L55.8081 34.0576L55.1996 34.1037C55.7661 33.9511 55.1131 33.954 55.879 33.8704C55.7196 33.8957 56.4551 33.7792 56.761 33.8061C57.0372 33.7247 57.3256 33.6413 57.7463 33.5998C57.8624 33.6191 57.6818 33.7483 57.7592 33.7611C58.0257 33.6184 59.0916 33.525 59.4297 33.3583C59.3109 33.4022 59.3207 33.4635 59.3594 33.47L59.5787 33.3473C59.8523 33.3291 59.891 33.3355 59.8497 33.3923C60.6485 33.2784 59.5671 33.2737 60.5227 33.1978C60.4491 33.2094 60.4898 33.2281 60.3324 33.2656C60.8124 33.2021 61.2641 33.118 61.7176 33.0462C62.159 32.9763 62.6416 32.8496 63.0474 32.6345C63.3739 32.6331 62.3158 33.0143 62.6487 32.9741C63.312 32.7183 63.8731 32.2147 64.18 31.6132C64.4888 31.0239 64.5291 30.3263 64.4153 29.7663L64.4483 29.9747C64.2269 29.8464 64.3898 29.1294 64.2269 28.5771C64.2605 28.71 64.3541 28.7455 64.336 28.7106C64.2382 27.9344 64.0385 27.1492 63.7927 25.9943L63.865 26.1336C63.8422 25.6723 63.7012 24.9406 63.6481 24.4464C63.5757 24.307 63.5433 24.0231 63.497 24.2064C63.5278 22.6558 62.8955 21.361 62.9168 19.9879C62.942 20.1472 63.0137 20.3621 62.9943 20.2395L62.7647 19.1071C62.6925 19.2066 62.739 19.262 62.7165 19.5169C62.6442 19.3776 62.5569 19.0647 62.5123 18.7827C62.6429 19.2898 62.6471 18.7613 62.6489 18.5348C62.6303 18.5755 62.5941 18.5058 62.5715 18.522C62.6235 17.898 62.3966 18.4491 62.3665 17.6245L62.4111 17.6677C62.338 17.3651 62.2443 17.0909 62.2061 16.7702C62.2828 16.6198 62.3056 17.0812 62.383 17.0941C62.3093 16.6282 62.0555 16.216 62.0875 15.7837C62.1328 15.9901 62.1981 16.2437 62.2434 16.4502C62.2818 15.9791 62.2496 15.9339 62.2075 15.5887L62.2133 15.6255L62.1381 14.8332L62.1446 15.0332C61.8082 14.4958 61.9092 13.8641 61.6275 13.117C61.895 13.8537 61.7327 13.226 61.8527 13.2698C61.8462 13.0698 61.8344 12.7575 61.8848 12.8374C61.7407 12.4833 61.8613 12.2128 61.6449 11.7193C61.6778 11.689 61.5827 11.327 61.6821 11.3992C61.5819 10.925 61.6383 11.5193 61.5957 11.4883C61.3566 10.7722 61.4691 9.73646 61.1304 8.70935C60.9255 7.81187 60.7757 7.65966 60.5804 6.82347C60.5848 6.53374 60.7399 7.03698 60.7399 7.03698C60.7151 6.56336 60.6485 6.22205 60.5438 5.7988C60.5819 5.88073 60.6051 5.78909 60.6205 5.64841C60.5661 5.30515 60.461 5.4349 60.4382 4.97354C60.4866 5.04127 60.5654 5.1419 60.6274 5.29544C60.5143 4.89866 60.438 4.49604 60.2435 4.06186C60.259 3.92119 60.4314 4.29601 60.4935 4.44956C60.408 3.91015 59.8586 3.21803 59.6527 3.1878C59.7173 3.27811 59.7922 3.35422 59.8464 3.45872C59.7231 3.31489 59.8515 3.33225 59.9567 3.44125C60.2866 3.77857 60.2377 4.02509 60.2171 4.05349C60.1648 3.96124 60.1228 3.85479 60.0602 3.77674C60.09 4.12388 60.4382 4.97354 60.523 5.58845L60.3351 5.3543L60.5568 5.96011C60.5413 6.10079 60.4691 6.20019 60.398 5.90985C60.3944 6.36284 60.5092 6.29438 60.4939 6.67381C60.4874 6.71253 60.4732 6.70221 60.4674 6.66544L60.5844 7.08674C60.534 7.00675 60.498 7.17583 60.4675 6.90419C60.5021 7.67785 60.774 8.1249 60.7083 8.42434L60.6986 8.36304C60.9043 9.42377 60.8122 8.44558 61.061 9.22302L60.8767 9.80514L61.0045 9.898C61.022 10.0083 61.057 10.229 61.0002 10.1877C61.1378 10.5806 61.0375 10.1064 61.1499 10.3399C61.1354 10.8826 61.43 11.791 61.2759 11.9285C61.3908 12.0988 61.2576 11.4162 61.4082 11.9704C61.2495 12.1589 61.5479 12.6143 61.5378 13.106C61.4164 12.9745 61.3936 12.5131 61.3835 13.0048C61.5895 13.2738 61.4962 13.9546 61.5971 14.3533C61.7236 14.3584 61.7859 15.2282 61.9437 15.907C61.8869 15.8657 62.074 17.2059 62.1259 17.8511L62.0975 17.8305C62.2518 17.9317 62.3302 18.5853 62.4304 19.0596C62.353 19.0467 62.3026 18.9667 62.2251 18.7151L62.2969 19.1687C62.3512 19.2732 62.3971 19.4041 62.4559 19.6964L62.3404 19.6016C62.4355 20.2023 62.641 20.7856 62.702 21.5676C62.7956 21.6031 62.8624 20.9139 63.0396 21.7152C62.9944 21.7475 62.9144 21.7979 62.8692 21.5914C62.8808 21.665 62.9448 21.8308 62.9558 21.9798L62.8195 21.6747C62.839 22.036 62.9222 21.8469 62.9546 22.1308C62.881 22.1425 62.9386 22.347 62.8714 22.3199C62.8598 22.2464 62.8571 22.0708 62.8151 21.9644C62.8534 22.2851 62.8768 22.6709 62.8349 22.8032C62.8678 22.7729 62.933 22.7877 62.9699 23.0206C63.065 23.6213 62.917 23.2426 62.9346 23.5917C63.007 23.7311 63.0181 24.1189 63.1181 24.1156C63.1453 24.2872 63.1021 24.3318 63.0873 24.3969C63.1849 24.6957 63.3287 25.8416 63.3827 25.4686L63.3711 25.395C63.3711 25.395 63.3769 25.4318 63.3788 25.4441C63.6381 26.4461 63.6496 27.5501 63.8578 28.5476L63.821 28.5534C63.951 29.1361 64.0694 29.8839 64.1845 30.2929C64.1994 30.4665 64.1098 30.6943 64.0737 30.6247C64.0274 31.0467 64.0797 31.1389 63.698 31.6644C63.8727 31.2597 63.5909 31.7819 63.8707 31.2474C63.5851 31.7451 63.4703 31.8135 63.0524 32.2693C63.1742 32.0866 62.6388 32.4353 62.3769 32.5271C62.5117 32.5057 62.6446 32.4721 62.7737 32.414C62.4969 32.5709 62.233 32.6504 61.9511 32.6951L62.0807 32.5614C60.7863 32.6408 59.7393 33.171 58.7094 33.0954C58.3655 33.2252 59.4405 33.0299 59.1373 33.1784C58.5224 33.2632 57.8719 33.2029 57.6757 33.234C56.8324 33.3047 56.9287 33.5157 56.0402 33.6187C56.1563 33.638 56.2841 33.7308 55.628 33.8725C55.013 33.9573 54.8549 33.8315 55.2291 33.7346C55.3762 33.7113 55.4498 33.6996 55.4414 33.7261C55.6356 33.6828 55.8911 33.6297 55.6382 33.6195L55.5704 33.668C55.2581 33.6797 54.4245 33.8118 54.6109 33.7194C54.1509 33.8299 54.4245 33.8118 54.7716 33.7819C53.9773 33.8449 53.5457 33.9761 52.743 34.0655C52.8695 34.0706 52.9979 34.088 52.8753 34.1074C51.6907 34.2447 52.3721 34.2625 51.5649 34.4029C51.1016 34.4134 51.7029 34.2428 50.9138 34.418C50.4176 34.4589 50.8002 34.3355 50.9783 34.2696C50.2544 34.4597 49.5975 34.438 49.1787 34.4918L49.5529 34.3948C49.3239 34.4562 49.1381 34.4731 48.9419 34.5042L49.1742 34.5428C48.9516 34.5655 48.7555 34.5965 48.7497 34.5598C48.5245 34.6457 48.953 34.6532 48.4988 34.8006C48.1865 34.8123 47.5851 34.983 47.4593 34.9024C48.4213 34.7877 47.3334 34.8218 48.1386 34.6691C47.9793 34.6943 47.7954 34.7235 47.5625 34.7604C47.5257 34.7662 47.5954 34.73 47.6566 34.7203C46.7359 34.7782 47.2573 34.8967 46.3133 35.0462C46.4262 34.9655 46.0752 34.9708 45.93 35.0063C46.3101 34.9461 46.1295 35.0753 45.7798 35.1684C45.1713 35.2145 45.1236 35.31 44.8152 35.3463L45.1746 35.3145C45.0617 35.3952 44.7533 35.4315 44.3403 35.522C44.2958 35.4788 44.7145 35.4251 44.5655 35.4361C44.1152 35.608 43.4937 35.4927 42.8556 35.6692C42.5433 35.681 42.8136 35.5628 42.54 35.581C41.8161 35.771 41.7315 35.6336 40.9812 35.8153C41.2135 35.8539 41.2483 35.8358 40.7206 35.9948L41.9755 35.7458L41.1839 35.9843C41.5639 35.9241 41.9852 35.8071 42.2078 35.7844C41.8252 35.9078 41.8723 35.8878 42.0659 35.92C41.5213 35.8931 41.0478 36.1566 40.4232 36.1801L40.4166 35.9801C39.4959 36.038 38.8262 36.3325 37.6415 36.4699L38.0274 36.4465C37.8797 36.5453 37.3041 36.5611 36.9299 36.658C36.957 36.5909 36.7079 36.6052 36.5427 36.5937C36.575 36.6388 35.6846 36.7296 35.5936 36.8697L35.0529 36.8673C34.0909 36.982 33.9909 37.224 33.0799 37.3432C33.3379 37.2269 32.9276 37.2542 33.5327 37.1081C33.2263 37.1567 32.9546 37.1871 32.9501 37.2381C32.7604 37.2304 32.1178 37.4579 31.8262 37.4412C31.7075 37.4852 31.6701 37.5665 31.3249 37.6086C31.2861 37.6022 31.319 37.5718 31.319 37.5718C31.3249 37.6086 30.7874 37.7063 31.1036 37.7191C30.1286 37.6724 28.482 38.1468 27.6335 38.1053C26.9612 38.2243 26.1682 38.3751 25.5694 38.4825C25.6023 38.4521 25.5636 38.4457 25.6759 38.4405C24.8326 38.5112 25.1901 38.7059 24.2365 38.7941C23.7306 38.7737 24.7294 38.6532 24.4171 38.665C24.2492 38.4779 23.2808 38.8701 22.6117 38.8504L22.7711 38.8252C22.2671 38.817 21.5936 39.0871 20.7928 39.1888C20.7928 39.1888 20.8257 39.1584 20.787 39.152C20.2651 39.3477 19.2288 39.5496 18.4727 39.6945C18.692 39.5718 18.8081 39.5911 18.6616 39.5389C18.3184 39.5932 18.7811 39.6582 18.0984 39.7914C17.87 39.7773 17.3616 39.8202 17.2867 39.7441L17.9364 39.6412C17.586 39.571 17.1028 39.7732 16.7556 39.803L16.7969 39.7462C15.8058 39.9158 15.8149 40.0526 14.7464 40.2092L14.8626 40.2285C14.2936 40.4443 14.3606 40.2326 13.7999 40.422L13.6089 40.3266C13.2347 40.4235 12.2798 40.6628 11.5971 40.796C11.9739 40.6358 12.7753 40.4586 13.2579 40.3319C12.8778 40.3921 11.9584 40.5377 11.7739 40.6423C11.9313 40.6048 12.1094 40.5389 12.2726 40.5382C11.8223 40.7101 11.2171 40.8562 10.457 40.9766C10.5717 40.6694 8.4033 41.3396 8.02886 40.959C7.4539 40.8993 6.92397 40.5685 6.61143 40.1028C6.46032 39.8628 6.35631 39.6028 6.30971 39.3086C6.25729 38.9776 6.20292 38.6343 6.14661 38.2788C6.01975 38.8267 6.08059 37.862 5.87352 37.9828C5.80883 37.6537 5.79974 37.5169 5.79585 37.4924L5.76954 36.4535C5.79201 36.1986 5.86907 36.7645 5.91422 36.7322C5.80998 35.9947 5.95149 36.4121 5.93512 35.9121C5.8771 36.0218 5.78401 35.6721 5.74251 35.2514L5.73764 35.8554C5.46421 34.8431 5.78173 34.9436 5.50635 33.919L5.63233 34.2384C5.51206 33.717 5.32167 32.2769 5.06848 31.7892C5.07747 31.6872 5.11935 31.5549 5.1685 31.7859C4.99108 30.507 4.53608 28.9831 4.49108 27.9849L4.55565 28.0752C4.5065 27.8442 4.39156 27.6739 4.394 27.372C4.42046 27.3803 4.45857 27.4623 4.45335 27.35C4.42168 27.2293 4.25625 26.7403 4.24255 26.4157L4.34656 26.6757C4.22401 25.4259 3.89849 24.7988 3.69667 23.7626C3.85604 23.7374 3.75169 22.7611 3.69854 22.2669L3.72306 22.263C3.52234 20.837 3.20375 19.857 2.94307 18.5285C2.98267 17.6677 2.57198 15.7095 2.44616 14.3597C2.45465 14.5719 2.31774 14.3423 2.26859 14.1113C2.21616 13.7803 2.08108 13.3242 2.2379 13.3622L2.22892 13.4641C2.35916 13.255 2.4144 12.731 2.6988 12.3843L2.58581 12.2263C3.0689 11.7854 3.68819 11.4108 4.55022 11.2994C5.40449 11.139 6.17099 10.9799 6.57045 11.0423L7.67245 10.7798L7.66347 10.8817C8.62357 10.7548 9.10362 10.6913 10.2766 10.4804L10.0412 10.5805C10.7032 10.4757 10.8321 10.1788 11.445 10.0817L11.6503 10.1874C12.8149 10.003 13.999 9.94111 15.1319 9.636C15.1113 9.6644 15.0926 9.70506 14.8964 9.73613C15.4481 9.64875 17.0206 9.50023 16.7933 9.33515C16.825 9.4558 17.9948 9.14487 18.6142 9.00906L18.5297 9.11041C19.0393 8.91659 19.0458 8.87787 19.7878 8.72265C19.9594 8.69546 19.9588 8.77096 19.722 8.78333C20.3182 8.73917 20.162 8.62568 20.8808 8.5621L20.633 8.66417C21.2338 8.56902 21.1808 8.55227 21.5021 8.43855C21.8763 8.34158 22.6461 8.28249 22.7455 8.35472C22.8236 8.29209 23.1307 8.16805 23.4901 8.13626C23.5449 8.16527 23.412 8.19889 23.3527 8.22086C24.3676 8.12293 24.8308 7.87364 25.5329 7.86298C25.549 7.88555 25.6019 7.90231 25.651 7.89454C24.8541 8.02075 24.2166 8.12172 24.276 8.09975C24.2896 8.18556 24.929 8.09686 24.4439 8.2868C24.949 8.14395 25.8103 7.8693 26.4414 7.80705C26.4659 7.80317 26.5046 7.8096 26.5311 7.81798L26.4698 7.82769C26.6188 7.81664 26.7395 7.78497 26.8621 7.76555C27.0602 7.74674 27.197 7.73764 27.3809 7.70852C27.4661 7.77043 28.1222 7.6288 28.441 7.57831C28.4029 7.49638 28.8216 7.44262 28.4177 7.4312C28.4667 7.42344 28.3564 7.44091 28.1499 7.48618C28.1009 7.49395 28.0518 7.50171 28.0151 7.50754L28.0396 7.50365C27.8312 7.53666 27.5492 7.58132 27.2427 7.62986C27.4924 7.54005 27.744 7.4625 28.1073 7.45523C28.2692 7.36675 28.4434 7.27632 28.5376 7.23627C28.9984 7.28896 29.8559 7.22854 29.9779 7.28462C30.9509 7.08025 32.2768 6.88281 32.8748 6.61216C33.1529 6.54298 33.2014 6.61071 33.3156 6.61775C33.1581 6.65525 32.962 6.68632 32.8801 6.72443C33.424 6.58802 34.5331 6.45005 34.6363 6.30804C35.3428 6.2464 34.2615 6.4805 35.2138 6.30453L35.0848 6.36267C37.016 6.25786 38.1256 5.56689 40.2607 5.48004C40.1117 5.49108 40.0362 5.49048 40.0097 5.4821C42.43 5.21186 44.9347 4.60153 47.3279 4.39842C48.008 4.3284 48.0699 4.2432 48.4647 4.11782L48.6274 4.1926L49.3087 3.97159C50.2881 3.7285 51.0761 3.943 52.3013 3.58558L52.1322 3.54952C52.5878 3.48994 53.5607 3.28557 53.4988 3.37077C53.5479 3.36301 53.6343 3.27392 53.824 3.28157L53.8318 3.33061L54.946 3.06616C55.81 2.96702 54.8442 3.29592 56.1069 3.09593C56.5688 2.99763 57.4198 2.73718 57.2301 2.72952C57.0462 2.75865 56.7462 2.76847 56.7262 2.72138L57.1514 2.6289C57.2016 2.47014 57.5074 2.25834 56.4479 2.31305L55.7278 2.52763L55.4833 2.49096L56.0962 2.39388C55.7413 2.37469 55.5181 2.47288 55.2787 2.54849C55.2116 2.52142 55.1097 2.51244 54.9587 2.51122L54.2587 2.77289C54.1631 2.72518 54.558 2.59981 54.076 2.65102C53.7547 2.76474 54.4161 2.73539 53.8703 2.85954C53.5031 2.84229 53.6057 2.77578 53.1985 2.90309C53.1314 2.87602 53.2134 2.83791 53.3811 2.78621C53.0211 2.8935 52.4165 2.96412 52.2443 3.0668C51.8629 3.03924 51.01 3.28743 51.0234 3.1345C50.9189 3.18875 50.3912 3.34774 50.0621 3.41242C50.6479 3.14371 48.7994 3.61241 48.94 3.38908C48.5116 3.6203 47.3089 3.72282 46.5256 3.93485C46.5747 3.92708 46.6546 3.87671 46.7301 3.87732C46.2746 3.9369 46.132 3.90922 45.8461 3.92936C45.8043 4.06167 45.1113 4.20912 44.7429 4.34287C44.1718 4.30765 45.0506 4.14333 44.8596 4.04792C44.8996 4.14211 43.9066 4.29939 44.1164 4.35414C43.6756 4.34854 43.7428 4.37561 43.5046 4.30023C43.4563 4.47125 43.1162 4.38688 42.7762 4.54126C42.1516 4.56479 42.5936 4.41939 41.9271 4.57522C41.6006 4.57667 42.1915 4.42023 42.1915 4.42023L42.1676 4.34861ZM26.163 7.15997C26.2978 7.13862 26.4204 7.1192 26.494 7.10755C26.4204 7.1192 26.3346 7.13279 26.163 7.15997ZM24.8144 7.37356C24.9738 7.34832 25.1822 7.31531 25.4029 7.28036C25.4578 7.30937 25.4126 7.34165 25.2778 7.36301C25.3474 7.32684 25.0267 7.36507 24.8267 7.37162L24.8144 7.37356ZM27.7718 7.55863C27.5654 7.6039 27.4899 7.60329 27.4492 7.58459C27.5473 7.56906 27.6699 7.54964 27.817 7.52634L27.8415 7.52246C27.8415 7.52246 27.7963 7.55475 27.7615 7.57283L27.7718 7.55863Z" fill="#FB897A"/>
<path d="M28.1467 7.38619C28.1467 7.38619 28.1957 7.37843 28.2325 7.3726C28.1835 7.38037 28.1447 7.37393 28.106 7.3675L28.0364 7.40367L28.1467 7.38619Z" fill="#FB897A"/>
<path d="M6.17773 10.1494L6.18162 10.1739L6.30227 10.1423L6.17773 10.1494Z" fill="#FB897A"/>
<path d="M62.6696 18.5065C62.6696 18.5065 62.676 18.4677 62.6805 18.4168C62.6805 18.4168 62.6741 18.4555 62.6696 18.5065Z" fill="#FB897A"/>
<path d="M62.2262 15.5482L62.1969 15.1255C62.2138 15.3114 62.2229 15.4481 62.2262 15.5482Z" fill="#FB897A"/>
<path d="M61.9159 13.2725C61.9159 13.2725 61.8855 13.2396 61.8713 13.2292L61.9281 13.2705L61.9159 13.2725Z" fill="#FB897A"/>
<path d="M45.1374 35.8733L45.0393 35.8889C44.8225 35.9483 44.9677 35.9128 45.1374 35.8733Z" fill="#FB897A"/>
<path d="M56.7753 33.8165C56.6546 33.8482 56.5217 33.8818 56.403 33.9257C56.6114 33.8927 56.7708 33.8675 56.7753 33.8165Z" fill="#FB897A"/>
<path d="M55.8617 33.9989C56.0721 33.9781 56.2437 33.9509 56.4011 33.9134C56.2295 33.9406 56.0314 33.9594 55.8617 33.9989Z" fill="#FB897A"/>
<path d="M60.1103 3.3792L60.0438 3.27663C60.0438 3.27663 60.0315 3.27858 60.0193 3.28052L60.1123 3.39146L60.1103 3.3792Z" fill="#FB897A"/>
<path d="M60.0174 3.26837C60.0174 3.26837 59.9567 3.20258 59.9141 3.17163C59.9586 3.21484 59.9909 3.26 60.0174 3.26837Z" fill="#FB897A"/>
<path d="M59.6951 2.97998C59.7803 3.04189 59.8532 3.10573 59.9139 3.17152C59.8513 3.09347 59.7622 3.00705 59.6951 2.97998Z" fill="#FB897A"/>
<path d="M60.8203 6.43359L60.8629 6.46455C60.8629 6.46455 60.8326 6.43165 60.8203 6.43359Z" fill="#FB897A"/>
<path d="M60.9781 7.35122C60.9432 7.13056 60.9643 6.78791 60.8932 6.49757L60.8648 6.47693C60.9371 6.61628 60.8858 7.16478 60.9801 7.36348L60.9781 7.35122Z" fill="#FB897A"/>
<path d="M61.1408 11.2337L61.0449 10.4697C61.0295 10.6104 61.0077 10.7898 60.941 10.4485C60.9841 11.4345 60.9958 10.2388 61.1427 11.246L61.1408 11.2337Z" fill="#FB897A"/>
<path d="M61.454 13.6094C61.3758 13.1945 61.3927 13.6191 61.3785 13.6088C61.4561 13.8604 61.4781 13.9197 61.454 13.6094Z" fill="#FB897A"/>
<path d="M64.0484 30.7041L63.9652 30.6544C63.9221 30.9377 64.0039 30.6609 64.0484 30.7041Z" fill="#FB897A"/>
<path d="M61.8501 33.088C61.9623 33.0828 62.0766 33.0899 62.2011 33.0827L62.3591 32.9697C62.1791 33.0234 62.0094 33.0628 61.8501 33.088Z" fill="#FB897A"/>
<path d="M59.6605 32.8318L59.8057 32.7962L59.2353 32.9242L59.6605 32.8318Z" fill="#FB897A"/>
<path d="M28.3786 37.8114L28.4922 37.8939C28.7213 37.8325 28.7528 37.7144 28.3786 37.8114Z" fill="#FB897A"/>
<path d="M14.8865 40.0614C14.7316 40.0356 14.3458 40.0591 14.1206 40.145C14.4271 40.0964 14.7291 40.0989 14.8865 40.0614Z" fill="#FB897A"/>
<path d="M3.08312 11.7957C3.08312 11.7957 2.98832 11.9112 2.94705 11.968C3.03153 11.8667 3.14247 11.7737 3.25342 11.6807C3.196 11.715 3.13859 11.7492 3.09538 11.7937L3.08312 11.7957Z" fill="#FB897A"/>
<path d="M41.2021 12.2929C40.4175 12.4172 39.6471 12.5518 38.8605 12.6638C38.6031 12.7046 38.5025 12.7833 38.5574 13.0511C38.571 13.1369 38.4963 13.2995 38.435 13.3093C38.0956 13.3881 37.7362 13.4199 37.3684 13.4782C37.349 13.3556 37.3089 13.2614 37.3057 13.1614C37.2746 12.9652 37.1791 12.9175 36.9952 12.9467C36.2106 13.0709 35.4137 13.1971 34.6291 13.3214C34.433 13.3525 34.373 13.4499 34.4144 13.6319C34.4299 13.73 34.4455 13.828 34.461 13.9261C35.0281 17.7446 35.6074 21.5611 36.15 25.3834C36.3047 26.4397 36.3756 27.5217 36.3671 28.5787C36.3622 29.1827 36.5166 29.5227 37.0639 29.725C37.251 29.7959 37.3672 29.8152 37.4361 29.6158C37.7512 28.749 38.1458 27.9074 38.3467 27.0336C38.5791 26.0417 38.6322 25.028 38.7485 24.0168C38.7684 23.8251 38.8323 23.7522 39.0181 23.7353C39.3491 23.6829 39.6801 23.6305 40.0111 23.578C40.1827 23.5508 40.266 23.6005 40.2951 23.7844C40.4796 24.949 40.666 26.1259 40.8504 27.2905C40.897 27.5848 40.7797 27.7164 40.4874 27.7753C40.2177 27.818 39.948 27.8607 39.6047 27.9151C39.7772 28.2899 39.9503 28.5893 40.0517 28.9125C40.1435 29.1744 40.288 29.2144 40.5332 29.1755C41.1584 29.0765 41.7959 28.9755 42.4212 28.8765C43.0586 28.7755 43.5185 28.4262 43.7112 27.8176C43.8181 27.4614 43.8786 27.0497 43.8223 26.6942C43.1012 21.9827 42.3291 17.2668 41.5958 12.5573C41.555 12.2998 41.4576 12.2399 41.2143 12.291L41.2021 12.2929ZM37.8311 14.8124C38.0904 14.7839 38.3459 14.7308 38.6176 14.7004C38.6911 14.6887 38.8312 14.7796 38.8429 14.8532C38.9885 15.7726 39.1341 16.6921 39.2797 17.6115C39.2817 17.6238 39.2733 17.6503 39.2546 17.6909L38.0777 17.8773C38.0661 17.8038 38.0299 17.7341 38.0183 17.6605C37.8862 16.8269 37.7522 15.981 37.6202 15.1474C37.5872 14.939 37.6349 14.8435 37.8453 14.8227L37.8311 14.8124ZM39.7627 22.2476C39.4665 22.2819 39.1865 22.3389 38.8923 22.3855C38.7084 22.4146 38.6374 22.363 38.6205 22.1772C38.5194 21.3009 38.4164 20.4124 38.2908 19.5401C38.2539 19.3072 38.3158 19.222 38.5488 19.1851C39.505 19.0336 39.503 19.0214 39.6506 19.9531L39.7593 20.6396C39.8292 21.0809 39.8972 21.51 39.9671 21.9513C39.9962 22.1352 39.9627 22.241 39.7646 22.2599L39.7627 22.2476Z" fill="#FB897A"/>
<path d="M54.7374 25.1539C53.7709 25.3195 52.8005 25.4607 51.832 25.6141C51.5868 25.6529 51.4913 25.6052 51.4505 25.3477C51.2525 24.0973 51.0544 22.8469 50.8583 21.6087C50.8175 21.3512 50.8652 21.2557 51.1349 21.213C51.8234 21.1165 52.5202 20.9936 53.2067 20.8848C53.5091 20.8369 53.637 20.6659 53.5904 20.3717C53.5691 20.2368 53.5497 20.1142 53.5283 19.9794C53.4752 19.6443 53.2852 19.5026 52.9583 19.5544C52.2841 19.6612 51.6221 19.766 50.9478 19.8728C50.6658 19.9175 50.5787 19.8433 50.534 19.5614C50.3541 18.3458 50.1599 17.1198 49.9554 15.9081C49.9088 15.6139 50.0075 15.5229 50.2772 15.4801C51.076 15.3662 51.8832 15.2258 52.68 15.0996C53.0723 15.0374 53.0723 15.0374 53.0082 14.6329C52.9752 14.4245 52.9422 14.2161 52.9092 14.0077C52.8865 13.785 52.7891 13.7251 52.5684 13.76C51.7102 13.896 50.8521 14.0319 49.9939 14.1678C49.761 14.2047 49.6758 14.1428 49.6389 13.9098C49.4719 12.8556 49.303 11.789 49.136 10.7347C49.0933 10.465 48.992 10.3805 48.7223 10.4232C47.8415 10.5753 46.9589 10.7151 46.0865 10.8407C45.8046 10.8853 45.6833 10.9925 45.7667 11.2809C45.8003 11.4138 45.8113 11.5629 45.8327 11.6977C45.9783 12.6172 46.1239 13.5366 46.2696 14.4561C46.2851 14.5541 46.2368 14.7252 46.1774 14.7471C45.9239 14.8124 45.6522 14.8429 45.358 14.8895C45.3508 14.7649 45.3495 14.6772 45.3501 14.6017C45.3278 13.8261 45.2932 13.0524 45.2709 12.2768C45.2586 12.04 45.1592 11.9678 44.9159 12.0189C44.2926 12.1302 43.6532 12.2189 43.028 12.3179C42.7338 12.3645 42.6093 12.5308 42.6546 12.8169C42.9866 14.9132 43.096 17.0322 42.9422 19.1552C42.9313 19.2449 42.9997 19.3598 43.0746 19.4359C43.1779 19.5326 43.3121 19.5868 43.4154 19.6835C43.5878 19.8196 43.7104 19.8002 43.8303 19.6052C44.2913 18.8662 44.7343 18.0923 44.8881 17.2385C45.0232 16.4254 45.4276 16.1226 46.2052 16.1125C46.4562 16.1105 46.562 16.144 46.6028 16.4014C46.797 17.6273 46.9789 18.8552 47.1853 20.0792C47.23 20.3612 47.1436 20.4502 46.8738 20.493C46.0383 20.6127 45.2188 20.7551 44.3852 20.8871C44.1523 20.924 44.0781 21.0112 44.1273 21.2421C44.1764 21.4731 44.2153 21.7183 44.2418 21.9654C44.2665 22.2003 44.3536 22.2745 44.5846 22.2253C45.4163 22.081 46.2396 21.9632 47.0732 21.8312C47.3552 21.7865 47.463 21.8323 47.5115 22.1387C47.6934 23.3666 47.8876 24.5925 48.094 25.8165C48.1367 26.0862 48.0768 26.1837 47.7948 26.2284C46.7508 26.3811 45.7107 26.5584 44.6687 26.7235C44.4113 26.7643 44.339 26.8637 44.4024 27.105C44.4496 27.3237 44.4845 27.5444 44.5072 27.767C44.5254 28.0406 44.639 28.1231 44.921 28.0784C48.2555 27.5503 51.6023 27.0202 54.9368 26.4921C55.1943 26.4513 55.2929 26.3603 55.238 26.0925C55.1908 25.8738 55.1558 25.6531 55.1331 25.4305C55.1046 25.1711 55.0033 25.0866 54.7355 25.1416L54.7374 25.1539Z" fill="#FB897A"/>
<path d="M30.8646 29.9402C30.7967 29.5112 30.7967 29.5112 30.3676 29.5791C28.1487 29.9306 25.9297 30.282 23.7108 30.6334C23.3063 30.6975 23.2921 30.6872 23.226 30.2704C22.9872 28.7625 22.7484 27.2546 22.5096 25.7467C22.4649 25.4647 22.5352 25.3531 22.8294 25.3065C24.4844 25.0444 26.1271 24.7842 27.7821 24.522C28.0764 24.4754 28.519 24.4933 28.6286 24.3126C28.7608 24.1157 28.6109 23.7247 28.5747 23.4163C28.5125 23.024 28.5125 23.024 28.108 23.0881C26.2936 23.3755 24.467 23.6648 22.6526 23.9521C22.3584 23.9987 22.2364 23.9427 22.1878 23.6362C22.0001 22.3715 21.7859 21.0985 21.5859 19.8358C21.5238 19.4435 21.5341 19.4293 21.9264 19.3672C23.8021 19.0701 25.69 18.7711 27.5657 18.474C28.62 18.307 28.4716 18.4813 28.3292 17.4231C28.2632 17.0063 28.2632 17.0063 27.8341 17.0743C22.5381 17.9131 17.2543 18.7499 11.9583 19.5887C11.6764 19.6334 11.2705 19.6097 11.1589 19.7782C11.039 19.9731 11.1585 20.3312 11.2032 20.6132C11.2731 21.0545 11.2731 21.0545 11.7022 20.9865C13.725 20.6662 15.7477 20.3458 17.7583 20.0273C18.1628 19.9633 18.177 19.9736 18.243 20.3904C18.4353 21.6041 18.6294 22.83 18.8216 24.0437C18.876 24.3869 18.7357 24.5851 18.4006 24.6382C16.5985 24.9236 14.7963 25.209 12.9942 25.4944C12.7736 25.5294 12.6323 25.5895 12.6995 25.8553C12.7487 26.0863 12.7998 26.3295 12.8141 26.5786C12.8323 26.8522 12.942 26.9102 13.1975 26.8572C15.0486 26.564 16.8998 26.2708 18.7509 25.9776C19.0452 25.931 19.1446 26.0032 19.1789 26.2994C19.4197 27.8195 19.6605 29.3397 19.8993 30.8476C19.9575 31.2153 19.9369 31.2437 19.5691 31.302C18.38 31.4903 17.1908 31.6787 16.0017 31.867C14.9351 32.0359 13.8563 32.2068 12.7897 32.3757C12.5568 32.4126 12.4439 32.4933 12.5092 32.7469C12.5564 32.9656 12.6036 33.1843 12.6141 33.4089C12.6239 33.7089 12.7562 33.7508 13.0382 33.7062C15.9681 33.2421 18.8981 32.778 21.8281 32.314C24.5987 31.8752 27.3692 31.4363 30.1398 30.9975C30.4218 30.9529 30.8258 30.9643 30.927 30.81C31.0469 30.6151 30.9151 30.259 30.8808 29.9628L30.8646 29.9402Z" fill="#FB897A"/>
<path d="M20.3686 17.7037C20.7422 17.6823 21.0233 17.2356 20.9405 16.8717C20.7944 16.2665 20.6586 15.6471 20.537 15.038C20.5021 14.8174 20.4085 14.7819 20.2123 14.813C19.7465 14.8868 19.2929 14.9586 18.827 15.0324C18.3734 15.1042 17.934 15.1864 17.4785 15.246C17.2088 15.2887 17.1734 15.3823 17.2367 15.6236C17.6439 17.0043 18.9742 17.7863 20.3686 17.7037Z" fill="#FB897A"/>
</g>
<defs>
<clipPath id="clip0_14268_81628">
<rect width="60" height="34" fill="white" transform="translate(0.709961 9.90234) rotate(-9)"/>
</clipPath>
</defs>
</svg>
