<svg width="17" height="16" viewBox="0 0 17 16" fill="none" xmlns="http://www.w3.org/2000/svg">
<path d="M9.57713 1.48409C8.44144 1.49461 7.30842 1.86723 6.36871 2.60121C8.43984 1.56031 11.0404 1.89873 12.7685 3.62676C14.4965 5.35476 14.822 7.94235 13.781 10.0135C15.401 7.93962 15.2736 4.9375 13.3656 3.02958C12.3222 1.9862 10.9477 1.47146 9.5771 1.48411L9.57713 1.48409ZM8.81072 3.25942C7.7656 3.27123 6.72424 3.66175 5.91455 4.43139C7.60514 3.4075 9.84198 3.63405 11.3016 5.09359C12.7612 6.55322 12.9747 8.77729 11.9507 10.4679C13.5399 8.79614 13.5261 6.14974 11.8858 4.50946C11.04 3.66372 9.92326 3.24688 8.81072 3.25942ZM8.34357 4.93398C7.54752 4.93398 6.75152 5.23765 6.14419 5.84501C4.92947 7.05973 4.92947 9.02915 6.14419 10.2439C7.35885 11.4586 9.32822 11.4586 10.5429 10.2439C11.7577 9.02915 11.7577 7.05976 10.5429 5.84504C9.93561 5.23768 9.13959 4.93398 8.34357 4.93398ZM4.61321 5.73273C3.02406 7.40448 3.05081 10.0638 4.69111 11.7041C6.33136 13.3445 8.97781 13.3582 10.6495 11.769C8.95888 12.7931 6.73493 12.5797 5.2753 11.12C3.81567 9.66028 3.5892 7.42336 4.61323 5.73276L4.61321 5.73273ZM2.78289 6.18709C1.16297 8.26092 1.30332 11.276 3.21123 13.1839C5.11917 15.0919 8.12129 15.2192 10.1952 13.5994C8.12405 14.6403 5.53641 14.3149 3.80841 12.5868C2.08041 10.8587 1.74195 8.25813 2.78289 6.18704V6.18709Z" fill="#F85640"/>
</svg>
