<svg width="17" height="16" viewBox="0 0 17 16" fill="none" xmlns="http://www.w3.org/2000/svg">
<path fill-rule="evenodd" clip-rule="evenodd" d="M8.83954 2.33465C8.6903 2.21124 8.4832 2.18511 8.30797 2.26759C8.13275 2.35006 8.02091 2.52631 8.02091 2.71998V6.85646V10.8809C7.88076 10.9289 7.74534 10.9843 7.61466 11.0465C6.78834 11.44 6.19855 12.0821 5.80871 12.7055H4C3.72386 12.7055 3.5 12.9294 3.5 13.2055C3.5 13.4816 3.72386 13.7055 4 13.7055H9.483C9.58917 13.7055 9.69257 13.6717 9.77825 13.609L13.7226 10.7231C13.9454 10.56 13.9939 10.2472 13.8309 10.0243C13.6678 9.80146 13.355 9.75298 13.1321 9.91604L11.4555 11.1428C10.5505 10.764 9.73885 10.6318 9.02091 10.6811V7.35646H13.5232C13.734 7.35646 13.9222 7.22418 13.9936 7.02578C14.065 6.82738 14.0043 6.60551 13.8418 6.47114L8.83954 2.33465ZM12.1339 6.35646H9.02091V3.78225L12.1339 6.35646ZM9.31962 12.7055H7.05323C7.32187 12.405 7.65154 12.1365 8.04456 11.9494C8.64507 11.6635 9.44186 11.5441 10.483 11.8543L9.31962 12.7055Z" fill="#4A4A4A"/>
<path d="M8.30797 2.26759L8.39315 2.44854V2.44854L8.30797 2.26759ZM8.83954 2.33465L8.71209 2.48878V2.48878L8.83954 2.33465ZM8.02091 10.8809L8.08562 11.0702C8.16654 11.0425 8.22091 10.9665 8.22091 10.8809H8.02091ZM7.61466 11.0465L7.52868 10.866H7.52868L7.61466 11.0465ZM5.80871 12.7055V12.9055C5.87765 12.9055 5.94173 12.87 5.97829 12.8115L5.80871 12.7055ZM9.77825 13.609L9.66015 13.4476L9.66015 13.4476L9.77825 13.609ZM13.7226 10.7231L13.8407 10.8845V10.8845L13.7226 10.7231ZM13.8309 10.0243L13.6695 10.1424V10.1424L13.8309 10.0243ZM13.1321 9.91604L13.2502 10.0774L13.1321 9.91604ZM11.4555 11.1428L11.3783 11.3273C11.4429 11.3543 11.517 11.3456 11.5736 11.3042L11.4555 11.1428ZM9.02091 10.6811H8.82091C8.82091 10.7365 8.84391 10.7895 8.88442 10.8273C8.92494 10.8651 8.97933 10.8845 9.03462 10.8807L9.02091 10.6811ZM9.02091 7.35646V7.15646C8.91045 7.15646 8.82091 7.24601 8.82091 7.35646H9.02091ZM13.9936 7.02578L14.1818 7.09351V7.09351L13.9936 7.02578ZM13.8418 6.47114L13.9693 6.31701L13.8418 6.47114ZM9.02091 6.35646H8.82091C8.82091 6.46692 8.91045 6.55646 9.02091 6.55646V6.35646ZM12.1339 6.35646V6.55646C12.2183 6.55646 12.2935 6.50355 12.3221 6.42419C12.3507 6.34483 12.3264 6.25608 12.2614 6.20233L12.1339 6.35646ZM9.02091 3.78225L9.14836 3.62812C9.08866 3.57875 9.00583 3.5683 8.93574 3.60129C8.86565 3.63428 8.82091 3.70478 8.82091 3.78225H9.02091ZM7.05323 12.7055L6.90413 12.5722C6.85157 12.631 6.83846 12.7152 6.87067 12.7872C6.90287 12.8592 6.97437 12.9055 7.05323 12.9055V12.7055ZM9.31962 12.7055V12.9055C9.36208 12.9055 9.40345 12.892 9.43772 12.8669L9.31962 12.7055ZM8.04456 11.9494L8.13054 12.13L8.04456 11.9494ZM10.483 11.8543L10.6011 12.0157C10.6624 11.9709 10.693 11.8951 10.68 11.8203C10.6671 11.7454 10.6129 11.6843 10.5401 11.6627L10.483 11.8543ZM8.39315 2.44854C8.49828 2.39906 8.62254 2.41473 8.71209 2.48878L8.967 2.18052C8.75805 2.00774 8.46812 1.97116 8.2228 2.08663L8.39315 2.44854ZM8.22091 2.71998C8.22091 2.60378 8.28801 2.49803 8.39315 2.44854L8.2228 2.08663C7.97748 2.2021 7.82091 2.44884 7.82091 2.71998H8.22091ZM8.22091 6.85646V2.71998H7.82091V6.85646H8.22091ZM8.22091 10.8809V6.85646H7.82091V10.8809H8.22091ZM7.9562 10.6917C7.80867 10.7422 7.66616 10.8005 7.52868 10.866L7.70064 11.2271C7.82452 11.1681 7.95285 11.1156 8.08562 11.0702L7.9562 10.6917ZM7.52868 10.866C6.65926 11.2799 6.04337 11.953 5.63913 12.5995L5.97829 12.8115C6.35373 12.2111 6.91741 11.6 7.70064 11.2271L7.52868 10.866ZM5.80871 12.5055H4V12.9055H5.80871V12.5055ZM4 12.5055C3.6134 12.5055 3.3 12.8189 3.3 13.2055H3.7C3.7 13.0398 3.83431 12.9055 4 12.9055V12.5055ZM3.3 13.2055C3.3 13.5921 3.6134 13.9055 4 13.9055V13.5055C3.83431 13.5055 3.7 13.3712 3.7 13.2055H3.3ZM4 13.9055H9.483V13.5055H4V13.9055ZM9.483 13.9055C9.63163 13.9055 9.7764 13.8582 9.89635 13.7704L9.66015 13.4476C9.60874 13.4852 9.5467 13.5055 9.483 13.5055V13.9055ZM9.89635 13.7704L13.8407 10.8845L13.6045 10.5617L9.66015 13.4476L9.89635 13.7704ZM13.8407 10.8845C14.1527 10.6562 14.2206 10.2182 13.9923 9.90622L13.6695 10.1424C13.7673 10.2761 13.7382 10.4638 13.6045 10.5617L13.8407 10.8845ZM13.9923 9.90622C13.764 9.59421 13.326 9.52635 13.014 9.75463L13.2502 10.0774C13.3839 9.97961 13.5716 10.0087 13.6695 10.1424L13.9923 9.90622ZM13.014 9.75463L11.3374 10.9814L11.5736 11.3042L13.2502 10.0774L13.014 9.75463ZM11.5327 10.9583C10.6035 10.5694 9.7607 10.4298 9.0072 10.4816L9.03462 10.8807C9.717 10.8338 10.4976 10.9587 11.3783 11.3273L11.5327 10.9583ZM8.82091 7.35646V10.6811H9.22091V7.35646H8.82091ZM13.5232 7.15646H9.02091V7.55646H13.5232V7.15646ZM13.8054 6.95805C13.7626 7.07709 13.6497 7.15646 13.5232 7.15646V7.55646C13.8184 7.55646 14.0818 7.37127 14.1818 7.09351L13.8054 6.95805ZM13.7144 6.62527C13.8118 6.70589 13.8483 6.83901 13.8054 6.95806L14.1818 7.09351C14.2818 6.81575 14.1968 6.50513 13.9693 6.31701L13.7144 6.62527ZM8.71209 2.48878L13.7144 6.62527L13.9693 6.31701L8.967 2.18052L8.71209 2.48878ZM9.02091 6.55646H12.1339V6.15646H9.02091V6.55646ZM8.82091 3.78225V6.35646H9.22091V3.78225H8.82091ZM12.2614 6.20233L9.14836 3.62812L8.89346 3.93637L12.0065 6.51059L12.2614 6.20233ZM7.05323 12.9055H9.31962V12.5055H7.05323V12.9055ZM7.95858 11.7688C7.53762 11.9693 7.18728 12.2555 6.90413 12.5722L7.20233 12.8388C7.45646 12.5546 7.76545 12.3038 8.13054 12.13L7.95858 11.7688ZM10.5401 11.6627C9.45465 11.3392 8.60661 11.4603 7.95858 11.7688L8.13054 12.13C8.68352 11.8667 9.42906 11.749 10.4258 12.046L10.5401 11.6627ZM9.43772 12.8669L10.6011 12.0157L10.3649 11.6929L9.20152 12.5441L9.43772 12.8669Z" fill="#4A4A4A"/>
</svg>
