<svg width="16" height="16" viewBox="0 0 16 16" fill="none" xmlns="http://www.w3.org/2000/svg">
<path fill-rule="evenodd" clip-rule="evenodd" d="M8.00537 1.00011C4.21082 0.978873 0.984138 4.05813 1.00006 8.024C1.01598 11.9474 4.17368 15.016 8.0319 15.0001C11.8795 14.9842 15.0054 11.8943 15.0001 7.99215C14.9948 3.97849 11.7256 0.984182 8.00537 1.00011ZM13.9174 8.8469C13.9174 8.8469 13.9121 8.86283 13.9121 8.87345C13.8644 9.21323 13.7847 9.41498 13.7847 9.41498C13.8095 9.43621 13.8013 9.46217 13.793 9.48812C13.7889 9.5011 13.7847 9.51408 13.7847 9.52646C13.6627 9.97773 13.4982 10.4131 13.2753 10.8272C12.9091 11.5014 12.4368 12.0854 11.853 12.5792C11.8424 12.5898 11.8264 12.6004 11.8052 12.611C11.8052 12.611 11.3753 12.9243 11.3594 12.9402V12.9243C11.3594 12.9243 11.3223 12.972 11.2957 12.988C10.4519 13.5401 9.5338 13.864 8.53076 13.9436C8.49892 13.9457 8.46708 13.9496 8.43524 13.9534L8.43521 13.9534C8.38746 13.9591 8.3397 13.9648 8.29195 13.9648H8.02659C7.74868 14.0214 7.49167 13.8897 7.22959 13.7555C7.19639 13.7385 7.16311 13.7214 7.1297 13.7047C7.08194 13.6835 7.04479 13.6622 7.06602 13.5932C7.12429 13.3928 7.15007 13.1899 7.17595 12.9862L7.17596 12.9862C7.18779 12.8931 7.19963 12.7998 7.21462 12.7066C7.26769 12.2872 7.11909 12.1545 7.11909 12.1545C6.96911 12.0007 6.78999 11.8893 6.6098 11.7772C6.53495 11.7307 6.45992 11.684 6.38672 11.6342C6.1168 11.449 5.84409 11.2695 5.57061 11.0894L5.57054 11.0894L5.57 11.089C5.46728 11.0214 5.36445 10.9537 5.26162 10.8856C5.26162 10.8856 5.12894 10.7794 4.81052 10.8325H4.79991C4.79312 10.837 4.78827 10.8425 4.78328 10.8481C4.77657 10.8557 4.76963 10.8636 4.75745 10.8697C4.65978 10.9185 4.56071 10.9655 4.46148 11.0125C4.22643 11.124 3.99051 11.2359 3.77034 11.374C3.7438 11.3899 3.72258 11.3953 3.70135 11.3899C3.5156 11.6235 3.61643 11.8147 3.61643 11.8147C3.61643 11.8147 3.61113 11.8147 3.60582 11.8094C3.61978 11.8512 3.6308 11.8961 3.64197 11.9415C3.65204 11.9825 3.66223 12.0239 3.67481 12.0642C3.367 11.7669 3.11757 11.4324 2.9106 11.0608C2.90529 11.0502 2.89998 11.0449 2.89468 11.0395C2.62932 10.6307 2.40643 10.0308 2.32151 9.77599C2.3109 9.75476 2.30559 9.73352 2.30029 9.70697C2.28967 9.67512 2.28437 9.65388 2.28437 9.65388C2.28171 9.64326 2.27906 9.63397 2.2764 9.62468C2.27375 9.61539 2.2711 9.6061 2.26844 9.59548C2.13046 9.06989 2.05616 8.53367 2.05085 7.9072C2.05085 7.85235 2.05749 7.76209 2.06505 7.65928L2.06506 7.65926C2.0692 7.60285 2.07363 7.54266 2.07739 7.48248C2.07739 7.4598 2.08513 7.44488 2.094 7.42777L2.09862 7.41877C2.09862 7.41877 2.09862 6.93033 2.27906 6.37288C2.55502 5.3854 3.0645 4.52002 3.79157 3.77144C3.87117 3.6918 3.92955 3.64933 4.041 3.73428C4.14714 3.81391 4.27982 3.82984 4.41249 3.79799C4.54645 3.76225 4.68417 3.73027 4.81933 3.69889L4.81937 3.69888L4.89543 3.68119L5.41022 3.54846C5.67754 3.45575 5.91853 3.31515 6.15891 3.17491C6.27644 3.10633 6.39383 3.03784 6.51408 2.97508C6.7161 2.87232 6.91148 2.76073 7.10737 2.64884C7.2151 2.58731 7.32298 2.52569 7.4322 2.46541C7.55957 2.39639 7.64979 2.30083 7.68164 2.16279C7.70286 2.06723 7.76124 2.02476 7.85146 2.02476C8.53076 2.01945 9.19415 2.09909 9.87345 2.31676C9.54972 2.4601 9.49134 2.71494 9.50196 3.01224C9.5055 3.14358 9.50431 3.27491 9.50312 3.40466V3.40473L9.50312 3.40496C9.50254 3.46917 9.50196 3.533 9.50196 3.59624C9.50196 3.89666 9.6777 4.07011 9.72953 4.12127L9.73546 4.12715C10.0889 4.37606 10.4619 4.59311 10.8345 4.80994L10.8345 4.80995L10.8346 4.81001C11.0103 4.91226 11.186 5.01447 11.3594 5.11994C11.4284 5.16241 11.4868 5.2102 11.5399 5.25798C11.5399 5.25798 11.8158 5.45441 12.0016 5.39601C12.0228 5.3854 12.0493 5.37478 12.0812 5.36947C12.1714 5.35885 12.251 5.30045 12.3094 5.23674C12.3633 5.17996 12.4203 5.12583 12.4774 5.07152C12.634 4.92271 12.7921 4.77252 12.8932 4.56249C13.0311 4.73769 13.1373 4.90758 13.2328 5.08809C13.668 5.87383 13.9174 6.71266 13.9811 7.6152C14.0023 7.97091 13.9811 8.316 13.9493 8.6664V8.68763C13.9493 8.69825 13.9479 8.70887 13.9466 8.71949C13.9453 8.73011 13.944 8.74072 13.944 8.75134V8.75135C13.944 8.78851 13.944 8.82036 13.9333 8.85752L13.9174 8.8469ZM13.0895 9.77584C13.1797 9.53163 13.0895 9.27679 13.0895 9.27679L13.0279 9.18703C12.7458 8.77574 12.4618 8.36172 12.1501 7.97076C12.1395 7.95483 12.1289 7.9336 12.1236 7.91767V7.92298C12.1236 7.92298 12.1236 7.80618 11.7255 7.85396C11.2922 8.00444 10.8661 8.1791 10.4407 8.35347L10.4406 8.35348L10.4405 8.35352C10.2356 8.43751 10.0309 8.52143 9.82562 8.60254C9.81588 8.60497 9.80727 8.60629 9.79925 8.60752C9.78979 8.60897 9.78117 8.61028 9.77255 8.61316C9.50189 8.85738 9.5072 8.93701 9.5072 8.93701C9.46897 9.2638 9.47398 9.59058 9.47901 9.91886V9.91888C9.48167 10.0919 9.48433 10.2654 9.48066 10.4395V10.9916C9.49128 11.3792 9.72479 11.5066 9.72479 11.5066C9.88291 11.6022 10.0614 11.6342 10.2391 11.6659C10.3179 11.68 10.3965 11.6941 10.4731 11.7137C10.7915 11.7933 11.1152 11.8623 11.439 11.926C11.439 11.926 11.7574 11.9419 11.9166 11.6924C11.9201 11.6853 11.9237 11.683 11.9272 11.6806C11.929 11.6794 11.9308 11.6783 11.9325 11.6765C11.9624 11.6267 11.9943 11.579 12.0257 11.5321L12.0258 11.532L12.0258 11.532C12.0446 11.5039 12.0632 11.476 12.0811 11.4482C12.189 11.2677 12.2975 11.0872 12.406 10.9067C12.623 10.5457 12.84 10.1847 13.0523 9.82363C13.064 9.80406 13.0758 9.79315 13.0896 9.78026C13.0919 9.77815 13.0942 9.77599 13.0966 9.77373C13.0994 9.77106 13.1024 9.76825 13.1054 9.76523H13.0948L13.0895 9.77584ZM7.49591 7.2753C7.4853 7.33901 7.43223 7.45581 7.23056 7.61508L7.22525 7.60977C6.82014 7.77573 6.41783 7.93609 6.01425 8.09695C5.8627 8.15736 5.71096 8.21784 5.55884 8.27871C5.25633 8.44329 4.95914 8.34773 4.95914 8.34773C4.95559 8.34536 4.95203 8.34273 4.94836 8.34001C4.93558 8.33053 4.92138 8.32 4.90076 8.31587C4.8583 8.30526 4.82116 8.26809 4.79462 8.23093C4.70047 8.1049 4.60565 7.97854 4.51058 7.85185C4.2252 7.47153 3.93758 7.08822 3.65891 6.70192C3.44132 6.40461 3.6483 6.24003 3.6483 6.24003H3.63238C3.64043 6.23197 3.64925 6.22544 3.65797 6.21899C3.67222 6.20844 3.68618 6.1981 3.69606 6.18163C3.79512 6.03298 3.89359 5.88375 3.99206 5.73451C4.18902 5.43602 4.38597 5.13752 4.58765 4.84375C4.61625 4.80202 4.64297 4.75869 4.66969 4.71537C4.76196 4.56579 4.85409 4.41642 5.02282 4.33408C5.17673 4.27568 5.3837 4.30753 5.48984 4.33408C5.4939 4.33611 5.4964 4.33813 5.49854 4.33987C5.50201 4.34267 5.50451 4.3447 5.51107 4.3447C5.52457 4.34713 5.53808 4.34956 5.5516 4.35199C5.80393 4.39738 6.06031 4.4435 6.30713 4.50397C6.41658 4.53134 6.52878 4.54934 6.64125 4.56738C6.87782 4.60534 7.11557 4.64348 7.33139 4.76942C7.33139 4.76942 7.4906 4.96586 7.50652 5.18353C7.52582 5.49242 7.52266 5.80131 7.51951 6.11019C7.51832 6.22603 7.51714 6.34187 7.51714 6.4577C7.51714 6.53137 7.51949 6.60543 7.52186 6.67967C7.52818 6.87829 7.53454 7.0782 7.49591 7.2753Z" fill="#4A4A4A"/>
</svg>
