<svg width="20" height="20" viewBox="0 0 20 20" fill="none" xmlns="http://www.w3.org/2000/svg">
<g id="&#232;&#179;&#189;&#230;&#179;&#129;_&#228;&#186;&#139;&#228;&#187;&#182;&#232;&#170;&#170;&#230;&#152;&#142;/ic/&#229;&#133;&#172;&#229;&#145;&#138;">
<path id="Subtract" fill-rule="evenodd" clip-rule="evenodd" d="M7.88907 16.9066H8.21246V16.8604C8.58284 16.8536 8.95323 16.8345 9.32604 16.8153C9.58097 16.8022 9.83703 16.789 10.095 16.7796C10.4877 16.768 10.8457 16.6756 11.1575 16.4216C11.3885 16.2252 11.5733 15.9942 11.6542 15.717C11.7119 15.4861 11.7235 15.2435 11.735 15.001C11.7466 14.7931 11.7812 14.7353 11.9891 14.7353L15.835 14.5621C15.9274 14.5621 15.9852 14.5852 16.0429 14.6545C16.2046 14.8393 16.3663 14.9894 16.6088 15.0818C17.1979 15.3013 17.8677 14.8855 17.9832 14.2734C18.0372 14.0215 17.9511 13.7907 17.8667 13.5645C17.8427 13.5003 17.8189 13.4364 17.7984 13.3725C17.761 13.2603 17.7169 13.1548 17.6733 13.0506C17.6361 12.9618 17.5993 12.8739 17.5674 12.7835C17.5328 12.6796 17.4981 12.5727 17.4635 12.4659C17.4288 12.3591 17.3942 12.2522 17.3595 12.1483C17.326 12.0392 17.2802 11.924 17.2355 11.8115C17.2187 11.7692 17.2021 11.7273 17.1863 11.6863C17.1459 11.5766 17.1026 11.464 17.0593 11.3514C17.016 11.2388 16.9726 11.1262 16.9322 11.0165L16.7243 10.4274L16.4818 9.76912C16.4471 9.67096 16.4125 9.5699 16.3779 9.46885C16.3432 9.36779 16.3086 9.26673 16.2739 9.16856C16.17 8.90292 16.0776 8.64884 15.9852 8.3832C15.9824 8.37775 15.9791 8.37165 15.9755 8.36522C15.964 8.34439 15.9505 8.32 15.9505 8.30236C15.9101 8.19264 15.8668 8.08292 15.8235 7.9732C15.7802 7.86348 15.7369 7.75376 15.6964 7.64404C15.6398 7.51466 15.5945 7.37961 15.5487 7.24286C15.5291 7.18431 15.5093 7.12544 15.4885 7.06658C15.4582 6.98814 15.4278 6.91025 15.3976 6.83268C15.2898 6.55617 15.1835 6.28363 15.0843 6.00403C15.0304 5.87314 14.9868 5.74225 14.9432 5.61136C14.9213 5.54591 14.8995 5.48046 14.8764 5.41502C14.8476 5.33995 14.8187 5.26199 14.7898 5.18403C14.7609 5.10607 14.7321 5.02811 14.7032 4.95304L14.4607 4.32938C14.4299 4.25238 14.4003 4.17538 14.3708 4.09838C14.3118 3.9444 14.2528 3.79041 14.1835 3.63642C13.9871 3.23219 13.6522 3.05895 13.2133 3.08205C13.099 3.08205 12.9915 3.12219 12.8855 3.16174C12.8522 3.17415 12.8191 3.18651 12.786 3.19754C12.5781 3.26684 12.4511 3.42853 12.3587 3.61332C12.2663 3.80966 12.197 4.0291 12.2085 4.26008C12.2085 4.31783 12.1623 4.41022 12.1046 4.45642C12.0201 4.5339 11.9312 4.60279 11.8434 4.67094C11.7872 4.71454 11.7313 4.75784 11.6773 4.8029C11.556 4.8953 11.4347 4.99058 11.3135 5.08586C11.1922 5.18114 11.0709 5.27643 10.9497 5.36882C10.7187 5.55361 10.4992 5.72685 10.2682 5.90009C10.0373 6.08488 9.81782 6.25812 9.58683 6.43136C9.42514 6.5584 9.26345 6.67967 9.10176 6.80094C8.94006 6.92221 8.77837 7.04348 8.61668 7.17052C8.47809 7.28024 8.34239 7.38996 8.20668 7.49968C8.07098 7.6094 7.93527 7.71911 7.79668 7.82883C7.72387 7.8843 7.65003 7.93977 7.57576 7.99556C7.40264 8.12561 7.22725 8.25735 7.05752 8.39475C6.90738 8.52179 6.75724 8.64884 6.59555 8.76433C6.48005 8.85673 6.36167 8.94335 6.24329 9.02997C6.12491 9.11659 6.00653 9.20321 5.89104 9.2956C5.6485 9.48039 5.40597 9.67672 5.16344 9.87306L5.16343 9.87307C4.94399 10.0463 4.713 10.2195 4.48202 10.3928C4.14708 10.6584 3.81215 10.9241 3.46567 11.1897C3.39638 11.2474 3.29243 11.259 3.21159 11.1781C2.94595 10.9241 2.59947 10.8663 2.27609 11.1204C2.022 11.3283 1.92961 11.6401 2.05665 11.9404C2.09707 12.0443 2.13461 12.1483 2.17214 12.2522C2.20968 12.3562 2.24722 12.4601 2.28764 12.5641L2.49553 13.1531C2.53595 13.2628 2.57926 13.3754 2.62257 13.488C2.66588 13.6006 2.70919 13.7132 2.74961 13.8229C2.78426 13.9269 2.82179 14.0308 2.85933 14.1348C2.89687 14.2387 2.9344 14.3427 2.96905 14.4466C3.01525 14.5621 3.05856 14.6805 3.10187 14.7989C3.14518 14.9172 3.18849 15.0356 3.23468 15.1511C3.25426 15.1976 3.27176 15.2441 3.28905 15.29C3.35339 15.4609 3.41487 15.6242 3.56962 15.7517C3.81215 15.948 4.18173 15.948 4.41272 15.7863C4.58596 15.6708 4.713 15.4976 4.72455 15.2666C4.72455 15.1396 4.79385 15.0818 4.92089 15.0818C5.03297 15.0781 5.14625 15.0731 5.26036 15.0682C5.499 15.0578 5.74121 15.0472 5.98343 15.0472C6.19132 15.0356 6.26062 15.1049 6.26062 15.3128C6.26062 15.6246 6.32991 15.9018 6.50315 16.1559C6.83808 16.641 7.30006 16.9066 7.88907 16.9066ZM9.40431 15.8289C9.03872 15.8505 8.67366 15.8721 8.30485 15.8787V15.8903H7.92372C7.50795 15.8903 7.28851 15.59 7.28851 15.2089C7.27696 15.0587 7.3578 14.9779 7.50795 14.9779C7.88907 14.9548 8.25865 14.9432 8.63978 14.9317C8.94584 14.9201 9.25479 14.9086 9.56373 14.897C9.87268 14.8855 10.1816 14.8739 10.4877 14.8624C10.6147 14.8508 10.6956 14.9086 10.7187 15.0125C10.7995 15.3013 10.5916 15.7632 10.2336 15.7863C9.95564 15.7963 9.67982 15.8126 9.40431 15.8289ZM15.4076 13.4418L4.53965 14.0077L3.93908 12.1598L12.6011 5.7384L15.4076 13.4418Z" fill="#4A4A4A"/>
<path id="Subtract_2" fill-rule="evenodd" clip-rule="evenodd" d="M6.1239 13.9251L15.4075 13.4417L13.7921 9.00757L6.1239 13.9251Z" fill="#8D8D8D"/>
</g>
</svg>
