<svg width="14" height="14" viewBox="0 0 14 14" fill="none" xmlns="http://www.w3.org/2000/svg">
<g id="&#233;&#187;&#131;&#231;&#137;&#140;">
<rect id="Rectangle 88" width="14" height="14" rx="1" fill="#FFC633"/>
<path id="Rectangle 89" d="M7 0H13C13.5523 0 14 0.447715 14 1V13C14 13.5523 13.5523 14 13 14H7V0Z" fill="#F85640"/>
<path id="Vector" d="M2.7878 9.53459C2.71572 9.46475 2.67969 9.36951 2.67969 9.24887C2.67969 8.98856 2.75176 8.74729 2.8959 8.52506C3.02804 8.32189 3.18419 8.13776 3.37638 7.97903C3.56858 7.8203 3.84485 7.61078 4.22323 7.35681C4.4935 7.17268 4.72173 7.0076 4.90792 6.86792C5.30431 6.55681 5.4965 6.2457 5.4965 5.92824C5.4965 5.61078 5.40641 5.40126 5.22023 5.24887C5.03404 5.09649 4.75777 5.01395 4.3914 5.01395C3.97098 5.01395 3.56858 5.10284 3.1902 5.28062C3.13614 5.30602 3.0881 5.31872 3.05807 5.31872C2.98599 5.31872 2.91993 5.29332 2.86587 5.23618C2.81182 5.17903 2.7878 5.10919 2.7878 5.02665C2.7878 4.89967 2.84185 4.81078 2.94996 4.74094C3.43044 4.48697 3.94695 4.35999 4.51152 4.35999C4.82383 4.35999 5.0941 4.42348 5.33434 4.54411C5.58659 4.6711 5.78479 4.85522 5.92293 5.08379C6.06107 5.31237 6.13314 5.57903 6.13314 5.87745C6.13314 6.17586 6.05506 6.45522 5.8929 6.69649C5.74275 6.93141 5.56257 7.14094 5.35236 7.31872C5.14215 7.49649 4.83584 7.73141 4.42744 8.01078C4.07308 8.2711 3.81482 8.46157 3.66467 8.59491C3.51452 8.72824 3.40641 8.86157 3.34635 8.99491H5.77879C5.86287 8.99491 5.93494 9.02665 5.995 9.09014C6.05506 9.15364 6.08509 9.22983 6.08509 9.31872C6.08509 9.4076 6.05506 9.4838 5.995 9.54729C5.93494 9.61078 5.86287 9.64253 5.77879 9.64253H3.05807C2.94395 9.64253 2.85386 9.60443 2.78179 9.53459H2.7878Z" fill="white" stroke="white" stroke-width="0.5" stroke-miterlimit="10"/>
<path id="Vector_2" d="M8.57808 9.51114C8.51802 9.44764 8.48799 9.37145 8.48799 9.28256C8.48799 9.19368 8.51802 9.11748 8.57808 9.05399C8.63814 8.9905 8.71021 8.95875 8.7943 8.95875H9.62312V5.32066C9.62312 5.28891 9.61712 5.26352 9.5991 5.25082C9.58108 5.23812 9.55706 5.24447 9.52703 5.26352L8.91442 5.57463C8.85436 5.60637 8.8003 5.61907 8.75225 5.61907C8.66216 5.61907 8.59009 5.58733 8.53003 5.52383C8.46997 5.46034 8.43994 5.38415 8.43994 5.28891C8.43994 5.14288 8.50601 5.04129 8.63213 4.9778L9.58709 4.45082C9.64114 4.41907 9.70721 4.40002 9.78529 4.40002H9.93544C10.0315 4.40002 10.1096 4.43812 10.1757 4.50796C10.2417 4.5778 10.2778 4.66669 10.2778 4.76193V8.95875H10.9685C11.0526 8.95875 11.1246 8.9905 11.1847 9.05399C11.2447 9.11748 11.2748 9.19368 11.2748 9.28256C11.2748 9.37145 11.2447 9.44764 11.1847 9.51114C11.1246 9.57463 11.0526 9.60637 10.9685 9.60637H8.7943C8.71021 9.60637 8.63814 9.57463 8.57808 9.51114Z" fill="white" stroke="white" stroke-width="0.5" stroke-miterlimit="10"/>
</g>
</svg>
