<svg width="17" height="16" viewBox="0 0 17 16" fill="none" xmlns="http://www.w3.org/2000/svg">
<g clip-path="url(#clip0_8556_484)">
<path fill-rule="evenodd" clip-rule="evenodd" d="M8.20532 1.00011C4.41078 0.978873 1.18409 4.05813 1.20001 8.024C1.21593 11.9474 4.37363 15.016 8.23185 15.0001C12.0795 14.9842 15.2053 11.8943 15.2 7.99215C15.1947 3.97849 11.9256 0.984182 8.20532 1.00011ZM14.1174 8.8469C14.1174 8.8469 14.1121 8.86283 14.1121 8.87345C14.0643 9.21323 13.9847 9.41498 13.9847 9.41498C14.0095 9.43621 14.0012 9.46217 13.993 9.48812C13.9888 9.5011 13.9847 9.51408 13.9847 9.52646C13.8626 9.97773 13.6981 10.4131 13.4752 10.8272C13.109 11.5014 12.6367 12.0854 12.0529 12.5792C12.0423 12.5898 12.0264 12.6004 12.0052 12.611C12.0052 12.611 11.5753 12.9243 11.5594 12.9402V12.9243C11.5594 12.9243 11.5222 12.972 11.4957 12.988C10.6519 13.5401 9.73375 13.864 8.73071 13.9436C8.69887 13.9457 8.66703 13.9496 8.63518 13.9534C8.58742 13.9591 8.53966 13.9648 8.4919 13.9648H8.22655C7.94863 14.0214 7.69162 13.8897 7.42954 13.7555L7.42943 13.7554C7.39627 13.7384 7.36303 13.7214 7.32965 13.7047C7.28189 13.6835 7.24474 13.6622 7.26597 13.5932C7.32425 13.3928 7.35003 13.1899 7.37591 12.9862L7.37591 12.9862C7.38774 12.8931 7.39958 12.7998 7.41457 12.7066C7.46764 12.2872 7.31904 12.1545 7.31904 12.1545C7.16906 12.0007 6.98994 11.8893 6.80975 11.7772C6.7349 11.7307 6.65987 11.684 6.58667 11.6342C6.31676 11.449 6.04404 11.2695 5.77056 11.0894L5.77049 11.0894L5.76996 11.089C5.66723 11.0214 5.5644 10.9537 5.46157 10.8856C5.46157 10.8856 5.3289 10.7794 5.01047 10.8325H4.99986C4.99307 10.837 4.98822 10.8425 4.98323 10.8481C4.97652 10.8557 4.96958 10.8636 4.9574 10.8697C4.85973 10.9185 4.76066 10.9655 4.66143 11.0125C4.42638 11.124 4.19046 11.2359 3.97029 11.374C3.94376 11.3899 3.92253 11.3953 3.9013 11.3899C3.71555 11.6235 3.81639 11.8147 3.81639 11.8147C3.81639 11.8147 3.81108 11.8147 3.80577 11.8094C3.81973 11.8512 3.83075 11.8961 3.84192 11.9415C3.85199 11.9825 3.86218 12.0239 3.87476 12.0642C3.56695 11.7669 3.31752 11.4324 3.11055 11.0608C3.10524 11.0502 3.09993 11.0449 3.09463 11.0395C2.82927 10.6307 2.60638 10.0308 2.52147 9.77599C2.51085 9.75476 2.50554 9.73352 2.50024 9.70697C2.48962 9.67512 2.48432 9.65388 2.48432 9.65388C2.48166 9.64326 2.47901 9.63397 2.47636 9.62468L2.47635 9.62467C2.4737 9.61539 2.47105 9.6061 2.4684 9.59548C2.33041 9.06989 2.25611 8.53367 2.25081 7.9072C2.25081 7.85235 2.25744 7.76207 2.26501 7.65925C2.26916 7.60284 2.27358 7.54266 2.27734 7.48248C2.27734 7.4598 2.28508 7.44488 2.29396 7.42777L2.29857 7.41877C2.29857 7.41877 2.29857 6.93033 2.47901 6.37288C2.75498 5.3854 3.26445 4.52002 3.99152 3.77144C4.07112 3.6918 4.1295 3.64933 4.24095 3.73428C4.34709 3.81391 4.47977 3.82984 4.61244 3.79799C4.74642 3.76225 4.88415 3.73026 5.01932 3.69888L5.09539 3.68119L5.61017 3.54846C5.87749 3.45575 6.11848 3.31516 6.35885 3.17491L6.35886 3.17491C6.47639 3.10633 6.59378 3.03784 6.71404 2.97508C6.91605 2.87232 7.11144 2.76073 7.30732 2.64884L7.30734 2.64883C7.41507 2.5873 7.52294 2.52569 7.63216 2.46541C7.75952 2.39639 7.84974 2.30083 7.88159 2.16279C7.90282 2.06723 7.96119 2.02476 8.05141 2.02476C8.73072 2.01945 9.3941 2.09909 10.0734 2.31676C9.74967 2.4601 9.69129 2.71494 9.70191 3.01224C9.70545 3.14358 9.70426 3.27491 9.70307 3.40466V3.40472L9.70307 3.40495C9.70249 3.46917 9.70191 3.533 9.70191 3.59624C9.70191 3.89666 9.87765 4.07011 9.92948 4.12127L9.93542 4.12715C10.2888 4.37607 10.6618 4.59312 11.0344 4.80995L11.0345 4.80999C11.2103 4.91225 11.3859 5.01446 11.5594 5.11994C11.6284 5.16241 11.6867 5.2102 11.7398 5.25798C11.7398 5.25798 12.0158 5.45441 12.2015 5.39601C12.2228 5.3854 12.2493 5.37478 12.2811 5.36947C12.3714 5.35885 12.451 5.30045 12.5093 5.23674C12.5633 5.17996 12.6202 5.12583 12.6774 5.07151C12.834 4.92271 12.992 4.77252 13.0931 4.56249C13.2311 4.73769 13.3372 4.90758 13.4328 5.08809C13.8679 5.87383 14.1174 6.71266 14.1811 7.6152C14.2023 7.97091 14.1811 8.316 14.1492 8.6664V8.68763C14.1492 8.69825 14.1479 8.70887 14.1466 8.71949C14.1452 8.73011 14.1439 8.74072 14.1439 8.75134V8.75135C14.1439 8.78851 14.1439 8.82036 14.1333 8.85752L14.1174 8.8469ZM13.2894 9.77584C13.3796 9.53163 13.2894 9.27679 13.2894 9.27679L13.2278 9.18705L13.2278 9.18705C12.9457 8.77575 12.6617 8.36172 12.3501 7.97076C12.3394 7.95483 12.3288 7.9336 12.3235 7.91767V7.92298C12.3235 7.92298 12.3235 7.80618 11.9255 7.85396C11.4921 8.00445 11.066 8.17911 10.6406 8.35348C10.4357 8.43748 10.2309 8.52141 10.0256 8.60254C10.0158 8.60498 10.0072 8.60629 9.9992 8.60752C9.98974 8.60897 9.98112 8.61028 9.9725 8.61316C9.70184 8.85738 9.70715 8.93701 9.70715 8.93701C9.66892 9.2638 9.67393 9.59058 9.67896 9.91886V9.91888C9.68162 10.0919 9.68428 10.2654 9.68061 10.4395V10.9916C9.69123 11.3792 9.92474 11.5066 9.92474 11.5066C10.0829 11.6022 10.2614 11.6342 10.4391 11.6659C10.5178 11.68 10.5964 11.6941 10.673 11.7137C10.9915 11.7933 11.3152 11.8623 11.6389 11.926C11.6389 11.926 11.9573 11.9419 12.1165 11.6924C12.1201 11.6853 12.1236 11.683 12.1272 11.6806C12.1289 11.6794 12.1307 11.6783 12.1325 11.6765C12.1623 11.6267 12.1943 11.579 12.2257 11.5321L12.2257 11.532L12.2257 11.532C12.2445 11.5039 12.2632 11.476 12.2811 11.4482C12.389 11.2677 12.4975 11.0872 12.6059 10.9067C12.823 10.5457 13.04 10.1847 13.2523 9.82363C13.264 9.80406 13.2757 9.79315 13.2896 9.78026C13.2945 9.77566 13.2997 9.77081 13.3053 9.76523H13.2947L13.2894 9.77584ZM7.69586 7.2753C7.68525 7.33901 7.63218 7.45581 7.43051 7.61508L7.4252 7.60977C7.02013 7.77572 6.61786 7.93606 6.21431 8.09691C6.06272 8.15733 5.91095 8.21782 5.75879 8.27871C5.45628 8.44329 5.15909 8.34773 5.15909 8.34773C5.15554 8.34536 5.15199 8.34273 5.14832 8.34001C5.13554 8.33053 5.12133 8.32 5.10071 8.31587C5.05826 8.30526 5.02111 8.26809 4.99457 8.23093C4.90042 8.10491 4.80561 7.97856 4.71055 7.85187C4.42516 7.47154 4.13753 7.08822 3.85886 6.70192C3.64127 6.40461 3.84825 6.24003 3.84825 6.24003H3.83233C3.84038 6.23197 3.8492 6.22544 3.85792 6.21899C3.87217 6.20844 3.88613 6.1981 3.89601 6.18163C3.99508 6.03298 4.09355 5.88374 4.19203 5.73449C4.38898 5.436 4.58593 5.13752 4.7876 4.84375C4.8162 4.80202 4.84293 4.75869 4.86964 4.71537C4.96191 4.56579 5.05405 4.41642 5.22277 4.33408C5.37668 4.27568 5.58365 4.30753 5.6898 4.33408C5.69385 4.33611 5.69636 4.33813 5.6985 4.33987C5.70196 4.34267 5.70446 4.3447 5.71102 4.3447C5.72451 4.34712 5.738 4.34955 5.75151 4.35198C6.00385 4.39737 6.26025 4.4435 6.50708 4.50397C6.61653 4.53134 6.72873 4.54934 6.8412 4.56738C7.07777 4.60534 7.31553 4.64348 7.53134 4.76942C7.53134 4.76942 7.69055 4.96586 7.70647 5.18353C7.72577 5.49242 7.72262 5.80131 7.71946 6.1102C7.71827 6.22603 7.71709 6.34187 7.71709 6.4577C7.71709 6.53137 7.71945 6.60543 7.72181 6.67967C7.72813 6.87829 7.73449 7.0782 7.69586 7.2753Z" fill="#4A4A4A"/>
<path d="M11.3999 16C14.0508 16 16.1999 13.851 16.1999 11.2C16.1999 8.54906 14.0508 6.40002 11.3999 6.40002C8.74889 6.40002 6.59985 8.54906 6.59985 11.2C6.59985 13.851 8.74889 16 11.3999 16Z" fill="#F85640"/>
<path d="M11.3551 9.41574C11.3618 9.40239 11.3682 9.39749 11.3728 9.39479C11.3789 9.39118 11.3883 9.3881 11.3998 9.3881C11.4113 9.3881 11.4207 9.39118 11.4268 9.39479C11.4314 9.39749 11.4378 9.40239 11.4445 9.41574L13.2355 12.9977C13.2521 13.031 13.228 13.0701 13.1908 13.0701H11.3998H9.60882C9.57165 13.0701 9.54748 13.031 9.5641 12.9977L11.3551 9.41574Z" stroke="white" stroke-width="0.9" stroke-linejoin="round"/>
</g>
<defs>
<clipPath id="clip0_8556_484">
<rect width="16" height="16" fill="white" transform="translate(0.199951)"/>
</clipPath>
</defs>
</svg>
