<svg width="17" height="16" viewBox="0 0 17 16" fill="none" xmlns="http://www.w3.org/2000/svg">
<g clip-path="url(#clip0_8556_471)">
<path fill-rule="evenodd" clip-rule="evenodd" d="M8.60546 1.00011C4.81092 0.978873 1.58424 4.05813 1.60016 8.024C1.61608 11.9474 4.77377 15.016 8.632 15.0001C12.4796 14.9842 15.6055 11.8943 15.6002 7.99215C15.5948 3.97849 12.3257 0.984182 8.60546 1.00011ZM14.5175 8.8469C14.5175 8.8469 14.5122 8.86283 14.5122 8.87345C14.4644 9.21323 14.3848 9.41498 14.3848 9.41498C14.4096 9.43621 14.4014 9.46217 14.3931 9.48812C14.389 9.5011 14.3848 9.51408 14.3848 9.52646C14.2628 9.97773 14.0983 10.4131 13.8754 10.8272C13.5092 11.5014 13.0369 12.0854 12.4531 12.5792C12.4425 12.5898 12.4265 12.6004 12.4053 12.611C12.4053 12.611 11.9754 12.9243 11.9595 12.9402V12.9243C11.9595 12.9243 11.9224 12.972 11.8958 12.988C11.052 13.5401 10.1339 13.864 9.13086 13.9436C9.09902 13.9457 9.06718 13.9496 9.03533 13.9534L9.03531 13.9534C8.98755 13.9591 8.9398 13.9648 8.89204 13.9648H8.62669C8.34878 14.0214 8.09177 13.8897 7.82968 13.7555C7.79649 13.7385 7.76321 13.7214 7.7298 13.7047C7.68204 13.6835 7.64489 13.6622 7.66612 13.5932C7.72439 13.3928 7.75017 13.1899 7.77605 12.9862L7.77606 12.9862C7.78788 12.8931 7.79973 12.7998 7.81471 12.7066C7.86778 12.2872 7.71919 12.1545 7.71919 12.1545C7.5692 12.0007 7.39008 11.8893 7.2099 11.7772C7.13505 11.7307 7.06002 11.684 6.98681 11.6342C6.7169 11.449 6.44419 11.2695 6.17071 11.0894L6.17064 11.0894L6.1701 11.089C6.06738 11.0214 5.96455 10.9537 5.86172 10.8856C5.86172 10.8856 5.72904 10.7794 5.41062 10.8325H5.4C5.39322 10.837 5.38836 10.8425 5.38338 10.8481C5.37667 10.8557 5.36973 10.8636 5.35755 10.8697C5.25988 10.9185 5.16081 10.9655 5.06158 11.0125C4.82652 11.124 4.59061 11.2359 4.37044 11.374C4.3439 11.3899 4.32267 11.3953 4.30145 11.3899C4.1157 11.6235 4.21653 11.8147 4.21653 11.8147C4.21653 11.8147 4.21123 11.8147 4.20592 11.8094C4.21987 11.8512 4.2309 11.8961 4.24207 11.9415C4.25214 11.9825 4.26233 12.0239 4.27491 12.0642C3.9671 11.7669 3.71767 11.4324 3.51069 11.0608C3.50539 11.0502 3.50008 11.0449 3.49477 11.0395C3.22942 10.6307 3.00652 10.0308 2.92161 9.77599C2.911 9.75476 2.90569 9.73352 2.90038 9.70697C2.88977 9.67512 2.88446 9.65388 2.88446 9.65388C2.88181 9.64326 2.87916 9.63397 2.8765 9.62468C2.87385 9.61539 2.8712 9.6061 2.86854 9.59548C2.73056 9.06989 2.65626 8.53367 2.65095 7.9072C2.65095 7.85235 2.65759 7.76209 2.66515 7.65928L2.66515 7.65926C2.6693 7.60285 2.67373 7.54266 2.67749 7.48248C2.67749 7.4598 2.68523 7.44488 2.6941 7.42777L2.69872 7.41877C2.69872 7.41877 2.69872 6.93033 2.87916 6.37288C3.15512 5.3854 3.6646 4.52002 4.39167 3.77144C4.47127 3.6918 4.52965 3.64933 4.6411 3.73428C4.74724 3.81391 4.87991 3.82984 5.01259 3.79799C5.14655 3.76225 5.28427 3.73027 5.41943 3.69889L5.41946 3.69888L5.49553 3.68119L6.01032 3.54846C6.27764 3.45575 6.51862 3.31515 6.759 3.17491C6.87654 3.10633 6.99393 3.03784 7.11418 2.97508C7.3162 2.87232 7.51158 2.76073 7.70747 2.64884C7.8152 2.58731 7.92308 2.52569 8.0323 2.46541C8.15967 2.39639 8.24989 2.30083 8.28173 2.16279C8.30296 2.06723 8.36134 2.02476 8.45156 2.02476C9.13086 2.01945 9.79424 2.09909 10.4735 2.31676C10.1498 2.4601 10.0914 2.71494 10.1021 3.01224C10.1056 3.14358 10.1044 3.27491 10.1032 3.40466V3.40473L10.1032 3.40496C10.1026 3.46917 10.1021 3.533 10.1021 3.59624C10.1021 3.89666 10.2778 4.07011 10.3296 4.12127L10.3356 4.12715C10.689 4.37606 11.062 4.59311 11.4346 4.80994L11.4346 4.80995L11.4347 4.81001C11.6104 4.91226 11.7861 5.01447 11.9595 5.11994C12.0285 5.16241 12.0869 5.2102 12.14 5.25798C12.14 5.25798 12.4159 5.45441 12.6017 5.39601C12.6229 5.3854 12.6494 5.37478 12.6813 5.36947C12.7715 5.35885 12.8511 5.30045 12.9095 5.23674C12.9634 5.17996 13.0204 5.12583 13.0775 5.07152C13.2341 4.92271 13.3922 4.77252 13.4933 4.56249C13.6312 4.73769 13.7374 4.90758 13.8329 5.08809C14.2681 5.87383 14.5175 6.71266 14.5812 7.6152C14.6024 7.97091 14.5812 8.316 14.5494 8.6664V8.68763C14.5494 8.69825 14.548 8.70887 14.5467 8.71949C14.5454 8.73011 14.5441 8.74072 14.5441 8.75134V8.75135C14.5441 8.78851 14.5441 8.82036 14.5334 8.85752L14.5175 8.8469ZM13.6896 9.77584C13.7798 9.53163 13.6896 9.27679 13.6896 9.27679L13.628 9.18703C13.3459 8.77574 13.0619 8.36172 12.7502 7.97076C12.7396 7.95483 12.729 7.9336 12.7237 7.91767V7.92298C12.7237 7.92298 12.7237 7.80618 12.3256 7.85396C11.8923 8.00444 11.4662 8.1791 11.0408 8.35347L11.0407 8.35348L11.0406 8.35352C10.8357 8.43751 10.631 8.52143 10.4257 8.60254C10.416 8.60497 10.4074 8.60629 10.3993 8.60752C10.3899 8.60897 10.3813 8.61028 10.3726 8.61316C10.102 8.85738 10.1073 8.93701 10.1073 8.93701C10.0691 9.2638 10.0741 9.59058 10.0791 9.91886V9.91888C10.0818 10.0919 10.0844 10.2654 10.0808 10.4395V10.9916C10.0914 11.3792 10.3249 11.5066 10.3249 11.5066C10.483 11.6022 10.6615 11.6342 10.8392 11.6659C10.918 11.68 10.9966 11.6941 11.0732 11.7137C11.3916 11.7933 11.7153 11.8623 12.0391 11.926C12.0391 11.926 12.3575 11.9419 12.5167 11.6924C12.5202 11.6853 12.5238 11.683 12.5273 11.6806C12.5291 11.6794 12.5308 11.6783 12.5326 11.6765C12.5625 11.6267 12.5944 11.579 12.6258 11.5321L12.6259 11.532L12.6259 11.532C12.6447 11.5039 12.6633 11.476 12.6812 11.4482C12.7891 11.2677 12.8976 11.0872 13.0061 10.9067C13.2231 10.5457 13.4401 10.1847 13.6524 9.82363C13.6641 9.80406 13.6759 9.79315 13.6897 9.78026C13.692 9.77815 13.6943 9.77599 13.6967 9.77373C13.6995 9.77106 13.7025 9.76825 13.7055 9.76523H13.6949L13.6896 9.77584ZM8.09601 7.2753C8.08539 7.33901 8.03232 7.45581 7.83065 7.61508L7.82535 7.60977C7.42024 7.77573 7.01793 7.93609 6.61435 8.09695C6.4628 8.15736 6.31106 8.21784 6.15893 8.27871C5.85643 8.44329 5.55924 8.34773 5.55924 8.34773C5.55568 8.34536 5.55213 8.34273 5.54846 8.34001C5.53568 8.33053 5.52147 8.32 5.50086 8.31587C5.4584 8.30526 5.42125 8.26809 5.39472 8.23093C5.30056 8.1049 5.20575 7.97854 5.11068 7.85185C4.8253 7.47153 4.53767 7.08822 4.25901 6.70192C4.04142 6.40461 4.24839 6.24003 4.24839 6.24003H4.23247C4.24053 6.23197 4.24935 6.22544 4.25807 6.21899C4.27231 6.20844 4.28628 6.1981 4.29616 6.18163C4.39522 6.03298 4.49369 5.88375 4.59216 5.73451C4.78912 5.43602 4.98607 5.13752 5.18774 4.84375C5.21634 4.80202 5.24307 4.75869 5.26979 4.71537C5.36205 4.56579 5.45419 4.41642 5.62292 4.33408C5.77683 4.27568 5.9838 4.30753 6.08994 4.33408C6.094 4.33611 6.0965 4.33813 6.09864 4.33987C6.1021 4.34267 6.10461 4.3447 6.11117 4.3447C6.12467 4.34713 6.13817 4.34956 6.15169 4.35199C6.40402 4.39738 6.66041 4.4435 6.90723 4.50397C7.01667 4.53134 7.12888 4.54934 7.24135 4.56738C7.47792 4.60534 7.71567 4.64348 7.93149 4.76942C7.93149 4.76942 8.0907 4.96586 8.10662 5.18353C8.12592 5.49242 8.12276 5.80131 8.1196 6.11019C8.11842 6.22603 8.11724 6.34187 8.11724 6.4577C8.11724 6.53137 8.11959 6.60543 8.12195 6.67967C8.12828 6.87829 8.13464 7.0782 8.09601 7.2753Z" fill="#4A4A4A"/>
<path d="M11.8 16C14.451 16 16.6 13.851 16.6 11.2C16.6 8.54906 14.451 6.40002 11.8 6.40002C9.14903 6.40002 7 8.54906 7 11.2C7 13.851 9.14903 16 11.8 16Z" fill="#4489FF"/>
<path d="M13.7499 11.2C13.7499 12.277 12.8769 13.15 11.7999 13.15C10.7229 13.15 9.8499 12.277 9.8499 11.2C9.8499 10.1231 10.7229 9.25005 11.7999 9.25005C12.8769 9.25005 13.7499 10.1231 13.7499 11.2Z" stroke="white" stroke-width="0.9"/>
</g>
<defs>
<clipPath id="clip0_8556_471">
<rect width="16" height="16" fill="white" transform="translate(0.600098)"/>
</clipPath>
</defs>
</svg>
