<svg width="25" height="25" viewBox="0 0 25 25" fill="none" xmlns="http://www.w3.org/2000/svg">
<g clip-path="url(#clip0_1047_21101)">
<path fill-rule="evenodd" clip-rule="evenodd" d="M17.1119 19.591C7.12806 19.591 7.57886 5.40918 16.9503 5.40918C26.2894 5.40918 26.2345 19.591 17.1119 19.591ZM21.8816 12.1893L19.277 10.999L19.054 7.86678L21.0075 7.80414C20.0202 6.92229 18.6662 6.35849 16.9406 6.35849C16.7903 6.35849 16.6433 6.35849 16.4995 6.37294L17.2864 7.31262L14.7448 9.14698L11.9188 8.78236C11.4725 9.40686 11.144 10.1068 10.9493 10.848L11.9915 13.2575L11.0221 14.5184C11.393 15.7485 12.1729 16.8171 13.234 17.5494L14.6107 17.3261L15.669 18.5148C16.1342 18.5951 16.6057 18.6349 17.0779 18.6337C17.7297 18.6383 18.3785 18.5452 19.0023 18.3574L19.1639 15.9721L21.8347 14.0445L22.5295 15.0292C23.0362 13.717 23.1337 12.2836 22.809 10.9155L21.8816 12.1893ZM12.7331 13.3587L14.8336 10.4979L18.2946 11.6223V15.2524L14.95 16.2965L12.7331 13.3587Z" fill="#ED3A45"/>
<path fill-rule="evenodd" clip-rule="evenodd" d="M15.7852 20.6647C11.5151 20.3899 8.13672 16.8395 8.13672 12.4999C8.13672 8.25088 11.3757 4.75833 15.5194 4.35666C11.8765 3.08918 8.85347 3.95697 7.01442 5.58494C5.78442 6.67377 6.19833 8.44479 6.59442 8.89994C7.59124 10.0454 6.59442 11.5849 5.13894 11.0654C5.08816 11.0413 4.99685 11.018 4.90554 10.9946C4.81562 10.9717 4.72568 10.9487 4.67442 10.9249C0.655245 10.4085 0.596682 12.2127 0.773073 12.4999C0.821718 12.579 0.884381 12.5599 0.994151 12.5264C1.43026 12.3935 2.60991 12.0339 6.60802 16.7023C10.0073 20.6661 13.4243 20.9584 15.5031 20.719C15.5714 20.7115 15.6742 20.6922 15.7852 20.6647Z" fill="#ED3A45"/>
</g>
<defs>
<clipPath id="clip0_1047_21101">
<rect width="24" height="24" fill="white" transform="translate(0.5 0.5)"/>
</clipPath>
</defs>
</svg>
