<svg width="24" height="24" viewBox="0 0 24 24" fill="none" xmlns="http://www.w3.org/2000/svg">
<path fill-rule="evenodd" clip-rule="evenodd" d="M16.6119 19.091C6.62806 19.091 7.07886 4.90918 16.4503 4.90918C25.7894 4.90918 25.7345 19.091 16.6119 19.091ZM21.3816 11.6893L18.777 10.499L18.554 7.36678L20.5075 7.30414C19.5202 6.42229 18.1662 5.85849 16.4406 5.85849C16.2903 5.85849 16.1433 5.85849 15.9995 5.87294L16.7864 6.81262L14.2448 8.64698L11.4188 8.28236C10.9725 8.90686 10.644 9.60678 10.4493 10.348L11.4915 12.7575L10.5221 14.0184C10.893 15.2485 11.6729 16.3171 12.734 17.0494L14.1107 16.8261L15.169 18.0148C15.6342 18.0951 16.1057 18.1349 16.5779 18.1337C17.2297 18.1383 17.8785 18.0452 18.5023 17.8574L18.6639 15.4721L21.3347 13.5445L22.0295 14.5292C22.5362 13.217 22.6337 11.7836 22.309 10.4155L21.3816 11.6893ZM12.2331 12.8587L14.3336 9.99786L17.7946 11.1223V14.7524L14.45 15.7965L12.2331 12.8587Z" fill="#276CE1"/>
<path fill-rule="evenodd" clip-rule="evenodd" d="M15.2852 20.1647C11.0151 19.8899 7.63672 16.3395 7.63672 11.9999C7.63672 7.75088 10.8757 4.25833 15.0194 3.85666C11.3765 2.58918 8.35347 3.45697 6.51442 5.08494C5.28442 6.17377 5.69833 7.94479 6.09442 8.39994C7.09124 9.5454 6.09442 11.0849 4.63894 10.5654C4.58816 10.5413 4.49685 10.518 4.40554 10.4946C4.31562 10.4717 4.22568 10.4487 4.17442 10.4249C0.155245 9.90851 0.0966824 11.7127 0.273073 11.9999C0.321718 12.079 0.384381 12.0599 0.494151 12.0264C0.930259 11.8935 2.10991 11.5339 6.10802 16.2023C9.50732 20.1661 12.9243 20.4584 15.0031 20.219C15.0714 20.2115 15.1742 20.1922 15.2852 20.1647Z" fill="#276CE1"/>
</svg>
