<svg width="37" height="37" viewBox="0 0 37 37" fill="none" xmlns="http://www.w3.org/2000/svg">
<g clip-path="url(#clip0_1601_7360)">
<rect width="37" height="37" rx="18.5" fill="#FB897A"/>
<path d="M23.8157 5.0651C23.8416 4.65784 23.5765 4.53961 23.3114 4.42137C23.2403 4.38853 23.1627 4.36225 23.0915 4.34912C22.3544 4.19804 21.6625 3.88274 20.893 3.86304C20.6408 3.85647 20.3563 3.80392 20.1171 3.47549C20.4856 3.4098 20.7896 3.35068 21.1193 3.29157C21.0999 3.25215 21.0741 3.20617 21.0417 3.14049C21.475 2.96313 21.85 3.25215 22.2445 3.29814C22.6389 3.34412 23.0204 3.48863 23.4536 3.60029C23.1756 3.88274 23.473 3.86304 23.5054 4.05353C23.5506 3.90902 23.5636 3.8499 23.583 3.79735C23.6024 3.79735 23.6218 3.79735 23.6412 3.80392C23.6476 3.89588 23.6541 3.99441 23.6606 4.15206C23.9451 4.1652 24.2619 4.17833 24.5788 4.20461C24.6822 4.21118 24.7921 4.23745 24.8891 4.28343C26.1565 4.86147 27.4109 5.46579 28.4391 6.45108C28.937 6.92402 29.4672 7.37069 29.9457 7.86991C30.9286 8.88805 31.8403 9.95874 32.3123 11.3316C32.3899 11.5483 32.4158 11.7848 32.474 12.0476C32.5386 12.1132 32.655 12.2183 32.8232 12.376C32.668 12.3497 32.571 12.3366 32.4804 12.3169C32.4611 12.3366 32.4417 12.3563 32.4223 12.3694C32.5192 12.4745 32.6098 12.5862 32.7003 12.6847C32.6615 12.7767 32.558 12.8883 32.5839 12.9672C32.6162 13.0657 32.7391 13.1445 32.8361 13.2036C32.9654 13.2825 33.1271 13.3087 33.0689 13.5452C33.0495 13.6175 33.2111 13.716 33.2499 13.8211C33.6056 14.9115 33.8513 16.0282 33.8901 17.1777C33.9224 18.2221 33.9224 19.2665 33.903 20.3043C33.8965 20.6196 33.7802 20.9284 33.7284 21.2371C33.6961 21.4341 33.6896 21.6378 33.6702 21.8348C33.6638 21.8874 33.6896 21.9531 33.6638 21.9793C33.3146 22.3406 33.4245 22.8661 33.2111 23.2799C32.5322 24.6068 32.0731 26.0453 31.2325 27.2999C30.7992 27.9502 30.2819 28.5151 29.6741 28.9947C29.4866 29.1457 29.3314 29.3494 29.1633 29.5267C29.0986 29.5924 29.0404 29.6581 28.9628 29.7041C28.4391 30.0391 28.0705 30.5317 27.6631 30.9915C27.4045 31.2805 27.01 31.4579 26.6673 31.6747C26.3182 31.898 25.969 32.0885 25.5293 31.9505C25.4 31.9111 25.2383 31.9702 25.096 31.9834C25.096 32.0097 25.096 32.0425 25.096 32.0688C25.2706 32.0885 25.4452 32.1148 25.6263 32.1345C25.3935 32.2264 25.206 32.4103 24.9085 32.3184C24.6369 32.233 24.333 32.2724 24.0421 32.279C23.9903 32.279 23.8998 32.3972 23.8998 32.4563C23.9063 32.5483 23.9645 32.6337 23.8093 32.614C23.8222 32.6731 23.8157 32.7519 23.8481 32.7848C23.9063 32.8439 23.9903 32.8702 24.1391 32.9555C23.8933 33.0606 23.7187 33.1657 23.5312 33.2183C22.9881 33.3694 22.4449 33.5204 21.8953 33.6255C21.3263 33.7372 20.7508 33.8686 20.1817 33.8554C19.6774 33.8489 19.1795 33.8883 18.6751 33.9146C18.3712 33.9277 18.0673 33.8817 17.7634 33.8292C17.6599 33.8095 17.5694 33.7109 17.4336 33.619C17.1879 33.7438 16.9616 33.7109 16.6771 33.481C16.4895 33.33 16.1145 33.4153 15.8171 33.3956C15.733 33.3891 15.636 33.4285 15.5649 33.3956C15.2804 33.2577 15.0476 33.3431 14.8019 33.5007C14.7307 33.5467 14.6143 33.5664 14.5238 33.5533C14.4139 33.5336 14.3104 33.4548 14.2005 33.4153C13.5086 33.146 12.8232 32.8767 12.1313 32.6205C11.9438 32.5483 11.6916 32.5877 11.5429 32.476C10.4501 31.6615 9.13747 31.1689 8.25806 30.0653C7.95415 29.6844 7.66964 29.2902 7.217 29.0538C7.07475 28.9815 6.96482 28.8304 6.86136 28.6991C5.94316 27.5693 5.12196 26.3738 4.57879 25.0009C4.36541 24.4689 4.12616 23.9434 3.89338 23.4179C3.59593 22.7216 3.42781 21.9728 3.34375 21.1451C3.50541 21.2502 3.63473 21.3356 3.75759 21.421C3.75759 21.4473 3.75112 21.467 3.75112 21.4933C3.68646 21.4867 3.6218 21.4867 3.53127 21.4801C3.45368 21.6246 3.47307 21.7494 3.67999 21.8611C3.83518 21.9399 4.12616 21.9728 3.93864 22.2881C4.12616 22.3341 4.30721 22.3603 4.4818 22.4194C4.54646 22.4392 4.63052 22.5311 4.63699 22.5968C4.69519 23.5624 5.22541 24.3309 5.61985 25.1586C6.11128 26.1898 6.77084 27.116 7.47565 28.0159C8.46498 29.2771 9.76469 30.131 11.0385 31.0309C11.226 31.1623 11.4006 31.3134 11.6011 31.4119C11.8209 31.517 12.0602 31.5761 12.3706 31.6812C12.4029 31.898 12.6809 31.9243 12.9267 32.0162C13.4052 32.187 13.8772 32.3906 14.3557 32.5614C14.6467 32.6665 14.9506 32.7782 15.2545 32.811C16.5542 32.9621 17.8604 33.1066 19.1665 33.1986C19.6774 33.2314 20.1947 33.1263 20.7055 33.0475C21.184 32.9752 21.6625 32.8702 22.1345 32.7453C22.6324 32.614 23.1109 32.4235 23.6153 32.2987C24.3136 32.1279 24.9344 31.806 25.5228 31.4053C25.9302 31.1295 26.3117 30.8076 26.7449 30.5777C28.3809 29.7172 29.4155 28.2458 30.5018 26.827C30.5212 26.8007 30.5406 26.781 30.5471 26.7547C30.7798 26.1636 31.1937 25.6972 31.5558 25.1914C31.6592 25.0469 31.6463 24.8301 31.7174 24.6594C31.892 24.2061 32.0795 23.7594 32.2606 23.3128C32.4869 22.7676 32.6421 22.2027 32.6356 21.6049C32.6356 21.5261 32.6421 21.4407 32.668 21.3685C33.0365 20.416 33.1465 19.3847 33.0883 18.406C33.0236 17.2893 33.0559 16.1333 32.6744 15.0494C32.655 14.9969 32.6615 14.9312 32.6486 14.8786C32.5645 14.4977 32.5063 14.097 32.377 13.7357C32.183 13.1971 31.9632 12.6716 31.7045 12.1658C31.3489 11.4564 30.9738 10.7601 30.5729 10.077C30.3078 9.61717 30.0298 9.15736 29.6935 8.76324C29.2086 8.19177 28.6913 7.64657 28.1287 7.15393C27.6696 6.75324 27.1394 6.42481 26.6285 6.08981C26.1565 5.78108 25.6715 5.46579 25.1672 5.20961C24.7727 4.99941 24.3266 4.82863 23.8157 5.0651Z" fill="white"/>
<path d="M11.5742 28.7784C12.0139 28.6339 12.3243 28.6996 12.667 28.9032C14.3353 29.9082 16.1588 30.3877 18.0921 30.4468C18.7194 30.4665 19.3466 30.4797 19.9673 30.4468C20.323 30.4271 20.6722 30.2957 21.0213 30.2104C21.4481 30.1118 21.8749 30.0133 22.3016 29.9148C22.3857 29.8951 22.4762 29.8688 22.5474 29.8294C23.3298 29.4221 24.1122 29.0149 24.9011 28.6142C25.0239 28.5551 25.1726 28.5353 25.3084 28.5222C25.6382 28.4959 25.9098 28.3646 26.149 28.1215C26.356 27.9113 26.6405 27.8522 26.9573 27.9113C26.4788 28.2857 26.0391 28.7193 25.5218 29.028C24.235 29.79 22.9095 30.4994 21.4481 30.8344C20.2454 31.1103 19.0168 31.281 17.7753 31.1168C17.1093 31.0314 16.4562 30.8475 15.7902 30.8081C14.9108 30.7555 14.1866 30.2892 13.3977 30.0002C12.9321 29.8359 12.4989 29.5666 12.0721 29.3039C11.8911 29.1856 11.7617 28.9754 11.5742 28.7784Z" fill="white"/>
<path d="M27.0557 26.9386C27.5471 26.2883 28.0191 25.6709 28.4782 25.0403C28.711 24.7184 28.9761 24.4031 29.1055 24.0353C29.2348 23.6609 29.4805 23.3587 29.5775 22.9777C29.6033 22.8792 29.6357 22.7872 29.6745 22.6953C30.4246 21.1057 30.3599 19.365 30.5086 17.6703C30.5539 17.1842 30.3664 16.6784 30.2888 16.1792C30.2306 15.8048 30.1853 15.4304 30.1077 15.0625C30.056 14.8129 29.9913 14.5567 29.8814 14.3268C29.6292 13.8145 29.6874 13.9064 30.0495 13.4072C30.2306 13.7094 30.431 13.9524 30.4698 14.3334C30.5151 14.7472 30.6897 15.1479 30.7931 15.5617C30.9031 15.9887 31.0582 16.4157 31.0841 16.8492C31.1294 17.5849 31.097 18.3271 31.097 19.0694C31.097 19.3453 31.0712 19.6277 31.097 19.9036C31.1617 20.6918 30.8966 21.3881 30.5603 22.0713C30.4698 22.2552 30.4375 22.4588 30.3664 22.6493C30.25 22.9646 30.1271 23.2799 30.0043 23.5886C29.571 24.7381 28.9567 25.7694 28.1226 26.6562C27.9803 26.8072 27.8251 26.9452 27.657 27.07C27.282 27.3524 27.2755 27.3459 27.0557 26.9386Z" fill="white"/>
<path d="M10.8575 27.7204C10.5083 27.9503 10.3855 27.9634 10.1462 27.6941C9.60307 27.0701 9.06638 26.4395 8.54908 25.7892C8.2387 25.4082 7.96066 24.9944 7.68261 24.5871C7.55329 24.4032 7.44336 24.1996 7.3593 23.9894C7.06185 23.2471 6.82261 22.472 6.46696 21.7626C6.26005 21.3357 6.25358 20.9284 6.22771 20.4949C6.15659 19.2797 6.04666 18.0645 5.94967 16.8427C5.9432 16.777 5.9432 16.6916 5.97553 16.6391C6.29884 16.0807 6.36997 15.4436 6.4605 14.8261C6.55749 14.1627 6.8614 13.6044 7.22351 13.0132C7.41103 13.3088 7.58562 13.5781 7.77314 13.8802C7.24291 14.0182 7.19764 14.4123 7.11358 14.7736C6.92606 15.5487 6.74501 16.3172 6.57689 17.0989C6.53163 17.3091 6.49283 17.5324 6.4993 17.7426C6.53809 19.9825 6.98426 22.1239 7.96712 24.1405C8.03178 24.2718 8.09645 24.4098 8.18697 24.528C8.78186 25.2768 9.37675 26.0257 9.97811 26.7679C9.99751 26.7876 10.0363 26.8073 10.0363 26.8336C10.0622 27.346 10.5859 27.4051 10.8575 27.7204Z" fill="white"/>
<path d="M16.7354 6.03727C17.2009 5.98472 17.6794 5.9256 18.1579 5.86648C18.2226 5.85991 18.2937 5.84021 18.3584 5.82707C18.714 5.74168 19.0632 5.61687 19.4188 5.5906C19.7292 5.56433 20.0525 5.63658 20.3694 5.66942C20.3694 5.6957 20.3758 5.72197 20.3758 5.74825C20.1624 5.76795 19.9555 5.79423 19.7421 5.81393C19.7421 5.82707 19.7486 5.84021 19.7486 5.85335C20.2788 5.85335 20.8091 5.81393 21.3328 5.86648C21.7273 5.90589 22.1346 6.02413 22.4967 6.19491C23.6607 6.75982 24.8181 7.33786 25.9497 7.96188C26.2989 8.15237 26.564 8.50051 26.8485 8.7961C27.1201 9.07855 27.3981 9.36757 27.618 9.68286C27.9219 10.1098 28.2775 10.4711 28.6978 10.7798C28.7754 10.8389 28.8207 10.9506 28.8853 11.036C28.8659 11.0623 28.8465 11.0951 28.8271 11.1214C28.7302 11.0688 28.6332 11.0163 28.5362 10.9572C28.5168 10.9506 28.5038 10.9178 28.4909 10.9243C28.0641 11.0426 27.9607 10.6485 27.7344 10.4448C26.9843 9.77482 26.2407 9.10482 25.4777 8.44796C25.316 8.31002 25.0961 8.2509 24.9151 8.13923C24.7146 8.00786 24.5142 7.86335 24.3331 7.71227C23.9064 7.35756 23.3761 7.25247 22.8847 7.04227C21.5333 6.47737 20.0978 6.30001 18.6558 6.18835C18.1967 6.1555 17.7247 6.27374 17.2591 6.30658C16.9035 6.33942 16.9035 6.33286 16.7354 6.03727Z" fill="white"/>
<path d="M4.88337 13.3093C4.61812 13.283 4.4305 13.2699 4.24936 13.2502C4.24289 13.2699 4.24289 13.2962 4.23642 13.3159C4.38522 13.3947 4.52755 13.4801 4.70869 13.5852C4.61165 13.6115 4.55989 13.6246 4.46285 13.6443C4.7281 13.7428 4.61165 13.8676 4.5793 14.0384C4.40463 14.8792 4.21701 15.7266 4.13291 16.5805C4.04233 17.487 4.06174 18.4066 4.04233 19.3196C4.03586 19.6612 4.04233 20.0093 4.04233 20.41C3.74473 20.3574 3.51183 20.3246 3.2854 20.2589C3.23364 20.2458 3.18188 20.121 3.17541 20.0422C3.13013 19.6612 3.0719 19.2736 3.08484 18.8861C3.11072 17.9665 3.03955 17.0403 3.30481 16.1338C3.42773 15.72 3.55065 15.2799 3.53124 14.8595C3.51183 14.4128 3.6671 14.0516 3.82237 13.6771C3.95176 13.3684 4.04233 12.9874 4.51461 13.0597C4.53402 13.0597 4.55989 13.0531 4.56636 13.04C4.61165 12.8955 4.7281 12.8298 4.81221 12.9349C4.88984 13.0334 4.87043 13.2042 4.88337 13.3093Z" fill="white"/>
<path d="M15.0417 3.5215C15.0999 3.44271 15.1517 3.37705 15.2163 3.29169C15.6754 3.50837 16.1022 3.41644 16.4902 3.15381C16.5742 3.27199 16.6454 3.37048 16.7294 3.5018C16.723 3.5215 16.6906 3.59372 16.6324 3.73161C16.4384 3.76443 16.1475 3.79726 15.8694 3.86949C15.1323 4.0599 14.3822 4.22405 13.6709 4.48668C12.8432 4.78871 12.0544 5.18923 11.2396 5.51752C10.9616 5.62914 10.6577 5.58975 10.3408 5.45843C10.8581 4.98569 11.3819 4.59173 12.0091 4.3488C12.5911 4.12556 13.1472 3.82353 13.7356 3.61342C14.1494 3.4624 14.5826 3.27199 15.0417 3.5215Z" fill="white"/>
<path d="M10.4885 5.8209C10.4174 5.81434 10.3657 5.81434 10.2687 5.80777C10.3592 5.93914 10.5467 6.01139 10.2881 6.18218C9.86133 6.46463 9.48629 6.82591 9.09185 7.16747C8.8914 7.34483 8.71034 7.53532 8.52929 7.73238C8.38057 7.89659 8.23831 8.03454 7.98613 8.02797C7.915 8.02797 7.83094 8.1462 7.77274 8.22503C7.71455 8.29728 7.69515 8.40238 7.64342 8.4812C7.3977 8.82934 7.14552 9.17091 6.89981 9.51248C6.64116 9.88032 6.44071 9.9263 6.05273 9.71611C6.85454 8.22503 7.99259 7.04267 9.3699 6.09022C9.52508 5.98512 9.67381 5.87345 9.829 5.76836C10.1523 5.55159 10.1523 5.55159 10.4885 5.8209Z" fill="white"/>
<path d="M14.963 6.11572C14.8854 6.33249 14.8401 6.50327 14.769 6.66749C14.7237 6.75288 14.6526 6.84484 14.5685 6.89082C14.2194 7.05504 13.8573 7.19955 13.5016 7.3572C12.8033 7.66592 12.1631 8.06661 11.5488 8.53298C11.0509 8.90739 10.469 9.22269 9.73828 9.28181C11.1479 7.57396 12.9455 6.68063 14.963 6.11572Z" fill="white"/>
<path d="M29.8936 12.9475C29.2079 12.9081 29.0138 12.396 28.7227 12.0151C28.8585 11.8444 28.9814 11.6868 29.1691 11.457C29.4149 11.9692 29.6284 12.4156 29.8936 12.9475Z" fill="white"/>
<path d="M7.97266 11.4234C8.19909 11.1082 8.3673 10.7996 8.60667 10.5764C8.73606 10.4582 9.00131 10.4844 9.20187 10.4385C9.22128 10.4713 9.24068 10.5041 9.25362 10.537C9.04013 10.8324 8.85898 11.1542 8.6002 11.3971C8.50316 11.5021 8.23144 11.4234 7.97266 11.4234Z" fill="white"/>
<path d="M5.22533 10.5498C5.41942 10.7468 5.60703 10.9438 5.80112 11.1473C5.58115 11.5741 5.21239 11.4231 4.82422 11.4296C4.97302 11.1145 5.10241 10.8387 5.23827 10.5564C5.2318 10.5564 5.22533 10.5498 5.22533 10.5498Z" fill="white"/>
<path d="M5.23267 10.5565C5.3944 10.3529 5.53673 10.1297 5.72435 9.95898C5.88609 9.80796 5.95725 9.86705 6.01548 10.1034C6.04136 10.215 6.15781 10.3004 6.29367 10.4777C5.89256 10.5039 5.55614 10.5236 5.21973 10.5433C5.2262 10.5499 5.23267 10.5565 5.23267 10.5565Z" fill="white"/>
<path d="M3.32373 20.4624C3.47253 20.6594 3.62133 20.8498 3.77013 21.0468C3.77013 21.0665 3.77013 21.0862 3.77013 21.1124C3.64074 21.0599 3.479 21.0402 3.40136 20.9483C3.31079 20.8432 3.29785 20.6725 3.24609 20.5281C3.27197 20.5018 3.29785 20.4821 3.32373 20.4624Z" fill="white"/>
<path d="M8.91113 10.1296C9.09228 9.99826 9.27343 9.87351 9.45457 9.74219C9.48045 9.78158 9.50633 9.81441 9.53221 9.85381C9.35106 9.98513 9.16991 10.1099 8.9823 10.2412C8.96289 10.2018 8.93701 10.169 8.91113 10.1296Z" fill="white"/>
<path d="M3.90039 21.6181C3.99096 21.6115 4.08801 21.5984 4.17858 21.5918C4.16564 21.6115 4.15917 21.6312 4.14623 21.6575C4.2174 21.7231 4.28856 21.7953 4.37267 21.8676C4.05566 22.1565 4.0686 21.6969 3.90039 21.6181Z" fill="white"/>
<circle cx="18.5" cy="18.5" r="10.4062" fill="white"/>
<circle cx="18.5" cy="18.5" r="10.4062" fill="white"/>
<path d="M17.9642 21.6253L14.6202 22.5213L14.7251 22.9128C14.5991 22.9466 14.4846 22.9772 14.3701 23.0079C13.6028 23.2135 12.8355 23.4191 12.0682 23.6247C12.0338 23.6339 12.0109 23.6401 11.9766 23.6493C11.8163 23.6922 11.8048 23.6953 11.7647 23.5456C11.4129 22.2328 11.0612 20.9201 10.7094 19.6073C10.3978 18.4443 10.0892 17.2927 9.7776 16.1297C9.77143 16.1066 9.76834 16.0951 9.75909 16.0606L12.6565 15.2842L12.7645 15.6873C12.7645 15.6873 12.8446 15.6658 12.879 15.6566C13.9326 15.3743 14.9747 15.095 16.0283 14.8127C16.097 14.7943 16.1137 14.7651 16.0952 14.696C15.8299 13.7057 15.5676 12.7269 15.3022 11.7366C15.2714 11.6214 15.2714 11.6214 15.3974 11.5877C16.2792 11.3514 17.161 11.1151 18.0542 10.8758C18.1001 10.8635 18.1573 10.8482 18.2062 10.8474L19.0455 13.9796C19.1807 13.9804 22.2582 13.1434 22.3177 13.0905C22.2899 12.9868 22.2621 12.8832 22.2344 12.7795C22.219 12.722 22.2357 12.6928 22.2929 12.6775C22.3158 12.6713 22.3502 12.6621 22.3731 12.656C23.2435 12.4228 24.1138 12.1895 24.9842 11.9563C25.0185 11.9471 25.0643 11.9349 25.0987 11.9256L27.1413 19.5489L24.2325 20.3283L24.1307 19.9483L20.8668 20.8228L21.9468 24.8532C21.8781 24.8716 21.8208 24.887 21.7635 24.9023C20.8817 25.1386 19.9999 25.3749 19.1067 25.6142C19.015 25.6388 19.0027 25.5927 18.9873 25.5351C18.6602 24.3145 18.3331 23.0938 18.0061 21.8732C17.9814 21.7811 17.9536 21.6775 17.9289 21.5853L17.9642 21.6253ZM16.4161 15.8936C16.2443 15.9397 16.084 15.9826 15.9351 16.0225C15.019 16.268 14.1143 16.5104 13.1981 16.7559C13.1065 16.7805 13.0783 16.8127 13.103 16.9048C13.4979 18.3788 13.896 19.8643 14.2909 21.3383C14.3156 21.4304 14.3478 21.4588 14.4508 21.4312C15.115 21.2532 15.7793 21.0752 16.4435 20.8972C16.8443 20.7898 17.2451 20.6824 17.6689 20.5689L16.4192 15.9052L16.4161 15.8936ZM22.7704 14.7341C22.7395 14.6189 22.7117 14.5153 22.6871 14.4232C22.6346 14.2274 22.6346 14.2274 22.4056 14.2888C21.7643 14.4606 21.1229 14.6325 20.4816 14.8043C20.1266 14.8994 19.7716 14.9946 19.428 15.0866C19.3593 15.105 19.3509 15.1196 19.3695 15.1887C19.4497 15.4881 19.5268 15.776 19.607 16.0754C19.931 17.2845 20.255 18.4936 20.579 19.7027C20.5975 19.7718 20.6235 19.7772 20.6922 19.7588C20.7838 19.7343 20.8754 19.7097 20.9671 19.6852C21.929 19.4274 22.8796 19.1727 23.853 18.9119C23.8468 18.8888 23.8605 18.8482 23.8512 18.8136C23.7988 18.6179 23.7723 18.4275 23.7198 18.2317C23.5224 17.4947 23.3249 16.7577 23.1305 16.0323C23.0102 15.5832 22.8898 15.1341 22.7695 14.685C22.7695 14.685 22.758 14.688 22.7466 14.6911C22.7466 14.6911 22.7528 14.7141 22.7849 14.7425L22.7704 14.7341Z" fill="#FB897A"/>
</g>
<defs>
<clipPath id="clip0_1601_7360">
<rect width="37" height="37" rx="18.5" fill="white"/>
</clipPath>
</defs>
</svg>
