<svg width="18" height="18" viewBox="0 0 18 18" fill="none" xmlns="http://www.w3.org/2000/svg">
<rect x="0.720703" y="0.819824" width="16.3606" height="16.3606" rx="8.18028" fill="#9B9B9B"/>
<path d="M7.26054 9.14088C6.88567 9.12928 6.51657 9.14088 6.15323 9.14088C5.78413 9.14088 5.42079 9.14088 5.05168 9.14088C5.05168 9.11188 5.05168 9.08288 5.05168 9.05969C5.05168 8.92631 5.05168 8.79293 5.05168 8.65955C5.05168 8.64795 5.06899 8.63055 5.08052 8.63055C5.10936 8.62475 5.13819 8.62475 5.16703 8.62475C6.13593 8.62475 7.10483 8.62475 8.07373 8.62475C8.0968 8.62475 8.11987 8.62475 8.15447 8.62475C8.15447 8.17822 8.15447 7.73168 8.15447 7.28515L5.55344 7.28515C5.55344 7.20396 5.55344 7.12277 5.55344 7.04158C5.55344 6.9604 5.55344 6.87341 5.55344 6.79222C5.55344 6.75163 5.56497 6.74003 5.60534 6.74583C5.63995 6.74583 5.68032 6.74583 5.72069 6.74583C6.51657 6.74583 7.31245 6.74583 8.10833 6.74583C8.15447 6.74583 8.16024 6.73423 8.16024 6.69364C8.16024 6.33989 8.16024 5.99194 8.16024 5.63819C8.16024 5.60919 8.166 5.5918 8.20638 5.5918C8.65622 5.5918 9.1003 5.5918 9.55015 5.5918C9.58475 5.5918 9.59628 5.5918 9.59628 5.63239C9.59628 5.96874 9.59628 6.30509 9.59628 6.64144C9.59628 6.73423 9.59628 6.73423 9.7001 6.73423C10.4671 6.73423 11.2342 6.73423 12.0012 6.73423C12.0589 6.73423 12.1166 6.73423 12.18 6.73423L12.18 7.27355L9.59628 7.27355C9.59628 7.30255 9.59628 7.32574 9.59628 7.34894C9.59628 7.74908 9.59628 8.14922 9.59628 8.54936C9.59628 8.61315 9.59628 8.61315 9.66549 8.61315C10.6171 8.61315 11.5745 8.61315 12.5261 8.61315C12.578 8.61315 12.6356 8.61315 12.6933 8.61315C12.6933 8.63055 12.6933 8.64215 12.6991 8.65375C12.6991 8.79873 12.6991 8.94371 12.6991 9.08288C12.6991 9.11768 12.6991 9.13508 12.6472 9.13508C11.8167 9.13508 10.9862 9.13508 10.1557 9.13508C10.0807 9.13508 10.0115 9.13508 9.93655 9.14088C10.3287 9.59321 10.7843 9.98175 11.2976 10.3123C11.8109 10.6429 12.3646 10.898 12.9528 11.1068C12.9182 11.1648 12.8836 11.217 12.849 11.2692C12.6356 11.5881 12.4222 11.9071 12.2146 12.226C12.18 12.2782 12.18 12.284 12.1166 12.2492C11.4649 11.9303 10.8882 11.5185 10.4037 11.0024C10.1096 10.6892 9.86735 10.3413 9.65972 9.97015C9.64242 9.94116 9.62512 9.90636 9.60782 9.87737C9.60782 9.87737 9.59628 9.87737 9.59052 9.87737L9.59052 12.4406C9.53861 12.4406 9.49247 12.4406 9.44634 12.4406C9.03686 12.4406 8.62162 12.4406 8.21214 12.4406C8.166 12.4406 8.15447 12.429 8.15447 12.3826C8.15447 11.6925 8.15447 11.0082 8.15447 10.3181C8.15447 10.2659 8.15447 10.2137 8.13717 10.1557C8.1141 10.1905 8.08526 10.2311 8.06219 10.2659C7.72769 10.7182 7.31245 11.101 6.83377 11.4199C6.38969 11.7157 5.90524 11.9477 5.39195 12.1332C5.30544 12.1622 5.21894 12.1912 5.13243 12.2144C5.12089 12.2144 5.09782 12.2028 5.09206 12.1912C5.04592 12.0984 4.99978 12.0115 4.95364 11.9187C4.94211 11.8955 4.93057 11.8723 4.9248 11.8433C4.9248 11.8259 4.93057 11.8027 4.94787 11.7911C5.24777 11.5823 5.5246 11.3504 5.78989 11.1068C6.06672 10.8458 6.32048 10.5733 6.55117 10.2775C6.80493 9.94696 7.02985 9.60481 7.21441 9.23946C7.23171 9.20467 7.25478 9.16987 7.28361 9.11768L7.26054 9.14088Z" fill="white"/>
</svg>
