<svg width="19" height="18" viewBox="0 0 19 18" fill="none" xmlns="http://www.w3.org/2000/svg">
<circle cx="9.5" cy="7" r="7" fill="#9FC2FF"/>
<g filter="url(#filter0_i_1001_6502)">
<circle cx="9.49985" cy="6.99985" r="5.38462" fill="#9FC2FF"/>
</g>
<g filter="url(#filter1_d_1001_6502)">
<path fill-rule="evenodd" clip-rule="evenodd" d="M9.96534 10.2446C9.67402 10.0915 9.32598 10.0915 9.03466 10.2446L7.76676 10.9112C7.03313 11.2969 6.1757 10.6739 6.31581 9.85704L6.55796 8.44522C6.6136 8.12082 6.50605 7.78982 6.27036 7.56008L5.24461 6.56023C4.65109 5.98169 4.9786 4.97372 5.79882 4.85453L7.21638 4.64855C7.54209 4.60122 7.82365 4.39665 7.96932 4.10151L8.60326 2.81699C8.97008 2.07374 10.0299 2.07374 10.3967 2.81699L11.0307 4.10151C11.1763 4.39665 11.4579 4.60122 11.7836 4.64855L13.2012 4.85453C14.0214 4.97372 14.3489 5.98169 13.7554 6.56022L12.7296 7.56008C12.494 7.78982 12.3864 8.12082 12.442 8.44522L12.6842 9.85704C12.8243 10.6739 11.9669 11.2969 11.2332 10.9112L9.96534 10.2446Z" fill="white"/>
</g>
<defs>
<filter id="filter0_i_1001_6502" x="4.11523" y="1.61523" width="10.7695" height="11.769" filterUnits="userSpaceOnUse" color-interpolation-filters="sRGB">
<feFlood flood-opacity="0" result="BackgroundImageFix"/>
<feBlend mode="normal" in="SourceGraphic" in2="BackgroundImageFix" result="shape"/>
<feColorMatrix in="SourceAlpha" type="matrix" values="0 0 0 0 0 0 0 0 0 0 0 0 0 0 0 0 0 0 127 0" result="hardAlpha"/>
<feOffset dy="1"/>
<feGaussianBlur stdDeviation="1.5"/>
<feComposite in2="hardAlpha" operator="arithmetic" k2="-1" k3="1"/>
<feColorMatrix type="matrix" values="0 0 0 0 0.154583 0 0 0 0 0.424848 0 0 0 0 0.883333 0 0 0 1 0"/>
<feBlend mode="normal" in2="shape" result="effect1_innerShadow_1001_6502"/>
</filter>
<filter id="filter1_d_1001_6502" x="0.941406" y="0.259766" width="17.1172" height="16.7686" filterUnits="userSpaceOnUse" color-interpolation-filters="sRGB">
<feFlood flood-opacity="0" result="BackgroundImageFix"/>
<feColorMatrix in="SourceAlpha" type="matrix" values="0 0 0 0 0 0 0 0 0 0 0 0 0 0 0 0 0 0 127 0" result="hardAlpha"/>
<feOffset dy="2"/>
<feGaussianBlur stdDeviation="2"/>
<feColorMatrix type="matrix" values="0 0 0 0 0.266667 0 0 0 0 0.538631 0 0 0 0 1 0 0 0 1 0"/>
<feBlend mode="normal" in2="BackgroundImageFix" result="effect1_dropShadow_1001_6502"/>
<feBlend mode="normal" in="SourceGraphic" in2="effect1_dropShadow_1001_6502" result="shape"/>
</filter>
</defs>
</svg>
