<svg width="16" height="17" viewBox="0 0 16 17" fill="none" xmlns="http://www.w3.org/2000/svg">
<g clip-path="url(#clip0_648_10998)">
<path d="M9.49271 6.05565V7.5H5.50729V6.05565C5.50729 4.94765 6.40112 4.04609 7.5 4.04609C8.59888 4.04609 9.49271 4.94748 9.49271 6.05565ZM7.5 0.5C6.855 0.5 6.32841 1.02926 6.32841 1.6815C6.32841 2.33195 6.855 2.86121 7.5 2.86121C8.145 2.86121 8.67159 2.33195 8.67159 1.6815C8.67159 1.02926 8.145 0.5 7.5 0.5ZM13.2563 6.74028C12.2947 6.74028 11.5126 7.52901 11.5126 8.49873V9.75355H15V8.49873C15 7.52901 14.2179 6.74028 13.2563 6.74028ZM13.2563 3.60724C12.6976 3.60724 12.2439 4.06478 12.2439 4.62821C12.2439 5.19164 12.6976 5.64918 13.2563 5.64918C13.815 5.64918 14.2687 5.19164 14.2687 4.62821C14.2687 4.06478 13.8148 3.60724 13.2563 3.60724ZM1.74371 6.74028C0.782118 6.74028 0 7.52901 0 8.49873V9.75355H3.48759V8.49873C3.48759 7.52901 2.70547 6.74028 1.74371 6.74028ZM1.74371 3.60724C1.185 3.60724 0.731294 4.06478 0.731294 4.62821C0.731294 5.19164 1.185 5.64918 1.74371 5.64918C2.30241 5.64918 2.75612 5.19164 2.75612 4.62821C2.75612 4.06478 2.30241 3.60724 1.74371 3.60724ZM10.0396 11.4832C9.89912 11.4832 9.78565 11.3687 9.78565 11.2271V8.9803H5.21453V11.2271C5.21453 11.3687 5.10106 11.4832 4.96059 11.4832H0V14.5H15V11.4832H10.0396Z" fill="black"/>
<path d="M9.49271 7.5V6.05565C9.49271 4.94748 8.59888 4.04609 7.5 4.04609C6.40112 4.04609 5.50729 4.94765 5.50729 6.05565V7.5H9.49271Z" fill="#68A0FF"/>
<path d="M6.32841 1.6815C6.32841 1.02926 6.855 0.5 7.5 0.5C8.145 0.5 8.67159 1.02926 8.67159 1.6815C8.67159 2.33195 8.145 2.86121 7.5 2.86121C6.855 2.86121 6.32841 2.33195 6.32841 1.6815Z" fill="#68A0FF"/>
<path d="M11.5126 8.49873C11.5126 7.52901 12.2947 6.74028 13.2563 6.74028C14.2179 6.74028 15 7.52901 15 8.49873V9.75355H11.5126V8.49873Z" fill="#68A0FF"/>
<path d="M12.2439 4.62821C12.2439 4.06478 12.6976 3.60724 13.2563 3.60724C13.8148 3.60724 14.2687 4.06478 14.2687 4.62821C14.2687 5.19164 13.815 5.64918 13.2563 5.64918C12.6976 5.64918 12.2439 5.19164 12.2439 4.62821Z" fill="#68A0FF"/>
<path d="M0 8.49873C0 7.52901 0.782118 6.74028 1.74371 6.74028C2.70547 6.74028 3.48759 7.52901 3.48759 8.49873V9.75355H0V8.49873Z" fill="#68A0FF"/>
<path d="M0.731294 4.62821C0.731294 4.06478 1.185 3.60724 1.74371 3.60724C2.30241 3.60724 2.75612 4.06478 2.75612 4.62821C2.75612 5.19164 2.30241 5.64918 1.74371 5.64918C1.185 5.64918 0.731294 5.19164 0.731294 4.62821Z" fill="#68A0FF"/>
<path d="M9.49322 7.5V6.05565C9.49322 4.94748 8.5994 4.04609 7.50052 4.04609C6.40164 4.04609 5.50781 4.94765 5.50781 6.05565V7.5H9.49322Z" fill="black"/>
<path d="M6.32893 1.6815C6.32893 1.02926 6.85552 0.5 7.50052 0.5C8.14552 0.5 8.67211 1.02926 8.67211 1.6815C8.67211 2.33195 8.14552 2.86121 7.50052 2.86121C6.85552 2.86121 6.32893 2.33195 6.32893 1.6815Z" fill="black"/>
</g>
<defs>
<clipPath id="clip0_648_10998">
<rect width="16" height="16" fill="white" transform="translate(0 0.5)"/>
</clipPath>
</defs>
</svg>
