<svg width="17" height="18" viewBox="0 0 17 18" fill="none" xmlns="http://www.w3.org/2000/svg">
<rect x="0.0820312" y="0.819824" width="16.3606" height="16.3606" rx="8.18028" fill="#F85640"/>
<path d="M7.37246 10.3305L5.68842 10.3305L5.68842 10.5276C5.62498 10.5276 5.56731 10.5276 5.50964 10.5276C5.12323 10.5276 4.73683 10.5276 4.35042 10.5276C4.33312 10.5276 4.32158 10.5276 4.30428 10.5276C4.22354 10.5276 4.21777 10.5276 4.21777 10.4523C4.21777 9.79116 4.21777 9.13005 4.21777 8.46895C4.21777 7.88324 4.21777 7.30332 4.21777 6.71761C4.21777 6.70601 4.21777 6.70021 4.21777 6.68281L5.67689 6.68281L5.67689 6.88578C5.67689 6.88578 5.71726 6.88578 5.73456 6.88578C6.26515 6.88578 6.78997 6.88578 7.32056 6.88578C7.35516 6.88578 7.3667 6.87418 7.3667 6.83939C7.3667 6.34066 7.3667 5.84773 7.3667 5.34901C7.3667 5.29102 7.3667 5.29102 7.43014 5.29102C7.87422 5.29102 8.3183 5.29102 8.76814 5.29102C8.79121 5.29102 8.82005 5.29102 8.84312 5.29681L8.84312 6.87418C8.90656 6.89158 10.4579 6.88578 10.4926 6.86838C10.4926 6.81619 10.4926 6.764 10.4926 6.71181C10.4926 6.68281 10.5041 6.67121 10.5329 6.67121C10.5445 6.67121 10.5618 6.67121 10.5733 6.67121C11.0116 6.67121 11.4499 6.67121 11.8882 6.67121C11.9055 6.67121 11.9286 6.67121 11.9459 6.67121L11.9459 10.5102L10.481 10.5103L10.481 10.3189L8.83735 10.3189L8.83735 12.3486C8.80275 12.3486 8.77391 12.3486 8.74507 12.3486C8.30099 12.3486 7.85691 12.3486 7.40707 12.3486C7.36093 12.3486 7.36093 12.3254 7.36093 12.2964C7.36093 11.6817 7.36093 11.067 7.36093 10.4523C7.36093 10.4059 7.36093 10.3537 7.36093 10.3073L7.37246 10.3305ZM7.3667 7.4425C7.28019 7.4425 7.19945 7.4425 7.12447 7.4425C6.66309 7.4425 6.20748 7.4425 5.7461 7.4425C5.69996 7.4425 5.68266 7.4541 5.68266 7.50049C5.68266 8.24278 5.68266 8.99087 5.68266 9.73316C5.68266 9.77956 5.69419 9.79695 5.7461 9.79695C6.0806 9.79695 6.4151 9.79695 6.7496 9.79695C6.95145 9.79695 7.15331 9.79695 7.3667 9.79695L7.3667 7.4483L7.3667 7.4425ZM10.4983 7.69766C10.4983 7.63967 10.4983 7.58748 10.4983 7.54109C10.4983 7.4425 10.4983 7.4425 10.383 7.4425C10.06 7.4425 9.73704 7.4425 9.41407 7.4425C9.23529 7.4425 9.0565 7.4425 8.88349 7.4425C8.84888 7.4425 8.84312 7.4483 8.84312 7.48309C8.84312 7.63387 8.84312 7.77885 8.84312 7.92963C8.84312 8.53854 8.84312 9.14745 8.84312 9.75636C8.84312 9.79116 8.85465 9.79695 8.88925 9.79695C8.93539 9.79695 8.98153 9.79695 9.02767 9.79695C9.51212 9.79695 9.9908 9.79695 10.481 9.79695C10.481 9.78536 10.4926 9.76796 10.4926 9.75056C10.4926 9.65198 10.5041 9.55919 10.5041 9.4606C10.5041 9.08946 10.5041 8.71831 10.5041 8.35297C10.5041 8.1268 10.5041 7.90063 10.5041 7.67447C10.5041 7.67447 10.4983 7.67447 10.4926 7.67447C10.4926 7.67447 10.4926 7.68606 10.5041 7.70346L10.4983 7.69766Z" fill="white"/>
</svg>
