<svg width="120" height="33" viewBox="0 0 120 33" fill="none" xmlns="http://www.w3.org/2000/svg">
<path d="M8.78916 10.748L9.80116 9.516H3.46516L3.90516 6.172H12.4852L13.7172 4.676L3.24516 4.896L3.72916 1.552L38.9732 0.715999L38.4892 4.06L23.9252 4.412L22.5172 6.172H37.3452L36.9052 9.516H19.8332L18.8212 10.748H37.5652L37.0812 14.092H16.1372L15.1252 15.368H35.6292L33.2092 32.396H2.71716L4.25716 21.616H0.0771563L6.10516 14.092H1.96916L2.45316 10.748H8.78916ZM26.1692 29.14L26.3892 27.6H10.9452L10.7252 29.14H26.1692ZM11.3412 24.696H26.7852L27.0052 23.156H11.5612L11.3412 24.696ZM11.9572 20.208H27.4012L27.6212 18.712H12.1772L11.9572 20.208Z" fill="white"/>
<path d="M49.3977 4.236L49.6617 2.432L48.2097 0.759998H57.0537L56.5257 4.236H60.3977L59.8697 8.02H55.9977L55.6457 10.748H60.4857L59.9137 14.796H56.4817L56.0857 17.876H59.6057L59.0777 21.66H55.5577L54.7217 27.424H77.9977L77.4257 31.648H52.6977L46.1417 29.096L45.6577 31.648H40.6417L43.5897 18.008L42.7977 16.556H48.6497L47.1537 24.124L48.6937 24.608L50.0577 14.796H43.0617L43.6337 10.748H48.4737L48.8697 8.02H45.0417L45.5697 4.236H49.3977ZM72.6297 16.072L73.0257 13.256H61.2337L61.7617 9.692H70.8257L72.8937 6.524H68.0977L67.0857 8.196H60.8817L64.7977 2.256L63.8297 0.803998H71.5737L70.3857 2.74H79.3617L78.7897 6.788L77.0297 9.692H79.1857L76.8977 26.06H59.4737L59.9577 22.496H71.7497L72.1457 19.68H60.3537L60.8377 16.072H72.6297ZM81.7783 32.308L89.4343 23.244H82.6143L83.1423 19.372H92.7343L93.7023 18.228H102.898L101.93 19.372H116.802L115.394 29.492C115.248 30.3427 114.852 31.032 114.206 31.56C113.561 32.088 112.813 32.352 111.962 32.352H103.734L107.65 28.304L108.398 23.244H98.6303L90.9743 32.308H81.7783ZM99.1583 7.888L100.654 8.548L101.402 6.964H99.2463L99.7743 3.092H103.294L103.822 2.08L102.634 0.759998H111.082L109.938 3.092H118.606L117.242 12.772H117.682L119.178 11.1L118.254 17.788H113.458C112.608 17.788 111.933 17.4947 111.434 16.908C110.936 16.3213 110.76 15.6173 110.906 14.796L112.006 6.964H108.09L106.154 10.968L108.046 11.76L107.342 16.732L104.086 15.324L103.118 17.348H96.3423L98.4983 12.904L98.4543 12.86L99.1583 7.888ZM82.9223 17.436L86.8383 13.3L86.8823 13.036L83.0543 13.696L83.5823 10L87.4103 9.34L87.7623 6.92H84.0663L84.6383 2.916H88.3343L88.6423 0.715999H95.3303L95.0223 2.916H98.7183L98.1463 6.92H94.4503L94.2743 8.152L98.0143 7.492L97.4863 11.188L93.7463 11.848L93.3943 14.444C93.2476 15.2947 92.8369 16.0133 92.1623 16.6C91.5169 17.1573 90.7836 17.436 89.9623 17.436H82.9223Z" fill="#65BFFF"/>
</svg>
