<svg width="131" height="36" viewBox="0 0 131 36" fill="none" xmlns="http://www.w3.org/2000/svg">
<path d="M10.1248 11.816L11.2288 10.472H4.31684L4.79684 6.824H14.1568L15.5008 5.192L4.07684 5.432L4.60484 1.784L43.0528 0.871999L42.5248 4.52L26.6368 4.904L25.1008 6.824H41.2768L40.7968 10.472H22.1728L21.0688 11.816H41.5168L40.9888 15.464H18.1408L17.0368 16.856H39.4048L36.7648 35.432H3.50084L5.18084 23.672H0.620836L7.19684 15.464H2.68484L3.21284 11.816H10.1248ZM29.0848 31.88L29.3248 30.2H12.4768L12.2368 31.88H29.0848ZM12.9088 27.032H29.7568L29.9968 25.352H13.1488L12.9088 27.032ZM13.5808 22.136H30.4288L30.6688 20.504H13.8208L13.5808 22.136Z" fill="white"/>
<path d="M54.4251 4.712L54.7131 2.744L53.1291 0.919998H62.7771L62.2011 4.712H66.4251L65.8491 8.84H61.6251L61.2411 11.816H66.5211L65.8971 16.232H62.1531L61.7211 19.592H65.5611L64.9851 23.72H61.1451L60.2331 30.008H85.6251L85.0011 34.616H58.0251L50.8731 31.832L50.3451 34.616H44.8731L48.0891 19.736L47.2251 18.152H53.6091L51.9771 26.408L53.6571 26.936L55.1451 16.232H47.5131L48.1371 11.816H53.4171L53.8491 8.84H49.6731L50.2491 4.712H54.4251ZM79.7691 17.624L80.2011 14.552H67.3371L67.9131 10.664H77.8011L80.0571 7.208H74.8251L73.7211 9.032H66.9531L71.2251 2.552L70.1691 0.967998H78.6171L77.3211 3.08H87.1131L86.4891 7.496L84.5691 10.664H86.9211L84.4251 28.52H65.4171L65.9451 24.632H78.8091L79.2411 21.56H66.3771L66.9051 17.624H79.7691ZM89.7493 35.336L98.1013 25.448H90.6613L91.2373 21.224H101.701L102.757 19.976H112.789L111.733 21.224H127.957L126.421 32.264C126.261 33.192 125.829 33.944 125.125 34.52C124.421 35.096 123.605 35.384 122.677 35.384H113.701L117.973 30.968L118.789 25.448H108.133L99.7813 35.336H89.7493ZM108.709 8.696L110.341 9.416L111.157 7.688H108.805L109.381 3.464H113.221L113.797 2.36L112.501 0.919998H121.717L120.469 3.464H129.925L128.437 14.024H128.917L130.549 12.2L129.541 19.496H124.309C123.381 19.496 122.645 19.176 122.101 18.536C121.557 17.896 121.365 17.128 121.525 16.232L122.725 7.688H118.453L116.341 12.056L118.405 12.92L117.637 18.344L114.085 16.808L113.029 19.016H105.637L107.989 14.168L107.941 14.12L108.709 8.696ZM90.9973 19.112L95.2693 14.6L95.3173 14.312L91.1413 15.032L91.7173 11L95.8933 10.28L96.2773 7.64H92.2453L92.8693 3.272H96.9013L97.2373 0.871999H104.533L104.197 3.272H108.229L107.605 7.64H103.573L103.381 8.984L107.461 8.264L106.885 12.296L102.805 13.016L102.421 15.848C102.261 16.776 101.813 17.56 101.077 18.2C100.373 18.808 99.5733 19.112 98.6773 19.112H90.9973Z" fill="#47B2FF"/>
</svg>
