<svg width="210" height="33" viewBox="0 0 210 33" fill="none" xmlns="http://www.w3.org/2000/svg">
<path d="M26.1448 4.456L29.4888 29.36H21.9208L21.0408 22.584H10.4808L7.53275 29.36H0.36075L10.0847 5.688L8.80875 4.456H26.1448ZM16.4208 8.68L12.1968 18.36H20.6448L19.3688 8.68H16.4208ZM45.4188 4.456L41.5908 29.36H33.5828L36.5308 6.128L35.2548 4.456H45.4188ZM76.137 27.468L72.749 32.396H58.537L57.437 31.384L56.029 32.396H47.669L53.697 27.996L50.397 24.96L50.969 20.78H49.341L49.913 16.6H51.541L51.761 15.192H57.613L57.393 16.6H61.573L61.793 15.192H67.645L67.425 16.6H69.141L68.569 20.78H66.853L66.281 24.96L62.101 27.996L66.369 31.956L73.321 21.836L69.493 14.092H76.181L77.237 16.204L78.689 14.092V14.048L79.481 8.24H77.897L76.401 12.42H69.713L73.497 1.728L72.661 0.715999H80.581L79.393 4.06H88.017L87.445 8.24H86.169L85.377 14.048L80.009 21.836L85.289 32.396H78.601L76.137 27.468ZM53.345 9.912H50.837L51.453 5.732H58.141L58.625 2.344L57.877 0.715999H64.697L63.993 5.732H70.681L70.065 9.912H67.337L69.361 14.928H64.345L63.113 11.892L62.673 14.928H56.821L57.305 11.584L55.149 14.928H50.133L53.345 9.912ZM66.237 1.552H71.253L69.933 4.896H64.917L66.237 1.552ZM57.393 4.896H52.377L52.025 1.552H57.041L57.393 4.896ZM60.737 22.892L61.001 20.78H56.821L56.557 22.892L58.405 24.608L60.737 22.892ZM109.97 11.848L106.098 32.308H99.7616L105.526 1.552H128.406L126.954 11.848H109.97ZM115.47 13.96L115.69 12.596H121.718L121.498 13.96H126.822L126.294 17.832H120.97L120.618 20.252H125.502L123.918 31.56H107.462L109.046 20.252H114.59L114.942 17.832H109.574L110.102 13.96H115.47ZM94.7456 6.084L95.3176 2.08L94.2176 0.803998H102.358L101.61 6.084H103.59L103.018 9.956H101.082L100.334 15.28L102.226 14.708L101.566 19.284L99.6736 19.856L98.3536 29.448C98.2362 30.2987 97.8549 31.0027 97.2096 31.56C96.5642 32.088 95.8162 32.352 94.9656 32.352H88.2336L91.6216 28.392L92.5016 22.056L89.8176 22.848L90.4776 18.228L93.1616 17.436L94.2176 9.956H91.5776L92.1496 6.084H94.7456ZM121.982 5.468H111.51L111.07 8.372H121.542L121.982 5.468ZM118.946 27.952L119.474 24.168H114.194L113.666 27.952H118.946ZM129.898 32.396L137.642 18.712H133.506L134.122 14.488H164.218L162.106 29.492C161.989 30.3133 161.593 31.0027 160.918 31.56C160.273 32.1173 159.525 32.396 158.674 32.396H149.962L153.922 28.304L155.242 18.712H146.002L138.258 32.396H129.898ZM139.314 13.256H130.954L140.238 1.728L139.402 0.715999H149.434L139.314 13.256ZM161.138 0.715999L167.738 13.256H159.378L152.778 0.715999H161.138ZM189.955 3.224L209.271 0.715999L208.655 5.116L197.083 6.392L196.071 11.936H208.479L207.863 16.116H205.311L203.023 32.352H196.115L198.403 16.116H195.323L192.463 32.352H184.719L189.955 3.224ZM176.315 10.044H172.091L172.663 5.864H176.931L177.459 2.08L176.491 0.803998H184.455L183.751 5.864H187.975L187.403 10.044H183.135L180.011 32.396H173.191L176.315 10.044ZM169.319 30.812L172.839 11.056H175.611L172.091 30.812H169.319ZM181.991 28.304L183.707 11.056H186.479L184.763 28.304H181.991Z" fill="white"/>
</svg>
