<svg width="210" height="33" viewBox="0 0 210 33" fill="none" xmlns="http://www.w3.org/2000/svg">
<path d="M26.1448 4.456L29.4888 29.36H21.9208L21.0408 22.584H10.4808L7.53275 29.36H0.36075L10.0847 5.688L8.80875 4.456H26.1448ZM16.4208 8.68L12.1968 18.36H20.6448L19.3688 8.68H16.4208ZM45.4188 4.456L41.5908 29.36H33.5828L36.5308 6.128L35.2548 4.456H45.4188ZM51.629 17.524H82.825L80.801 31.868H49.605L51.629 17.524ZM58.493 2.344H70.197L69.537 6.832H63.729L63.597 7.712H69.493L68.921 11.848H66.017L68.789 16.6H61.265L59.417 13.476L56.777 16.644H48.725L53.389 11.848H48.857L49.429 7.712H56.645L56.777 6.832H55.501L55.369 7.052H49.429L53.169 1.332L52.025 0.715999H59.593L58.493 2.344ZM71.121 1.86H86.961L84.893 16.468H69.053L71.121 1.86ZM58.537 23.068H74.685L74.949 21.308H58.801L58.537 23.068ZM73.981 28.04L74.201 26.456H58.053L57.833 28.04H73.981ZM79.305 12.376L80.141 6.172H77.105L76.269 12.376H79.305ZM97.9136 32.396L99.8496 30.812L100.422 26.632H97.0336L96.2416 32.396H88.7176L91.6656 11.584H110.058L107.55 29.492C107.403 30.3427 107.007 31.0467 106.362 31.604C105.716 32.132 104.968 32.396 104.118 32.396H97.9136ZM127.35 7.404L119.254 8.768L118.858 11.584H125.106L126.998 9.912L126.206 15.764H110.762L112.874 0.715999H120.398L119.826 4.588L127.966 3.224L127.35 7.404ZM125.018 24.124L116.922 25.488L116.526 28.304H122.862L122.774 28.26L124.666 26.588L123.83 32.396H108.386L110.498 17.436H118.022L117.494 21.308L125.59 19.944L125.018 24.124ZM109.574 3.224L110.19 10.748H104.338L104.25 10L91.7976 10.748L92.3256 7.008L95.0536 1.904L94.0416 0.715999H103.238L100.07 6.524L103.942 6.304L103.722 3.224H109.574ZM98.3536 17.436H101.698L102.006 15.324H98.6616L98.3536 17.436ZM97.5616 22.848H100.95L101.17 21.22H97.8256L97.5616 22.848ZM129.898 32.396L137.642 18.712H133.506L134.122 14.488H164.218L162.106 29.492C161.989 30.3133 161.593 31.0027 160.918 31.56C160.273 32.1173 159.525 32.396 158.674 32.396H149.962L153.922 28.304L155.242 18.712H146.002L138.258 32.396H129.898ZM139.314 13.256H130.954L140.238 1.728L139.402 0.715999H149.434L139.314 13.256ZM161.138 0.715999L167.738 13.256H159.378L152.778 0.715999H161.138ZM189.955 3.224L209.271 0.715999L208.655 5.116L197.083 6.392L196.071 11.936H208.479L207.863 16.116H205.311L203.023 32.352H196.115L198.403 16.116H195.323L192.463 32.352H184.719L189.955 3.224ZM176.315 10.044H172.091L172.663 5.864H176.931L177.459 2.08L176.491 0.803998H184.455L183.751 5.864H187.975L187.403 10.044H183.135L180.011 32.396H173.191L176.315 10.044ZM169.319 30.812L172.839 11.056H175.611L172.091 30.812H169.319ZM181.991 28.304L183.707 11.056H186.479L184.763 28.304H181.991Z" fill="white"/>
</svg>
