<svg width="100" height="100" viewBox="0 0 100 100" fill="none" xmlns="http://www.w3.org/2000/svg">
<path d="M70.1637 44.3156C70.1371 29.5789 58.6575 17.532 43.8471 17.4504C29.4355 17.3688 17.5034 29.3342 17.4502 44.2612C17.3969 59.0792 29.0891 71.371 43.847 71.3166C58.2844 71.2622 70.1903 59.5961 70.1637 44.3156ZM65.0124 44.3159C65.0654 56.4476 55.49 65.9785 43.7935 66.0327C32.0711 66.0055 22.575 56.3395 22.6281 44.3159C22.6811 32.2376 32.1509 22.7072 43.8202 22.7072C55.7548 22.7343 64.9593 32.4541 65.0124 44.3159Z" fill="#AAAAAA" stroke="#AAAAAA" stroke-width="0.1"/>
<path d="M39.3535 30.2538C39.3535 29.7924 39.4333 29.7109 39.8852 29.7109C42.4907 29.7109 45.1227 29.7109 47.7281 29.7109C48.2864 29.7109 48.313 29.7652 48.313 30.3352C48.313 41.0016 48.313 51.6951 48.313 62.3615C48.313 62.85 48.2332 62.85 47.7812 62.9586C45.7341 63.4743 43.6604 63.4743 41.5867 63.2843C40.9221 63.23 40.284 63.0671 39.646 62.9314C39.4067 62.8772 39.3535 62.6872 39.3535 62.47C39.3535 51.7313 39.3535 40.9925 39.3535 30.2538Z" fill="#AAAAAA"/>
<path d="M50.9189 42.6084C50.9189 42.0385 50.9987 41.957 51.5304 41.957C54.1358 41.957 56.7413 41.957 59.3467 41.957C59.7986 41.957 59.905 42.0385 59.905 42.527C59.905 46.191 59.905 49.855 59.905 53.5462C59.905 53.9805 59.7455 54.3333 59.5328 54.659C58.7618 55.9618 57.7781 57.1017 56.6881 58.1059C55.9703 58.7844 55.1993 59.4358 54.4283 60.0329C53.8168 60.4943 53.1256 60.8471 52.4609 61.2271C52.1685 61.4171 51.8229 61.5528 51.5304 61.7156C51.105 61.9599 50.9189 61.8513 50.9189 61.3628C50.9189 55.1113 50.9189 48.8599 50.9189 42.6084Z" fill="#DFDFDF"/>
<path d="M36.6944 61.1993C36.6944 61.335 36.6944 61.4708 36.6944 61.6065C36.6944 61.8779 36.5348 61.9864 36.2956 61.8507C35.7904 61.6065 35.2853 61.3893 34.8068 61.0908C34.1687 60.7108 33.5306 60.3037 32.9458 59.8694C31.8026 59.0552 30.7391 58.1324 29.8618 57.0196C29.1971 56.1783 28.5857 55.3098 27.9742 54.4412C27.8413 54.2513 27.7881 54.007 27.7881 53.7899C27.7881 52.3243 27.7881 50.8586 27.7881 49.393C27.7881 49.0402 27.8944 48.9316 28.24 48.9316C30.9252 48.9316 33.6104 48.9316 36.2956 48.9316C36.6678 48.9316 36.7209 49.0131 36.7209 49.4473C36.7209 53.3669 36.6944 57.2797 36.6944 61.1993Z" fill="#DFDFDF"/>
<path d="M78.3557 82.4992C78.3557 82.4992 78.1696 82.4992 78.0633 82.4992C75.963 82.4449 73.9159 81.5492 72.4802 79.9751C69.1836 76.311 65.8338 72.7556 62.5371 69.1187C62.2712 68.8201 62.0054 68.5487 61.7395 68.2773C61.3939 67.9245 61.4205 67.7888 61.7927 67.4902C63.6803 65.9975 65.3818 64.6133 66.5516 62.4692C66.7111 62.1706 66.8972 62.1163 67.163 62.3335C71.1775 65.7804 75.3515 69.2273 79.3926 72.7284C80.2433 73.4612 81.3865 74.6826 81.8916 75.7139C83.4336 78.9166 81.9714 82.3906 78.3557 82.4992Z" fill="#DFDFDF"/>
</svg>
