<svg width="6" height="7" viewBox="0 0 6 7" fill="none" xmlns="http://www.w3.org/2000/svg">
<g id="Close">
<path id="Close_2" fill-rule="evenodd" clip-rule="evenodd" d="M2.13845 3.49719L0.149681 5.5805C-0.0502214 5.7899 -0.0450957 6.13354 0.149681 6.34295C0.349583 6.55235 0.672502 6.55235 0.872405 6.34295L3 4.11421L5.1276 6.34295C5.3275 6.55235 5.65042 6.55235 5.85032 6.34295C6.0451 6.13354 6.05022 5.7899 5.85032 5.5805L3.86155 3.49719L5.85032 1.41388C5.89777 1.36417 5.93542 1.30515 5.9611 1.2402C5.98678 1.17525 6 1.10564 6 1.03534C6 0.965035 5.98678 0.895422 5.9611 0.830472C5.93542 0.765522 5.89777 0.706507 5.85032 0.656796C5.80286 0.607086 5.74653 0.567653 5.68452 0.54075C5.62252 0.513847 5.55607 0.5 5.48896 0.5C5.42185 0.5 5.35539 0.513847 5.29339 0.54075C5.23139 0.567653 5.17505 0.607086 5.1276 0.656796L3 2.88553L0.872405 0.656796C0.82495 0.607086 0.768613 0.567653 0.706611 0.54075C0.644608 0.513847 0.578154 0.5 0.511043 0.5C0.443932 0.5 0.377478 0.513847 0.315475 0.54075C0.253473 0.567653 0.197136 0.607086 0.149681 0.656796C0.102226 0.706507 0.0645833 0.765522 0.038901 0.830472C0.0132187 0.895422 0 0.965035 0 1.03534C0 1.10564 0.0132187 1.17525 0.038901 1.2402C0.0645833 1.30515 0.102226 1.36417 0.149681 1.41388L2.13845 3.49719Z" fill="white"/>
</g>
</svg>
