<svg width="100" height="100" viewBox="0 0 100 100" fill="none" xmlns="http://www.w3.org/2000/svg">
<path fill-rule="evenodd" clip-rule="evenodd" d="M19.0326 84.3195C41.1905 82.4815 62.9175 81.127 85.2163 81.127C86.3209 81.127 87.2163 80.2315 87.2163 79.127C87.2163 78.0224 86.3209 77.127 85.2163 77.127C62.759 77.127 40.9082 78.4912 18.702 80.3332C17.6012 80.4246 16.7828 81.3909 16.8741 82.4917C16.9655 83.5925 17.9318 84.4109 19.0326 84.3195ZM50.1761 89.2425C62.8916 88.1373 71.772 88.1367 82.4607 88.1367C83.5653 88.1367 84.4607 87.2413 84.4607 86.1367C84.4607 85.0321 83.5653 84.1367 82.4607 84.1367H82.4442C71.7517 84.1367 62.7248 84.1367 49.8298 85.2575C48.7293 85.3532 47.9148 86.3228 48.0104 87.4232C48.1061 88.5236 49.0757 89.3381 50.1761 89.2425Z" fill="#DFDFDF"/>
<g clip-path="url(#clip0_7349_54491)">
<path d="M73.4682 53.2713C73.4682 53.2713 73.4682 53.2713 73.4682 53.2741C73.2958 53.5494 73.1094 53.8163 72.923 54.0804C72.5335 54.6337 72.119 55.1703 71.6878 55.693C70.8254 56.7357 69.8879 57.7172 68.8836 58.6291C68.8336 58.6736 68.7835 58.7181 68.7334 58.7626C65.7623 61.4235 62.3962 63.392 58.5933 64.6098C58.4236 64.6654 58.2567 64.7377 58.0898 64.8044C57.7754 64.8934 57.8116 64.6682 57.8478 64.5041C57.9257 64.151 58.0397 63.809 58.1566 63.467C59.1052 60.72 60.0121 57.9591 60.9941 55.2232C61.2139 54.6115 61.1638 54.1249 60.7688 53.5827C59.1664 51.3779 57.5807 49.1619 56.02 46.9265C55.8225 46.6429 55.5833 46.515 55.2383 46.5177C51.7554 46.5233 48.2724 46.5233 44.7867 46.5177C44.3694 46.5177 44.1218 46.7124 43.8992 47.0293C42.6001 48.8866 41.2592 50.7134 39.9656 52.5734C39.693 52.9655 39.4009 53.3408 39.1171 53.7217C38.8139 54.1305 38.7638 54.5142 38.9363 55.0035C39.6902 57.1583 40.3996 59.327 41.1368 61.4874C41.2147 61.7182 41.3371 61.9434 41.2814 62.202C41.07 62.4605 40.8669 62.2826 40.6778 62.1769C39.2812 61.404 38.0099 60.4503 36.797 59.4216C34.8107 57.7394 33.0831 55.8237 31.6477 53.6467C31.5475 53.4965 31.3528 53.3603 31.4863 53.1323C32.3153 52.9488 33.1527 53.0127 33.9817 53.085C34.9192 53.1657 35.8539 53.1184 36.7887 53.1267C37.103 53.1267 37.2977 52.9293 37.4647 52.6902C38.6247 51.0164 39.8154 49.3621 40.9977 47.7022C41.4651 47.046 41.9269 46.3898 42.3998 45.7364C42.6029 45.4556 42.6446 45.1887 42.5333 44.8606C41.4984 41.8133 40.4274 38.7771 39.4203 35.7187C39.3146 35.3934 39.1199 35.2043 38.8028 35.0792C36.3992 34.1394 33.9817 33.2441 31.5976 32.2599C31.0996 32.0541 30.7241 32.1153 30.2845 32.4378C29.3748 33.1107 28.4985 33.8308 27.5221 34.4119C27.4414 34.4258 27.3635 34.4147 27.294 34.3702C27.0992 34.1589 27.1521 33.9059 27.1938 33.6695C27.6334 31.2283 28.2343 28.8344 29.322 26.5906C29.5 26.2236 29.5918 25.8149 29.845 25.484C29.8895 25.4507 29.9396 25.4423 29.9924 25.4618C30.2651 26.0763 30.3902 26.7408 30.5989 27.3747C30.8381 28.1087 31.0301 28.8567 31.2248 29.6018C31.3111 29.9327 31.4974 30.1412 31.8201 30.2608C34.3127 31.1922 36.772 32.2043 39.2618 33.1412C39.5706 33.258 39.8182 33.2302 40.0908 33.0467C41.9157 31.8206 43.7045 30.5388 45.5183 29.296C46.5059 28.6175 47.4907 27.9391 48.4699 27.2468C48.826 26.9938 48.9846 26.7046 48.9818 26.2625C48.9651 23.8019 48.9679 21.3385 48.9818 18.8778C48.9818 18.4719 48.8344 18.2105 48.5005 17.9853C46.6645 16.7452 44.8451 15.4829 43.0396 14.1956C42.6557 13.9204 42.1939 13.7508 41.8907 13.3615C41.8796 13.3087 41.8879 13.2558 41.9129 13.2086C42.0326 13.0445 42.2078 12.95 42.3831 12.8638C45.0064 11.5876 47.7355 10.6395 50.6343 10.2475C50.0222 10.2669 49.3991 10.2085 48.7843 10.2725C48.15 10.3392 47.5074 10.3364 46.8759 10.4337C46.6561 10.4671 46.4141 10.4949 46.236 10.2892C49.0291 9.83039 51.811 9.94995 54.5901 10.4198C56.2231 10.6951 57.8283 11.0816 59.3806 11.6655C59.5308 11.7211 59.695 11.7461 59.8535 11.785C60.1735 12.0352 59.8647 12.1576 59.7283 12.266C59.1636 12.7164 58.5488 13.1001 57.9563 13.5144C55.817 15.0103 53.6693 16.4978 51.5161 17.9686C51.1684 18.2077 51.0265 18.4858 51.0293 18.9112C51.0432 21.3579 51.0432 23.8047 51.0293 26.2486C51.0293 26.7018 51.16 27.0299 51.5439 27.2857C54.2953 29.1347 56.9909 31.0699 59.7283 32.9411C60.1067 33.1996 60.4322 33.2386 60.8689 33.0745C63.203 32.1876 65.5064 31.2283 67.8543 30.3748C68.3801 30.1829 68.7056 29.8771 68.8475 29.3265C69.312 27.497 69.8935 25.6981 70.3859 23.877C70.6724 22.8148 71.0146 21.7694 71.3067 20.7073C71.3651 20.4904 71.4152 20.1067 71.8019 20.446C72.3582 21.3134 73.0203 22.1058 73.5767 22.9761C75.4601 25.9289 76.7259 29.118 77.4269 32.5407C77.8136 34.4286 77.9666 36.3359 78 38.2572C77.7663 38.4629 77.6077 38.2461 77.4492 38.1432C76.8288 37.74 76.2474 37.2813 75.6576 36.8392C73.6157 35.3183 71.5543 33.8308 69.5235 32.296C69.1896 32.043 68.8781 32.0569 68.5136 32.2043C66.366 33.0717 64.2211 33.9503 62.0401 34.715C61.0136 35.0764 60.5434 35.6631 60.2291 36.6529C59.4029 39.247 58.5488 41.8356 57.5946 44.388C57.3526 45.0386 57.411 45.5335 57.8339 46.109C59.4084 48.2499 60.944 50.4214 62.4658 52.6012C62.7272 52.9766 63.0333 53.1379 63.4951 53.1295C65.5453 53.0989 67.5956 53.0489 69.6431 52.9321C69.7238 52.9266 69.8072 52.9266 69.8907 52.9238C71.0062 52.896 72.1246 52.9738 73.2401 52.8765C73.4877 52.8543 73.6045 53.0517 73.4738 53.263L73.4682 53.2713Z" fill="#9F9F9F"/>
<path d="M41.2229 62.2444C40.5552 60.2565 39.8876 58.2685 39.2199 56.2777C39.1253 55.9969 39.0752 55.6966 38.9361 55.4408C38.491 54.6262 38.7136 53.9894 39.2477 53.2721C40.8473 51.1312 42.3774 48.9347 43.9213 46.7493C44.1022 46.4907 44.283 46.3906 44.6001 46.3906C48.1971 46.4017 51.7969 46.399 55.394 46.3962C55.6276 46.3962 55.8279 46.3962 55.9921 46.6297C57.703 49.057 59.4222 51.4787 61.1525 53.8949C61.3556 54.1785 61.3946 54.4121 61.2805 54.7485C60.1872 57.9265 59.1134 61.1128 58.0479 64.3019C58.0006 64.4437 57.7169 64.6717 58.0896 64.8024C56.9185 65.1361 55.7222 65.3557 54.5288 65.5893C53.5523 65.7783 52.5648 65.8645 51.58 65.9813C51.0597 65.7616 50.495 65.7422 49.9498 65.6449C47.1289 65.1444 44.4638 64.2046 41.9239 62.8923C41.6902 62.7727 41.4426 62.6754 41.2757 62.4558C41.2257 62.3918 41.1923 62.3223 41.2229 62.2389V62.2444Z" fill="#F0F2F3"/>
<path d="M73.4817 53.269C73.5345 53.2079 73.4984 53.105 73.4288 53.0605C73.3593 53.016 73.273 53.0132 73.1896 53.0132C71.9516 53.0132 70.7192 53.0939 69.4813 53.1328C68.2433 53.1717 66.8913 53.2079 65.5977 53.244C64.8104 53.2663 64.0204 53.2663 63.2331 53.308C62.9132 53.3247 62.7212 53.2162 62.5432 52.9604C61.2273 51.0976 59.9004 49.243 58.5789 47.3857C58.1784 46.8241 57.7833 46.2597 57.3744 45.7064C57.2019 45.4756 57.1602 45.2643 57.2575 44.9779C58.3314 41.8444 59.3996 38.7109 60.454 35.569C60.5652 35.2326 60.76 35.0686 61.0743 34.949C63.5697 33.987 66.0623 33.0222 68.5493 32.0379C68.9388 31.8822 69.2142 31.8906 69.5731 32.1575C72.1881 34.1149 74.8198 36.0445 77.4515 37.9769C77.6156 38.0964 77.7519 38.2938 77.9995 38.2577C77.866 41.0992 77.5182 43.8991 76.6141 46.6211C76.2469 47.7305 75.8102 48.8176 75.3094 49.8742C75.0201 50.4886 74.6918 51.0837 74.3691 51.6814C74.1772 52.0401 73.9769 52.3821 73.8266 52.763C73.7487 52.9576 73.6486 53.1523 73.4761 53.269C73.4761 53.269 73.4761 53.269 73.4761 53.2663L73.4817 53.269Z" fill="#F0F2F3"/>
<path d="M71.7881 20.4293C71.5071 20.307 71.5238 20.4599 71.457 20.6907C71.0091 22.2338 70.5724 23.7797 70.1301 25.3256C69.7072 26.8075 69.276 28.2867 68.8532 29.7687C68.7808 30.0189 68.6723 30.1996 68.4053 30.3025C65.7569 31.3229 63.1113 32.3516 60.4685 33.3887C60.232 33.4805 60.0985 33.3693 59.9371 33.2581C57.2943 31.4258 54.6821 29.5462 51.9892 27.7918C51.0851 27.2023 50.7929 26.5712 50.8291 25.5285C50.9098 23.2987 50.8625 21.0632 50.8458 18.8306C50.843 18.4246 50.9626 18.1716 51.2993 17.9408C53.8976 16.1586 56.4848 14.3625 59.0747 12.5663C59.3167 12.3995 59.556 12.2243 59.8008 12.0575C59.9149 11.9797 59.9622 11.899 59.8509 11.785C61.6202 12.5552 63.3756 13.3504 65.0002 14.4042C66.5386 15.4023 67.9824 16.5173 69.3038 17.7935C69.6961 18.1716 70.1022 18.547 70.4611 18.9557C70.7977 19.3422 71.1065 19.762 71.5155 20.0762C71.6212 20.1568 71.738 20.3403 71.7853 20.4265L71.7881 20.4293Z" fill="#F0F2F3"/>
<path d="M27.3357 34.3776C27.3969 34.3637 27.4553 34.3498 27.5165 34.3359C27.1243 35.5871 27.2022 36.88 27.1744 38.1645C27.1215 40.6502 27.5388 43.0719 28.1842 45.4575C28.8519 47.9293 29.8756 50.2509 31.1915 52.4474C31.3139 52.6532 31.5642 52.8589 31.3222 53.1453C31.0941 53.2677 30.8437 53.2426 30.5989 53.2426C29.2886 53.2538 27.9783 53.2565 26.6708 53.1425C26.5874 53.1342 26.5095 53.1342 26.4316 53.1731C25.6193 51.8107 24.8125 50.4344 24.2144 48.9692C23.5718 47.3982 22.9959 45.794 22.676 44.1118C22.4229 42.7633 22.1363 41.426 22.0723 40.0469C22.0445 39.4602 22 38.8735 22 38.2841C22.1085 38.159 22.2281 38.0533 22.3616 37.956C23.9056 36.8216 25.4579 35.6956 26.9908 34.5445C27.0937 34.4666 27.1855 34.3637 27.3329 34.3804L27.3357 34.3776Z" fill="#E3E3E4"/>
<path d="M27.3361 34.3795C26.8771 34.905 26.2623 35.2358 25.7171 35.6501C24.5904 36.5009 23.4442 37.3239 22.3064 38.158C22.2146 38.2248 22.1367 38.3165 22.0032 38.2832C21.942 31.5157 24.1453 25.5406 28.3098 20.2523C28.6325 20.2412 28.6548 20.5109 28.7187 20.7138C28.9302 21.4006 29.1193 22.0957 29.2918 22.7964C29.4643 23.497 29.7536 24.1615 29.9094 24.865C29.9539 25.0652 30.0541 25.2765 29.8899 25.4739C29.8732 25.8103 29.7147 26.105 29.5728 26.3914C28.8105 27.9178 28.2764 29.5249 27.8758 31.1765C27.6588 32.0773 27.4252 32.9726 27.3111 33.8957C27.2916 34.0625 27.3 34.2182 27.3361 34.3767V34.3795Z" fill="#767676"/>
<path d="M26.4346 53.1737C26.4819 52.8401 26.7434 52.9986 26.8992 52.9986C28.2233 53.0208 29.5475 53.0625 30.8745 53.0959C31.0386 53.1014 31.2 53.0903 31.3641 53.0875C31.4114 53.0986 31.4448 53.1265 31.4698 53.1682C32.7607 55.1117 34.2351 56.8995 35.9487 58.4843C37.4788 59.8967 39.1312 61.1479 40.9451 62.1794C41.0257 62.2239 41.1342 62.2211 41.2288 62.2406C41.2622 62.274 41.2928 62.3073 41.3262 62.3407C41.6934 62.9579 41.9549 63.6197 42.1413 64.3092C42.1914 64.4955 42.3165 64.7124 42.0829 64.882C40.4749 64.3287 38.8725 63.7587 37.3564 62.9802C33.011 60.7475 29.4641 57.6168 26.7295 53.5685C26.6377 53.4323 26.5375 53.3044 26.4401 53.1737H26.4346Z" fill="#767676"/>
<path d="M29.8868 25.4761C29.4138 23.794 28.9409 22.1146 28.4624 20.4353C28.443 20.3658 28.3595 20.3157 28.3066 20.2545C29.0633 19.4899 29.7087 18.6169 30.5155 17.8995C31.8703 16.6956 33.2362 15.5167 34.7746 14.5353C36.3798 13.5121 38.06 12.6668 39.8071 11.9328C39.8961 11.8967 39.9768 11.8383 40.0602 11.791C40.5332 12.1886 41.0562 12.5195 41.5541 12.8837C41.696 12.9866 41.8629 13.07 41.9297 13.2535C41.9353 13.2813 41.9408 13.3091 41.9464 13.3369C41.8629 13.5232 41.6738 13.5621 41.5208 13.6483C38.7166 15.1914 36.2657 17.1711 34.1348 19.5594C32.6075 21.275 31.3612 23.1823 30.2317 25.1703C30.1594 25.2954 30.1149 25.4455 29.9619 25.5067C29.9341 25.4984 29.909 25.4873 29.8812 25.4734L29.8868 25.4761Z" fill="#E3E3E4"/>
<path d="M41.9352 13.2533C41.351 12.8585 40.7668 12.4665 40.1826 12.0717C40.0853 12.0049 39.9962 11.9299 40.0658 11.7909C41.2648 11.4767 42.4137 10.9873 43.6378 10.7482C44.5002 10.5786 45.357 10.3729 46.2361 10.2894C47.3795 10.32 48.5089 10.067 49.6551 10.1032C50.1336 10.1198 50.6148 10.1032 51.0989 10.1532C50.6204 10.4924 50.0557 10.4868 49.5271 10.5814C47.0456 11.0262 44.7199 11.9132 42.4555 12.9892C42.2802 13.0726 42.1077 13.1644 41.9352 13.2533Z" fill="#767676"/>
<path d="M42.0775 64.8854C42.0942 64.3487 41.8104 63.8955 41.6686 63.4034C41.5656 63.0475 41.3737 62.6305 41.2568 62.2773C41.4015 62.3802 41.6018 62.5665 41.7576 62.6499C44.5006 64.1041 47.4021 65.0828 50.465 65.6083C50.8433 65.6722 51.3107 65.5666 51.5805 65.9864C50.1061 65.9864 48.6289 66.0559 47.1656 65.8752C45.5632 65.675 43.9831 65.3441 42.4141 64.9549C42.3028 64.9271 42.1916 64.9076 42.0775 64.8854Z" fill="#E3E3E4"/>
<path d="M29.9676 25.5093C30.282 24.6585 30.8161 23.9245 31.2835 23.1627C32.6132 20.9912 34.2407 19.0449 36.1268 17.3378C37.7514 15.8697 39.504 14.5601 41.4542 13.5397C41.6127 13.4563 41.7852 13.4035 41.9521 13.334C42.962 13.9179 43.88 14.638 44.8425 15.2914C46.1334 16.1672 47.4047 17.0708 48.6955 17.9439C49.0071 18.1552 49.149 18.3804 49.1462 18.7808C49.1239 21.3582 49.1323 23.9384 49.1406 26.5186C49.1406 26.805 49.0794 26.9996 48.8263 27.1748C45.8663 29.2156 42.9147 31.2675 39.9658 33.3223C39.7934 33.4418 39.6487 33.4446 39.4651 33.3751C36.8334 32.3491 34.2017 31.3287 31.57 30.3055C31.4003 30.2388 31.2417 30.1721 31.1833 29.9635C30.7855 28.5428 30.3766 27.122 29.976 25.704C29.9593 25.6428 29.9676 25.5733 29.9648 25.5093H29.9676Z" fill="#F0F2F3"/>
<path d="M31.4639 53.1709C31.4278 53.1431 31.3944 53.1181 31.3582 53.0903C31.0216 52.4758 30.6767 51.8669 30.3484 51.2497C29.8532 50.3266 29.397 49.384 29.0019 48.4137C28.159 46.3284 27.5915 44.1597 27.2632 41.9465C26.9684 39.9418 26.8932 37.9093 27.1102 35.8824C27.1214 35.7851 27.1297 35.685 27.1186 35.5877C27.0657 35.1122 27.1492 34.6841 27.5108 34.3393C28.5596 33.5552 29.6112 32.7711 30.6572 31.9815C30.8297 31.8508 30.9827 31.8925 31.1607 31.9621C33.8035 32.9936 36.4463 34.0251 39.0975 35.0427C39.4035 35.1595 39.4508 35.407 39.5343 35.6461C40.4996 38.4876 41.4204 41.3431 42.4497 44.1597C42.7641 45.0244 42.714 45.6194 42.1465 46.3673C40.5552 48.4721 39.0614 50.6547 37.548 52.8178C37.2837 53.1932 36.9944 53.3294 36.5298 53.31C34.8412 53.2377 33.1498 53.2154 31.4584 53.1737L31.4639 53.1709Z" fill="#F0F2F3"/>
</g>
<defs>
<clipPath id="clip0_7349_54491">
<rect width="56" height="56" fill="white" transform="translate(22 10)"/>
</clipPath>
</defs>
</svg>
