<svg width="100" height="100" viewBox="0 0 100 100" fill="none" xmlns="http://www.w3.org/2000/svg">
<path d="M53.6005 17.0029C54.2772 17.5219 54.6171 18.2003 54.8192 19.0353C56.2782 25.1324 57.7811 31.2209 59.2693 37.3093C59.0672 37.9704 58.4783 37.9936 57.9598 37.9965C55.2792 38.011 52.5985 38.1588 49.9238 37.9153C49.7538 37.8718 49.5986 37.7964 49.455 37.7007C49.1152 37.3963 48.9716 36.9904 48.8632 36.5642C47.7324 32.0182 46.6719 27.4576 45.5264 22.9145C45.3945 22.3926 45.4355 21.8592 45.3564 21.3344C45.5674 19.7891 45.7314 18.2293 46.8652 17H53.5975L53.6005 17.0029Z" fill="#B9B9B9"/>
<path d="M65.27 61.652C66.3687 66.1864 67.4673 70.7209 68.5659 75.2553C68.0268 75.8062 67.3149 75.7366 66.6411 75.7366C55.7663 75.7511 44.8914 75.7511 34.0166 75.7366C33.3457 75.7366 32.6309 75.8091 32.1064 75.2292C32.4521 73.8927 32.7949 72.5532 33.1406 71.2167C33.75 70.6745 34.5058 70.7818 35.2236 70.7789C40.5262 70.7673 45.826 70.7731 51.1286 70.7731C51.7116 70.7731 52.2976 70.7963 52.8776 70.7325C54.9255 70.5063 56.1002 69.1785 56.0739 67.1403C56.0592 65.8704 55.611 64.6846 55.3796 63.4553C55.2419 62.7218 54.861 61.968 55.3883 61.2287C56.0006 60.8344 56.695 60.904 57.3688 60.9011C59.3609 60.8895 61.3531 60.8779 63.3453 60.9069C64.066 60.9185 64.8365 60.8721 65.2642 61.652H65.27Z" fill="#B9B9B9"/>
<path d="M55.3669 61.3591C55.6481 63.348 56.5241 65.2238 56.5299 67.2649C56.5387 69.6597 54.9919 71.205 52.5544 71.2079C46.0828 71.2195 39.6112 71.2137 33.1396 71.2166C33.9219 67.9289 34.7041 64.6382 35.4863 61.3504C36.0048 60.8662 36.6582 60.9532 37.2792 60.9532C42.7137 60.9445 48.1482 60.9416 53.5798 60.9532C54.1979 60.9532 54.8571 60.8431 55.3639 61.3591H55.3669Z" fill="#AAAAAA"/>
<path d="M70.9084 82.0003C66.9153 81.98 62.9251 81.9452 58.932 81.9452C49.1441 81.9452 39.3561 81.9684 29.5682 81.98C27.5731 81.1682 26.9198 80.1998 27.0077 78.1762C27.7548 77.5325 28.6659 77.7181 29.5243 77.7181C41.0553 77.7065 52.5835 77.663 64.1146 77.75C66.47 77.7674 68.4534 77.4687 69.7102 75.2827C71.7961 75.2392 73.2141 76.1873 73.5451 77.8485C73.9465 79.8664 73.0471 81.2813 70.9143 82.0003H70.9084Z" fill="#B9B9B9"/>
<path d="M35.4678 61.0958C36.1357 58.4778 36.4111 55.7612 37.4804 53.2446C37.5713 53.2243 37.6621 53.2069 37.7529 53.1866C42.578 53.0475 47.4031 53.1461 52.2283 53.1345C53.1775 53.1345 53.8074 53.5578 54.0622 54.4739C54.5691 56.2889 55.0495 58.1096 55.4333 59.9535C55.5915 60.716 55.5065 61.2292 54.4607 61.2234C48.2703 61.1857 42.0771 61.2147 35.8867 61.2031C35.7344 61.2031 35.6025 61.1451 35.4648 61.0987L35.4678 61.0958Z" fill="#E3E3E4"/>
<path d="M69.7074 75.2797C69.3383 77.2628 68.2455 78.1645 66.1889 78.1645C53.1285 78.1703 40.0682 78.1703 27.0078 78.1732C27.7373 75.7204 28.5224 75.2681 32.1083 75.2246C44.2605 75.2333 56.4127 75.242 68.5678 75.2507C68.9486 75.2594 69.3265 75.271 69.7074 75.2797Z" fill="#AAAAAA"/>
<path d="M61.194 45.4417C61.2292 45.5229 61.2321 45.604 61.2086 45.691C60.6989 46.1897 60.0426 46.1143 59.4157 46.1201C57.4177 46.1375 55.4226 46.1404 53.4246 46.1201C52.4402 46.1114 52.1033 46.4883 52.3582 47.448C52.7273 48.8483 53.0906 50.2516 53.4099 51.6635C53.5418 52.2462 53.8318 52.8928 53.1463 53.3712C48.3241 53.3915 43.5019 53.377 38.6797 53.377C38.2959 53.377 37.8975 53.4668 37.5371 53.2465H37.4756C38.082 50.669 38.6885 48.0887 39.2949 45.5113C39.7402 44.9256 40.4023 44.9604 41.0263 44.9604C44.4276 44.9575 47.8319 44.9024 51.2332 44.9836C54.0076 44.9082 56.7819 44.9575 59.5563 44.9575C60.1452 44.9575 60.7311 44.9952 61.1881 45.4417H61.194Z" fill="#AAAAAA"/>
<path d="M37.5401 53.2459C42.7988 53.2401 48.0604 53.2314 53.3191 53.2256C53.9285 52.7066 54.6726 52.8081 55.3845 52.7965C57.9333 52.7501 60.485 52.8893 63.028 52.666C63.775 55.6639 64.5192 58.6588 65.2662 61.6566C64.9762 61.3609 64.6158 61.2942 64.2115 61.2971C61.2614 61.3261 58.3142 61.3435 55.364 61.3638C48.7372 61.3609 42.1103 61.358 35.4834 61.3522C35.4629 61.2681 35.4571 61.1841 35.4659 61.1C41.5918 61.0913 47.7206 61.0478 53.8465 61.1058C55.1267 61.1174 55.2966 60.7521 54.9568 59.6474C54.4646 58.047 54.0017 56.4235 53.7117 54.7796C53.5213 53.6982 52.9998 53.501 52.0301 53.5097C47.703 53.5474 43.3759 53.5329 39.0459 53.5155C38.542 53.5155 37.9678 53.7387 37.5401 53.2488V53.2459Z" fill="#F0F2F3"/>
<path d="M51.2742 45.407C47.2841 45.4418 43.2939 45.4737 39.3008 45.5085C39.9101 42.8469 40.291 40.1274 41.3369 37.5761C41.6328 37.3036 41.9961 37.176 42.3886 37.1644C44.4072 37.0948 46.4286 37.0977 48.4471 37.1644C48.8426 37.176 49.1971 37.318 49.5106 37.5616L49.4872 37.6312C49.8563 37.8979 50.0819 38.2574 50.1932 38.6952C50.6502 40.4695 51.1453 42.2323 51.4764 44.0356C51.5643 44.5169 51.6258 44.9953 51.2713 45.4099L51.2742 45.407Z" fill="#E3E3E4"/>
<path d="M49.5096 37.5554C46.7851 37.5612 44.0605 37.567 41.3359 37.5728C42.6221 32.1453 43.8349 26.7034 45.3583 21.334C46.4218 23.8563 46.7909 26.5614 47.4501 29.191C48.1503 31.9772 48.8241 34.7663 49.5067 37.5554H49.5096Z" fill="#AAAAAA"/>
<path d="M51.2744 45.4062C50.9697 42.7476 50.1435 40.205 49.4873 37.6275C52.247 37.6159 55.0068 37.613 57.7665 37.5782C58.2704 37.5724 58.8417 37.7899 59.2694 37.3086C59.8993 40.0223 60.7957 42.6722 61.1942 45.4381C57.8866 45.4265 54.579 45.4149 51.2715 45.4033L51.2744 45.4062Z" fill="#F0F2F3"/>
<path d="M63.0337 52.6617C62.9985 53.3778 62.4683 53.2966 61.9907 53.2937C59.1021 53.2705 56.2106 53.2473 53.3219 53.2212C52.818 51.1222 52.3786 49.0086 51.7839 46.9356C51.4938 45.9209 51.7253 45.6658 52.7389 45.6803C55.5631 45.7209 58.3873 45.6919 61.2085 45.689C61.815 48.0142 62.4243 50.3365 63.0308 52.6617H63.0337Z" fill="#B9B9B9"/>
<g clip-path="url(#clip0_7349_54480)">
<path d="M19.9701 23.1277C18.1933 23.2747 16.5364 24.015 14.9077 24.6885C13.2791 25.362 11.7445 25.8437 10.2096 26.5393C10.1919 26.5471 10.1941 26.64 10.212 26.6834C11.645 30.3173 13.078 33.9512 14.5144 37.5817C15.8511 40.9559 17.496 44.3256 18.5352 47.8035C18.6877 48.3153 18.7852 48.3496 19.3033 48.1885C20.0712 47.9497 25.5285 46.6916 25.4428 45.9718C25.1437 43.4336 24.3713 40.9066 23.8385 38.4053C22.7663 33.3737 21.6845 28.3473 20.5271 23.3355C20.4864 23.1543 20.27 23.1035 19.9681 23.1283L19.9701 23.1277Z" fill="#E3E3E4"/>
<path d="M25.8435 50.1116C23.4921 49.2921 20.8498 50.7755 20.0708 53.0853C19.0964 55.9773 21.5947 58.6739 24.5199 58.5441C28.3105 58.3746 30.1448 54.0634 27.5791 51.2652C27.0702 50.7105 26.4756 50.3317 25.8435 50.1116Z" fill="#E3E3E4"/>
</g>
<defs>
<clipPath id="clip0_7349_54480">
<rect width="10.8461" height="35.5466" fill="white" transform="translate(10 26) rotate(-17.2736)"/>
</clipPath>
</defs>
</svg>
