<svg width="48" height="16" viewBox="0 0 48 16" fill="none" xmlns="http://www.w3.org/2000/svg">
<rect width="48" height="16" rx="8" fill="#4489FF"/>
<path d="M11.57 6.92L11.04 8.35H12.04L11.76 6.92L11.72 6.5H11.69L11.57 6.92ZM10.81 4.5H12.94L14.55 12H12.75L12.35 9.95H10.44L9.68 12H7.88L10.81 4.5ZM17.7252 4.5L17.0552 12H15.2552L15.9252 4.5H17.7252Z" fill="white"/>
<path d="M24.87 5.65H26.29C26.37 5.43 26.44 5.21 26.5 4.98H24.5V4.14H29.49V4.98H27.44C27.38 5.21 27.31 5.43 27.23 5.65H29.13V11.11H27.98C28.65 11.52 29.22 11.94 29.68 12.36L29.07 12.96C28.67 12.55 28.12 12.11 27.4 11.64L27.95 11.11H26.07L26.67 11.63C26.15 12.16 25.5 12.62 24.73 13.02L24.2 12.35C24.94 11.99 25.55 11.58 26.05 11.11H24.87V5.65ZM28.24 10.34V9.49H25.76V10.34H28.24ZM25.76 8.75H28.24V7.94H25.76V8.75ZM25.76 7.2H28.24V6.42H25.76V7.2ZM21.45 5.44C21.71 5.7 21.95 5.94 22.17 6.17C22.49 5.81 22.79 5.42 23.06 4.98H20.69V4.14H24.03V4.86C23.61 5.6 23.17 6.23 22.69 6.75C22.84 6.93 22.97 7.09 23.08 7.23H24.42V7.81C24.27 8.59 24.09 9.2 23.89 9.64L23.14 9.35C23.29 9 23.43 8.59 23.55 8.11H22.68V12.07C22.68 12.67 22.39 12.98 21.83 12.98H20.86L20.67 12.12C20.97 12.16 21.25 12.18 21.52 12.18C21.68 12.18 21.77 12.07 21.77 11.85V8.11H20.36V7.23H22.06C21.7 6.81 21.26 6.36 20.75 5.88L21.45 5.44ZM31.18 3.98C31.74 4.43 32.21 4.88 32.59 5.32L31.94 5.97C31.61 5.54 31.14 5.08 30.54 4.59L31.18 3.98ZM31.04 6.45C31.57 6.9 32.02 7.35 32.38 7.81L31.74 8.45C31.42 8.01 30.97 7.55 30.41 7.05L31.04 6.45ZM31.68 9.18L32.48 9.49C32.14 10.7 31.76 11.83 31.34 12.89L30.5 12.53C30.95 11.44 31.34 10.32 31.68 9.18ZM32.79 4.12H36.09V10.4H32.79V4.12ZM35.17 9.54V8.48H33.71V9.54H35.17ZM33.71 7.65H35.17V6.68H33.71V7.65ZM33.71 5.85H35.17V4.98H33.71V5.85ZM35.37 10.6C35.84 11.27 36.2 11.86 36.46 12.37L35.72 12.88C35.46 12.32 35.11 11.71 34.67 11.04L35.37 10.6ZM33.38 10.65L34.16 11.02C33.87 11.7 33.5 12.37 33.04 13.02L32.24 12.6C32.72 11.94 33.1 11.29 33.38 10.65ZM36.8 4.68H37.69V10.85H36.8V4.68ZM38.44 12.91H37.37L37.16 12.01C37.49 12.05 37.81 12.07 38.11 12.07C38.35 12.07 38.47 11.92 38.47 11.64V3.83H39.37V11.88C39.37 12.56 39.06 12.91 38.44 12.91Z" fill="white"/>
</svg>
