<svg width="16" height="16" viewBox="0 0 16 16" fill="none" xmlns="http://www.w3.org/2000/svg">
<path d="M8.29168 11.012L11.2748 8.0288C11.4916 7.81217 11.7855 7.69049 12.0919 7.69055C12.3983 7.69061 12.6922 7.81239 12.9088 8.02911C13.1254 8.24582 13.2471 8.53972 13.247 8.84614C13.247 9.15257 13.1252 9.44642 12.9085 9.66305L9.92531 12.6456C9.75153 12.8195 9.53378 12.9429 9.29533 13.0026L8.37011 13.2336C8.27812 13.2565 8.18175 13.2553 8.09039 13.2299C7.99902 13.2046 7.91575 13.1561 7.84868 13.0891C7.78161 13.0221 7.73301 12.9388 7.7076 12.8475C7.6822 12.7562 7.68085 12.6598 7.70369 12.5678L7.9353 11.6426C7.99454 11.4039 8.11739 11.1854 8.29168 11.012Z" fill="#4489FF"/>
<path d="M7.24907 12.4542C7.23515 12.5099 7.22633 12.566 7.22071 12.6233L7.20635 12.7698L7.05964 12.7582C6.13373 12.6852 5.27548 12.4456 4.60059 12.0156L4.60049 12.0156C3.7587 11.4783 3.21255 10.6459 3.21255 9.54398V9.54391C3.21264 9.3615 3.24874 9.18091 3.31877 9.01249C3.3888 8.84406 3.4914 8.69112 3.62067 8.56243C3.74994 8.43374 3.90334 8.33183 4.07208 8.26255C4.2407 8.19332 4.42132 8.15804 4.6036 8.15872M7.24907 12.4542L4.60397 8.15872C4.60385 8.15872 4.60372 8.15872 4.6036 8.15872M7.24907 12.4542L7.35404 12.0356L7.39776 11.8612L7.21839 11.8494C6.36245 11.7931 5.6276 11.5821 5.09423 11.2414L5.09417 11.2414C4.48336 10.8516 4.13018 10.2957 4.13018 9.54398C4.13018 9.28625 4.33875 9.07635 4.60337 9.07635H9.50366H9.56579L9.60973 9.03242L10.2274 8.41479L10.4834 8.15872H10.1213H4.6036M7.24907 12.4542L4.6036 8.15872M7.68597 2.60003C6.99097 2.60003 6.32442 2.87612 5.83298 3.36757C5.34154 3.85901 5.06544 4.52555 5.06544 5.22056C5.06544 5.91557 5.34154 6.58211 5.83298 7.07355C6.32442 7.565 6.99097 7.84109 7.68597 7.84109C8.38098 7.84109 9.04752 7.565 9.53897 7.07355C10.0304 6.58211 10.3065 5.91557 10.3065 5.22056C10.3065 4.52555 10.0304 3.85901 9.53897 3.36757C9.04752 2.87612 8.38098 2.60003 7.68597 2.60003ZM5.98308 5.22056C5.98308 4.76892 6.16249 4.33578 6.48184 4.01643C6.8012 3.69707 7.23434 3.51766 7.68597 3.51766C8.13761 3.51766 8.57075 3.69707 8.8901 4.01643C9.20946 4.33578 9.38887 4.76892 9.38887 5.22056C9.38887 5.67219 9.20946 6.10533 8.8901 6.42469C8.57075 6.74404 8.13761 6.92346 7.68597 6.92346C7.23434 6.92346 6.8012 6.74404 6.48184 6.42469C6.16249 6.10533 5.98308 5.67219 5.98308 5.22056Z" fill="#4489FF" stroke="#4489FF" stroke-width="0.3"/>
</svg>
