<svg width="62" height="18" viewBox="0 0 62 18" fill="none" xmlns="http://www.w3.org/2000/svg">
<path d="M51.9129 4.45596L49.6029 9.80196L50.3069 14.862H48.3709L48.1289 12.86L47.3809 14.884H45.5109L45.2249 16.886H41.8369L43.8829 2.32196L43.2449 1.48596H60.7569L58.7769 15.632C58.7182 15.9986 58.5349 16.3066 58.2269 16.556C57.9189 16.7906 57.5889 16.908 57.2369 16.908H53.4089L55.5209 14.906V14.862H53.5409L53.2989 12.882L52.5289 14.884H50.3069L52.6389 9.64796L51.9349 4.45596H54.0249L54.2009 6.61196L54.9049 4.45596H56.9289L54.8169 9.75796L55.5429 14.752L57.1049 3.57596H47.0949L46.9629 4.45596H48.9429L49.0529 6.61196L49.7569 4.45596H51.9129ZM45.6209 14.004L47.5129 9.64796L46.9409 4.58796L45.6209 14.004Z" fill="white"/>
<path d="M29.8705 16.8859L31.6085 14.9059L32.9065 5.68794H28.8365L29.1445 3.59794H33.1925L33.4345 1.92594L32.7965 1.11194H36.9985L36.6465 3.59794H40.7825L40.4745 5.68794H36.3605L34.9965 15.4999C34.9232 15.9253 34.7472 16.2626 34.4685 16.5119C34.1898 16.7613 33.8598 16.8859 33.4785 16.8859H29.8705ZM23.7545 7.18394L24.2825 3.44394H23.2705L23.5345 1.48594H28.8585L28.5945 3.44394H27.6045L27.0765 7.18394H28.1325L27.8025 9.40594H26.7685L26.1965 13.5199L27.1865 13.3219L26.9005 15.4559L21.3125 16.5339L21.5985 14.4439L22.7865 14.2019L23.4465 9.40594H22.3465L22.6765 7.18394H23.7545ZM27.3405 16.0719L29.0565 10.9459H31.8945L30.1785 16.0719H27.3405ZM36.6025 16.0939L35.8325 10.9679H38.6705L39.4405 16.0939H36.6025ZM36.0085 9.84594L37.2405 6.50194H40.0785L38.8465 9.84594H36.0085ZM29.2105 9.84594L28.9025 6.50194H31.7405L32.0485 9.84594H29.2105ZM37.4605 3.02594L37.2845 1.44194H40.3865L40.5625 3.02594H37.4605Z" fill="white"/>
<path d="M2.702 9.49397H18.3L17.288 16.666H1.69L2.702 9.49397ZM6.134 1.90397H11.986L11.656 4.14797H8.752L8.686 4.58797H11.634L11.348 6.65597H9.896L11.282 9.03197H7.52L6.596 7.46997L5.276 9.05397H1.25L3.582 6.65597H1.316L1.602 4.58797H5.21L5.276 4.14797H4.638L4.572 4.25797H1.602L3.472 1.39797L2.9 1.08997H6.684L6.134 1.90397ZM12.448 1.66196H20.368L19.334 8.96597H11.414L12.448 1.66196ZM6.156 12.266H14.23L14.362 11.386H6.288L6.156 12.266ZM13.878 14.752L13.988 13.96H5.914L5.804 14.752H13.878ZM16.54 6.91997L16.958 3.81797H15.44L15.022 6.91997H16.54Z" fill="white"/>
</svg>
