<svg width="24" height="24" viewBox="0 0 24 24" fill="none" xmlns="http://www.w3.org/2000/svg">
<g clip-path="url(#clip0_11567_6569)">
<path d="M12.0045 23.9999C5.35236 23.9847 0.103693 18.6468 0.00154655 12.1982C-0.104727 5.4952 5.27988 0.0646603 11.8779 0.000456093C18.5197 -0.064006 23.9587 5.2701 24 11.896C24.0418 18.5939 18.7072 23.9638 12.0045 23.9999Z" fill="white"/>
<path d="M15.1532 3.56316C15.1189 3.64155 15.0903 3.72251 15.0622 3.80322C14.6864 4.88283 14.2933 5.95651 13.9386 7.0436C13.806 7.44971 13.8591 7.80941 14.1129 8.15828C14.6729 8.92821 15.242 9.69144 15.8198 10.448C16.0687 10.7739 16.2975 11.1189 16.6292 11.3791C16.6449 11.3914 16.6705 11.4128 16.7071 11.4128C16.7938 11.3971 16.8294 11.3822 16.9137 11.3755C17.0288 11.3662 17.1433 11.3473 17.2578 11.3311C18.2762 11.187 19.2946 11.0433 20.3129 10.8979C20.5794 10.8598 20.8507 10.8389 21.0488 10.6135C21.5044 10.095 21.9431 9.56278 22.3445 9.00144C22.4443 8.86195 22.5018 8.69821 22.4397 8.51669C21.6875 6.31311 20.3728 4.52107 18.5091 3.12637C18.3249 2.98842 18.1323 2.9335 17.9117 2.94098C17.8431 2.9433 17.7742 2.9451 17.7059 2.95103C17.0437 3.00931 16.3847 3.09852 15.7215 3.14493C15.447 3.16401 15.2618 3.31511 15.153 3.56316H15.1532Z" fill="#F3CC00"/>
<path d="M12.3349 7.37105C12.6086 7.31639 12.7982 7.16142 12.8962 6.8979C13.2174 6.0354 13.5235 5.16748 13.823 4.29724C13.9636 3.88855 14.1212 3.48528 14.2368 3.0686C14.2835 2.90074 14.2579 2.74938 14.1295 2.60576C13.7523 2.18366 13.3613 1.77342 12.9924 1.34488C12.7706 1.08729 12.5333 0.985697 12.1964 0.996785C11.6328 1.01535 11.0922 1.03675 10.5739 1.33379C9.37888 2.01864 8.47478 2.94921 7.95141 4.23098C7.63182 5.01355 7.48866 5.83324 7.46673 6.6171C7.41489 7.21454 7.58281 7.78361 7.73087 8.20777C7.75434 8.27481 7.79174 8.27816 7.84875 8.2663C8.02931 8.22917 8.21013 8.19514 8.39095 8.15904C9.7057 7.89655 11.0204 7.6338 12.3352 7.37105H12.3349Z" fill="#F3CC00"/>
<path d="M21.0808 12.2429C20.9751 12.0348 20.7055 11.8842 20.4741 11.9084C20.3207 11.9244 20.1677 11.9456 20.0147 11.9657C19.1437 12.0802 18.2733 12.2003 17.4064 12.3437C17.1882 12.3798 16.9625 12.3842 16.7595 12.4956C16.5575 12.6064 16.4427 12.7898 16.3228 12.9739C16.2763 13.045 16.2769 13.0819 16.3421 13.1415C16.7778 13.5373 17.1363 13.9944 17.4043 14.5194C17.8023 15.2989 17.9901 16.1258 17.9391 17.0009C17.8942 17.7701 17.6759 18.4993 17.4056 19.2153C17.2253 19.6924 17.0004 20.1488 16.7535 20.6062C16.8121 20.6157 16.8616 20.626 16.9117 20.6315C17.3803 20.6841 17.8493 20.7323 18.3175 20.7893C18.4936 20.8107 18.6463 20.7645 18.78 20.6593C20.4801 19.3177 21.6878 17.6244 22.4064 15.582C22.4786 15.377 22.4665 15.1774 22.3791 14.982C21.9661 14.0597 21.5392 13.1438 21.0808 12.2431V12.2429Z" fill="#F3CC00"/>
<path d="M15.4997 12.3592C15.606 12.1155 15.6163 11.8783 15.4535 11.6532C14.7328 10.6556 13.9873 9.67651 13.2429 8.69643C13.025 8.40971 12.7766 8.31121 12.419 8.38676C11.321 8.61856 10.2183 8.82922 9.1176 9.04865C8.82844 9.10615 8.53954 9.16546 8.25116 9.22373C8.25374 9.24307 8.25245 9.25287 8.25632 9.25957C8.27386 9.28897 8.29217 9.3181 8.31152 9.34621C9.11502 10.5161 10.251 11.1233 11.6354 11.3118C12.0009 11.3616 12.3716 11.3585 12.7353 11.4245C13.6678 11.5931 14.5453 11.9105 15.3568 12.402C15.4352 12.4494 15.468 12.4319 15.4997 12.3594V12.3592Z" fill="#F3CC00"/>
<path d="M22.8479 10.1545C22.8229 10.1698 22.8074 10.1759 22.7961 10.1863C22.4694 10.4856 22.1886 10.8257 21.9279 11.1823C21.8425 11.2991 21.8284 11.4322 21.8969 11.5706C21.9934 11.7661 22.0847 11.9644 22.1741 12.1632C22.3941 12.6515 22.653 13.1221 22.8665 13.6213C23.057 12.4708 23.0387 11.3192 22.8479 10.1548V10.1545Z" fill="#F3CC00"/>
<path d="M16.5113 1.96607C15.8231 1.65484 15.1217 1.42252 14.3748 1.25879C14.8123 2.1151 15.6702 2.32783 16.5113 1.96607Z" fill="#F3CC00"/>
<path d="M17.0039 21.6613C16.7404 21.6296 16.4771 21.5953 16.2139 21.5612C16.1739 21.5561 16.1393 21.5584 16.1123 21.596C15.9047 21.8843 15.6773 22.1564 15.4218 22.4395C15.7322 22.3742 16.7669 21.9478 17.0276 21.7838C17.0519 21.7686 17.0846 21.7608 17.0751 21.7188C17.0661 21.6791 17.0439 21.6662 17.0039 21.6613Z" fill="#F3CC00"/>
<path d="M15.795 14.0027C14.8803 13.0943 13.7503 12.6126 12.4972 12.3955C12.0499 12.3179 11.592 12.3256 11.1442 12.24C9.89321 12.0012 8.81165 11.4533 7.95063 10.5026C7.85596 10.3979 7.74995 10.3203 7.62794 10.2561C7.427 10.1507 7.22786 10.0413 7.0277 9.93381C6.75221 9.78555 6.47905 9.6329 6.20073 9.49005C5.95129 9.36216 5.77537 9.40754 5.67503 9.63471C5.45501 10.1321 5.24169 10.6323 5.03404 11.1349C4.94763 11.344 4.99948 11.4871 5.19345 11.6072C5.8071 11.9881 6.30391 12.4945 6.74886 13.0548C7.33079 13.7879 7.7582 14.6145 8.1771 15.4458C9.27182 17.6179 10.7127 19.5162 12.6174 21.0471C13.1173 21.4488 13.6406 21.8106 14.2411 22.0496C14.3247 22.0828 14.3809 22.0764 14.4444 22.0104C14.6255 21.8214 14.8071 21.6332 14.9729 21.4307C15.7437 20.4914 16.3047 19.4386 16.6648 18.2796C16.8201 17.7794 16.9411 17.2709 16.9403 16.6613C16.9168 15.6789 16.5526 14.7545 15.795 14.0024V14.0027Z" fill="#4489FF"/>
<path d="M9.64225 19.3693C8.66438 18.2098 7.86346 16.9352 7.19203 15.5766C6.85747 14.8998 6.49454 14.2389 6.02431 13.643C5.64977 13.1683 5.23164 12.7421 4.71395 12.4211C4.63863 12.3744 4.59504 12.36 4.58884 12.4734C4.58575 12.5325 4.56486 12.5905 4.55325 12.6493C4.35154 13.6629 4.20322 14.6842 4.13486 15.7156C4.08276 16.5036 4.07682 17.2929 4.12867 18.0816C4.172 18.7397 4.32729 19.368 4.65127 19.9461C4.78901 20.1921 4.93423 20.4342 5.16277 20.6155C5.87831 21.1835 6.64957 21.6601 7.4848 22.029C9.14828 22.7639 10.8819 23.1159 12.7048 22.9506C12.9852 22.9251 13.261 22.8663 13.5646 22.7654C13.2233 22.5991 12.9246 22.4398 12.6527 22.2374C11.5327 21.404 10.5407 20.435 9.64199 19.3693H9.64225Z" fill="#4489FF"/>
<path d="M3.36928 11.7991C2.73732 11.6629 2.13321 11.748 1.5598 12.0446C1.35499 12.1505 1.18036 12.2939 1.06351 12.4989C1.02843 12.5605 1.01089 12.6219 1.01682 12.6943C1.04752 13.0747 1.08415 13.4542 1.14863 13.8304C1.3942 15.262 1.89848 16.5958 2.6687 17.8284C2.8957 18.1914 3.14281 18.54 3.4379 18.9028C3.433 18.8293 3.43351 18.795 3.42835 18.7615C3.34762 18.2492 3.27539 17.736 3.24521 17.2175C3.19311 16.3202 3.222 15.4252 3.31383 14.532C3.39198 13.7729 3.52276 13.0218 3.68088 12.2753C3.73866 12.0033 3.64167 11.8579 3.36903 11.7991H3.36928Z" fill="#4489FF"/>
<path d="M4.22075 10.6715C4.43485 10.1762 4.64946 9.68086 4.86484 9.18605C4.98221 8.91686 4.94584 8.81939 4.68428 8.68221C4.29323 8.47748 3.90348 8.27043 3.5145 8.06209C3.08399 7.83157 2.65528 7.59719 2.22451 7.36693C2.07336 7.28597 2.05427 7.29344 1.98514 7.44351C1.65652 8.15852 1.41121 8.90138 1.24561 9.67055C1.11277 10.2876 1.03074 10.9111 1.0083 11.5706C1.09858 11.5136 1.16616 11.4701 1.23478 11.4278C1.59306 11.2076 1.95315 10.992 2.37077 10.8976C2.82553 10.7948 3.27538 10.8615 3.72472 10.9348C3.99892 10.9794 4.11241 10.9219 4.22075 10.6713V10.6715Z" fill="#4489FF"/>
<path d="M2.64085 6.5326C3.45208 6.96011 4.26177 7.39046 5.06347 7.83577C5.37016 8.00595 5.56878 7.93555 5.72149 7.61814C5.86181 7.326 6.04392 7.0599 6.24898 6.81417C6.40298 6.62955 6.49506 6.4439 6.48191 6.20023C6.47675 6.10535 6.4525 6.03959 6.38492 5.97771C6.27452 5.87689 6.15019 5.79309 6.05939 5.66881C5.67763 5.14615 5.5012 4.5549 5.47076 3.91647C5.4589 3.66945 5.46896 3.42166 5.46896 3.15015C5.41169 3.19218 5.37687 3.21693 5.34308 3.24271C4.22901 4.09232 3.30918 5.11676 2.58049 6.31291C2.4982 6.44777 2.4982 6.45757 2.64085 6.53286V6.5326Z" fill="#4489FF"/>
<path d="M6.56995 3.62248C6.61043 3.67198 6.65401 3.72123 6.70403 3.75991C6.85229 3.87439 7.02505 3.83082 7.09905 3.66451C7.30997 3.18903 7.57298 2.74476 7.88832 2.33117C8.09615 2.05889 8.32796 1.80826 8.57446 1.56356C8.55693 1.55943 8.54764 1.55376 8.54094 1.55608C7.71634 1.82708 6.93712 2.19503 6.19864 2.65116C6.14372 2.68494 6.13934 2.71898 6.15326 2.77777C6.2283 3.09131 6.36625 3.37288 6.56969 3.62222L6.56995 3.62248Z" fill="#4489FF"/>
<path d="M6.88307 8.80055C6.76575 8.52516 6.68839 8.25778 6.6015 7.98523C6.26862 8.33926 6.35113 8.57983 6.88307 8.80055Z" fill="#4489FF"/>
</g>
<defs>
<clipPath id="clip0_11567_6569">
<rect width="24" height="24" fill="white"/>
</clipPath>
</defs>
</svg>
