<svg width="14" height="12" viewBox="0 0 14 12" fill="none" xmlns="http://www.w3.org/2000/svg">
<path d="M11.55 10.5H2.45C2.2575 10.5 2.1 10.6687 2.1 10.875V11.625C2.1 11.8313 2.2575 12 2.45 12H11.55C11.7425 12 11.9 11.8313 11.9 11.625V10.875C11.9 10.6687 11.7425 10.5 11.55 10.5ZM12.95 3C12.3703 3 11.9 3.50391 11.9 4.125C11.9 4.29141 11.935 4.44609 11.9963 4.58906L10.4125 5.60625C10.0756 5.82188 9.64031 5.7 9.44562 5.33438L7.66281 1.99219C7.89687 1.78594 8.05 1.47656 8.05 1.125C8.05 0.503906 7.57969 0 7 0C6.42031 0 5.95 0.503906 5.95 1.125C5.95 1.47656 6.10313 1.78594 6.33719 1.99219L4.55437 5.33438C4.35969 5.7 3.92219 5.82188 3.5875 5.60625L2.00594 4.58906C2.065 4.44844 2.10219 4.29141 2.10219 4.125C2.10219 3.50391 1.63187 3 1.05219 3C0.4725 3 0 3.50391 0 4.125C0 4.74609 0.470313 5.25 1.05 5.25C1.10687 5.25 1.16375 5.24062 1.21844 5.23125L2.8 9.75H11.2L12.7816 5.23125C12.8362 5.24062 12.8931 5.25 12.95 5.25C13.5297 5.25 14 4.74609 14 4.125C14 3.50391 13.5297 3 12.95 3Z" fill="url(#paint0_linear_7509_22229)"/>
<defs>
<linearGradient id="paint0_linear_7509_22229" x1="-13.1895" y1="0.64" x2="26.8481" y2="10.3733" gradientUnits="userSpaceOnUse">
<stop stop-color="#AA8937"/>
<stop offset="0.479167" stop-color="#D5B542"/>
<stop offset="1" stop-color="#FFEEB2"/>
</linearGradient>
</defs>
</svg>
