<svg width="24" height="25" viewBox="0 0 24 25" fill="none" xmlns="http://www.w3.org/2000/svg">
<path d="M7.07449 11.0608C6.84647 11.0608 6.6158 11.0608 6.38249 11.0608C5.43815 11.0266 4.49687 11.187 3.61707 11.5318C2.73727 11.8766 1.93772 12.3985 1.26804 13.0652L1.07715 13.2879V19.8738H4.32239V16.1354L4.75986 15.6423L4.95871 15.4116C5.99427 14.3478 7.2835 13.5649 8.70506 13.1368C7.99333 12.5952 7.43201 11.8805 7.07449 11.0608Z" fill="#D9D9D9"/>
<path d="M22.458 13.0413C21.7883 12.3746 20.9887 11.8527 20.1089 11.5079C19.2291 11.1631 18.2879 11.0028 17.3435 11.0369C17.0539 11.0377 16.7645 11.0537 16.4765 11.0846C16.1123 11.8537 15.5663 12.5226 14.8857 13.0334C16.4034 13.4532 17.7781 14.2781 18.8628 15.4196L19.0616 15.6423L19.4911 16.1354V19.8818H22.625V13.264L22.458 13.0413Z" fill="#D9D9D9"/>
<path d="M6.35835 9.50974C6.44585 9.50974 6.51743 9.50974 6.60493 9.50974C6.49036 8.52601 6.66297 7.53016 7.10192 6.64238C7.54087 5.7546 8.2274 5.01285 9.07863 4.50665C8.77007 4.03526 8.34437 3.65208 7.84322 3.39464C7.34207 3.1372 6.78265 3.01432 6.21974 3.03804C5.65684 3.06176 5.10974 3.23127 4.63203 3.52996C4.15431 3.82865 3.76236 4.24629 3.49455 4.74197C3.22674 5.23766 3.09225 5.7944 3.10425 6.35767C3.11626 6.92095 3.27435 7.47146 3.56303 7.95528C3.85172 8.43911 4.26111 8.83966 4.75112 9.11773C5.24112 9.39579 5.79495 9.54184 6.35835 9.54155V9.50974Z" fill="#D9D9D9"/>
<path d="M16.9618 8.91318C16.9715 9.096 16.9715 9.2792 16.9618 9.46201C17.1145 9.48621 17.2686 9.4995 17.4231 9.50178H17.5743C18.1352 9.47187 18.6788 9.29723 19.1522 8.99485C19.6256 8.69248 20.0127 8.27268 20.2757 7.77633C20.5387 7.27997 20.6687 6.72397 20.653 6.16247C20.6373 5.60096 20.4765 5.05308 20.1863 4.57216C19.896 4.09124 19.4862 3.69367 18.9966 3.41816C18.5071 3.14266 17.9546 2.9986 17.3929 3.00001C16.8311 3.00142 16.2794 3.14826 15.7912 3.42623C15.3031 3.70419 14.8953 4.10382 14.6074 4.58619C15.3273 5.05622 15.9193 5.69761 16.3302 6.45282C16.7411 7.20802 16.9582 8.05343 16.9618 8.91318Z" fill="#D9D9D9"/>
<path d="M11.7439 12.4766C13.7075 12.4766 15.2994 10.8848 15.2994 8.92114C15.2994 6.95752 13.7075 5.36569 11.7439 5.36569C9.78031 5.36569 8.18848 6.95752 8.18848 8.92114C8.18848 10.8848 9.78031 12.4766 11.7439 12.4766Z" fill="#BFBFBF"/>
<path d="M11.9342 14.3696C10.8955 14.3277 9.85897 14.4963 8.88708 14.8654C7.9152 15.2345 7.02802 15.7964 6.27893 16.5172L6.08008 16.7399V21.7748C6.08318 21.9389 6.11857 22.1006 6.18421 22.251C6.24985 22.4013 6.34446 22.5372 6.46265 22.651C6.58083 22.7647 6.72026 22.8541 6.87298 22.9139C7.02571 22.9738 7.18872 23.0029 7.35272 22.9998H16.4919C16.6559 23.0029 16.8189 22.9738 16.9716 22.9139C17.1244 22.8541 17.2638 22.7647 17.382 22.651C17.5002 22.5372 17.5948 22.4013 17.6604 22.251C17.7261 22.1006 17.7614 21.9389 17.7645 21.7748V16.7559L17.5737 16.5172C16.8294 15.7942 15.9453 15.2307 14.9756 14.8614C14.0059 14.4921 12.9709 14.3248 11.9342 14.3696Z" fill="#BFBFBF"/>
</svg>
