<svg width="24" height="24" viewBox="0 0 24 24" fill="none" xmlns="http://www.w3.org/2000/svg">
<path d="M16.0097 17.548L10.4542 11.9925L16.0097 6.437C16.1423 6.30444 16.2474 6.14707 16.3192 5.97387C16.3909 5.80067 16.4278 5.61503 16.4278 5.42756C16.4278 5.24009 16.3909 5.05446 16.3192 4.88126C16.2474 4.70806 16.1423 4.55069 16.0097 4.41812C15.8771 4.28556 15.7198 4.18041 15.5466 4.10867C15.3734 4.03693 15.1877 4 15.0003 4C14.8128 4 14.6272 4.03693 14.454 4.10867C14.2808 4.18041 14.1234 4.28556 13.9908 4.41812L7.41873 10.9902C7.28599 11.1227 7.18069 11.28 7.10884 11.4532C7.03698 11.6265 7 11.8121 7 11.9997C7 12.1872 7.03698 12.3729 7.10884 12.5461C7.18069 12.7193 7.28599 12.8766 7.41873 13.0091L13.9908 19.5812C14.5492 20.1396 15.4513 20.1396 16.0097 19.5812C16.5538 19.0228 16.5681 18.1064 16.0097 17.548Z" fill="white"/>
</svg>
