<svg width="32" height="32" viewBox="0 0 32 32" fill="none" xmlns="http://www.w3.org/2000/svg">
<rect width="32" height="32" rx="16" fill="white" fill-opacity="0.1"/>
<path d="M16.5008 18.2274C17.7309 18.2274 18.7281 17.2302 18.7281 16.0001C18.7281 14.7699 17.7309 13.7727 16.5008 13.7727C15.2707 13.7727 14.2734 14.7699 14.2734 16.0001C14.2734 17.2302 15.2707 18.2274 16.5008 18.2274Z" stroke="white" stroke-width="1.2"/>
<path d="M17.8104 8.68829C17.5379 8.57544 17.1919 8.57544 16.4999 8.57544C15.808 8.57544 15.462 8.57544 15.1895 8.68829C15.0092 8.76292 14.8454 8.87234 14.7075 9.01031C14.5695 9.14828 14.4601 9.31208 14.3855 9.49236C14.3171 9.65793 14.2897 9.85171 14.2793 10.1331C14.2747 10.3365 14.2184 10.5354 14.1158 10.7111C14.0132 10.8869 13.8676 11.0336 13.6927 11.1376C13.5152 11.2372 13.3153 11.2899 13.1118 11.2909C12.9083 11.292 12.7079 11.2413 12.5293 11.1436C12.2799 11.0114 12.0995 10.9387 11.9205 10.9149C11.5302 10.8636 11.1355 10.9693 10.8232 11.2089C10.5901 11.3893 10.4163 11.6885 10.0703 12.2877C9.72436 12.8868 9.55062 13.186 9.51276 13.4793C9.48724 13.6727 9.50008 13.8692 9.55052 14.0576C9.60097 14.246 9.68804 14.4226 9.80677 14.5774C9.91665 14.72 10.0703 14.8395 10.3087 14.9895C10.6598 15.21 10.8855 15.5856 10.8855 15.9999C10.8855 16.4142 10.6598 16.7899 10.3087 17.0097C10.0703 17.1604 9.91591 17.2799 9.80677 17.4225C9.68804 17.5772 9.60097 17.7538 9.55052 17.9423C9.50008 18.1307 9.48724 18.3272 9.51276 18.5205C9.55137 18.8131 9.72436 19.113 10.0696 19.7122C10.4163 20.3113 10.5893 20.6105 10.8232 20.791C10.9779 20.9097 11.1546 20.9968 11.343 21.0472C11.5314 21.0977 11.7279 21.1105 11.9213 21.085C12.0995 21.0612 12.2799 20.9885 12.5293 20.8563C12.7079 20.7586 12.9083 20.7079 13.1118 20.7089C13.3153 20.71 13.5152 20.7627 13.6927 20.8622C14.0514 21.0701 14.2644 21.4525 14.2793 21.8668C14.2897 22.1489 14.3164 22.3419 14.3855 22.5075C14.4601 22.6878 14.5695 22.8516 14.7075 22.9896C14.8454 23.1275 15.0092 23.2369 15.1895 23.3116C15.462 23.4244 15.808 23.4244 16.4999 23.4244C17.1919 23.4244 17.5379 23.4244 17.8104 23.3116C17.9907 23.2369 18.1545 23.1275 18.2924 22.9896C18.4304 22.8516 18.5398 22.6878 18.6144 22.5075C18.6828 22.3419 18.7102 22.1489 18.7206 21.8668C18.7355 21.4525 18.9485 21.0694 19.3072 20.8622C19.4847 20.7627 19.6846 20.71 19.8881 20.7089C20.0916 20.7079 20.292 20.7586 20.4706 20.8563C20.72 20.9885 20.9004 21.0612 21.0786 21.085C21.272 21.1105 21.4685 21.0977 21.6569 21.0472C21.8453 20.9968 22.022 20.9097 22.1767 20.791C22.4106 20.6113 22.5836 20.3113 22.9296 19.7122C23.2755 19.113 23.4493 18.8138 23.4871 18.5205C23.5127 18.3272 23.4998 18.1307 23.4494 17.9423C23.3989 17.7538 23.3119 17.5772 23.1931 17.4225C23.0832 17.2799 22.9296 17.1604 22.6912 17.0104C22.5173 16.9047 22.3731 16.7565 22.2722 16.5797C22.1713 16.403 22.117 16.2035 22.1144 15.9999C22.1144 15.5856 22.3401 15.21 22.6912 14.9902C22.9296 14.8395 23.084 14.72 23.1931 14.5774C23.3119 14.4226 23.3989 14.246 23.4494 14.0576C23.4998 13.8692 23.5127 13.6727 23.4871 13.4793C23.4485 13.1868 23.2755 12.8868 22.9303 12.2877C22.5836 11.6885 22.4106 11.3893 22.1767 11.2089C22.022 11.0902 21.8453 11.0031 21.6569 10.9527C21.4685 10.9022 21.272 10.8894 21.0786 10.9149C20.9004 10.9387 20.72 11.0114 20.4698 11.1436C20.2914 11.2411 20.0911 11.2918 19.8877 11.2907C19.6844 11.2897 19.4846 11.237 19.3072 11.1376C19.1323 11.0336 18.9867 10.8869 18.8841 10.7111C18.7815 10.5354 18.7252 10.3365 18.7206 10.1331C18.7102 9.85097 18.6835 9.65793 18.6144 9.49236C18.5398 9.31208 18.4304 9.14828 18.2924 9.01031C18.1545 8.87234 17.9907 8.76292 17.8104 8.68829Z" stroke="white" stroke-width="1.2"/>
</svg>
