<svg width="18" height="17" viewBox="0 0 18 17" fill="none" xmlns="http://www.w3.org/2000/svg">
<g id="ic / default / video">
<path id="Union" d="M15.9062 13.8125C15.9062 13.9534 15.8503 14.0885 15.7507 14.1882C15.651 14.2878 15.5159 14.3438 15.375 14.3438H2.625C2.4841 14.3438 2.34898 14.2878 2.24935 14.1882C2.14972 14.0885 2.09375 13.9534 2.09375 13.8125C2.09375 13.6716 2.14972 13.5365 2.24935 13.4368C2.34898 13.3372 2.4841 13.2812 2.625 13.2812H15.375C15.5159 13.2812 15.651 13.3372 15.7507 13.4368C15.8503 13.5365 15.9062 13.6716 15.9062 13.8125ZM15.9062 3.71875V11.1562C15.9062 11.438 15.7943 11.7083 15.5951 11.9076C15.3958 12.1068 15.1255 12.2188 14.8438 12.2188H3.15625C2.87446 12.2188 2.60421 12.1068 2.40495 11.9076C2.20569 11.7083 2.09375 11.438 2.09375 11.1562V3.71875C2.09375 3.43696 2.20569 3.16671 2.40495 2.96745C2.60421 2.76819 2.87446 2.65625 3.15625 2.65625H14.8438C15.1255 2.65625 15.3958 2.76819 15.5951 2.96745C15.7943 3.16671 15.9062 3.43696 15.9062 3.71875ZM11.3906 7.4375C11.3906 7.34809 11.368 7.26013 11.3249 7.18178C11.2819 7.10342 11.2197 7.0372 11.1443 6.98926L8.22238 5.12988C8.14207 5.07886 8.04953 5.05034 7.95443 5.04731C7.85933 5.04428 7.76516 5.06684 7.68176 5.11265C7.59836 5.15845 7.52879 5.22582 7.48033 5.3077C7.43186 5.38958 7.40628 5.48298 7.40625 5.57812V9.29688C7.40628 9.39202 7.43186 9.48542 7.48033 9.5673C7.52879 9.64918 7.59836 9.71655 7.68176 9.76235C7.76516 9.80816 7.85933 9.83072 7.95443 9.82769C8.04953 9.82466 8.14207 9.79614 8.22238 9.74512L11.1443 7.88574C11.2197 7.8378 11.2819 7.77158 11.3249 7.69322C11.368 7.61487 11.3906 7.52691 11.3906 7.4375Z" fill="white"/>
</g>
</svg>
