<svg width="16" height="16" viewBox="0 0 16 16" fill="none" xmlns="http://www.w3.org/2000/svg">
<g id="&#232;&#182;&#179;&#231;&#144;&#131;&#232;&#179;&#189;&#228;&#186;&#139;&#228;&#187;&#182;&#229;&#156;&#150;&#231;&#164;&#186;" clip-path="url(#clip0_7032_9755)">
<path id="Vector" d="M7.99356 0.507474C3.55356 0.444974 0.256056 4.24747 0.477306 8.31372C0.738556 13.1025 4.16231 15.5087 8.16731 15.4812C12.3748 15.4525 15.5673 12.47 15.4798 7.96497C15.3936 3.46747 12.0861 0.566224 7.99356 0.507474Z" fill="#C8C8C8"/>
<path id="Vector_2" d="M4.4829 1.90126C1.3754 3.68251 -0.597097 8.73126 2.7129 12.5513C3.1179 13.0188 3.76165 13.345 4.2504 13.5675C7.5879 15.0763 11.6267 12.7563 13.1892 10.9875C14.4292 9.58376 14.8854 8.65251 14.7379 6.73626C14.6242 5.24626 13.9867 3.80751 12.6654 2.74376C9.6779 0.333759 6.45665 0.768759 4.4829 1.90126Z" fill="white"/>
<path id="Vector_3" d="M6.67129 4.08999C6.63254 4.18749 6.68379 7.66874 6.76254 7.77249C6.84129 7.87624 10.3413 9.06499 10.4975 9.02624C10.6538 8.98749 12.5213 6.04874 12.5213 5.93124C12.5213 5.81374 10.2238 2.97999 10.1063 2.95374C9.98879 2.92749 6.72379 3.95874 6.67129 4.08999ZM14.67 4.51749C14.67 4.51749 14.155 6.23124 14.155 6.36249C14.155 6.49249 14.4688 7.21124 14.6125 8.09874C14.7563 8.98624 14.5475 10.3187 14.6388 10.3712C14.73 10.4237 15.1825 10.3975 15.1825 10.3975C15.1825 10.3975 15.6188 9.02624 15.435 7.26374C15.2513 5.49999 14.67 4.51749 14.67 4.51749ZM10.955 11.3375C10.85 11.3475 8.09504 13.7137 8.10754 13.78C8.12004 13.845 9.18629 15.4162 9.18629 15.4162C9.18629 15.4162 10.5263 15.31 11.7538 14.645C12.9813 13.98 13.4475 13.3887 13.4475 13.3887C13.4475 13.3887 13.6175 11.8087 13.5525 11.7962C13.4888 11.7812 11.0863 11.325 10.955 11.3375ZM1.76129 8.38623C1.69004 8.44498 1.27754 9.35249 1.16004 9.86249C1.04254 10.3712 0.977539 10.855 0.977539 10.855C0.977539 10.855 1.29129 11.7625 1.76129 12.435C2.34379 13.2675 3.10129 13.855 3.10129 13.855C3.10129 13.855 5.57379 13.1012 5.58754 12.9962C5.60129 12.8912 5.30004 11.9775 5.09129 11.22C4.88254 10.4625 4.84379 9.61374 4.76504 9.56124C4.68629 9.50874 3.89004 9.26124 3.26379 9.01249C2.63754 8.76374 1.84004 8.32123 1.76129 8.38623ZM0.986289 5.23499C0.986289 5.23499 1.67004 5.82624 1.77504 5.82624C1.88004 5.82624 2.54254 4.94874 3.21129 4.41624C4.11254 3.69749 4.55629 3.46249 4.57004 3.37124C4.58254 3.27999 4.97504 1.09874 4.97504 1.09874C4.97504 1.09874 3.52504 1.64749 2.46754 2.86124C1.41004 4.07499 0.986289 5.23499 0.986289 5.23499ZM8.38129 0.516235C8.38129 0.516235 9.21504 0.944985 9.51879 1.15624C9.82254 1.36749 10.27 1.81499 10.4025 1.82874C10.5338 1.84249 12.3475 1.84374 12.3475 1.84374C12.3475 1.84374 11.525 1.28124 10.6138 0.958735C9.51754 0.569985 8.38129 0.516235 8.38129 0.516235Z" fill="#4489FF"/>
</g>
<defs>
<clipPath id="clip0_7032_9755">
<rect width="16" height="16" fill="white"/>
</clipPath>
</defs>
</svg>
