<svg width="66" height="13" viewBox="0 0 66 13" fill="none" xmlns="http://www.w3.org/2000/svg">
<path d="M5.688 0.227999L4.214 10.568H12.442L12.244 12.68H1.266C0.840667 12.68 0.518 12.5407 0.298 12.262C0.0926667 11.9833 -0.00999996 11.6313 -0.00999996 11.206L1.266 1.064L0.628 0.227999H5.688ZM28.6478 0.227999C28.8531 0.227999 29.0438 0.264666 29.2198 0.337999C29.3958 0.411332 29.5424 0.513999 29.6598 0.645999C29.7918 0.777999 29.8798 0.931999 29.9238 1.108C29.9678 1.284 29.9604 1.482 29.9018 1.702L28.4278 12.68H16.5918C16.3864 12.68 16.1958 12.6433 16.0198 12.57C15.8438 12.4967 15.6898 12.394 15.5578 12.262C15.4404 12.13 15.3598 11.976 15.3158 11.8C15.2718 11.6093 15.2791 11.4113 15.3378 11.206L16.8118 0.227999H28.6478ZM20.6178 2.34L19.5618 10.568H24.4238L25.6778 2.34H20.6178ZM47.5427 3.814H43.3187L43.5167 2.34H38.4567L37.4007 10.568H42.4607L42.6807 8.038L41.4047 5.926H47.1027L46.2667 12.68H34.4307C34.2253 12.68 34.0347 12.6433 33.8587 12.57C33.6827 12.4967 33.5287 12.394 33.3967 12.262C33.2793 12.13 33.1987 11.976 33.1547 11.8C33.1107 11.6093 33.118 11.4113 33.1767 11.206L34.6507 0.227999H47.9607L47.5427 3.814ZM64.4974 0.227999C64.7028 0.227999 64.8934 0.264666 65.0694 0.337999C65.2454 0.411332 65.3921 0.513999 65.5094 0.645999C65.6414 0.777999 65.7294 0.931999 65.7734 1.108C65.8174 1.284 65.8101 1.482 65.7514 1.702L64.2774 12.68H52.4414C52.2361 12.68 52.0454 12.6433 51.8694 12.57C51.6934 12.4967 51.5394 12.394 51.4074 12.262C51.2901 12.13 51.2094 11.976 51.1654 11.8C51.1214 11.6093 51.1288 11.4113 51.1874 11.206L52.6614 0.227999H64.4974ZM56.4674 2.34L55.4114 10.568H60.2734L61.5274 2.34H56.4674Z" fill="white"/>
</svg>
