<svg width="14" height="14" viewBox="0 0 14 14" fill="none" xmlns="http://www.w3.org/2000/svg">
<path fill-rule="evenodd" clip-rule="evenodd" d="M7.33755 3.58728C7.33755 1.93278 8.68305 0.58728 10.3376 0.58728C11.9921 0.58728 13.3376 1.93278 13.3376 3.58728V5.83728C13.3376 6.03619 13.2585 6.22696 13.1179 6.36761C12.9772 6.50826 12.7865 6.58728 12.5876 6.58728C12.3886 6.58728 12.1979 6.50826 12.0572 6.36761C11.9166 6.22696 11.8376 6.03619 11.8376 5.83728V3.58728C11.8376 3.18946 11.6795 2.80792 11.3982 2.52662C11.1169 2.24532 10.7354 2.08728 10.3376 2.08728C9.93973 2.08728 9.5582 2.24532 9.27689 2.52662C8.99559 2.80792 8.83755 3.18946 8.83755 3.58728V5.08728H9.58755C9.98538 5.08728 10.3669 5.24532 10.6482 5.52662C10.9295 5.80792 11.0876 6.18946 11.0876 6.58728V11.8373C11.0876 12.2351 10.9295 12.6166 10.6482 12.8979C10.3669 13.1792 9.98538 13.3373 9.58755 13.3373H2.08755C1.68973 13.3373 1.3082 13.1792 1.02689 12.8979C0.74559 12.6166 0.587555 12.2351 0.587555 11.8373V6.58728C0.587555 6.18946 0.74559 5.80792 1.02689 5.52662C1.3082 5.24532 1.68973 5.08728 2.08755 5.08728H4.33755H7.33755V3.58728ZM2.08755 11.8373H9.58755L9.5898 6.58728H2.08755V11.8373ZM6.81247 10.3371C6.81247 10.8755 6.37595 11.3121 5.83747 11.3121C5.299 11.3121 4.86247 10.8755 4.86247 10.3371C4.86247 9.79858 5.299 9.36206 5.83747 9.36206C6.37595 9.36206 6.81247 9.79858 6.81247 10.3371Z" fill="#8D8D8D"/>
</svg>
