<svg width="18" height="18" viewBox="0 0 18 18" fill="none" xmlns="http://www.w3.org/2000/svg">
<path fill-rule="evenodd" clip-rule="evenodd" d="M9.33752 5.58728C9.33752 3.93278 10.683 2.58728 12.3375 2.58728C13.992 2.58728 15.3375 3.93278 15.3375 5.58728V7.83728C15.3375 8.03619 15.2585 8.22696 15.1179 8.36761C14.9772 8.50826 14.7864 8.58728 14.5875 8.58728C14.3886 8.58728 14.1978 8.50826 14.0572 8.36761C13.9165 8.22696 13.8375 8.03619 13.8375 7.83728V5.58728C13.8375 5.18946 13.6795 4.80792 13.3982 4.52662C13.1169 4.24532 12.7353 4.08728 12.3375 4.08728C11.9397 4.08728 11.5582 4.24532 11.2769 4.52662C10.9956 4.80792 10.8375 5.18946 10.8375 5.58728V7.08728H11.5875C11.9853 7.08728 12.3669 7.24532 12.6482 7.52662C12.9295 7.80792 13.0875 8.18946 13.0875 8.58728V13.8373C13.0875 14.2351 12.9295 14.6166 12.6482 14.8979C12.3669 15.1792 11.9853 15.3373 11.5875 15.3373H4.08752C3.6897 15.3373 3.30817 15.1792 3.02686 14.8979C2.74556 14.6166 2.58752 14.2351 2.58752 13.8373V8.58728C2.58752 8.18946 2.74556 7.80792 3.02686 7.52662C3.30817 7.24532 3.6897 7.08728 4.08752 7.08728H6.33752V7.83728H9.33752V5.58728ZM4.08752 13.8373H11.5875L11.5898 8.58728H4.08752V13.8373ZM8.81244 12.3371C8.81244 12.8755 8.37592 13.3121 7.83744 13.3121C7.29896 13.3121 6.86244 12.8755 6.86244 12.3371C6.86244 11.7986 7.29896 11.3621 7.83744 11.3621C8.37592 11.3621 8.81244 11.7986 8.81244 12.3371Z" fill="#4489FF"/>
</svg>
