<svg width="16" height="17" viewBox="0 0 16 17" fill="none" xmlns="http://www.w3.org/2000/svg">
<g id="ic / &#232;&#167;&#146;&#231;&#144;&#131;">
<path id="Union" fill-rule="evenodd" clip-rule="evenodd" d="M8.12787 3.2576C7.97863 3.13418 7.77153 3.10805 7.59631 3.19053C7.42108 3.27301 7.30924 3.44925 7.30924 3.64292V7.73816V11.719C7.17157 11.7662 7.03851 11.8208 6.91005 11.8819C6.09195 12.2715 5.50783 12.9068 5.12149 13.5239H3.33348C3.05734 13.5239 2.83348 13.7477 2.83348 14.0239C2.83348 14.3 3.05734 14.5239 3.33348 14.5239H8.76181C8.86797 14.5239 8.97138 14.4901 9.05705 14.4274L12.9621 11.5702C13.1849 11.4072 13.2334 11.0943 13.0703 10.8715C12.9073 10.6486 12.5944 10.6001 12.3716 10.7632L10.714 11.976C9.82065 11.6025 9.01888 11.4715 8.30924 11.5193V8.23816H12.7616C12.9725 8.23816 13.1607 8.10588 13.2321 7.90748C13.3035 7.70908 13.2428 7.48721 13.0803 7.35284L8.12787 3.2576ZM11.3724 7.23816H8.30924V4.70519L11.3724 7.23816ZM8.59842 13.5239H6.36753C6.63175 13.2302 6.95515 12.968 7.33995 12.7848C7.93135 12.5032 8.71584 12.3849 9.74076 12.6881L8.59842 13.5239Z" fill="#8D8D8D"/>
</g>
</svg>
