<svg width="25" height="9" viewBox="0 0 25 9" fill="none" xmlns="http://www.w3.org/2000/svg">
<path d="M0.943 8.5V0.105H2.829V8.5H0.943ZM2.599 8.5V6.844H6.118V8.5H2.599ZM7.3786 8.5V0.105H9.2646V8.5H7.3786ZM13.0255 8.5L10.4725 0.105H12.416L14.44 7.189L14.003 6.9705H15.176L14.716 7.189L16.5905 0.105H18.4765L16.096 8.5H13.0255ZM19.6867 8.5V0.105H21.5267V8.5H19.6867ZM21.2967 8.5V6.936H24.9652V8.5H21.2967ZM21.2967 5.0155V3.4515H24.7007V5.0155H21.2967ZM21.2967 1.669V0.105H24.8847V1.669H21.2967Z" fill="#4489FF"/>
</svg>
