<svg width="20" height="20" viewBox="0 0 20 20" fill="none" xmlns="http://www.w3.org/2000/svg">
<g id="ic / arrow-up">
<path id="Vector" d="M16.7113 10.2926L10.4581 2.55224C10.4023 2.47429 10.3287 2.41075 10.2434 2.36688C10.1581 2.32302 10.0636 2.30009 9.96776 2.3H9.96632C9.87008 2.3002 9.77528 2.32337 9.68979 2.36757C9.6043 2.41178 9.5306 2.47574 9.4748 2.55416L3.26192 10.2945C3.19769 10.3848 3.15961 10.4912 3.15187 10.6017C3.14412 10.7123 3.167 10.8229 3.218 10.9214C3.26872 11.0199 3.34566 11.1026 3.44035 11.1602C3.53504 11.2178 3.64379 11.2482 3.75464 11.248H6.67856L6.67832 17.0982C6.67829 17.1775 6.69389 17.256 6.72423 17.3292C6.75456 17.4025 6.79905 17.4691 6.85513 17.5251C6.91121 17.5812 6.97779 17.6256 7.05106 17.6559C7.12434 17.6863 7.20287 17.7018 7.28216 17.7018L12.692 17.7015C12.7713 17.7015 12.8499 17.6859 12.9232 17.6556C12.9965 17.6252 13.0631 17.5807 13.1191 17.5246C13.1752 17.4685 13.2197 17.4019 13.25 17.3286C13.2803 17.2553 13.2959 17.1768 13.2958 17.0974V11.2482H16.2207C16.4463 11.2482 16.6534 11.121 16.7576 10.9202C16.8084 10.8214 16.831 10.7106 16.8228 10.5998C16.8146 10.4891 16.776 10.3828 16.7113 10.2926Z" fill="#E6EFFE"/>
</g>
</svg>
