<svg width="17" height="15" viewBox="0 0 17 15" fill="none" xmlns="http://www.w3.org/2000/svg">
<g id="ic / &#229;&#139;&#149;&#231;&#149;&#171;">
<g id="ic / &#229;&#139;&#149;&#231;&#149;&#171;_2">
<mask id="path-1-inside-1_8133_21724" fill="white">
<path d="M0 2.5C0 1.39543 0.895431 0.5 2 0.5H15C16.1046 0.5 17 1.39543 17 2.5V12.5C17 13.6046 16.1046 14.5 15 14.5H2C0.89543 14.5 0 13.6046 0 12.5V2.5Z"/>
</mask>
<path d="M2 1.65H15V-0.65H2V1.65ZM15.85 2.5V12.5H18.15V2.5H15.85ZM15 13.35H2V15.65H15V13.35ZM1.15 12.5V2.5H-1.15V12.5H1.15ZM2 13.35C1.53056 13.35 1.15 12.9694 1.15 12.5H-1.15C-1.15 14.2397 0.260303 15.65 2 15.65V13.35ZM15.85 12.5C15.85 12.9694 15.4694 13.35 15 13.35V15.65C16.7397 15.65 18.15 14.2397 18.15 12.5H15.85ZM15 1.65C15.4694 1.65 15.85 2.03056 15.85 2.5H18.15C18.15 0.760303 16.7397 -0.65 15 -0.65V1.65ZM2 -0.65C0.260303 -0.65 -1.15 0.760303 -1.15 2.5H1.15C1.15 2.03056 1.53056 1.65 2 1.65V-0.65Z" fill="#4489FF" mask="url(#path-1-inside-1_8133_21724)"/>
</g>
<path id="Union" fill-rule="evenodd" clip-rule="evenodd" d="M9.08 0.5H7.93V3.03576C5.71383 3.31589 4 5.2078 4 7.5C4 9.7922 5.71383 11.6841 7.93 11.9642V14.5H9.08V11.963C11.2913 11.6784 13 9.78875 13 7.5C13 5.21125 11.2913 3.32158 9.08 3.03703V0.5ZM7.93 4.1983C6.35135 4.4689 5.15 5.84415 5.15 7.5C5.15 9.15585 6.35135 10.5311 7.93 10.8017V4.1983ZM9.08 10.8V4.20003C10.6537 4.47471 11.85 5.84765 11.85 7.5C11.85 9.15235 10.6537 10.5253 9.08 10.8Z" fill="#4489FF"/>
</g>
</svg>
